<?xml version="1.0" encoding="utf-8" standalone="no"?>
<!DOCTYPE svg PUBLIC "-//W3C//DTD SVG 1.1//EN"
  "http://www.w3.org/Graphics/SVG/1.1/DTD/svg11.dtd">
<svg xmlns:xlink="http://www.w3.org/1999/xlink" width="720pt" height="360pt" viewBox="0 0 720 360" xmlns="http://www.w3.org/2000/svg" version="1.1">
 <metadata>
  <rdf:RDF xmlns:dc="http://purl.org/dc/elements/1.1/" xmlns:cc="http://creativecommons.org/ns#" xmlns:rdf="http://www.w3.org/1999/02/22-rdf-syntax-ns#">
   <cc:Work>
    <dc:type rdf:resource="http://purl.org/dc/dcmitype/StillImage"/>
    <dc:date>2024-03-15T19:47:52.725808</dc:date>
    <dc:format>image/svg+xml</dc:format>
    <dc:creator>
     <cc:Agent>
      <dc:title>Matplotlib v3.7.0, https://matplotlib.org/</dc:title>
     </cc:Agent>
    </dc:creator>
   </cc:Work>
  </rdf:RDF>
 </metadata>
 <defs>
  <style type="text/css">*{stroke-linejoin: round; stroke-linecap: butt}</style>
 </defs>
 <g id="figure_1">
  <g id="patch_1">
   <path d="M 0 360 
L 720 360 
L 720 0 
L 0 0 
z
" style="fill: #ffffff"/>
  </g>
  <g id="axes_1">
   <g id="patch_2">
    <path d="M 90 320.4 
L 648 320.4 
L 648 43.2 
L 90 43.2 
z
" style="fill: #ffffff"/>
   </g>
   <g id="matplotlib.axis_1">
    <g id="xtick_1">
     <g id="line2d_1">
      <defs>
       <path id="m787943302c" d="M 0 0 
L 0 3.5 
" style="stroke: #000000; stroke-width: 0.8"/>
      </defs>
      <g>
       <use xlink:href="#m787943302c" x="115.279077" y="320.4" style="stroke: #000000; stroke-width: 0.8"/>
      </g>
     </g>
     <g id="text_1">
      <!-- 0 -->
      <g transform="translate(112.097827 334.998438) scale(0.1 -0.1)">
       <defs>
        <path id="DejaVuSans-30" d="M 2034 4250 
Q 1547 4250 1301 3770 
Q 1056 3291 1056 2328 
Q 1056 1369 1301 889 
Q 1547 409 2034 409 
Q 2525 409 2770 889 
Q 3016 1369 3016 2328 
Q 3016 3291 2770 3770 
Q 2525 4250 2034 4250 
z
M 2034 4750 
Q 2819 4750 3233 4129 
Q 3647 3509 3647 2328 
Q 3647 1150 3233 529 
Q 2819 -91 2034 -91 
Q 1250 -91 836 529 
Q 422 1150 422 2328 
Q 422 3509 836 4129 
Q 1250 4750 2034 4750 
z
" transform="scale(0.015625)"/>
       </defs>
       <use xlink:href="#DejaVuSans-30"/>
      </g>
     </g>
    </g>
    <g id="xtick_2">
     <g id="line2d_2">
      <g>
       <use xlink:href="#m787943302c" x="199.838625" y="320.4" style="stroke: #000000; stroke-width: 0.8"/>
      </g>
     </g>
     <g id="text_2">
      <!-- 1000 -->
      <g transform="translate(187.113625 334.998438) scale(0.1 -0.1)">
       <defs>
        <path id="DejaVuSans-31" d="M 794 531 
L 1825 531 
L 1825 4091 
L 703 3866 
L 703 4441 
L 1819 4666 
L 2450 4666 
L 2450 531 
L 3481 531 
L 3481 0 
L 794 0 
L 794 531 
z
" transform="scale(0.015625)"/>
       </defs>
       <use xlink:href="#DejaVuSans-31"/>
       <use xlink:href="#DejaVuSans-30" x="63.623047"/>
       <use xlink:href="#DejaVuSans-30" x="127.246094"/>
       <use xlink:href="#DejaVuSans-30" x="190.869141"/>
      </g>
     </g>
    </g>
    <g id="xtick_3">
     <g id="line2d_3">
      <g>
       <use xlink:href="#m787943302c" x="284.398172" y="320.4" style="stroke: #000000; stroke-width: 0.8"/>
      </g>
     </g>
     <g id="text_3">
      <!-- 2000 -->
      <g transform="translate(271.673172 334.998438) scale(0.1 -0.1)">
       <defs>
        <path id="DejaVuSans-32" d="M 1228 531 
L 3431 531 
L 3431 0 
L 469 0 
L 469 531 
Q 828 903 1448 1529 
Q 2069 2156 2228 2338 
Q 2531 2678 2651 2914 
Q 2772 3150 2772 3378 
Q 2772 3750 2511 3984 
Q 2250 4219 1831 4219 
Q 1534 4219 1204 4116 
Q 875 4013 500 3803 
L 500 4441 
Q 881 4594 1212 4672 
Q 1544 4750 1819 4750 
Q 2544 4750 2975 4387 
Q 3406 4025 3406 3419 
Q 3406 3131 3298 2873 
Q 3191 2616 2906 2266 
Q 2828 2175 2409 1742 
Q 1991 1309 1228 531 
z
" transform="scale(0.015625)"/>
       </defs>
       <use xlink:href="#DejaVuSans-32"/>
       <use xlink:href="#DejaVuSans-30" x="63.623047"/>
       <use xlink:href="#DejaVuSans-30" x="127.246094"/>
       <use xlink:href="#DejaVuSans-30" x="190.869141"/>
      </g>
     </g>
    </g>
    <g id="xtick_4">
     <g id="line2d_4">
      <g>
       <use xlink:href="#m787943302c" x="368.95772" y="320.4" style="stroke: #000000; stroke-width: 0.8"/>
      </g>
     </g>
     <g id="text_4">
      <!-- 3000 -->
      <g transform="translate(356.23272 334.998438) scale(0.1 -0.1)">
       <defs>
        <path id="DejaVuSans-33" d="M 2597 2516 
Q 3050 2419 3304 2112 
Q 3559 1806 3559 1356 
Q 3559 666 3084 287 
Q 2609 -91 1734 -91 
Q 1441 -91 1130 -33 
Q 819 25 488 141 
L 488 750 
Q 750 597 1062 519 
Q 1375 441 1716 441 
Q 2309 441 2620 675 
Q 2931 909 2931 1356 
Q 2931 1769 2642 2001 
Q 2353 2234 1838 2234 
L 1294 2234 
L 1294 2753 
L 1863 2753 
Q 2328 2753 2575 2939 
Q 2822 3125 2822 3475 
Q 2822 3834 2567 4026 
Q 2313 4219 1838 4219 
Q 1578 4219 1281 4162 
Q 984 4106 628 3988 
L 628 4550 
Q 988 4650 1302 4700 
Q 1616 4750 1894 4750 
Q 2613 4750 3031 4423 
Q 3450 4097 3450 3541 
Q 3450 3153 3228 2886 
Q 3006 2619 2597 2516 
z
" transform="scale(0.015625)"/>
       </defs>
       <use xlink:href="#DejaVuSans-33"/>
       <use xlink:href="#DejaVuSans-30" x="63.623047"/>
       <use xlink:href="#DejaVuSans-30" x="127.246094"/>
       <use xlink:href="#DejaVuSans-30" x="190.869141"/>
      </g>
     </g>
    </g>
    <g id="xtick_5">
     <g id="line2d_5">
      <g>
       <use xlink:href="#m787943302c" x="453.517268" y="320.4" style="stroke: #000000; stroke-width: 0.8"/>
      </g>
     </g>
     <g id="text_5">
      <!-- 4000 -->
      <g transform="translate(440.792268 334.998438) scale(0.1 -0.1)">
       <defs>
        <path id="DejaVuSans-34" d="M 2419 4116 
L 825 1625 
L 2419 1625 
L 2419 4116 
z
M 2253 4666 
L 3047 4666 
L 3047 1625 
L 3713 1625 
L 3713 1100 
L 3047 1100 
L 3047 0 
L 2419 0 
L 2419 1100 
L 313 1100 
L 313 1709 
L 2253 4666 
z
" transform="scale(0.015625)"/>
       </defs>
       <use xlink:href="#DejaVuSans-34"/>
       <use xlink:href="#DejaVuSans-30" x="63.623047"/>
       <use xlink:href="#DejaVuSans-30" x="127.246094"/>
       <use xlink:href="#DejaVuSans-30" x="190.869141"/>
      </g>
     </g>
    </g>
    <g id="xtick_6">
     <g id="line2d_6">
      <g>
       <use xlink:href="#m787943302c" x="538.076816" y="320.4" style="stroke: #000000; stroke-width: 0.8"/>
      </g>
     </g>
     <g id="text_6">
      <!-- 5000 -->
      <g transform="translate(525.351816 334.998438) scale(0.1 -0.1)">
       <defs>
        <path id="DejaVuSans-35" d="M 691 4666 
L 3169 4666 
L 3169 4134 
L 1269 4134 
L 1269 2991 
Q 1406 3038 1543 3061 
Q 1681 3084 1819 3084 
Q 2600 3084 3056 2656 
Q 3513 2228 3513 1497 
Q 3513 744 3044 326 
Q 2575 -91 1722 -91 
Q 1428 -91 1123 -41 
Q 819 9 494 109 
L 494 744 
Q 775 591 1075 516 
Q 1375 441 1709 441 
Q 2250 441 2565 725 
Q 2881 1009 2881 1497 
Q 2881 1984 2565 2268 
Q 2250 2553 1709 2553 
Q 1456 2553 1204 2497 
Q 953 2441 691 2322 
L 691 4666 
z
" transform="scale(0.015625)"/>
       </defs>
       <use xlink:href="#DejaVuSans-35"/>
       <use xlink:href="#DejaVuSans-30" x="63.623047"/>
       <use xlink:href="#DejaVuSans-30" x="127.246094"/>
       <use xlink:href="#DejaVuSans-30" x="190.869141"/>
      </g>
     </g>
    </g>
    <g id="xtick_7">
     <g id="line2d_7">
      <g>
       <use xlink:href="#m787943302c" x="622.636364" y="320.4" style="stroke: #000000; stroke-width: 0.8"/>
      </g>
     </g>
     <g id="text_7">
      <!-- 6000 -->
      <g transform="translate(609.911364 334.998438) scale(0.1 -0.1)">
       <defs>
        <path id="DejaVuSans-36" d="M 2113 2584 
Q 1688 2584 1439 2293 
Q 1191 2003 1191 1497 
Q 1191 994 1439 701 
Q 1688 409 2113 409 
Q 2538 409 2786 701 
Q 3034 994 3034 1497 
Q 3034 2003 2786 2293 
Q 2538 2584 2113 2584 
z
M 3366 4563 
L 3366 3988 
Q 3128 4100 2886 4159 
Q 2644 4219 2406 4219 
Q 1781 4219 1451 3797 
Q 1122 3375 1075 2522 
Q 1259 2794 1537 2939 
Q 1816 3084 2150 3084 
Q 2853 3084 3261 2657 
Q 3669 2231 3669 1497 
Q 3669 778 3244 343 
Q 2819 -91 2113 -91 
Q 1303 -91 875 529 
Q 447 1150 447 2328 
Q 447 3434 972 4092 
Q 1497 4750 2381 4750 
Q 2619 4750 2861 4703 
Q 3103 4656 3366 4563 
z
" transform="scale(0.015625)"/>
       </defs>
       <use xlink:href="#DejaVuSans-36"/>
       <use xlink:href="#DejaVuSans-30" x="63.623047"/>
       <use xlink:href="#DejaVuSans-30" x="127.246094"/>
       <use xlink:href="#DejaVuSans-30" x="190.869141"/>
      </g>
     </g>
    </g>
    <g id="text_8">
     <!-- Time step -->
     <g transform="translate(344.361719 348.676562) scale(0.1 -0.1)">
      <defs>
       <path id="DejaVuSans-54" d="M -19 4666 
L 3928 4666 
L 3928 4134 
L 2272 4134 
L 2272 0 
L 1638 0 
L 1638 4134 
L -19 4134 
L -19 4666 
z
" transform="scale(0.015625)"/>
       <path id="DejaVuSans-69" d="M 603 3500 
L 1178 3500 
L 1178 0 
L 603 0 
L 603 3500 
z
M 603 4863 
L 1178 4863 
L 1178 4134 
L 603 4134 
L 603 4863 
z
" transform="scale(0.015625)"/>
       <path id="DejaVuSans-6d" d="M 3328 2828 
Q 3544 3216 3844 3400 
Q 4144 3584 4550 3584 
Q 5097 3584 5394 3201 
Q 5691 2819 5691 2113 
L 5691 0 
L 5113 0 
L 5113 2094 
Q 5113 2597 4934 2840 
Q 4756 3084 4391 3084 
Q 3944 3084 3684 2787 
Q 3425 2491 3425 1978 
L 3425 0 
L 2847 0 
L 2847 2094 
Q 2847 2600 2669 2842 
Q 2491 3084 2119 3084 
Q 1678 3084 1418 2786 
Q 1159 2488 1159 1978 
L 1159 0 
L 581 0 
L 581 3500 
L 1159 3500 
L 1159 2956 
Q 1356 3278 1631 3431 
Q 1906 3584 2284 3584 
Q 2666 3584 2933 3390 
Q 3200 3197 3328 2828 
z
" transform="scale(0.015625)"/>
       <path id="DejaVuSans-65" d="M 3597 1894 
L 3597 1613 
L 953 1613 
Q 991 1019 1311 708 
Q 1631 397 2203 397 
Q 2534 397 2845 478 
Q 3156 559 3463 722 
L 3463 178 
Q 3153 47 2828 -22 
Q 2503 -91 2169 -91 
Q 1331 -91 842 396 
Q 353 884 353 1716 
Q 353 2575 817 3079 
Q 1281 3584 2069 3584 
Q 2775 3584 3186 3129 
Q 3597 2675 3597 1894 
z
M 3022 2063 
Q 3016 2534 2758 2815 
Q 2500 3097 2075 3097 
Q 1594 3097 1305 2825 
Q 1016 2553 972 2059 
L 3022 2063 
z
" transform="scale(0.015625)"/>
       <path id="DejaVuSans-20" transform="scale(0.015625)"/>
       <path id="DejaVuSans-73" d="M 2834 3397 
L 2834 2853 
Q 2591 2978 2328 3040 
Q 2066 3103 1784 3103 
Q 1356 3103 1142 2972 
Q 928 2841 928 2578 
Q 928 2378 1081 2264 
Q 1234 2150 1697 2047 
L 1894 2003 
Q 2506 1872 2764 1633 
Q 3022 1394 3022 966 
Q 3022 478 2636 193 
Q 2250 -91 1575 -91 
Q 1294 -91 989 -36 
Q 684 19 347 128 
L 347 722 
Q 666 556 975 473 
Q 1284 391 1588 391 
Q 1994 391 2212 530 
Q 2431 669 2431 922 
Q 2431 1156 2273 1281 
Q 2116 1406 1581 1522 
L 1381 1569 
Q 847 1681 609 1914 
Q 372 2147 372 2553 
Q 372 3047 722 3315 
Q 1072 3584 1716 3584 
Q 2034 3584 2315 3537 
Q 2597 3491 2834 3397 
z
" transform="scale(0.015625)"/>
       <path id="DejaVuSans-74" d="M 1172 4494 
L 1172 3500 
L 2356 3500 
L 2356 3053 
L 1172 3053 
L 1172 1153 
Q 1172 725 1289 603 
Q 1406 481 1766 481 
L 2356 481 
L 2356 0 
L 1766 0 
Q 1100 0 847 248 
Q 594 497 594 1153 
L 594 3053 
L 172 3053 
L 172 3500 
L 594 3500 
L 594 4494 
L 1172 4494 
z
" transform="scale(0.015625)"/>
       <path id="DejaVuSans-70" d="M 1159 525 
L 1159 -1331 
L 581 -1331 
L 581 3500 
L 1159 3500 
L 1159 2969 
Q 1341 3281 1617 3432 
Q 1894 3584 2278 3584 
Q 2916 3584 3314 3078 
Q 3713 2572 3713 1747 
Q 3713 922 3314 415 
Q 2916 -91 2278 -91 
Q 1894 -91 1617 61 
Q 1341 213 1159 525 
z
M 3116 1747 
Q 3116 2381 2855 2742 
Q 2594 3103 2138 3103 
Q 1681 3103 1420 2742 
Q 1159 2381 1159 1747 
Q 1159 1113 1420 752 
Q 1681 391 2138 391 
Q 2594 391 2855 752 
Q 3116 1113 3116 1747 
z
" transform="scale(0.015625)"/>
      </defs>
      <use xlink:href="#DejaVuSans-54"/>
      <use xlink:href="#DejaVuSans-69" x="57.958984"/>
      <use xlink:href="#DejaVuSans-6d" x="85.742188"/>
      <use xlink:href="#DejaVuSans-65" x="183.154297"/>
      <use xlink:href="#DejaVuSans-20" x="244.677734"/>
      <use xlink:href="#DejaVuSans-73" x="276.464844"/>
      <use xlink:href="#DejaVuSans-74" x="328.564453"/>
      <use xlink:href="#DejaVuSans-65" x="367.773438"/>
      <use xlink:href="#DejaVuSans-70" x="429.296875"/>
     </g>
    </g>
   </g>
   <g id="matplotlib.axis_2">
    <g id="ytick_1">
     <g id="line2d_8">
      <defs>
       <path id="mb00cdc08f6" d="M 0 0 
L -3.5 0 
" style="stroke: #000000; stroke-width: 0.8"/>
      </defs>
      <g>
       <use xlink:href="#mb00cdc08f6" x="90" y="305.987494" style="stroke: #000000; stroke-width: 0.8"/>
      </g>
     </g>
     <g id="text_9">
      <!-- −10 -->
      <g transform="translate(61.895313 309.786712) scale(0.1 -0.1)">
       <defs>
        <path id="DejaVuSans-2212" d="M 678 2272 
L 4684 2272 
L 4684 1741 
L 678 1741 
L 678 2272 
z
" transform="scale(0.015625)"/>
       </defs>
       <use xlink:href="#DejaVuSans-2212"/>
       <use xlink:href="#DejaVuSans-31" x="83.789062"/>
       <use xlink:href="#DejaVuSans-30" x="147.412109"/>
      </g>
     </g>
    </g>
    <g id="ytick_2">
     <g id="line2d_9">
      <g>
       <use xlink:href="#mb00cdc08f6" x="90" y="255.949995" style="stroke: #000000; stroke-width: 0.8"/>
      </g>
     </g>
     <g id="text_10">
      <!-- −8 -->
      <g transform="translate(68.257812 259.749214) scale(0.1 -0.1)">
       <defs>
        <path id="DejaVuSans-38" d="M 2034 2216 
Q 1584 2216 1326 1975 
Q 1069 1734 1069 1313 
Q 1069 891 1326 650 
Q 1584 409 2034 409 
Q 2484 409 2743 651 
Q 3003 894 3003 1313 
Q 3003 1734 2745 1975 
Q 2488 2216 2034 2216 
z
M 1403 2484 
Q 997 2584 770 2862 
Q 544 3141 544 3541 
Q 544 4100 942 4425 
Q 1341 4750 2034 4750 
Q 2731 4750 3128 4425 
Q 3525 4100 3525 3541 
Q 3525 3141 3298 2862 
Q 3072 2584 2669 2484 
Q 3125 2378 3379 2068 
Q 3634 1759 3634 1313 
Q 3634 634 3220 271 
Q 2806 -91 2034 -91 
Q 1263 -91 848 271 
Q 434 634 434 1313 
Q 434 1759 690 2068 
Q 947 2378 1403 2484 
z
M 1172 3481 
Q 1172 3119 1398 2916 
Q 1625 2713 2034 2713 
Q 2441 2713 2670 2916 
Q 2900 3119 2900 3481 
Q 2900 3844 2670 4047 
Q 2441 4250 2034 4250 
Q 1625 4250 1398 4047 
Q 1172 3844 1172 3481 
z
" transform="scale(0.015625)"/>
       </defs>
       <use xlink:href="#DejaVuSans-2212"/>
       <use xlink:href="#DejaVuSans-38" x="83.789062"/>
      </g>
     </g>
    </g>
    <g id="ytick_3">
     <g id="line2d_10">
      <g>
       <use xlink:href="#mb00cdc08f6" x="90" y="205.912496" style="stroke: #000000; stroke-width: 0.8"/>
      </g>
     </g>
     <g id="text_11">
      <!-- −6 -->
      <g transform="translate(68.257812 209.711715) scale(0.1 -0.1)">
       <use xlink:href="#DejaVuSans-2212"/>
       <use xlink:href="#DejaVuSans-36" x="83.789062"/>
      </g>
     </g>
    </g>
    <g id="ytick_4">
     <g id="line2d_11">
      <g>
       <use xlink:href="#mb00cdc08f6" x="90" y="155.874997" style="stroke: #000000; stroke-width: 0.8"/>
      </g>
     </g>
     <g id="text_12">
      <!-- −4 -->
      <g transform="translate(68.257812 159.674216) scale(0.1 -0.1)">
       <use xlink:href="#DejaVuSans-2212"/>
       <use xlink:href="#DejaVuSans-34" x="83.789062"/>
      </g>
     </g>
    </g>
    <g id="ytick_5">
     <g id="line2d_12">
      <g>
       <use xlink:href="#mb00cdc08f6" x="90" y="105.837499" style="stroke: #000000; stroke-width: 0.8"/>
      </g>
     </g>
     <g id="text_13">
      <!-- −2 -->
      <g transform="translate(68.257812 109.636717) scale(0.1 -0.1)">
       <use xlink:href="#DejaVuSans-2212"/>
       <use xlink:href="#DejaVuSans-32" x="83.789062"/>
      </g>
     </g>
    </g>
    <g id="ytick_6">
     <g id="line2d_13">
      <g>
       <use xlink:href="#mb00cdc08f6" x="90" y="55.8" style="stroke: #000000; stroke-width: 0.8"/>
      </g>
     </g>
     <g id="text_14">
      <!-- 0 -->
      <g transform="translate(76.6375 59.599219) scale(0.1 -0.1)">
       <use xlink:href="#DejaVuSans-30"/>
      </g>
     </g>
    </g>
    <g id="text_15">
     <!-- Average reward -->
     <g transform="translate(55.815625 221.236719) rotate(-90) scale(0.1 -0.1)">
      <defs>
       <path id="DejaVuSans-41" d="M 2188 4044 
L 1331 1722 
L 3047 1722 
L 2188 4044 
z
M 1831 4666 
L 2547 4666 
L 4325 0 
L 3669 0 
L 3244 1197 
L 1141 1197 
L 716 0 
L 50 0 
L 1831 4666 
z
" transform="scale(0.015625)"/>
       <path id="DejaVuSans-76" d="M 191 3500 
L 800 3500 
L 1894 563 
L 2988 3500 
L 3597 3500 
L 2284 0 
L 1503 0 
L 191 3500 
z
" transform="scale(0.015625)"/>
       <path id="DejaVuSans-72" d="M 2631 2963 
Q 2534 3019 2420 3045 
Q 2306 3072 2169 3072 
Q 1681 3072 1420 2755 
Q 1159 2438 1159 1844 
L 1159 0 
L 581 0 
L 581 3500 
L 1159 3500 
L 1159 2956 
Q 1341 3275 1631 3429 
Q 1922 3584 2338 3584 
Q 2397 3584 2469 3576 
Q 2541 3569 2628 3553 
L 2631 2963 
z
" transform="scale(0.015625)"/>
       <path id="DejaVuSans-61" d="M 2194 1759 
Q 1497 1759 1228 1600 
Q 959 1441 959 1056 
Q 959 750 1161 570 
Q 1363 391 1709 391 
Q 2188 391 2477 730 
Q 2766 1069 2766 1631 
L 2766 1759 
L 2194 1759 
z
M 3341 1997 
L 3341 0 
L 2766 0 
L 2766 531 
Q 2569 213 2275 61 
Q 1981 -91 1556 -91 
Q 1019 -91 701 211 
Q 384 513 384 1019 
Q 384 1609 779 1909 
Q 1175 2209 1959 2209 
L 2766 2209 
L 2766 2266 
Q 2766 2663 2505 2880 
Q 2244 3097 1772 3097 
Q 1472 3097 1187 3025 
Q 903 2953 641 2809 
L 641 3341 
Q 956 3463 1253 3523 
Q 1550 3584 1831 3584 
Q 2591 3584 2966 3190 
Q 3341 2797 3341 1997 
z
" transform="scale(0.015625)"/>
       <path id="DejaVuSans-67" d="M 2906 1791 
Q 2906 2416 2648 2759 
Q 2391 3103 1925 3103 
Q 1463 3103 1205 2759 
Q 947 2416 947 1791 
Q 947 1169 1205 825 
Q 1463 481 1925 481 
Q 2391 481 2648 825 
Q 2906 1169 2906 1791 
z
M 3481 434 
Q 3481 -459 3084 -895 
Q 2688 -1331 1869 -1331 
Q 1566 -1331 1297 -1286 
Q 1028 -1241 775 -1147 
L 775 -588 
Q 1028 -725 1275 -790 
Q 1522 -856 1778 -856 
Q 2344 -856 2625 -561 
Q 2906 -266 2906 331 
L 2906 616 
Q 2728 306 2450 153 
Q 2172 0 1784 0 
Q 1141 0 747 490 
Q 353 981 353 1791 
Q 353 2603 747 3093 
Q 1141 3584 1784 3584 
Q 2172 3584 2450 3431 
Q 2728 3278 2906 2969 
L 2906 3500 
L 3481 3500 
L 3481 434 
z
" transform="scale(0.015625)"/>
       <path id="DejaVuSans-77" d="M 269 3500 
L 844 3500 
L 1563 769 
L 2278 3500 
L 2956 3500 
L 3675 769 
L 4391 3500 
L 4966 3500 
L 4050 0 
L 3372 0 
L 2619 2869 
L 1863 0 
L 1184 0 
L 269 3500 
z
" transform="scale(0.015625)"/>
       <path id="DejaVuSans-64" d="M 2906 2969 
L 2906 4863 
L 3481 4863 
L 3481 0 
L 2906 0 
L 2906 525 
Q 2725 213 2448 61 
Q 2172 -91 1784 -91 
Q 1150 -91 751 415 
Q 353 922 353 1747 
Q 353 2572 751 3078 
Q 1150 3584 1784 3584 
Q 2172 3584 2448 3432 
Q 2725 3281 2906 2969 
z
M 947 1747 
Q 947 1113 1208 752 
Q 1469 391 1925 391 
Q 2381 391 2643 752 
Q 2906 1113 2906 1747 
Q 2906 2381 2643 2742 
Q 2381 3103 1925 3103 
Q 1469 3103 1208 2742 
Q 947 2381 947 1747 
z
" transform="scale(0.015625)"/>
      </defs>
      <use xlink:href="#DejaVuSans-41"/>
      <use xlink:href="#DejaVuSans-76" x="62.533203"/>
      <use xlink:href="#DejaVuSans-65" x="121.712891"/>
      <use xlink:href="#DejaVuSans-72" x="183.236328"/>
      <use xlink:href="#DejaVuSans-61" x="224.349609"/>
      <use xlink:href="#DejaVuSans-67" x="285.628906"/>
      <use xlink:href="#DejaVuSans-65" x="349.105469"/>
      <use xlink:href="#DejaVuSans-20" x="410.628906"/>
      <use xlink:href="#DejaVuSans-72" x="442.416016"/>
      <use xlink:href="#DejaVuSans-65" x="481.279297"/>
      <use xlink:href="#DejaVuSans-77" x="542.802734"/>
      <use xlink:href="#DejaVuSans-61" x="624.589844"/>
      <use xlink:href="#DejaVuSans-72" x="685.869141"/>
      <use xlink:href="#DejaVuSans-64" x="725.232422"/>
     </g>
    </g>
   </g>
   <g id="line2d_14">
    <path d="M 115.363636 55.8 
L 622.636364 55.8 
L 622.636364 55.8 
" clip-path="url(#pf569e5c9c8)" style="fill: none; stroke-dasharray: 5.55,2.4; stroke-dashoffset: 0; stroke: #1f77b4; stroke-width: 1.5"/>
   </g>
   <g id="line2d_15">
    <path d="M 115.363636 55.8 
L 115.617315 96.370945 
L 115.701875 95.769894 
L 115.786434 93.616128 
L 115.870994 97.873573 
L 116.040113 94.5344 
L 116.124672 282.781604 
L 116.209232 264.605758 
L 116.54747 212.530529 
L 116.970268 179.752899 
L 117.054827 175.138347 
L 117.139387 185.764671 
L 117.223946 183.053957 
L 117.731304 161.293356 
L 117.900423 157.54106 
L 117.984982 155.53558 
L 118.069542 164.267845 
L 118.154101 161.873123 
L 118.49234 155.43599 
L 118.746018 151.370704 
L 118.830578 157.50277 
L 118.915137 155.766596 
L 119.084256 152.525738 
L 119.168816 204.81159 
L 119.253376 202.216605 
L 119.337935 199.729745 
L 119.422495 200.426592 
L 119.507054 198.075007 
L 119.591614 201.007946 
L 119.676173 198.735626 
L 119.760733 243.243914 
L 119.845292 240.273607 
L 119.929852 243.339859 
L 120.35265 232.410612 
L 120.521769 228.240359 
L 121.113686 243.587615 
L 121.198245 241.458639 
L 121.282805 244.916803 
L 121.367364 242.665837 
L 121.451924 245.706644 
L 121.705602 240.784362 
L 121.959281 234.919896 
L 122.043841 270.209021 
L 122.1284 267.895913 
L 122.382079 261.44803 
L 122.635757 305.507623 
L 122.889436 307.8 
L 123.312234 296.071104 
L 123.396793 297.246587 
L 124.07327 280.887922 
L 124.157829 280.781764 
L 124.326948 281.925034 
L 124.496068 285.421859 
L 124.580627 285.230325 
L 124.834306 281.712687 
L 125.679901 266.705438 
L 125.764461 267.852309 
L 126.018139 263.564934 
L 126.187258 265.818462 
L 126.271818 264.410992 
L 126.356378 265.448032 
L 127.117414 253.876927 
L 127.201973 254.56369 
L 128.554926 239.574135 
L 129.315962 233.011241 
L 129.400521 243.454326 
L 129.485081 242.513419 
L 129.738759 241.175157 
L 129.823319 242.150403 
L 129.992438 240.319333 
L 130.076998 241.188386 
L 130.161557 240.653176 
L 130.246117 241.603821 
L 131.176272 232.795261 
L 131.768189 227.856886 
L 131.937308 251.509861 
L 132.021867 250.711153 
L 132.782903 244.121866 
L 133.036582 242.146052 
L 133.205701 240.692848 
L 133.29026 241.482635 
L 133.37482 240.741349 
L 133.45938 241.557613 
L 134.220416 235.885048 
L 134.389535 234.530732 
L 134.474094 235.298956 
L 134.896892 232.829777 
L 135.404249 229.048706 
L 135.488809 229.32082 
L 136.418964 223.256293 
L 137.09544 219.791462 
L 137.18 226.576076 
L 137.264559 226.2232 
L 139.463107 213.46307 
L 139.547667 214.144096 
L 139.885905 212.447766 
L 139.970465 213.120607 
L 140.308703 211.532756 
L 140.562382 210.241598 
L 140.646941 210.860753 
L 140.985179 209.176366 
L 141.154298 210.563461 
L 141.238858 210.147447 
L 141.323418 217.76929 
L 141.407977 217.332649 
L 141.492537 218.004039 
L 141.577096 217.569451 
L 141.661656 218.263185 
L 141.830775 217.400663 
L 141.999894 225.4693 
L 142.084453 226.181993 
L 142.507251 224.161036 
L 142.591811 229.587802 
L 142.67637 229.328649 
L 142.845489 228.801315 
L 143.183728 227.219233 
L 143.268287 227.76817 
L 143.606525 226.190277 
L 144.53668 221.737149 
L 144.62124 221.677534 
L 144.874919 220.48756 
L 144.959478 221.37646 
L 145.213157 220.412511 
L 145.297716 221.311246 
L 145.635954 219.824887 
L 145.805074 227.126456 
L 146.227871 225.139007 
L 146.312431 229.912487 
L 146.39699 229.512854 
L 147.411705 225.257492 
L 147.919062 223.508609 
L 148.34186 221.968322 
L 148.42642 222.138427 
L 148.510979 222.613692 
L 148.680098 221.83754 
L 148.764658 222.212329 
L 149.018336 221.198366 
L 149.356575 220.210437 
L 149.441134 220.559309 
L 149.779372 219.355909 
L 150.28673 217.609526 
L 150.371289 217.809649 
L 152.14704 211.343372 
L 152.231599 211.795486 
L 152.654397 210.557268 
L 152.908076 209.734071 
L 152.992635 210.084195 
L 153.161754 214.487039 
L 153.584552 212.99094 
L 153.669112 213.746852 
L 153.838231 213.195798 
L 153.92279 213.624073 
L 154.345588 212.20874 
L 154.430147 216.020398 
L 154.514707 215.733387 
L 154.599267 215.447611 
L 154.683826 215.757272 
L 155.275743 214.150929 
L 155.952219 212.073161 
L 156.036779 212.481552 
L 156.290458 211.702726 
L 156.375017 212.108518 
L 157.051493 210.036511 
L 157.136053 210.471332 
L 157.72797 208.762353 
L 157.812529 209.160276 
L 157.897089 208.909655 
L 157.981648 209.30571 
L 158.489006 207.920854 
L 158.573565 208.141954 
L 158.658125 208.820381 
L 159.080923 207.55221 
L 159.165482 210.961563 
L 159.250042 210.819627 
L 159.334601 210.951777 
L 159.58828 210.258501 
L 159.672839 210.415494 
L 160.433875 208.339554 
L 160.602994 208.703912 
L 160.687554 208.469542 
L 160.772114 208.841877 
L 161.025792 208.218194 
L 161.110352 208.588488 
L 161.194911 208.307109 
L 161.279471 208.715363 
L 161.617709 207.815812 
L 161.702269 208.198712 
L 162.040507 207.311031 
L 162.125066 207.628413 
L 162.209626 207.422534 
L 162.378745 207.903369 
L 163.22434 205.724835 
L 163.3089 205.995716 
L 163.478019 205.639269 
L 163.562579 209.758421 
L 163.647138 209.640069 
L 163.816257 209.744347 
L 164.154495 208.955585 
L 164.323615 209.345049 
L 164.915531 207.991308 
L 165.000091 208.272454 
L 165.338329 207.642524 
L 165.422889 207.682106 
L 165.676567 207.325189 
L 165.761127 210.289479 
L 165.845686 210.076365 
L 166.353044 209.075765 
L 166.437603 211.997964 
L 166.522163 211.784844 
L 167.198639 210.122007 
L 167.283199 210.31087 
L 168.805271 206.947065 
L 168.88983 207.26563 
L 169.143509 206.712697 
L 169.228068 207.008291 
L 170.073664 205.259598 
L 170.158223 207.989562 
L 170.242783 207.797036 
L 170.411902 207.413754 
L 170.496462 207.74865 
L 170.581021 207.557669 
L 170.665581 207.865089 
L 170.75014 207.633283 
L 170.8347 207.939651 
L 171.257497 206.980833 
L 171.342057 210.526375 
L 171.426617 210.334087 
L 172.441331 208.289608 
L 172.864129 207.487279 
L 173.033248 207.163905 
L 173.117808 207.49285 
L 173.456046 206.901783 
L 173.625165 207.506415 
L 173.794284 207.294862 
L 173.878843 207.565798 
L 174.47076 206.333208 
L 174.55532 206.66755 
L 174.893558 205.926658 
L 174.978118 206.214181 
L 175.231796 205.857044 
L 175.400915 206.402915 
L 175.485475 206.229382 
L 175.654594 206.745967 
L 175.739153 206.572682 
L 175.823713 209.045355 
L 175.908273 208.925931 
L 175.992832 208.750334 
L 176.077392 209.025102 
L 176.161951 208.849855 
L 176.246511 209.160928 
L 176.500189 208.810399 
L 176.584749 209.086409 
L 176.669309 208.927014 
L 176.753868 209.0402 
L 176.838428 208.866858 
L 176.922987 212.775203 
L 177.007547 212.597219 
L 177.176666 212.880582 
L 177.261225 212.703183 
L 177.345785 212.868587 
L 177.599464 212.339328 
L 177.684023 212.452243 
L 178.867857 210.531497 
L 178.952416 210.599458 
L 179.628893 209.328907 
L 179.713452 209.590834 
L 179.882571 209.272813 
L 179.967131 211.583575 
L 180.05169 211.550506 
L 180.13625 211.543187 
L 180.812726 210.377823 
L 180.897286 210.522633 
L 181.150965 210.030944 
L 181.235524 210.285927 
L 181.742881 209.279915 
L 181.827441 209.484543 
L 182.503917 208.312271 
L 182.588477 208.454399 
L 183.011275 207.748213 
L 183.095834 207.999048 
L 183.518632 207.282363 
L 184.195108 206.044321 
L 184.871585 204.949675 
L 184.956144 205.210934 
L 185.80174 203.945537 
L 185.970859 203.699571 
L 186.055418 205.818218 
L 186.139978 205.67349 
L 186.816454 204.587864 
L 186.901014 207.956768 
L 186.985573 207.809233 
L 188.676764 205.139804 
L 188.761324 205.374301 
L 188.845883 205.315455 
L 189.099562 204.894602 
L 189.184122 205.08637 
L 191.213551 201.905283 
L 191.38267 201.777457 
L 191.467229 203.747744 
L 191.551789 203.613708 
L 191.805468 203.2696 
L 191.890027 203.136683 
L 192.059146 207.043885 
L 192.143706 206.907255 
L 192.651063 206.156452 
L 192.820182 206.621815 
L 192.904742 206.486985 
L 192.989301 206.707257 
L 193.073861 208.631496 
L 193.15842 208.494922 
L 194.088575 207.166986 
L 194.173135 207.442994 
L 195.10329 206.10001 
L 195.187849 209.117947 
L 195.272409 208.984468 
L 195.695207 208.407383 
L 195.779766 208.618003 
L 195.948885 208.354332 
L 196.033445 208.534868 
L 196.118005 208.403395 
L 196.202564 208.606364 
L 197.132719 207.195583 
L 197.217279 207.343352 
L 197.470957 207.000845 
L 197.555517 207.21324 
L 197.809195 206.830968 
L 197.893755 208.642816 
L 197.978315 208.531301 
L 198.147434 208.274803 
L 198.231993 208.358667 
L 198.401112 208.103303 
L 198.485672 208.250108 
L 200.261422 205.77573 
L 200.430541 205.558209 
L 200.515101 205.824484 
L 202.121732 203.678938 
L 202.375411 207.542477 
L 203.474685 206.02888 
L 203.559245 207.725218 
L 203.643804 207.605718 
L 205.842353 204.694589 
L 205.926912 204.580926 
L 206.34971 204.970337 
L 206.518829 204.743974 
L 206.687948 205.115697 
L 207.279865 204.357283 
L 207.364424 206.977754 
L 207.448984 206.863873 
L 208.294579 205.784934 
L 208.463698 206.07904 
L 208.548258 205.967316 
L 208.632818 206.178375 
L 208.717377 206.066763 
L 208.801937 206.293962 
L 210.07033 204.669438 
L 210.154889 204.851477 
L 210.239449 204.742836 
L 210.324009 206.319583 
L 210.408568 206.20983 
L 210.831366 205.710656 
L 211.254164 205.273328 
L 211.423283 206.934759 
L 211.507842 206.968998 
L 212.0152 206.462693 
L 212.099759 206.639509 
L 212.607116 206.125648 
L 212.691676 206.266122 
L 212.776235 208.305505 
L 212.860795 208.196789 
L 213.199033 207.863737 
L 213.368152 207.683166 
L 213.452712 207.856495 
L 213.960069 207.316612 
L 214.044629 207.489216 
L 214.129188 209.49964 
L 214.213748 209.39139 
L 216.074058 207.155321 
L 216.158617 207.353363 
L 216.581415 206.880892 
L 216.665975 207.047851 
L 219.033642 204.212112 
L 219.118202 204.37881 
L 220.386595 202.988382 
L 220.471154 203.15392 
L 221.147631 202.364357 
L 221.23219 202.529204 
L 221.31675 202.444237 
L 221.401309 202.618559 
L 221.485869 202.536619 
L 221.570428 202.646501 
L 222.077786 202.131997 
L 222.162345 202.295593 
L 222.246905 202.201168 
L 222.331464 202.352802 
L 222.754262 201.936246 
L 222.923381 202.212752 
L 223.007941 202.119058 
L 223.430738 201.662039 
L 223.599858 201.91919 
L 223.684417 201.82631 
L 223.768977 201.944678 
L 223.853536 203.779359 
L 223.938096 203.685248 
L 224.022655 203.591284 
L 224.107215 203.704687 
L 224.868251 203.020407 
L 225.291049 202.86116 
L 225.375608 204.223791 
L 225.460168 204.130639 
L 225.798406 203.831606 
L 225.882965 203.970905 
L 226.052084 203.794013 
L 226.136644 203.950476 
L 226.221204 203.889095 
L 226.390323 203.735737 
L 226.474882 203.850877 
L 226.81312 203.473683 
L 226.89768 203.629322 
L 227.235918 203.264422 
L 227.405037 203.483947 
L 227.743275 203.100793 
L 227.912394 203.291644 
L 228.081514 203.111067 
L 228.166073 203.246193 
L 229.265347 202.236159 
L 231.717574 199.791121 
L 232.055812 199.490803 
L 234.085241 197.620403 
L 234.42348 197.302039 
L 234.508039 197.452121 
L 235.015397 197.002588 
L 235.099956 197.093816 
L 235.776432 196.437798 
L 236.19923 196.226013 
L 236.368349 196.159913 
L 236.452909 196.080839 
L 236.706587 196.390785 
L 238.566898 194.785237 
L 238.651457 194.792293 
L 238.736017 195.038307 
L 238.820576 194.961517 
L 238.989695 194.808251 
L 239.158814 194.830144 
L 239.581612 194.44925 
L 239.750731 196.144257 
L 239.91985 196.091989 
L 240.00441 196.015213 
L 240.173529 196.286045 
L 240.258088 196.209294 
L 240.342648 196.132646 
L 240.427208 196.27642 
L 240.511767 196.209884 
L 240.596327 196.133391 
L 240.680886 196.276873 
L 241.019124 195.97175 
L 241.103684 196.058299 
L 241.357363 195.812369 
L 241.441922 197.395387 
L 241.526482 197.318664 
L 241.78016 197.235956 
L 241.86472 197.377359 
L 241.949279 197.302932 
L 242.541196 196.888888 
L 242.710315 197.174021 
L 242.794875 197.098207 
L 243.048554 197.067556 
L 243.302232 197.284308 
L 243.471351 197.133336 
L 243.555911 197.218464 
L 243.64047 198.773442 
L 243.72503 198.697125 
L 243.809589 198.620908 
L 243.894149 198.77861 
L 243.978709 198.70244 
L 244.063268 198.799709 
L 244.486066 198.551324 
L 244.570625 198.696235 
L 244.655185 199.858529 
L 244.739745 199.782101 
L 245.416221 199.346992 
L 245.50078 199.455754 
L 245.923578 199.072179 
L 246.008138 199.207913 
L 246.430935 198.847068 
L 246.684614 198.99859 
L 246.938293 198.786589 
L 247.44565 199.302865 
L 247.53021 199.228405 
L 247.699329 199.329901 
L 247.953007 199.107181 
L 248.037567 199.199386 
L 248.544924 198.786038 
L 248.967722 198.895398 
L 249.136841 198.74878 
L 249.221401 198.881462 
L 249.30596 198.808254 
L 249.982436 198.26579 
L 250.151556 198.397368 
L 250.574353 198.099337 
L 250.743472 199.310019 
L 250.997151 199.092331 
L 251.081711 199.222982 
L 251.16627 199.150564 
L 251.25083 199.084777 
L 251.419949 199.28124 
L 252.180985 198.776673 
L 252.434663 198.601358 
L 252.772902 198.707175 
L 252.857461 199.800167 
L 252.942021 199.73736 
L 253.364818 199.414105 
L 253.533937 199.600035 
L 254.041295 199.323397 
L 254.125854 200.40603 
L 254.210414 200.334479 
L 254.717771 199.946199 
L 254.802331 199.87523 
L 254.97145 199.880902 
L 255.056009 199.810101 
L 255.140569 199.951272 
L 255.225128 199.880514 
L 255.732486 199.548744 
L 255.817045 199.674718 
L 255.901605 199.604467 
L 256.155283 199.39422 
L 256.239843 200.460574 
L 256.324403 200.390062 
L 256.493522 200.419886 
L 257.000879 200.009582 
L 257.169998 200.009904 
L 257.339117 199.854325 
L 257.508236 201.380415 
L 257.677355 201.245885 
L 257.761915 201.369133 
L 257.846474 201.298835 
L 257.931034 201.24032 
L 258.015594 201.4457 
L 258.100153 201.375482 
L 258.353832 201.165326 
L 258.438391 201.288038 
L 258.522951 201.22434 
L 259.030308 200.806538 
L 259.114868 200.914676 
L 259.199427 200.845306 
L 259.283987 200.776018 
L 259.368546 200.892709 
L 259.453106 200.828372 
L 259.537665 200.782996 
L 259.622225 200.904926 
L 259.706784 200.835806 
L 260.46782 200.357644 
L 260.721499 200.158799 
L 260.975178 200.331441 
L 262.666369 199.413986 
L 262.750928 199.534114 
L 262.835488 199.467244 
L 263.258285 199.273145 
L 263.342845 199.392873 
L 263.427405 199.326352 
L 263.511964 200.340431 
L 263.596524 200.287118 
L 265.203155 199.146481 
L 265.287715 199.271046 
L 265.372274 199.205455 
L 265.625953 199.009125 
L 265.795072 199.249896 
L 265.879631 199.184538 
L 265.964191 199.119253 
L 266.048751 199.227545 
L 266.13331 200.830024 
L 266.21787 200.763927 
L 266.471548 200.906299 
L 267.317144 200.352255 
L 267.570822 200.650591 
L 268.416418 200.43225 
L 268.500977 201.412699 
L 268.585537 201.347302 
L 268.839216 201.171916 
L 269.008335 201.224659 
L 270.276728 200.251023 
L 270.361287 200.364799 
L 270.445847 200.300757 
L 270.784085 200.09511 
L 270.868645 200.288632 
L 270.953204 200.230553 
L 271.122323 200.235252 
L 271.291443 200.223482 
L 271.376002 200.165889 
L 271.545121 200.394703 
L 271.629681 200.331129 
L 271.883359 200.244547 
L 272.052478 201.53921 
L 273.236312 200.769233 
L 273.405431 200.703285 
L 274.589265 199.896459 
L 274.758384 199.945225 
L 275.688539 199.493021 
L 275.773099 199.612967 
L 275.857658 199.551479 
L 276.956932 198.805627 
L 277.887087 198.228597 
L 277.971647 198.41464 
L 278.056206 198.360069 
L 278.309885 198.180329 
L 278.479004 198.263514 
L 278.563564 198.203744 
L 278.648123 198.323449 
L 278.732683 198.26371 
L 278.986361 198.095204 
L 279.24004 198.274145 
L 279.409159 198.181531 
L 279.578278 198.210459 
L 279.916516 197.973452 
L 280.170195 198.130766 
L 280.254755 198.071677 
L 280.423874 198.120638 
L 280.677552 197.956139 
L 280.762112 198.052639 
L 280.846671 199.513311 
L 280.931231 199.492661 
L 281.692267 199.056452 
L 281.861386 199.18415 
L 282.622422 198.813215 
L 282.96066 199.113324 
L 283.975375 198.429291 
L 284.144494 198.440274 
L 284.398172 198.28717 
L 284.567292 198.334717 
L 284.82097 198.167537 
L 284.990089 198.215085 
L 285.497447 197.957597 
L 285.666566 198.02126 
L 286.427602 197.493583 
L 286.596721 198.476277 
L 287.442316 197.932077 
L 287.611435 197.979133 
L 287.865114 197.809905 
L 288.034233 197.856965 
L 288.203352 197.757762 
L 288.372471 198.733229 
L 288.54159 198.696387 
L 288.710709 198.570231 
L 288.879828 198.636084 
L 289.133507 198.724816 
L 289.302626 198.612204 
L 289.471745 198.658097 
L 289.809983 198.464639 
L 289.979103 199.427366 
L 290.063662 199.55845 
L 290.148222 199.502013 
L 290.740139 199.151931 
L 290.824698 200.008316 
L 290.909258 199.985779 
L 291.078377 199.860082 
L 291.162936 200.714479 
L 291.247496 200.657839 
L 291.585734 200.771607 
L 291.670294 200.715076 
L 291.754853 201.566198 
L 291.839413 201.50934 
L 292.177651 201.324244 
L 292.34677 201.402183 
L 293.192365 200.892015 
L 293.276925 202.249335 
L 293.361484 202.193179 
L 293.953401 201.844122 
L 294.12252 201.885766 
L 294.714437 201.58063 
L 294.883556 201.580625 
L 295.221795 201.545004 
L 295.306354 202.378945 
L 295.390914 202.322827 
L 295.644592 202.232096 
L 295.898271 202.380215 
L 296.321069 202.232688 
L 296.405628 203.061247 
L 296.490188 202.99253 
L 296.743866 202.865107 
L 296.912985 202.944227 
L 297.082105 202.832508 
L 297.166664 203.657322 
L 297.251224 203.601184 
L 297.335783 203.545097 
L 297.420343 203.689088 
L 297.504902 203.633013 
L 297.9277 203.35086 
L 298.181379 203.489988 
L 298.435057 203.527857 
L 298.604176 203.567858 
L 300.379927 202.643847 
L 300.464487 203.454058 
L 300.549046 203.399012 
L 300.633606 203.344015 
L 300.887284 203.506451 
L 301.225522 203.333906 
L 301.394642 203.372867 
L 301.986558 203.007604 
L 302.493916 202.695787 
L 302.578475 203.49683 
L 302.663035 203.442385 
L 303.254952 203.16157 
L 303.339511 203.320299 
L 303.424071 204.940655 
L 303.50863 204.904033 
L 303.59319 204.849225 
L 303.677749 206.129836 
L 303.762309 206.074527 
L 303.931428 205.951936 
L 304.015988 206.356034 
L 304.100547 206.300724 
L 304.946143 205.771946 
L 305.115262 206.651403 
L 305.284381 206.541208 
L 305.36894 206.635323 
L 305.538059 207.770133 
L 306.806453 206.964365 
L 306.975572 206.9987 
L 307.144691 206.973179 
L 307.736608 206.627298 
L 307.905727 206.767604 
L 308.074846 206.650334 
L 308.328524 206.7733 
L 309.17412 206.350267 
L 309.343239 206.309001 
L 310.442513 205.71106 
L 310.611632 205.674603 
L 313.402097 204.051216 
L 313.571216 204.096454 
L 314.332252 203.759912 
L 314.416812 203.713498 
L 314.585931 203.74928 
L 314.75505 203.646778 
L 314.83961 204.398201 
L 314.924169 204.346718 
L 315.600646 203.99956 
L 315.685205 205.203801 
L 315.769765 205.152195 
L 316.61536 204.720258 
L 316.784479 204.727768 
L 317.968313 204.092525 
L 318.052872 205.282666 
L 318.137432 205.23163 
L 318.391111 205.095668 
L 318.644789 205.227419 
L 318.813908 205.125732 
L 318.983027 205.945854 
L 319.321266 205.764325 
L 319.405825 206.498063 
L 319.490385 206.45981 
L 319.574944 206.412999 
L 319.744063 206.451481 
L 320.166861 206.295819 
L 320.33598 206.301499 
L 320.589659 206.153293 
L 320.758778 206.25092 
L 321.097016 206.195983 
L 321.266135 206.179512 
L 323.464684 204.964429 
L 323.887481 204.902647 
L 324.563958 204.512472 
L 324.648517 205.228342 
L 324.733077 205.178935 
L 325.494113 204.854531 
L 325.663232 204.887511 
L 326.339708 204.567311 
L 326.677946 204.788758 
L 326.931625 204.695746 
L 327.692661 204.32639 
L 327.86178 204.359449 
L 328.115459 204.221019 
L 328.284578 204.310482 
L 329.975769 203.469869 
L 330.060328 204.168111 
L 330.144888 204.120366 
L 330.229447 204.072658 
L 330.483126 204.19364 
L 330.905924 204.099487 
L 330.990483 204.794472 
L 331.075043 204.746687 
L 331.413281 204.550768 
L 331.497841 205.471036 
L 331.5824 205.4307 
L 331.836079 205.414425 
L 332.258876 205.362293 
L 333.44271 204.839648 
L 333.865508 204.831307 
L 334.795663 204.359841 
L 334.964782 204.391806 
L 336.402294 203.690426 
L 336.571413 203.69511 
L 336.740533 203.618315 
L 336.994211 204.989063 
L 337.24789 204.97369 
L 337.417009 205.008838 
L 337.586128 204.977085 
L 338.516283 204.562067 
L 338.685402 205.49879 
L 338.854521 205.529338 
L 338.939081 206.199083 
L 339.02364 206.158986 
L 339.1082 206.168748 
L 339.277319 207.505734 
L 339.361878 207.458693 
L 339.953795 207.254408 
L 340.88395 206.988115 
L 341.560427 207.054914 
L 342.067784 206.98067 
L 342.490582 207.043495 
L 342.659701 207.110024 
L 343.082499 206.984245 
L 343.251618 206.971909 
L 343.505296 206.91172 
L 343.758975 206.924023 
L 344.520011 206.533907 
L 344.60457 206.608532 
L 344.77369 207.274036 
L 345.027368 207.257154 
L 345.196487 207.288393 
L 345.450166 207.203518 
L 345.619285 207.35162 
L 345.788404 208.289267 
L 345.957523 208.306913 
L 346.211202 208.281275 
L 346.380321 209.197231 
L 346.887678 208.984176 
L 347.056797 208.999409 
L 347.225916 209.019443 
L 347.479595 208.98033 
L 347.648714 209.061278 
L 348.40975 209.205388 
L 348.49431 209.84636 
L 348.578869 209.800329 
L 348.747988 209.826466 
L 348.917107 209.826063 
L 350.35462 209.158417 
L 350.523739 209.169227 
L 351.200215 208.833525 
L 351.453894 208.938905 
L 351.538453 209.571714 
L 351.623013 209.526374 
L 352.21493 209.237183 
L 352.384049 209.319589 
L 353.737002 208.673859 
L 353.906121 208.703957 
L 354.159799 208.574027 
L 354.244359 209.199799 
L 354.328918 209.155104 
L 355.005395 208.851022 
L 355.089954 209.47449 
L 355.174514 209.420322 
L 355.681871 209.273942 
L 355.85099 209.24826 
L 355.93555 209.869398 
L 356.020109 209.83323 
L 356.273788 209.69956 
L 356.442907 210.336686 
L 357.034824 210.105232 
L 357.119384 211.101017 
L 357.203943 211.056189 
L 358.049539 210.720488 
L 358.303217 210.672023 
L 359.148813 210.350242 
L 360.163527 210.027377 
L 360.332646 210.060678 
L 360.417206 210.670179 
L 360.501765 210.626102 
L 360.755444 210.587324 
L 360.924563 210.60032 
L 361.770159 210.477858 
L 361.854718 211.454392 
L 361.939278 211.410303 
L 362.108397 211.330327 
L 362.192956 211.93501 
L 362.277516 211.890817 
L 362.446635 211.802522 
L 362.615754 211.851153 
L 363.123111 211.618344 
L 363.207671 212.220455 
L 363.292231 212.198113 
L 363.630469 212.136548 
L 364.898862 211.730514 
L 365.067981 211.753637 
L 365.406219 211.689554 
L 365.744457 211.591056 
L 367.520208 210.729816 
L 367.604767 211.684012 
L 367.689327 211.64636 
L 368.450363 211.310103 
L 370.226113 210.527555 
L 370.395233 210.522822 
L 370.987149 210.237595 
L 371.071709 210.821651 
L 371.156268 210.779359 
L 371.832745 210.462336 
L 372.001864 210.479235 
L 373.101138 210.048025 
L 373.270257 210.064137 
L 373.354817 210.022453 
L 373.439376 210.601223 
L 373.523936 210.559392 
L 374.876889 209.991995 
L 376.060722 209.490538 
L 376.145282 210.063476 
L 376.229841 210.022253 
L 377.836473 209.36286 
L 378.512949 209.064196 
L 378.682068 209.087836 
L 378.935747 209.075265 
L 379.189426 209.165004 
L 380.035021 208.857197 
L 380.119581 208.921073 
L 380.2887 209.521255 
L 380.457819 209.539487 
L 380.626938 209.647175 
L 380.796057 210.458417 
L 381.218855 210.365905 
L 382.571807 210.177745 
L 383.501962 209.850008 
L 384.432117 209.489896 
L 385.024034 209.341108 
L 385.86963 209.018843 
L 387.053463 208.566127 
L 387.138023 209.116186 
L 387.222583 209.076923 
L 388.998333 208.314447 
L 389.082893 208.860677 
L 389.167452 208.821772 
L 390.689524 208.414618 
L 390.774084 208.957463 
L 390.858643 208.936506 
L 391.788798 208.69527 
L 391.957917 208.718001 
L 394.071906 207.826582 
L 394.156465 208.363022 
L 394.241025 208.337274 
L 394.748382 208.141462 
L 394.832942 208.676508 
L 394.917501 208.638459 
L 395.25574 208.501922 
L 395.340299 209.03589 
L 395.424859 208.997802 
L 395.593978 209.020055 
L 396.270454 208.772788 
L 396.439573 208.802018 
L 396.524133 208.838243 
L 396.608692 209.369704 
L 396.693252 209.331686 
L 396.862371 209.333709 
L 397.538847 209.131401 
L 397.707966 209.666265 
L 397.877086 209.700078 
L 398.638122 209.480224 
L 401.090348 208.613516 
L 401.766825 208.395758 
L 402.950658 207.994507 
L 403.204337 208.021269 
L 403.965373 207.803232 
L 405.656564 207.386807 
L 405.825683 207.926457 
L 406.33304 207.783074 
L 406.502159 207.786962 
L 407.009517 207.642514 
L 407.685993 207.447211 
L 407.770553 207.505456 
L 407.855112 208.016873 
L 407.939672 207.981222 
L 408.024231 207.945077 
L 408.27791 209.024181 
L 408.700708 208.941491 
L 408.954386 208.890919 
L 409.377184 208.818159 
L 409.799982 209.074141 
L 410.22278 208.989695 
L 410.476458 209.058968 
L 410.899256 209.150969 
L 411.068375 209.173706 
L 411.744851 208.969117 
L 411.913971 209.063554 
L 412.08309 209.031048 
L 412.252209 209.073602 
L 412.675006 208.913081 
L 413.182364 208.716392 
L 413.351483 209.274829 
L 413.605161 209.341719 
L 413.9434 209.290783 
L 414.197078 209.33466 
L 414.788995 209.194608 
L 414.958114 209.875189 
L 415.211793 209.887095 
L 416.733865 209.408646 
L 416.902984 209.469435 
L 417.072103 209.4081 
L 417.156662 210.206039 
L 417.241222 210.170374 
L 417.494901 210.066443 
L 417.57946 210.560691 
L 417.66402 210.524977 
L 418.340496 210.334416 
L 418.509615 210.39824 
L 419.186092 210.157029 
L 419.43977 210.097052 
L 421.30008 209.447283 
L 421.469199 209.444584 
L 422.061116 209.371144 
L 422.314795 209.405862 
L 422.906712 209.203259 
L 423.075831 209.223412 
L 423.667748 209.094226 
L 424.090545 209.028918 
L 424.682462 208.84971 
L 424.767022 209.332813 
L 424.851581 209.298264 
L 425.950855 208.955255 
L 426.035415 209.436357 
L 426.119975 209.401921 
L 427.05013 209.066575 
L 427.134689 209.839076 
L 427.219249 209.80712 
L 428.403082 209.438754 
L 429.840595 209.061719 
L 429.925154 209.692897 
L 430.009714 209.658817 
L 430.347952 209.52268 
L 430.432511 209.996918 
L 430.517071 209.957571 
L 431.954583 209.439686 
L 432.039143 209.91154 
L 432.123702 209.888457 
L 433.222977 209.545671 
L 433.392096 209.557291 
L 433.814893 209.393604 
L 433.899453 209.862716 
L 433.984012 209.829015 
L 434.237691 209.814468 
L 434.49137 209.902365 
L 434.575929 209.868717 
L 434.660489 210.336585 
L 434.745048 210.30284 
L 435.675203 210.119584 
L 435.928882 210.204431 
L 436.605358 210.086695 
L 436.774478 210.091986 
L 437.535513 209.884195 
L 437.620073 209.905018 
L 437.704633 210.651974 
L 437.789192 210.618465 
L 438.465669 210.449001 
L 438.888466 210.373578 
L 439.480383 210.155649 
L 439.564943 210.616366 
L 439.649502 210.583058 
L 440.325979 210.320737 
L 440.410538 211.061369 
L 440.495098 211.028032 
L 441.002455 210.833689 
L 441.087015 211.292078 
L 441.171574 211.258751 
L 442.439967 210.870364 
L 442.609086 210.888453 
L 443.201003 210.691217 
L 443.370122 210.709357 
L 444.300277 210.430236 
L 444.469396 211.636116 
L 444.553956 211.603042 
L 444.892194 211.707369 
L 446.245147 211.261064 
L 446.414266 211.278746 
L 446.583385 211.215801 
L 446.752504 211.817755 
L 448.274576 211.549139 
L 448.359136 212.144754 
L 448.443695 212.123943 
L 448.781933 212.054815 
L 448.951052 212.07196 
L 449.627529 211.866938 
L 449.712088 212.313244 
L 449.796648 212.280517 
L 450.473124 212.01359 
L 450.557684 212.458733 
L 450.642243 212.426052 
L 451.741518 212.071975 
L 452.079756 212.194125 
L 452.587113 212.039775 
L 452.756232 212.056735 
L 453.09447 211.927363 
L 453.17903 212.514387 
L 453.263589 212.481946 
L 454.109185 212.243162 
L 454.447423 212.344357 
L 454.870221 212.182515 
L 455.03934 212.205 
L 455.293019 212.108488 
L 455.462138 212.985892 
L 455.546697 212.953551 
L 455.884935 212.919035 
L 456.054054 212.94042 
L 457.407007 212.587163 
L 457.491567 213.023145 
L 457.576126 212.994238 
L 461.043068 211.724431 
L 461.296746 211.789316 
L 462.142342 211.553663 
L 462.226901 212.125469 
L 462.311461 212.093969 
L 463.072497 211.904009 
L 463.157056 212.474201 
L 463.241616 212.437953 
L 463.410735 212.4542 
L 464.848247 212.023086 
L 465.101926 212.066347 
L 466.116641 211.803898 
L 466.370319 211.766544 
L 466.454879 211.743263 
L 466.539438 212.308004 
L 466.623998 212.276846 
L 467.638713 211.930595 
L 467.807832 212.540509 
L 468.230629 212.402998 
L 468.315189 213.08459 
L 468.399748 213.053403 
L 468.991665 212.947941 
L 469.076225 212.994779 
L 469.160784 213.555037 
L 469.245344 213.533504 
L 469.752701 213.434439 
L 469.92182 213.441986 
L 470.090939 213.459463 
L 470.260058 213.510897 
L 471.613011 213.117411 
L 471.78213 213.132954 
L 472.965964 212.742648 
L 473.135083 213.148242 
L 473.388762 213.08358 
L 473.557881 213.516635 
L 473.896119 213.470276 
L 474.234357 213.449044 
L 474.910834 213.259019 
L 475.164512 213.222393 
L 477.024822 212.663475 
L 477.193941 212.689506 
L 478.716013 212.269822 
L 478.885132 212.291245 
L 481.2528 211.547082 
L 481.421919 211.546798 
L 481.591038 211.48738 
L 481.675597 211.894839 
L 481.760157 211.866125 
L 482.182955 211.717452 
L 482.267514 212.1242 
L 482.352074 212.09442 
L 482.605752 212.116897 
L 484.466063 211.560801 
L 484.635182 211.578924 
L 484.97342 211.535727 
L 485.142539 211.545249 
L 485.734456 211.431432 
L 485.903575 211.456409 
L 485.988134 211.991586 
L 486.072694 211.962135 
L 486.918289 211.732532 
L 487.002849 212.134095 
L 487.087409 212.104692 
L 487.510206 212.037624 
L 487.679325 212.055934 
L 489.370516 211.553424 
L 489.455076 211.572524 
L 489.539635 211.725962 
L 489.624195 212.124716 
L 489.708754 212.09552 
L 490.216112 211.965304 
L 490.300671 212.363284 
L 490.385231 212.338184 
L 490.977148 212.203839 
L 491.991862 211.865757 
L 492.752898 211.724499 
L 492.922017 211.743062 
L 495.881601 211.077581 
L 495.966161 211.598815 
L 496.050721 211.580571 
L 496.21984 211.52342 
L 496.304399 211.915227 
L 496.388959 211.88659 
L 496.558078 211.895067 
L 496.727197 211.901221 
L 497.234554 211.750626 
L 497.319114 212.380617 
L 497.403673 212.351953 
L 497.99559 212.285769 
L 498.418388 212.252428 
L 499.263983 212.076205 
L 499.517662 212.11069 
L 500.194138 211.999782 
L 500.447817 211.967818 
L 501.293413 211.767588 
L 501.462532 211.810117 
L 501.969889 211.731602 
L 502.139008 211.746532 
L 502.477246 211.699234 
L 502.646365 211.718766 
L 502.815484 211.732313 
L 503.069163 211.706874 
L 503.407401 211.667878 
L 503.491961 212.052399 
L 503.57652 212.024262 
L 505.52139 211.4674 
L 505.690509 211.495122 
L 506.874343 211.186781 
L 507.128021 212.116872 
L 507.804498 211.999683 
L 508.142736 211.929713 
L 508.227295 212.4345 
L 508.311855 212.406619 
L 508.650093 212.375513 
L 508.819212 212.400332 
L 509.580248 212.225292 
L 509.749367 212.239722 
L 510.341284 212.11239 
L 511.017761 211.985044 
L 511.10232 212.362105 
L 511.18688 212.336093 
L 511.355999 212.307669 
L 511.440558 212.808281 
L 511.525118 212.780547 
L 511.947916 212.663425 
L 512.117035 213.415329 
L 512.201594 213.387513 
L 513.216309 213.147215 
L 513.385428 213.161121 
L 514.484702 212.892309 
L 514.82294 212.954491 
L 516.68325 212.481001 
L 516.936929 212.540059 
L 517.275167 212.456678 
L 517.359727 212.827771 
L 517.444286 212.800442 
L 518.120763 212.673525 
L 518.205322 213.165655 
L 518.289882 213.138312 
L 519.220037 212.93186 
L 519.389156 212.946749 
L 520.319311 212.831606 
L 520.742109 212.82186 
L 521.418585 212.676324 
L 521.587704 213.067852 
L 522.771538 212.785123 
L 522.856097 213.151144 
L 522.940657 213.124116 
L 523.278895 213.051758 
L 524.20905 212.858376 
L 524.378169 212.885569 
L 524.462729 212.86708 
L 524.547288 213.231572 
L 524.631848 213.204639 
L 525.223765 213.099536 
L 525.477443 213.0675 
L 525.646562 213.412501 
L 525.900241 213.334005 
L 525.9848 213.919699 
L 526.06936 213.88715 
L 529.536302 212.891509 
L 529.705421 212.904972 
L 529.959099 212.819895 
L 530.128218 213.16127 
L 530.973814 213.010086 
L 531.142933 213.023454 
L 532.157647 212.81962 
L 532.411326 212.74861 
L 532.495886 213.223869 
L 532.580445 213.19745 
L 534.017958 212.755999 
L 534.102517 213.112197 
L 534.187077 213.085902 
L 536.470184 212.570538 
L 536.554744 212.9247 
L 536.639304 212.898596 
L 536.723863 212.874612 
L 536.808423 213.2285 
L 536.892982 213.198433 
L 537.654018 213.031977 
L 537.823137 213.045125 
L 538.499614 212.943662 
L 538.584173 213.296052 
L 538.668733 213.269998 
L 539.006971 213.34546 
L 539.09153 213.319423 
L 539.26065 213.808065 
L 539.598888 213.874164 
L 541.374638 213.421918 
L 541.543757 213.442845 
L 541.797436 214.116225 
L 543.065829 213.760406 
L 543.234948 213.7731 
L 544.503341 213.397428 
L 544.672461 213.724228 
L 545.348937 213.531796 
L 545.518056 213.863237 
L 546.279092 213.68383 
L 546.363652 214.029716 
L 546.448211 214.003988 
L 547.040128 213.833633 
L 547.124687 214.17888 
L 547.209247 214.153169 
L 548.815878 213.750251 
L 549.069557 213.78817 
L 549.830593 213.626395 
L 549.999712 213.643072 
L 550.760748 213.488954 
L 550.845308 213.944047 
L 550.929867 213.920643 
L 551.521784 213.829301 
L 551.690903 213.842438 
L 552.621058 213.646532 
L 552.705618 214.099659 
L 552.790177 214.074291 
L 553.043856 214.051987 
L 553.382094 214.046186 
L 553.804892 214.115274 
L 554.14313 214.089602 
L 554.312249 214.531059 
L 554.904166 214.366352 
L 554.988725 214.705322 
L 555.073285 214.679969 
L 555.834321 214.536928 
L 556.088 214.556915 
L 556.849035 214.43196 
L 557.187274 214.521943 
L 557.525512 214.47574 
L 557.77919 214.474266 
L 558.709345 214.285098 
L 558.878465 214.297144 
L 559.047584 214.247049 
L 559.216703 214.583109 
L 559.80862 214.492832 
L 559.977739 214.50477 
L 560.907894 214.296039 
L 560.992453 214.630455 
L 561.077013 214.600328 
L 561.499811 214.583611 
L 561.753489 214.54824 
L 562.429966 214.447948 
L 562.514525 214.890986 
L 562.599085 214.866025 
L 563.360121 214.722375 
L 563.613799 214.711241 
L 563.952037 214.788201 
L 564.628514 214.687384 
L 564.882192 214.662705 
L 566.066026 214.378642 
L 566.657943 214.206158 
L 566.742503 214.738813 
L 566.827062 214.714114 
L 567.1653 214.676428 
L 567.418979 214.665413 
L 572.999909 213.577069 
L 573.169028 213.593397 
L 573.422707 213.586063 
L 573.760945 213.617209 
L 575.621255 213.151096 
L 575.959493 213.175128 
L 576.889648 212.995042 
L 576.974208 213.318121 
L 577.058767 213.29423 
L 578.41172 213.013625 
L 580.525709 212.471892 
L 580.694828 213.113075 
L 580.779387 213.089412 
L 581.540423 212.886888 
L 581.624983 213.206765 
L 581.709542 213.183132 
L 583.738972 212.727706 
L 584.330888 212.700063 
L 584.584567 212.6882 
L 584.669127 212.667382 
L 584.838246 213.022069 
L 585.261044 212.958764 
L 585.430163 213.458445 
L 585.514722 213.493593 
L 585.683841 213.84573 
L 586.106639 213.856914 
L 586.613996 213.932075 
L 587.036794 213.883383 
L 587.290473 213.876547 
L 590.080938 213.173731 
L 590.165497 213.487804 
L 590.250057 213.464546 
L 590.672855 213.403064 
L 590.757414 213.716705 
L 590.841974 213.693436 
L 592.110367 213.474813 
L 592.279486 213.489777 
L 593.801558 213.14994 
L 593.970677 213.598675 
L 594.562594 213.567905 
L 595.23907 213.496071 
L 596.676582 213.236647 
L 597.09938 213.230869 
L 600.566322 212.405647 
L 600.82 212.397813 
L 604.62518 211.476443 
L 604.794299 211.759204 
L 605.555335 211.647966 
L 605.639895 212.13881 
L 605.724454 212.116518 
L 605.893573 212.398424 
L 607.415645 212.002542 
L 607.584764 212.283519 
L 613.757611 211.227117 
L 613.92673 211.265626 
L 615.195123 211.045289 
L 615.8716 210.891936 
L 616.801755 210.717868 
L 617.055433 211.29163 
L 617.393672 211.35688 
L 617.73191 211.325702 
L 617.816469 211.720511 
L 617.901029 211.698829 
L 618.323827 211.689922 
L 618.577505 211.679764 
L 619.084863 211.673163 
L 619.253982 211.947745 
L 619.338541 211.926088 
L 619.50766 212.238127 
L 620.268696 212.144945 
L 620.606934 212.09926 
L 621.198851 212.024672 
L 621.45253 212.016162 
L 621.53709 211.994587 
L 621.706209 212.281145 
L 621.959887 212.27753 
L 622.213566 212.219529 
L 622.382685 212.492234 
L 622.636364 212.435297 
L 622.636364 212.435297 
" clip-path="url(#pf569e5c9c8)" style="fill: none; stroke: #ff7f0e; stroke-width: 1.5; stroke-linecap: square"/>
   </g>
   <g id="patch_3">
    <path d="M 90 320.4 
L 90 43.2 
" style="fill: none; stroke: #000000; stroke-width: 0.8; stroke-linejoin: miter; stroke-linecap: square"/>
   </g>
   <g id="patch_4">
    <path d="M 648 320.4 
L 648 43.2 
" style="fill: none; stroke: #000000; stroke-width: 0.8; stroke-linejoin: miter; stroke-linecap: square"/>
   </g>
   <g id="patch_5">
    <path d="M 90 320.4 
L 648 320.4 
" style="fill: none; stroke: #000000; stroke-width: 0.8; stroke-linejoin: miter; stroke-linecap: square"/>
   </g>
   <g id="patch_6">
    <path d="M 90 43.2 
L 648 43.2 
" style="fill: none; stroke: #000000; stroke-width: 0.8; stroke-linejoin: miter; stroke-linecap: square"/>
   </g>
   <g id="text_16">
    <!-- Evolution of rewards (SARSA - Constant ε=0.1 (γ=0.995)) -->
    <g transform="translate(195.698438 37.2) scale(0.12 -0.12)">
     <defs>
      <path id="DejaVuSans-45" d="M 628 4666 
L 3578 4666 
L 3578 4134 
L 1259 4134 
L 1259 2753 
L 3481 2753 
L 3481 2222 
L 1259 2222 
L 1259 531 
L 3634 531 
L 3634 0 
L 628 0 
L 628 4666 
z
" transform="scale(0.015625)"/>
      <path id="DejaVuSans-6f" d="M 1959 3097 
Q 1497 3097 1228 2736 
Q 959 2375 959 1747 
Q 959 1119 1226 758 
Q 1494 397 1959 397 
Q 2419 397 2687 759 
Q 2956 1122 2956 1747 
Q 2956 2369 2687 2733 
Q 2419 3097 1959 3097 
z
M 1959 3584 
Q 2709 3584 3137 3096 
Q 3566 2609 3566 1747 
Q 3566 888 3137 398 
Q 2709 -91 1959 -91 
Q 1206 -91 779 398 
Q 353 888 353 1747 
Q 353 2609 779 3096 
Q 1206 3584 1959 3584 
z
" transform="scale(0.015625)"/>
      <path id="DejaVuSans-6c" d="M 603 4863 
L 1178 4863 
L 1178 0 
L 603 0 
L 603 4863 
z
" transform="scale(0.015625)"/>
      <path id="DejaVuSans-75" d="M 544 1381 
L 544 3500 
L 1119 3500 
L 1119 1403 
Q 1119 906 1312 657 
Q 1506 409 1894 409 
Q 2359 409 2629 706 
Q 2900 1003 2900 1516 
L 2900 3500 
L 3475 3500 
L 3475 0 
L 2900 0 
L 2900 538 
Q 2691 219 2414 64 
Q 2138 -91 1772 -91 
Q 1169 -91 856 284 
Q 544 659 544 1381 
z
M 1991 3584 
L 1991 3584 
z
" transform="scale(0.015625)"/>
      <path id="DejaVuSans-6e" d="M 3513 2113 
L 3513 0 
L 2938 0 
L 2938 2094 
Q 2938 2591 2744 2837 
Q 2550 3084 2163 3084 
Q 1697 3084 1428 2787 
Q 1159 2491 1159 1978 
L 1159 0 
L 581 0 
L 581 3500 
L 1159 3500 
L 1159 2956 
Q 1366 3272 1645 3428 
Q 1925 3584 2291 3584 
Q 2894 3584 3203 3211 
Q 3513 2838 3513 2113 
z
" transform="scale(0.015625)"/>
      <path id="DejaVuSans-66" d="M 2375 4863 
L 2375 4384 
L 1825 4384 
Q 1516 4384 1395 4259 
Q 1275 4134 1275 3809 
L 1275 3500 
L 2222 3500 
L 2222 3053 
L 1275 3053 
L 1275 0 
L 697 0 
L 697 3053 
L 147 3053 
L 147 3500 
L 697 3500 
L 697 3744 
Q 697 4328 969 4595 
Q 1241 4863 1831 4863 
L 2375 4863 
z
" transform="scale(0.015625)"/>
      <path id="DejaVuSans-28" d="M 1984 4856 
Q 1566 4138 1362 3434 
Q 1159 2731 1159 2009 
Q 1159 1288 1364 580 
Q 1569 -128 1984 -844 
L 1484 -844 
Q 1016 -109 783 600 
Q 550 1309 550 2009 
Q 550 2706 781 3412 
Q 1013 4119 1484 4856 
L 1984 4856 
z
" transform="scale(0.015625)"/>
      <path id="DejaVuSans-53" d="M 3425 4513 
L 3425 3897 
Q 3066 4069 2747 4153 
Q 2428 4238 2131 4238 
Q 1616 4238 1336 4038 
Q 1056 3838 1056 3469 
Q 1056 3159 1242 3001 
Q 1428 2844 1947 2747 
L 2328 2669 
Q 3034 2534 3370 2195 
Q 3706 1856 3706 1288 
Q 3706 609 3251 259 
Q 2797 -91 1919 -91 
Q 1588 -91 1214 -16 
Q 841 59 441 206 
L 441 856 
Q 825 641 1194 531 
Q 1563 422 1919 422 
Q 2459 422 2753 634 
Q 3047 847 3047 1241 
Q 3047 1584 2836 1778 
Q 2625 1972 2144 2069 
L 1759 2144 
Q 1053 2284 737 2584 
Q 422 2884 422 3419 
Q 422 4038 858 4394 
Q 1294 4750 2059 4750 
Q 2388 4750 2728 4690 
Q 3069 4631 3425 4513 
z
" transform="scale(0.015625)"/>
      <path id="DejaVuSans-52" d="M 2841 2188 
Q 3044 2119 3236 1894 
Q 3428 1669 3622 1275 
L 4263 0 
L 3584 0 
L 2988 1197 
Q 2756 1666 2539 1819 
Q 2322 1972 1947 1972 
L 1259 1972 
L 1259 0 
L 628 0 
L 628 4666 
L 2053 4666 
Q 2853 4666 3247 4331 
Q 3641 3997 3641 3322 
Q 3641 2881 3436 2590 
Q 3231 2300 2841 2188 
z
M 1259 4147 
L 1259 2491 
L 2053 2491 
Q 2509 2491 2742 2702 
Q 2975 2913 2975 3322 
Q 2975 3731 2742 3939 
Q 2509 4147 2053 4147 
L 1259 4147 
z
" transform="scale(0.015625)"/>
      <path id="DejaVuSans-2d" d="M 313 2009 
L 1997 2009 
L 1997 1497 
L 313 1497 
L 313 2009 
z
" transform="scale(0.015625)"/>
      <path id="DejaVuSans-43" d="M 4122 4306 
L 4122 3641 
Q 3803 3938 3442 4084 
Q 3081 4231 2675 4231 
Q 1875 4231 1450 3742 
Q 1025 3253 1025 2328 
Q 1025 1406 1450 917 
Q 1875 428 2675 428 
Q 3081 428 3442 575 
Q 3803 722 4122 1019 
L 4122 359 
Q 3791 134 3420 21 
Q 3050 -91 2638 -91 
Q 1578 -91 968 557 
Q 359 1206 359 2328 
Q 359 3453 968 4101 
Q 1578 4750 2638 4750 
Q 3056 4750 3426 4639 
Q 3797 4528 4122 4306 
z
" transform="scale(0.015625)"/>
      <path id="DejaVuSans-3b5" d="M 1234 1888 
Q 884 1963 697 2166 
Q 509 2366 509 2656 
Q 509 3097 866 3344 
Q 1219 3588 1831 3588 
Q 2069 3588 2334 3550 
Q 2600 3513 2906 3438 
L 2906 2916 
Q 2603 3006 2353 3047 
Q 2100 3088 1878 3088 
Q 1506 3088 1291 2944 
Q 1072 2800 1072 2600 
Q 1072 2381 1284 2241 
Q 1494 2103 1856 2103 
L 2341 2103 
L 2341 1628 
L 1878 1628 
Q 1450 1628 1225 1469 
Q 981 1294 981 1019 
Q 981 738 1244 563 
Q 1509 388 1981 388 
Q 2272 388 2538 444 
Q 2803 503 3025 619 
L 3025 84 
Q 2744 -3 2481 -47 
Q 2216 -91 1966 -91 
Q 1222 -91 819 194 
Q 416 478 416 1019 
Q 416 1356 631 1584 
Q 847 1813 1234 1888 
z
" transform="scale(0.015625)"/>
      <path id="DejaVuSans-3d" d="M 678 2906 
L 4684 2906 
L 4684 2381 
L 678 2381 
L 678 2906 
z
M 678 1631 
L 4684 1631 
L 4684 1100 
L 678 1100 
L 678 1631 
z
" transform="scale(0.015625)"/>
      <path id="DejaVuSans-2e" d="M 684 794 
L 1344 794 
L 1344 0 
L 684 0 
L 684 794 
z
" transform="scale(0.015625)"/>
      <path id="DejaVuSans-3b3" d="M 1128 2950 
L 1894 788 
L 2988 3500 
L 3597 3500 
L 2181 0 
L 2181 -1331 
L 1606 -1331 
L 1606 0 
L 688 2613 
Q 550 3006 253 3006 
L 100 3006 
L 100 3500 
L 319 3500 
Q 934 3500 1128 2950 
z
" transform="scale(0.015625)"/>
      <path id="DejaVuSans-39" d="M 703 97 
L 703 672 
Q 941 559 1184 500 
Q 1428 441 1663 441 
Q 2288 441 2617 861 
Q 2947 1281 2994 2138 
Q 2813 1869 2534 1725 
Q 2256 1581 1919 1581 
Q 1219 1581 811 2004 
Q 403 2428 403 3163 
Q 403 3881 828 4315 
Q 1253 4750 1959 4750 
Q 2769 4750 3195 4129 
Q 3622 3509 3622 2328 
Q 3622 1225 3098 567 
Q 2575 -91 1691 -91 
Q 1453 -91 1209 -44 
Q 966 3 703 97 
z
M 1959 2075 
Q 2384 2075 2632 2365 
Q 2881 2656 2881 3163 
Q 2881 3666 2632 3958 
Q 2384 4250 1959 4250 
Q 1534 4250 1286 3958 
Q 1038 3666 1038 3163 
Q 1038 2656 1286 2365 
Q 1534 2075 1959 2075 
z
" transform="scale(0.015625)"/>
      <path id="DejaVuSans-29" d="M 513 4856 
L 1013 4856 
Q 1481 4119 1714 3412 
Q 1947 2706 1947 2009 
Q 1947 1309 1714 600 
Q 1481 -109 1013 -844 
L 513 -844 
Q 928 -128 1133 580 
Q 1338 1288 1338 2009 
Q 1338 2731 1133 3434 
Q 928 4138 513 4856 
z
" transform="scale(0.015625)"/>
     </defs>
     <use xlink:href="#DejaVuSans-45"/>
     <use xlink:href="#DejaVuSans-76" x="63.183594"/>
     <use xlink:href="#DejaVuSans-6f" x="122.363281"/>
     <use xlink:href="#DejaVuSans-6c" x="183.544922"/>
     <use xlink:href="#DejaVuSans-75" x="211.328125"/>
     <use xlink:href="#DejaVuSans-74" x="274.707031"/>
     <use xlink:href="#DejaVuSans-69" x="313.916016"/>
     <use xlink:href="#DejaVuSans-6f" x="341.699219"/>
     <use xlink:href="#DejaVuSans-6e" x="402.880859"/>
     <use xlink:href="#DejaVuSans-20" x="466.259766"/>
     <use xlink:href="#DejaVuSans-6f" x="498.046875"/>
     <use xlink:href="#DejaVuSans-66" x="559.228516"/>
     <use xlink:href="#DejaVuSans-20" x="594.433594"/>
     <use xlink:href="#DejaVuSans-72" x="626.220703"/>
     <use xlink:href="#DejaVuSans-65" x="665.083984"/>
     <use xlink:href="#DejaVuSans-77" x="726.607422"/>
     <use xlink:href="#DejaVuSans-61" x="808.394531"/>
     <use xlink:href="#DejaVuSans-72" x="869.673828"/>
     <use xlink:href="#DejaVuSans-64" x="909.037109"/>
     <use xlink:href="#DejaVuSans-73" x="972.513672"/>
     <use xlink:href="#DejaVuSans-20" x="1024.613281"/>
     <use xlink:href="#DejaVuSans-28" x="1056.400391"/>
     <use xlink:href="#DejaVuSans-53" x="1095.414062"/>
     <use xlink:href="#DejaVuSans-41" x="1160.765625"/>
     <use xlink:href="#DejaVuSans-52" x="1229.173828"/>
     <use xlink:href="#DejaVuSans-53" x="1298.65625"/>
     <use xlink:href="#DejaVuSans-41" x="1364.007812"/>
     <use xlink:href="#DejaVuSans-20" x="1432.416016"/>
     <use xlink:href="#DejaVuSans-2d" x="1464.203125"/>
     <use xlink:href="#DejaVuSans-20" x="1500.287109"/>
     <use xlink:href="#DejaVuSans-43" x="1532.074219"/>
     <use xlink:href="#DejaVuSans-6f" x="1601.898438"/>
     <use xlink:href="#DejaVuSans-6e" x="1663.080078"/>
     <use xlink:href="#DejaVuSans-73" x="1726.458984"/>
     <use xlink:href="#DejaVuSans-74" x="1778.558594"/>
     <use xlink:href="#DejaVuSans-61" x="1817.767578"/>
     <use xlink:href="#DejaVuSans-6e" x="1879.046875"/>
     <use xlink:href="#DejaVuSans-74" x="1942.425781"/>
     <use xlink:href="#DejaVuSans-20" x="1981.634766"/>
     <use xlink:href="#DejaVuSans-3b5" x="2013.421875"/>
     <use xlink:href="#DejaVuSans-3d" x="2067.474609"/>
     <use xlink:href="#DejaVuSans-30" x="2151.263672"/>
     <use xlink:href="#DejaVuSans-2e" x="2214.886719"/>
     <use xlink:href="#DejaVuSans-31" x="2246.673828"/>
     <use xlink:href="#DejaVuSans-20" x="2310.296875"/>
     <use xlink:href="#DejaVuSans-28" x="2342.083984"/>
     <use xlink:href="#DejaVuSans-3b3" x="2381.097656"/>
     <use xlink:href="#DejaVuSans-3d" x="2440.277344"/>
     <use xlink:href="#DejaVuSans-30" x="2524.066406"/>
     <use xlink:href="#DejaVuSans-2e" x="2587.689453"/>
     <use xlink:href="#DejaVuSans-39" x="2619.476562"/>
     <use xlink:href="#DejaVuSans-39" x="2683.099609"/>
     <use xlink:href="#DejaVuSans-35" x="2746.722656"/>
     <use xlink:href="#DejaVuSans-29" x="2810.345703"/>
     <use xlink:href="#DejaVuSans-29" x="2849.359375"/>
    </g>
   </g>
  </g>
 </g>
 <defs>
  <clipPath id="pf569e5c9c8">
   <rect x="90" y="43.2" width="558" height="277.2"/>
  </clipPath>
 </defs>
</svg>
