<?xml version="1.0" encoding="utf-8" standalone="no"?>
<!DOCTYPE svg PUBLIC "-//W3C//DTD SVG 1.1//EN"
  "http://www.w3.org/Graphics/SVG/1.1/DTD/svg11.dtd">
<svg xmlns:xlink="http://www.w3.org/1999/xlink" width="720pt" height="360pt" viewBox="0 0 720 360" xmlns="http://www.w3.org/2000/svg" version="1.1">
 <metadata>
  <rdf:RDF xmlns:dc="http://purl.org/dc/elements/1.1/" xmlns:cc="http://creativecommons.org/ns#" xmlns:rdf="http://www.w3.org/1999/02/22-rdf-syntax-ns#">
   <cc:Work>
    <dc:type rdf:resource="http://purl.org/dc/dcmitype/StillImage"/>
    <dc:date>2024-03-15T19:47:38.961350</dc:date>
    <dc:format>image/svg+xml</dc:format>
    <dc:creator>
     <cc:Agent>
      <dc:title>Matplotlib v3.7.0, https://matplotlib.org/</dc:title>
     </cc:Agent>
    </dc:creator>
   </cc:Work>
  </rdf:RDF>
 </metadata>
 <defs>
  <style type="text/css">*{stroke-linejoin: round; stroke-linecap: butt}</style>
 </defs>
 <g id="figure_1">
  <g id="patch_1">
   <path d="M 0 360 
L 720 360 
L 720 0 
L 0 0 
z
" style="fill: #ffffff"/>
  </g>
  <g id="axes_1">
   <g id="patch_2">
    <path d="M 90 320.4 
L 648 320.4 
L 648 43.2 
L 90 43.2 
z
" style="fill: #ffffff"/>
   </g>
   <g id="matplotlib.axis_1">
    <g id="xtick_1">
     <g id="line2d_1">
      <defs>
       <path id="m80fb35487f" d="M 0 0 
L 0 3.5 
" style="stroke: #000000; stroke-width: 0.8"/>
      </defs>
      <g>
       <use xlink:href="#m80fb35487f" x="115.279077" y="320.4" style="stroke: #000000; stroke-width: 0.8"/>
      </g>
     </g>
     <g id="text_1">
      <!-- 0 -->
      <g transform="translate(112.097827 334.998438) scale(0.1 -0.1)">
       <defs>
        <path id="DejaVuSans-30" d="M 2034 4250 
Q 1547 4250 1301 3770 
Q 1056 3291 1056 2328 
Q 1056 1369 1301 889 
Q 1547 409 2034 409 
Q 2525 409 2770 889 
Q 3016 1369 3016 2328 
Q 3016 3291 2770 3770 
Q 2525 4250 2034 4250 
z
M 2034 4750 
Q 2819 4750 3233 4129 
Q 3647 3509 3647 2328 
Q 3647 1150 3233 529 
Q 2819 -91 2034 -91 
Q 1250 -91 836 529 
Q 422 1150 422 2328 
Q 422 3509 836 4129 
Q 1250 4750 2034 4750 
z
" transform="scale(0.015625)"/>
       </defs>
       <use xlink:href="#DejaVuSans-30"/>
      </g>
     </g>
    </g>
    <g id="xtick_2">
     <g id="line2d_2">
      <g>
       <use xlink:href="#m80fb35487f" x="199.838625" y="320.4" style="stroke: #000000; stroke-width: 0.8"/>
      </g>
     </g>
     <g id="text_2">
      <!-- 1000 -->
      <g transform="translate(187.113625 334.998438) scale(0.1 -0.1)">
       <defs>
        <path id="DejaVuSans-31" d="M 794 531 
L 1825 531 
L 1825 4091 
L 703 3866 
L 703 4441 
L 1819 4666 
L 2450 4666 
L 2450 531 
L 3481 531 
L 3481 0 
L 794 0 
L 794 531 
z
" transform="scale(0.015625)"/>
       </defs>
       <use xlink:href="#DejaVuSans-31"/>
       <use xlink:href="#DejaVuSans-30" x="63.623047"/>
       <use xlink:href="#DejaVuSans-30" x="127.246094"/>
       <use xlink:href="#DejaVuSans-30" x="190.869141"/>
      </g>
     </g>
    </g>
    <g id="xtick_3">
     <g id="line2d_3">
      <g>
       <use xlink:href="#m80fb35487f" x="284.398172" y="320.4" style="stroke: #000000; stroke-width: 0.8"/>
      </g>
     </g>
     <g id="text_3">
      <!-- 2000 -->
      <g transform="translate(271.673172 334.998438) scale(0.1 -0.1)">
       <defs>
        <path id="DejaVuSans-32" d="M 1228 531 
L 3431 531 
L 3431 0 
L 469 0 
L 469 531 
Q 828 903 1448 1529 
Q 2069 2156 2228 2338 
Q 2531 2678 2651 2914 
Q 2772 3150 2772 3378 
Q 2772 3750 2511 3984 
Q 2250 4219 1831 4219 
Q 1534 4219 1204 4116 
Q 875 4013 500 3803 
L 500 4441 
Q 881 4594 1212 4672 
Q 1544 4750 1819 4750 
Q 2544 4750 2975 4387 
Q 3406 4025 3406 3419 
Q 3406 3131 3298 2873 
Q 3191 2616 2906 2266 
Q 2828 2175 2409 1742 
Q 1991 1309 1228 531 
z
" transform="scale(0.015625)"/>
       </defs>
       <use xlink:href="#DejaVuSans-32"/>
       <use xlink:href="#DejaVuSans-30" x="63.623047"/>
       <use xlink:href="#DejaVuSans-30" x="127.246094"/>
       <use xlink:href="#DejaVuSans-30" x="190.869141"/>
      </g>
     </g>
    </g>
    <g id="xtick_4">
     <g id="line2d_4">
      <g>
       <use xlink:href="#m80fb35487f" x="368.95772" y="320.4" style="stroke: #000000; stroke-width: 0.8"/>
      </g>
     </g>
     <g id="text_4">
      <!-- 3000 -->
      <g transform="translate(356.23272 334.998438) scale(0.1 -0.1)">
       <defs>
        <path id="DejaVuSans-33" d="M 2597 2516 
Q 3050 2419 3304 2112 
Q 3559 1806 3559 1356 
Q 3559 666 3084 287 
Q 2609 -91 1734 -91 
Q 1441 -91 1130 -33 
Q 819 25 488 141 
L 488 750 
Q 750 597 1062 519 
Q 1375 441 1716 441 
Q 2309 441 2620 675 
Q 2931 909 2931 1356 
Q 2931 1769 2642 2001 
Q 2353 2234 1838 2234 
L 1294 2234 
L 1294 2753 
L 1863 2753 
Q 2328 2753 2575 2939 
Q 2822 3125 2822 3475 
Q 2822 3834 2567 4026 
Q 2313 4219 1838 4219 
Q 1578 4219 1281 4162 
Q 984 4106 628 3988 
L 628 4550 
Q 988 4650 1302 4700 
Q 1616 4750 1894 4750 
Q 2613 4750 3031 4423 
Q 3450 4097 3450 3541 
Q 3450 3153 3228 2886 
Q 3006 2619 2597 2516 
z
" transform="scale(0.015625)"/>
       </defs>
       <use xlink:href="#DejaVuSans-33"/>
       <use xlink:href="#DejaVuSans-30" x="63.623047"/>
       <use xlink:href="#DejaVuSans-30" x="127.246094"/>
       <use xlink:href="#DejaVuSans-30" x="190.869141"/>
      </g>
     </g>
    </g>
    <g id="xtick_5">
     <g id="line2d_5">
      <g>
       <use xlink:href="#m80fb35487f" x="453.517268" y="320.4" style="stroke: #000000; stroke-width: 0.8"/>
      </g>
     </g>
     <g id="text_5">
      <!-- 4000 -->
      <g transform="translate(440.792268 334.998438) scale(0.1 -0.1)">
       <defs>
        <path id="DejaVuSans-34" d="M 2419 4116 
L 825 1625 
L 2419 1625 
L 2419 4116 
z
M 2253 4666 
L 3047 4666 
L 3047 1625 
L 3713 1625 
L 3713 1100 
L 3047 1100 
L 3047 0 
L 2419 0 
L 2419 1100 
L 313 1100 
L 313 1709 
L 2253 4666 
z
" transform="scale(0.015625)"/>
       </defs>
       <use xlink:href="#DejaVuSans-34"/>
       <use xlink:href="#DejaVuSans-30" x="63.623047"/>
       <use xlink:href="#DejaVuSans-30" x="127.246094"/>
       <use xlink:href="#DejaVuSans-30" x="190.869141"/>
      </g>
     </g>
    </g>
    <g id="xtick_6">
     <g id="line2d_6">
      <g>
       <use xlink:href="#m80fb35487f" x="538.076816" y="320.4" style="stroke: #000000; stroke-width: 0.8"/>
      </g>
     </g>
     <g id="text_6">
      <!-- 5000 -->
      <g transform="translate(525.351816 334.998438) scale(0.1 -0.1)">
       <defs>
        <path id="DejaVuSans-35" d="M 691 4666 
L 3169 4666 
L 3169 4134 
L 1269 4134 
L 1269 2991 
Q 1406 3038 1543 3061 
Q 1681 3084 1819 3084 
Q 2600 3084 3056 2656 
Q 3513 2228 3513 1497 
Q 3513 744 3044 326 
Q 2575 -91 1722 -91 
Q 1428 -91 1123 -41 
Q 819 9 494 109 
L 494 744 
Q 775 591 1075 516 
Q 1375 441 1709 441 
Q 2250 441 2565 725 
Q 2881 1009 2881 1497 
Q 2881 1984 2565 2268 
Q 2250 2553 1709 2553 
Q 1456 2553 1204 2497 
Q 953 2441 691 2322 
L 691 4666 
z
" transform="scale(0.015625)"/>
       </defs>
       <use xlink:href="#DejaVuSans-35"/>
       <use xlink:href="#DejaVuSans-30" x="63.623047"/>
       <use xlink:href="#DejaVuSans-30" x="127.246094"/>
       <use xlink:href="#DejaVuSans-30" x="190.869141"/>
      </g>
     </g>
    </g>
    <g id="xtick_7">
     <g id="line2d_7">
      <g>
       <use xlink:href="#m80fb35487f" x="622.636364" y="320.4" style="stroke: #000000; stroke-width: 0.8"/>
      </g>
     </g>
     <g id="text_7">
      <!-- 6000 -->
      <g transform="translate(609.911364 334.998438) scale(0.1 -0.1)">
       <defs>
        <path id="DejaVuSans-36" d="M 2113 2584 
Q 1688 2584 1439 2293 
Q 1191 2003 1191 1497 
Q 1191 994 1439 701 
Q 1688 409 2113 409 
Q 2538 409 2786 701 
Q 3034 994 3034 1497 
Q 3034 2003 2786 2293 
Q 2538 2584 2113 2584 
z
M 3366 4563 
L 3366 3988 
Q 3128 4100 2886 4159 
Q 2644 4219 2406 4219 
Q 1781 4219 1451 3797 
Q 1122 3375 1075 2522 
Q 1259 2794 1537 2939 
Q 1816 3084 2150 3084 
Q 2853 3084 3261 2657 
Q 3669 2231 3669 1497 
Q 3669 778 3244 343 
Q 2819 -91 2113 -91 
Q 1303 -91 875 529 
Q 447 1150 447 2328 
Q 447 3434 972 4092 
Q 1497 4750 2381 4750 
Q 2619 4750 2861 4703 
Q 3103 4656 3366 4563 
z
" transform="scale(0.015625)"/>
       </defs>
       <use xlink:href="#DejaVuSans-36"/>
       <use xlink:href="#DejaVuSans-30" x="63.623047"/>
       <use xlink:href="#DejaVuSans-30" x="127.246094"/>
       <use xlink:href="#DejaVuSans-30" x="190.869141"/>
      </g>
     </g>
    </g>
    <g id="text_8">
     <!-- Time step -->
     <g transform="translate(344.361719 348.676562) scale(0.1 -0.1)">
      <defs>
       <path id="DejaVuSans-54" d="M -19 4666 
L 3928 4666 
L 3928 4134 
L 2272 4134 
L 2272 0 
L 1638 0 
L 1638 4134 
L -19 4134 
L -19 4666 
z
" transform="scale(0.015625)"/>
       <path id="DejaVuSans-69" d="M 603 3500 
L 1178 3500 
L 1178 0 
L 603 0 
L 603 3500 
z
M 603 4863 
L 1178 4863 
L 1178 4134 
L 603 4134 
L 603 4863 
z
" transform="scale(0.015625)"/>
       <path id="DejaVuSans-6d" d="M 3328 2828 
Q 3544 3216 3844 3400 
Q 4144 3584 4550 3584 
Q 5097 3584 5394 3201 
Q 5691 2819 5691 2113 
L 5691 0 
L 5113 0 
L 5113 2094 
Q 5113 2597 4934 2840 
Q 4756 3084 4391 3084 
Q 3944 3084 3684 2787 
Q 3425 2491 3425 1978 
L 3425 0 
L 2847 0 
L 2847 2094 
Q 2847 2600 2669 2842 
Q 2491 3084 2119 3084 
Q 1678 3084 1418 2786 
Q 1159 2488 1159 1978 
L 1159 0 
L 581 0 
L 581 3500 
L 1159 3500 
L 1159 2956 
Q 1356 3278 1631 3431 
Q 1906 3584 2284 3584 
Q 2666 3584 2933 3390 
Q 3200 3197 3328 2828 
z
" transform="scale(0.015625)"/>
       <path id="DejaVuSans-65" d="M 3597 1894 
L 3597 1613 
L 953 1613 
Q 991 1019 1311 708 
Q 1631 397 2203 397 
Q 2534 397 2845 478 
Q 3156 559 3463 722 
L 3463 178 
Q 3153 47 2828 -22 
Q 2503 -91 2169 -91 
Q 1331 -91 842 396 
Q 353 884 353 1716 
Q 353 2575 817 3079 
Q 1281 3584 2069 3584 
Q 2775 3584 3186 3129 
Q 3597 2675 3597 1894 
z
M 3022 2063 
Q 3016 2534 2758 2815 
Q 2500 3097 2075 3097 
Q 1594 3097 1305 2825 
Q 1016 2553 972 2059 
L 3022 2063 
z
" transform="scale(0.015625)"/>
       <path id="DejaVuSans-20" transform="scale(0.015625)"/>
       <path id="DejaVuSans-73" d="M 2834 3397 
L 2834 2853 
Q 2591 2978 2328 3040 
Q 2066 3103 1784 3103 
Q 1356 3103 1142 2972 
Q 928 2841 928 2578 
Q 928 2378 1081 2264 
Q 1234 2150 1697 2047 
L 1894 2003 
Q 2506 1872 2764 1633 
Q 3022 1394 3022 966 
Q 3022 478 2636 193 
Q 2250 -91 1575 -91 
Q 1294 -91 989 -36 
Q 684 19 347 128 
L 347 722 
Q 666 556 975 473 
Q 1284 391 1588 391 
Q 1994 391 2212 530 
Q 2431 669 2431 922 
Q 2431 1156 2273 1281 
Q 2116 1406 1581 1522 
L 1381 1569 
Q 847 1681 609 1914 
Q 372 2147 372 2553 
Q 372 3047 722 3315 
Q 1072 3584 1716 3584 
Q 2034 3584 2315 3537 
Q 2597 3491 2834 3397 
z
" transform="scale(0.015625)"/>
       <path id="DejaVuSans-74" d="M 1172 4494 
L 1172 3500 
L 2356 3500 
L 2356 3053 
L 1172 3053 
L 1172 1153 
Q 1172 725 1289 603 
Q 1406 481 1766 481 
L 2356 481 
L 2356 0 
L 1766 0 
Q 1100 0 847 248 
Q 594 497 594 1153 
L 594 3053 
L 172 3053 
L 172 3500 
L 594 3500 
L 594 4494 
L 1172 4494 
z
" transform="scale(0.015625)"/>
       <path id="DejaVuSans-70" d="M 1159 525 
L 1159 -1331 
L 581 -1331 
L 581 3500 
L 1159 3500 
L 1159 2969 
Q 1341 3281 1617 3432 
Q 1894 3584 2278 3584 
Q 2916 3584 3314 3078 
Q 3713 2572 3713 1747 
Q 3713 922 3314 415 
Q 2916 -91 2278 -91 
Q 1894 -91 1617 61 
Q 1341 213 1159 525 
z
M 3116 1747 
Q 3116 2381 2855 2742 
Q 2594 3103 2138 3103 
Q 1681 3103 1420 2742 
Q 1159 2381 1159 1747 
Q 1159 1113 1420 752 
Q 1681 391 2138 391 
Q 2594 391 2855 752 
Q 3116 1113 3116 1747 
z
" transform="scale(0.015625)"/>
      </defs>
      <use xlink:href="#DejaVuSans-54"/>
      <use xlink:href="#DejaVuSans-69" x="57.958984"/>
      <use xlink:href="#DejaVuSans-6d" x="85.742188"/>
      <use xlink:href="#DejaVuSans-65" x="183.154297"/>
      <use xlink:href="#DejaVuSans-20" x="244.677734"/>
      <use xlink:href="#DejaVuSans-73" x="276.464844"/>
      <use xlink:href="#DejaVuSans-74" x="328.564453"/>
      <use xlink:href="#DejaVuSans-65" x="367.773438"/>
      <use xlink:href="#DejaVuSans-70" x="429.296875"/>
     </g>
    </g>
   </g>
   <g id="matplotlib.axis_2">
    <g id="ytick_1">
     <g id="line2d_8">
      <defs>
       <path id="m86efc9e275" d="M 0 0 
L -3.5 0 
" style="stroke: #000000; stroke-width: 0.8"/>
      </defs>
      <g>
       <use xlink:href="#m86efc9e275" x="90" y="312.373505" style="stroke: #000000; stroke-width: 0.8"/>
      </g>
     </g>
     <g id="text_9">
      <!-- −14 -->
      <g transform="translate(61.895313 316.172724) scale(0.1 -0.1)">
       <defs>
        <path id="DejaVuSans-2212" d="M 678 2272 
L 4684 2272 
L 4684 1741 
L 678 1741 
L 678 2272 
z
" transform="scale(0.015625)"/>
       </defs>
       <use xlink:href="#DejaVuSans-2212"/>
       <use xlink:href="#DejaVuSans-31" x="83.789062"/>
       <use xlink:href="#DejaVuSans-34" x="147.412109"/>
      </g>
     </g>
    </g>
    <g id="ytick_2">
     <g id="line2d_9">
      <g>
       <use xlink:href="#m86efc9e275" x="90" y="275.720147" style="stroke: #000000; stroke-width: 0.8"/>
      </g>
     </g>
     <g id="text_10">
      <!-- −12 -->
      <g transform="translate(61.895313 279.519366) scale(0.1 -0.1)">
       <use xlink:href="#DejaVuSans-2212"/>
       <use xlink:href="#DejaVuSans-31" x="83.789062"/>
       <use xlink:href="#DejaVuSans-32" x="147.412109"/>
      </g>
     </g>
    </g>
    <g id="ytick_3">
     <g id="line2d_10">
      <g>
       <use xlink:href="#m86efc9e275" x="90" y="239.066789" style="stroke: #000000; stroke-width: 0.8"/>
      </g>
     </g>
     <g id="text_11">
      <!-- −10 -->
      <g transform="translate(61.895313 242.866008) scale(0.1 -0.1)">
       <use xlink:href="#DejaVuSans-2212"/>
       <use xlink:href="#DejaVuSans-31" x="83.789062"/>
       <use xlink:href="#DejaVuSans-30" x="147.412109"/>
      </g>
     </g>
    </g>
    <g id="ytick_4">
     <g id="line2d_11">
      <g>
       <use xlink:href="#m86efc9e275" x="90" y="202.413431" style="stroke: #000000; stroke-width: 0.8"/>
      </g>
     </g>
     <g id="text_12">
      <!-- −8 -->
      <g transform="translate(68.257812 206.21265) scale(0.1 -0.1)">
       <defs>
        <path id="DejaVuSans-38" d="M 2034 2216 
Q 1584 2216 1326 1975 
Q 1069 1734 1069 1313 
Q 1069 891 1326 650 
Q 1584 409 2034 409 
Q 2484 409 2743 651 
Q 3003 894 3003 1313 
Q 3003 1734 2745 1975 
Q 2488 2216 2034 2216 
z
M 1403 2484 
Q 997 2584 770 2862 
Q 544 3141 544 3541 
Q 544 4100 942 4425 
Q 1341 4750 2034 4750 
Q 2731 4750 3128 4425 
Q 3525 4100 3525 3541 
Q 3525 3141 3298 2862 
Q 3072 2584 2669 2484 
Q 3125 2378 3379 2068 
Q 3634 1759 3634 1313 
Q 3634 634 3220 271 
Q 2806 -91 2034 -91 
Q 1263 -91 848 271 
Q 434 634 434 1313 
Q 434 1759 690 2068 
Q 947 2378 1403 2484 
z
M 1172 3481 
Q 1172 3119 1398 2916 
Q 1625 2713 2034 2713 
Q 2441 2713 2670 2916 
Q 2900 3119 2900 3481 
Q 2900 3844 2670 4047 
Q 2441 4250 2034 4250 
Q 1625 4250 1398 4047 
Q 1172 3844 1172 3481 
z
" transform="scale(0.015625)"/>
       </defs>
       <use xlink:href="#DejaVuSans-2212"/>
       <use xlink:href="#DejaVuSans-38" x="83.789062"/>
      </g>
     </g>
    </g>
    <g id="ytick_5">
     <g id="line2d_12">
      <g>
       <use xlink:href="#m86efc9e275" x="90" y="165.760073" style="stroke: #000000; stroke-width: 0.8"/>
      </g>
     </g>
     <g id="text_13">
      <!-- −6 -->
      <g transform="translate(68.257812 169.559292) scale(0.1 -0.1)">
       <use xlink:href="#DejaVuSans-2212"/>
       <use xlink:href="#DejaVuSans-36" x="83.789062"/>
      </g>
     </g>
    </g>
    <g id="ytick_6">
     <g id="line2d_13">
      <g>
       <use xlink:href="#m86efc9e275" x="90" y="129.106716" style="stroke: #000000; stroke-width: 0.8"/>
      </g>
     </g>
     <g id="text_14">
      <!-- −4 -->
      <g transform="translate(68.257812 132.905934) scale(0.1 -0.1)">
       <use xlink:href="#DejaVuSans-2212"/>
       <use xlink:href="#DejaVuSans-34" x="83.789062"/>
      </g>
     </g>
    </g>
    <g id="ytick_7">
     <g id="line2d_14">
      <g>
       <use xlink:href="#m86efc9e275" x="90" y="92.453358" style="stroke: #000000; stroke-width: 0.8"/>
      </g>
     </g>
     <g id="text_15">
      <!-- −2 -->
      <g transform="translate(68.257812 96.252577) scale(0.1 -0.1)">
       <use xlink:href="#DejaVuSans-2212"/>
       <use xlink:href="#DejaVuSans-32" x="83.789062"/>
      </g>
     </g>
    </g>
    <g id="ytick_8">
     <g id="line2d_15">
      <g>
       <use xlink:href="#m86efc9e275" x="90" y="55.8" style="stroke: #000000; stroke-width: 0.8"/>
      </g>
     </g>
     <g id="text_16">
      <!-- 0 -->
      <g transform="translate(76.6375 59.599219) scale(0.1 -0.1)">
       <use xlink:href="#DejaVuSans-30"/>
      </g>
     </g>
    </g>
    <g id="text_17">
     <!-- Average reward -->
     <g transform="translate(55.815625 221.236719) rotate(-90) scale(0.1 -0.1)">
      <defs>
       <path id="DejaVuSans-41" d="M 2188 4044 
L 1331 1722 
L 3047 1722 
L 2188 4044 
z
M 1831 4666 
L 2547 4666 
L 4325 0 
L 3669 0 
L 3244 1197 
L 1141 1197 
L 716 0 
L 50 0 
L 1831 4666 
z
" transform="scale(0.015625)"/>
       <path id="DejaVuSans-76" d="M 191 3500 
L 800 3500 
L 1894 563 
L 2988 3500 
L 3597 3500 
L 2284 0 
L 1503 0 
L 191 3500 
z
" transform="scale(0.015625)"/>
       <path id="DejaVuSans-72" d="M 2631 2963 
Q 2534 3019 2420 3045 
Q 2306 3072 2169 3072 
Q 1681 3072 1420 2755 
Q 1159 2438 1159 1844 
L 1159 0 
L 581 0 
L 581 3500 
L 1159 3500 
L 1159 2956 
Q 1341 3275 1631 3429 
Q 1922 3584 2338 3584 
Q 2397 3584 2469 3576 
Q 2541 3569 2628 3553 
L 2631 2963 
z
" transform="scale(0.015625)"/>
       <path id="DejaVuSans-61" d="M 2194 1759 
Q 1497 1759 1228 1600 
Q 959 1441 959 1056 
Q 959 750 1161 570 
Q 1363 391 1709 391 
Q 2188 391 2477 730 
Q 2766 1069 2766 1631 
L 2766 1759 
L 2194 1759 
z
M 3341 1997 
L 3341 0 
L 2766 0 
L 2766 531 
Q 2569 213 2275 61 
Q 1981 -91 1556 -91 
Q 1019 -91 701 211 
Q 384 513 384 1019 
Q 384 1609 779 1909 
Q 1175 2209 1959 2209 
L 2766 2209 
L 2766 2266 
Q 2766 2663 2505 2880 
Q 2244 3097 1772 3097 
Q 1472 3097 1187 3025 
Q 903 2953 641 2809 
L 641 3341 
Q 956 3463 1253 3523 
Q 1550 3584 1831 3584 
Q 2591 3584 2966 3190 
Q 3341 2797 3341 1997 
z
" transform="scale(0.015625)"/>
       <path id="DejaVuSans-67" d="M 2906 1791 
Q 2906 2416 2648 2759 
Q 2391 3103 1925 3103 
Q 1463 3103 1205 2759 
Q 947 2416 947 1791 
Q 947 1169 1205 825 
Q 1463 481 1925 481 
Q 2391 481 2648 825 
Q 2906 1169 2906 1791 
z
M 3481 434 
Q 3481 -459 3084 -895 
Q 2688 -1331 1869 -1331 
Q 1566 -1331 1297 -1286 
Q 1028 -1241 775 -1147 
L 775 -588 
Q 1028 -725 1275 -790 
Q 1522 -856 1778 -856 
Q 2344 -856 2625 -561 
Q 2906 -266 2906 331 
L 2906 616 
Q 2728 306 2450 153 
Q 2172 0 1784 0 
Q 1141 0 747 490 
Q 353 981 353 1791 
Q 353 2603 747 3093 
Q 1141 3584 1784 3584 
Q 2172 3584 2450 3431 
Q 2728 3278 2906 2969 
L 2906 3500 
L 3481 3500 
L 3481 434 
z
" transform="scale(0.015625)"/>
       <path id="DejaVuSans-77" d="M 269 3500 
L 844 3500 
L 1563 769 
L 2278 3500 
L 2956 3500 
L 3675 769 
L 4391 3500 
L 4966 3500 
L 4050 0 
L 3372 0 
L 2619 2869 
L 1863 0 
L 1184 0 
L 269 3500 
z
" transform="scale(0.015625)"/>
       <path id="DejaVuSans-64" d="M 2906 2969 
L 2906 4863 
L 3481 4863 
L 3481 0 
L 2906 0 
L 2906 525 
Q 2725 213 2448 61 
Q 2172 -91 1784 -91 
Q 1150 -91 751 415 
Q 353 922 353 1747 
Q 353 2572 751 3078 
Q 1150 3584 1784 3584 
Q 2172 3584 2448 3432 
Q 2725 3281 2906 2969 
z
M 947 1747 
Q 947 1113 1208 752 
Q 1469 391 1925 391 
Q 2381 391 2643 752 
Q 2906 1113 2906 1747 
Q 2906 2381 2643 2742 
Q 2381 3103 1925 3103 
Q 1469 3103 1208 2742 
Q 947 2381 947 1747 
z
" transform="scale(0.015625)"/>
      </defs>
      <use xlink:href="#DejaVuSans-41"/>
      <use xlink:href="#DejaVuSans-76" x="62.533203"/>
      <use xlink:href="#DejaVuSans-65" x="121.712891"/>
      <use xlink:href="#DejaVuSans-72" x="183.236328"/>
      <use xlink:href="#DejaVuSans-61" x="224.349609"/>
      <use xlink:href="#DejaVuSans-67" x="285.628906"/>
      <use xlink:href="#DejaVuSans-65" x="349.105469"/>
      <use xlink:href="#DejaVuSans-20" x="410.628906"/>
      <use xlink:href="#DejaVuSans-72" x="442.416016"/>
      <use xlink:href="#DejaVuSans-65" x="481.279297"/>
      <use xlink:href="#DejaVuSans-77" x="542.802734"/>
      <use xlink:href="#DejaVuSans-61" x="624.589844"/>
      <use xlink:href="#DejaVuSans-72" x="685.869141"/>
      <use xlink:href="#DejaVuSans-64" x="725.232422"/>
     </g>
    </g>
   </g>
   <g id="line2d_16">
    <path d="M 115.363636 55.8 
L 622.636364 55.8 
L 622.636364 55.8 
" clip-path="url(#p7180159794)" style="fill: none; stroke-dasharray: 5.55,2.4; stroke-dashoffset: 0; stroke: #1f77b4; stroke-width: 1.5"/>
   </g>
   <g id="line2d_17">
    <path d="M 115.363636 55.8 
L 115.617315 80.015432 
L 115.786434 78.54783 
L 115.870994 112.250259 
L 115.955553 107.670555 
L 116.040113 104.108563 
L 116.124672 240.009496 
L 116.209232 225.064326 
L 116.378351 202.071757 
L 116.54747 217.901299 
L 116.63203 209.008257 
L 116.716589 307.8 
L 116.801149 294.900701 
L 117.223946 249.31065 
L 117.815863 209.825391 
L 118.40778 184.433787 
L 118.576899 178.853215 
L 118.915137 191.904413 
L 118.999697 189.382191 
L 119.084256 192.222195 
L 119.253376 186.838541 
L 119.337935 189.497422 
L 119.676173 180.737053 
L 119.760733 182.855051 
L 119.929852 178.955326 
L 120.014411 181.375139 
L 120.098971 179.65483 
L 120.26809 183.553669 
L 120.521769 179.110483 
L 120.606328 180.08244 
L 120.860007 177.576077 
L 120.944567 178.983379 
L 121.282805 174.763136 
L 121.367364 173.798809 
L 121.536483 175.785935 
L 121.621043 174.568599 
L 121.705602 176.60146 
L 121.874722 174.110783 
L 121.959281 175.121106 
L 122.382079 169.72609 
L 122.466638 169.835497 
L 122.635757 168.692351 
L 122.804877 167.282574 
L 122.889436 167.026673 
L 123.058555 165.039411 
L 123.227674 168.241141 
L 123.98871 160.53815 
L 124.411508 156.95293 
L 124.496068 158.397993 
L 125.341663 151.529156 
L 125.426223 162.459062 
L 125.510782 161.741323 
L 125.93358 158.576529 
L 126.018139 159.308828 
L 126.779175 154.207152 
L 126.863735 153.988641 
L 127.371092 151.293528 
L 127.540211 150.113014 
L 127.624771 150.318951 
L 127.878449 149.014253 
L 127.963009 148.645059 
L 128.047569 150.457566 
L 128.132128 150.307444 
L 128.216688 151.606035 
L 128.724045 148.652167 
L 128.977724 147.299583 
L 129.062283 155.372088 
L 129.146843 155.066963 
L 129.231402 154.651174 
L 129.315962 155.613906 
L 129.738759 153.602414 
L 129.907879 164.560379 
L 130.499795 161.189057 
L 130.668915 162.071818 
L 130.753474 161.599363 
L 130.838034 162.381562 
L 131.091712 160.883598 
L 131.176272 170.072876 
L 131.260831 169.742324 
L 131.345391 169.246905 
L 131.42995 170.007208 
L 131.768189 168.223314 
L 131.852748 168.969444 
L 131.937308 168.639191 
L 132.275546 170.637506 
L 132.360105 171.24975 
L 132.444665 170.681032 
L 132.529225 171.27055 
L 133.121141 168.347461 
L 133.205701 168.707334 
L 133.29026 168.436008 
L 133.45938 169.298727 
L 133.543939 168.864995 
L 133.628499 169.286566 
L 133.713058 168.856869 
L 133.797618 169.340058 
L 134.474094 166.274963 
L 134.558654 166.343953 
L 134.812332 165.492647 
L 134.896892 171.085859 
L 134.981451 170.803652 
L 135.31969 169.305037 
L 135.404249 169.914952 
L 135.996166 167.171181 
L 136.926321 163.237024 
L 137.010881 163.293714 
L 137.09544 168.331792 
L 137.18 167.973803 
L 137.941036 165.234889 
L 138.110155 164.741871 
L 138.702072 162.4967 
L 138.871191 161.901491 
L 138.95575 162.44636 
L 139.04031 162.164763 
L 139.209429 167.681095 
L 139.632227 166.109437 
L 139.716786 166.539381 
L 139.885905 165.92336 
L 139.970465 166.432064 
L 140.055024 166.173551 
L 140.139584 166.568311 
L 140.477822 165.445965 
L 140.562382 165.853774 
L 140.985179 164.317843 
L 141.069739 164.732738 
L 142.169013 161.316988 
L 142.253573 161.797075 
L 142.338132 161.527749 
L 142.422692 161.744772 
L 143.014608 160.191931 
L 143.860204 158.451678 
L 144.029323 159.686663 
L 144.113883 159.462707 
L 144.367561 158.731456 
L 144.53668 159.899275 
L 144.959478 158.642164 
L 145.044038 158.890861 
L 145.128597 158.654946 
L 145.213157 163.541423 
L 145.297716 163.293736 
L 145.466835 162.802526 
L 145.635954 163.647441 
L 145.889633 162.878343 
L 146.058752 163.760309 
L 146.227871 163.278628 
L 146.312431 163.690579 
L 147.158026 161.546002 
L 147.242586 161.711744 
L 147.496265 161.033798 
L 147.580824 161.187051 
L 147.749943 160.910005 
L 147.834503 161.308848 
L 147.919062 161.086837 
L 148.003622 161.483163 
L 149.102896 158.876361 
L 149.187455 163.189557 
L 149.272015 163.045631 
L 149.356575 163.421362 
L 150.371289 161.093777 
L 150.624968 167.119057 
L 151.047766 166.177936 
L 151.470563 165.141674 
L 151.555123 165.489747 
L 151.893361 164.729857 
L 152.06248 165.428903 
L 152.485278 164.595382 
L 152.823516 163.92513 
L 152.908076 164.263422 
L 153.161754 163.669778 
L 153.246314 164.005624 
L 153.415433 163.613638 
L 153.499992 163.947379 
L 154.345588 162.468749 
L 154.514707 162.094369 
L 154.599267 162.238611 
L 154.937505 161.499797 
L 155.022064 161.864724 
L 155.444862 161.090466 
L 155.698541 160.583746 
L 155.7831 160.894698 
L 155.86766 160.717027 
L 155.952219 161.049066 
L 156.459577 160.136159 
L 156.628696 159.914246 
L 156.713255 159.784813 
L 156.882374 163.612787 
L 157.136053 163.089616 
L 157.220613 165.710641 
L 157.305172 165.529357 
L 157.474291 165.818021 
L 157.558851 165.697049 
L 159.50372 161.798049 
L 159.841959 161.187751 
L 159.926518 160.988153 
L 160.011078 161.278279 
L 160.095637 161.17272 
L 160.180197 166.151305 
L 160.264756 166.036983 
L 160.433875 165.727172 
L 160.518435 165.982197 
L 161.110352 164.823086 
L 161.533149 164.041724 
L 161.617709 164.10153 
L 161.871388 163.597765 
L 161.955947 165.951968 
L 162.040507 165.788606 
L 163.478019 163.247651 
L 163.562579 163.110025 
L 163.647138 163.374631 
L 164.746412 161.432864 
L 164.830972 161.547718 
L 166.014805 159.679367 
L 166.099365 159.936913 
L 166.183925 159.853577 
L 166.353044 159.721827 
L 167.11408 158.575192 
L 167.198639 158.880548 
L 167.283199 158.745153 
L 167.367758 159.067906 
L 169.228068 156.300228 
L 169.566307 155.853601 
L 170.8347 154.098546 
L 170.919259 154.345913 
L 171.172938 154.033537 
L 171.257497 154.184432 
L 171.342057 154.065923 
L 171.426617 154.331778 
L 171.595736 154.095384 
L 171.680295 156.057937 
L 171.764855 155.93751 
L 171.849414 156.093168 
L 172.103093 155.760746 
L 172.187652 155.863381 
L 172.61045 155.315394 
L 172.69501 155.549782 
L 173.286927 154.676334 
L 173.456046 154.969826 
L 174.47076 153.747718 
L 174.55532 153.671684 
L 174.639879 153.99882 
L 174.724439 153.929592 
L 174.808998 154.157625 
L 175.062677 153.824336 
L 175.147237 155.673621 
L 175.231796 155.5607 
L 175.485475 155.24655 
L 175.570034 155.457959 
L 175.654594 155.346131 
L 175.823713 157.366301 
L 176.161951 156.970568 
L 176.246511 157.147519 
L 176.922987 156.38846 
L 177.007547 158.761171 
L 177.092106 158.647425 
L 177.176666 158.690178 
L 177.937702 157.780184 
L 178.106821 160.333833 
L 178.952416 159.253786 
L 179.036976 159.459636 
L 179.544333 158.807824 
L 179.628893 158.962282 
L 180.305369 158.138346 
L 180.389929 158.341367 
L 180.981845 157.757357 
L 181.150965 158.182347 
L 181.235524 158.076489 
L 182.926715 156.024065 
L 183.011275 157.655893 
L 183.095834 157.553594 
L 183.603191 157.001969 
L 183.687751 158.616451 
L 183.772311 158.513977 
L 184.448787 157.814034 
L 184.533346 158.005304 
L 184.787025 157.735805 
L 184.956144 157.905185 
L 185.378942 157.465814 
L 185.548061 157.268815 
L 185.632621 158.838345 
L 185.71718 158.740764 
L 186.224537 158.14985 
L 186.309097 158.228422 
L 186.731895 157.716124 
L 186.816454 157.901406 
L 187.408371 157.420806 
L 187.57749 157.318729 
L 188.084847 156.819057 
L 188.676764 156.271833 
L 188.761324 157.775683 
L 188.845883 157.681243 
L 189.52236 156.933465 
L 189.606919 159.320346 
L 189.691479 159.225223 
L 190.029717 158.846886 
L 190.114277 159.022725 
L 191.720908 157.359183 
L 191.890027 157.278603 
L 192.143706 157.104299 
L 192.312825 157.039671 
L 192.397384 156.950387 
L 192.481944 157.056603 
L 192.735623 156.812576 
L 192.820182 156.984498 
L 193.919456 155.875056 
L 194.088575 156.215378 
L 194.173135 156.128987 
L 194.257694 156.305895 
L 194.511373 156.047539 
L 194.595933 157.441004 
L 194.680492 157.35386 
L 194.765052 157.408444 
L 194.934171 157.23478 
L 195.01873 157.337316 
L 195.10329 157.250743 
L 195.187849 157.356494 
L 195.441528 157.097811 
L 195.526088 157.184636 
L 195.610647 157.098771 
L 195.695207 157.197392 
L 195.948885 156.940836 
L 196.033445 157.018154 
L 196.9636 156.126767 
L 197.132719 157.562647 
L 197.217279 157.662093 
L 197.724636 157.175236 
L 197.809195 157.289872 
L 199.246708 155.95287 
L 199.331267 155.99881 
L 199.500386 155.977198 
L 199.584946 156.136162 
L 199.669506 156.063198 
L 199.923184 155.979342 
L 200.599661 155.394233 
L 200.937899 155.11527 
L 201.022458 155.217942 
L 201.107018 155.147104 
L 201.360696 158.416544 
L 202.713649 157.411728 
L 202.798209 157.504979 
L 203.221007 157.127987 
L 203.305566 157.242179 
L 203.897483 156.699871 
L 204.996757 156.101636 
L 205.081317 156.250754 
L 205.165876 156.174895 
L 205.250436 156.12711 
L 205.334995 156.273673 
L 205.419555 156.207868 
L 206.518829 155.314772 
L 206.603388 156.5257 
L 206.687948 156.45085 
L 207.533543 155.72491 
L 207.787222 155.955662 
L 208.379139 155.482691 
L 208.463698 156.669292 
L 208.548258 156.622749 
L 208.971056 156.284002 
L 209.055615 156.426636 
L 209.140175 156.35383 
L 209.309294 156.235338 
L 209.478413 156.375 
L 209.98577 156.171654 
L 210.154889 157.802715 
L 210.408568 157.576033 
L 210.493128 157.715366 
L 210.577687 157.642516 
L 211.676961 156.725175 
L 211.761521 156.863422 
L 211.84608 156.802053 
L 212.268878 156.581437 
L 212.522557 156.553751 
L 212.860795 156.366784 
L 213.114474 156.496468 
L 213.621831 156.195925 
L 213.70639 157.31871 
L 213.79095 157.248576 
L 214.044629 157.473333 
L 214.636545 157.102999 
L 214.805665 158.217874 
L 215.566701 157.691204 
L 215.65126 157.677921 
L 215.820379 157.756531 
L 216.074058 157.654992 
L 216.327736 157.735174 
L 216.665975 157.444679 
L 216.835094 157.969651 
L 216.919653 157.901134 
L 217.257891 158.18055 
L 217.51157 158.117148 
L 217.849808 157.849074 
L 218.018927 157.940204 
L 218.272606 157.768152 
L 218.441725 157.877086 
L 218.864523 157.614126 
L 219.033642 157.559503 
L 219.710118 157.018869 
L 219.963797 159.406705 
L 220.386595 159.101547 
L 220.471154 159.226437 
L 220.555714 159.165466 
L 221.147631 158.73884 
L 221.31675 158.803066 
L 221.485869 158.67127 
L 221.570428 159.709016 
L 221.654988 159.642166 
L 221.993226 159.388039 
L 222.077786 159.510824 
L 222.162345 159.444449 
L 222.500583 159.289215 
L 222.585143 159.411496 
L 222.669703 159.345513 
L 222.923381 159.230119 
L 223.17706 159.375253 
L 223.430738 159.249905 
L 223.515298 159.378756 
L 223.599858 159.313365 
L 223.684417 159.271258 
L 223.938096 159.442328 
L 224.107215 159.312056 
L 224.191774 159.432516 
L 224.276334 159.367489 
L 224.530013 159.207941 
L 224.783691 159.383029 
L 225.121929 159.147954 
L 225.291049 159.186756 
L 225.460168 159.064389 
L 225.544727 159.183561 
L 225.629287 159.119522 
L 225.882965 158.961299 
L 226.052084 159.042339 
L 226.390323 158.823159 
L 226.559442 158.880033 
L 226.644001 158.839373 
L 226.81312 158.881483 
L 227.743275 158.322213 
L 228.419752 158.023176 
L 228.75799 158.534855 
L 228.84255 158.473111 
L 228.927109 159.443829 
L 229.011669 159.381501 
L 229.096228 159.523811 
L 229.180788 159.461516 
L 229.349907 159.337204 
L 229.519026 159.500921 
L 229.857264 159.25328 
L 229.941824 160.214832 
L 230.026383 160.162148 
L 230.871979 159.619237 
L 231.041098 159.670982 
L 231.125657 159.609626 
L 231.379336 159.770993 
L 231.886693 159.482263 
L 232.140372 159.716621 
L 232.224931 160.659066 
L 232.309491 160.597617 
L 232.56317 160.443879 
L 232.985967 160.239198 
L 233.155086 160.289126 
L 233.493325 160.046847 
L 233.662444 160.103705 
L 234.33892 159.655693 
L 234.592599 159.826611 
L 234.846277 159.647939 
L 234.930837 159.771515 
L 235.015397 159.71208 
L 235.438194 159.836006 
L 235.607313 160.860539 
L 236.791147 160.152928 
L 237.044826 160.320667 
L 237.129385 161.519936 
L 237.213945 161.460361 
L 237.552183 161.274418 
L 237.636742 162.174102 
L 237.721302 162.114322 
L 237.974981 162.09443 
L 238.313219 161.963206 
L 238.482338 162.029006 
L 239.581612 161.32863 
L 239.750731 161.379666 
L 240.00441 161.212174 
L 240.173529 161.278345 
L 240.342648 161.402327 
L 240.511767 161.452954 
L 240.680886 161.346064 
L 240.850005 161.391441 
L 241.103684 161.2185 
L 241.357363 161.388456 
L 241.526482 161.407129 
L 241.695601 161.433033 
L 242.372077 160.98019 
L 242.541196 161.02545 
L 243.217673 160.694772 
L 243.471351 160.658773 
L 243.64047 160.691018 
L 243.894149 160.800437 
L 244.147828 160.632744 
L 244.316947 160.662843 
L 244.401506 160.626607 
L 244.486066 161.757393 
L 244.570625 161.706092 
L 244.993423 161.54629 
L 246.092697 160.980207 
L 246.684614 160.617971 
L 246.853733 160.662214 
L 246.938293 160.611425 
L 247.107412 160.655591 
L 247.53021 160.388641 
L 247.699329 160.424745 
L 248.206686 160.231258 
L 251.16627 158.528858 
L 251.335389 158.59271 
L 252.011866 158.323951 
L 252.857461 157.822302 
L 252.942021 157.771804 
L 253.02658 158.573122 
L 253.11114 158.522226 
L 254.97145 157.438091 
L 255.225128 157.596367 
L 256.155283 157.177063 
L 256.324403 157.22708 
L 256.408962 158.009519 
L 256.493522 157.96018 
L 256.578081 157.910899 
L 256.7472 157.955284 
L 256.83176 157.966772 
L 256.916319 158.999907 
L 257.000879 158.950153 
L 257.085438 159.004449 
L 257.169998 159.781633 
L 257.254558 159.731502 
L 257.423677 159.889695 
L 258.100153 159.547387 
L 258.353832 159.712197 
L 258.522951 159.713258 
L 258.776629 159.564583 
L 258.945749 159.615415 
L 259.453106 159.376276 
L 259.622225 159.421684 
L 260.045023 159.415766 
L 260.129582 160.17683 
L 260.214142 160.127493 
L 262.49725 158.925218 
L 262.835488 158.751274 
L 263.004607 158.792817 
L 263.511964 158.53172 
L 263.681083 158.578547 
L 264.611238 158.197624 
L 264.864917 160.001726 
L 265.034036 159.906425 
L 265.203155 160.019185 
L 265.795072 159.755034 
L 265.879631 160.486849 
L 265.964191 160.439221 
L 266.21787 160.447765 
L 267.824501 159.588384 
L 267.909061 160.310561 
L 267.99362 160.280119 
L 268.247299 160.139708 
L 268.416418 160.178249 
L 268.500977 160.13158 
L 268.585537 161.084882 
L 268.670097 161.037763 
L 270.530407 160.156811 
L 270.614966 160.866098 
L 270.699526 160.819714 
L 270.953204 160.947533 
L 271.629681 160.696945 
L 271.71424 161.829002 
L 271.7988 161.782423 
L 273.067193 161.209996 
L 273.743669 160.886743 
L 273.912788 160.960983 
L 274.589265 160.635232 
L 274.758384 160.675797 
L 275.942218 160.135913 
L 276.365015 160.219582 
L 277.37973 159.721919 
L 277.548849 159.745887 
L 277.802528 159.615897 
L 277.971647 159.68611 
L 278.056206 160.363217 
L 278.140766 160.319214 
L 280.085635 159.728157 
L 280.170195 160.614691 
L 280.254755 160.586355 
L 280.423874 160.601381 
L 280.677552 160.653722 
L 280.846671 160.669624 
L 281.269469 160.504381 
L 281.354029 161.167626 
L 281.438588 161.124087 
L 281.607707 161.166635 
L 282.453303 161.093302 
L 282.537862 161.136795 
L 282.622422 161.794694 
L 282.706981 161.751168 
L 283.04522 161.582494 
L 283.298898 161.695461 
L 283.806256 161.459951 
L 283.890815 162.112739 
L 283.975375 162.06938 
L 284.144494 162.098127 
L 285.243768 161.56991 
L 285.328327 161.64594 
L 285.497447 162.526617 
L 285.751125 162.552617 
L 286.089363 162.373375 
L 286.258482 162.398656 
L 286.343042 162.355756 
L 286.427602 162.998425 
L 286.512161 162.955272 
L 286.934959 162.742506 
L 287.104078 162.787311 
L 287.442316 162.624149 
L 287.526876 163.262584 
L 287.611435 163.230735 
L 287.865114 163.392628 
L 288.457031 163.202448 
L 288.54159 163.836863 
L 288.62615 163.793827 
L 288.964388 163.745065 
L 289.048948 164.762708 
L 289.133507 164.723879 
L 289.979103 164.311078 
L 290.063662 165.145213 
L 290.148222 165.101918 
L 290.993817 164.74423 
L 291.162936 164.791354 
L 291.247496 165.619646 
L 291.332055 165.59949 
L 292.093091 165.24766 
L 292.177651 166.071379 
L 292.26221 166.02816 
L 292.431329 166.059532 
L 295.221795 164.733372 
L 295.306354 165.343229 
L 295.390914 165.301102 
L 295.898271 165.178511 
L 296.06739 166.050323 
L 296.659307 165.768007 
L 296.743866 166.741555 
L 296.828426 166.69911 
L 297.504902 166.351776 
L 297.674021 166.417054 
L 298.519617 166.063664 
L 298.688736 167.455761 
L 298.773296 167.413437 
L 298.942415 167.342589 
L 299.026974 168.134639 
L 299.111534 168.092081 
L 299.280653 168.116848 
L 300.464487 167.640163 
L 302.663035 166.789146 
L 303.254952 166.617105 
L 303.424071 166.642653 
L 304.269666 166.252155 
L 304.438785 166.249938 
L 305.284381 165.96115 
L 305.622619 165.919914 
L 305.791738 165.967101 
L 306.045417 165.966172 
L 306.468214 165.941143 
L 306.891012 165.78858 
L 307.144691 165.847972 
L 307.398369 165.720103 
L 307.567489 165.745889 
L 308.582203 165.355831 
L 308.751322 165.381778 
L 309.17412 165.231085 
L 309.343239 165.257061 
L 309.596918 165.17483 
L 309.681477 165.739399 
L 309.766037 165.700213 
L 310.357954 165.543318 
L 310.527073 165.538382 
L 311.372668 165.212102 
L 311.541787 166.01887 
L 311.710906 166.05129 
L 311.964585 166.037333 
L 312.218264 166.124739 
L 312.302823 166.681388 
L 312.387383 166.655069 
L 312.81018 166.544832 
L 313.063859 166.604252 
L 313.317538 166.572427 
L 313.571216 166.659772 
L 314.247693 166.494331 
L 314.501371 166.536185 
L 315.008729 166.329026 
L 315.431526 166.352747 
L 316.61536 165.841689 
L 316.784479 165.875061 
L 318.052872 165.416821 
L 318.221992 165.413794 
L 318.813908 165.237512 
L 318.983027 165.236249 
L 320.589659 164.592777 
L 320.843338 164.654573 
L 321.435254 164.487113 
L 321.604373 164.512156 
L 322.703648 164.055735 
L 323.887481 163.619071 
L 324.14116 163.752302 
L 324.648517 163.638295 
L 324.817636 163.670041 
L 325.494113 163.466654 
L 325.663232 163.492033 
L 326.508827 163.216991 
L 326.847065 163.185191 
L 327.100744 163.104042 
L 327.354423 163.288867 
L 327.438982 163.976463 
L 327.523542 163.941259 
L 327.94634 163.831271 
L 328.369137 163.891549 
L 328.876495 163.709853 
L 328.961054 164.224063 
L 329.045614 164.189011 
L 329.468411 164.081353 
L 329.63753 164.115954 
L 329.80665 164.111762 
L 329.975769 164.115032 
L 333.696389 163.285629 
L 333.865508 163.286777 
L 334.626544 163.132298 
L 334.880222 163.207513 
L 335.30302 163.15435 
L 335.472139 163.190251 
L 336.486854 162.887836 
L 336.740533 162.826532 
L 337.755247 162.59203 
L 337.839807 163.08615 
L 337.924366 163.052928 
L 338.939081 162.7999 
L 339.1082 162.788771 
L 339.192759 163.279832 
L 339.277319 163.2616 
L 339.869236 163.096211 
L 339.953795 163.585493 
L 340.038355 163.552396 
L 340.461153 163.440023 
L 340.630272 163.463736 
L 340.799391 163.397856 
L 340.88395 163.885008 
L 340.96851 163.851935 
L 342.152344 163.419588 
L 342.321463 163.959903 
L 342.74426 163.798553 
L 342.82882 164.281392 
L 342.91338 164.248454 
L 344.181773 163.810145 
L 344.520011 163.69948 
L 344.60457 164.178616 
L 344.68913 164.145971 
L 344.942809 164.040885 
L 345.111928 164.574182 
L 346.295761 164.233551 
L 346.972238 164.085901 
L 347.056797 164.715008 
L 347.141357 164.682513 
L 347.479595 164.603493 
L 347.733274 165.670567 
L 349.001667 165.293135 
L 349.339905 165.292641 
L 349.593584 165.338173 
L 349.678143 165.298657 
L 349.847262 165.810285 
L 351.707572 165.269243 
L 351.792132 165.733257 
L 351.876692 165.701048 
L 352.13037 165.708355 
L 352.891406 165.502885 
L 353.060525 165.528446 
L 354.498038 165.259489 
L 356.273788 164.898033 
L 356.442907 164.919169 
L 356.781145 164.815373 
L 358.641455 164.284782 
L 358.895134 164.238248 
L 359.317932 164.174522 
L 359.57161 164.238764 
L 359.825289 164.227339 
L 359.994408 164.279073 
L 360.417206 164.13863 
L 360.586325 164.146531 
L 361.178242 164.033397 
L 361.43192 164.069154 
L 363.123111 163.7217 
L 363.207671 164.164877 
L 363.292231 164.134685 
L 364.306945 163.857705 
L 364.391505 164.29873 
L 364.476064 164.268636 
L 365.406219 164.019749 
L 365.575338 164.028371 
L 367.18197 163.665775 
L 367.266529 164.101833 
L 367.351089 164.082118 
L 368.112125 163.931296 
L 368.95772 163.65111 
L 369.04228 164.084122 
L 369.126839 164.056302 
L 369.718756 163.954013 
L 369.887875 163.97466 
L 371.325388 163.622756 
L 371.494507 163.648144 
L 372.593781 163.317689 
L 373.185698 163.133581 
L 373.270257 163.559666 
L 373.354817 163.524358 
L 374.115853 163.371282 
L 374.284972 163.39196 
L 375.722484 163.019416 
L 375.976163 162.9788 
L 377.498235 162.606446 
L 377.921032 162.477013 
L 378.005592 162.895629 
L 378.090151 162.867546 
L 378.42839 162.832145 
L 378.512949 163.24984 
L 378.597509 163.232101 
L 378.935747 163.119696 
L 379.020306 163.790386 
L 379.104866 163.762124 
L 379.273985 163.7035 
L 379.443104 164.167705 
L 380.2887 163.992345 
L 380.711497 164.019938 
L 381.134295 163.990533 
L 381.557093 163.935494 
L 381.641652 164.347933 
L 381.726212 164.319772 
L 382.318129 164.242691 
L 382.402688 164.788504 
L 382.487248 164.763555 
L 383.671082 164.392861 
L 383.755641 164.364899 
L 383.840201 165.02316 
L 383.92476 164.995017 
L 384.770356 164.883206 
L 384.939475 164.904534 
L 385.531392 164.780974 
L 385.615951 165.434781 
L 385.700511 165.406694 
L 387.138023 165.022913 
L 387.307142 165.041574 
L 388.068178 164.850226 
L 389.167452 164.536568 
L 389.336571 165.091477 
L 389.59025 165.063696 
L 391.281441 164.615391 
L 391.535119 164.589277 
L 392.127036 164.469844 
L 392.380715 164.43635 
L 393.479989 164.178802 
L 393.649108 164.192512 
L 394.494704 163.995862 
L 394.579263 164.389177 
L 394.663823 164.362308 
L 394.832942 164.388447 
L 395.593978 164.250524 
L 395.678537 164.770493 
L 395.763097 164.745937 
L 396.608692 164.494391 
L 396.777811 165.117974 
L 397.454288 164.983067 
L 397.538847 165.371963 
L 397.623407 165.345081 
L 397.877086 165.258602 
L 397.961645 165.646834 
L 398.046205 165.61991 
L 398.722681 165.470442 
L 399.145479 165.335452 
L 399.230038 165.721927 
L 399.314598 165.695101 
L 399.483717 165.68334 
L 399.568277 166.069252 
L 399.652836 166.042354 
L 401.682265 165.477816 
L 401.851384 165.842967 
L 402.950658 165.573557 
L 403.119778 166.460877 
L 403.204337 166.434197 
L 403.458016 166.405882 
L 404.388171 166.124 
L 404.47273 166.503238 
L 404.55729 166.476669 
L 404.980088 166.343532 
L 405.064647 167.113435 
L 405.149207 167.095413 
L 406.671279 166.718863 
L 406.840398 166.748251 
L 407.685993 166.510075 
L 407.855112 166.927578 
L 409.377184 166.51398 
L 409.546303 166.530373 
L 410.730137 166.252472 
L 410.899256 167.000952 
L 410.983815 166.983317 
L 411.068375 167.353853 
L 411.152935 167.327633 
L 411.660292 167.195747 
L 412.928685 166.905135 
L 413.266923 166.995537 
L 413.436042 166.952132 
L 413.520602 167.31963 
L 413.605161 167.293636 
L 414.450757 167.085796 
L 414.704436 167.161499 
L 416.226507 166.800493 
L 416.480186 166.779602 
L 417.241222 166.615808 
L 417.57946 166.625134 
L 418.171377 166.470377 
L 418.425056 166.452916 
L 419.101532 166.35522 
L 419.270651 166.371178 
L 420.031687 166.297969 
L 420.285366 166.335569 
L 420.961842 166.164374 
L 421.046402 166.894086 
L 421.130961 166.863371 
L 421.638319 166.813429 
L 422.314795 166.724259 
L 423.583188 166.504603 
L 423.667748 166.860132 
L 423.752307 166.835119 
L 423.921426 166.788684 
L 424.005986 167.143746 
L 424.090545 167.118682 
L 424.767022 166.978516 
L 425.0207 166.97677 
L 425.443498 166.929588 
L 425.866296 167.006238 
L 426.035415 167.03089 
L 426.204534 167.046124 
L 426.289094 167.023359 
L 426.373653 167.375655 
L 426.458213 167.350719 
L 426.796451 167.360799 
L 426.88101 167.71243 
L 426.96557 167.687443 
L 427.134689 167.702276 
L 427.388368 167.69385 
L 427.726606 167.731195 
L 427.895725 167.745968 
L 428.318523 167.877394 
L 428.741321 167.856042 
L 429.079559 167.935684 
L 429.671476 167.835412 
L 429.756035 167.874839 
L 429.925154 168.367289 
L 430.347952 168.352733 
L 431.447226 168.134345 
L 432.715619 167.916627 
L 434.068572 167.612898 
L 434.237691 167.638502 
L 434.998727 167.426174 
L 435.167846 167.807546 
L 435.506084 167.811418 
L 435.759763 167.790288 
L 436.520799 167.663185 
L 436.859037 167.606942 
L 437.366394 167.55431 
L 437.450954 167.894353 
L 437.535513 167.870138 
L 438.465669 167.671928 
L 438.719347 167.670084 
L 440.410538 167.2753 
L 440.495098 167.612232 
L 440.579657 167.588788 
L 441.002455 167.547889 
L 441.256134 167.529758 
L 442.101729 167.403893 
L 442.355408 167.456202 
L 442.862765 167.351333 
L 443.031884 167.806237 
L 443.116444 167.792436 
L 443.201003 168.236138 
L 443.285563 168.219921 
L 444.976754 167.857976 
L 446.245147 167.612102 
L 446.583385 167.594509 
L 447.682659 167.387145 
L 447.851778 167.407307 
L 450.557684 166.747257 
L 450.642243 167.074128 
L 450.726803 167.051072 
L 452.417994 166.699757 
L 454.870221 166.145892 
L 455.884935 165.987806 
L 456.138614 165.964781 
L 456.730531 165.914269 
L 457.153329 165.98603 
L 457.322448 165.983479 
L 457.491567 166.347064 
L 457.998924 166.259222 
L 458.337162 167.341863 
L 458.75996 167.424782 
L 458.84452 167.743683 
L 458.929079 167.716138 
L 461.719544 167.27892 
L 461.804104 167.314837 
L 461.973223 168.467318 
L 462.057782 168.444676 
L 463.833533 168.074398 
L 464.002652 168.366004 
L 464.087212 168.343622 
L 464.256331 168.634885 
L 465.947522 168.259856 
L 466.2012 168.235849 
L 467.046796 168.115075 
L 467.131355 168.124866 
L 467.300474 168.413716 
L 467.723272 168.413953 
L 467.976951 168.411927 
L 471.105654 167.851063 
L 471.359333 167.843104 
L 472.035809 167.77566 
L 472.289488 167.763429 
L 474.910834 167.351093 
L 474.995393 167.755681 
L 475.079953 167.735837 
L 477.278501 167.207766 
L 477.44762 167.488951 
L 478.208656 167.40939 
L 478.462335 167.400806 
L 479.646168 167.153342 
L 479.984406 167.148432 
L 480.153526 167.427559 
L 480.322645 167.391355 
L 480.491764 167.715694 
L 481.2528 167.623156 
L 481.421919 167.656156 
L 481.844717 167.618093 
L 482.182955 167.668604 
L 482.859431 167.548058 
L 483.197669 167.633301 
L 483.366788 167.909769 
L 483.705027 167.933657 
L 483.958705 167.873899 
L 484.127824 168.149686 
L 485.565337 168.117159 
L 485.649896 168.096039 
L 485.819015 168.370466 
L 487.171968 168.120077 
L 487.425647 168.112764 
L 487.763885 168.030517 
L 487.848444 168.420993 
L 487.933004 168.399934 
L 488.355802 168.403055 
L 488.69404 168.426924 
L 488.863159 168.848337 
L 490.131552 168.750064 
L 490.216112 168.729059 
L 490.385231 168.99986 
L 491.146267 168.873878 
L 491.230826 169.343093 
L 491.315386 169.322016 
L 491.907303 169.195633 
L 492.076422 169.465009 
L 492.668339 169.340146 
L 493.429375 169.217634 
L 493.598494 169.485916 
L 493.683053 169.464939 
L 493.852172 169.732931 
L 494.105851 169.729853 
L 498.333828 168.787501 
L 498.672067 168.748106 
L 500.109579 168.475739 
L 500.447817 168.501937 
L 500.532377 168.481548 
L 500.701496 168.74521 
L 500.786055 168.7313 
L 500.955174 169.096304 
L 501.71621 169.006946 
L 501.885329 169.26957 
L 502.561806 169.213644 
L 502.730925 169.475605 
L 503.153723 169.52485 
L 503.57652 169.426671 
L 503.745639 169.832434 
L 504.337556 169.794588 
L 504.506675 169.771212 
L 504.675794 170.035083 
L 505.52139 169.930643 
L 507.3817 169.844858 
L 507.550819 170.226346 
L 507.804498 170.216655 
L 509.495689 169.956599 
L 509.749367 169.951981 
L 510.679522 169.840218 
L 512.455273 169.657529 
L 513.385428 169.545165 
L 513.469987 169.910194 
L 513.554547 169.890174 
L 516.598691 169.332972 
L 517.021488 169.245517 
L 517.190608 169.498664 
L 517.951643 169.417378 
L 518.289882 169.440343 
L 520.826668 168.955952 
L 521.080347 168.947372 
L 521.756823 168.899068 
L 521.925942 169.148794 
L 523.363455 168.961178 
L 524.039931 169.048862 
L 524.885526 168.969118 
L 526.238479 168.868131 
L 526.492158 168.873899 
L 526.576717 168.889837 
L 526.745836 169.136642 
L 527.337753 169.113576 
L 527.675991 169.173723 
L 527.92967 169.163633 
L 528.098789 169.409517 
L 528.437027 169.426443 
L 528.775266 169.452028 
L 528.944385 169.743973 
L 529.705421 169.662546 
L 529.87454 169.907173 
L 530.466457 169.879852 
L 530.804695 169.926543 
L 531.481171 169.824069 
L 531.65029 170.063564 
L 535.37091 169.580982 
L 535.540029 169.907927 
L 535.793708 169.912844 
L 537.31578 169.682163 
L 537.738578 169.661708 
L 539.006971 169.469881 
L 539.17609 169.709217 
L 541.205519 169.341996 
L 541.459198 169.836802 
L 546.279092 168.874254 
L 546.448211 169.111257 
L 549.407795 168.600685 
L 549.661474 168.589019 
L 550.845308 168.442237 
L 551.268105 168.434545 
L 553.043856 168.197215 
L 553.804892 168.082937 
L 553.974011 168.347753 
L 556.088 167.980547 
L 556.341678 167.975851 
L 557.694631 167.792183 
L 558.117429 167.819126 
L 558.963024 167.721283 
L 559.301262 167.745001 
L 559.72406 167.715045 
L 559.893179 168.024792 
L 561.499811 167.799796 
L 562.091727 167.696055 
L 563.360121 167.532886 
L 563.52924 167.557942 
L 564.628514 167.425617 
L 565.220431 167.509622 
L 566.573383 167.321643 
L 566.911622 167.327452 
L 568.687372 167.05781 
L 568.941051 167.052498 
L 570.378563 166.962088 
L 570.801361 166.901705 
L 571.646956 166.823092 
L 571.816075 167.046297 
L 572.577111 166.967151 
L 573.169028 166.863468 
L 573.338147 167.085917 
L 574.014624 166.989118 
L 574.183743 167.289487 
L 574.437421 167.282824 
L 575.621255 167.201145 
L 575.874934 167.196186 
L 576.382291 167.17416 
L 576.720529 167.144122 
L 578.41172 166.88737 
L 578.665399 166.880988 
L 579.003637 166.820592 
L 579.172756 167.126603 
L 580.525709 166.922429 
L 580.779387 166.926746 
L 581.117626 166.864052 
L 581.202185 167.243024 
L 581.286745 167.222802 
L 582.724257 167.048875 
L 582.977936 167.043857 
L 583.738972 167.005372 
L 584.07721 167.030221 
L 585.176484 166.95262 
L 585.345603 167.278417 
L 586.613996 167.076871 
L 586.783115 167.376847 
L 586.952234 167.391196 
L 587.121354 167.606957 
L 587.79783 167.564741 
L 588.051509 167.562495 
L 588.136068 167.546052 
L 588.305187 167.763195 
L 589.235342 167.638265 
L 589.404461 167.852899 
L 589.7427 167.855958 
L 590.588295 167.759413 
L 591.772129 167.597479 
L 591.941248 167.830475 
L 593.46332 167.64232 
L 593.801558 167.60695 
L 593.886117 167.590696 
L 594.055236 167.827514 
L 594.900832 167.742606 
L 595.069951 167.710131 
L 595.23907 167.997069 
L 595.661868 167.970517 
L 595.830987 168.215796 
L 596.000106 168.268342 
L 596.169225 168.479735 
L 597.268499 168.322729 
L 597.437618 168.608144 
L 598.706012 168.386548 
L 598.875131 168.593252 
L 600.397203 168.403932 
L 600.735441 168.37034 
L 601.242798 168.295102 
L 601.411917 168.541376 
L 602.76487 168.388205 
L 602.933989 168.386516 
L 603.103108 168.594864 
L 603.441346 168.553792 
L 603.610465 168.898988 
L 603.695025 168.92419 
L 603.948704 169.379971 
L 605.386216 169.216255 
L 606.57005 169.044241 
L 606.739169 169.255935 
L 607.415645 169.135807 
L 607.584764 169.342 
L 610.036991 168.931795 
L 610.20611 169.136966 
L 612.489218 168.749704 
L 612.658337 168.953925 
L 612.996575 168.971652 
L 614.180409 168.862107 
L 614.349528 169.065598 
L 615.279683 169.012962 
L 615.617921 169.000234 
L 615.956159 168.956339 
L 616.125278 169.23089 
L 616.886314 169.135575 
L 617.055433 169.492367 
L 617.985589 169.372577 
L 618.154708 169.571025 
L 621.198851 169.095415 
L 621.706209 169.06083 
L 622.382685 168.940265 
L 622.551804 169.272443 
L 622.636364 169.256833 
L 622.636364 169.256833 
" clip-path="url(#p7180159794)" style="fill: none; stroke: #ff7f0e; stroke-width: 1.5; stroke-linecap: square"/>
   </g>
   <g id="patch_3">
    <path d="M 90 320.4 
L 90 43.2 
" style="fill: none; stroke: #000000; stroke-width: 0.8; stroke-linejoin: miter; stroke-linecap: square"/>
   </g>
   <g id="patch_4">
    <path d="M 648 320.4 
L 648 43.2 
" style="fill: none; stroke: #000000; stroke-width: 0.8; stroke-linejoin: miter; stroke-linecap: square"/>
   </g>
   <g id="patch_5">
    <path d="M 90 320.4 
L 648 320.4 
" style="fill: none; stroke: #000000; stroke-width: 0.8; stroke-linejoin: miter; stroke-linecap: square"/>
   </g>
   <g id="patch_6">
    <path d="M 90 43.2 
L 648 43.2 
" style="fill: none; stroke: #000000; stroke-width: 0.8; stroke-linejoin: miter; stroke-linecap: square"/>
   </g>
   <g id="text_18">
    <!-- Evolution of rewards (DDQN with PER Constant ε=0.1 (γ=0.995)) -->
    <g transform="translate(173.41875 37.2) scale(0.12 -0.12)">
     <defs>
      <path id="DejaVuSans-45" d="M 628 4666 
L 3578 4666 
L 3578 4134 
L 1259 4134 
L 1259 2753 
L 3481 2753 
L 3481 2222 
L 1259 2222 
L 1259 531 
L 3634 531 
L 3634 0 
L 628 0 
L 628 4666 
z
" transform="scale(0.015625)"/>
      <path id="DejaVuSans-6f" d="M 1959 3097 
Q 1497 3097 1228 2736 
Q 959 2375 959 1747 
Q 959 1119 1226 758 
Q 1494 397 1959 397 
Q 2419 397 2687 759 
Q 2956 1122 2956 1747 
Q 2956 2369 2687 2733 
Q 2419 3097 1959 3097 
z
M 1959 3584 
Q 2709 3584 3137 3096 
Q 3566 2609 3566 1747 
Q 3566 888 3137 398 
Q 2709 -91 1959 -91 
Q 1206 -91 779 398 
Q 353 888 353 1747 
Q 353 2609 779 3096 
Q 1206 3584 1959 3584 
z
" transform="scale(0.015625)"/>
      <path id="DejaVuSans-6c" d="M 603 4863 
L 1178 4863 
L 1178 0 
L 603 0 
L 603 4863 
z
" transform="scale(0.015625)"/>
      <path id="DejaVuSans-75" d="M 544 1381 
L 544 3500 
L 1119 3500 
L 1119 1403 
Q 1119 906 1312 657 
Q 1506 409 1894 409 
Q 2359 409 2629 706 
Q 2900 1003 2900 1516 
L 2900 3500 
L 3475 3500 
L 3475 0 
L 2900 0 
L 2900 538 
Q 2691 219 2414 64 
Q 2138 -91 1772 -91 
Q 1169 -91 856 284 
Q 544 659 544 1381 
z
M 1991 3584 
L 1991 3584 
z
" transform="scale(0.015625)"/>
      <path id="DejaVuSans-6e" d="M 3513 2113 
L 3513 0 
L 2938 0 
L 2938 2094 
Q 2938 2591 2744 2837 
Q 2550 3084 2163 3084 
Q 1697 3084 1428 2787 
Q 1159 2491 1159 1978 
L 1159 0 
L 581 0 
L 581 3500 
L 1159 3500 
L 1159 2956 
Q 1366 3272 1645 3428 
Q 1925 3584 2291 3584 
Q 2894 3584 3203 3211 
Q 3513 2838 3513 2113 
z
" transform="scale(0.015625)"/>
      <path id="DejaVuSans-66" d="M 2375 4863 
L 2375 4384 
L 1825 4384 
Q 1516 4384 1395 4259 
Q 1275 4134 1275 3809 
L 1275 3500 
L 2222 3500 
L 2222 3053 
L 1275 3053 
L 1275 0 
L 697 0 
L 697 3053 
L 147 3053 
L 147 3500 
L 697 3500 
L 697 3744 
Q 697 4328 969 4595 
Q 1241 4863 1831 4863 
L 2375 4863 
z
" transform="scale(0.015625)"/>
      <path id="DejaVuSans-28" d="M 1984 4856 
Q 1566 4138 1362 3434 
Q 1159 2731 1159 2009 
Q 1159 1288 1364 580 
Q 1569 -128 1984 -844 
L 1484 -844 
Q 1016 -109 783 600 
Q 550 1309 550 2009 
Q 550 2706 781 3412 
Q 1013 4119 1484 4856 
L 1984 4856 
z
" transform="scale(0.015625)"/>
      <path id="DejaVuSans-44" d="M 1259 4147 
L 1259 519 
L 2022 519 
Q 2988 519 3436 956 
Q 3884 1394 3884 2338 
Q 3884 3275 3436 3711 
Q 2988 4147 2022 4147 
L 1259 4147 
z
M 628 4666 
L 1925 4666 
Q 3281 4666 3915 4102 
Q 4550 3538 4550 2338 
Q 4550 1131 3912 565 
Q 3275 0 1925 0 
L 628 0 
L 628 4666 
z
" transform="scale(0.015625)"/>
      <path id="DejaVuSans-51" d="M 2522 4238 
Q 1834 4238 1429 3725 
Q 1025 3213 1025 2328 
Q 1025 1447 1429 934 
Q 1834 422 2522 422 
Q 3209 422 3611 934 
Q 4013 1447 4013 2328 
Q 4013 3213 3611 3725 
Q 3209 4238 2522 4238 
z
M 3406 84 
L 4238 -825 
L 3475 -825 
L 2784 -78 
Q 2681 -84 2626 -87 
Q 2572 -91 2522 -91 
Q 1538 -91 948 567 
Q 359 1225 359 2328 
Q 359 3434 948 4092 
Q 1538 4750 2522 4750 
Q 3503 4750 4090 4092 
Q 4678 3434 4678 2328 
Q 4678 1516 4351 937 
Q 4025 359 3406 84 
z
" transform="scale(0.015625)"/>
      <path id="DejaVuSans-4e" d="M 628 4666 
L 1478 4666 
L 3547 763 
L 3547 4666 
L 4159 4666 
L 4159 0 
L 3309 0 
L 1241 3903 
L 1241 0 
L 628 0 
L 628 4666 
z
" transform="scale(0.015625)"/>
      <path id="DejaVuSans-68" d="M 3513 2113 
L 3513 0 
L 2938 0 
L 2938 2094 
Q 2938 2591 2744 2837 
Q 2550 3084 2163 3084 
Q 1697 3084 1428 2787 
Q 1159 2491 1159 1978 
L 1159 0 
L 581 0 
L 581 4863 
L 1159 4863 
L 1159 2956 
Q 1366 3272 1645 3428 
Q 1925 3584 2291 3584 
Q 2894 3584 3203 3211 
Q 3513 2838 3513 2113 
z
" transform="scale(0.015625)"/>
      <path id="DejaVuSans-50" d="M 1259 4147 
L 1259 2394 
L 2053 2394 
Q 2494 2394 2734 2622 
Q 2975 2850 2975 3272 
Q 2975 3691 2734 3919 
Q 2494 4147 2053 4147 
L 1259 4147 
z
M 628 4666 
L 2053 4666 
Q 2838 4666 3239 4311 
Q 3641 3956 3641 3272 
Q 3641 2581 3239 2228 
Q 2838 1875 2053 1875 
L 1259 1875 
L 1259 0 
L 628 0 
L 628 4666 
z
" transform="scale(0.015625)"/>
      <path id="DejaVuSans-52" d="M 2841 2188 
Q 3044 2119 3236 1894 
Q 3428 1669 3622 1275 
L 4263 0 
L 3584 0 
L 2988 1197 
Q 2756 1666 2539 1819 
Q 2322 1972 1947 1972 
L 1259 1972 
L 1259 0 
L 628 0 
L 628 4666 
L 2053 4666 
Q 2853 4666 3247 4331 
Q 3641 3997 3641 3322 
Q 3641 2881 3436 2590 
Q 3231 2300 2841 2188 
z
M 1259 4147 
L 1259 2491 
L 2053 2491 
Q 2509 2491 2742 2702 
Q 2975 2913 2975 3322 
Q 2975 3731 2742 3939 
Q 2509 4147 2053 4147 
L 1259 4147 
z
" transform="scale(0.015625)"/>
      <path id="DejaVuSans-43" d="M 4122 4306 
L 4122 3641 
Q 3803 3938 3442 4084 
Q 3081 4231 2675 4231 
Q 1875 4231 1450 3742 
Q 1025 3253 1025 2328 
Q 1025 1406 1450 917 
Q 1875 428 2675 428 
Q 3081 428 3442 575 
Q 3803 722 4122 1019 
L 4122 359 
Q 3791 134 3420 21 
Q 3050 -91 2638 -91 
Q 1578 -91 968 557 
Q 359 1206 359 2328 
Q 359 3453 968 4101 
Q 1578 4750 2638 4750 
Q 3056 4750 3426 4639 
Q 3797 4528 4122 4306 
z
" transform="scale(0.015625)"/>
      <path id="DejaVuSans-3b5" d="M 1234 1888 
Q 884 1963 697 2166 
Q 509 2366 509 2656 
Q 509 3097 866 3344 
Q 1219 3588 1831 3588 
Q 2069 3588 2334 3550 
Q 2600 3513 2906 3438 
L 2906 2916 
Q 2603 3006 2353 3047 
Q 2100 3088 1878 3088 
Q 1506 3088 1291 2944 
Q 1072 2800 1072 2600 
Q 1072 2381 1284 2241 
Q 1494 2103 1856 2103 
L 2341 2103 
L 2341 1628 
L 1878 1628 
Q 1450 1628 1225 1469 
Q 981 1294 981 1019 
Q 981 738 1244 563 
Q 1509 388 1981 388 
Q 2272 388 2538 444 
Q 2803 503 3025 619 
L 3025 84 
Q 2744 -3 2481 -47 
Q 2216 -91 1966 -91 
Q 1222 -91 819 194 
Q 416 478 416 1019 
Q 416 1356 631 1584 
Q 847 1813 1234 1888 
z
" transform="scale(0.015625)"/>
      <path id="DejaVuSans-3d" d="M 678 2906 
L 4684 2906 
L 4684 2381 
L 678 2381 
L 678 2906 
z
M 678 1631 
L 4684 1631 
L 4684 1100 
L 678 1100 
L 678 1631 
z
" transform="scale(0.015625)"/>
      <path id="DejaVuSans-2e" d="M 684 794 
L 1344 794 
L 1344 0 
L 684 0 
L 684 794 
z
" transform="scale(0.015625)"/>
      <path id="DejaVuSans-3b3" d="M 1128 2950 
L 1894 788 
L 2988 3500 
L 3597 3500 
L 2181 0 
L 2181 -1331 
L 1606 -1331 
L 1606 0 
L 688 2613 
Q 550 3006 253 3006 
L 100 3006 
L 100 3500 
L 319 3500 
Q 934 3500 1128 2950 
z
" transform="scale(0.015625)"/>
      <path id="DejaVuSans-39" d="M 703 97 
L 703 672 
Q 941 559 1184 500 
Q 1428 441 1663 441 
Q 2288 441 2617 861 
Q 2947 1281 2994 2138 
Q 2813 1869 2534 1725 
Q 2256 1581 1919 1581 
Q 1219 1581 811 2004 
Q 403 2428 403 3163 
Q 403 3881 828 4315 
Q 1253 4750 1959 4750 
Q 2769 4750 3195 4129 
Q 3622 3509 3622 2328 
Q 3622 1225 3098 567 
Q 2575 -91 1691 -91 
Q 1453 -91 1209 -44 
Q 966 3 703 97 
z
M 1959 2075 
Q 2384 2075 2632 2365 
Q 2881 2656 2881 3163 
Q 2881 3666 2632 3958 
Q 2384 4250 1959 4250 
Q 1534 4250 1286 3958 
Q 1038 3666 1038 3163 
Q 1038 2656 1286 2365 
Q 1534 2075 1959 2075 
z
" transform="scale(0.015625)"/>
      <path id="DejaVuSans-29" d="M 513 4856 
L 1013 4856 
Q 1481 4119 1714 3412 
Q 1947 2706 1947 2009 
Q 1947 1309 1714 600 
Q 1481 -109 1013 -844 
L 513 -844 
Q 928 -128 1133 580 
Q 1338 1288 1338 2009 
Q 1338 2731 1133 3434 
Q 928 4138 513 4856 
z
" transform="scale(0.015625)"/>
     </defs>
     <use xlink:href="#DejaVuSans-45"/>
     <use xlink:href="#DejaVuSans-76" x="63.183594"/>
     <use xlink:href="#DejaVuSans-6f" x="122.363281"/>
     <use xlink:href="#DejaVuSans-6c" x="183.544922"/>
     <use xlink:href="#DejaVuSans-75" x="211.328125"/>
     <use xlink:href="#DejaVuSans-74" x="274.707031"/>
     <use xlink:href="#DejaVuSans-69" x="313.916016"/>
     <use xlink:href="#DejaVuSans-6f" x="341.699219"/>
     <use xlink:href="#DejaVuSans-6e" x="402.880859"/>
     <use xlink:href="#DejaVuSans-20" x="466.259766"/>
     <use xlink:href="#DejaVuSans-6f" x="498.046875"/>
     <use xlink:href="#DejaVuSans-66" x="559.228516"/>
     <use xlink:href="#DejaVuSans-20" x="594.433594"/>
     <use xlink:href="#DejaVuSans-72" x="626.220703"/>
     <use xlink:href="#DejaVuSans-65" x="665.083984"/>
     <use xlink:href="#DejaVuSans-77" x="726.607422"/>
     <use xlink:href="#DejaVuSans-61" x="808.394531"/>
     <use xlink:href="#DejaVuSans-72" x="869.673828"/>
     <use xlink:href="#DejaVuSans-64" x="909.037109"/>
     <use xlink:href="#DejaVuSans-73" x="972.513672"/>
     <use xlink:href="#DejaVuSans-20" x="1024.613281"/>
     <use xlink:href="#DejaVuSans-28" x="1056.400391"/>
     <use xlink:href="#DejaVuSans-44" x="1095.414062"/>
     <use xlink:href="#DejaVuSans-44" x="1172.416016"/>
     <use xlink:href="#DejaVuSans-51" x="1249.417969"/>
     <use xlink:href="#DejaVuSans-4e" x="1328.128906"/>
     <use xlink:href="#DejaVuSans-20" x="1402.933594"/>
     <use xlink:href="#DejaVuSans-77" x="1434.720703"/>
     <use xlink:href="#DejaVuSans-69" x="1516.507812"/>
     <use xlink:href="#DejaVuSans-74" x="1544.291016"/>
     <use xlink:href="#DejaVuSans-68" x="1583.5"/>
     <use xlink:href="#DejaVuSans-20" x="1646.878906"/>
     <use xlink:href="#DejaVuSans-50" x="1678.666016"/>
     <use xlink:href="#DejaVuSans-45" x="1738.96875"/>
     <use xlink:href="#DejaVuSans-52" x="1802.152344"/>
     <use xlink:href="#DejaVuSans-20" x="1871.634766"/>
     <use xlink:href="#DejaVuSans-43" x="1903.421875"/>
     <use xlink:href="#DejaVuSans-6f" x="1973.246094"/>
     <use xlink:href="#DejaVuSans-6e" x="2034.427734"/>
     <use xlink:href="#DejaVuSans-73" x="2097.806641"/>
     <use xlink:href="#DejaVuSans-74" x="2149.90625"/>
     <use xlink:href="#DejaVuSans-61" x="2189.115234"/>
     <use xlink:href="#DejaVuSans-6e" x="2250.394531"/>
     <use xlink:href="#DejaVuSans-74" x="2313.773438"/>
     <use xlink:href="#DejaVuSans-20" x="2352.982422"/>
     <use xlink:href="#DejaVuSans-3b5" x="2384.769531"/>
     <use xlink:href="#DejaVuSans-3d" x="2438.822266"/>
     <use xlink:href="#DejaVuSans-30" x="2522.611328"/>
     <use xlink:href="#DejaVuSans-2e" x="2586.234375"/>
     <use xlink:href="#DejaVuSans-31" x="2618.021484"/>
     <use xlink:href="#DejaVuSans-20" x="2681.644531"/>
     <use xlink:href="#DejaVuSans-28" x="2713.431641"/>
     <use xlink:href="#DejaVuSans-3b3" x="2752.445312"/>
     <use xlink:href="#DejaVuSans-3d" x="2811.625"/>
     <use xlink:href="#DejaVuSans-30" x="2895.414062"/>
     <use xlink:href="#DejaVuSans-2e" x="2959.037109"/>
     <use xlink:href="#DejaVuSans-39" x="2990.824219"/>
     <use xlink:href="#DejaVuSans-39" x="3054.447266"/>
     <use xlink:href="#DejaVuSans-35" x="3118.070312"/>
     <use xlink:href="#DejaVuSans-29" x="3181.693359"/>
     <use xlink:href="#DejaVuSans-29" x="3220.707031"/>
    </g>
   </g>
  </g>
 </g>
 <defs>
  <clipPath id="p7180159794">
   <rect x="90" y="43.2" width="558" height="277.2"/>
  </clipPath>
 </defs>
</svg>
