<?xml version="1.0" encoding="utf-8" standalone="no"?>
<!DOCTYPE svg PUBLIC "-//W3C//DTD SVG 1.1//EN"
  "http://www.w3.org/Graphics/SVG/1.1/DTD/svg11.dtd">
<svg xmlns:xlink="http://www.w3.org/1999/xlink" width="720pt" height="360pt" viewBox="0 0 720 360" xmlns="http://www.w3.org/2000/svg" version="1.1">
 <metadata>
  <rdf:RDF xmlns:dc="http://purl.org/dc/elements/1.1/" xmlns:cc="http://creativecommons.org/ns#" xmlns:rdf="http://www.w3.org/1999/02/22-rdf-syntax-ns#">
   <cc:Work>
    <dc:type rdf:resource="http://purl.org/dc/dcmitype/StillImage"/>
    <dc:date>2024-03-15T21:19:54.572663</dc:date>
    <dc:format>image/svg+xml</dc:format>
    <dc:creator>
     <cc:Agent>
      <dc:title>Matplotlib v3.7.0, https://matplotlib.org/</dc:title>
     </cc:Agent>
    </dc:creator>
   </cc:Work>
  </rdf:RDF>
 </metadata>
 <defs>
  <style type="text/css">*{stroke-linejoin: round; stroke-linecap: butt}</style>
 </defs>
 <g id="figure_1">
  <g id="patch_1">
   <path d="M 0 360 
L 720 360 
L 720 0 
L 0 0 
z
" style="fill: #ffffff"/>
  </g>
  <g id="axes_1">
   <g id="patch_2">
    <path d="M 90 320.4 
L 648 320.4 
L 648 43.2 
L 90 43.2 
z
" style="fill: #ffffff"/>
   </g>
   <g id="matplotlib.axis_1">
    <g id="xtick_1">
     <g id="line2d_1">
      <defs>
       <path id="m6bf99b1c00" d="M 0 0 
L 0 3.5 
" style="stroke: #000000; stroke-width: 0.8"/>
      </defs>
      <g>
       <use xlink:href="#m6bf99b1c00" x="115.35369" y="320.4" style="stroke: #000000; stroke-width: 0.8"/>
      </g>
     </g>
     <g id="text_1">
      <!-- 0 -->
      <g transform="translate(112.17244 334.998438) scale(0.1 -0.1)">
       <defs>
        <path id="DejaVuSans-30" d="M 2034 4250 
Q 1547 4250 1301 3770 
Q 1056 3291 1056 2328 
Q 1056 1369 1301 889 
Q 1547 409 2034 409 
Q 2525 409 2770 889 
Q 3016 1369 3016 2328 
Q 3016 3291 2770 3770 
Q 2525 4250 2034 4250 
z
M 2034 4750 
Q 2819 4750 3233 4129 
Q 3647 3509 3647 2328 
Q 3647 1150 3233 529 
Q 2819 -91 2034 -91 
Q 1250 -91 836 529 
Q 422 1150 422 2328 
Q 422 3509 836 4129 
Q 1250 4750 2034 4750 
z
" transform="scale(0.015625)"/>
       </defs>
       <use xlink:href="#DejaVuSans-30"/>
      </g>
     </g>
    </g>
    <g id="xtick_2">
     <g id="line2d_2">
      <g>
       <use xlink:href="#m6bf99b1c00" x="214.820881" y="320.4" style="stroke: #000000; stroke-width: 0.8"/>
      </g>
     </g>
     <g id="text_2">
      <!-- 10000 -->
      <g transform="translate(198.914631 334.998438) scale(0.1 -0.1)">
       <defs>
        <path id="DejaVuSans-31" d="M 794 531 
L 1825 531 
L 1825 4091 
L 703 3866 
L 703 4441 
L 1819 4666 
L 2450 4666 
L 2450 531 
L 3481 531 
L 3481 0 
L 794 0 
L 794 531 
z
" transform="scale(0.015625)"/>
       </defs>
       <use xlink:href="#DejaVuSans-31"/>
       <use xlink:href="#DejaVuSans-30" x="63.623047"/>
       <use xlink:href="#DejaVuSans-30" x="127.246094"/>
       <use xlink:href="#DejaVuSans-30" x="190.869141"/>
       <use xlink:href="#DejaVuSans-30" x="254.492188"/>
      </g>
     </g>
    </g>
    <g id="xtick_3">
     <g id="line2d_3">
      <g>
       <use xlink:href="#m6bf99b1c00" x="314.288072" y="320.4" style="stroke: #000000; stroke-width: 0.8"/>
      </g>
     </g>
     <g id="text_3">
      <!-- 20000 -->
      <g transform="translate(298.381822 334.998438) scale(0.1 -0.1)">
       <defs>
        <path id="DejaVuSans-32" d="M 1228 531 
L 3431 531 
L 3431 0 
L 469 0 
L 469 531 
Q 828 903 1448 1529 
Q 2069 2156 2228 2338 
Q 2531 2678 2651 2914 
Q 2772 3150 2772 3378 
Q 2772 3750 2511 3984 
Q 2250 4219 1831 4219 
Q 1534 4219 1204 4116 
Q 875 4013 500 3803 
L 500 4441 
Q 881 4594 1212 4672 
Q 1544 4750 1819 4750 
Q 2544 4750 2975 4387 
Q 3406 4025 3406 3419 
Q 3406 3131 3298 2873 
Q 3191 2616 2906 2266 
Q 2828 2175 2409 1742 
Q 1991 1309 1228 531 
z
" transform="scale(0.015625)"/>
       </defs>
       <use xlink:href="#DejaVuSans-32"/>
       <use xlink:href="#DejaVuSans-30" x="63.623047"/>
       <use xlink:href="#DejaVuSans-30" x="127.246094"/>
       <use xlink:href="#DejaVuSans-30" x="190.869141"/>
       <use xlink:href="#DejaVuSans-30" x="254.492188"/>
      </g>
     </g>
    </g>
    <g id="xtick_4">
     <g id="line2d_4">
      <g>
       <use xlink:href="#m6bf99b1c00" x="413.755263" y="320.4" style="stroke: #000000; stroke-width: 0.8"/>
      </g>
     </g>
     <g id="text_4">
      <!-- 30000 -->
      <g transform="translate(397.849013 334.998438) scale(0.1 -0.1)">
       <defs>
        <path id="DejaVuSans-33" d="M 2597 2516 
Q 3050 2419 3304 2112 
Q 3559 1806 3559 1356 
Q 3559 666 3084 287 
Q 2609 -91 1734 -91 
Q 1441 -91 1130 -33 
Q 819 25 488 141 
L 488 750 
Q 750 597 1062 519 
Q 1375 441 1716 441 
Q 2309 441 2620 675 
Q 2931 909 2931 1356 
Q 2931 1769 2642 2001 
Q 2353 2234 1838 2234 
L 1294 2234 
L 1294 2753 
L 1863 2753 
Q 2328 2753 2575 2939 
Q 2822 3125 2822 3475 
Q 2822 3834 2567 4026 
Q 2313 4219 1838 4219 
Q 1578 4219 1281 4162 
Q 984 4106 628 3988 
L 628 4550 
Q 988 4650 1302 4700 
Q 1616 4750 1894 4750 
Q 2613 4750 3031 4423 
Q 3450 4097 3450 3541 
Q 3450 3153 3228 2886 
Q 3006 2619 2597 2516 
z
" transform="scale(0.015625)"/>
       </defs>
       <use xlink:href="#DejaVuSans-33"/>
       <use xlink:href="#DejaVuSans-30" x="63.623047"/>
       <use xlink:href="#DejaVuSans-30" x="127.246094"/>
       <use xlink:href="#DejaVuSans-30" x="190.869141"/>
       <use xlink:href="#DejaVuSans-30" x="254.492188"/>
      </g>
     </g>
    </g>
    <g id="xtick_5">
     <g id="line2d_5">
      <g>
       <use xlink:href="#m6bf99b1c00" x="513.222454" y="320.4" style="stroke: #000000; stroke-width: 0.8"/>
      </g>
     </g>
     <g id="text_5">
      <!-- 40000 -->
      <g transform="translate(497.316204 334.998438) scale(0.1 -0.1)">
       <defs>
        <path id="DejaVuSans-34" d="M 2419 4116 
L 825 1625 
L 2419 1625 
L 2419 4116 
z
M 2253 4666 
L 3047 4666 
L 3047 1625 
L 3713 1625 
L 3713 1100 
L 3047 1100 
L 3047 0 
L 2419 0 
L 2419 1100 
L 313 1100 
L 313 1709 
L 2253 4666 
z
" transform="scale(0.015625)"/>
       </defs>
       <use xlink:href="#DejaVuSans-34"/>
       <use xlink:href="#DejaVuSans-30" x="63.623047"/>
       <use xlink:href="#DejaVuSans-30" x="127.246094"/>
       <use xlink:href="#DejaVuSans-30" x="190.869141"/>
       <use xlink:href="#DejaVuSans-30" x="254.492188"/>
      </g>
     </g>
    </g>
    <g id="xtick_6">
     <g id="line2d_6">
      <g>
       <use xlink:href="#m6bf99b1c00" x="612.689645" y="320.4" style="stroke: #000000; stroke-width: 0.8"/>
      </g>
     </g>
     <g id="text_6">
      <!-- 50000 -->
      <g transform="translate(596.783395 334.998438) scale(0.1 -0.1)">
       <defs>
        <path id="DejaVuSans-35" d="M 691 4666 
L 3169 4666 
L 3169 4134 
L 1269 4134 
L 1269 2991 
Q 1406 3038 1543 3061 
Q 1681 3084 1819 3084 
Q 2600 3084 3056 2656 
Q 3513 2228 3513 1497 
Q 3513 744 3044 326 
Q 2575 -91 1722 -91 
Q 1428 -91 1123 -41 
Q 819 9 494 109 
L 494 744 
Q 775 591 1075 516 
Q 1375 441 1709 441 
Q 2250 441 2565 725 
Q 2881 1009 2881 1497 
Q 2881 1984 2565 2268 
Q 2250 2553 1709 2553 
Q 1456 2553 1204 2497 
Q 953 2441 691 2322 
L 691 4666 
z
" transform="scale(0.015625)"/>
       </defs>
       <use xlink:href="#DejaVuSans-35"/>
       <use xlink:href="#DejaVuSans-30" x="63.623047"/>
       <use xlink:href="#DejaVuSans-30" x="127.246094"/>
       <use xlink:href="#DejaVuSans-30" x="190.869141"/>
       <use xlink:href="#DejaVuSans-30" x="254.492188"/>
      </g>
     </g>
    </g>
    <g id="text_7">
     <!-- Time step -->
     <g transform="translate(344.361719 348.676562) scale(0.1 -0.1)">
      <defs>
       <path id="DejaVuSans-54" d="M -19 4666 
L 3928 4666 
L 3928 4134 
L 2272 4134 
L 2272 0 
L 1638 0 
L 1638 4134 
L -19 4134 
L -19 4666 
z
" transform="scale(0.015625)"/>
       <path id="DejaVuSans-69" d="M 603 3500 
L 1178 3500 
L 1178 0 
L 603 0 
L 603 3500 
z
M 603 4863 
L 1178 4863 
L 1178 4134 
L 603 4134 
L 603 4863 
z
" transform="scale(0.015625)"/>
       <path id="DejaVuSans-6d" d="M 3328 2828 
Q 3544 3216 3844 3400 
Q 4144 3584 4550 3584 
Q 5097 3584 5394 3201 
Q 5691 2819 5691 2113 
L 5691 0 
L 5113 0 
L 5113 2094 
Q 5113 2597 4934 2840 
Q 4756 3084 4391 3084 
Q 3944 3084 3684 2787 
Q 3425 2491 3425 1978 
L 3425 0 
L 2847 0 
L 2847 2094 
Q 2847 2600 2669 2842 
Q 2491 3084 2119 3084 
Q 1678 3084 1418 2786 
Q 1159 2488 1159 1978 
L 1159 0 
L 581 0 
L 581 3500 
L 1159 3500 
L 1159 2956 
Q 1356 3278 1631 3431 
Q 1906 3584 2284 3584 
Q 2666 3584 2933 3390 
Q 3200 3197 3328 2828 
z
" transform="scale(0.015625)"/>
       <path id="DejaVuSans-65" d="M 3597 1894 
L 3597 1613 
L 953 1613 
Q 991 1019 1311 708 
Q 1631 397 2203 397 
Q 2534 397 2845 478 
Q 3156 559 3463 722 
L 3463 178 
Q 3153 47 2828 -22 
Q 2503 -91 2169 -91 
Q 1331 -91 842 396 
Q 353 884 353 1716 
Q 353 2575 817 3079 
Q 1281 3584 2069 3584 
Q 2775 3584 3186 3129 
Q 3597 2675 3597 1894 
z
M 3022 2063 
Q 3016 2534 2758 2815 
Q 2500 3097 2075 3097 
Q 1594 3097 1305 2825 
Q 1016 2553 972 2059 
L 3022 2063 
z
" transform="scale(0.015625)"/>
       <path id="DejaVuSans-20" transform="scale(0.015625)"/>
       <path id="DejaVuSans-73" d="M 2834 3397 
L 2834 2853 
Q 2591 2978 2328 3040 
Q 2066 3103 1784 3103 
Q 1356 3103 1142 2972 
Q 928 2841 928 2578 
Q 928 2378 1081 2264 
Q 1234 2150 1697 2047 
L 1894 2003 
Q 2506 1872 2764 1633 
Q 3022 1394 3022 966 
Q 3022 478 2636 193 
Q 2250 -91 1575 -91 
Q 1294 -91 989 -36 
Q 684 19 347 128 
L 347 722 
Q 666 556 975 473 
Q 1284 391 1588 391 
Q 1994 391 2212 530 
Q 2431 669 2431 922 
Q 2431 1156 2273 1281 
Q 2116 1406 1581 1522 
L 1381 1569 
Q 847 1681 609 1914 
Q 372 2147 372 2553 
Q 372 3047 722 3315 
Q 1072 3584 1716 3584 
Q 2034 3584 2315 3537 
Q 2597 3491 2834 3397 
z
" transform="scale(0.015625)"/>
       <path id="DejaVuSans-74" d="M 1172 4494 
L 1172 3500 
L 2356 3500 
L 2356 3053 
L 1172 3053 
L 1172 1153 
Q 1172 725 1289 603 
Q 1406 481 1766 481 
L 2356 481 
L 2356 0 
L 1766 0 
Q 1100 0 847 248 
Q 594 497 594 1153 
L 594 3053 
L 172 3053 
L 172 3500 
L 594 3500 
L 594 4494 
L 1172 4494 
z
" transform="scale(0.015625)"/>
       <path id="DejaVuSans-70" d="M 1159 525 
L 1159 -1331 
L 581 -1331 
L 581 3500 
L 1159 3500 
L 1159 2969 
Q 1341 3281 1617 3432 
Q 1894 3584 2278 3584 
Q 2916 3584 3314 3078 
Q 3713 2572 3713 1747 
Q 3713 922 3314 415 
Q 2916 -91 2278 -91 
Q 1894 -91 1617 61 
Q 1341 213 1159 525 
z
M 3116 1747 
Q 3116 2381 2855 2742 
Q 2594 3103 2138 3103 
Q 1681 3103 1420 2742 
Q 1159 2381 1159 1747 
Q 1159 1113 1420 752 
Q 1681 391 2138 391 
Q 2594 391 2855 752 
Q 3116 1113 3116 1747 
z
" transform="scale(0.015625)"/>
      </defs>
      <use xlink:href="#DejaVuSans-54"/>
      <use xlink:href="#DejaVuSans-69" x="57.958984"/>
      <use xlink:href="#DejaVuSans-6d" x="85.742188"/>
      <use xlink:href="#DejaVuSans-65" x="183.154297"/>
      <use xlink:href="#DejaVuSans-20" x="244.677734"/>
      <use xlink:href="#DejaVuSans-73" x="276.464844"/>
      <use xlink:href="#DejaVuSans-74" x="328.564453"/>
      <use xlink:href="#DejaVuSans-65" x="367.773438"/>
      <use xlink:href="#DejaVuSans-70" x="429.296875"/>
     </g>
    </g>
   </g>
   <g id="matplotlib.axis_2">
    <g id="ytick_1">
     <g id="line2d_7">
      <defs>
       <path id="mbe43abc5e1" d="M 0 0 
L -3.5 0 
" style="stroke: #000000; stroke-width: 0.8"/>
      </defs>
      <g>
       <use xlink:href="#mbe43abc5e1" x="90" y="307.8" style="stroke: #000000; stroke-width: 0.8"/>
      </g>
     </g>
     <g id="text_8">
      <!-- −1000 -->
      <g transform="translate(49.170313 311.599219) scale(0.1 -0.1)">
       <defs>
        <path id="DejaVuSans-2212" d="M 678 2272 
L 4684 2272 
L 4684 1741 
L 678 1741 
L 678 2272 
z
" transform="scale(0.015625)"/>
       </defs>
       <use xlink:href="#DejaVuSans-2212"/>
       <use xlink:href="#DejaVuSans-31" x="83.789062"/>
       <use xlink:href="#DejaVuSans-30" x="147.412109"/>
       <use xlink:href="#DejaVuSans-30" x="211.035156"/>
       <use xlink:href="#DejaVuSans-30" x="274.658203"/>
      </g>
     </g>
    </g>
    <g id="ytick_2">
     <g id="line2d_8">
      <g>
       <use xlink:href="#mbe43abc5e1" x="90" y="257.4" style="stroke: #000000; stroke-width: 0.8"/>
      </g>
     </g>
     <g id="text_9">
      <!-- −800 -->
      <g transform="translate(55.532812 261.199219) scale(0.1 -0.1)">
       <defs>
        <path id="DejaVuSans-38" d="M 2034 2216 
Q 1584 2216 1326 1975 
Q 1069 1734 1069 1313 
Q 1069 891 1326 650 
Q 1584 409 2034 409 
Q 2484 409 2743 651 
Q 3003 894 3003 1313 
Q 3003 1734 2745 1975 
Q 2488 2216 2034 2216 
z
M 1403 2484 
Q 997 2584 770 2862 
Q 544 3141 544 3541 
Q 544 4100 942 4425 
Q 1341 4750 2034 4750 
Q 2731 4750 3128 4425 
Q 3525 4100 3525 3541 
Q 3525 3141 3298 2862 
Q 3072 2584 2669 2484 
Q 3125 2378 3379 2068 
Q 3634 1759 3634 1313 
Q 3634 634 3220 271 
Q 2806 -91 2034 -91 
Q 1263 -91 848 271 
Q 434 634 434 1313 
Q 434 1759 690 2068 
Q 947 2378 1403 2484 
z
M 1172 3481 
Q 1172 3119 1398 2916 
Q 1625 2713 2034 2713 
Q 2441 2713 2670 2916 
Q 2900 3119 2900 3481 
Q 2900 3844 2670 4047 
Q 2441 4250 2034 4250 
Q 1625 4250 1398 4047 
Q 1172 3844 1172 3481 
z
" transform="scale(0.015625)"/>
       </defs>
       <use xlink:href="#DejaVuSans-2212"/>
       <use xlink:href="#DejaVuSans-38" x="83.789062"/>
       <use xlink:href="#DejaVuSans-30" x="147.412109"/>
       <use xlink:href="#DejaVuSans-30" x="211.035156"/>
      </g>
     </g>
    </g>
    <g id="ytick_3">
     <g id="line2d_9">
      <g>
       <use xlink:href="#mbe43abc5e1" x="90" y="207" style="stroke: #000000; stroke-width: 0.8"/>
      </g>
     </g>
     <g id="text_10">
      <!-- −600 -->
      <g transform="translate(55.532812 210.799219) scale(0.1 -0.1)">
       <defs>
        <path id="DejaVuSans-36" d="M 2113 2584 
Q 1688 2584 1439 2293 
Q 1191 2003 1191 1497 
Q 1191 994 1439 701 
Q 1688 409 2113 409 
Q 2538 409 2786 701 
Q 3034 994 3034 1497 
Q 3034 2003 2786 2293 
Q 2538 2584 2113 2584 
z
M 3366 4563 
L 3366 3988 
Q 3128 4100 2886 4159 
Q 2644 4219 2406 4219 
Q 1781 4219 1451 3797 
Q 1122 3375 1075 2522 
Q 1259 2794 1537 2939 
Q 1816 3084 2150 3084 
Q 2853 3084 3261 2657 
Q 3669 2231 3669 1497 
Q 3669 778 3244 343 
Q 2819 -91 2113 -91 
Q 1303 -91 875 529 
Q 447 1150 447 2328 
Q 447 3434 972 4092 
Q 1497 4750 2381 4750 
Q 2619 4750 2861 4703 
Q 3103 4656 3366 4563 
z
" transform="scale(0.015625)"/>
       </defs>
       <use xlink:href="#DejaVuSans-2212"/>
       <use xlink:href="#DejaVuSans-36" x="83.789062"/>
       <use xlink:href="#DejaVuSans-30" x="147.412109"/>
       <use xlink:href="#DejaVuSans-30" x="211.035156"/>
      </g>
     </g>
    </g>
    <g id="ytick_4">
     <g id="line2d_10">
      <g>
       <use xlink:href="#mbe43abc5e1" x="90" y="156.6" style="stroke: #000000; stroke-width: 0.8"/>
      </g>
     </g>
     <g id="text_11">
      <!-- −400 -->
      <g transform="translate(55.532812 160.399219) scale(0.1 -0.1)">
       <use xlink:href="#DejaVuSans-2212"/>
       <use xlink:href="#DejaVuSans-34" x="83.789062"/>
       <use xlink:href="#DejaVuSans-30" x="147.412109"/>
       <use xlink:href="#DejaVuSans-30" x="211.035156"/>
      </g>
     </g>
    </g>
    <g id="ytick_5">
     <g id="line2d_11">
      <g>
       <use xlink:href="#mbe43abc5e1" x="90" y="106.2" style="stroke: #000000; stroke-width: 0.8"/>
      </g>
     </g>
     <g id="text_12">
      <!-- −200 -->
      <g transform="translate(55.532812 109.999219) scale(0.1 -0.1)">
       <use xlink:href="#DejaVuSans-2212"/>
       <use xlink:href="#DejaVuSans-32" x="83.789062"/>
       <use xlink:href="#DejaVuSans-30" x="147.412109"/>
       <use xlink:href="#DejaVuSans-30" x="211.035156"/>
      </g>
     </g>
    </g>
    <g id="ytick_6">
     <g id="line2d_12">
      <g>
       <use xlink:href="#mbe43abc5e1" x="90" y="55.8" style="stroke: #000000; stroke-width: 0.8"/>
      </g>
     </g>
     <g id="text_13">
      <!-- 0 -->
      <g transform="translate(76.6375 59.599219) scale(0.1 -0.1)">
       <use xlink:href="#DejaVuSans-30"/>
      </g>
     </g>
    </g>
    <g id="text_14">
     <!-- Average reward -->
     <g transform="translate(43.090625 221.236719) rotate(-90) scale(0.1 -0.1)">
      <defs>
       <path id="DejaVuSans-41" d="M 2188 4044 
L 1331 1722 
L 3047 1722 
L 2188 4044 
z
M 1831 4666 
L 2547 4666 
L 4325 0 
L 3669 0 
L 3244 1197 
L 1141 1197 
L 716 0 
L 50 0 
L 1831 4666 
z
" transform="scale(0.015625)"/>
       <path id="DejaVuSans-76" d="M 191 3500 
L 800 3500 
L 1894 563 
L 2988 3500 
L 3597 3500 
L 2284 0 
L 1503 0 
L 191 3500 
z
" transform="scale(0.015625)"/>
       <path id="DejaVuSans-72" d="M 2631 2963 
Q 2534 3019 2420 3045 
Q 2306 3072 2169 3072 
Q 1681 3072 1420 2755 
Q 1159 2438 1159 1844 
L 1159 0 
L 581 0 
L 581 3500 
L 1159 3500 
L 1159 2956 
Q 1341 3275 1631 3429 
Q 1922 3584 2338 3584 
Q 2397 3584 2469 3576 
Q 2541 3569 2628 3553 
L 2631 2963 
z
" transform="scale(0.015625)"/>
       <path id="DejaVuSans-61" d="M 2194 1759 
Q 1497 1759 1228 1600 
Q 959 1441 959 1056 
Q 959 750 1161 570 
Q 1363 391 1709 391 
Q 2188 391 2477 730 
Q 2766 1069 2766 1631 
L 2766 1759 
L 2194 1759 
z
M 3341 1997 
L 3341 0 
L 2766 0 
L 2766 531 
Q 2569 213 2275 61 
Q 1981 -91 1556 -91 
Q 1019 -91 701 211 
Q 384 513 384 1019 
Q 384 1609 779 1909 
Q 1175 2209 1959 2209 
L 2766 2209 
L 2766 2266 
Q 2766 2663 2505 2880 
Q 2244 3097 1772 3097 
Q 1472 3097 1187 3025 
Q 903 2953 641 2809 
L 641 3341 
Q 956 3463 1253 3523 
Q 1550 3584 1831 3584 
Q 2591 3584 2966 3190 
Q 3341 2797 3341 1997 
z
" transform="scale(0.015625)"/>
       <path id="DejaVuSans-67" d="M 2906 1791 
Q 2906 2416 2648 2759 
Q 2391 3103 1925 3103 
Q 1463 3103 1205 2759 
Q 947 2416 947 1791 
Q 947 1169 1205 825 
Q 1463 481 1925 481 
Q 2391 481 2648 825 
Q 2906 1169 2906 1791 
z
M 3481 434 
Q 3481 -459 3084 -895 
Q 2688 -1331 1869 -1331 
Q 1566 -1331 1297 -1286 
Q 1028 -1241 775 -1147 
L 775 -588 
Q 1028 -725 1275 -790 
Q 1522 -856 1778 -856 
Q 2344 -856 2625 -561 
Q 2906 -266 2906 331 
L 2906 616 
Q 2728 306 2450 153 
Q 2172 0 1784 0 
Q 1141 0 747 490 
Q 353 981 353 1791 
Q 353 2603 747 3093 
Q 1141 3584 1784 3584 
Q 2172 3584 2450 3431 
Q 2728 3278 2906 2969 
L 2906 3500 
L 3481 3500 
L 3481 434 
z
" transform="scale(0.015625)"/>
       <path id="DejaVuSans-77" d="M 269 3500 
L 844 3500 
L 1563 769 
L 2278 3500 
L 2956 3500 
L 3675 769 
L 4391 3500 
L 4966 3500 
L 4050 0 
L 3372 0 
L 2619 2869 
L 1863 0 
L 1184 0 
L 269 3500 
z
" transform="scale(0.015625)"/>
       <path id="DejaVuSans-64" d="M 2906 2969 
L 2906 4863 
L 3481 4863 
L 3481 0 
L 2906 0 
L 2906 525 
Q 2725 213 2448 61 
Q 2172 -91 1784 -91 
Q 1150 -91 751 415 
Q 353 922 353 1747 
Q 353 2572 751 3078 
Q 1150 3584 1784 3584 
Q 2172 3584 2448 3432 
Q 2725 3281 2906 2969 
z
M 947 1747 
Q 947 1113 1208 752 
Q 1469 391 1925 391 
Q 2381 391 2643 752 
Q 2906 1113 2906 1747 
Q 2906 2381 2643 2742 
Q 2381 3103 1925 3103 
Q 1469 3103 1208 2742 
Q 947 2381 947 1747 
z
" transform="scale(0.015625)"/>
      </defs>
      <use xlink:href="#DejaVuSans-41"/>
      <use xlink:href="#DejaVuSans-76" x="62.533203"/>
      <use xlink:href="#DejaVuSans-65" x="121.712891"/>
      <use xlink:href="#DejaVuSans-72" x="183.236328"/>
      <use xlink:href="#DejaVuSans-61" x="224.349609"/>
      <use xlink:href="#DejaVuSans-67" x="285.628906"/>
      <use xlink:href="#DejaVuSans-65" x="349.105469"/>
      <use xlink:href="#DejaVuSans-20" x="410.628906"/>
      <use xlink:href="#DejaVuSans-72" x="442.416016"/>
      <use xlink:href="#DejaVuSans-65" x="481.279297"/>
      <use xlink:href="#DejaVuSans-77" x="542.802734"/>
      <use xlink:href="#DejaVuSans-61" x="624.589844"/>
      <use xlink:href="#DejaVuSans-72" x="685.869141"/>
      <use xlink:href="#DejaVuSans-64" x="725.232422"/>
     </g>
    </g>
   </g>
   <g id="line2d_13">
    <path d="M 115.363636 55.8 
L 622.636364 55.8 
L 622.636364 55.8 
" clip-path="url(#pc25f8173f8)" style="fill: none; stroke-dasharray: 5.55,2.4; stroke-dashoffset: 0; stroke: #1f77b4; stroke-width: 1.5"/>
   </g>
   <g id="line2d_14">
    <path d="M 115.363636 307.8 
L 115.41337 99.236978 
L 115.482997 128.85163 
L 115.50289 144.493949 
L 115.632198 104.250479 
L 115.642144 115.614256 
L 115.741612 107.231585 
L 115.860972 95.61661 
L 115.890812 98.224639 
L 115.900759 104.32601 
L 116.000226 101.821728 
L 116.089747 96.532849 
L 116.149427 97.448429 
L 116.159374 100.045362 
L 116.248894 95.875454 
L 116.358308 91.771318 
L 116.437882 92.047443 
L 116.447829 94.00883 
L 116.537349 91.281615 
L 116.666657 88.032941 
L 116.676603 89.685325 
L 116.68655 91.689166 
L 116.77607 89.524287 
L 116.825804 88.428147 
L 116.835751 89.900441 
L 116.895431 88.664125 
L 116.965058 95.368063 
L 117.034685 94.098061 
L 117.23362 90.297374 
L 117.283353 90.985844 
L 117.32314 90.333267 
L 117.333087 91.426064 
L 117.392767 90.451093 
L 117.502181 93.324213 
L 117.522074 92.982013 
L 117.721009 90.053626 
L 117.750849 91.21842 
L 117.760796 92.113385 
L 117.850316 90.902653 
L 117.98957 89.178441 
L 118.069144 90.573872 
L 118.098984 90.208257 
L 118.138771 90.81702 
L 118.357599 88.467931 
L 118.427226 90.794428 
L 118.486906 90.170474 
L 118.964349 86.009377 
L 119.004136 87.411117 
L 119.083709 86.792321 
L 119.153336 86.267849 
L 119.193123 87.721907 
L 119.272697 87.092217 
L 119.471631 85.670403 
L 119.561152 85.690046 
L 119.590992 85.493473 
L 119.600939 86.30918 
L 119.700406 85.684134 
L 119.819767 84.931751 
L 119.829713 85.539014 
L 119.83966 86.311211 
L 119.939127 85.801656 
L 120.008754 85.390058 
L 120.038594 86.812998 
L 120.128115 86.269867 
L 120.157955 86.60898 
L 120.247475 86.124033 
L 120.346943 87.90746 
L 120.376783 87.724031 
L 120.56577 86.67015 
L 120.595611 88.502767 
L 120.695078 87.976686 
L 120.774652 88.007734 
L 120.874119 87.465585 
L 120.884065 87.861869 
L 120.973586 87.385742 
L 120.993479 87.27953 
L 121.003426 87.756502 
L 121.013373 87.705128 
L 121.02332 88.17968 
L 121.122787 87.666835 
L 121.132733 88.132469 
L 121.271988 87.512811 
L 121.351561 88.243156 
L 121.391348 88.043666 
L 121.669856 86.809427 
L 121.679803 86.839915 
L 121.68975 87.186792 
L 121.77927 86.777138 
L 121.829004 86.555443 
L 121.83895 86.894775 
L 121.848897 86.852556 
L 121.958311 87.286972 
L 121.968258 87.24374 
L 122.127405 86.578079 
L 122.177139 86.810471 
L 122.286553 87.686018 
L 122.306446 87.599362 
L 122.366127 87.352602 
L 122.376073 87.66485 
L 122.425807 87.453278 
L 122.555114 88.623579 
L 122.515327 87.436592 
L 122.565061 88.583524 
L 122.734155 87.883713 
L 122.763995 88.093374 
L 122.773942 88.556788 
L 122.873409 88.164242 
L 122.883356 88.454382 
L 122.972876 88.096608 
L 123.002717 87.978334 
L 123.012663 88.329272 
L 123.032557 88.254968 
L 123.122077 88.54465 
L 123.141971 88.465123 
L 123.201651 88.55182 
L 123.311065 88.137235 
L 123.321012 88.474392 
L 123.420479 88.101555 
L 123.539839 87.654345 
L 123.619413 87.729646 
L 123.708934 88.425392 
L 123.748721 88.283789 
L 123.828294 88.000402 
L 123.878028 88.616004 
L 123.947655 88.374518 
L 123.977495 88.26548 
L 123.987442 88.576464 
L 123.997389 88.542888 
L 124.007335 88.939736 
L 124.106802 88.586973 
L 124.146589 88.448146 
L 124.156536 88.696001 
L 124.166483 88.661948 
L 124.176429 88.965824 
L 124.275897 88.615959 
L 124.365417 88.304687 
L 124.415151 88.412439 
L 124.425097 88.652996 
L 124.514618 88.358075 
L 124.633979 87.965442 
L 124.723499 88.39335 
L 124.753339 88.293252 
L 124.803073 88.448138 
L 125.021901 87.765797 
L 125.121368 88.413256 
L 125.151208 88.322265 
L 125.200942 88.472215 
L 125.559023 87.412266 
L 125.668437 88.118828 
L 125.688331 88.061874 
L 126.096146 87.15299 
L 126.106093 87.473662 
L 126.20556 87.20003 
L 126.2354 87.12142 
L 126.245347 87.36898 
L 126.255294 87.342662 
L 126.26524 87.58957 
L 126.364708 87.326299 
L 126.454228 87.096424 
L 126.513908 87.612313 
L 126.573589 87.452574 
L 126.623322 87.321447 
L 126.633269 87.338094 
L 126.643216 87.643347 
L 126.742683 87.602491 
L 126.832203 87.375399 
L 126.87199 87.534528 
L 126.921724 87.926968 
L 126.991351 87.74252 
L 127.051031 87.592295 
L 127.060978 87.886439 
L 127.160445 87.634664 
L 127.41906 86.998005 
L 127.488687 87.080495 
L 127.588154 87.661103 
L 127.608048 87.615464 
L 127.757248 87.459247 
L 127.836822 87.949028 
L 127.876609 87.856207 
L 127.976076 87.621779 
L 128.095437 87.926027 
L 128.513199 87.195001 
L 128.582826 87.454849 
L 128.63256 87.344654 
L 128.871281 87.011379 
L 128.881228 87.210782 
L 128.980695 86.995968 
L 128.990642 87.193783 
L 129.308937 86.531604 
L 129.378564 86.607035 
L 129.38851 86.763798 
L 129.478031 86.581847 
L 129.517818 86.501288 
L 129.527764 86.745007 
L 129.627232 86.547677 
L 129.686912 86.430145 
L 129.696859 86.618612 
L 129.766486 86.89399 
L 129.816219 86.792945 
L 130.084781 86.266811 
L 130.094727 86.450302 
L 130.124568 86.899307 
L 130.214088 86.725227 
L 130.224035 86.706372 
L 130.293662 87.076877 
L 130.343395 86.980513 
L 130.641797 86.64207 
L 130.651744 86.785866 
L 130.741264 86.617429 
L 130.880518 86.361522 
L 130.900412 86.517641 
L 131.009826 86.907623 
L 131.029719 86.873039 
L 131.049612 86.835525 
L 131.059559 86.975464 
L 131.069506 86.955875 
L 131.129186 87.243128 
L 131.17892 87.153032 
L 131.188866 87.133397 
L 131.198813 87.351015 
L 131.2386 87.277131 
L 131.248547 87.44667 
L 131.348014 87.259101 
L 131.397748 87.168666 
L 131.407694 87.305364 
L 131.427588 87.26665 
L 131.437534 87.403034 
L 131.527055 87.240937 
L 131.556895 87.1863 
L 131.566842 87.398946 
L 131.606629 87.328287 
L 131.696149 87.168721 
L 131.765776 87.228421 
L 131.805563 87.567083 
L 131.885137 87.426933 
L 131.914977 87.554842 
L 131.984604 87.432142 
L 131.994551 87.593988 
L 132.094018 87.446697 
L 132.273059 87.161417 
L 132.352633 87.39403 
L 132.382473 87.342599 
L 132.442153 87.269879 
L 132.4521 87.427489 
L 132.471993 87.393607 
L 132.491887 87.415437 
L 132.54162 87.332158 
L 132.611247 87.213057 
L 132.621194 87.412703 
L 132.660981 87.344975 
L 132.720661 87.246063 
L 132.780342 87.29075 
L 132.790288 87.445291 
L 132.889755 87.279628 
L 132.929542 87.215669 
L 132.939489 87.411701 
L 133.048903 87.39932 
L 133.108583 87.299483 
L 133.11853 87.451164 
L 133.158317 87.383877 
L 133.168264 87.577298 
L 133.267731 87.408709 
L 133.337358 87.289964 
L 133.347304 87.481512 
L 133.416932 87.370651 
L 133.934161 86.756313 
L 134.003788 87.170166 
L 134.063468 87.076275 
L 134.123149 86.985887 
L 134.133095 87.16958 
L 134.143042 87.313059 
L 134.242509 87.289903 
L 134.272349 87.439334 
L 134.42155 87.209289 
L 134.45139 87.163174 
L 134.461337 87.34362 
L 134.491177 87.298684 
L 134.530964 87.548447 
L 134.610538 87.424031 
L 134.958673 87.030804 
L 134.96862 87.168314 
L 135.068087 87.048616 
L 135.078034 87.034238 
L 135.08798 87.20902 
L 135.107874 87.456543 
L 135.197394 87.323425 
L 135.217288 87.293338 
L 135.237181 87.413104 
L 135.257075 87.382987 
L 135.296861 87.660808 
L 135.376435 87.541756 
L 135.396329 87.510473 
L 135.406275 87.619744 
L 135.416222 87.605389 
L 135.426169 87.776942 
L 135.525636 87.631984 
L 135.545529 87.726103 
L 135.654943 87.563532 
L 135.66489 87.696067 
L 135.764357 87.552404 
L 136.172173 87.114872 
L 136.281587 87.364616 
L 136.291533 87.349728 
L 136.679455 86.811337 
L 136.709296 86.910226 
L 136.719242 87.013061 
L 136.808763 86.89078 
L 136.948017 86.71058 
L 136.96791 86.79832 
L 137.057431 87.105526 
L 137.097218 87.051066 
L 137.345886 86.72175 
L 137.375726 86.818903 
L 137.475193 87.084607 
L 137.495086 87.079241 
L 138.071996 86.449271 
L 138.081943 86.546142 
L 138.171463 86.437482 
L 138.360451 86.208801 
L 138.370398 86.326342 
L 138.449971 86.537464 
L 138.489758 86.486169 
L 138.937361 86.088895 
L 138.987094 86.345726 
L 139.056721 86.262863 
L 139.941979 85.360286 
L 140.051393 85.734233 
L 140.081233 85.701408 
L 140.518889 85.375935 
L 140.528836 85.513598 
L 140.628303 85.407118 
L 140.847131 85.266869 
L 140.867024 85.509156 
L 140.966491 85.400622 
L 141.33452 85.147016 
L 141.433987 85.442317 
L 141.463827 85.410601 
L 141.503614 85.511498 
L 141.712495 85.294386 
L 141.722442 85.425848 
L 141.821909 85.322547 
L 141.881589 85.261348 
L 141.94127 85.330462 
L 142.040737 85.655859 
L 142.080524 85.61455 
L 142.557966 85.258476 
L 142.617647 85.526076 
L 142.687274 85.454762 
L 143.095089 85.143661 
L 143.105036 85.241531 
L 143.204503 85.144472 
L 143.24429 85.104724 
L 143.254237 85.202084 
L 143.27413 85.183198 
L 143.393491 85.528432 
L 143.423331 85.497958 
L 143.512851 85.497725 
L 143.572532 85.633757 
L 143.632212 85.574973 
L 143.741626 85.573978 
L 143.751573 85.651816 
L 143.85104 85.554338 
L 144.040028 85.462294 
L 144.129548 85.740949 
L 144.169335 85.701644 
L 144.288696 85.588564 
L 144.328482 85.653515 
L 144.447843 86.00902 
L 144.477683 85.97924 
L 144.656724 85.807042 
L 144.696511 85.89565 
L 144.706458 85.970847 
L 144.805925 85.877262 
L 145.293314 85.523275 
L 145.412675 85.720378 
L 145.422621 85.711899 
L 145.591716 85.657056 
L 145.671289 86.054602 
L 145.73097 86.000171 
L 145.880171 85.960767 
L 145.890117 86.033027 
L 145.989584 85.944451 
L 146.327773 85.735426 
L 146.45708 85.933891 
L 146.835056 85.694855 
L 146.924576 85.773703 
L 146.954416 85.746477 
L 147.272711 85.563961 
L 147.332392 85.721104 
L 147.392072 85.670624 
L 147.411965 85.653725 
L 147.421912 85.761711 
L 147.461699 85.726573 
L 147.541273 85.867123 
L 147.58106 85.833488 
L 147.829727 85.749542 
L 147.909301 86.056205 
L 147.968982 86.006676 
L 148.197756 85.941241 
L 148.207703 86.023668 
L 148.30717 85.938433 
L 148.496158 85.854666 
L 148.506104 85.936378 
L 148.605572 85.85067 
L 149.252108 85.424069 
L 149.321735 85.639576 
L 149.381416 85.590642 
L 149.729551 85.432543 
L 149.739498 85.496867 
L 149.838965 85.417221 
L 150.296514 85.198994 
L 150.306461 85.262341 
L 150.405928 85.184189 
L 150.565075 85.133158 
L 150.644649 85.225139 
L 150.684436 85.195251 
L 150.704329 85.250382 
L 150.803797 85.172671 
L 150.88337 85.286511 
L 150.923157 85.254483 
L 151.370759 85.001459 
L 151.380706 85.076887 
L 151.480173 85.001956 
L 151.539854 84.957973 
L 151.559747 85.025778 
L 151.689055 85.230024 
L 151.937722 85.142567 
L 152.047136 85.312345 
L 152.06703 85.297897 
L 152.325645 85.176227 
L 152.415165 85.359303 
L 152.445005 85.337859 
L 152.464899 85.40381 
L 152.504685 85.373818 
L 152.514632 85.46708 
L 152.614099 85.393239 
L 152.932394 85.249998 
L 153.021915 85.344433 
L 153.051755 85.323276 
L 153.489411 85.089273 
L 153.509304 85.271082 
L 153.608771 85.199606 
L 153.668452 85.157253 
L 153.678398 85.247739 
L 153.688345 85.305485 
L 153.787812 85.234858 
L 153.877333 85.172769 
L 153.897226 85.223347 
L 153.966853 85.347855 
L 154.016587 85.312643 
L 154.03648 85.375281 
L 154.096161 85.33328 
L 154.106107 85.390381 
L 154.205574 85.322007 
L 154.454242 85.245759 
L 154.513923 85.439857 
L 154.593496 85.396802 
L 155.120673 85.111422 
L 155.130619 85.198616 
L 155.230087 85.130839 
L 155.259927 85.185078 
L 155.468808 85.039078 
L 155.518541 85.141452 
L 155.588168 85.093946 
L 155.876623 85.02518 
L 155.906463 85.153171 
L 155.995984 85.09331 
L 156.52316 84.880493 
L 156.940922 84.975451 
L 157.289057 84.841579 
L 157.348738 84.962866 
L 157.408418 84.923596 
L 157.647139 84.872044 
L 157.657086 84.92446 
L 157.756553 84.861961 
L 157.846074 84.874932 
L 157.85602 84.95659 
L 157.955488 84.892623 
L 158.074848 84.877042 
L 158.084795 84.958262 
L 158.184262 84.896889 
L 158.592078 84.730138 
L 158.711438 84.828835 
L 159.09936 84.702631 
L 159.119254 84.861311 
L 159.218721 84.801266 
L 160.25318 84.303118 
L 160.481954 84.300879 
L 161.64572 83.71648 
L 161.775028 83.899023 
L 161.904335 83.891571 
L 161.914282 83.950171 
L 162.013749 83.894548 
L 162.322097 83.725236 
L 162.351937 83.788886 
L 162.361884 83.84695 
L 162.461351 83.792015 
L 162.570765 83.811171 
L 162.580712 83.858346 
L 162.680179 83.805236 
L 163.565437 83.45852 
L 164.082667 83.309669 
L 164.092613 83.365769 
L 164.19208 83.31484 
L 164.391015 83.288015 
L 164.450695 83.394581 
L 164.510375 83.364194 
L 164.619789 83.308465 
L 164.629736 83.379214 
L 164.70931 83.489623 
L 164.749097 83.469522 
L 166.191371 82.773776 
L 166.201318 82.842443 
L 166.300785 82.793499 
L 166.5594 82.724878 
L 166.569346 82.793061 
L 166.668813 82.744617 
L 167.782846 82.335791 
L 167.842526 82.426508 
L 167.902207 82.39842 
L 168.946612 81.974944 
L 168.996346 82.124466 
L 169.075919 82.089044 
L 169.662776 81.894321 
L 169.672723 81.944917 
L 169.77219 81.901337 
L 170.199899 81.78191 
L 170.209845 81.845739 
L 170.309313 81.803959 
L 171.602386 81.376206 
L 171.612333 81.42515 
L 171.7118 81.383064 
L 172.169349 81.260676 
L 172.189243 81.370841 
L 172.28871 81.330981 
L 172.656738 81.247761 
L 172.666685 81.308946 
L 172.766152 81.268217 
L 173.372902 81.088052 
L 173.382849 81.14851 
L 173.482316 81.109539 
L 174.248213 80.922211 
L 174.377521 81.040192 
L 174.695816 81.024756 
L 174.765443 81.102157 
L 174.815176 81.082888 
L 174.854963 81.179841 
L 174.994217 81.124716 
L 175.004164 81.162514 
L 175.103631 81.124634 
L 175.372193 81.084354 
L 175.47166 81.187144 
L 175.5015 81.175492 
L 176.088356 81.050032 
L 177.272016 80.73819 
L 177.281963 80.782755 
L 177.38143 80.744739 
L 178.256741 80.526512 
L 178.266688 80.570413 
L 178.366155 80.53468 
L 178.604876 80.508139 
L 178.614823 80.563688 
L 178.71429 80.528954 
L 179.559761 80.337229 
L 179.669175 80.396022 
L 179.679122 80.392642 
L 180.494753 80.232286 
L 180.574327 80.280986 
L 180.614114 80.267002 
L 181.011982 80.18713 
L 181.021929 80.240692 
L 181.121396 80.206342 
L 181.718199 80.117676 
L 181.728146 80.170678 
L 181.827613 80.137684 
L 183.190314 79.798409 
L 183.309675 79.8956 
L 183.319621 79.892801 
L 184.224773 79.692158 
L 185.259231 79.485968 
L 185.269178 79.536375 
L 185.368645 79.505632 
L 186.602039 79.224379 
L 186.611985 79.273873 
L 186.711452 79.244548 
L 188.14378 78.92261 
L 188.263141 78.957614 
L 188.700796 78.935211 
L 188.710743 78.973077 
L 188.81021 78.944638 
L 189.914296 78.722668 
L 189.924243 78.770031 
L 190.02371 78.741412 
L 191.167583 78.483377 
L 191.276997 78.600524 
L 191.29689 78.595301 
L 191.99316 78.503872 
L 193.017672 78.355193 
L 193.087299 78.376201 
L 193.127086 78.365121 
L 195.02691 77.986823 
L 195.136324 77.990565 
L 196.648225 77.73274 
L 196.757639 77.742669 
L 197.384282 77.64762 
L 197.394229 77.6908 
L 197.493696 77.665815 
L 203.113592 76.470223 
L 203.730289 76.415846 
L 203.839703 76.434874 
L 205.510752 76.133412 
L 205.630112 76.142911 
L 206.893346 75.983106 
L 207.002759 76.002909 
L 208.643968 75.725127 
L 208.753382 75.743855 
L 211.816971 75.210833 
L 211.936332 75.228454 
L 214.204184 74.868377 
L 214.323545 74.885155 
L 215.358003 74.611473 
L 215.477364 74.54943 
L 215.556938 74.57877 
L 215.586778 74.548302 
L 216.372569 74.425827 
L 216.511823 74.321444 
L 216.929585 74.234012 
L 217.068839 74.167289 
L 217.82479 74.045654 
L 217.973991 73.946888 
L 218.650367 73.836749 
L 218.779675 73.811694 
L 219.296904 73.721447 
L 219.416265 73.678954 
L 219.714666 73.576727 
L 219.863867 73.458786 
L 220.231896 73.346703 
L 220.37115 73.295467 
L 220.739178 73.198293 
L 220.868486 73.130369 
L 221.415555 73.037142 
L 221.534916 73.006765 
L 221.743797 72.920642 
L 221.873104 72.857471 
L 222.012359 72.763611 
L 222.131719 72.733118 
L 222.499748 72.612831 
L 222.639002 72.56351 
L 223.106498 72.457441 
L 223.235805 72.396468 
L 223.46458 72.297404 
L 223.58394 72.259071 
L 223.882342 72.178855 
L 224.011649 72.15349 
L 224.489092 72.055022 
L 224.638292 71.962109 
L 225.344509 71.851606 
L 225.473817 71.826931 
L 225.921419 71.727397 
L 226.050726 71.651924 
L 226.339181 71.553472 
L 226.468489 71.492092 
L 227.025505 71.390536 
L 227.154812 71.302844 
L 227.443267 71.215178 
L 227.572575 71.140164 
L 228.338472 71.029082 
L 228.457833 71.007247 
L 229.154103 70.913891 
L 229.293357 70.822717 
L 229.691226 70.717406 
L 229.820533 70.640828 
L 230.387496 70.557911 
L 230.516803 70.494509 
L 230.685898 70.36761 
L 231.024086 70.286984 
L 231.143447 70.249601 
L 231.372221 70.150022 
L 231.501529 70.089144 
L 232.078438 69.969811 
L 232.207746 69.906976 
L 232.575774 69.807047 
L 232.715028 69.740271 
L 233.441139 69.634407 
L 233.580393 69.566906 
L 233.918581 69.466463 
L 234.057835 69.368049 
L 234.555171 69.268482 
L 234.684479 69.212545 
L 235.390696 68.976181 
L 236.146646 68.891467 
L 236.275954 68.83581 
L 236.813077 68.715592 
L 236.962277 68.592759 
L 237.837589 68.506309 
L 237.976843 68.435659 
L 238.484125 68.324729 
L 239.608105 68.207734 
L 239.727465 68.172747 
L 240.324268 68.066144 
L 240.443629 68.035891 
L 240.891231 67.931362 
L 241.020539 67.856233 
L 241.478088 67.763867 
L 241.607395 67.703157 
L 242.074891 67.604542 
L 242.194252 67.573784 
L 242.771161 67.462117 
L 242.920362 67.356309 
L 243.328178 67.255505 
L 243.586792 67.161045 
L 243.706153 67.121872 
L 243.825514 67.028515 
L 243.954821 66.952947 
L 244.790345 66.829199 
L 244.919653 66.761017 
L 245.10864 66.662196 
L 245.198161 66.587001 
L 245.228001 66.624727 
L 245.794964 66.536122 
L 245.944165 66.436661 
L 246.739902 66.358337 
L 246.86921 66.290981 
L 247.296918 66.17929 
L 247.446119 66.055147 
L 247.963349 65.954266 
L 248.082709 65.925075 
L 248.749139 65.855745 
L 248.878447 65.792907 
L 249.674184 65.700775 
L 249.803492 65.651404 
L 250.161574 65.569143 
L 250.300828 65.506997 
L 251.026938 65.388273 
L 251.176139 65.277628 
L 251.504381 65.184961 
L 251.623741 65.145606 
L 251.872409 65.056263 
L 252.02161 64.958511 
L 252.578626 64.868137 
L 252.697987 64.836978 
L 253.135643 64.760631 
L 253.26495 64.697241 
L 253.493724 64.604601 
L 253.623032 64.548208 
L 253.971167 64.445005 
L 254.090528 64.408995 
L 254.935999 64.308037 
L 255.065306 64.257951 
L 255.632269 64.143169 
L 255.761576 64.11227 
L 256.209179 64.012522 
L 256.338486 63.970193 
L 257.05465 63.857102 
L 257.183957 63.793642 
L 257.542039 63.700016 
L 257.6614 63.661628 
L 258.38751 63.583327 
L 258.526764 63.531792 
L 259.471703 63.420719 
L 261.172592 63.285368 
L 261.272059 63.234096 
L 261.301899 63.259022 
L 261.819128 63.156654 
L 261.938489 63.125778 
L 262.555186 63.028931 
L 263.709005 62.90065 
L 263.828366 62.861793 
L 264.096927 62.753832 
L 264.226234 62.678137 
L 266.026591 62.583284 
L 266.145951 62.545844 
L 267.458918 62.412824 
L 267.578279 62.3814 
L 268.742045 62.282711 
L 269.66709 62.178771 
L 269.78645 62.139238 
L 270.761229 62.068224 
L 271.63654 61.987733 
L 271.765847 61.918536 
L 272.531745 61.836284 
L 272.651105 61.798192 
L 273.715404 61.682119 
L 273.854658 61.580104 
L 274.222687 61.476823 
L 274.371888 61.383794 
L 274.879171 61.286788 
L 275.018425 61.23085 
L 276.381125 61.115294 
L 276.500486 61.077241 
L 277.723932 60.979563 
L 277.843293 60.948414 
L 278.987166 60.858157 
L 279.12642 60.790504 
L 279.255727 60.764028 
L 279.961944 60.679677 
L 280.101198 60.628558 
L 280.618427 60.550496 
L 280.747735 60.474896 
L 282.766919 60.318002 
L 282.886279 60.288073 
L 284.27882 60.167767 
L 284.398181 60.136341 
L 286.06923 60.019432 
L 286.138857 59.980972 
L 286.178643 60.010463 
L 287.760172 59.873221 
L 287.879532 59.835667 
L 288.61559 59.760827 
L 288.73495 59.728895 
L 289.97829 59.641579 
L 290.097651 59.6028 
L 290.774028 59.485557 
L 290.903335 59.41005 
L 295.309732 59.112619 
L 295.429092 59.081307 
L 296.364084 59.005759 
L 296.413817 58.967726 
L 296.473498 59.000487 
L 301.148456 58.889483 
L 305.853254 58.6746 
L 305.982561 58.648821 
L 311.284162 58.424643 
L 311.403523 58.385789 
L 314.884875 58.277727 
L 315.193223 58.241927 
L 316.963739 58.156422 
L 317.0831 58.117953 
L 327.825556 58.013799 
L 327.944917 57.973968 
L 334.639059 57.846995 
L 337.613128 57.862223 
L 337.732489 57.898723 
L 340.010287 57.845306 
L 344.804606 57.745768 
L 352.543153 57.729779 
L 359.565537 57.606713 
L 359.684898 57.568593 
L 385.606048 57.411842 
L 385.725408 57.382461 
L 398.467155 57.271676 
L 401.073196 57.258298 
L 432.266107 57.14725 
L 443.515846 56.996713 
L 445.982632 56.947772 
L 468.710886 56.782232 
L 472.281758 56.803466 
L 490.613561 56.692527 
L 495.775908 56.672849 
L 500.052997 56.661578 
L 506.77698 56.60211 
L 540.675398 56.491149 
L 545.37025 56.483453 
L 579.278615 56.372517 
L 583.525864 56.365658 
L 622.636364 56.312159 
L 622.636364 56.312159 
" clip-path="url(#pc25f8173f8)" style="fill: none; stroke: #ff7f0e; stroke-width: 1.5; stroke-linecap: square"/>
   </g>
   <g id="patch_3">
    <path d="M 90 320.4 
L 90 43.2 
" style="fill: none; stroke: #000000; stroke-width: 0.8; stroke-linejoin: miter; stroke-linecap: square"/>
   </g>
   <g id="patch_4">
    <path d="M 648 320.4 
L 648 43.2 
" style="fill: none; stroke: #000000; stroke-width: 0.8; stroke-linejoin: miter; stroke-linecap: square"/>
   </g>
   <g id="patch_5">
    <path d="M 90 320.4 
L 648 320.4 
" style="fill: none; stroke: #000000; stroke-width: 0.8; stroke-linejoin: miter; stroke-linecap: square"/>
   </g>
   <g id="patch_6">
    <path d="M 90 43.2 
L 648 43.2 
" style="fill: none; stroke: #000000; stroke-width: 0.8; stroke-linejoin: miter; stroke-linecap: square"/>
   </g>
   <g id="text_15">
    <!-- Evolution of rewards (PPO ) -->
    <g transform="translate(287.069062 37.2) scale(0.12 -0.12)">
     <defs>
      <path id="DejaVuSans-45" d="M 628 4666 
L 3578 4666 
L 3578 4134 
L 1259 4134 
L 1259 2753 
L 3481 2753 
L 3481 2222 
L 1259 2222 
L 1259 531 
L 3634 531 
L 3634 0 
L 628 0 
L 628 4666 
z
" transform="scale(0.015625)"/>
      <path id="DejaVuSans-6f" d="M 1959 3097 
Q 1497 3097 1228 2736 
Q 959 2375 959 1747 
Q 959 1119 1226 758 
Q 1494 397 1959 397 
Q 2419 397 2687 759 
Q 2956 1122 2956 1747 
Q 2956 2369 2687 2733 
Q 2419 3097 1959 3097 
z
M 1959 3584 
Q 2709 3584 3137 3096 
Q 3566 2609 3566 1747 
Q 3566 888 3137 398 
Q 2709 -91 1959 -91 
Q 1206 -91 779 398 
Q 353 888 353 1747 
Q 353 2609 779 3096 
Q 1206 3584 1959 3584 
z
" transform="scale(0.015625)"/>
      <path id="DejaVuSans-6c" d="M 603 4863 
L 1178 4863 
L 1178 0 
L 603 0 
L 603 4863 
z
" transform="scale(0.015625)"/>
      <path id="DejaVuSans-75" d="M 544 1381 
L 544 3500 
L 1119 3500 
L 1119 1403 
Q 1119 906 1312 657 
Q 1506 409 1894 409 
Q 2359 409 2629 706 
Q 2900 1003 2900 1516 
L 2900 3500 
L 3475 3500 
L 3475 0 
L 2900 0 
L 2900 538 
Q 2691 219 2414 64 
Q 2138 -91 1772 -91 
Q 1169 -91 856 284 
Q 544 659 544 1381 
z
M 1991 3584 
L 1991 3584 
z
" transform="scale(0.015625)"/>
      <path id="DejaVuSans-6e" d="M 3513 2113 
L 3513 0 
L 2938 0 
L 2938 2094 
Q 2938 2591 2744 2837 
Q 2550 3084 2163 3084 
Q 1697 3084 1428 2787 
Q 1159 2491 1159 1978 
L 1159 0 
L 581 0 
L 581 3500 
L 1159 3500 
L 1159 2956 
Q 1366 3272 1645 3428 
Q 1925 3584 2291 3584 
Q 2894 3584 3203 3211 
Q 3513 2838 3513 2113 
z
" transform="scale(0.015625)"/>
      <path id="DejaVuSans-66" d="M 2375 4863 
L 2375 4384 
L 1825 4384 
Q 1516 4384 1395 4259 
Q 1275 4134 1275 3809 
L 1275 3500 
L 2222 3500 
L 2222 3053 
L 1275 3053 
L 1275 0 
L 697 0 
L 697 3053 
L 147 3053 
L 147 3500 
L 697 3500 
L 697 3744 
Q 697 4328 969 4595 
Q 1241 4863 1831 4863 
L 2375 4863 
z
" transform="scale(0.015625)"/>
      <path id="DejaVuSans-28" d="M 1984 4856 
Q 1566 4138 1362 3434 
Q 1159 2731 1159 2009 
Q 1159 1288 1364 580 
Q 1569 -128 1984 -844 
L 1484 -844 
Q 1016 -109 783 600 
Q 550 1309 550 2009 
Q 550 2706 781 3412 
Q 1013 4119 1484 4856 
L 1984 4856 
z
" transform="scale(0.015625)"/>
      <path id="DejaVuSans-50" d="M 1259 4147 
L 1259 2394 
L 2053 2394 
Q 2494 2394 2734 2622 
Q 2975 2850 2975 3272 
Q 2975 3691 2734 3919 
Q 2494 4147 2053 4147 
L 1259 4147 
z
M 628 4666 
L 2053 4666 
Q 2838 4666 3239 4311 
Q 3641 3956 3641 3272 
Q 3641 2581 3239 2228 
Q 2838 1875 2053 1875 
L 1259 1875 
L 1259 0 
L 628 0 
L 628 4666 
z
" transform="scale(0.015625)"/>
      <path id="DejaVuSans-4f" d="M 2522 4238 
Q 1834 4238 1429 3725 
Q 1025 3213 1025 2328 
Q 1025 1447 1429 934 
Q 1834 422 2522 422 
Q 3209 422 3611 934 
Q 4013 1447 4013 2328 
Q 4013 3213 3611 3725 
Q 3209 4238 2522 4238 
z
M 2522 4750 
Q 3503 4750 4090 4092 
Q 4678 3434 4678 2328 
Q 4678 1225 4090 567 
Q 3503 -91 2522 -91 
Q 1538 -91 948 565 
Q 359 1222 359 2328 
Q 359 3434 948 4092 
Q 1538 4750 2522 4750 
z
" transform="scale(0.015625)"/>
      <path id="DejaVuSans-29" d="M 513 4856 
L 1013 4856 
Q 1481 4119 1714 3412 
Q 1947 2706 1947 2009 
Q 1947 1309 1714 600 
Q 1481 -109 1013 -844 
L 513 -844 
Q 928 -128 1133 580 
Q 1338 1288 1338 2009 
Q 1338 2731 1133 3434 
Q 928 4138 513 4856 
z
" transform="scale(0.015625)"/>
     </defs>
     <use xlink:href="#DejaVuSans-45"/>
     <use xlink:href="#DejaVuSans-76" x="63.183594"/>
     <use xlink:href="#DejaVuSans-6f" x="122.363281"/>
     <use xlink:href="#DejaVuSans-6c" x="183.544922"/>
     <use xlink:href="#DejaVuSans-75" x="211.328125"/>
     <use xlink:href="#DejaVuSans-74" x="274.707031"/>
     <use xlink:href="#DejaVuSans-69" x="313.916016"/>
     <use xlink:href="#DejaVuSans-6f" x="341.699219"/>
     <use xlink:href="#DejaVuSans-6e" x="402.880859"/>
     <use xlink:href="#DejaVuSans-20" x="466.259766"/>
     <use xlink:href="#DejaVuSans-6f" x="498.046875"/>
     <use xlink:href="#DejaVuSans-66" x="559.228516"/>
     <use xlink:href="#DejaVuSans-20" x="594.433594"/>
     <use xlink:href="#DejaVuSans-72" x="626.220703"/>
     <use xlink:href="#DejaVuSans-65" x="665.083984"/>
     <use xlink:href="#DejaVuSans-77" x="726.607422"/>
     <use xlink:href="#DejaVuSans-61" x="808.394531"/>
     <use xlink:href="#DejaVuSans-72" x="869.673828"/>
     <use xlink:href="#DejaVuSans-64" x="909.037109"/>
     <use xlink:href="#DejaVuSans-73" x="972.513672"/>
     <use xlink:href="#DejaVuSans-20" x="1024.613281"/>
     <use xlink:href="#DejaVuSans-28" x="1056.400391"/>
     <use xlink:href="#DejaVuSans-50" x="1095.414062"/>
     <use xlink:href="#DejaVuSans-50" x="1155.716797"/>
     <use xlink:href="#DejaVuSans-4f" x="1216.019531"/>
     <use xlink:href="#DejaVuSans-20" x="1294.730469"/>
     <use xlink:href="#DejaVuSans-29" x="1326.517578"/>
    </g>
   </g>
  </g>
 </g>
 <defs>
  <clipPath id="pc25f8173f8">
   <rect x="90" y="43.2" width="558" height="277.2"/>
  </clipPath>
 </defs>
</svg>
