<?xml version="1.0" encoding="utf-8" standalone="no"?>
<!DOCTYPE svg PUBLIC "-//W3C//DTD SVG 1.1//EN"
  "http://www.w3.org/Graphics/SVG/1.1/DTD/svg11.dtd">
<svg xmlns:xlink="http://www.w3.org/1999/xlink" width="720pt" height="360pt" viewBox="0 0 720 360" xmlns="http://www.w3.org/2000/svg" version="1.1">
 <metadata>
  <rdf:RDF xmlns:dc="http://purl.org/dc/elements/1.1/" xmlns:cc="http://creativecommons.org/ns#" xmlns:rdf="http://www.w3.org/1999/02/22-rdf-syntax-ns#">
   <cc:Work>
    <dc:type rdf:resource="http://purl.org/dc/dcmitype/StillImage"/>
    <dc:date>2024-03-15T20:58:04.563332</dc:date>
    <dc:format>image/svg+xml</dc:format>
    <dc:creator>
     <cc:Agent>
      <dc:title>Matplotlib v3.7.0, https://matplotlib.org/</dc:title>
     </cc:Agent>
    </dc:creator>
   </cc:Work>
  </rdf:RDF>
 </metadata>
 <defs>
  <style type="text/css">*{stroke-linejoin: round; stroke-linecap: butt}</style>
 </defs>
 <g id="figure_1">
  <g id="patch_1">
   <path d="M 0 360 
L 720 360 
L 720 0 
L 0 0 
z
" style="fill: #ffffff"/>
  </g>
  <g id="axes_1">
   <g id="patch_2">
    <path d="M 90 320.4 
L 648 320.4 
L 648 43.2 
L 90 43.2 
z
" style="fill: #ffffff"/>
   </g>
   <g id="matplotlib.axis_1">
    <g id="xtick_1">
     <g id="line2d_1">
      <defs>
       <path id="m7a740d2531" d="M 0 0 
L 0 3.5 
" style="stroke: #000000; stroke-width: 0.8"/>
      </defs>
      <g>
       <use xlink:href="#m7a740d2531" x="115.35369" y="320.4" style="stroke: #000000; stroke-width: 0.8"/>
      </g>
     </g>
     <g id="text_1">
      <!-- 0 -->
      <g transform="translate(112.17244 334.998438) scale(0.1 -0.1)">
       <defs>
        <path id="DejaVuSans-30" d="M 2034 4250 
Q 1547 4250 1301 3770 
Q 1056 3291 1056 2328 
Q 1056 1369 1301 889 
Q 1547 409 2034 409 
Q 2525 409 2770 889 
Q 3016 1369 3016 2328 
Q 3016 3291 2770 3770 
Q 2525 4250 2034 4250 
z
M 2034 4750 
Q 2819 4750 3233 4129 
Q 3647 3509 3647 2328 
Q 3647 1150 3233 529 
Q 2819 -91 2034 -91 
Q 1250 -91 836 529 
Q 422 1150 422 2328 
Q 422 3509 836 4129 
Q 1250 4750 2034 4750 
z
" transform="scale(0.015625)"/>
       </defs>
       <use xlink:href="#DejaVuSans-30"/>
      </g>
     </g>
    </g>
    <g id="xtick_2">
     <g id="line2d_2">
      <g>
       <use xlink:href="#m7a740d2531" x="214.820881" y="320.4" style="stroke: #000000; stroke-width: 0.8"/>
      </g>
     </g>
     <g id="text_2">
      <!-- 10000 -->
      <g transform="translate(198.914631 334.998438) scale(0.1 -0.1)">
       <defs>
        <path id="DejaVuSans-31" d="M 794 531 
L 1825 531 
L 1825 4091 
L 703 3866 
L 703 4441 
L 1819 4666 
L 2450 4666 
L 2450 531 
L 3481 531 
L 3481 0 
L 794 0 
L 794 531 
z
" transform="scale(0.015625)"/>
       </defs>
       <use xlink:href="#DejaVuSans-31"/>
       <use xlink:href="#DejaVuSans-30" x="63.623047"/>
       <use xlink:href="#DejaVuSans-30" x="127.246094"/>
       <use xlink:href="#DejaVuSans-30" x="190.869141"/>
       <use xlink:href="#DejaVuSans-30" x="254.492188"/>
      </g>
     </g>
    </g>
    <g id="xtick_3">
     <g id="line2d_3">
      <g>
       <use xlink:href="#m7a740d2531" x="314.288072" y="320.4" style="stroke: #000000; stroke-width: 0.8"/>
      </g>
     </g>
     <g id="text_3">
      <!-- 20000 -->
      <g transform="translate(298.381822 334.998438) scale(0.1 -0.1)">
       <defs>
        <path id="DejaVuSans-32" d="M 1228 531 
L 3431 531 
L 3431 0 
L 469 0 
L 469 531 
Q 828 903 1448 1529 
Q 2069 2156 2228 2338 
Q 2531 2678 2651 2914 
Q 2772 3150 2772 3378 
Q 2772 3750 2511 3984 
Q 2250 4219 1831 4219 
Q 1534 4219 1204 4116 
Q 875 4013 500 3803 
L 500 4441 
Q 881 4594 1212 4672 
Q 1544 4750 1819 4750 
Q 2544 4750 2975 4387 
Q 3406 4025 3406 3419 
Q 3406 3131 3298 2873 
Q 3191 2616 2906 2266 
Q 2828 2175 2409 1742 
Q 1991 1309 1228 531 
z
" transform="scale(0.015625)"/>
       </defs>
       <use xlink:href="#DejaVuSans-32"/>
       <use xlink:href="#DejaVuSans-30" x="63.623047"/>
       <use xlink:href="#DejaVuSans-30" x="127.246094"/>
       <use xlink:href="#DejaVuSans-30" x="190.869141"/>
       <use xlink:href="#DejaVuSans-30" x="254.492188"/>
      </g>
     </g>
    </g>
    <g id="xtick_4">
     <g id="line2d_4">
      <g>
       <use xlink:href="#m7a740d2531" x="413.755263" y="320.4" style="stroke: #000000; stroke-width: 0.8"/>
      </g>
     </g>
     <g id="text_4">
      <!-- 30000 -->
      <g transform="translate(397.849013 334.998438) scale(0.1 -0.1)">
       <defs>
        <path id="DejaVuSans-33" d="M 2597 2516 
Q 3050 2419 3304 2112 
Q 3559 1806 3559 1356 
Q 3559 666 3084 287 
Q 2609 -91 1734 -91 
Q 1441 -91 1130 -33 
Q 819 25 488 141 
L 488 750 
Q 750 597 1062 519 
Q 1375 441 1716 441 
Q 2309 441 2620 675 
Q 2931 909 2931 1356 
Q 2931 1769 2642 2001 
Q 2353 2234 1838 2234 
L 1294 2234 
L 1294 2753 
L 1863 2753 
Q 2328 2753 2575 2939 
Q 2822 3125 2822 3475 
Q 2822 3834 2567 4026 
Q 2313 4219 1838 4219 
Q 1578 4219 1281 4162 
Q 984 4106 628 3988 
L 628 4550 
Q 988 4650 1302 4700 
Q 1616 4750 1894 4750 
Q 2613 4750 3031 4423 
Q 3450 4097 3450 3541 
Q 3450 3153 3228 2886 
Q 3006 2619 2597 2516 
z
" transform="scale(0.015625)"/>
       </defs>
       <use xlink:href="#DejaVuSans-33"/>
       <use xlink:href="#DejaVuSans-30" x="63.623047"/>
       <use xlink:href="#DejaVuSans-30" x="127.246094"/>
       <use xlink:href="#DejaVuSans-30" x="190.869141"/>
       <use xlink:href="#DejaVuSans-30" x="254.492188"/>
      </g>
     </g>
    </g>
    <g id="xtick_5">
     <g id="line2d_5">
      <g>
       <use xlink:href="#m7a740d2531" x="513.222454" y="320.4" style="stroke: #000000; stroke-width: 0.8"/>
      </g>
     </g>
     <g id="text_5">
      <!-- 40000 -->
      <g transform="translate(497.316204 334.998438) scale(0.1 -0.1)">
       <defs>
        <path id="DejaVuSans-34" d="M 2419 4116 
L 825 1625 
L 2419 1625 
L 2419 4116 
z
M 2253 4666 
L 3047 4666 
L 3047 1625 
L 3713 1625 
L 3713 1100 
L 3047 1100 
L 3047 0 
L 2419 0 
L 2419 1100 
L 313 1100 
L 313 1709 
L 2253 4666 
z
" transform="scale(0.015625)"/>
       </defs>
       <use xlink:href="#DejaVuSans-34"/>
       <use xlink:href="#DejaVuSans-30" x="63.623047"/>
       <use xlink:href="#DejaVuSans-30" x="127.246094"/>
       <use xlink:href="#DejaVuSans-30" x="190.869141"/>
       <use xlink:href="#DejaVuSans-30" x="254.492188"/>
      </g>
     </g>
    </g>
    <g id="xtick_6">
     <g id="line2d_6">
      <g>
       <use xlink:href="#m7a740d2531" x="612.689645" y="320.4" style="stroke: #000000; stroke-width: 0.8"/>
      </g>
     </g>
     <g id="text_6">
      <!-- 50000 -->
      <g transform="translate(596.783395 334.998438) scale(0.1 -0.1)">
       <defs>
        <path id="DejaVuSans-35" d="M 691 4666 
L 3169 4666 
L 3169 4134 
L 1269 4134 
L 1269 2991 
Q 1406 3038 1543 3061 
Q 1681 3084 1819 3084 
Q 2600 3084 3056 2656 
Q 3513 2228 3513 1497 
Q 3513 744 3044 326 
Q 2575 -91 1722 -91 
Q 1428 -91 1123 -41 
Q 819 9 494 109 
L 494 744 
Q 775 591 1075 516 
Q 1375 441 1709 441 
Q 2250 441 2565 725 
Q 2881 1009 2881 1497 
Q 2881 1984 2565 2268 
Q 2250 2553 1709 2553 
Q 1456 2553 1204 2497 
Q 953 2441 691 2322 
L 691 4666 
z
" transform="scale(0.015625)"/>
       </defs>
       <use xlink:href="#DejaVuSans-35"/>
       <use xlink:href="#DejaVuSans-30" x="63.623047"/>
       <use xlink:href="#DejaVuSans-30" x="127.246094"/>
       <use xlink:href="#DejaVuSans-30" x="190.869141"/>
       <use xlink:href="#DejaVuSans-30" x="254.492188"/>
      </g>
     </g>
    </g>
    <g id="text_7">
     <!-- Time step -->
     <g transform="translate(344.361719 348.676562) scale(0.1 -0.1)">
      <defs>
       <path id="DejaVuSans-54" d="M -19 4666 
L 3928 4666 
L 3928 4134 
L 2272 4134 
L 2272 0 
L 1638 0 
L 1638 4134 
L -19 4134 
L -19 4666 
z
" transform="scale(0.015625)"/>
       <path id="DejaVuSans-69" d="M 603 3500 
L 1178 3500 
L 1178 0 
L 603 0 
L 603 3500 
z
M 603 4863 
L 1178 4863 
L 1178 4134 
L 603 4134 
L 603 4863 
z
" transform="scale(0.015625)"/>
       <path id="DejaVuSans-6d" d="M 3328 2828 
Q 3544 3216 3844 3400 
Q 4144 3584 4550 3584 
Q 5097 3584 5394 3201 
Q 5691 2819 5691 2113 
L 5691 0 
L 5113 0 
L 5113 2094 
Q 5113 2597 4934 2840 
Q 4756 3084 4391 3084 
Q 3944 3084 3684 2787 
Q 3425 2491 3425 1978 
L 3425 0 
L 2847 0 
L 2847 2094 
Q 2847 2600 2669 2842 
Q 2491 3084 2119 3084 
Q 1678 3084 1418 2786 
Q 1159 2488 1159 1978 
L 1159 0 
L 581 0 
L 581 3500 
L 1159 3500 
L 1159 2956 
Q 1356 3278 1631 3431 
Q 1906 3584 2284 3584 
Q 2666 3584 2933 3390 
Q 3200 3197 3328 2828 
z
" transform="scale(0.015625)"/>
       <path id="DejaVuSans-65" d="M 3597 1894 
L 3597 1613 
L 953 1613 
Q 991 1019 1311 708 
Q 1631 397 2203 397 
Q 2534 397 2845 478 
Q 3156 559 3463 722 
L 3463 178 
Q 3153 47 2828 -22 
Q 2503 -91 2169 -91 
Q 1331 -91 842 396 
Q 353 884 353 1716 
Q 353 2575 817 3079 
Q 1281 3584 2069 3584 
Q 2775 3584 3186 3129 
Q 3597 2675 3597 1894 
z
M 3022 2063 
Q 3016 2534 2758 2815 
Q 2500 3097 2075 3097 
Q 1594 3097 1305 2825 
Q 1016 2553 972 2059 
L 3022 2063 
z
" transform="scale(0.015625)"/>
       <path id="DejaVuSans-20" transform="scale(0.015625)"/>
       <path id="DejaVuSans-73" d="M 2834 3397 
L 2834 2853 
Q 2591 2978 2328 3040 
Q 2066 3103 1784 3103 
Q 1356 3103 1142 2972 
Q 928 2841 928 2578 
Q 928 2378 1081 2264 
Q 1234 2150 1697 2047 
L 1894 2003 
Q 2506 1872 2764 1633 
Q 3022 1394 3022 966 
Q 3022 478 2636 193 
Q 2250 -91 1575 -91 
Q 1294 -91 989 -36 
Q 684 19 347 128 
L 347 722 
Q 666 556 975 473 
Q 1284 391 1588 391 
Q 1994 391 2212 530 
Q 2431 669 2431 922 
Q 2431 1156 2273 1281 
Q 2116 1406 1581 1522 
L 1381 1569 
Q 847 1681 609 1914 
Q 372 2147 372 2553 
Q 372 3047 722 3315 
Q 1072 3584 1716 3584 
Q 2034 3584 2315 3537 
Q 2597 3491 2834 3397 
z
" transform="scale(0.015625)"/>
       <path id="DejaVuSans-74" d="M 1172 4494 
L 1172 3500 
L 2356 3500 
L 2356 3053 
L 1172 3053 
L 1172 1153 
Q 1172 725 1289 603 
Q 1406 481 1766 481 
L 2356 481 
L 2356 0 
L 1766 0 
Q 1100 0 847 248 
Q 594 497 594 1153 
L 594 3053 
L 172 3053 
L 172 3500 
L 594 3500 
L 594 4494 
L 1172 4494 
z
" transform="scale(0.015625)"/>
       <path id="DejaVuSans-70" d="M 1159 525 
L 1159 -1331 
L 581 -1331 
L 581 3500 
L 1159 3500 
L 1159 2969 
Q 1341 3281 1617 3432 
Q 1894 3584 2278 3584 
Q 2916 3584 3314 3078 
Q 3713 2572 3713 1747 
Q 3713 922 3314 415 
Q 2916 -91 2278 -91 
Q 1894 -91 1617 61 
Q 1341 213 1159 525 
z
M 3116 1747 
Q 3116 2381 2855 2742 
Q 2594 3103 2138 3103 
Q 1681 3103 1420 2742 
Q 1159 2381 1159 1747 
Q 1159 1113 1420 752 
Q 1681 391 2138 391 
Q 2594 391 2855 752 
Q 3116 1113 3116 1747 
z
" transform="scale(0.015625)"/>
      </defs>
      <use xlink:href="#DejaVuSans-54"/>
      <use xlink:href="#DejaVuSans-69" x="57.958984"/>
      <use xlink:href="#DejaVuSans-6d" x="85.742188"/>
      <use xlink:href="#DejaVuSans-65" x="183.154297"/>
      <use xlink:href="#DejaVuSans-20" x="244.677734"/>
      <use xlink:href="#DejaVuSans-73" x="276.464844"/>
      <use xlink:href="#DejaVuSans-74" x="328.564453"/>
      <use xlink:href="#DejaVuSans-65" x="367.773438"/>
      <use xlink:href="#DejaVuSans-70" x="429.296875"/>
     </g>
    </g>
   </g>
   <g id="matplotlib.axis_2">
    <g id="ytick_1">
     <g id="line2d_7">
      <defs>
       <path id="mb0ef79163f" d="M 0 0 
L -3.5 0 
" style="stroke: #000000; stroke-width: 0.8"/>
      </defs>
      <g>
       <use xlink:href="#mb0ef79163f" x="90" y="307.8" style="stroke: #000000; stroke-width: 0.8"/>
      </g>
     </g>
     <g id="text_8">
      <!-- −120 -->
      <g transform="translate(55.532812 311.599219) scale(0.1 -0.1)">
       <defs>
        <path id="DejaVuSans-2212" d="M 678 2272 
L 4684 2272 
L 4684 1741 
L 678 1741 
L 678 2272 
z
" transform="scale(0.015625)"/>
       </defs>
       <use xlink:href="#DejaVuSans-2212"/>
       <use xlink:href="#DejaVuSans-31" x="83.789062"/>
       <use xlink:href="#DejaVuSans-32" x="147.412109"/>
       <use xlink:href="#DejaVuSans-30" x="211.035156"/>
      </g>
     </g>
    </g>
    <g id="ytick_2">
     <g id="line2d_8">
      <g>
       <use xlink:href="#mb0ef79163f" x="90" y="265.8" style="stroke: #000000; stroke-width: 0.8"/>
      </g>
     </g>
     <g id="text_9">
      <!-- −100 -->
      <g transform="translate(55.532812 269.599219) scale(0.1 -0.1)">
       <use xlink:href="#DejaVuSans-2212"/>
       <use xlink:href="#DejaVuSans-31" x="83.789062"/>
       <use xlink:href="#DejaVuSans-30" x="147.412109"/>
       <use xlink:href="#DejaVuSans-30" x="211.035156"/>
      </g>
     </g>
    </g>
    <g id="ytick_3">
     <g id="line2d_9">
      <g>
       <use xlink:href="#mb0ef79163f" x="90" y="223.8" style="stroke: #000000; stroke-width: 0.8"/>
      </g>
     </g>
     <g id="text_10">
      <!-- −80 -->
      <g transform="translate(61.895313 227.599219) scale(0.1 -0.1)">
       <defs>
        <path id="DejaVuSans-38" d="M 2034 2216 
Q 1584 2216 1326 1975 
Q 1069 1734 1069 1313 
Q 1069 891 1326 650 
Q 1584 409 2034 409 
Q 2484 409 2743 651 
Q 3003 894 3003 1313 
Q 3003 1734 2745 1975 
Q 2488 2216 2034 2216 
z
M 1403 2484 
Q 997 2584 770 2862 
Q 544 3141 544 3541 
Q 544 4100 942 4425 
Q 1341 4750 2034 4750 
Q 2731 4750 3128 4425 
Q 3525 4100 3525 3541 
Q 3525 3141 3298 2862 
Q 3072 2584 2669 2484 
Q 3125 2378 3379 2068 
Q 3634 1759 3634 1313 
Q 3634 634 3220 271 
Q 2806 -91 2034 -91 
Q 1263 -91 848 271 
Q 434 634 434 1313 
Q 434 1759 690 2068 
Q 947 2378 1403 2484 
z
M 1172 3481 
Q 1172 3119 1398 2916 
Q 1625 2713 2034 2713 
Q 2441 2713 2670 2916 
Q 2900 3119 2900 3481 
Q 2900 3844 2670 4047 
Q 2441 4250 2034 4250 
Q 1625 4250 1398 4047 
Q 1172 3844 1172 3481 
z
" transform="scale(0.015625)"/>
       </defs>
       <use xlink:href="#DejaVuSans-2212"/>
       <use xlink:href="#DejaVuSans-38" x="83.789062"/>
       <use xlink:href="#DejaVuSans-30" x="147.412109"/>
      </g>
     </g>
    </g>
    <g id="ytick_4">
     <g id="line2d_10">
      <g>
       <use xlink:href="#mb0ef79163f" x="90" y="181.8" style="stroke: #000000; stroke-width: 0.8"/>
      </g>
     </g>
     <g id="text_11">
      <!-- −60 -->
      <g transform="translate(61.895313 185.599219) scale(0.1 -0.1)">
       <defs>
        <path id="DejaVuSans-36" d="M 2113 2584 
Q 1688 2584 1439 2293 
Q 1191 2003 1191 1497 
Q 1191 994 1439 701 
Q 1688 409 2113 409 
Q 2538 409 2786 701 
Q 3034 994 3034 1497 
Q 3034 2003 2786 2293 
Q 2538 2584 2113 2584 
z
M 3366 4563 
L 3366 3988 
Q 3128 4100 2886 4159 
Q 2644 4219 2406 4219 
Q 1781 4219 1451 3797 
Q 1122 3375 1075 2522 
Q 1259 2794 1537 2939 
Q 1816 3084 2150 3084 
Q 2853 3084 3261 2657 
Q 3669 2231 3669 1497 
Q 3669 778 3244 343 
Q 2819 -91 2113 -91 
Q 1303 -91 875 529 
Q 447 1150 447 2328 
Q 447 3434 972 4092 
Q 1497 4750 2381 4750 
Q 2619 4750 2861 4703 
Q 3103 4656 3366 4563 
z
" transform="scale(0.015625)"/>
       </defs>
       <use xlink:href="#DejaVuSans-2212"/>
       <use xlink:href="#DejaVuSans-36" x="83.789062"/>
       <use xlink:href="#DejaVuSans-30" x="147.412109"/>
      </g>
     </g>
    </g>
    <g id="ytick_5">
     <g id="line2d_11">
      <g>
       <use xlink:href="#mb0ef79163f" x="90" y="139.8" style="stroke: #000000; stroke-width: 0.8"/>
      </g>
     </g>
     <g id="text_12">
      <!-- −40 -->
      <g transform="translate(61.895313 143.599219) scale(0.1 -0.1)">
       <use xlink:href="#DejaVuSans-2212"/>
       <use xlink:href="#DejaVuSans-34" x="83.789062"/>
       <use xlink:href="#DejaVuSans-30" x="147.412109"/>
      </g>
     </g>
    </g>
    <g id="ytick_6">
     <g id="line2d_12">
      <g>
       <use xlink:href="#mb0ef79163f" x="90" y="97.8" style="stroke: #000000; stroke-width: 0.8"/>
      </g>
     </g>
     <g id="text_13">
      <!-- −20 -->
      <g transform="translate(61.895313 101.599219) scale(0.1 -0.1)">
       <use xlink:href="#DejaVuSans-2212"/>
       <use xlink:href="#DejaVuSans-32" x="83.789062"/>
       <use xlink:href="#DejaVuSans-30" x="147.412109"/>
      </g>
     </g>
    </g>
    <g id="ytick_7">
     <g id="line2d_13">
      <g>
       <use xlink:href="#mb0ef79163f" x="90" y="55.8" style="stroke: #000000; stroke-width: 0.8"/>
      </g>
     </g>
     <g id="text_14">
      <!-- 0 -->
      <g transform="translate(76.6375 59.599219) scale(0.1 -0.1)">
       <use xlink:href="#DejaVuSans-30"/>
      </g>
     </g>
    </g>
    <g id="text_15">
     <!-- Average reward -->
     <g transform="translate(49.453125 221.236719) rotate(-90) scale(0.1 -0.1)">
      <defs>
       <path id="DejaVuSans-41" d="M 2188 4044 
L 1331 1722 
L 3047 1722 
L 2188 4044 
z
M 1831 4666 
L 2547 4666 
L 4325 0 
L 3669 0 
L 3244 1197 
L 1141 1197 
L 716 0 
L 50 0 
L 1831 4666 
z
" transform="scale(0.015625)"/>
       <path id="DejaVuSans-76" d="M 191 3500 
L 800 3500 
L 1894 563 
L 2988 3500 
L 3597 3500 
L 2284 0 
L 1503 0 
L 191 3500 
z
" transform="scale(0.015625)"/>
       <path id="DejaVuSans-72" d="M 2631 2963 
Q 2534 3019 2420 3045 
Q 2306 3072 2169 3072 
Q 1681 3072 1420 2755 
Q 1159 2438 1159 1844 
L 1159 0 
L 581 0 
L 581 3500 
L 1159 3500 
L 1159 2956 
Q 1341 3275 1631 3429 
Q 1922 3584 2338 3584 
Q 2397 3584 2469 3576 
Q 2541 3569 2628 3553 
L 2631 2963 
z
" transform="scale(0.015625)"/>
       <path id="DejaVuSans-61" d="M 2194 1759 
Q 1497 1759 1228 1600 
Q 959 1441 959 1056 
Q 959 750 1161 570 
Q 1363 391 1709 391 
Q 2188 391 2477 730 
Q 2766 1069 2766 1631 
L 2766 1759 
L 2194 1759 
z
M 3341 1997 
L 3341 0 
L 2766 0 
L 2766 531 
Q 2569 213 2275 61 
Q 1981 -91 1556 -91 
Q 1019 -91 701 211 
Q 384 513 384 1019 
Q 384 1609 779 1909 
Q 1175 2209 1959 2209 
L 2766 2209 
L 2766 2266 
Q 2766 2663 2505 2880 
Q 2244 3097 1772 3097 
Q 1472 3097 1187 3025 
Q 903 2953 641 2809 
L 641 3341 
Q 956 3463 1253 3523 
Q 1550 3584 1831 3584 
Q 2591 3584 2966 3190 
Q 3341 2797 3341 1997 
z
" transform="scale(0.015625)"/>
       <path id="DejaVuSans-67" d="M 2906 1791 
Q 2906 2416 2648 2759 
Q 2391 3103 1925 3103 
Q 1463 3103 1205 2759 
Q 947 2416 947 1791 
Q 947 1169 1205 825 
Q 1463 481 1925 481 
Q 2391 481 2648 825 
Q 2906 1169 2906 1791 
z
M 3481 434 
Q 3481 -459 3084 -895 
Q 2688 -1331 1869 -1331 
Q 1566 -1331 1297 -1286 
Q 1028 -1241 775 -1147 
L 775 -588 
Q 1028 -725 1275 -790 
Q 1522 -856 1778 -856 
Q 2344 -856 2625 -561 
Q 2906 -266 2906 331 
L 2906 616 
Q 2728 306 2450 153 
Q 2172 0 1784 0 
Q 1141 0 747 490 
Q 353 981 353 1791 
Q 353 2603 747 3093 
Q 1141 3584 1784 3584 
Q 2172 3584 2450 3431 
Q 2728 3278 2906 2969 
L 2906 3500 
L 3481 3500 
L 3481 434 
z
" transform="scale(0.015625)"/>
       <path id="DejaVuSans-77" d="M 269 3500 
L 844 3500 
L 1563 769 
L 2278 3500 
L 2956 3500 
L 3675 769 
L 4391 3500 
L 4966 3500 
L 4050 0 
L 3372 0 
L 2619 2869 
L 1863 0 
L 1184 0 
L 269 3500 
z
" transform="scale(0.015625)"/>
       <path id="DejaVuSans-64" d="M 2906 2969 
L 2906 4863 
L 3481 4863 
L 3481 0 
L 2906 0 
L 2906 525 
Q 2725 213 2448 61 
Q 2172 -91 1784 -91 
Q 1150 -91 751 415 
Q 353 922 353 1747 
Q 353 2572 751 3078 
Q 1150 3584 1784 3584 
Q 2172 3584 2448 3432 
Q 2725 3281 2906 2969 
z
M 947 1747 
Q 947 1113 1208 752 
Q 1469 391 1925 391 
Q 2381 391 2643 752 
Q 2906 1113 2906 1747 
Q 2906 2381 2643 2742 
Q 2381 3103 1925 3103 
Q 1469 3103 1208 2742 
Q 947 2381 947 1747 
z
" transform="scale(0.015625)"/>
      </defs>
      <use xlink:href="#DejaVuSans-41"/>
      <use xlink:href="#DejaVuSans-76" x="62.533203"/>
      <use xlink:href="#DejaVuSans-65" x="121.712891"/>
      <use xlink:href="#DejaVuSans-72" x="183.236328"/>
      <use xlink:href="#DejaVuSans-61" x="224.349609"/>
      <use xlink:href="#DejaVuSans-67" x="285.628906"/>
      <use xlink:href="#DejaVuSans-65" x="349.105469"/>
      <use xlink:href="#DejaVuSans-20" x="410.628906"/>
      <use xlink:href="#DejaVuSans-72" x="442.416016"/>
      <use xlink:href="#DejaVuSans-65" x="481.279297"/>
      <use xlink:href="#DejaVuSans-77" x="542.802734"/>
      <use xlink:href="#DejaVuSans-61" x="624.589844"/>
      <use xlink:href="#DejaVuSans-72" x="685.869141"/>
      <use xlink:href="#DejaVuSans-64" x="725.232422"/>
     </g>
    </g>
   </g>
   <g id="line2d_14">
    <path d="M 115.363636 55.8 
L 622.636364 55.8 
L 622.636364 55.8 
" clip-path="url(#p7089074ad9)" style="fill: none; stroke-dasharray: 5.55,2.4; stroke-dashoffset: 0; stroke: #1f77b4; stroke-width: 1.5"/>
   </g>
   <g id="line2d_15">
    <path d="M 115.363636 307.8 
L 115.373583 307.8 
L 115.423317 211.49846 
L 115.50289 220.834121 
L 115.612304 254.424603 
L 115.632198 251.755731 
L 115.781399 225.859226 
L 115.791345 226.766971 
L 115.811239 220.246668 
L 115.860972 224.065818 
L 116.030067 205.217828 
L 116.040013 206.704526 
L 116.059907 207.682714 
L 116.069853 206.156566 
L 116.0798 207.548941 
L 116.219054 197.899082 
L 116.229001 198.116824 
L 116.248894 199.54601 
L 116.258841 198.028847 
L 116.308575 193.700042 
L 116.388148 195.197104 
L 116.398095 196.269512 
L 116.447829 190.632381 
L 116.477669 193.122377 
L 116.537349 193.190777 
L 116.616923 189.300434 
L 116.646763 191.339812 
L 116.68655 187.641452 
L 116.77607 188.498393 
L 116.815857 185.408497 
L 116.915325 190.583643 
L 117.024738 190.299913 
L 117.084419 186.287719 
L 117.144099 189.054418 
L 117.154046 189.904986 
L 117.203779 186.895089 
L 117.243566 188.121329 
L 117.38282 192.649682 
L 117.41266 191.837163 
L 117.432554 190.589767 
L 117.492234 192.558475 
L 117.532021 191.316494 
L 117.541968 191.655056 
L 117.591701 190.096405 
L 117.701115 184.654401 
L 117.770742 185.720403 
L 117.87021 186.612385 
L 117.810529 184.74023 
L 117.880156 186.116903 
L 118.009464 183.808194 
L 118.029357 184.080278 
L 118.059197 185.444834 
L 118.108931 183.267367 
L 118.118878 183.715326 
L 118.138771 182.896946 
L 118.168611 184.345414 
L 118.208398 184.329743 
L 118.248185 184.293221 
L 118.367546 186.422308 
L 118.377492 186.039374 
L 118.407332 187.434429 
L 118.447119 187.263467 
L 118.457066 187.515186 
L 118.496853 186.785904 
L 118.546586 187.165325 
L 118.56648 186.387114 
L 118.62616 188.191457 
L 118.646054 189.364434 
L 118.705734 187.233816 
L 118.715681 187.558977 
L 118.775361 187.768965 
L 118.864881 186.225701 
L 118.874828 185.975911 
L 118.914615 187.214626 
L 118.964349 186.313831 
L 119.033976 187.942553 
L 119.113549 186.337633 
L 119.053869 188.094163 
L 119.153336 187.456673 
L 119.17323 188.055159 
L 119.23291 186.97495 
L 119.26275 187.683538 
L 119.342324 186.760928 
L 119.282644 187.75727 
L 119.362217 187.517946 
L 119.411951 187.191987 
L 119.511418 189.025292 
L 119.571099 190.092725 
L 119.620832 188.720769 
L 119.730246 189.571859 
L 119.670566 188.488269 
L 119.740193 189.300745 
L 119.789926 188.05227 
L 119.8695 188.429274 
L 119.889394 188.321521 
L 120.018701 189.438714 
L 120.197742 187.556303 
L 120.217635 187.08948 
L 120.267369 187.73112 
L 120.297209 187.410981 
L 120.366836 186.772274 
L 120.41657 187.684492 
L 120.53593 186.741782 
L 120.545877 186.973694 
L 120.575717 187.371977 
L 120.625451 186.59373 
L 120.635397 186.358119 
L 120.665238 187.004117 
L 120.744811 186.377775 
L 120.933799 184.735712 
L 120.963639 185.342939 
L 121.043213 184.921844 
L 121.073053 184.404137 
L 121.122787 185.041937 
L 121.152627 184.815658 
L 121.212307 185.771707 
L 121.291881 185.664517 
L 121.351561 185.147929 
L 121.381401 185.755117 
L 121.391348 185.550387 
L 121.401295 185.751456 
L 121.460975 185.02045 
L 121.470922 185.121732 
L 121.560442 184.03391 
L 121.620123 184.323504 
L 121.65991 184.592823 
L 121.68975 184.074506 
L 121.848897 183.011945 
L 121.888684 183.396779 
L 121.948364 182.832192 
L 121.958311 183.073419 
L 121.968258 182.9034 
L 122.037885 183.527453 
L 122.057778 183.193977 
L 122.197032 184.537148 
L 122.216926 184.224866 
L 122.256713 183.586819 
L 122.35618 183.660778 
L 122.455647 183.63297 
L 122.505381 184.562385 
L 122.515327 184.391443 
L 122.575008 185.11648 
L 122.594901 185.352445 
L 122.634688 184.73834 
L 122.674475 184.957714 
L 122.704315 184.456468 
L 122.773942 185.023202 
L 122.783889 185.187562 
L 122.823676 184.800175 
L 122.873409 184.978068 
L 122.883356 184.862905 
L 122.93309 185.486886 
L 123.002717 185.82929 
L 123.032557 185.415827 
L 123.151917 185.076913 
L 123.08229 185.514888 
L 123.161864 185.140533 
L 123.191704 185.54559 
L 123.281225 185.5111 
L 123.400585 184.77292 
L 123.430426 184.905244 
L 123.460266 185.029085 
L 123.480159 184.726649 
L 123.619413 184.178453 
L 123.71888 184.579352 
L 123.728827 184.433159 
L 123.788507 184.702447 
L 123.838241 184.266493 
L 123.868081 184.193307 
L 123.987442 185.047009 
L 124.067016 184.251965 
L 124.106802 184.801985 
L 124.116749 184.941597 
L 124.176429 184.312309 
L 124.226163 184.562418 
L 124.32563 183.769407 
L 124.335577 183.818225 
L 124.365417 183.487039 
L 124.534511 182.152889 
L 124.385311 183.492565 
L 124.554405 182.331729 
L 124.604138 182.565111 
L 124.633979 182.208615 
L 124.653872 182.418437 
L 124.683712 182.206603 
L 124.703606 182.511277 
L 124.753339 182.43416 
L 124.852806 182.928498 
L 124.882647 182.799373 
L 124.972167 182.768687 
L 125.011954 183.114359 
L 125.041794 183.281656 
L 125.200942 182.099557 
L 125.270569 181.773596 
L 125.310355 182.004471 
L 125.320302 182.130015 
L 125.379982 181.653608 
L 125.499343 181.056794 
L 125.529183 181.118579 
L 125.53913 181.303815 
L 125.59881 180.825509 
L 125.638597 181.181714 
L 125.648544 181.101152 
L 125.698278 181.435756 
L 125.738064 181.882863 
L 125.797745 181.480735 
L 125.917105 180.834013 
L 125.946945 180.890502 
L 126.026519 181.178122 
L 126.056359 181.069505 
L 126.076253 180.861848 
L 126.135933 181.217193 
L 126.26524 181.534809 
L 126.275187 181.425474 
L 126.334868 181.819756 
L 126.394548 182.526019 
L 126.503962 182.504104 
L 126.543749 182.306372 
L 126.593482 182.674832 
L 126.603429 182.599788 
L 126.702896 182.803492 
L 126.653163 182.492011 
L 126.712843 182.71067 
L 126.742683 182.419798 
L 126.81231 182.696957 
L 126.881937 182.986381 
L 126.84215 182.576132 
L 126.921724 182.777754 
L 126.961511 182.397128 
L 127.031138 182.636021 
L 127.080871 182.821267 
L 127.110712 182.511024 
L 127.120658 182.616932 
L 127.160445 182.479297 
L 127.190285 182.691973 
L 127.220126 182.583784 
L 127.399166 183.848061 
L 127.41906 183.706184 
L 127.429007 183.607328 
L 127.47874 184.120769 
L 127.677675 185.186941 
L 127.797035 184.479834 
L 127.816929 184.704773 
L 127.866662 184.975852 
L 127.916396 184.685119 
L 127.99597 184.336853 
L 127.956183 184.694299 
L 128.045703 184.56112 
L 128.11533 185.031713 
L 128.175011 184.869187 
L 128.334158 184.384832 
L 128.513199 185.42467 
L 128.533092 185.398274 
L 128.652453 185.059729 
L 128.6624 185.151463 
L 128.78176 185.757629 
L 128.811601 185.637005 
L 128.861334 185.3326 
L 128.930961 185.480337 
L 128.950855 185.644135 
L 128.980695 185.404984 
L 129.020482 185.413909 
L 129.229363 184.469873 
L 129.318883 184.806325 
L 129.35867 184.641795 
L 129.378564 184.477966 
L 129.428297 184.779482 
L 129.448191 184.780848 
L 129.468084 184.915049 
L 129.547658 184.709867 
L 129.617285 184.336657 
L 129.676965 184.569287 
L 129.816219 184.219441 
L 129.826166 184.304377 
L 129.846059 184.473897 
L 129.90574 184.115624 
L 129.915686 184.171419 
L 129.955473 184.007091 
L 129.99526 184.278026 
L 130.144461 184.704267 
L 130.174301 184.595853 
L 130.224035 184.766694 
L 130.243928 184.62245 
L 130.333449 184.966507 
L 130.373235 184.82499 
L 130.452809 184.644339 
L 130.422969 184.863929 
L 130.472703 184.775866 
L 130.552276 184.752384 
L 130.60201 184.993102 
L 130.63185 184.912235 
L 130.671637 185.165233 
L 130.681584 185.082309 
L 130.771104 185.32639 
L 130.790998 185.172293 
L 130.800944 185.116033 
L 130.840731 185.471676 
L 130.850678 185.392094 
L 130.880518 185.41978 
L 130.900412 185.261193 
L 130.960092 185.121359 
L 130.999879 185.206365 
L 131.049612 185.382447 
L 131.119239 185.350685 
L 131.278387 184.920229 
L 131.377854 185.112822 
L 131.348014 184.83565 
L 131.397748 184.966482 
L 131.626522 183.909324 
L 131.656362 183.933479 
L 131.765776 184.388758 
L 131.81551 184.307304 
L 131.84535 184.382191 
L 131.964711 183.987223 
L 132.113911 184.35972 
L 131.984604 183.962886 
L 132.123858 184.295925 
L 132.143751 184.181001 
L 132.223325 184.366327 
L 132.362579 184.681956 
L 132.372526 184.609953 
L 132.442153 184.863467 
L 132.4521 184.796653 
L 132.521727 184.728429 
L 132.581407 184.984387 
L 132.690821 184.800928 
L 132.621194 185.122211 
L 132.700768 184.871455 
L 132.790288 185.502577 
L 132.869862 185.396432 
L 132.919596 185.331378 
L 132.949436 185.594585 
L 132.969329 185.685161 
L 132.999169 185.512864 
L 133.048903 185.620472 
L 133.20805 185.275725 
L 133.068796 185.639764 
L 133.217997 185.336357 
L 133.227944 185.439564 
L 133.317464 185.253159 
L 133.327411 185.186608 
L 133.347304 185.322168 
L 133.416932 185.299547 
L 133.456718 185.387286 
L 133.496505 185.153484 
L 133.675546 184.528802 
L 133.526345 185.239325 
L 133.685493 184.572899 
L 133.794907 184.758433 
L 133.715333 184.507254 
L 133.804854 184.691977 
L 133.864534 184.463077 
L 133.914267 184.687317 
L 134.063468 184.950703 
L 134.202722 184.669993 
L 134.113202 184.995793 
L 134.212669 184.712783 
L 134.341976 185.235349 
L 134.39171 185.045217 
L 134.530964 184.694949 
L 134.540911 184.758767 
L 134.550858 184.822519 
L 134.600591 184.525637 
L 134.630431 184.621874 
L 134.729898 184.357476 
L 134.759739 184.516116 
L 134.859206 184.883292 
L 134.898993 184.851239 
L 134.96862 184.604319 
L 135.008407 184.778333 
L 135.078034 185.192416 
L 135.147661 185.043703 
L 135.197394 185.232605 
L 135.237181 184.98609 
L 135.247128 185.047497 
L 135.257075 185.003895 
L 135.306808 185.204728 
L 135.475902 185.642269 
L 135.57537 185.493971 
L 135.595263 185.50066 
L 135.744464 185.887613 
L 135.764357 185.862032 
L 135.973238 185.248626 
L 135.983185 185.307716 
L 136.042865 185.072043 
L 136.052812 185.131019 
L 136.062759 185.07163 
L 136.122439 185.298145 
L 136.192066 185.115978 
L 136.2418 185.36834 
L 136.30148 185.209426 
L 136.27164 185.385924 
L 136.36116 185.326657 
L 136.440734 185.37633 
L 136.420841 185.244104 
L 136.470574 185.325313 
L 136.500414 185.167643 
L 136.550148 185.479062 
L 136.560095 185.420903 
L 136.609828 185.470157 
L 136.639669 185.301584 
L 136.709296 185.156585 
L 136.739136 185.34409 
L 136.768976 185.514721 
L 136.818709 185.245493 
L 136.928123 185.01121 
L 136.84855 185.337887 
L 136.948017 185.067228 
L 137.067377 185.58403 
L 137.097218 185.414731 
L 137.156898 185.526051 
L 137.186738 185.370473 
L 137.196685 185.426224 
L 137.216578 185.319789 
L 137.286205 185.511662 
L 137.306099 185.416724 
L 137.425459 185.850425 
L 137.475193 185.803052 
L 137.614447 185.393399 
L 137.63434 185.483941 
L 137.684074 185.637409 
L 137.753701 185.58741 
L 137.793488 185.387735 
L 137.883008 185.493275 
L 137.932742 185.649901 
L 138.002369 185.596047 
L 138.042156 185.486584 
L 138.081943 185.683641 
L 138.171463 185.837101 
L 138.101836 185.673831 
L 138.191357 185.729742 
L 138.330611 185.499146 
L 138.459918 185.701897 
L 138.469865 185.664074 
L 138.499705 185.615334 
L 138.529545 185.752544 
L 138.638959 186.233898 
L 138.668799 186.106165 
L 138.678746 186.053964 
L 138.708586 186.209517 
L 138.75832 186.157939 
L 138.768266 186.191715 
L 138.808053 185.986663 
L 138.827947 186.071401 
L 138.837893 186.022455 
L 138.867734 186.176995 
L 138.90752 186.16925 
L 139.026881 186.536126 
L 139.066668 186.442476 
L 139.215869 186.101435 
L 139.225815 186.152142 
L 139.235762 186.202808 
L 139.275549 185.998669 
L 139.325283 186.082396 
L 139.355123 186.120586 
L 139.39491 185.948355 
L 139.524217 185.746814 
L 139.554057 185.767658 
L 139.593844 185.994756 
L 139.653524 185.704729 
L 139.713205 185.414023 
L 139.782832 185.58116 
L 139.802725 185.653044 
L 139.862406 185.493457 
L 139.872352 185.543074 
L 139.951926 185.259753 
L 140.00166 185.399134 
L 140.051393 185.513217 
L 140.021553 185.365289 
L 140.081233 185.364433 
L 140.130967 185.385537 
L 140.319955 184.687579 
L 140.429368 184.863163 
L 140.349795 184.659312 
L 140.439315 184.814242 
L 140.618356 184.449763 
L 140.66809 184.653757 
L 140.737717 184.497519 
L 140.886918 184.186446 
L 140.896864 184.234582 
L 141.026172 184.503349 
L 141.046065 184.48314 
L 141.085852 184.365941 
L 141.125639 184.556499 
L 141.155479 184.604076 
L 141.205213 184.483646 
L 141.215159 184.531075 
L 141.33452 184.294613 
L 141.354413 184.36891 
L 141.503614 184.662585 
L 141.523508 184.646605 
L 141.652815 184.858747 
L 141.672708 184.771282 
L 141.762229 184.452164 
L 141.821909 184.603413 
L 141.831856 184.633915 
L 141.891536 184.459808 
L 141.91143 184.541414 
L 141.951217 184.374913 
L 142.050684 184.407658 
L 142.100417 184.518165 
L 142.140204 184.342747 
L 142.170044 184.477606 
L 142.279458 184.358598 
L 142.289405 184.404182 
L 142.488339 184.709752 
L 142.57786 184.490982 
L 142.6077 184.595335 
L 142.657434 184.650072 
L 142.69722 184.488408 
L 142.717114 184.578056 
L 142.737007 184.494194 
L 142.766847 184.626722 
L 142.816581 184.578618 
L 142.945888 184.880449 
L 142.975729 184.760714 
L 143.015515 184.670697 
L 143.085142 184.696571 
L 143.224397 184.873725 
L 143.473065 184.266682 
L 143.562585 184.456304 
L 143.592425 184.339929 
L 143.751573 184.023409 
L 143.761519 184.079075 
L 143.781413 184.187697 
L 143.841093 184.003529 
L 143.870933 184.099277 
L 143.960454 184.135716 
L 143.890827 184.08016 
L 143.9704 184.093384 
L 144.040028 183.985273 
L 143.990294 184.099085 
L 144.079814 184.050334 
L 144.099708 184.135974 
L 144.159388 183.982781 
L 144.169335 184.02552 
L 144.288696 183.839413 
L 144.298642 183.882011 
L 144.308589 183.92458 
L 144.358323 183.720674 
L 144.45779 183.561835 
L 144.48763 183.661831 
L 144.567204 183.572257 
L 144.527417 183.734627 
L 144.606991 183.628903 
L 144.716404 183.760982 
L 144.636831 183.593304 
L 144.726351 183.724292 
L 144.865605 183.611385 
L 144.905392 183.719754 
L 144.965072 183.540398 
L 144.975019 183.603279 
L 145.084433 183.357506 
L 145.134167 183.433958 
L 145.15406 183.516979 
L 145.21374 183.375534 
L 145.243581 183.417783 
L 145.442515 182.996308 
L 145.452462 183.037551 
L 145.512142 182.814977 
L 145.522089 182.856185 
L 145.561876 182.880216 
L 145.671289 182.71645 
L 145.740916 182.690576 
L 145.840384 182.94295 
L 145.900064 182.874391 
L 145.949798 182.962285 
L 145.959744 182.934608 
L 145.989584 183.14716 
L 146.228306 183.47001 
L 146.009478 183.121572 
L 146.258146 183.362085 
L 146.387453 183.195657 
L 146.287986 183.40292 
L 146.3974 183.235581 
L 146.556547 183.420115 
L 146.626174 183.231795 
L 146.715695 183.263626 
L 146.835056 183.537362 
L 146.864896 183.43488 
L 146.894736 183.329166 
L 146.964363 183.47361 
L 147.03399 183.526249 
L 147.06383 183.480078 
L 147.203084 183.273691 
L 147.213031 183.299127 
L 147.262765 183.388419 
L 147.232924 183.286442 
L 147.322445 183.299088 
L 147.421912 183.054849 
L 147.461699 183.172155 
L 147.571113 183.237935 
L 147.541273 183.111577 
L 147.58106 183.200357 
L 147.600953 183.129706 
L 147.660633 183.252556 
L 147.680527 183.177622 
L 147.750154 183.399988 
L 147.809834 183.319929 
L 147.959035 183.005815 
L 147.988875 183.077271 
L 148.018715 183.172326 
L 148.068449 182.995307 
L 148.108236 183.05241 
L 148.177863 182.961363 
L 148.33701 183.293269 
L 148.555838 182.800346 
L 148.565785 182.821664 
L 148.635412 182.835191 
L 148.595625 182.774912 
L 148.655305 182.771849 
L 148.695092 182.71275 
L 148.734879 182.868099 
L 148.91392 183.062664 
L 148.923867 183.029167 
L 149.182481 182.555516 
L 148.94376 183.040877 
L 149.192428 182.60268 
L 149.222268 182.706899 
L 149.262055 182.576793 
L 149.291895 182.614705 
L 149.351576 182.479402 
L 149.401309 182.609452 
L 149.431149 182.64718 
L 149.480883 182.492498 
L 149.719604 181.987076 
L 149.769338 182.200394 
L 149.838965 182.107144 
L 149.908592 182.160292 
L 149.978219 181.988492 
L 150.117473 182.227169 
L 150.15726 182.158361 
L 150.27662 181.887194 
L 150.316407 181.970737 
L 150.336301 182.030398 
L 150.386034 181.87518 
L 150.405928 181.920812 
L 150.485501 182.002158 
L 150.515342 181.91319 
L 150.565075 181.896171 
L 150.664542 182.070652 
L 150.674489 182.04692 
L 150.724223 182.154471 
L 150.754063 182.121963 
L 150.783903 182.212414 
L 150.843583 182.061854 
L 150.992784 181.907857 
L 151.002731 181.931264 
L 151.052464 181.77006 
L 151.161878 181.821456 
L 151.082305 181.716933 
L 151.171825 181.788038 
L 151.221559 181.807559 
L 151.281239 181.74896 
L 151.43044 181.978214 
L 151.440387 181.949224 
L 151.539854 181.881575 
L 151.480173 182.001097 
L 151.559747 181.893069 
L 151.689055 182.058844 
L 151.868095 181.703425 
L 151.878042 181.754921 
L 151.987456 181.988232 
L 152.017296 181.893827 
L 152.057083 181.928979 
L 152.136657 181.824176 
L 152.166497 181.859738 
L 152.216231 181.705321 
L 152.265964 181.699789 
L 152.295804 181.780349 
L 152.315698 181.72578 
L 152.415165 181.773645 
L 152.425112 181.741748 
L 152.534526 181.656466 
L 152.454952 181.793989 
L 152.554419 181.677188 
L 152.633993 181.709255 
L 152.614099 181.632536 
L 152.653886 181.644936 
L 152.803087 181.37425 
L 152.82298 181.441372 
L 152.912501 181.457395 
L 152.862767 181.382422 
L 152.932394 181.444276 
L 153.002021 181.273101 
L 153.061702 181.362362 
L 153.200956 181.699524 
L 153.260636 181.585218 
L 153.28053 181.522222 
L 153.360103 181.631814 
L 153.439677 181.706244 
L 153.389943 181.610425 
L 153.479464 181.681394 
L 153.638611 181.4162 
L 153.658505 181.427305 
L 153.718185 181.386458 
L 153.777866 181.471586 
L 153.867386 181.454619 
L 153.807706 181.506576 
L 153.877333 181.496331 
L 153.956906 181.636052 
L 154.016587 181.571723 
L 154.185681 181.346407 
L 154.215521 181.381438 
L 154.344829 181.489051 
L 154.374669 181.444599 
L 154.414456 181.365694 
L 154.474136 181.472023 
L 154.513923 181.42046 
L 154.603443 181.564043 
L 154.61339 181.53258 
L 154.683017 181.673299 
L 154.692964 181.64291 
L 154.712857 181.706672 
L 154.772537 181.537703 
L 154.782484 181.56831 
L 154.802378 181.511615 
L 154.852111 181.667042 
L 154.862058 181.636785 
L 154.951578 181.736638 
L 154.981419 181.696013 
L 155.041099 181.633866 
L 155.080886 181.698476 
L 155.289767 182.022804 
L 155.379287 181.945898 
L 155.319607 182.06445 
L 155.419074 181.999793 
L 155.558328 182.105747 
L 155.618009 182.058604 
L 155.588168 182.13667 
L 155.657795 182.118463 
L 155.82689 182.433126 
L 155.85673 182.344561 
L 155.936304 182.290663 
L 155.88657 182.367072 
L 155.966144 182.322554 
L 155.995984 182.42062 
L 156.045717 182.282925 
L 156.085504 182.345379 
L 156.224758 182.244847 
L 156.354066 182.418881 
L 156.364012 182.389549 
L 156.423693 182.328565 
L 156.473426 182.407942 
L 156.602734 182.519648 
L 156.52316 182.380885 
L 156.61268 182.492525 
L 156.622627 182.463359 
L 156.682307 182.622291 
L 156.712148 182.542256 
L 156.871295 182.732106 
L 156.881242 182.703065 
L 157.050336 182.527439 
L 157.12991 182.562686 
L 157.080176 182.503458 
L 157.149803 182.5137 
L 157.299004 182.319165 
L 157.308951 182.348914 
L 157.328844 182.407523 
L 157.408418 182.304669 
L 157.418365 182.334344 
L 157.468098 182.307983 
L 157.448205 182.361464 
L 157.517832 182.339789 
L 157.567565 182.375068 
L 157.607352 182.273909 
L 157.776447 182.091458 
L 157.816233 182.160053 
L 157.865967 182.035208 
L 158.025115 181.912734 
L 158.174315 181.780712 
L 158.184262 181.809978 
L 158.224049 181.854212 
L 158.263836 181.750216 
L 158.273783 181.770718 
L 158.413037 181.626164 
L 158.43293 181.661517 
L 158.472717 181.775618 
L 158.552291 181.677767 
L 158.562237 181.650098 
L 158.611971 181.750029 
L 158.631864 181.741046 
L 158.731332 181.773194 
L 158.701491 181.708154 
L 158.741278 181.749128 
L 158.870586 181.608458 
L 158.880532 181.651692 
L 158.999893 181.829379 
L 159.049627 181.803611 
L 159.328135 181.353794 
L 159.407709 181.315928 
L 159.457442 181.392628 
L 159.586749 181.205927 
L 159.626536 181.251532 
L 159.726004 181.297678 
L 159.73595 181.270826 
L 159.865258 181.235809 
L 159.905044 181.187771 
L 159.994565 181.284797 
L 160.044299 181.214875 
L 160.103979 181.275539 
L 160.153712 181.306621 
L 160.193499 181.200791 
L 160.203446 181.228868 
L 160.28302 181.334475 
L 160.322807 181.241342 
L 160.442167 181.164337 
L 160.382487 181.310523 
L 160.452114 181.183003 
L 160.462061 181.201662 
L 160.511794 181.081813 
L 160.551581 181.124039 
L 160.641102 181.02862 
L 160.720675 180.962609 
L 160.740569 181.007031 
L 160.800249 181.042521 
L 160.909663 180.872188 
L 160.97929 180.797394 
L 161.029024 180.912378 
L 161.058864 180.841072 
L 161.148384 180.87957 
L 161.218011 180.943041 
L 161.277692 180.877929 
L 161.357265 180.772156 
L 161.416946 180.82186 
L 161.516413 180.85897 
L 161.456733 180.799952 
L 161.536306 180.809963 
L 161.61588 180.675702 
L 161.655667 180.774486 
L 161.685507 180.846578 
L 161.755134 180.765896 
L 161.834708 180.7182 
L 161.844655 180.758868 
L 161.854601 180.821978 
L 161.944122 180.694623 
L 162.013749 180.754645 
L 162.063483 180.680106 
L 162.232577 180.51847 
L 162.351937 180.607546 
L 162.361884 180.581472 
L 162.501138 180.500654 
L 162.511085 180.527505 
L 162.570765 180.416588 
L 162.610552 180.404328 
L 162.660286 180.483846 
L 162.710019 180.444598 
L 162.7697 180.505958 
L 163.028314 180.111001 
L 163.058154 180.139515 
L 163.097941 180.073884 
L 163.127781 180.092451 
L 163.346609 179.828881 
L 163.43613 179.878743 
L 163.40629 179.809405 
L 163.46597 179.859407 
L 163.52565 179.872831 
L 163.55549 179.80038 
L 163.575384 179.835858 
L 163.734531 179.675236 
L 163.744478 179.692939 
L 163.754425 179.710634 
L 163.804158 179.599605 
L 163.983199 179.33198 
L 164.013039 179.37329 
L 164.1324 179.420571 
L 164.241814 179.359024 
L 164.251761 179.385151 
L 164.331334 179.442924 
L 164.371121 179.403377 
L 164.470589 179.31878 
L 164.500429 179.346937 
L 164.649629 179.42877 
L 164.788884 179.365749 
L 164.868457 179.369025 
L 164.888351 179.324757 
L 165.087285 179.093709 
L 165.097232 179.111046 
L 165.127072 179.161671 
L 165.176806 179.051601 
L 165.306113 178.944691 
L 165.326006 178.977926 
L 165.415527 179.003844 
L 165.445367 178.941048 
L 165.654248 178.722101 
L 165.664195 178.747621 
L 165.733822 178.640862 
L 165.873076 178.577569 
L 166.022277 178.687137 
L 166.221211 178.496901 
L 166.310732 178.583856 
L 166.340572 178.520787 
L 166.410199 178.451479 
L 166.449986 178.548163 
L 166.529559 178.534154 
L 166.499719 178.484027 
L 166.539506 178.511408 
L 166.629027 178.405757 
L 166.668813 178.4837 
L 166.67876 178.494469 
L 166.738441 178.405577 
L 167.026895 177.959853 
L 167.156203 178.021062 
L 167.365084 177.79542 
L 167.464551 177.822962 
L 167.404871 177.778416 
L 167.474498 177.807691 
L 167.693326 177.572356 
L 167.792793 177.685297 
L 167.822633 177.620828 
L 168.001674 177.513675 
L 168.011621 177.538286 
L 168.071301 177.418676 
L 168.250342 177.313984 
L 168.260289 177.33275 
L 168.300075 177.386877 
L 168.359756 177.304825 
L 168.399543 177.341242 
L 168.508957 177.23681 
L 168.55869 177.203923 
L 168.648211 177.273449 
L 168.747678 177.258696 
L 168.678051 177.319071 
L 168.757624 177.283009 
L 168.767571 177.307314 
L 168.817305 177.209618 
L 168.837198 177.212383 
L 168.896879 177.245647 
L 168.936665 177.209489 
L 168.976452 177.264589 
L 169.026186 177.165821 
L 169.22512 177.016234 
L 169.374321 177.121278 
L 169.622989 176.764811 
L 169.652829 176.783095 
L 169.692616 176.863649 
L 169.762243 176.772429 
L 169.921391 176.645591 
L 169.931337 176.66184 
L 169.941284 176.685735 
L 169.991018 176.589554 
L 170.010911 176.587629 
L 170.140218 176.456398 
L 170.180005 176.527614 
L 170.229739 176.562049 
L 170.289419 176.488721 
L 170.418727 176.474397 
L 170.46846 176.506178 
L 170.508247 176.430153 
L 170.657448 176.32895 
L 170.667395 176.352592 
L 170.816595 176.425941 
L 170.886222 176.445586 
L 170.846435 176.394516 
L 170.916063 176.386587 
L 171.035423 176.349954 
L 170.945903 176.40828 
L 171.04537 176.373431 
L 171.164731 176.42429 
L 171.204517 176.361812 
L 171.353718 176.283998 
L 171.373612 176.322057 
L 171.433292 176.204944 
L 171.552653 176.138559 
L 171.572546 176.176608 
L 171.662066 176.201879 
L 171.68196 176.166774 
L 171.861001 175.954323 
L 171.890841 175.98207 
L 171.960468 176.026294 
L 172.010202 175.975755 
L 172.069882 175.863271 
L 172.139509 175.944188 
L 172.368284 176.081772 
L 172.557271 175.892692 
L 172.567218 175.915625 
L 172.636845 176.043648 
L 172.686579 175.94879 
L 172.776099 175.812735 
L 172.825833 175.897906 
L 172.855673 175.93892 
L 172.905406 175.850601 
L 173.084447 175.706709 
L 173.193861 175.744443 
L 173.203808 175.724797 
L 173.372902 175.643426 
L 173.611623 175.701789 
L 173.721037 175.610573 
L 173.750877 175.666728 
L 173.820505 175.699291 
L 173.870238 175.639928 
L 173.949812 175.584895 
L 173.979652 175.630814 
L 173.989599 175.653234 
L 174.029386 175.583607 
L 174.089066 175.606264 
L 174.208427 175.534602 
L 174.22832 175.568087 
L 174.307894 175.530171 
L 174.268107 175.521409 
L 174.31784 175.510933 
L 174.576455 175.248383 
L 174.586402 175.257152 
L 174.636135 175.164275 
L 174.92459 174.846089 
L 174.934537 174.861273 
L 174.944484 174.883463 
L 175.014111 174.785424 
L 175.163312 174.6872 
L 175.173258 174.709334 
L 175.322459 174.71065 
L 175.332406 174.693287 
L 175.402033 174.651104 
L 175.44182 174.696911 
L 175.56118 174.75046 
L 175.571127 174.732038 
L 175.710381 174.704809 
L 175.730275 174.728546 
L 175.780008 174.637169 
L 175.809848 174.675255 
L 175.929209 174.591485 
L 176.028676 174.59122 
L 176.038623 174.578633 
L 176.177877 174.547232 
L 176.187824 174.574776 
L 176.237557 174.489241 
L 176.277344 174.539815 
L 176.496172 174.341013 
L 176.545906 174.397843 
L 176.615533 174.343668 
L 176.675213 174.269601 
L 176.74484 174.329711 
L 176.824414 174.389107 
L 176.854254 174.341753 
L 177.083028 174.211553 
L 177.092975 174.238747 
L 177.172549 174.143276 
L 177.401323 173.9449 
L 177.649991 174.022903 
L 177.659938 174.004937 
L 177.809139 173.850399 
L 177.848926 173.887797 
L 178.097594 173.702471 
L 178.10754 173.723726 
L 178.207008 173.750099 
L 178.216954 173.733684 
L 178.366155 173.659093 
L 178.395995 173.684524 
L 178.445729 173.605068 
L 178.455676 173.626221 
L 178.485516 173.650832 
L 178.604876 173.554065 
L 178.65461 173.592451 
L 178.704344 173.533304 
L 178.873438 173.457335 
L 178.893331 173.509258 
L 178.962958 173.392159 
L 179.191733 173.19209 
L 179.2912 173.280449 
L 179.32104 173.229847 
L 179.599548 172.909942 
L 179.619442 172.924644 
L 179.659229 172.931894 
L 179.699015 172.866667 
L 179.83827 172.797299 
L 179.848216 172.811643 
L 179.95763 172.847853 
L 179.977524 172.815351 
L 180.086938 172.757994 
L 180.116778 172.80628 
L 180.305765 172.849976 
L 180.325659 172.819493 
L 180.554433 172.627405 
L 180.683741 172.650365 
L 180.693687 172.657126 
L 180.743421 172.574254 
L 180.773261 172.610392 
L 180.902568 172.515393 
L 180.972196 172.570848 
L 181.011982 172.504682 
L 181.14129 172.473393 
L 181.151236 172.480133 
L 181.161183 172.500586 
L 181.20097 172.436915 
L 181.23081 172.424425 
L 181.330277 172.426377 
L 181.340224 172.440452 
L 181.399904 172.489921 
L 181.449638 172.437185 
L 181.658519 172.322625 
L 181.757986 172.430048 
L 181.787826 172.403508 
L 182.076281 172.54529 
L 182.106122 172.500444 
L 182.165802 172.563858 
L 182.235429 172.496632 
L 182.305056 172.525972 
L 182.334896 172.476503 
L 182.44431 172.372544 
L 182.494044 172.430265 
L 182.553724 172.483729 
L 182.603457 172.404468 
L 182.842179 172.227145 
L 182.931699 172.159503 
L 182.951593 172.199421 
L 183.269888 171.863976 
L 183.329568 171.929192 
L 183.379302 171.892012 
L 183.548396 171.801981 
L 183.558342 171.815689 
L 183.647863 171.841685 
L 183.667756 171.809549 
L 183.876638 171.633985 
L 183.886584 171.647652 
L 183.966158 171.688586 
L 183.995998 171.641914 
L 184.254613 171.436251 
L 184.423707 171.31568 
L 184.453547 171.339163 
L 184.513228 171.308456 
L 184.572908 171.349312 
L 184.732055 171.28476 
L 184.742002 171.291322 
L 184.831523 171.30831 
L 184.851416 171.277459 
L 185.100084 171.061723 
L 185.149818 171.025293 
L 185.219445 171.072821 
L 185.438272 170.930089 
L 185.497953 170.877361 
L 185.557633 170.926132 
L 185.736674 170.793728 
L 185.746621 170.803544 
L 185.756567 170.822899 
L 185.826194 170.746735 
L 185.836141 170.755554 
L 186.144489 170.441707 
L 186.154436 170.461004 
L 186.17433 170.499583 
L 186.26385 170.450335 
L 186.393157 170.441391 
L 186.542358 170.496141 
L 186.552305 170.482103 
L 186.691559 170.46302 
L 186.701506 170.482167 
L 186.81092 170.432798 
L 186.999907 170.349211 
L 187.109321 170.379424 
L 187.119268 170.364331 
L 187.348042 170.227686 
L 187.387829 170.263169 
L 187.44751 170.17936 
L 187.666337 170.04283 
L 187.994579 169.833608 
L 188.004526 169.846747 
L 188.024419 169.884511 
L 188.103993 169.811582 
L 188.412341 169.544127 
L 188.472022 169.498498 
L 188.521755 169.517363 
L 188.670956 169.491308 
L 189.038985 169.269312 
L 189.048931 169.28801 
L 189.118558 169.193602 
L 189.436853 168.944113 
L 189.4468 168.962754 
L 189.516427 168.865576 
L 189.794935 168.652542 
L 189.804882 168.693577 
L 189.854616 168.626223 
L 189.894403 168.624153 
L 189.983923 168.550467 
L 190.043603 168.593716 
L 190.05355 168.612252 
L 190.123177 168.530304 
L 190.232591 168.516463 
L 190.242538 168.539638 
L 190.282325 168.549127 
L 190.332058 168.487284 
L 190.550886 168.371879 
L 190.560833 168.380209 
L 190.580726 168.406955 
L 190.63046 168.336947 
L 190.650353 168.341255 
L 190.958702 168.132775 
L 191.177529 168.173766 
L 191.406304 168.043043 
L 191.465984 168.039438 
L 191.495824 167.998792 
L 191.724599 167.8272 
L 191.734546 167.83921 
L 191.804173 167.832697 
L 191.784279 167.807198 
L 191.834013 167.796399 
L 192.023 167.72547 
L 192.202041 167.834572 
L 192.400976 167.742064 
L 192.410922 167.751303 
L 192.54023 167.763954 
L 192.689431 167.724464 
L 192.749111 167.704327 
L 192.778951 167.668054 
L 193.077353 167.425585 
L 193.186767 167.499974 
L 193.20666 167.472359 
L 193.564742 167.15822 
L 193.584635 167.193984 
L 193.664209 167.13243 
L 193.803463 167.130725 
L 193.962611 167.123603 
L 194.101865 167.110502 
L 194.241119 167.154452 
L 194.251066 167.14306 
L 194.370426 167.144465 
L 194.380373 167.1666 
L 194.459947 167.091097 
L 194.469893 167.103507 
L 194.678774 167.00745 
L 194.688721 167.025102 
L 194.758348 166.934853 
L 194.957283 166.841219 
L 195.007016 166.899135 
L 195.066696 166.828086 
L 195.136324 166.894223 
L 195.186057 166.848657 
L 195.365098 166.830859 
L 195.514299 166.8054 
L 195.524246 166.817682 
L 195.593873 166.731647 
L 195.922114 166.513159 
L 196.091209 166.600437 
L 196.220516 166.522129 
L 196.250356 166.548285 
L 196.41945 166.621228 
L 196.528864 166.590584 
L 196.737745 166.510212 
L 197.05604 166.375916 
L 197.135614 166.373361 
L 197.165454 166.337234 
L 197.453909 166.176364 
L 197.503643 166.188195 
L 197.553376 166.126732 
L 197.712524 166.097466 
L 197.951245 166.131023 
L 198.090499 166.099267 
L 198.100446 166.111252 
L 198.18002 166.089516 
L 198.199913 166.066237 
L 198.339167 166.017757 
L 198.349114 166.034749 
L 198.378954 166.056399 
L 198.438634 165.987838 
L 198.587835 165.979286 
L 198.687302 166.023499 
L 198.707196 166.003147 
L 199.085171 165.734914 
L 199.214478 165.745114 
L 199.443253 165.634222 
L 199.582507 165.673045 
L 199.592454 165.661164 
L 199.801335 165.564914 
L 199.920695 165.586154 
L 199.930642 165.573911 
L 200.248937 165.358553 
L 200.358351 165.339137 
L 200.567232 165.252061 
L 200.646806 165.235562 
L 200.666699 165.213225 
L 200.835794 165.121592 
L 200.69654 165.238476 
L 200.84574 165.145522 
L 200.935261 165.141903 
L 200.955154 165.119593 
L 201.36297 164.839358 
L 201.48233 164.83478 
L 201.701158 164.728253 
L 201.840412 164.790479 
L 201.850359 164.779579 
L 202.099027 164.63032 
L 202.158707 164.638251 
L 202.198494 164.591799 
L 202.447162 164.448754 
L 202.457109 164.465124 
L 202.526736 164.386547 
L 202.735617 164.318541 
L 202.75551 164.340053 
L 202.825137 164.261218 
L 203.193166 164.035119 
L 203.282686 164.043715 
L 203.30258 164.023021 
L 203.620875 163.835764 
L 203.640768 163.868203 
L 203.720342 163.807908 
L 203.93917 163.7213 
L 204.018744 163.704938 
L 203.99885 163.682783 
L 204.038637 163.684683 
L 204.227625 163.593177 
L 204.247518 163.615296 
L 204.327092 163.605024 
L 204.356932 163.572772 
L 204.834375 163.243448 
L 204.953735 163.262815 
L 204.973629 163.241397 
L 205.281977 163.074555 
L 205.321764 163.08987 
L 205.381444 163.025932 
L 205.689792 162.869272 
L 205.769366 162.877899 
L 205.799206 162.848678 
L 206.018034 162.738001 
L 206.027981 162.749789 
L 206.077715 162.756874 
L 206.127448 162.704782 
L 206.386063 162.572029 
L 206.48553 162.584358 
L 206.51537 162.556866 
L 206.644678 162.527828 
L 206.654624 162.543654 
L 206.694411 162.571461 
L 206.754091 162.507907 
L 207.201694 162.288347 
L 207.211641 162.304104 
L 207.221587 162.319857 
L 207.301161 162.241065 
L 207.619456 162.061407 
L 207.629403 162.077117 
L 207.69903 162.005295 
L 207.907911 161.936331 
L 207.987485 161.952162 
L 208.017325 161.921453 
L 208.355513 161.729456 
L 208.653915 161.568493 
L 208.663862 161.584081 
L 208.673808 161.599666 
L 208.733489 161.537453 
L 208.763329 161.533592 
L 209.021943 161.384041 
L 209.03189 161.403326 
L 209.141304 161.428498 
L 209.161197 161.408208 
L 209.419812 161.305864 
L 209.439706 161.340561 
L 209.519279 161.284052 
L 209.917148 161.008673 
L 210.026562 160.994316 
L 210.205603 160.932687 
L 210.21555 160.951778 
L 210.324964 160.966679 
L 210.344857 160.947405 
L 210.504005 160.942056 
L 210.732779 160.963678 
L 210.792459 160.931223 
L 210.85214 160.995164 
L 210.891927 161.000076 
L 210.951607 160.946538 
L 211.220168 160.842542 
L 211.230115 160.857789 
L 211.309689 160.779744 
L 211.57825 160.661065 
L 211.667771 160.703461 
L 211.707558 160.664354 
L 211.936332 160.569998 
L 211.946279 160.580835 
L 212.045746 160.5329 
L 212.324254 160.398789 
L 212.433668 160.381584 
L 212.443615 160.371452 
L 212.702229 160.2475 
L 212.831537 160.289263 
L 212.841484 160.279641 
L 213.139885 160.150142 
L 213.149832 160.16516 
L 213.229406 160.087426 
L 213.716795 159.894903 
L 213.846102 159.891663 
L 213.856049 159.881971 
L 214.03509 159.8636 
L 214.323545 159.713915 
L 214.413065 159.648992 
L 214.64184 159.542963 
L 214.651786 159.557814 
L 214.7612 159.555809 
L 214.771147 159.546362 
L 215.676298 158.777194 
L 215.686245 158.801604 
L 215.775766 158.786985 
L 215.785712 158.763206 
L 216.014487 158.53122 
L 216.362622 158.39899 
L 216.52177 158.285984 
L 216.61129 158.185198 
L 216.820171 157.909004 
L 216.899745 157.963377 
L 216.850011 157.888723 
L 216.929585 157.894242 
L 217.516441 157.575985 
L 217.695482 157.43013 
L 217.814843 157.290859 
L 218.063511 157.046244 
L 218.232605 156.962085 
L 218.401699 156.794036 
L 218.49122 156.696469 
L 218.710048 156.488996 
L 218.829408 156.441381 
L 219.06813 156.138676 
L 219.18749 156.030416 
L 219.336691 155.957459 
L 219.535625 155.776207 
L 219.70472 155.670386 
L 219.714666 155.694165 
L 219.73456 155.649955 
L 219.804187 155.626696 
L 219.963334 155.53687 
L 220.072748 155.479979 
L 220.082695 155.495316 
L 220.102588 155.518903 
L 220.172215 155.427871 
L 220.420883 155.360962 
L 220.619818 155.222767 
L 221.495129 154.734632 
L 221.813424 154.440038 
L 221.922838 154.369241 
L 222.062092 154.248818 
L 222.111826 154.281328 
L 222.171506 154.257608 
L 222.360494 154.096464 
L 222.579322 153.84965 
L 222.599215 153.874692 
L 222.728522 153.762399 
L 222.867776 153.704127 
L 222.97719 153.742492 
L 223.00703 153.680423 
L 223.136338 153.579272 
L 223.325325 153.48829 
L 223.375059 153.506949 
L 223.404899 153.424827 
L 223.414846 153.443376 
L 223.61378 153.225631 
L 223.912182 153.14816 
L 223.942022 153.108078 
L 224.001702 153.193436 
L 224.011649 153.193436 
L 224.319997 152.886244 
L 224.339891 152.917209 
L 224.379678 152.843609 
L 224.399571 152.846057 
L 224.548772 152.731208 
L 225.046108 152.645068 
L 225.135628 152.547905 
L 225.324616 152.400889 
L 225.483763 152.321675 
L 225.672751 152.125418 
L 225.692645 152.138206 
L 225.752325 152.046211 
L 226.090513 151.658941 
L 226.10046 151.674499 
L 226.16014 151.585335 
L 226.289448 151.50832 
L 226.299394 151.523878 
L 226.478435 151.437954 
L 226.617689 151.344216 
L 226.627636 151.368627 
L 226.697263 151.284336 
L 226.866357 151.1104 
L 226.886251 151.1251 
L 226.935984 151.031295 
L 227.144866 150.686689 
L 227.174706 150.735952 
L 227.483054 150.586127 
L 227.681988 150.424336 
L 227.801349 150.410224 
L 227.940603 150.239143 
L 228.109697 150.107001 
L 228.179324 150.007883 
L 228.358365 149.833537 
L 228.477726 149.7303 
L 228.507566 149.750731 
L 228.726394 149.66442 
L 228.885541 149.569797 
L 229.024795 149.464263 
L 229.044689 149.481168 
L 229.064582 149.518905 
L 229.134209 149.451776 
L 229.25357 149.335185 
L 229.273463 149.356185 
L 229.392824 149.364015 
L 229.611652 149.162145 
L 229.731013 149.079931 
L 229.979681 148.832461 
L 230.128881 148.730107 
L 230.397443 148.49239 
L 230.576484 148.404617 
L 230.715738 148.346417 
L 231.173287 148.207248 
L 231.322488 148.117642 
L 231.441848 148.121 
L 231.531369 148.034852 
L 231.74025 147.819117 
L 231.849664 147.71451 
L 231.959078 147.651385 
L 231.978971 147.672038 
L 232.038651 147.587563 
L 232.237586 147.335889 
L 232.386787 147.280122 
L 232.535987 147.138857 
L 232.605614 147.166924 
L 232.645401 147.133274 
L 232.754815 147.025242 
L 232.904016 146.934959 
L 233.07311 146.886664 
L 233.242204 146.803713 
L 233.480926 146.487398 
L 233.689807 146.396166 
L 233.809167 146.233915 
L 233.858901 146.259174 
L 233.998155 146.182179 
L 234.147356 146.107511 
L 234.197089 146.158211 
L 234.246823 146.061899 
L 234.565118 145.700284 
L 235.042561 145.43013 
L 235.211655 145.296848 
L 235.579683 145.20238 
L 235.758724 145.038109 
L 235.768671 145.062741 
L 235.838298 144.958141 
L 236.057126 144.84595 
L 236.236167 144.692969 
L 236.474888 144.567739 
L 236.663876 144.361629 
L 236.683769 144.38068 
L 236.74345 144.308862 
L 236.972224 144.010444 
L 237.081638 144.019857 
L 237.310413 143.752981 
L 237.429773 143.697444 
L 237.658548 143.426193 
L 237.807748 143.32115 
L 238.10615 142.850835 
L 238.145937 142.868823 
L 238.175777 142.796974 
L 238.195671 142.820074 
L 238.374711 142.64618 
L 238.603486 142.367862 
L 238.643273 142.399253 
L 238.702953 142.322501 
L 238.931728 142.249567 
L 239.061035 142.125176 
L 239.100822 142.151852 
L 239.240076 142.068979 
L 239.389277 142.006731 
L 239.419117 142.046675 
L 239.478797 141.960022 
L 239.488744 141.961554 
L 240.155174 141.573411 
L 240.264588 141.545526 
L 240.274535 141.566526 
L 240.463522 141.384934 
L 240.68235 141.127574 
L 240.841498 141.029952 
L 241.149846 140.692086 
L 241.358727 140.564331 
L 241.567608 140.346055 
L 241.607395 140.389237 
L 241.667075 140.298524 
L 241.786436 140.1947 
L 242.025157 139.889772 
L 242.174358 139.781153 
L 242.204198 139.800053 
L 242.353399 139.587977 
L 242.383239 139.608977 
L 242.413079 139.532111 
L 242.452866 139.554581 
L 242.582174 139.463499 
L 242.781108 139.270879 
L 242.810948 139.240914 
L 242.900469 139.251664 
L 242.999936 139.153502 
L 243.16903 139.014425 
L 243.178977 139.029982 
L 243.188923 139.058135 
L 243.248604 138.950485 
L 243.268497 138.971769 
L 243.417698 138.867482 
L 243.586792 138.77919 
L 243.676313 138.774385 
L 243.636526 138.756343 
L 243.686259 138.749753 
L 243.934927 138.654977 
L 244.084128 138.564996 
L 244.163702 138.465621 
L 244.452157 138.183265 
L 244.491944 138.159495 
L 244.551624 138.176486 
L 244.720718 137.997731 
L 245.01912 137.90123 
L 245.178267 137.779437 
L 245.267788 137.692322 
L 245.486616 137.384242 
L 245.556243 137.280264 
L 245.755177 137.162212 
L 245.954111 137.052251 
L 246.133152 136.843653 
L 246.143099 136.868284 
L 246.222673 136.779311 
L 246.461394 136.487649 
L 246.700115 136.348162 
L 246.86921 136.222992 
L 247.147718 136.165555 
L 247.277025 135.983151 
L 247.316812 136.000519 
L 247.446119 135.897203 
L 247.635107 135.731575 
L 247.645054 135.752007 
L 247.684841 135.656739 
L 247.714681 135.647582 
L 247.893722 135.500167 
L 248.092656 135.440324 
L 248.281644 135.248737 
L 248.29159 135.264073 
L 248.331377 135.167951 
L 248.351271 135.176793 
L 248.410951 135.117867 
L 248.470631 135.14315 
L 248.500471 135.183938 
L 248.580045 135.134619 
L 249.355889 134.750882 
L 249.524984 134.598094 
L 249.544877 134.638283 
L 249.584664 134.551273 
L 249.634397 134.576472 
L 249.793545 134.467022 
L 249.952692 134.350276 
L 250.002426 134.350215 
L 250.042213 134.300374 
L 250.251094 134.064532 
L 250.360508 134.094477 
L 250.370455 134.071377 
L 250.529602 133.962981 
L 250.619123 133.857748 
L 250.818057 133.601345 
L 250.828004 133.62597 
L 250.887684 133.537051 
L 251.086618 133.314792 
L 251.166192 133.239595 
L 251.255713 133.187934 
L 251.285553 133.231466 
L 251.424807 133.110089 
L 251.564061 133.04229 
L 251.743102 132.931298 
L 251.99177 132.725797 
L 252.290171 132.62877 
L 252.449319 132.538607 
L 252.837241 132.04879 
L 252.847188 132.069632 
L 252.857134 132.088546 
L 252.926761 131.993632 
L 253.105802 131.916 
L 253.274897 131.775062 
L 253.642925 131.757334 
L 253.692659 131.692503 
L 253.851806 131.544096 
L 254.180048 131.200385 
L 254.189995 131.220817 
L 254.329249 131.075108 
L 254.488396 130.926958 
L 254.59781 130.831285 
L 254.866372 130.494454 
L 254.995679 130.386879 
L 255.194613 130.143254 
L 255.254294 130.053339 
L 255.463175 129.830121 
L 255.691949 129.745912 
L 255.87099 129.55622 
L 255.960511 129.465969 
L 256.199232 129.17653 
L 256.278806 129.078555 
L 256.4479 128.921172 
L 256.766195 128.823694 
L 256.975076 128.597948 
L 257.243638 128.516673 
L 257.372945 128.440248 
L 257.382892 128.459287 
L 257.770814 128.248426 
L 257.910068 128.139668 
L 258.029428 128.056723 
L 258.049322 128.073977 
L 258.35767 127.804862 
L 258.566551 127.655083 
L 258.8749 127.538965 
L 259.034047 127.423823 
L 259.113621 127.34118 
L 259.312555 127.189221 
L 259.421969 127.088133 
L 259.640797 126.831499 
L 259.740264 126.731272 
L 259.869571 126.649319 
L 259.889465 126.673652 
L 259.998879 126.654532 
L 260.158026 126.538687 
L 260.167973 126.549527 
L 260.466375 126.401741 
L 260.705096 126.103715 
L 260.724989 126.132593 
L 260.78467 126.073279 
L 260.81451 126.093937 
L 260.884137 126.007595 
L 261.043284 125.933155 
L 261.093018 125.977174 
L 261.132805 125.880075 
L 261.252165 125.86077 
L 261.441153 125.757994 
L 261.600301 125.655421 
L 261.809182 125.42897 
L 261.998169 125.319196 
L 262.226944 125.196528 
L 262.386091 125.105978 
L 262.734227 125.028804 
L 262.853587 124.958421 
L 262.863534 124.975221 
L 262.933161 124.883772 
L 263.092308 124.780617 
L 263.211669 124.675039 
L 263.281296 124.720622 
L 263.321083 124.695409 
L 263.510071 124.616076 
L 263.758739 124.356133 
L 263.917886 124.235354 
L 264.146661 123.969581 
L 264.325702 123.818182 
L 264.425169 123.747416 
L 264.455009 123.777853 
L 264.832984 123.629578 
L 265.012025 123.480207 
L 265.340267 123.404524 
L 265.529255 123.231904 
L 265.718242 123.167242 
L 265.917177 122.979932 
L 266.036537 122.922161 
L 266.195685 122.840081 
L 266.663181 122.725254 
L 266.792488 122.689997 
L 266.991422 122.573526 
L 267.110783 122.495858 
L 267.130676 122.520339 
L 267.250037 122.402354 
L 267.448971 122.265834 
L 267.72748 122.224444 
L 267.777213 122.175456 
L 267.826947 122.234741 
L 267.836893 122.259118 
L 267.886627 122.174987 
L 267.916467 122.177676 
L 268.105455 122.036737 
L 268.304389 121.887769 
L 268.383963 121.806154 
L 268.463537 121.741018 
L 268.51327 121.76732 
L 268.742045 121.656394 
L 268.891246 121.471386 
L 268.911139 121.500786 
L 269.040446 121.542833 
L 269.189647 121.388687 
L 269.209541 121.409837 
L 269.63725 121.29815 
L 269.816291 121.152272 
L 269.925704 121.062927 
L 270.064958 120.990668 
L 270.184319 120.894826 
L 270.502614 120.630054 
L 270.621975 120.525452 
L 270.791069 120.385022 
L 271.109364 120.279814 
L 271.248618 120.211948 
L 271.387872 120.094437 
L 271.517179 120.048871 
L 271.537073 120.090196 
L 271.596753 119.986269 
L 271.895155 119.663804 
L 271.994622 119.72159 
L 272.024462 119.685141 
L 272.18361 119.581325 
L 272.581478 119.458471 
L 272.770466 119.302295 
L 272.889827 119.301552 
L 273.118601 119.034229 
L 273.327482 118.933338 
L 273.476683 118.858083 
L 273.54631 118.822327 
L 273.586097 118.858977 
L 273.785031 118.699461 
L 274.043646 118.603579 
L 274.163007 118.589559 
L 274.172953 118.598397 
L 274.540982 118.493422 
L 274.670289 118.438364 
L 274.78965 118.327829 
L 274.909011 118.228828 
L 275.028371 118.120252 
L 275.048265 118.160267 
L 275.157679 118.064692 
L 275.326773 117.967459 
L 275.595334 117.864495 
L 275.744535 117.755054 
L 275.814162 117.773921 
L 275.853949 117.749012 
L 275.983256 117.639519 
L 276.202084 117.475639 
L 276.281658 117.39845 
L 276.420912 117.327913 
L 276.66958 117.2244 
L 276.808834 117.175707 
L 277.017715 117.080416 
L 277.21665 116.961223 
L 278.072067 116.573985 
L 278.241162 116.451778 
L 278.370469 116.39326 
L 278.390362 116.412745 
L 278.728551 116.327013 
L 278.847911 116.229428 
L 278.877752 116.253404 
L 279.265674 116.155387 
L 279.464608 115.993966 
L 280.101198 115.557472 
L 280.230505 115.479256 
L 280.409546 115.316378 
L 280.618427 115.234909 
L 280.757682 115.162847 
L 280.767628 115.178404 
L 280.817362 115.093152 
L 280.837255 115.09416 
L 280.986456 114.947241 
L 281.12571 114.872271 
L 281.264964 114.727685 
L 281.364431 114.6866 
L 281.623046 114.358395 
L 282.080595 114.08933 
L 282.289476 114.005691 
L 282.418784 113.878939 
L 282.438677 113.899371 
L 282.528198 113.947153 
L 282.558038 113.927863 
L 282.707238 113.901267 
L 282.896226 113.81819 
L 283.03548 113.724271 
L 283.045427 113.765703 
L 283.115054 113.675843 
L 283.134947 113.676064 
L 283.304042 113.600837 
L 283.463189 113.493632 
L 283.751644 113.408976 
L 283.930685 113.299637 
L 283.940632 113.314342 
L 284.119673 113.212061 
L 285.920029 112.341098 
L 286.089123 112.25538 
L 286.09907 112.278883 
L 286.168697 112.183622 
L 286.357684 112.084335 
L 286.546672 111.973509 
L 286.715766 111.844541 
L 286.845074 111.736741 
L 286.954488 111.766554 
L 287.143475 111.660017 
L 287.282729 111.589489 
L 287.392143 111.578253 
L 287.571184 111.525673 
L 287.760172 111.441345 
L 287.899426 111.431274 
L 288.048627 111.333802 
L 288.217721 111.201405 
L 288.744897 111.018366 
L 288.894098 110.937128 
L 289.033352 110.952749 
L 289.37154 110.934666 
L 289.570475 110.800769 
L 290.435839 110.583542 
L 290.5552 110.455297 
L 290.58504 110.482228 
L 290.664614 110.541416 
L 290.694454 110.499104 
L 290.923228 110.439166 
L 291.072429 110.391906 
L 291.142056 110.410052 
L 291.181843 110.363021 
L 291.321097 110.287623 
L 291.470298 110.211639 
L 291.599605 110.110354 
L 291.808486 109.94101 
L 291.967634 109.819481 
L 292.226249 109.612446 
L 292.683798 109.497368 
L 292.832999 109.448674 
L 293.19108 109.393888 
L 293.350228 109.226186 
L 293.370121 109.245677 
L 293.449695 109.198146 
L 293.628736 108.984328 
L 293.648629 109.001733 
L 293.787884 108.892248 
L 293.917191 108.859829 
L 294.096232 108.759362 
L 294.185752 108.708805 
L 294.225539 108.7479 
L 294.424474 108.645105 
L 294.583621 108.509899 
L 294.742769 108.407013 
L 295.269945 108.232553 
L 295.399252 108.204863 
L 295.508666 108.113763 
L 295.67776 107.983523 
L 295.73744 107.887049 
L 295.946322 107.719664 
L 296.115416 107.616513 
L 296.244723 107.576857 
L 296.503338 107.46897 
L 297.438329 106.989367 
L 297.597477 106.881269 
L 297.816305 106.755323 
L 297.935665 106.716438 
L 297.965506 106.734782 
L 298.005292 106.66055 
L 298.124653 106.584544 
L 298.1346 106.604123 
L 298.154493 106.550341 
L 298.214174 106.546937 
L 298.343481 106.510541 
L 298.661776 106.406214 
L 298.83087 106.261169 
L 298.980071 106.172718 
L 299.169059 106.062615 
L 299.248632 106.094927 
L 299.288419 106.048583 
L 299.556981 105.953981 
L 299.686288 105.926754 
L 300.01453 105.793618 
L 300.173677 105.686594 
L 300.501919 105.590772 
L 300.631226 105.539755 
L 300.929628 105.457996 
L 301.078829 105.367757 
L 301.118616 105.398357 
L 301.178296 105.333087 
L 301.367283 105.169206 
L 301.755206 105.0682 
L 301.9243 104.950395 
L 302.172968 104.840602 
L 302.282382 104.76523 
L 302.322169 104.786605 
L 302.739931 104.697278 
L 302.859291 104.62385 
L 302.869238 104.639133 
L 303.217373 104.566005 
L 303.366574 104.481024 
L 303.714709 104.39901 
L 303.814176 104.355286 
L 303.83407 104.392412 
L 304.331406 104.291502 
L 304.480607 104.205779 
L 304.59002 104.228549 
L 304.599967 104.205449 
L 304.749168 104.118935 
L 304.878475 104.08101 
L 305.007783 104.079586 
L 305.226611 104.031527 
L 305.355918 103.974928 
L 305.395705 104.016513 
L 305.465332 103.973892 
L 305.554852 103.874665 
L 305.604586 103.913717 
L 305.942774 103.771428 
L 305.952721 103.741391 
L 306.022348 103.851708 
L 306.042241 103.821042 
L 306.141709 103.722059 
L 306.300856 103.642172 
L 306.310803 103.657416 
L 306.828032 103.570779 
L 306.95734 103.526004 
L 307.434782 103.387728 
L 307.583983 103.326696 
L 307.603876 103.348649 
L 307.68345 103.28047 
L 308.131052 103.199418 
L 308.280253 103.126586 
L 308.857163 102.941594 
L 309.026257 102.803172 
L 309.175458 102.891062 
L 309.742421 102.803688 
L 309.901568 102.699897 
L 310.080609 102.591536 
L 310.309384 102.319867 
L 310.617732 102.217569 
L 310.80672 102.126112 
L 311.065335 102.037605 
L 311.234429 101.909482 
L 311.333896 101.890779 
L 311.363736 101.91121 
L 311.652191 101.826195 
L 312.179367 101.621062 
L 312.348461 101.465428 
L 312.845797 101.363889 
L 314.248285 100.959398 
L 314.307965 100.994108 
L 314.357699 100.969977 
L 314.68594 100.908815 
L 314.904768 100.803396 
L 315.521465 100.67261 
L 315.640825 100.549727 
L 315.670666 100.571723 
L 315.770133 100.562878 
L 315.919334 100.470998 
L 316.56587 100.411613 
L 316.645444 100.457558 
L 316.685231 100.421689 
L 316.794645 100.335657 
L 316.824485 100.354726 
L 316.963739 100.276784 
L 317.441182 100.212195 
L 317.600329 100.136713 
L 317.77937 100.059124 
L 317.878837 100.045576 
L 317.898731 100.066704 
L 318.47564 99.985452 
L 318.604948 99.95436 
L 318.684521 99.97761 
L 318.724308 99.947972 
L 318.873509 99.856269 
L 319.460366 99.772983 
L 319.62946 99.679335 
L 319.977595 99.580555 
L 320.156636 99.495411 
L 320.544558 99.407373 
L 320.693759 99.400924 
L 320.922533 99.312376 
L 321.071734 99.279959 
L 321.469603 99.169213 
L 321.638697 99.031768 
L 322.742783 98.755398 
L 322.891984 98.65966 
L 323.319693 98.589415 
L 323.47884 98.476812 
L 323.53852 98.49612 
L 323.588254 98.454797 
L 323.916496 98.419504 
L 324.045803 98.379829 
L 324.314364 98.348745 
L 324.393938 98.261218 
L 324.443672 98.29891 
L 324.563032 98.278032 
L 324.821647 98.174924 
L 324.941008 98.159186 
L 325.070315 98.206858 
L 325.696958 98.061738 
L 325.866053 97.967633 
L 326.224135 97.876342 
L 326.383282 97.786557 
L 326.393229 97.810322 
L 326.63195 97.723971 
L 326.771204 97.665575 
L 327.149179 97.502745 
L 327.407794 97.328382 
L 328.004597 97.272801 
L 328.123958 97.253806 
L 328.561614 97.057613 
L 328.621294 97.022262 
L 328.671027 97.074752 
L 328.919695 96.985441 
L 329.068896 96.919379 
L 329.23799 96.825825 
L 329.327511 96.817984 
L 329.357351 96.83889 
L 329.446872 96.855543 
L 329.456818 96.832443 
L 329.476712 96.807348 
L 329.516499 96.873033 
L 329.556285 96.87382 
L 329.854687 96.784636 
L 330.043675 96.650964 
L 330.272449 96.54596 
L 330.371916 96.53077 
L 330.381863 96.552371 
L 330.471384 96.562931 
L 330.491277 96.524724 
L 330.749892 96.463404 
L 330.909039 96.363845 
L 331.386482 96.251467 
L 331.525736 96.208895 
L 331.794297 96.07842 
L 331.943498 96.000265 
L 332.291633 95.897515 
L 333.02769 95.738256 
L 333.097317 95.695279 
L 333.137104 95.749464 
L 333.495186 95.658421 
L 333.66428 95.538388 
L 333.763748 95.531484 
L 333.773694 95.511515 
L 334.121829 95.444232 
L 334.380444 95.175951 
L 334.967301 95.042504 
L 335.036928 94.986846 
L 335.086661 95.030587 
L 335.434796 94.920579 
L 335.603891 94.857072 
L 335.763038 94.761099 
L 335.902292 94.715496 
L 336.0316 94.785945 
L 336.160907 94.743808 
L 336.548829 94.711106 
L 336.66819 94.715783 
L 338.418812 94.628608 
L 338.548119 94.573456 
L 339.115082 94.465338 
L 339.284177 94.520048 
L 339.960554 94.442476 
L 342.496967 94.287411 
L 343.053983 94.259032 
L 343.183291 94.186159 
L 343.193237 94.205059 
L 343.461799 94.113217 
L 343.601053 94.032149 
L 344.9737 93.975082 
L 345.132848 93.927877 
L 345.938532 93.843491 
L 345.978319 93.795278 
L 346.057892 93.834192 
L 346.495548 93.72533 
L 346.614909 93.619664 
L 346.644749 93.648691 
L 346.764109 93.656884 
L 348.435158 93.444133 
L 348.594306 93.329083 
L 349.071748 93.221326 
L 349.101588 93.172663 
L 349.191109 93.21485 
L 349.718285 93.113626 
L 349.847592 93.072009 
L 351.439067 92.982986 
L 351.578322 92.932889 
L 352.00603 92.787906 
L 352.105498 92.77415 
L 352.125391 92.795764 
L 352.752034 92.705826 
L 352.950969 92.49303 
L 353.199637 92.382314 
L 354.413136 92.233145 
L 354.542444 92.197448 
L 355.079567 92.145552 
L 355.198927 92.12337 
L 355.517222 92.029853 
L 355.586849 92.004314 
L 355.636583 92.026825 
L 356.840136 91.931933 
L 356.969443 91.84145 
L 356.999283 91.864206 
L 357.118644 91.889114 
L 357.128591 91.878474 
L 357.407099 91.967269 
L 357.476726 91.974926 
L 357.506566 91.920842 
L 357.64582 91.876539 
L 358.391824 91.826661 
L 358.521131 91.797286 
L 359.565537 91.722976 
L 359.665004 91.669117 
L 359.694844 91.689885 
L 360.052926 91.652104 
L 360.391115 91.625263 
L 360.530369 91.564727 
L 360.669623 91.464913 
L 360.818824 91.380149 
L 361.415627 91.365416 
L 361.574774 91.27536 
L 362.907635 91.179869 
L 363.026995 91.159126 
L 363.743159 91.157597 
L 364.150974 91.061758 
L 364.160921 91.030826 
L 364.260388 91.076383 
L 364.479216 91.039936 
L 364.717937 90.930819 
L 364.857191 90.923228 
L 365.1357 90.85091 
L 365.265007 90.808828 
L 365.712609 90.738823 
L 366.120425 90.659733 
L 366.727175 90.537699 
L 366.826642 90.512279 
L 366.846535 90.537231 
L 367.16483 90.457051 
L 367.304084 90.347687 
L 368.358437 90.256371 
L 368.487744 90.217071 
L 368.806039 90.155951 
L 368.9254 90.131763 
L 369.04476 90.130154 
L 370.397514 90.117542 
L 370.546715 90.050124 
L 371.581174 89.947732 
L 371.710481 89.920547 
L 371.909415 89.826908 
L 372.07851 89.768851 
L 374.505509 89.477755 
L 374.644763 89.42955 
L 375.012792 89.314581 
L 375.152046 89.275241 
L 375.559861 89.330331 
L 375.699115 89.366987 
L 376.375492 89.294225 
L 376.474959 89.222013 
L 376.5048 89.250881 
L 379.309774 88.946581 
L 379.558442 88.885073 
L 380.732155 88.81435 
L 380.950983 88.735431 
L 382.502671 88.520677 
L 382.512618 88.48011 
L 382.612085 88.508554 
L 383.437663 88.475231 
L 383.56697 88.44608 
L 383.974786 88.397025 
L 384.14388 88.305942 
L 384.482068 88.342914 
L 384.581535 88.366682 
L 384.601429 88.354027 
L 388.251875 88.39328 
L 388.361289 88.408072 
L 388.371235 88.392515 
L 389.445481 88.277114 
L 389.584735 88.203066 
L 389.992551 88.108811 
L 390.201432 87.988757 
L 390.251165 88.014945 
L 390.310846 87.968276 
L 391.007116 87.992911 
L 391.166264 87.889394 
L 391.554186 87.986355 
L 391.673546 88.053188 
L 391.69344 88.032977 
L 391.822747 87.944854 
L 391.942108 87.940953 
L 392.429497 88.001083 
L 392.548857 87.996108 
L 393.652943 87.941343 
L 393.72257 87.900449 
L 393.772304 87.921689 
L 395.343886 87.822749 
L 395.443353 87.828847 
L 395.453299 87.848497 
L 395.592554 87.891561 
L 397.462537 87.710721 
L 398.099127 87.602949 
L 398.228434 87.631557 
L 398.765557 87.541308 
L 398.884918 87.538505 
L 398.964491 87.542737 
L 398.994331 87.522194 
L 399.242999 87.459653 
L 399.322573 87.42736 
L 399.352413 87.452021 
L 399.501614 87.49954 
L 401.978347 87.40684 
L 402.057921 87.376236 
L 402.097708 87.397254 
L 404.833056 87.119728 
L 404.982256 87.074014 
L 405.449752 86.992267 
L 405.598953 86.890074 
L 407.200375 86.689699 
L 408.632702 86.616852 
L 408.732169 86.555477 
L 408.76201 86.582667 
L 408.960944 86.504296 
L 409.090251 86.455513 
L 409.209612 86.476377 
L 411.91512 86.215909 
L 412.03448 86.181389 
L 412.392562 86.143629 
L 412.541763 86.042312 
L 414.381906 85.863632 
L 414.411746 85.882565 
L 414.49132 85.841914 
L 417.047627 85.591656 
L 417.176934 85.650679 
L 417.186881 85.635359 
L 418.440167 85.538765 
L 418.579421 85.606914 
L 418.708729 85.584686 
L 420.260417 85.394644 
L 420.320097 85.373881 
L 420.369831 85.396913 
L 423.861129 85.158347 
L 424.000383 85.103355 
L 426.487063 85.102844 
L 426.626317 85.149429 
L 426.745678 85.156485 
L 427.282801 85.091047 
L 429.968415 84.815983 
L 430.137509 84.729477 
L 430.227029 84.74856 
L 430.25687 84.725225 
L 430.913353 84.69377 
L 431.032714 84.674096 
L 431.142128 84.688416 
L 431.152074 84.667573 
L 431.927918 84.733004 
L 432.017439 84.754888 
L 432.047279 84.727374 
L 435.041241 84.628849 
L 435.170549 84.610451 
L 437.98547 84.353869 
L 438.035204 84.334861 
L 438.094884 84.380788 
L 438.781208 84.343283 
L 438.940355 84.25757 
L 439.049769 84.295784 
L 439.069663 84.276496 
L 439.905187 84.226164 
L 441.307674 84.092909 
L 441.446929 84.035808 
L 441.695597 83.986908 
L 441.814957 83.973853 
L 441.924371 84.048513 
L 441.954211 84.027083 
L 442.083519 83.963669 
L 442.103412 83.981613 
L 442.133252 83.911507 
L 442.173039 83.911035 
L 443.774461 83.813531 
L 444.271797 83.719582 
L 444.301637 83.698483 
L 444.381211 83.737693 
L 447.38512 83.553571 
L 447.514427 83.513171 
L 449.563451 83.370637 
L 449.662919 83.355386 
L 449.682812 83.374616 
L 451.254394 83.243355 
L 452.109811 83.245209 
L 452.239119 83.223824 
L 453.999688 83.090725 
L 454.686012 83.069301 
L 457.152798 82.786852 
L 457.311946 82.707745 
L 457.321892 82.727884 
L 457.898802 82.723195 
L 458.018163 82.72407 
L 458.614966 82.723631 
L 458.694539 82.742615 
L 458.72438 82.711427 
L 461.817809 82.604199 
L 461.947117 82.582166 
L 462.553866 82.650708 
L 462.693121 82.693058 
L 463.399338 82.668031 
L 465.249427 82.560225 
L 465.368788 82.558041 
L 466.313726 82.528704 
L 466.990103 82.53218 
L 467.208931 82.454812 
L 469.168435 82.226177 
L 469.317635 82.168911 
L 470.133266 82.155378 
L 470.262574 82.179244 
L 470.391881 82.153779 
L 470.81959 82.078953 
L 470.948897 82.063576 
L 471.953516 82.060184 
L 473.664352 82.061496 
L 474.649077 82.04166 
L 474.778384 81.996813 
L 474.997212 81.9713 
L 475.096679 81.894628 
L 475.116573 81.919056 
L 475.952097 81.888279 
L 477.573412 81.909309 
L 478.130429 81.894597 
L 478.249789 81.890291 
L 482.73576 81.793415 
L 482.85512 81.791531 
L 484.018886 81.68167 
L 484.178034 81.63336 
L 487.052636 81.47114 
L 487.171996 81.492826 
L 487.291357 81.485045 
L 488.216402 81.350063 
L 488.365603 81.294333 
L 489.917291 81.187592 
L 490.036651 81.176761 
L 491.110897 81.071102 
L 491.250151 81.028804 
L 493.338962 80.808891 
L 493.458323 80.807821 
L 493.64731 80.744675 
L 493.786564 80.696471 
L 493.925819 80.739467 
L 499.744649 80.771218 
L 499.89385 80.70887 
L 500.212145 80.782266 
L 500.361346 80.850059 
L 500.5006 80.813384 
L 500.759215 80.776465 
L 502.012501 80.811026 
L 502.141808 80.763766 
L 504.310193 80.717475 
L 504.459394 80.784641 
L 507.224582 80.855096 
L 507.373783 80.7804 
L 508.13968 80.803339 
L 510.765614 80.575202 
L 510.914815 80.640244 
L 512.008954 80.723775 
L 512.118368 80.71708 
L 512.227782 80.714279 
L 512.337196 80.701005 
L 515.450519 80.770256 
L 516.196523 80.837525 
L 516.345723 80.892086 
L 518.514108 80.794747 
L 518.653362 80.749764 
L 523.547148 80.732953 
L 523.676455 80.769447 
L 523.815709 80.735491 
L 525.277877 80.591278 
L 525.407184 80.576014 
L 525.90452 80.543554 
L 526.033828 80.520639 
L 526.879299 80.528723 
L 528.490667 80.41919 
L 528.610028 80.421973 
L 529.972729 80.387909 
L 530.102036 80.370933 
L 533.493867 80.199833 
L 533.633121 80.167146 
L 534.747154 80.22922 
L 535.642358 80.196138 
L 535.771666 80.167693 
L 536.945379 80.07089 
L 538.158878 79.995043 
L 539.243071 79.904211 
L 539.372378 79.888003 
L 540.814652 79.93932 
L 540.9738 80.017111 
L 542.475754 79.871408 
L 542.615008 79.913041 
L 543.49032 79.888808 
L 544.455152 79.819676 
L 544.584459 79.802812 
L 544.713766 79.819643 
L 545.658705 79.821153 
L 545.778065 79.843063 
L 551.000093 79.944708 
L 551.019986 79.964138 
L 551.079666 79.892761 
L 551.089613 79.894221 
L 551.895297 79.882027 
L 552.442367 79.9606 
L 552.561728 79.960147 
L 553.755334 79.910699 
L 553.844854 79.922276 
L 553.864748 79.897252 
L 555.535797 79.765116 
L 555.58553 79.722735 
L 555.655157 79.766932 
L 556.779136 79.826762 
L 556.818923 79.80571 
L 556.88855 79.845521 
L 557.385886 79.938038 
L 557.505247 79.936043 
L 558.867947 79.828769 
L 559.007202 79.794849 
L 560.966705 79.796595 
L 565.860491 79.841623 
L 565.989798 79.882783 
L 566.059425 79.862113 
L 566.099212 79.902976 
L 571.341133 79.795683 
L 571.460494 79.799107 
L 571.579855 79.808873 
L 583.008635 79.919708 
L 584.043094 79.895692 
L 584.172401 79.856019 
L 584.291762 79.873706 
L 588.121248 79.748051 
L 588.260502 79.787984 
L 589.11592 79.824152 
L 589.255174 79.861636 
L 590.210059 79.875426 
L 590.29958 79.840782 
L 590.339367 79.861943 
L 591.861215 80.005248 
L 591.990522 79.990418 
L 592.577379 79.946019 
L 593.283596 79.985421 
L 593.412903 80.009916 
L 593.969919 79.939548 
L 595.054112 79.870255 
L 595.183419 79.885032 
L 595.879689 79.86846 
L 595.99905 79.884792 
L 598.247008 79.784414 
L 598.406156 79.7017 
L 599.480402 79.627147 
L 599.609709 79.60906 
L 601.837774 79.543878 
L 601.957135 79.575258 
L 602.30527 79.527487 
L 602.434577 79.509701 
L 603.57845 79.43813 
L 607.875432 79.40614 
L 608.00474 79.436178 
L 609.148613 79.449158 
L 613.932984 79.579718 
L 614.042398 79.55462 
L 614.052345 79.575051 
L 614.708829 79.588214 
L 614.838136 79.61105 
L 616.777746 79.528156 
L 616.907053 79.511951 
L 617.384496 79.526264 
L 617.513803 79.476521 
L 621.930147 79.638532 
L 622.03956 79.597929 
L 622.059454 79.618212 
L 622.636364 79.60221 
L 622.636364 79.60221 
" clip-path="url(#p7089074ad9)" style="fill: none; stroke: #ff7f0e; stroke-width: 1.5; stroke-linecap: square"/>
   </g>
   <g id="patch_3">
    <path d="M 90 320.4 
L 90 43.2 
" style="fill: none; stroke: #000000; stroke-width: 0.8; stroke-linejoin: miter; stroke-linecap: square"/>
   </g>
   <g id="patch_4">
    <path d="M 648 320.4 
L 648 43.2 
" style="fill: none; stroke: #000000; stroke-width: 0.8; stroke-linejoin: miter; stroke-linecap: square"/>
   </g>
   <g id="patch_5">
    <path d="M 90 320.4 
L 648 320.4 
" style="fill: none; stroke: #000000; stroke-width: 0.8; stroke-linejoin: miter; stroke-linecap: square"/>
   </g>
   <g id="patch_6">
    <path d="M 90 43.2 
L 648 43.2 
" style="fill: none; stroke: #000000; stroke-width: 0.8; stroke-linejoin: miter; stroke-linecap: square"/>
   </g>
   <g id="text_16">
    <!-- Evolution of rewards (PPO ) -->
    <g transform="translate(287.069062 37.2) scale(0.12 -0.12)">
     <defs>
      <path id="DejaVuSans-45" d="M 628 4666 
L 3578 4666 
L 3578 4134 
L 1259 4134 
L 1259 2753 
L 3481 2753 
L 3481 2222 
L 1259 2222 
L 1259 531 
L 3634 531 
L 3634 0 
L 628 0 
L 628 4666 
z
" transform="scale(0.015625)"/>
      <path id="DejaVuSans-6f" d="M 1959 3097 
Q 1497 3097 1228 2736 
Q 959 2375 959 1747 
Q 959 1119 1226 758 
Q 1494 397 1959 397 
Q 2419 397 2687 759 
Q 2956 1122 2956 1747 
Q 2956 2369 2687 2733 
Q 2419 3097 1959 3097 
z
M 1959 3584 
Q 2709 3584 3137 3096 
Q 3566 2609 3566 1747 
Q 3566 888 3137 398 
Q 2709 -91 1959 -91 
Q 1206 -91 779 398 
Q 353 888 353 1747 
Q 353 2609 779 3096 
Q 1206 3584 1959 3584 
z
" transform="scale(0.015625)"/>
      <path id="DejaVuSans-6c" d="M 603 4863 
L 1178 4863 
L 1178 0 
L 603 0 
L 603 4863 
z
" transform="scale(0.015625)"/>
      <path id="DejaVuSans-75" d="M 544 1381 
L 544 3500 
L 1119 3500 
L 1119 1403 
Q 1119 906 1312 657 
Q 1506 409 1894 409 
Q 2359 409 2629 706 
Q 2900 1003 2900 1516 
L 2900 3500 
L 3475 3500 
L 3475 0 
L 2900 0 
L 2900 538 
Q 2691 219 2414 64 
Q 2138 -91 1772 -91 
Q 1169 -91 856 284 
Q 544 659 544 1381 
z
M 1991 3584 
L 1991 3584 
z
" transform="scale(0.015625)"/>
      <path id="DejaVuSans-6e" d="M 3513 2113 
L 3513 0 
L 2938 0 
L 2938 2094 
Q 2938 2591 2744 2837 
Q 2550 3084 2163 3084 
Q 1697 3084 1428 2787 
Q 1159 2491 1159 1978 
L 1159 0 
L 581 0 
L 581 3500 
L 1159 3500 
L 1159 2956 
Q 1366 3272 1645 3428 
Q 1925 3584 2291 3584 
Q 2894 3584 3203 3211 
Q 3513 2838 3513 2113 
z
" transform="scale(0.015625)"/>
      <path id="DejaVuSans-66" d="M 2375 4863 
L 2375 4384 
L 1825 4384 
Q 1516 4384 1395 4259 
Q 1275 4134 1275 3809 
L 1275 3500 
L 2222 3500 
L 2222 3053 
L 1275 3053 
L 1275 0 
L 697 0 
L 697 3053 
L 147 3053 
L 147 3500 
L 697 3500 
L 697 3744 
Q 697 4328 969 4595 
Q 1241 4863 1831 4863 
L 2375 4863 
z
" transform="scale(0.015625)"/>
      <path id="DejaVuSans-28" d="M 1984 4856 
Q 1566 4138 1362 3434 
Q 1159 2731 1159 2009 
Q 1159 1288 1364 580 
Q 1569 -128 1984 -844 
L 1484 -844 
Q 1016 -109 783 600 
Q 550 1309 550 2009 
Q 550 2706 781 3412 
Q 1013 4119 1484 4856 
L 1984 4856 
z
" transform="scale(0.015625)"/>
      <path id="DejaVuSans-50" d="M 1259 4147 
L 1259 2394 
L 2053 2394 
Q 2494 2394 2734 2622 
Q 2975 2850 2975 3272 
Q 2975 3691 2734 3919 
Q 2494 4147 2053 4147 
L 1259 4147 
z
M 628 4666 
L 2053 4666 
Q 2838 4666 3239 4311 
Q 3641 3956 3641 3272 
Q 3641 2581 3239 2228 
Q 2838 1875 2053 1875 
L 1259 1875 
L 1259 0 
L 628 0 
L 628 4666 
z
" transform="scale(0.015625)"/>
      <path id="DejaVuSans-4f" d="M 2522 4238 
Q 1834 4238 1429 3725 
Q 1025 3213 1025 2328 
Q 1025 1447 1429 934 
Q 1834 422 2522 422 
Q 3209 422 3611 934 
Q 4013 1447 4013 2328 
Q 4013 3213 3611 3725 
Q 3209 4238 2522 4238 
z
M 2522 4750 
Q 3503 4750 4090 4092 
Q 4678 3434 4678 2328 
Q 4678 1225 4090 567 
Q 3503 -91 2522 -91 
Q 1538 -91 948 565 
Q 359 1222 359 2328 
Q 359 3434 948 4092 
Q 1538 4750 2522 4750 
z
" transform="scale(0.015625)"/>
      <path id="DejaVuSans-29" d="M 513 4856 
L 1013 4856 
Q 1481 4119 1714 3412 
Q 1947 2706 1947 2009 
Q 1947 1309 1714 600 
Q 1481 -109 1013 -844 
L 513 -844 
Q 928 -128 1133 580 
Q 1338 1288 1338 2009 
Q 1338 2731 1133 3434 
Q 928 4138 513 4856 
z
" transform="scale(0.015625)"/>
     </defs>
     <use xlink:href="#DejaVuSans-45"/>
     <use xlink:href="#DejaVuSans-76" x="63.183594"/>
     <use xlink:href="#DejaVuSans-6f" x="122.363281"/>
     <use xlink:href="#DejaVuSans-6c" x="183.544922"/>
     <use xlink:href="#DejaVuSans-75" x="211.328125"/>
     <use xlink:href="#DejaVuSans-74" x="274.707031"/>
     <use xlink:href="#DejaVuSans-69" x="313.916016"/>
     <use xlink:href="#DejaVuSans-6f" x="341.699219"/>
     <use xlink:href="#DejaVuSans-6e" x="402.880859"/>
     <use xlink:href="#DejaVuSans-20" x="466.259766"/>
     <use xlink:href="#DejaVuSans-6f" x="498.046875"/>
     <use xlink:href="#DejaVuSans-66" x="559.228516"/>
     <use xlink:href="#DejaVuSans-20" x="594.433594"/>
     <use xlink:href="#DejaVuSans-72" x="626.220703"/>
     <use xlink:href="#DejaVuSans-65" x="665.083984"/>
     <use xlink:href="#DejaVuSans-77" x="726.607422"/>
     <use xlink:href="#DejaVuSans-61" x="808.394531"/>
     <use xlink:href="#DejaVuSans-72" x="869.673828"/>
     <use xlink:href="#DejaVuSans-64" x="909.037109"/>
     <use xlink:href="#DejaVuSans-73" x="972.513672"/>
     <use xlink:href="#DejaVuSans-20" x="1024.613281"/>
     <use xlink:href="#DejaVuSans-28" x="1056.400391"/>
     <use xlink:href="#DejaVuSans-50" x="1095.414062"/>
     <use xlink:href="#DejaVuSans-50" x="1155.716797"/>
     <use xlink:href="#DejaVuSans-4f" x="1216.019531"/>
     <use xlink:href="#DejaVuSans-20" x="1294.730469"/>
     <use xlink:href="#DejaVuSans-29" x="1326.517578"/>
    </g>
   </g>
  </g>
 </g>
 <defs>
  <clipPath id="p7089074ad9">
   <rect x="90" y="43.2" width="558" height="277.2"/>
  </clipPath>
 </defs>
</svg>
