<?xml version="1.0" encoding="utf-8" standalone="no"?>
<!DOCTYPE svg PUBLIC "-//W3C//DTD SVG 1.1//EN"
  "http://www.w3.org/Graphics/SVG/1.1/DTD/svg11.dtd">
<svg xmlns:xlink="http://www.w3.org/1999/xlink" width="720pt" height="360pt" viewBox="0 0 720 360" xmlns="http://www.w3.org/2000/svg" version="1.1">
 <metadata>
  <rdf:RDF xmlns:dc="http://purl.org/dc/elements/1.1/" xmlns:cc="http://creativecommons.org/ns#" xmlns:rdf="http://www.w3.org/1999/02/22-rdf-syntax-ns#">
   <cc:Work>
    <dc:type rdf:resource="http://purl.org/dc/dcmitype/StillImage"/>
    <dc:date>2024-03-15T20:07:25.064777</dc:date>
    <dc:format>image/svg+xml</dc:format>
    <dc:creator>
     <cc:Agent>
      <dc:title>Matplotlib v3.7.0, https://matplotlib.org/</dc:title>
     </cc:Agent>
    </dc:creator>
   </cc:Work>
  </rdf:RDF>
 </metadata>
 <defs>
  <style type="text/css">*{stroke-linejoin: round; stroke-linecap: butt}</style>
 </defs>
 <g id="figure_1">
  <g id="patch_1">
   <path d="M 0 360 
L 720 360 
L 720 0 
L 0 0 
z
" style="fill: #ffffff"/>
  </g>
  <g id="axes_1">
   <g id="patch_2">
    <path d="M 90 320.4 
L 648 320.4 
L 648 43.2 
L 90 43.2 
z
" style="fill: #ffffff"/>
   </g>
   <g id="matplotlib.axis_1">
    <g id="xtick_1">
     <g id="line2d_1">
      <defs>
       <path id="m3e5b7744ab" d="M 0 0 
L 0 3.5 
" style="stroke: #000000; stroke-width: 0.8"/>
      </defs>
      <g>
       <use xlink:href="#m3e5b7744ab" x="115.360277" y="320.4" style="stroke: #000000; stroke-width: 0.8"/>
      </g>
     </g>
     <g id="text_1">
      <!-- 0 -->
      <g transform="translate(112.179027 334.998438) scale(0.1 -0.1)">
       <defs>
        <path id="DejaVuSans-30" d="M 2034 4250 
Q 1547 4250 1301 3770 
Q 1056 3291 1056 2328 
Q 1056 1369 1301 889 
Q 1547 409 2034 409 
Q 2525 409 2770 889 
Q 3016 1369 3016 2328 
Q 3016 3291 2770 3770 
Q 2525 4250 2034 4250 
z
M 2034 4750 
Q 2819 4750 3233 4129 
Q 3647 3509 3647 2328 
Q 3647 1150 3233 529 
Q 2819 -91 2034 -91 
Q 1250 -91 836 529 
Q 422 1150 422 2328 
Q 422 3509 836 4129 
Q 1250 4750 2034 4750 
z
" transform="scale(0.015625)"/>
       </defs>
       <use xlink:href="#DejaVuSans-30"/>
      </g>
     </g>
    </g>
    <g id="xtick_2">
     <g id="line2d_2">
      <g>
       <use xlink:href="#m3e5b7744ab" x="182.549163" y="320.4" style="stroke: #000000; stroke-width: 0.8"/>
      </g>
     </g>
     <g id="text_2">
      <!-- 20000 -->
      <g transform="translate(166.642913 334.998438) scale(0.1 -0.1)">
       <defs>
        <path id="DejaVuSans-32" d="M 1228 531 
L 3431 531 
L 3431 0 
L 469 0 
L 469 531 
Q 828 903 1448 1529 
Q 2069 2156 2228 2338 
Q 2531 2678 2651 2914 
Q 2772 3150 2772 3378 
Q 2772 3750 2511 3984 
Q 2250 4219 1831 4219 
Q 1534 4219 1204 4116 
Q 875 4013 500 3803 
L 500 4441 
Q 881 4594 1212 4672 
Q 1544 4750 1819 4750 
Q 2544 4750 2975 4387 
Q 3406 4025 3406 3419 
Q 3406 3131 3298 2873 
Q 3191 2616 2906 2266 
Q 2828 2175 2409 1742 
Q 1991 1309 1228 531 
z
" transform="scale(0.015625)"/>
       </defs>
       <use xlink:href="#DejaVuSans-32"/>
       <use xlink:href="#DejaVuSans-30" x="63.623047"/>
       <use xlink:href="#DejaVuSans-30" x="127.246094"/>
       <use xlink:href="#DejaVuSans-30" x="190.869141"/>
       <use xlink:href="#DejaVuSans-30" x="254.492188"/>
      </g>
     </g>
    </g>
    <g id="xtick_3">
     <g id="line2d_3">
      <g>
       <use xlink:href="#m3e5b7744ab" x="249.738048" y="320.4" style="stroke: #000000; stroke-width: 0.8"/>
      </g>
     </g>
     <g id="text_3">
      <!-- 40000 -->
      <g transform="translate(233.831798 334.998438) scale(0.1 -0.1)">
       <defs>
        <path id="DejaVuSans-34" d="M 2419 4116 
L 825 1625 
L 2419 1625 
L 2419 4116 
z
M 2253 4666 
L 3047 4666 
L 3047 1625 
L 3713 1625 
L 3713 1100 
L 3047 1100 
L 3047 0 
L 2419 0 
L 2419 1100 
L 313 1100 
L 313 1709 
L 2253 4666 
z
" transform="scale(0.015625)"/>
       </defs>
       <use xlink:href="#DejaVuSans-34"/>
       <use xlink:href="#DejaVuSans-30" x="63.623047"/>
       <use xlink:href="#DejaVuSans-30" x="127.246094"/>
       <use xlink:href="#DejaVuSans-30" x="190.869141"/>
       <use xlink:href="#DejaVuSans-30" x="254.492188"/>
      </g>
     </g>
    </g>
    <g id="xtick_4">
     <g id="line2d_4">
      <g>
       <use xlink:href="#m3e5b7744ab" x="316.926934" y="320.4" style="stroke: #000000; stroke-width: 0.8"/>
      </g>
     </g>
     <g id="text_4">
      <!-- 60000 -->
      <g transform="translate(301.020684 334.998438) scale(0.1 -0.1)">
       <defs>
        <path id="DejaVuSans-36" d="M 2113 2584 
Q 1688 2584 1439 2293 
Q 1191 2003 1191 1497 
Q 1191 994 1439 701 
Q 1688 409 2113 409 
Q 2538 409 2786 701 
Q 3034 994 3034 1497 
Q 3034 2003 2786 2293 
Q 2538 2584 2113 2584 
z
M 3366 4563 
L 3366 3988 
Q 3128 4100 2886 4159 
Q 2644 4219 2406 4219 
Q 1781 4219 1451 3797 
Q 1122 3375 1075 2522 
Q 1259 2794 1537 2939 
Q 1816 3084 2150 3084 
Q 2853 3084 3261 2657 
Q 3669 2231 3669 1497 
Q 3669 778 3244 343 
Q 2819 -91 2113 -91 
Q 1303 -91 875 529 
Q 447 1150 447 2328 
Q 447 3434 972 4092 
Q 1497 4750 2381 4750 
Q 2619 4750 2861 4703 
Q 3103 4656 3366 4563 
z
" transform="scale(0.015625)"/>
       </defs>
       <use xlink:href="#DejaVuSans-36"/>
       <use xlink:href="#DejaVuSans-30" x="63.623047"/>
       <use xlink:href="#DejaVuSans-30" x="127.246094"/>
       <use xlink:href="#DejaVuSans-30" x="190.869141"/>
       <use xlink:href="#DejaVuSans-30" x="254.492188"/>
      </g>
     </g>
    </g>
    <g id="xtick_5">
     <g id="line2d_5">
      <g>
       <use xlink:href="#m3e5b7744ab" x="384.11582" y="320.4" style="stroke: #000000; stroke-width: 0.8"/>
      </g>
     </g>
     <g id="text_5">
      <!-- 80000 -->
      <g transform="translate(368.20957 334.998438) scale(0.1 -0.1)">
       <defs>
        <path id="DejaVuSans-38" d="M 2034 2216 
Q 1584 2216 1326 1975 
Q 1069 1734 1069 1313 
Q 1069 891 1326 650 
Q 1584 409 2034 409 
Q 2484 409 2743 651 
Q 3003 894 3003 1313 
Q 3003 1734 2745 1975 
Q 2488 2216 2034 2216 
z
M 1403 2484 
Q 997 2584 770 2862 
Q 544 3141 544 3541 
Q 544 4100 942 4425 
Q 1341 4750 2034 4750 
Q 2731 4750 3128 4425 
Q 3525 4100 3525 3541 
Q 3525 3141 3298 2862 
Q 3072 2584 2669 2484 
Q 3125 2378 3379 2068 
Q 3634 1759 3634 1313 
Q 3634 634 3220 271 
Q 2806 -91 2034 -91 
Q 1263 -91 848 271 
Q 434 634 434 1313 
Q 434 1759 690 2068 
Q 947 2378 1403 2484 
z
M 1172 3481 
Q 1172 3119 1398 2916 
Q 1625 2713 2034 2713 
Q 2441 2713 2670 2916 
Q 2900 3119 2900 3481 
Q 2900 3844 2670 4047 
Q 2441 4250 2034 4250 
Q 1625 4250 1398 4047 
Q 1172 3844 1172 3481 
z
" transform="scale(0.015625)"/>
       </defs>
       <use xlink:href="#DejaVuSans-38"/>
       <use xlink:href="#DejaVuSans-30" x="63.623047"/>
       <use xlink:href="#DejaVuSans-30" x="127.246094"/>
       <use xlink:href="#DejaVuSans-30" x="190.869141"/>
       <use xlink:href="#DejaVuSans-30" x="254.492188"/>
      </g>
     </g>
    </g>
    <g id="xtick_6">
     <g id="line2d_6">
      <g>
       <use xlink:href="#m3e5b7744ab" x="451.304705" y="320.4" style="stroke: #000000; stroke-width: 0.8"/>
      </g>
     </g>
     <g id="text_6">
      <!-- 100000 -->
      <g transform="translate(432.217205 334.998438) scale(0.1 -0.1)">
       <defs>
        <path id="DejaVuSans-31" d="M 794 531 
L 1825 531 
L 1825 4091 
L 703 3866 
L 703 4441 
L 1819 4666 
L 2450 4666 
L 2450 531 
L 3481 531 
L 3481 0 
L 794 0 
L 794 531 
z
" transform="scale(0.015625)"/>
       </defs>
       <use xlink:href="#DejaVuSans-31"/>
       <use xlink:href="#DejaVuSans-30" x="63.623047"/>
       <use xlink:href="#DejaVuSans-30" x="127.246094"/>
       <use xlink:href="#DejaVuSans-30" x="190.869141"/>
       <use xlink:href="#DejaVuSans-30" x="254.492188"/>
       <use xlink:href="#DejaVuSans-30" x="318.115234"/>
      </g>
     </g>
    </g>
    <g id="xtick_7">
     <g id="line2d_7">
      <g>
       <use xlink:href="#m3e5b7744ab" x="518.493591" y="320.4" style="stroke: #000000; stroke-width: 0.8"/>
      </g>
     </g>
     <g id="text_7">
      <!-- 120000 -->
      <g transform="translate(499.406091 334.998438) scale(0.1 -0.1)">
       <use xlink:href="#DejaVuSans-31"/>
       <use xlink:href="#DejaVuSans-32" x="63.623047"/>
       <use xlink:href="#DejaVuSans-30" x="127.246094"/>
       <use xlink:href="#DejaVuSans-30" x="190.869141"/>
       <use xlink:href="#DejaVuSans-30" x="254.492188"/>
       <use xlink:href="#DejaVuSans-30" x="318.115234"/>
      </g>
     </g>
    </g>
    <g id="xtick_8">
     <g id="line2d_8">
      <g>
       <use xlink:href="#m3e5b7744ab" x="585.682477" y="320.4" style="stroke: #000000; stroke-width: 0.8"/>
      </g>
     </g>
     <g id="text_8">
      <!-- 140000 -->
      <g transform="translate(566.594977 334.998438) scale(0.1 -0.1)">
       <use xlink:href="#DejaVuSans-31"/>
       <use xlink:href="#DejaVuSans-34" x="63.623047"/>
       <use xlink:href="#DejaVuSans-30" x="127.246094"/>
       <use xlink:href="#DejaVuSans-30" x="190.869141"/>
       <use xlink:href="#DejaVuSans-30" x="254.492188"/>
       <use xlink:href="#DejaVuSans-30" x="318.115234"/>
      </g>
     </g>
    </g>
    <g id="text_9">
     <!-- Time step -->
     <g transform="translate(344.361719 348.676562) scale(0.1 -0.1)">
      <defs>
       <path id="DejaVuSans-54" d="M -19 4666 
L 3928 4666 
L 3928 4134 
L 2272 4134 
L 2272 0 
L 1638 0 
L 1638 4134 
L -19 4134 
L -19 4666 
z
" transform="scale(0.015625)"/>
       <path id="DejaVuSans-69" d="M 603 3500 
L 1178 3500 
L 1178 0 
L 603 0 
L 603 3500 
z
M 603 4863 
L 1178 4863 
L 1178 4134 
L 603 4134 
L 603 4863 
z
" transform="scale(0.015625)"/>
       <path id="DejaVuSans-6d" d="M 3328 2828 
Q 3544 3216 3844 3400 
Q 4144 3584 4550 3584 
Q 5097 3584 5394 3201 
Q 5691 2819 5691 2113 
L 5691 0 
L 5113 0 
L 5113 2094 
Q 5113 2597 4934 2840 
Q 4756 3084 4391 3084 
Q 3944 3084 3684 2787 
Q 3425 2491 3425 1978 
L 3425 0 
L 2847 0 
L 2847 2094 
Q 2847 2600 2669 2842 
Q 2491 3084 2119 3084 
Q 1678 3084 1418 2786 
Q 1159 2488 1159 1978 
L 1159 0 
L 581 0 
L 581 3500 
L 1159 3500 
L 1159 2956 
Q 1356 3278 1631 3431 
Q 1906 3584 2284 3584 
Q 2666 3584 2933 3390 
Q 3200 3197 3328 2828 
z
" transform="scale(0.015625)"/>
       <path id="DejaVuSans-65" d="M 3597 1894 
L 3597 1613 
L 953 1613 
Q 991 1019 1311 708 
Q 1631 397 2203 397 
Q 2534 397 2845 478 
Q 3156 559 3463 722 
L 3463 178 
Q 3153 47 2828 -22 
Q 2503 -91 2169 -91 
Q 1331 -91 842 396 
Q 353 884 353 1716 
Q 353 2575 817 3079 
Q 1281 3584 2069 3584 
Q 2775 3584 3186 3129 
Q 3597 2675 3597 1894 
z
M 3022 2063 
Q 3016 2534 2758 2815 
Q 2500 3097 2075 3097 
Q 1594 3097 1305 2825 
Q 1016 2553 972 2059 
L 3022 2063 
z
" transform="scale(0.015625)"/>
       <path id="DejaVuSans-20" transform="scale(0.015625)"/>
       <path id="DejaVuSans-73" d="M 2834 3397 
L 2834 2853 
Q 2591 2978 2328 3040 
Q 2066 3103 1784 3103 
Q 1356 3103 1142 2972 
Q 928 2841 928 2578 
Q 928 2378 1081 2264 
Q 1234 2150 1697 2047 
L 1894 2003 
Q 2506 1872 2764 1633 
Q 3022 1394 3022 966 
Q 3022 478 2636 193 
Q 2250 -91 1575 -91 
Q 1294 -91 989 -36 
Q 684 19 347 128 
L 347 722 
Q 666 556 975 473 
Q 1284 391 1588 391 
Q 1994 391 2212 530 
Q 2431 669 2431 922 
Q 2431 1156 2273 1281 
Q 2116 1406 1581 1522 
L 1381 1569 
Q 847 1681 609 1914 
Q 372 2147 372 2553 
Q 372 3047 722 3315 
Q 1072 3584 1716 3584 
Q 2034 3584 2315 3537 
Q 2597 3491 2834 3397 
z
" transform="scale(0.015625)"/>
       <path id="DejaVuSans-74" d="M 1172 4494 
L 1172 3500 
L 2356 3500 
L 2356 3053 
L 1172 3053 
L 1172 1153 
Q 1172 725 1289 603 
Q 1406 481 1766 481 
L 2356 481 
L 2356 0 
L 1766 0 
Q 1100 0 847 248 
Q 594 497 594 1153 
L 594 3053 
L 172 3053 
L 172 3500 
L 594 3500 
L 594 4494 
L 1172 4494 
z
" transform="scale(0.015625)"/>
       <path id="DejaVuSans-70" d="M 1159 525 
L 1159 -1331 
L 581 -1331 
L 581 3500 
L 1159 3500 
L 1159 2969 
Q 1341 3281 1617 3432 
Q 1894 3584 2278 3584 
Q 2916 3584 3314 3078 
Q 3713 2572 3713 1747 
Q 3713 922 3314 415 
Q 2916 -91 2278 -91 
Q 1894 -91 1617 61 
Q 1341 213 1159 525 
z
M 3116 1747 
Q 3116 2381 2855 2742 
Q 2594 3103 2138 3103 
Q 1681 3103 1420 2742 
Q 1159 2381 1159 1747 
Q 1159 1113 1420 752 
Q 1681 391 2138 391 
Q 2594 391 2855 752 
Q 3116 1113 3116 1747 
z
" transform="scale(0.015625)"/>
      </defs>
      <use xlink:href="#DejaVuSans-54"/>
      <use xlink:href="#DejaVuSans-69" x="57.958984"/>
      <use xlink:href="#DejaVuSans-6d" x="85.742188"/>
      <use xlink:href="#DejaVuSans-65" x="183.154297"/>
      <use xlink:href="#DejaVuSans-20" x="244.677734"/>
      <use xlink:href="#DejaVuSans-73" x="276.464844"/>
      <use xlink:href="#DejaVuSans-74" x="328.564453"/>
      <use xlink:href="#DejaVuSans-65" x="367.773438"/>
      <use xlink:href="#DejaVuSans-70" x="429.296875"/>
     </g>
    </g>
   </g>
   <g id="matplotlib.axis_2">
    <g id="ytick_1">
     <g id="line2d_9">
      <defs>
       <path id="m1f789853e1" d="M 0 0 
L -3.5 0 
" style="stroke: #000000; stroke-width: 0.8"/>
      </defs>
      <g>
       <use xlink:href="#m1f789853e1" x="90" y="318.331905" style="stroke: #000000; stroke-width: 0.8"/>
      </g>
     </g>
     <g id="text_10">
      <!-- −80 -->
      <g transform="translate(61.895313 322.131124) scale(0.1 -0.1)">
       <defs>
        <path id="DejaVuSans-2212" d="M 678 2272 
L 4684 2272 
L 4684 1741 
L 678 1741 
L 678 2272 
z
" transform="scale(0.015625)"/>
       </defs>
       <use xlink:href="#DejaVuSans-2212"/>
       <use xlink:href="#DejaVuSans-38" x="83.789062"/>
       <use xlink:href="#DejaVuSans-30" x="147.412109"/>
      </g>
     </g>
    </g>
    <g id="ytick_2">
     <g id="line2d_10">
      <g>
       <use xlink:href="#m1f789853e1" x="90" y="285.515417" style="stroke: #000000; stroke-width: 0.8"/>
      </g>
     </g>
     <g id="text_11">
      <!-- −70 -->
      <g transform="translate(61.895313 289.314636) scale(0.1 -0.1)">
       <defs>
        <path id="DejaVuSans-37" d="M 525 4666 
L 3525 4666 
L 3525 4397 
L 1831 0 
L 1172 0 
L 2766 4134 
L 525 4134 
L 525 4666 
z
" transform="scale(0.015625)"/>
       </defs>
       <use xlink:href="#DejaVuSans-2212"/>
       <use xlink:href="#DejaVuSans-37" x="83.789062"/>
       <use xlink:href="#DejaVuSans-30" x="147.412109"/>
      </g>
     </g>
    </g>
    <g id="ytick_3">
     <g id="line2d_11">
      <g>
       <use xlink:href="#m1f789853e1" x="90" y="252.698929" style="stroke: #000000; stroke-width: 0.8"/>
      </g>
     </g>
     <g id="text_12">
      <!-- −60 -->
      <g transform="translate(61.895313 256.498147) scale(0.1 -0.1)">
       <use xlink:href="#DejaVuSans-2212"/>
       <use xlink:href="#DejaVuSans-36" x="83.789062"/>
       <use xlink:href="#DejaVuSans-30" x="147.412109"/>
      </g>
     </g>
    </g>
    <g id="ytick_4">
     <g id="line2d_12">
      <g>
       <use xlink:href="#m1f789853e1" x="90" y="219.882441" style="stroke: #000000; stroke-width: 0.8"/>
      </g>
     </g>
     <g id="text_13">
      <!-- −50 -->
      <g transform="translate(61.895313 223.681659) scale(0.1 -0.1)">
       <defs>
        <path id="DejaVuSans-35" d="M 691 4666 
L 3169 4666 
L 3169 4134 
L 1269 4134 
L 1269 2991 
Q 1406 3038 1543 3061 
Q 1681 3084 1819 3084 
Q 2600 3084 3056 2656 
Q 3513 2228 3513 1497 
Q 3513 744 3044 326 
Q 2575 -91 1722 -91 
Q 1428 -91 1123 -41 
Q 819 9 494 109 
L 494 744 
Q 775 591 1075 516 
Q 1375 441 1709 441 
Q 2250 441 2565 725 
Q 2881 1009 2881 1497 
Q 2881 1984 2565 2268 
Q 2250 2553 1709 2553 
Q 1456 2553 1204 2497 
Q 953 2441 691 2322 
L 691 4666 
z
" transform="scale(0.015625)"/>
       </defs>
       <use xlink:href="#DejaVuSans-2212"/>
       <use xlink:href="#DejaVuSans-35" x="83.789062"/>
       <use xlink:href="#DejaVuSans-30" x="147.412109"/>
      </g>
     </g>
    </g>
    <g id="ytick_5">
     <g id="line2d_13">
      <g>
       <use xlink:href="#m1f789853e1" x="90" y="187.065952" style="stroke: #000000; stroke-width: 0.8"/>
      </g>
     </g>
     <g id="text_14">
      <!-- −40 -->
      <g transform="translate(61.895313 190.865171) scale(0.1 -0.1)">
       <use xlink:href="#DejaVuSans-2212"/>
       <use xlink:href="#DejaVuSans-34" x="83.789062"/>
       <use xlink:href="#DejaVuSans-30" x="147.412109"/>
      </g>
     </g>
    </g>
    <g id="ytick_6">
     <g id="line2d_14">
      <g>
       <use xlink:href="#m1f789853e1" x="90" y="154.249464" style="stroke: #000000; stroke-width: 0.8"/>
      </g>
     </g>
     <g id="text_15">
      <!-- −30 -->
      <g transform="translate(61.895313 158.048683) scale(0.1 -0.1)">
       <defs>
        <path id="DejaVuSans-33" d="M 2597 2516 
Q 3050 2419 3304 2112 
Q 3559 1806 3559 1356 
Q 3559 666 3084 287 
Q 2609 -91 1734 -91 
Q 1441 -91 1130 -33 
Q 819 25 488 141 
L 488 750 
Q 750 597 1062 519 
Q 1375 441 1716 441 
Q 2309 441 2620 675 
Q 2931 909 2931 1356 
Q 2931 1769 2642 2001 
Q 2353 2234 1838 2234 
L 1294 2234 
L 1294 2753 
L 1863 2753 
Q 2328 2753 2575 2939 
Q 2822 3125 2822 3475 
Q 2822 3834 2567 4026 
Q 2313 4219 1838 4219 
Q 1578 4219 1281 4162 
Q 984 4106 628 3988 
L 628 4550 
Q 988 4650 1302 4700 
Q 1616 4750 1894 4750 
Q 2613 4750 3031 4423 
Q 3450 4097 3450 3541 
Q 3450 3153 3228 2886 
Q 3006 2619 2597 2516 
z
" transform="scale(0.015625)"/>
       </defs>
       <use xlink:href="#DejaVuSans-2212"/>
       <use xlink:href="#DejaVuSans-33" x="83.789062"/>
       <use xlink:href="#DejaVuSans-30" x="147.412109"/>
      </g>
     </g>
    </g>
    <g id="ytick_7">
     <g id="line2d_15">
      <g>
       <use xlink:href="#m1f789853e1" x="90" y="121.432976" style="stroke: #000000; stroke-width: 0.8"/>
      </g>
     </g>
     <g id="text_16">
      <!-- −20 -->
      <g transform="translate(61.895313 125.232195) scale(0.1 -0.1)">
       <use xlink:href="#DejaVuSans-2212"/>
       <use xlink:href="#DejaVuSans-32" x="83.789062"/>
       <use xlink:href="#DejaVuSans-30" x="147.412109"/>
      </g>
     </g>
    </g>
    <g id="ytick_8">
     <g id="line2d_16">
      <g>
       <use xlink:href="#m1f789853e1" x="90" y="88.616488" style="stroke: #000000; stroke-width: 0.8"/>
      </g>
     </g>
     <g id="text_17">
      <!-- −10 -->
      <g transform="translate(61.895313 92.415707) scale(0.1 -0.1)">
       <use xlink:href="#DejaVuSans-2212"/>
       <use xlink:href="#DejaVuSans-31" x="83.789062"/>
       <use xlink:href="#DejaVuSans-30" x="147.412109"/>
      </g>
     </g>
    </g>
    <g id="ytick_9">
     <g id="line2d_17">
      <g>
       <use xlink:href="#m1f789853e1" x="90" y="55.8" style="stroke: #000000; stroke-width: 0.8"/>
      </g>
     </g>
     <g id="text_18">
      <!-- 0 -->
      <g transform="translate(76.6375 59.599219) scale(0.1 -0.1)">
       <use xlink:href="#DejaVuSans-30"/>
      </g>
     </g>
    </g>
    <g id="text_19">
     <!-- Average reward -->
     <g transform="translate(55.815625 221.236719) rotate(-90) scale(0.1 -0.1)">
      <defs>
       <path id="DejaVuSans-41" d="M 2188 4044 
L 1331 1722 
L 3047 1722 
L 2188 4044 
z
M 1831 4666 
L 2547 4666 
L 4325 0 
L 3669 0 
L 3244 1197 
L 1141 1197 
L 716 0 
L 50 0 
L 1831 4666 
z
" transform="scale(0.015625)"/>
       <path id="DejaVuSans-76" d="M 191 3500 
L 800 3500 
L 1894 563 
L 2988 3500 
L 3597 3500 
L 2284 0 
L 1503 0 
L 191 3500 
z
" transform="scale(0.015625)"/>
       <path id="DejaVuSans-72" d="M 2631 2963 
Q 2534 3019 2420 3045 
Q 2306 3072 2169 3072 
Q 1681 3072 1420 2755 
Q 1159 2438 1159 1844 
L 1159 0 
L 581 0 
L 581 3500 
L 1159 3500 
L 1159 2956 
Q 1341 3275 1631 3429 
Q 1922 3584 2338 3584 
Q 2397 3584 2469 3576 
Q 2541 3569 2628 3553 
L 2631 2963 
z
" transform="scale(0.015625)"/>
       <path id="DejaVuSans-61" d="M 2194 1759 
Q 1497 1759 1228 1600 
Q 959 1441 959 1056 
Q 959 750 1161 570 
Q 1363 391 1709 391 
Q 2188 391 2477 730 
Q 2766 1069 2766 1631 
L 2766 1759 
L 2194 1759 
z
M 3341 1997 
L 3341 0 
L 2766 0 
L 2766 531 
Q 2569 213 2275 61 
Q 1981 -91 1556 -91 
Q 1019 -91 701 211 
Q 384 513 384 1019 
Q 384 1609 779 1909 
Q 1175 2209 1959 2209 
L 2766 2209 
L 2766 2266 
Q 2766 2663 2505 2880 
Q 2244 3097 1772 3097 
Q 1472 3097 1187 3025 
Q 903 2953 641 2809 
L 641 3341 
Q 956 3463 1253 3523 
Q 1550 3584 1831 3584 
Q 2591 3584 2966 3190 
Q 3341 2797 3341 1997 
z
" transform="scale(0.015625)"/>
       <path id="DejaVuSans-67" d="M 2906 1791 
Q 2906 2416 2648 2759 
Q 2391 3103 1925 3103 
Q 1463 3103 1205 2759 
Q 947 2416 947 1791 
Q 947 1169 1205 825 
Q 1463 481 1925 481 
Q 2391 481 2648 825 
Q 2906 1169 2906 1791 
z
M 3481 434 
Q 3481 -459 3084 -895 
Q 2688 -1331 1869 -1331 
Q 1566 -1331 1297 -1286 
Q 1028 -1241 775 -1147 
L 775 -588 
Q 1028 -725 1275 -790 
Q 1522 -856 1778 -856 
Q 2344 -856 2625 -561 
Q 2906 -266 2906 331 
L 2906 616 
Q 2728 306 2450 153 
Q 2172 0 1784 0 
Q 1141 0 747 490 
Q 353 981 353 1791 
Q 353 2603 747 3093 
Q 1141 3584 1784 3584 
Q 2172 3584 2450 3431 
Q 2728 3278 2906 2969 
L 2906 3500 
L 3481 3500 
L 3481 434 
z
" transform="scale(0.015625)"/>
       <path id="DejaVuSans-77" d="M 269 3500 
L 844 3500 
L 1563 769 
L 2278 3500 
L 2956 3500 
L 3675 769 
L 4391 3500 
L 4966 3500 
L 4050 0 
L 3372 0 
L 2619 2869 
L 1863 0 
L 1184 0 
L 269 3500 
z
" transform="scale(0.015625)"/>
       <path id="DejaVuSans-64" d="M 2906 2969 
L 2906 4863 
L 3481 4863 
L 3481 0 
L 2906 0 
L 2906 525 
Q 2725 213 2448 61 
Q 2172 -91 1784 -91 
Q 1150 -91 751 415 
Q 353 922 353 1747 
Q 353 2572 751 3078 
Q 1150 3584 1784 3584 
Q 2172 3584 2448 3432 
Q 2725 3281 2906 2969 
z
M 947 1747 
Q 947 1113 1208 752 
Q 1469 391 1925 391 
Q 2381 391 2643 752 
Q 2906 1113 2906 1747 
Q 2906 2381 2643 2742 
Q 2381 3103 1925 3103 
Q 1469 3103 1208 2742 
Q 947 2381 947 1747 
z
" transform="scale(0.015625)"/>
      </defs>
      <use xlink:href="#DejaVuSans-41"/>
      <use xlink:href="#DejaVuSans-76" x="62.533203"/>
      <use xlink:href="#DejaVuSans-65" x="121.712891"/>
      <use xlink:href="#DejaVuSans-72" x="183.236328"/>
      <use xlink:href="#DejaVuSans-61" x="224.349609"/>
      <use xlink:href="#DejaVuSans-67" x="285.628906"/>
      <use xlink:href="#DejaVuSans-65" x="349.105469"/>
      <use xlink:href="#DejaVuSans-20" x="410.628906"/>
      <use xlink:href="#DejaVuSans-72" x="442.416016"/>
      <use xlink:href="#DejaVuSans-65" x="481.279297"/>
      <use xlink:href="#DejaVuSans-77" x="542.802734"/>
      <use xlink:href="#DejaVuSans-61" x="624.589844"/>
      <use xlink:href="#DejaVuSans-72" x="685.869141"/>
      <use xlink:href="#DejaVuSans-64" x="725.232422"/>
     </g>
    </g>
   </g>
   <g id="line2d_18">
    <path d="M 115.363636 55.8 
L 622.636364 55.8 
L 622.636364 55.8 
" clip-path="url(#p58a4017e8e)" style="fill: none; stroke-dasharray: 5.55,2.4; stroke-dashoffset: 0; stroke: #1f77b4; stroke-width: 1.5"/>
   </g>
   <g id="line2d_19">
    <path d="M 115.363636 307.8 
L 115.370355 307.8 
L 115.40059 143.659797 
L 115.484576 205.819896 
L 115.514811 211.757489 
L 115.608876 189.706047 
L 115.665986 180.798918 
L 115.699581 192.094171 
L 115.713019 191.7358 
L 115.790286 201.33587 
L 115.733175 187.639875 
L 115.82388 193.305865 
L 115.88771 191.329948 
L 115.847396 197.260415 
L 115.931382 194.32809 
L 116.075839 204.786808 
L 116.079198 204.090607 
L 116.082557 203.400884 
L 116.163184 208.878369 
L 116.183341 205.446473 
L 116.304281 201.653288 
L 116.19006 205.544761 
L 116.311 201.757803 
L 116.354672 202.484161 
L 116.381548 199.705424 
L 116.418502 201.485539 
L 116.425221 200.605558 
L 116.499129 205.256223 
L 116.505847 204.394978 
L 116.636866 210.587249 
L 116.646944 209.413959 
L 116.67046 210.704834 
L 116.771244 207.657923 
L 116.882105 211.672695 
L 116.801479 207.242939 
L 116.902262 211.494029 
L 116.922419 210.4702 
L 116.97281 212.746086 
L 117.016483 211.133133 
L 117.140782 213.382343 
L 117.144142 213.20918 
L 117.255003 211.532812 
L 117.150861 213.480498 
L 117.268441 212.200087 
L 117.443132 222.475874 
L 117.496883 221.470253 
L 117.584229 220.780157 
L 117.597667 222.154437 
L 117.601026 221.910349 
L 117.607745 222.652821 
L 117.674934 220.937752 
L 117.708528 222.049581 
L 117.721966 221.17457 
L 117.785796 224.203116 
L 117.795874 223.562726 
L 117.81939 225.010203 
L 117.896657 223.263705 
L 117.94033 222.453375 
L 117.994081 224.050495 
L 117.997441 223.836164 
L 118.0008 224.045254 
L 118.074708 223.092121 
L 118.101583 223.427333 
L 118.168772 222.194991 
L 118.108302 223.503239 
L 118.222523 222.775027 
L 118.24268 223.382758 
L 118.313228 222.222636 
L 118.447606 220.539947 
L 118.336745 222.801649 
L 118.450966 220.639869 
L 118.454325 220.738316 
L 118.511436 219.185657 
L 118.514795 219.361141 
L 118.655892 217.694159 
L 118.672689 217.899105 
L 118.72644 216.726822 
L 118.736518 216.889028 
L 118.78691 216.742755 
L 118.810426 217.752285 
L 118.820505 217.581967 
L 118.85074 217.993847 
L 118.917928 217.284618 
L 118.924647 217.354718 
L 118.988477 216.394812 
L 119.025431 217.623004 
L 119.03215 217.366519 
L 119.166527 219.82938 
L 119.173246 219.546593 
L 119.220278 219.071092 
L 119.267311 220.046398 
L 119.27067 219.905293 
L 119.287467 220.090659 
L 119.358016 219.058541 
L 119.364735 219.399879 
L 119.472237 219.075071 
L 119.438642 220.39298 
L 119.475596 219.206561 
L 119.502472 219.71572 
L 119.569661 218.841198 
L 119.579739 219.16722 
L 119.734273 216.769854 
L 119.586458 219.168357 
L 119.747711 216.858646 
L 119.841776 217.820668 
L 119.794743 216.845818 
L 119.872011 217.584569 
L 119.888808 217.863508 
L 119.955997 217.501919 
L 119.982872 217.740891 
L 120.070218 217.401082 
L 120.029904 217.934144 
L 120.097093 217.508933 
L 120.130688 217.945313 
L 120.197877 217.279983 
L 120.312098 216.635725 
L 120.204596 217.374623 
L 120.325536 216.907224 
L 120.332254 217.033752 
L 120.396084 216.19216 
L 120.406162 216.469537 
L 120.426319 216.285216 
L 120.503586 216.849256 
L 120.506946 216.746448 
L 120.570775 217.305963 
L 120.597651 216.696664 
L 120.614448 216.732368 
L 120.658121 216.361469 
L 120.691715 216.788979 
L 120.718591 216.775381 
L 120.742107 217.003393 
L 120.812655 216.397317 
L 120.816014 216.540914 
L 120.943673 215.376302 
L 120.836171 216.636317 
L 120.953752 215.543066 
L 120.957111 215.683555 
L 121.057894 215.298256 
L 121.131802 215.009729 
L 121.08477 215.473327 
L 121.162037 215.391597 
L 121.232586 215.915534 
L 121.178834 215.273777 
L 121.276258 215.482645 
L 121.407277 216.131628 
L 121.306493 215.244199 
L 121.413996 215.990102 
L 121.420714 215.820155 
L 121.497982 216.503161 
L 121.649157 218.823584 
L 121.652516 218.738439 
L 121.686111 219.575536 
L 121.766737 218.57311 
L 121.874239 219.360434 
L 121.887677 219.030718 
L 121.891037 218.980513 
L 121.958225 219.507008 
L 121.978382 219.20087 
L 122.106041 220.014526 
L 122.032133 219.004589 
L 122.1094 219.934552 
L 122.183308 220.133111 
L 122.23034 219.66808 
L 122.240419 219.888342 
L 122.297529 219.215753 
L 122.321045 219.266903 
L 122.489018 217.918676 
L 122.751054 215.787181 
L 122.781289 216.193119 
L 122.808165 215.622967 
L 122.865275 215.874124 
L 122.892151 215.795244 
L 122.922386 216.206784 
L 122.969418 216.007868 
L 123.107155 217.265403 
L 123.113874 217.125485 
L 123.117234 217.057153 
L 123.187782 217.839818 
L 123.194501 217.700848 
L 123.32216 218.41988 
L 123.211298 217.678308 
L 123.325519 218.351293 
L 123.43974 217.474179 
L 123.473335 217.51591 
L 123.486773 217.728489 
L 123.557321 217.085996 
L 123.590915 216.826715 
L 123.634588 217.090108 
L 123.668183 217.007614 
L 123.671542 217.075099 
L 123.755528 216.542504 
L 123.994049 213.889267 
L 124.007487 213.93868 
L 124.010846 213.975131 
L 124.081394 213.537777 
L 124.198975 212.834351 
L 124.219131 212.982152 
L 124.279601 213.212453 
L 124.239288 212.883738 
L 124.326634 212.978342 
L 124.329993 212.920802 
L 124.393823 213.671699 
L 124.41062 213.415712 
L 124.524841 213.747528 
L 124.494606 213.387177 
L 124.5282 213.692901 
L 124.632343 213.302589 
L 124.541638 213.870065 
L 124.64914 213.526605 
L 124.766721 212.869925 
L 124.790237 213.002525 
L 124.796956 213.146836 
L 124.874223 212.504014 
L 124.938053 212.192752 
L 124.89438 212.544596 
L 124.995163 212.277077 
L 125.025398 212.350836 
L 125.065711 211.937609 
L 125.082509 211.988833 
L 125.102665 211.897312 
L 125.176573 212.200315 
L 125.183292 212.117469 
L 125.200089 212.304093 
L 125.277356 211.910986 
L 125.408375 210.915486 
L 125.294154 211.970929 
L 125.445329 210.995272 
L 125.519236 211.34716 
L 125.55619 211.001326 
L 125.670411 210.787497 
L 125.62002 211.080989 
L 125.673771 210.843501 
L 125.690568 211.117984 
L 125.777914 210.735292 
L 125.91901 210.120819 
L 125.92237 210.164431 
L 125.929089 210.250577 
L 125.996278 209.722998 
L 126.002996 209.844198 
L 126.033231 209.914609 
L 126.150812 209.32607 
L 126.157531 209.406243 
L 126.231439 209.051584 
L 126.241517 209.162932 
L 126.419567 208.12461 
L 126.251595 209.206534 
L 126.422927 208.178009 
L 126.52371 208.250659 
L 126.483397 207.802347 
L 126.530429 208.161093 
L 126.688323 207.418327 
L 126.543867 208.172801 
L 126.691682 207.467531 
L 126.70512 207.383677 
L 126.815982 207.666953 
L 126.940281 207.114701 
L 126.95036 207.287508 
L 127.024267 207.679825 
L 126.967157 207.19669 
L 127.06794 207.468492 
L 127.081378 207.407478 
L 127.141848 207.901726 
L 127.158645 207.68619 
L 127.212396 207.835289 
L 127.259429 207.538286 
L 127.262788 207.589241 
L 127.333336 207.299647 
L 127.299742 207.618684 
L 127.37029 207.580421 
L 127.400525 207.943355 
L 127.477792 207.537016 
L 127.595373 206.844955 
L 127.635686 206.973936 
L 127.639046 207.022361 
L 127.716313 206.5636 
L 127.719672 206.598013 
L 127.790221 205.983402 
L 127.877566 206.136161 
L 127.998506 207.095613 
L 128.028741 206.861532 
L 128.116087 206.73929 
L 128.045539 206.973661 
L 128.132884 206.934512 
L 128.200073 207.278556 
L 128.142962 206.914992 
L 128.253824 207.150422 
L 128.371405 206.93232 
L 128.300856 207.238535 
L 128.374764 206.978017 
L 128.378124 207.022099 
L 128.438594 206.756661 
L 128.475547 206.873865 
L 128.572971 206.499286 
L 128.499064 206.930711 
L 128.613285 206.571001 
L 128.616644 206.615956 
L 128.683833 206.122759 
L 128.690552 206.190464 
L 128.697271 206.213894 
L 128.878681 205.268849 
L 129.033215 205.806206 
L 129.043293 205.69746 
L 129.160874 205.344288 
L 129.056731 205.742093 
L 129.177671 205.458994 
L 129.197828 205.573401 
L 129.265017 205.073708 
L 129.422911 204.446416 
L 129.432989 204.460277 
L 129.436348 204.48494 
L 129.513616 204.276726 
L 129.516975 204.307755 
L 129.651353 204.042301 
L 129.654712 204.076286 
L 129.738698 203.814189 
L 129.856279 203.379195 
L 129.745417 203.816983 
L 129.879795 203.492171 
L 129.886514 203.557934 
L 129.953703 203.171269 
L 130.118316 202.54722 
L 130.121675 202.603445 
L 130.165348 202.646615 
L 130.205661 202.319428 
L 130.434103 201.131996 
L 130.444182 201.234847 
L 130.494573 200.921566 
L 130.538246 201.038159 
L 130.548325 201.14044 
L 130.615513 200.793004 
L 130.628951 200.811539 
L 130.770048 200.372827 
L 131.42178 197.51299 
L 130.776767 200.409934 
L 131.431858 197.529474 
L 131.435218 197.552519 
L 131.512485 197.366004 
L 131.525923 197.435638 
L 131.700614 196.824626 
L 131.546079 197.520724 
L 131.703973 196.847454 
L 131.710692 196.893047 
L 131.7846 196.637026 
L 131.798038 196.712149 
L 131.962651 196.04217 
L 131.96601 196.06478 
L 132.02648 195.719035 
L 132.20789 194.926258 
L 132.221328 194.990409 
L 132.231406 195.038658 
L 132.308673 194.725544 
L 132.577429 193.781773 
L 132.584148 193.805448 
L 132.621102 193.875467 
L 132.678212 193.619841 
L 132.701728 193.669093 
L 132.822668 193.345693 
L 132.829387 193.417456 
L 132.903295 193.133113 
L 132.920092 193.239886 
L 132.946968 193.090688 
L 132.997359 193.285235 
L 133.034313 193.170377 
L 133.037673 193.206636 
L 133.111581 192.85725 
L 133.11494 192.878998 
L 133.299709 192.289692 
L 133.360179 192.346876 
L 133.390414 192.177819 
L 133.397133 192.223179 
L 133.561746 191.818392 
L 133.575184 191.881502 
L 133.639013 191.623757 
L 133.770032 191.401935 
L 133.773391 191.424951 
L 133.78011 191.470804 
L 133.860737 191.265553 
L 134.035428 190.761885 
L 134.038787 190.782935 
L 134.042147 190.800045 
L 134.105976 190.585157 
L 134.368013 189.575626 
L 134.492312 189.362904 
L 134.509109 189.433595 
L 134.549423 189.511984 
L 134.609893 189.321452 
L 134.630049 189.353917 
L 134.771146 188.976657 
L 134.774505 188.997218 
L 134.831616 188.661946 
L 135.023104 188.12919 
L 135.070137 188.171244 
L 135.11045 187.981011 
L 135.214593 187.765368 
L 135.117169 188.00302 
L 135.244828 187.796828 
L 135.29186 187.895431 
L 135.322095 187.74855 
L 135.365768 187.867899 
L 135.540459 187.455234 
L 135.789058 186.822859 
L 135.815933 186.908317 
L 135.839449 186.949777 
L 135.889841 186.681319 
L 135.899919 186.730155 
L 136.044375 186.402999 
L 136.061173 186.462153 
L 136.128361 186.253683 
L 136.13508 186.257528 
L 136.222426 185.960143 
L 136.269458 186.088185 
L 136.276177 186.12733 
L 136.356804 185.976685 
L 136.360163 185.999825 
L 136.390398 186.084406 
L 136.575168 185.348738 
L 136.578527 185.369395 
L 136.642356 185.084321 
L 136.954785 183.881831 
L 136.958144 183.912953 
L 137.015255 183.815424 
L 137.058928 183.812736 
L 137.34784 183.035085 
L 137.065646 183.819282 
L 137.367996 183.074781 
L 137.388153 183.172105 
L 137.46542 182.930957 
L 137.482218 182.9608 
L 137.693863 182.237681 
L 137.697222 182.256566 
L 137.761051 181.996473 
L 137.986134 181.277017 
L 137.992853 181.298219 
L 137.996212 181.316994 
L 138.063401 181.077902 
L 138.234733 180.657786 
L 138.248171 180.68087 
L 138.281765 180.756634 
L 138.328797 180.587655 
L 138.342235 180.60961 
L 138.610991 179.755059 
L 138.67482 179.826362 
L 138.708415 179.698714 
L 138.79912 179.518613 
L 138.842792 179.563902 
L 138.866309 179.651832 
L 138.940216 179.501662 
L 139.10147 179.21964 
L 139.104829 179.257894 
L 139.195534 179.069447 
L 139.316474 178.939701 
L 139.252645 179.159476 
L 139.319834 178.961679 
L 139.353428 179.047199 
L 139.417257 178.807892 
L 139.534838 178.63307 
L 139.434055 178.815387 
L 139.554995 178.663228 
L 139.558354 178.683888 
L 139.625543 178.432784 
L 139.813672 178.037601 
L 139.817031 178.055426 
L 139.877501 177.829984 
L 139.88758 177.859792 
L 140.092506 177.393843 
L 140.095865 177.421898 
L 140.176492 177.193628 
L 140.566187 175.865718 
L 140.569547 175.8833 
L 140.643455 175.684729 
L 141.557223 173.926046 
L 141.560583 173.947012 
L 141.570661 173.979522 
L 141.63785 173.754958 
L 141.644569 173.758028 
L 141.664726 173.819886 
L 141.829338 173.44417 
L 141.846136 173.475791 
L 141.913325 173.252519 
L 142.0645 173.040188 
L 142.067859 173.057139 
L 142.071218 173.074086 
L 142.135048 172.842649 
L 142.410522 172.298793 
L 142.413882 172.31562 
L 142.417241 172.350047 
L 142.504587 172.103847 
L 142.507946 172.120639 
L 142.581854 171.98446 
L 142.591932 172.003637 
L 142.870766 171.283979 
L 142.897642 171.313055 
L 142.954752 171.158271 
L 143.250383 170.365032 
L 143.253743 170.381584 
L 143.27054 170.432967 
L 143.341088 170.278156 
L 143.643438 169.504207 
L 143.646798 169.520631 
L 143.724065 169.366348 
L 143.979383 168.80042 
L 144.012977 168.870708 
L 144.070088 168.767631 
L 144.083526 168.774701 
L 144.305249 168.363109 
L 144.308608 168.379291 
L 144.372438 168.15146 
L 145.128313 166.643482 
L 145.138391 166.650394 
L 145.14511 166.701634 
L 145.239174 166.550601 
L 145.481054 166.040988 
L 145.484414 166.065291 
L 145.487773 166.089588 
L 145.5684 165.917791 
L 145.578478 165.95403 
L 145.874109 165.251389 
L 145.877469 165.282691 
L 145.880828 165.298378 
L 145.961455 165.148106 
L 146.189897 164.694034 
L 146.193257 164.709626 
L 146.196616 164.725215 
L 146.270524 164.555204 
L 146.29068 164.575099 
L 146.525842 164.038008 
L 146.529201 164.053503 
L 146.59639 163.865621 
L 146.868505 163.30323 
L 146.871864 163.318635 
L 146.949132 163.168048 
L 147.224606 162.614782 
L 147.26156 162.679182 
L 147.311951 162.51995 
L 147.705006 161.6041 
L 147.731882 161.647387 
L 147.80243 161.533984 
L 148.071186 161.035191 
L 148.074545 161.050263 
L 148.145094 160.878309 
L 148.390333 160.429274 
L 148.393693 160.444262 
L 148.400411 160.488645 
L 148.491116 160.318668 
L 148.746434 159.878517 
L 148.756513 159.897807 
L 148.83042 159.768688 
L 149.465355 158.075663 
L 149.478793 158.109029 
L 149.482153 158.133874 
L 149.535904 157.824338 
L 149.552701 157.836943 
L 149.55942 157.843507 
L 149.572857 157.711924 
L 149.582936 157.736276 
L 149.764346 157.012115 
L 149.818097 156.929372 
L 149.969272 156.492514 
L 149.972631 156.496791 
L 150.019664 156.417454 
L 150.197714 155.612445 
L 150.201074 155.63729 
L 150.264903 155.344281 
L 150.271622 155.344281 
L 150.429516 154.773919 
L 150.453032 154.732485 
L 150.456391 154.69491 
L 150.624364 154.057088 
L 152.162989 147.980068 
L 152.169708 148.012885 
L 152.206662 147.911589 
L 152.411588 147.157684 
L 152.414947 147.206554 
L 152.498933 146.816241 
L 152.502293 146.841441 
L 152.576201 146.659505 
L 152.58292 146.659505 
L 152.797924 145.485426 
L 152.811362 145.515796 
L 152.841597 145.419539 
L 153.012928 144.711475 
L 153.150666 144.311591 
L 153.06668 144.717853 
L 153.160744 144.33277 
L 153.177541 144.243619 
L 153.325357 143.878724 
L 153.328716 143.880656 
L 153.345513 143.766849 
L 153.348873 143.766849 
L 153.54708 142.883388 
L 153.55044 142.884068 
L 153.748647 142.063334 
L 153.755366 142.088672 
L 153.79232 141.988484 
L 153.916619 141.505184 
L 154.138342 140.647593 
L 154.161858 140.541538 
L 154.316393 140.014806 
L 154.423895 139.687186 
L 154.63554 139.010838 
L 154.638899 139.01547 
L 154.709448 138.820544 
L 154.890858 138.128092 
L 154.911014 138.047395 
L 155.132738 136.900887 
L 155.162973 136.825922 
L 155.324226 135.817976 
L 155.344383 135.855138 
L 155.367899 135.762275 
L 155.552668 134.856504 
L 155.559387 134.881704 
L 155.629936 134.648491 
L 155.818064 133.827185 
L 155.821424 133.827539 
L 155.824783 133.852385 
L 155.902051 133.597308 
L 155.955802 133.491421 
L 156.073382 133.19734 
L 156.096898 133.231702 
L 156.100258 133.235979 
L 156.117055 133.12845 
L 156.143931 133.135327 
L 156.301824 132.732361 
L 156.305184 132.757561 
L 156.308543 132.776198 
L 156.372373 132.552539 
L 156.557142 131.811095 
L 156.573939 131.733655 
L 156.782225 130.552247 
L 156.785584 130.552601 
L 156.805741 130.478121 
L 156.997229 129.57667 
L 157.044262 129.487467 
L 157.215593 128.953231 
L 157.249188 128.847284 
L 157.403722 128.526582 
L 157.454114 128.426402 
L 157.605289 128.12588 
L 157.642243 128.025777 
L 157.820293 127.523455 
L 157.843809 127.43142 
L 158.136081 125.988593 
L 158.186473 125.878271 
L 158.330929 125.449234 
L 158.334288 125.449589 
L 158.361164 125.373244 
L 158.525777 124.790811 
L 158.532495 124.829659 
L 158.606403 124.49943 
L 158.609763 124.499784 
L 158.801251 123.866954 
L 158.841564 123.782388 
L 158.992739 123.389667 
L 159.016255 123.31961 
L 159.019615 123.287735 
L 159.187587 122.72105 
L 159.190946 122.745895 
L 159.268214 122.543822 
L 159.456343 121.812777 
L 159.500015 121.732486 
L 159.664628 121.25904 
L 159.691504 121.174072 
L 159.879633 120.570298 
L 159.936743 120.478831 
L 160.087918 120.155506 
L 160.097996 120.126133 
L 160.101356 120.077795 
L 160.242453 119.637111 
L 160.245812 119.637565 
L 160.25589 119.66605 
L 160.323079 119.468568 
L 160.329798 119.470683 
L 160.504489 118.929967 
L 160.544803 118.819455 
L 160.73965 117.81856 
L 160.779964 117.791588 
L 160.786683 117.72078 
L 160.907623 117.366166 
L 160.931139 117.380296 
L 160.978171 117.121828 
L 161.136065 116.650023 
L 161.139424 116.650378 
L 161.196535 116.560585 
L 161.334272 116.222563 
L 161.394742 116.137667 
L 161.596309 115.069618 
L 161.636622 114.977 
L 161.814672 114.112621 
L 161.821391 114.115548 
L 161.865064 114.01257 
L 162.022958 113.506972 
L 162.033036 113.531462 
L 162.093506 113.201189 
L 162.170774 113.096641 
L 162.328667 112.666123 
L 162.43281 112.577044 
L 162.688128 111.482528 
L 162.755317 111.370129 
L 162.889695 111.032156 
L 162.893054 111.037605 
L 162.91657 110.962353 
L 163.057667 110.613541 
L 163.232358 110.106832 
L 163.235717 110.131224 
L 163.306266 109.89141 
L 163.309625 109.891765 
L 163.447362 109.67315 
L 163.470878 109.58475 
L 163.622053 109.221224 
L 163.682523 109.124623 
L 163.820261 108.703281 
L 163.837058 108.707992 
L 164.18644 107.854662 
L 164.337615 107.512807 
L 164.36785 107.424728 
L 164.505587 107.102189 
L 164.576136 107.000702 
L 164.707154 106.857164 
L 164.750827 106.886048 
L 164.777702 106.770512 
L 164.807937 106.777126 
L 164.875126 106.662572 
L 165.009504 106.371406 
L 165.046458 106.281426 
L 165.211071 105.726447 
L 165.21443 105.726802 
L 165.385762 105.366468 
L 165.496623 105.193202 
L 165.513421 105.199547 
L 165.557093 105.09801 
L 165.681393 105.005841 
L 165.725066 104.910362 
L 165.903116 104.479186 
L 166.171872 103.981158 
L 166.316328 103.569601 
L 166.360001 103.489787 
L 166.36336 103.465288 
L 166.548129 102.958608 
L 166.568286 102.871876 
L 166.716102 102.504217 
L 166.756415 102.419592 
L 166.924387 102.005387 
L 166.944544 101.916059 
L 167.122594 101.41897 
L 167.428304 100.58539 
L 167.445101 100.594762 
L 167.582838 100.269595 
L 167.821359 99.802867 
L 167.945658 99.645618 
L 167.949018 99.670818 
L 167.972534 99.699082 
L 168.019566 99.509387 
L 168.033004 99.509995 
L 168.224492 98.870807 
L 168.227852 98.875084 
L 168.284962 98.754102 
L 168.399183 98.535151 
L 168.426059 98.559848 
L 168.473091 98.458425 
L 168.607469 98.188731 
L 168.65786 98.08464 
L 168.822473 97.641727 
L 168.829192 97.642752 
L 168.856068 97.531845 
L 169.02404 96.970052 
L 169.034118 97.003362 
L 169.091229 96.912925 
L 169.26256 96.461797 
L 169.32639 96.367947 
L 169.440611 96.008432 
L 169.474205 96.057009 
L 169.524597 95.985347 
L 169.527957 95.956778 
L 169.695929 95.4727 
L 169.773196 95.359192 
L 169.941168 94.800308 
L 169.964684 94.746247 
L 169.968044 94.706868 
L 170.1125 94.419234 
L 170.277113 94.332977 
L 170.431647 94.249162 
L 170.559306 94.045972 
L 170.609698 93.948316 
L 170.747435 93.679795 
L 170.794467 93.575394 
L 170.935564 93.271416 
L 170.962439 93.174943 
L 171.106895 92.791987 
L 171.194241 92.694185 
L 171.856051 91.604406 
L 172.024024 91.177599 
L 172.746304 89.631572 
L 172.89412 89.28105 
L 172.934433 89.18484 
L 173.088967 88.841056 
L 173.125921 88.733591 
L 173.697027 87.768242 
L 173.717184 87.817755 
L 173.760856 87.735634 
L 173.871718 87.642239 
L 173.878437 87.679283 
L 173.992658 87.577368 
L 174.123676 87.430726 
L 174.194225 87.327449 
L 174.214381 87.293785 
L 174.234538 87.356768 
L 174.305086 87.315547 
L 174.365556 87.213755 
L 174.536888 86.833083 
L 174.64439 86.650473 
L 174.560404 86.839235 
L 174.667906 86.67689 
L 174.718298 86.606289 
L 174.839238 86.454616 
L 174.88963 86.345482 
L 175.037445 86.014537 
L 175.12815 85.917802 
L 175.279325 85.568036 
L 176.004965 84.396687 
L 176.142702 84.198749 
L 176.199813 84.108867 
L 176.324112 83.95981 
L 176.421536 83.883724 
L 176.555914 83.613536 
L 176.697011 83.423525 
L 176.854905 83.331979 
L 176.955688 83.160401 
L 176.972485 83.214126 
L 177.079987 83.156585 
L 177.190849 83.019892 
L 177.197568 83.024385 
L 177.291632 82.983949 
L 177.294992 82.959104 
L 177.378978 82.836024 
L 177.415932 82.865308 
L 177.479761 82.843695 
L 177.496558 82.79365 
L 177.503277 82.794466 
L 177.550309 82.691008 
L 177.711563 82.314755 
L 177.775392 82.216807 
L 177.919848 81.97153 
L 178.141572 81.849233 
L 178.289387 81.579876 
L 178.380092 81.499163 
L 178.531267 81.191007 
L 178.648848 81.085241 
L 178.786585 80.718192 
L 178.789944 80.718684 
L 178.924322 80.619937 
L 179.038543 80.408891 
L 179.055341 80.423958 
L 179.099013 80.33348 
L 179.24011 80.133724 
L 179.30058 80.11496 
L 179.310658 80.050569 
L 179.438317 79.930901 
L 179.498787 79.81622 
L 179.623087 79.656978 
L 179.683557 79.55711 
L 179.828013 79.294446 
L 179.908639 79.201552 
L 179.918718 79.164218 
L 179.995985 79.232505 
L 180.016142 79.206528 
L 180.029579 79.211079 
L 180.063174 79.114057 
L 180.076612 79.11317 
L 180.14716 78.98345 
L 180.200911 79.0074 
L 180.32857 78.906979 
L 180.469667 78.672457 
L 181.044132 78.116642 
L 181.158353 78.065761 
L 181.282652 77.906476 
L 181.322965 77.808149 
L 181.464062 77.593764 
L 181.581643 77.501837 
L 181.722739 77.279264 
L 181.860476 77.198682 
L 181.998214 76.881855 
L 182.035168 76.87385 
L 182.058684 76.787744 
L 182.065403 76.787744 
L 182.270329 76.677878 
L 182.391269 76.399419 
L 182.418144 76.40546 
L 182.532365 76.29338 
L 182.646586 76.185431 
L 182.653305 76.189097 
L 182.801121 76.108646 
L 182.982531 75.771226 
L 183.073236 75.684084 
L 183.200895 75.546795 
L 183.264724 75.466972 
L 183.385664 75.262674 
L 183.402461 75.266773 
L 183.513323 75.174012 
L 183.647701 74.989802 
L 183.731687 74.899992 
L 183.872784 74.658967 
L 183.95677 74.55697 
L 184.060913 74.437688 
L 184.07771 74.441558 
L 184.249041 74.287945 
L 184.373341 74.134432 
L 184.470765 74.108319 
L 184.487562 74.13244 
L 184.49764 74.17111 
L 184.578267 73.928227 
L 184.689129 73.826608 
L 184.705926 73.85152 
L 184.816787 73.694062 
L 184.907492 73.58175 
L 185.028432 73.418947 
L 185.031792 73.419302 
L 185.139294 73.31848 
L 185.266953 73.202405 
L 185.505474 73.102788 
L 185.633132 72.979808 
L 185.76751 72.882711 
L 185.922045 72.763382 
L 186.049704 72.63344 
L 186.140409 72.578405 
L 186.147127 72.545687 
L 186.281505 72.374783 
L 186.422602 72.285027 
L 186.55362 72.128528 
L 187.013864 71.747866 
L 187.020583 71.772179 
L 187.296057 71.640544 
L 187.420357 71.54009 
L 187.638721 71.447857 
L 187.769739 71.302795 
L 187.880601 71.223117 
L 187.998181 71.170278 
L 188.199748 71.063684 
L 188.320688 70.924945 
L 188.424831 70.815792 
L 188.55249 70.69986 
L 188.649913 70.613976 
L 188.743978 70.535423 
L 188.767494 70.556346 
L 188.895153 70.43776 
L 189.019452 70.346255 
L 189.143752 70.266639 
L 189.254613 70.139456 
L 189.268051 70.164656 
L 189.355397 70.093847 
L 189.479696 69.925904 
L 189.593917 69.820934 
L 189.859313 69.542897 
L 189.960097 69.460212 
L 190.070958 69.306884 
L 190.091115 69.313325 
L 190.269166 69.330726 
L 190.275884 69.249572 
L 190.390106 69.172189 
L 190.393465 69.172681 
L 190.732769 69.027634 
L 190.823474 68.916646 
L 190.857068 68.925403 
L 191.068713 68.821469 
L 191.273639 68.735373 
L 191.39122 68.676292 
L 191.797713 68.568475 
L 191.918653 68.497781 
L 192.221003 68.395263 
L 192.345302 68.229459 
L 192.503196 68.134222 
L 192.620777 68.072969 
L 193.057504 67.812901 
L 193.393449 67.703909 
L 193.410246 67.729531 
L 193.517748 67.703688 
L 193.675642 67.592907 
L 193.799941 67.504973 
L 193.890646 67.404047 
L 195.005982 66.476499 
L 195.07653 66.423147 
L 195.083249 66.398825 
L 195.207549 66.290972 
L 195.415834 66.20164 
L 195.567009 66.089982 
L 195.68459 66.035995 
L 195.829046 65.957923 
L 195.946626 65.917534 
L 196.074285 65.811896 
L 196.306087 65.677516 
L 196.433746 65.550975 
L 196.678985 65.478497 
L 196.796566 65.394758 
L 196.705861 65.483556 
L 196.799925 65.395447 
L 197.122432 65.124186 
L 197.13251 65.149031 
L 197.502049 65.049412 
L 197.612911 64.98573 
L 197.61963 64.98687 
L 198.184016 64.883382 
L 198.304956 64.759285 
L 198.503163 64.67573 
L 198.597228 64.587874 
L 198.617385 64.614724 
L 199.01044 64.453278 
L 199.12802 64.377731 
L 199.13138 64.378617 
L 199.386697 64.295575 
L 199.500918 64.255661 
L 199.833503 64.16477 
L 199.951084 64.104116 
L 201.036184 63.901804 
L 201.136968 63.873483 
L 201.147046 63.898683 
L 201.513226 63.827555 
L 201.751746 63.701816 
L 202.054096 63.605018 
L 202.171677 63.557823 
L 202.658796 63.417892 
L 202.773017 63.390539 
L 203.041773 63.287047 
L 203.155994 63.235906 
L 203.770772 63.195673 
L 203.895072 63.086596 
L 204.194062 62.963984 
L 204.271329 62.915261 
L 204.308283 62.941608 
L 204.882748 62.90431 
L 205.682296 62.795036 
L 205.796517 62.76707 
L 206.172775 62.675233 
L 206.290355 62.610868 
L 206.918571 62.527509 
L 207.036152 62.454355 
L 207.466161 62.304762 
L 207.583741 62.238988 
L 207.849137 62.1694 
L 208.37993 62.016613 
L 208.50087 61.933834 
L 208.521026 61.905294 
L 208.61845 61.907994 
L 208.98463 61.813076 
L 209.098851 61.783588 
L 209.478468 61.731624 
L 209.750583 61.644845 
L 209.868163 61.585465 
L 210.650914 61.367081 
L 210.761776 61.280552 
L 210.768495 61.281261 
L 211.000296 61.178097 
L 211.027172 61.145754 
L 211.111158 61.170891 
L 211.262333 61.136448 
L 213.271281 60.930563 
L 214.185049 60.804909 
L 214.29927 60.777373 
L 214.695685 60.730978 
L 214.819984 60.637961 
L 221.021519 59.886199 
L 221.13574 59.857744 
L 222.046149 59.67327 
L 222.16037 59.637732 
L 222.818821 59.535945 
L 222.933042 59.484392 
L 222.936402 59.485279 
L 223.712433 59.468435 
L 223.826654 59.442258 
L 225.133478 59.266139 
L 225.254418 59.198381 
L 225.879275 59.15281 
L 232.967702 58.515414 
L 233.595918 58.486258 
L 233.713499 58.413678 
L 234.852351 58.3026 
L 235.245406 58.313674 
L 236.878096 58.203088 
L 237.203962 58.182 
L 237.869132 58.150008 
L 237.983353 58.125408 
L 240.348401 57.986851 
L 240.986696 57.943153 
L 243.314791 57.808746 
L 244.070666 57.77689 
L 248.353957 57.435924 
L 249.146786 57.408794 
L 249.600311 57.38171 
L 250.786195 57.305575 
L 253.517423 57.12863 
L 256.732411 57.017648 
L 258.025797 56.939975 
L 260.619288 56.829388 
L 261.103048 56.815804 
L 264.432258 56.705243 
L 264.922736 56.690225 
L 266.357219 56.649834 
L 266.89473 56.611661 
L 270.139953 56.512543 
L 270.250815 56.484959 
L 270.254174 56.485846 
L 276.44899 56.374783 
L 277.725579 56.351385 
L 286.322396 56.240504 
L 287.514999 56.22612 
L 288.465722 56.215429 
L 289.937159 56.171446 
L 300.190182 56.060403 
L 301.345831 56.049878 
L 314.262895 55.940009 
L 314.377116 55.915065 
L 408.47515 55.804218 
L 408.911878 55.802976 
L 622.636364 55.800355 
L 622.636364 55.800355 
" clip-path="url(#p58a4017e8e)" style="fill: none; stroke: #ff7f0e; stroke-width: 1.5; stroke-linecap: square"/>
   </g>
   <g id="patch_3">
    <path d="M 90 320.4 
L 90 43.2 
" style="fill: none; stroke: #000000; stroke-width: 0.8; stroke-linejoin: miter; stroke-linecap: square"/>
   </g>
   <g id="patch_4">
    <path d="M 648 320.4 
L 648 43.2 
" style="fill: none; stroke: #000000; stroke-width: 0.8; stroke-linejoin: miter; stroke-linecap: square"/>
   </g>
   <g id="patch_5">
    <path d="M 90 320.4 
L 648 320.4 
" style="fill: none; stroke: #000000; stroke-width: 0.8; stroke-linejoin: miter; stroke-linecap: square"/>
   </g>
   <g id="patch_6">
    <path d="M 90 43.2 
L 648 43.2 
" style="fill: none; stroke: #000000; stroke-width: 0.8; stroke-linejoin: miter; stroke-linecap: square"/>
   </g>
   <g id="text_20">
    <!-- Evolution of rewards (PPO ) -->
    <g transform="translate(287.069062 37.2) scale(0.12 -0.12)">
     <defs>
      <path id="DejaVuSans-45" d="M 628 4666 
L 3578 4666 
L 3578 4134 
L 1259 4134 
L 1259 2753 
L 3481 2753 
L 3481 2222 
L 1259 2222 
L 1259 531 
L 3634 531 
L 3634 0 
L 628 0 
L 628 4666 
z
" transform="scale(0.015625)"/>
      <path id="DejaVuSans-6f" d="M 1959 3097 
Q 1497 3097 1228 2736 
Q 959 2375 959 1747 
Q 959 1119 1226 758 
Q 1494 397 1959 397 
Q 2419 397 2687 759 
Q 2956 1122 2956 1747 
Q 2956 2369 2687 2733 
Q 2419 3097 1959 3097 
z
M 1959 3584 
Q 2709 3584 3137 3096 
Q 3566 2609 3566 1747 
Q 3566 888 3137 398 
Q 2709 -91 1959 -91 
Q 1206 -91 779 398 
Q 353 888 353 1747 
Q 353 2609 779 3096 
Q 1206 3584 1959 3584 
z
" transform="scale(0.015625)"/>
      <path id="DejaVuSans-6c" d="M 603 4863 
L 1178 4863 
L 1178 0 
L 603 0 
L 603 4863 
z
" transform="scale(0.015625)"/>
      <path id="DejaVuSans-75" d="M 544 1381 
L 544 3500 
L 1119 3500 
L 1119 1403 
Q 1119 906 1312 657 
Q 1506 409 1894 409 
Q 2359 409 2629 706 
Q 2900 1003 2900 1516 
L 2900 3500 
L 3475 3500 
L 3475 0 
L 2900 0 
L 2900 538 
Q 2691 219 2414 64 
Q 2138 -91 1772 -91 
Q 1169 -91 856 284 
Q 544 659 544 1381 
z
M 1991 3584 
L 1991 3584 
z
" transform="scale(0.015625)"/>
      <path id="DejaVuSans-6e" d="M 3513 2113 
L 3513 0 
L 2938 0 
L 2938 2094 
Q 2938 2591 2744 2837 
Q 2550 3084 2163 3084 
Q 1697 3084 1428 2787 
Q 1159 2491 1159 1978 
L 1159 0 
L 581 0 
L 581 3500 
L 1159 3500 
L 1159 2956 
Q 1366 3272 1645 3428 
Q 1925 3584 2291 3584 
Q 2894 3584 3203 3211 
Q 3513 2838 3513 2113 
z
" transform="scale(0.015625)"/>
      <path id="DejaVuSans-66" d="M 2375 4863 
L 2375 4384 
L 1825 4384 
Q 1516 4384 1395 4259 
Q 1275 4134 1275 3809 
L 1275 3500 
L 2222 3500 
L 2222 3053 
L 1275 3053 
L 1275 0 
L 697 0 
L 697 3053 
L 147 3053 
L 147 3500 
L 697 3500 
L 697 3744 
Q 697 4328 969 4595 
Q 1241 4863 1831 4863 
L 2375 4863 
z
" transform="scale(0.015625)"/>
      <path id="DejaVuSans-28" d="M 1984 4856 
Q 1566 4138 1362 3434 
Q 1159 2731 1159 2009 
Q 1159 1288 1364 580 
Q 1569 -128 1984 -844 
L 1484 -844 
Q 1016 -109 783 600 
Q 550 1309 550 2009 
Q 550 2706 781 3412 
Q 1013 4119 1484 4856 
L 1984 4856 
z
" transform="scale(0.015625)"/>
      <path id="DejaVuSans-50" d="M 1259 4147 
L 1259 2394 
L 2053 2394 
Q 2494 2394 2734 2622 
Q 2975 2850 2975 3272 
Q 2975 3691 2734 3919 
Q 2494 4147 2053 4147 
L 1259 4147 
z
M 628 4666 
L 2053 4666 
Q 2838 4666 3239 4311 
Q 3641 3956 3641 3272 
Q 3641 2581 3239 2228 
Q 2838 1875 2053 1875 
L 1259 1875 
L 1259 0 
L 628 0 
L 628 4666 
z
" transform="scale(0.015625)"/>
      <path id="DejaVuSans-4f" d="M 2522 4238 
Q 1834 4238 1429 3725 
Q 1025 3213 1025 2328 
Q 1025 1447 1429 934 
Q 1834 422 2522 422 
Q 3209 422 3611 934 
Q 4013 1447 4013 2328 
Q 4013 3213 3611 3725 
Q 3209 4238 2522 4238 
z
M 2522 4750 
Q 3503 4750 4090 4092 
Q 4678 3434 4678 2328 
Q 4678 1225 4090 567 
Q 3503 -91 2522 -91 
Q 1538 -91 948 565 
Q 359 1222 359 2328 
Q 359 3434 948 4092 
Q 1538 4750 2522 4750 
z
" transform="scale(0.015625)"/>
      <path id="DejaVuSans-29" d="M 513 4856 
L 1013 4856 
Q 1481 4119 1714 3412 
Q 1947 2706 1947 2009 
Q 1947 1309 1714 600 
Q 1481 -109 1013 -844 
L 513 -844 
Q 928 -128 1133 580 
Q 1338 1288 1338 2009 
Q 1338 2731 1133 3434 
Q 928 4138 513 4856 
z
" transform="scale(0.015625)"/>
     </defs>
     <use xlink:href="#DejaVuSans-45"/>
     <use xlink:href="#DejaVuSans-76" x="63.183594"/>
     <use xlink:href="#DejaVuSans-6f" x="122.363281"/>
     <use xlink:href="#DejaVuSans-6c" x="183.544922"/>
     <use xlink:href="#DejaVuSans-75" x="211.328125"/>
     <use xlink:href="#DejaVuSans-74" x="274.707031"/>
     <use xlink:href="#DejaVuSans-69" x="313.916016"/>
     <use xlink:href="#DejaVuSans-6f" x="341.699219"/>
     <use xlink:href="#DejaVuSans-6e" x="402.880859"/>
     <use xlink:href="#DejaVuSans-20" x="466.259766"/>
     <use xlink:href="#DejaVuSans-6f" x="498.046875"/>
     <use xlink:href="#DejaVuSans-66" x="559.228516"/>
     <use xlink:href="#DejaVuSans-20" x="594.433594"/>
     <use xlink:href="#DejaVuSans-72" x="626.220703"/>
     <use xlink:href="#DejaVuSans-65" x="665.083984"/>
     <use xlink:href="#DejaVuSans-77" x="726.607422"/>
     <use xlink:href="#DejaVuSans-61" x="808.394531"/>
     <use xlink:href="#DejaVuSans-72" x="869.673828"/>
     <use xlink:href="#DejaVuSans-64" x="909.037109"/>
     <use xlink:href="#DejaVuSans-73" x="972.513672"/>
     <use xlink:href="#DejaVuSans-20" x="1024.613281"/>
     <use xlink:href="#DejaVuSans-28" x="1056.400391"/>
     <use xlink:href="#DejaVuSans-50" x="1095.414062"/>
     <use xlink:href="#DejaVuSans-50" x="1155.716797"/>
     <use xlink:href="#DejaVuSans-4f" x="1216.019531"/>
     <use xlink:href="#DejaVuSans-20" x="1294.730469"/>
     <use xlink:href="#DejaVuSans-29" x="1326.517578"/>
    </g>
   </g>
  </g>
 </g>
 <defs>
  <clipPath id="p58a4017e8e">
   <rect x="90" y="43.2" width="558" height="277.2"/>
  </clipPath>
 </defs>
</svg>
