<?xml version="1.0" encoding="utf-8" standalone="no"?>
<!DOCTYPE svg PUBLIC "-//W3C//DTD SVG 1.1//EN"
  "http://www.w3.org/Graphics/SVG/1.1/DTD/svg11.dtd">
<svg xmlns:xlink="http://www.w3.org/1999/xlink" width="720pt" height="360pt" viewBox="0 0 720 360" xmlns="http://www.w3.org/2000/svg" version="1.1">
 <metadata>
  <rdf:RDF xmlns:dc="http://purl.org/dc/elements/1.1/" xmlns:cc="http://creativecommons.org/ns#" xmlns:rdf="http://www.w3.org/1999/02/22-rdf-syntax-ns#">
   <cc:Work>
    <dc:type rdf:resource="http://purl.org/dc/dcmitype/StillImage"/>
    <dc:date>2024-03-15T20:34:20.684605</dc:date>
    <dc:format>image/svg+xml</dc:format>
    <dc:creator>
     <cc:Agent>
      <dc:title>Matplotlib v3.7.0, https://matplotlib.org/</dc:title>
     </cc:Agent>
    </dc:creator>
   </cc:Work>
  </rdf:RDF>
 </metadata>
 <defs>
  <style type="text/css">*{stroke-linejoin: round; stroke-linecap: butt}</style>
 </defs>
 <g id="figure_1">
  <g id="patch_1">
   <path d="M 0 360 
L 720 360 
L 720 0 
L 0 0 
z
" style="fill: #ffffff"/>
  </g>
  <g id="axes_1">
   <g id="patch_2">
    <path d="M 90 320.4 
L 648 320.4 
L 648 43.2 
L 90 43.2 
z
" style="fill: #ffffff"/>
   </g>
   <g id="matplotlib.axis_1">
    <g id="xtick_1">
     <g id="line2d_1">
      <defs>
       <path id="mc17a2cb236" d="M 0 0 
L 0 3.5 
" style="stroke: #000000; stroke-width: 0.8"/>
      </defs>
      <g>
       <use xlink:href="#mc17a2cb236" x="115.35369" y="320.4" style="stroke: #000000; stroke-width: 0.8"/>
      </g>
     </g>
     <g id="text_1">
      <!-- 0 -->
      <g transform="translate(112.17244 334.998438) scale(0.1 -0.1)">
       <defs>
        <path id="DejaVuSans-30" d="M 2034 4250 
Q 1547 4250 1301 3770 
Q 1056 3291 1056 2328 
Q 1056 1369 1301 889 
Q 1547 409 2034 409 
Q 2525 409 2770 889 
Q 3016 1369 3016 2328 
Q 3016 3291 2770 3770 
Q 2525 4250 2034 4250 
z
M 2034 4750 
Q 2819 4750 3233 4129 
Q 3647 3509 3647 2328 
Q 3647 1150 3233 529 
Q 2819 -91 2034 -91 
Q 1250 -91 836 529 
Q 422 1150 422 2328 
Q 422 3509 836 4129 
Q 1250 4750 2034 4750 
z
" transform="scale(0.015625)"/>
       </defs>
       <use xlink:href="#DejaVuSans-30"/>
      </g>
     </g>
    </g>
    <g id="xtick_2">
     <g id="line2d_2">
      <g>
       <use xlink:href="#mc17a2cb236" x="214.820881" y="320.4" style="stroke: #000000; stroke-width: 0.8"/>
      </g>
     </g>
     <g id="text_2">
      <!-- 10000 -->
      <g transform="translate(198.914631 334.998438) scale(0.1 -0.1)">
       <defs>
        <path id="DejaVuSans-31" d="M 794 531 
L 1825 531 
L 1825 4091 
L 703 3866 
L 703 4441 
L 1819 4666 
L 2450 4666 
L 2450 531 
L 3481 531 
L 3481 0 
L 794 0 
L 794 531 
z
" transform="scale(0.015625)"/>
       </defs>
       <use xlink:href="#DejaVuSans-31"/>
       <use xlink:href="#DejaVuSans-30" x="63.623047"/>
       <use xlink:href="#DejaVuSans-30" x="127.246094"/>
       <use xlink:href="#DejaVuSans-30" x="190.869141"/>
       <use xlink:href="#DejaVuSans-30" x="254.492188"/>
      </g>
     </g>
    </g>
    <g id="xtick_3">
     <g id="line2d_3">
      <g>
       <use xlink:href="#mc17a2cb236" x="314.288072" y="320.4" style="stroke: #000000; stroke-width: 0.8"/>
      </g>
     </g>
     <g id="text_3">
      <!-- 20000 -->
      <g transform="translate(298.381822 334.998438) scale(0.1 -0.1)">
       <defs>
        <path id="DejaVuSans-32" d="M 1228 531 
L 3431 531 
L 3431 0 
L 469 0 
L 469 531 
Q 828 903 1448 1529 
Q 2069 2156 2228 2338 
Q 2531 2678 2651 2914 
Q 2772 3150 2772 3378 
Q 2772 3750 2511 3984 
Q 2250 4219 1831 4219 
Q 1534 4219 1204 4116 
Q 875 4013 500 3803 
L 500 4441 
Q 881 4594 1212 4672 
Q 1544 4750 1819 4750 
Q 2544 4750 2975 4387 
Q 3406 4025 3406 3419 
Q 3406 3131 3298 2873 
Q 3191 2616 2906 2266 
Q 2828 2175 2409 1742 
Q 1991 1309 1228 531 
z
" transform="scale(0.015625)"/>
       </defs>
       <use xlink:href="#DejaVuSans-32"/>
       <use xlink:href="#DejaVuSans-30" x="63.623047"/>
       <use xlink:href="#DejaVuSans-30" x="127.246094"/>
       <use xlink:href="#DejaVuSans-30" x="190.869141"/>
       <use xlink:href="#DejaVuSans-30" x="254.492188"/>
      </g>
     </g>
    </g>
    <g id="xtick_4">
     <g id="line2d_4">
      <g>
       <use xlink:href="#mc17a2cb236" x="413.755263" y="320.4" style="stroke: #000000; stroke-width: 0.8"/>
      </g>
     </g>
     <g id="text_4">
      <!-- 30000 -->
      <g transform="translate(397.849013 334.998438) scale(0.1 -0.1)">
       <defs>
        <path id="DejaVuSans-33" d="M 2597 2516 
Q 3050 2419 3304 2112 
Q 3559 1806 3559 1356 
Q 3559 666 3084 287 
Q 2609 -91 1734 -91 
Q 1441 -91 1130 -33 
Q 819 25 488 141 
L 488 750 
Q 750 597 1062 519 
Q 1375 441 1716 441 
Q 2309 441 2620 675 
Q 2931 909 2931 1356 
Q 2931 1769 2642 2001 
Q 2353 2234 1838 2234 
L 1294 2234 
L 1294 2753 
L 1863 2753 
Q 2328 2753 2575 2939 
Q 2822 3125 2822 3475 
Q 2822 3834 2567 4026 
Q 2313 4219 1838 4219 
Q 1578 4219 1281 4162 
Q 984 4106 628 3988 
L 628 4550 
Q 988 4650 1302 4700 
Q 1616 4750 1894 4750 
Q 2613 4750 3031 4423 
Q 3450 4097 3450 3541 
Q 3450 3153 3228 2886 
Q 3006 2619 2597 2516 
z
" transform="scale(0.015625)"/>
       </defs>
       <use xlink:href="#DejaVuSans-33"/>
       <use xlink:href="#DejaVuSans-30" x="63.623047"/>
       <use xlink:href="#DejaVuSans-30" x="127.246094"/>
       <use xlink:href="#DejaVuSans-30" x="190.869141"/>
       <use xlink:href="#DejaVuSans-30" x="254.492188"/>
      </g>
     </g>
    </g>
    <g id="xtick_5">
     <g id="line2d_5">
      <g>
       <use xlink:href="#mc17a2cb236" x="513.222454" y="320.4" style="stroke: #000000; stroke-width: 0.8"/>
      </g>
     </g>
     <g id="text_5">
      <!-- 40000 -->
      <g transform="translate(497.316204 334.998438) scale(0.1 -0.1)">
       <defs>
        <path id="DejaVuSans-34" d="M 2419 4116 
L 825 1625 
L 2419 1625 
L 2419 4116 
z
M 2253 4666 
L 3047 4666 
L 3047 1625 
L 3713 1625 
L 3713 1100 
L 3047 1100 
L 3047 0 
L 2419 0 
L 2419 1100 
L 313 1100 
L 313 1709 
L 2253 4666 
z
" transform="scale(0.015625)"/>
       </defs>
       <use xlink:href="#DejaVuSans-34"/>
       <use xlink:href="#DejaVuSans-30" x="63.623047"/>
       <use xlink:href="#DejaVuSans-30" x="127.246094"/>
       <use xlink:href="#DejaVuSans-30" x="190.869141"/>
       <use xlink:href="#DejaVuSans-30" x="254.492188"/>
      </g>
     </g>
    </g>
    <g id="xtick_6">
     <g id="line2d_6">
      <g>
       <use xlink:href="#mc17a2cb236" x="612.689645" y="320.4" style="stroke: #000000; stroke-width: 0.8"/>
      </g>
     </g>
     <g id="text_6">
      <!-- 50000 -->
      <g transform="translate(596.783395 334.998438) scale(0.1 -0.1)">
       <defs>
        <path id="DejaVuSans-35" d="M 691 4666 
L 3169 4666 
L 3169 4134 
L 1269 4134 
L 1269 2991 
Q 1406 3038 1543 3061 
Q 1681 3084 1819 3084 
Q 2600 3084 3056 2656 
Q 3513 2228 3513 1497 
Q 3513 744 3044 326 
Q 2575 -91 1722 -91 
Q 1428 -91 1123 -41 
Q 819 9 494 109 
L 494 744 
Q 775 591 1075 516 
Q 1375 441 1709 441 
Q 2250 441 2565 725 
Q 2881 1009 2881 1497 
Q 2881 1984 2565 2268 
Q 2250 2553 1709 2553 
Q 1456 2553 1204 2497 
Q 953 2441 691 2322 
L 691 4666 
z
" transform="scale(0.015625)"/>
       </defs>
       <use xlink:href="#DejaVuSans-35"/>
       <use xlink:href="#DejaVuSans-30" x="63.623047"/>
       <use xlink:href="#DejaVuSans-30" x="127.246094"/>
       <use xlink:href="#DejaVuSans-30" x="190.869141"/>
       <use xlink:href="#DejaVuSans-30" x="254.492188"/>
      </g>
     </g>
    </g>
    <g id="text_7">
     <!-- Time step -->
     <g transform="translate(344.361719 348.676562) scale(0.1 -0.1)">
      <defs>
       <path id="DejaVuSans-54" d="M -19 4666 
L 3928 4666 
L 3928 4134 
L 2272 4134 
L 2272 0 
L 1638 0 
L 1638 4134 
L -19 4134 
L -19 4666 
z
" transform="scale(0.015625)"/>
       <path id="DejaVuSans-69" d="M 603 3500 
L 1178 3500 
L 1178 0 
L 603 0 
L 603 3500 
z
M 603 4863 
L 1178 4863 
L 1178 4134 
L 603 4134 
L 603 4863 
z
" transform="scale(0.015625)"/>
       <path id="DejaVuSans-6d" d="M 3328 2828 
Q 3544 3216 3844 3400 
Q 4144 3584 4550 3584 
Q 5097 3584 5394 3201 
Q 5691 2819 5691 2113 
L 5691 0 
L 5113 0 
L 5113 2094 
Q 5113 2597 4934 2840 
Q 4756 3084 4391 3084 
Q 3944 3084 3684 2787 
Q 3425 2491 3425 1978 
L 3425 0 
L 2847 0 
L 2847 2094 
Q 2847 2600 2669 2842 
Q 2491 3084 2119 3084 
Q 1678 3084 1418 2786 
Q 1159 2488 1159 1978 
L 1159 0 
L 581 0 
L 581 3500 
L 1159 3500 
L 1159 2956 
Q 1356 3278 1631 3431 
Q 1906 3584 2284 3584 
Q 2666 3584 2933 3390 
Q 3200 3197 3328 2828 
z
" transform="scale(0.015625)"/>
       <path id="DejaVuSans-65" d="M 3597 1894 
L 3597 1613 
L 953 1613 
Q 991 1019 1311 708 
Q 1631 397 2203 397 
Q 2534 397 2845 478 
Q 3156 559 3463 722 
L 3463 178 
Q 3153 47 2828 -22 
Q 2503 -91 2169 -91 
Q 1331 -91 842 396 
Q 353 884 353 1716 
Q 353 2575 817 3079 
Q 1281 3584 2069 3584 
Q 2775 3584 3186 3129 
Q 3597 2675 3597 1894 
z
M 3022 2063 
Q 3016 2534 2758 2815 
Q 2500 3097 2075 3097 
Q 1594 3097 1305 2825 
Q 1016 2553 972 2059 
L 3022 2063 
z
" transform="scale(0.015625)"/>
       <path id="DejaVuSans-20" transform="scale(0.015625)"/>
       <path id="DejaVuSans-73" d="M 2834 3397 
L 2834 2853 
Q 2591 2978 2328 3040 
Q 2066 3103 1784 3103 
Q 1356 3103 1142 2972 
Q 928 2841 928 2578 
Q 928 2378 1081 2264 
Q 1234 2150 1697 2047 
L 1894 2003 
Q 2506 1872 2764 1633 
Q 3022 1394 3022 966 
Q 3022 478 2636 193 
Q 2250 -91 1575 -91 
Q 1294 -91 989 -36 
Q 684 19 347 128 
L 347 722 
Q 666 556 975 473 
Q 1284 391 1588 391 
Q 1994 391 2212 530 
Q 2431 669 2431 922 
Q 2431 1156 2273 1281 
Q 2116 1406 1581 1522 
L 1381 1569 
Q 847 1681 609 1914 
Q 372 2147 372 2553 
Q 372 3047 722 3315 
Q 1072 3584 1716 3584 
Q 2034 3584 2315 3537 
Q 2597 3491 2834 3397 
z
" transform="scale(0.015625)"/>
       <path id="DejaVuSans-74" d="M 1172 4494 
L 1172 3500 
L 2356 3500 
L 2356 3053 
L 1172 3053 
L 1172 1153 
Q 1172 725 1289 603 
Q 1406 481 1766 481 
L 2356 481 
L 2356 0 
L 1766 0 
Q 1100 0 847 248 
Q 594 497 594 1153 
L 594 3053 
L 172 3053 
L 172 3500 
L 594 3500 
L 594 4494 
L 1172 4494 
z
" transform="scale(0.015625)"/>
       <path id="DejaVuSans-70" d="M 1159 525 
L 1159 -1331 
L 581 -1331 
L 581 3500 
L 1159 3500 
L 1159 2969 
Q 1341 3281 1617 3432 
Q 1894 3584 2278 3584 
Q 2916 3584 3314 3078 
Q 3713 2572 3713 1747 
Q 3713 922 3314 415 
Q 2916 -91 2278 -91 
Q 1894 -91 1617 61 
Q 1341 213 1159 525 
z
M 3116 1747 
Q 3116 2381 2855 2742 
Q 2594 3103 2138 3103 
Q 1681 3103 1420 2742 
Q 1159 2381 1159 1747 
Q 1159 1113 1420 752 
Q 1681 391 2138 391 
Q 2594 391 2855 752 
Q 3116 1113 3116 1747 
z
" transform="scale(0.015625)"/>
      </defs>
      <use xlink:href="#DejaVuSans-54"/>
      <use xlink:href="#DejaVuSans-69" x="57.958984"/>
      <use xlink:href="#DejaVuSans-6d" x="85.742188"/>
      <use xlink:href="#DejaVuSans-65" x="183.154297"/>
      <use xlink:href="#DejaVuSans-20" x="244.677734"/>
      <use xlink:href="#DejaVuSans-73" x="276.464844"/>
      <use xlink:href="#DejaVuSans-74" x="328.564453"/>
      <use xlink:href="#DejaVuSans-65" x="367.773438"/>
      <use xlink:href="#DejaVuSans-70" x="429.296875"/>
     </g>
    </g>
   </g>
   <g id="matplotlib.axis_2">
    <g id="ytick_1">
     <g id="line2d_7">
      <defs>
       <path id="mba5605a7ca" d="M 0 0 
L -3.5 0 
" style="stroke: #000000; stroke-width: 0.8"/>
      </defs>
      <g>
       <use xlink:href="#mba5605a7ca" x="90" y="276.867714" style="stroke: #000000; stroke-width: 0.8"/>
      </g>
     </g>
     <g id="text_8">
      <!-- −80 -->
      <g transform="translate(61.895313 280.666933) scale(0.1 -0.1)">
       <defs>
        <path id="DejaVuSans-2212" d="M 678 2272 
L 4684 2272 
L 4684 1741 
L 678 1741 
L 678 2272 
z
" transform="scale(0.015625)"/>
        <path id="DejaVuSans-38" d="M 2034 2216 
Q 1584 2216 1326 1975 
Q 1069 1734 1069 1313 
Q 1069 891 1326 650 
Q 1584 409 2034 409 
Q 2484 409 2743 651 
Q 3003 894 3003 1313 
Q 3003 1734 2745 1975 
Q 2488 2216 2034 2216 
z
M 1403 2484 
Q 997 2584 770 2862 
Q 544 3141 544 3541 
Q 544 4100 942 4425 
Q 1341 4750 2034 4750 
Q 2731 4750 3128 4425 
Q 3525 4100 3525 3541 
Q 3525 3141 3298 2862 
Q 3072 2584 2669 2484 
Q 3125 2378 3379 2068 
Q 3634 1759 3634 1313 
Q 3634 634 3220 271 
Q 2806 -91 2034 -91 
Q 1263 -91 848 271 
Q 434 634 434 1313 
Q 434 1759 690 2068 
Q 947 2378 1403 2484 
z
M 1172 3481 
Q 1172 3119 1398 2916 
Q 1625 2713 2034 2713 
Q 2441 2713 2670 2916 
Q 2900 3119 2900 3481 
Q 2900 3844 2670 4047 
Q 2441 4250 2034 4250 
Q 1625 4250 1398 4047 
Q 1172 3844 1172 3481 
z
" transform="scale(0.015625)"/>
       </defs>
       <use xlink:href="#DejaVuSans-2212"/>
       <use xlink:href="#DejaVuSans-38" x="83.789062"/>
       <use xlink:href="#DejaVuSans-30" x="147.412109"/>
      </g>
     </g>
    </g>
    <g id="ytick_2">
     <g id="line2d_8">
      <g>
       <use xlink:href="#mba5605a7ca" x="90" y="221.600786" style="stroke: #000000; stroke-width: 0.8"/>
      </g>
     </g>
     <g id="text_9">
      <!-- −60 -->
      <g transform="translate(61.895313 225.400004) scale(0.1 -0.1)">
       <defs>
        <path id="DejaVuSans-36" d="M 2113 2584 
Q 1688 2584 1439 2293 
Q 1191 2003 1191 1497 
Q 1191 994 1439 701 
Q 1688 409 2113 409 
Q 2538 409 2786 701 
Q 3034 994 3034 1497 
Q 3034 2003 2786 2293 
Q 2538 2584 2113 2584 
z
M 3366 4563 
L 3366 3988 
Q 3128 4100 2886 4159 
Q 2644 4219 2406 4219 
Q 1781 4219 1451 3797 
Q 1122 3375 1075 2522 
Q 1259 2794 1537 2939 
Q 1816 3084 2150 3084 
Q 2853 3084 3261 2657 
Q 3669 2231 3669 1497 
Q 3669 778 3244 343 
Q 2819 -91 2113 -91 
Q 1303 -91 875 529 
Q 447 1150 447 2328 
Q 447 3434 972 4092 
Q 1497 4750 2381 4750 
Q 2619 4750 2861 4703 
Q 3103 4656 3366 4563 
z
" transform="scale(0.015625)"/>
       </defs>
       <use xlink:href="#DejaVuSans-2212"/>
       <use xlink:href="#DejaVuSans-36" x="83.789062"/>
       <use xlink:href="#DejaVuSans-30" x="147.412109"/>
      </g>
     </g>
    </g>
    <g id="ytick_3">
     <g id="line2d_9">
      <g>
       <use xlink:href="#mba5605a7ca" x="90" y="166.333857" style="stroke: #000000; stroke-width: 0.8"/>
      </g>
     </g>
     <g id="text_10">
      <!-- −40 -->
      <g transform="translate(61.895313 170.133076) scale(0.1 -0.1)">
       <use xlink:href="#DejaVuSans-2212"/>
       <use xlink:href="#DejaVuSans-34" x="83.789062"/>
       <use xlink:href="#DejaVuSans-30" x="147.412109"/>
      </g>
     </g>
    </g>
    <g id="ytick_4">
     <g id="line2d_10">
      <g>
       <use xlink:href="#mba5605a7ca" x="90" y="111.066929" style="stroke: #000000; stroke-width: 0.8"/>
      </g>
     </g>
     <g id="text_11">
      <!-- −20 -->
      <g transform="translate(61.895313 114.866147) scale(0.1 -0.1)">
       <use xlink:href="#DejaVuSans-2212"/>
       <use xlink:href="#DejaVuSans-32" x="83.789062"/>
       <use xlink:href="#DejaVuSans-30" x="147.412109"/>
      </g>
     </g>
    </g>
    <g id="ytick_5">
     <g id="line2d_11">
      <g>
       <use xlink:href="#mba5605a7ca" x="90" y="55.8" style="stroke: #000000; stroke-width: 0.8"/>
      </g>
     </g>
     <g id="text_12">
      <!-- 0 -->
      <g transform="translate(76.6375 59.599219) scale(0.1 -0.1)">
       <use xlink:href="#DejaVuSans-30"/>
      </g>
     </g>
    </g>
    <g id="text_13">
     <!-- Average reward -->
     <g transform="translate(55.815625 221.236719) rotate(-90) scale(0.1 -0.1)">
      <defs>
       <path id="DejaVuSans-41" d="M 2188 4044 
L 1331 1722 
L 3047 1722 
L 2188 4044 
z
M 1831 4666 
L 2547 4666 
L 4325 0 
L 3669 0 
L 3244 1197 
L 1141 1197 
L 716 0 
L 50 0 
L 1831 4666 
z
" transform="scale(0.015625)"/>
       <path id="DejaVuSans-76" d="M 191 3500 
L 800 3500 
L 1894 563 
L 2988 3500 
L 3597 3500 
L 2284 0 
L 1503 0 
L 191 3500 
z
" transform="scale(0.015625)"/>
       <path id="DejaVuSans-72" d="M 2631 2963 
Q 2534 3019 2420 3045 
Q 2306 3072 2169 3072 
Q 1681 3072 1420 2755 
Q 1159 2438 1159 1844 
L 1159 0 
L 581 0 
L 581 3500 
L 1159 3500 
L 1159 2956 
Q 1341 3275 1631 3429 
Q 1922 3584 2338 3584 
Q 2397 3584 2469 3576 
Q 2541 3569 2628 3553 
L 2631 2963 
z
" transform="scale(0.015625)"/>
       <path id="DejaVuSans-61" d="M 2194 1759 
Q 1497 1759 1228 1600 
Q 959 1441 959 1056 
Q 959 750 1161 570 
Q 1363 391 1709 391 
Q 2188 391 2477 730 
Q 2766 1069 2766 1631 
L 2766 1759 
L 2194 1759 
z
M 3341 1997 
L 3341 0 
L 2766 0 
L 2766 531 
Q 2569 213 2275 61 
Q 1981 -91 1556 -91 
Q 1019 -91 701 211 
Q 384 513 384 1019 
Q 384 1609 779 1909 
Q 1175 2209 1959 2209 
L 2766 2209 
L 2766 2266 
Q 2766 2663 2505 2880 
Q 2244 3097 1772 3097 
Q 1472 3097 1187 3025 
Q 903 2953 641 2809 
L 641 3341 
Q 956 3463 1253 3523 
Q 1550 3584 1831 3584 
Q 2591 3584 2966 3190 
Q 3341 2797 3341 1997 
z
" transform="scale(0.015625)"/>
       <path id="DejaVuSans-67" d="M 2906 1791 
Q 2906 2416 2648 2759 
Q 2391 3103 1925 3103 
Q 1463 3103 1205 2759 
Q 947 2416 947 1791 
Q 947 1169 1205 825 
Q 1463 481 1925 481 
Q 2391 481 2648 825 
Q 2906 1169 2906 1791 
z
M 3481 434 
Q 3481 -459 3084 -895 
Q 2688 -1331 1869 -1331 
Q 1566 -1331 1297 -1286 
Q 1028 -1241 775 -1147 
L 775 -588 
Q 1028 -725 1275 -790 
Q 1522 -856 1778 -856 
Q 2344 -856 2625 -561 
Q 2906 -266 2906 331 
L 2906 616 
Q 2728 306 2450 153 
Q 2172 0 1784 0 
Q 1141 0 747 490 
Q 353 981 353 1791 
Q 353 2603 747 3093 
Q 1141 3584 1784 3584 
Q 2172 3584 2450 3431 
Q 2728 3278 2906 2969 
L 2906 3500 
L 3481 3500 
L 3481 434 
z
" transform="scale(0.015625)"/>
       <path id="DejaVuSans-77" d="M 269 3500 
L 844 3500 
L 1563 769 
L 2278 3500 
L 2956 3500 
L 3675 769 
L 4391 3500 
L 4966 3500 
L 4050 0 
L 3372 0 
L 2619 2869 
L 1863 0 
L 1184 0 
L 269 3500 
z
" transform="scale(0.015625)"/>
       <path id="DejaVuSans-64" d="M 2906 2969 
L 2906 4863 
L 3481 4863 
L 3481 0 
L 2906 0 
L 2906 525 
Q 2725 213 2448 61 
Q 2172 -91 1784 -91 
Q 1150 -91 751 415 
Q 353 922 353 1747 
Q 353 2572 751 3078 
Q 1150 3584 1784 3584 
Q 2172 3584 2448 3432 
Q 2725 3281 2906 2969 
z
M 947 1747 
Q 947 1113 1208 752 
Q 1469 391 1925 391 
Q 2381 391 2643 752 
Q 2906 1113 2906 1747 
Q 2906 2381 2643 2742 
Q 2381 3103 1925 3103 
Q 1469 3103 1208 2742 
Q 947 2381 947 1747 
z
" transform="scale(0.015625)"/>
      </defs>
      <use xlink:href="#DejaVuSans-41"/>
      <use xlink:href="#DejaVuSans-76" x="62.533203"/>
      <use xlink:href="#DejaVuSans-65" x="121.712891"/>
      <use xlink:href="#DejaVuSans-72" x="183.236328"/>
      <use xlink:href="#DejaVuSans-61" x="224.349609"/>
      <use xlink:href="#DejaVuSans-67" x="285.628906"/>
      <use xlink:href="#DejaVuSans-65" x="349.105469"/>
      <use xlink:href="#DejaVuSans-20" x="410.628906"/>
      <use xlink:href="#DejaVuSans-72" x="442.416016"/>
      <use xlink:href="#DejaVuSans-65" x="481.279297"/>
      <use xlink:href="#DejaVuSans-77" x="542.802734"/>
      <use xlink:href="#DejaVuSans-61" x="624.589844"/>
      <use xlink:href="#DejaVuSans-72" x="685.869141"/>
      <use xlink:href="#DejaVuSans-64" x="725.232422"/>
     </g>
    </g>
   </g>
   <g id="line2d_12">
    <path d="M 115.363636 55.8 
L 622.636364 55.8 
L 622.636364 55.8 
" clip-path="url(#p33bbab3013)" style="fill: none; stroke-dasharray: 5.55,2.4; stroke-dashoffset: 0; stroke: #1f77b4; stroke-width: 1.5"/>
   </g>
   <g id="line2d_13">
    <path d="M 115.363636 267.999214 
L 115.373583 267.999214 
L 115.38353 307.8 
L 115.453157 199.147628 
L 115.463104 220.676764 
L 115.50289 191.752462 
L 115.572517 213.077254 
L 115.671985 223.274862 
L 115.612304 210.025968 
L 115.691878 219.752418 
L 115.721718 230.118502 
L 115.761505 213.403272 
L 115.791345 216.542222 
L 115.851026 220.170274 
L 115.920653 207.879171 
L 116.04996 225.844175 
L 116.0798 223.480392 
L 116.179267 231.82812 
L 116.238948 228.531894 
L 116.288681 222.297114 
L 116.328468 229.881994 
L 116.378202 236.369329 
L 116.437882 232.637498 
L 116.567189 223.842125 
L 116.59703 224.901895 
L 116.74623 230.153598 
L 116.965058 239.035225 
L 117.044632 236.204332 
L 117.134152 228.811007 
L 117.213726 229.598367 
L 117.283353 231.717443 
L 117.243566 229.441136 
L 117.333087 230.665948 
L 117.38282 228.844362 
L 117.422607 231.053783 
L 117.432554 232.034234 
L 117.492234 228.99188 
L 117.502181 229.172469 
L 117.591701 226.912027 
L 117.551915 229.955007 
L 117.621542 227.733944 
L 117.750849 229.779487 
L 117.701115 227.715378 
L 117.770742 229.724467 
L 117.880156 227.699893 
L 117.800583 229.936693 
L 117.890103 228.326174 
L 117.909996 228.954767 
L 117.939837 227.017238 
L 117.949783 227.213848 
L 117.999517 226.531367 
L 118.039304 228.472398 
L 118.049251 229.058853 
L 118.089037 226.582177 
L 118.118878 226.706068 
L 118.198451 226.308332 
L 118.297918 229.46029 
L 118.307865 229.590051 
L 118.327759 228.447558 
L 118.387439 226.86364 
L 118.447119 227.251536 
L 118.516746 230.321293 
L 118.59632 229.462582 
L 118.695787 230.78549 
L 118.636107 229.190877 
L 118.715681 229.76775 
L 118.785308 230.157702 
L 118.854935 228.284733 
L 118.994189 229.795696 
L 118.894722 227.735771 
L 119.014082 228.881637 
L 119.083709 227.698645 
L 119.14339 228.002125 
L 119.282644 225.845223 
L 119.29259 226.253194 
L 119.302537 226.358347 
L 119.322431 225.518393 
L 119.382111 224.800175 
L 119.411951 225.995774 
L 119.481578 226.858809 
L 119.521365 226.406001 
L 119.600939 225.262698 
L 119.630779 225.710012 
L 119.700406 227.001596 
L 119.750139 226.436429 
L 119.799873 224.56116 
L 119.879447 225.333519 
L 119.889394 225.567732 
L 119.92918 224.117468 
L 119.959021 224.659688 
L 119.968967 224.30352 
L 120.028648 225.432396 
L 120.038594 225.189582 
L 120.088328 226.140954 
L 120.138062 224.84351 
L 120.157955 225.516628 
L 120.167902 225.604402 
L 120.187795 224.940698 
L 120.197742 225.274293 
L 120.257422 224.581204 
L 120.227582 225.596268 
L 120.327049 224.6502 
L 120.41657 222.958708 
L 120.456357 223.470994 
L 120.595611 226.178465 
L 120.615504 225.541528 
L 120.645344 224.99444 
L 120.685131 226.297043 
L 120.695078 226.597052 
L 120.744811 225.147592 
L 120.754758 225.446402 
L 120.854225 225.782194 
L 120.884065 224.881143 
L 120.963639 225.40691 
L 120.923852 224.376298 
L 120.983533 224.818149 
L 121.083 223.53845 
L 121.122787 223.986235 
L 121.311774 227.003902 
L 121.152627 223.791482 
L 121.321721 226.723541 
L 121.351561 226.433004 
L 121.401295 227.076702 
L 121.570389 228.61478 
L 121.709643 227.409647 
L 121.739483 227.971288 
L 121.77927 227.007261 
L 121.789217 227.070618 
L 121.799164 226.810922 
L 121.858844 228.045844 
L 122.027938 230.073465 
L 122.037885 229.818575 
L 122.117459 230.967259 
L 122.057778 229.753898 
L 122.197032 230.621849 
L 122.216926 230.123778 
L 122.286553 230.914685 
L 122.2965 230.668085 
L 122.366127 231.389059 
L 122.316393 230.646446 
L 122.425807 231.352782 
L 122.505381 229.892205 
L 122.555114 230.733593 
L 122.575008 231.036422 
L 122.624741 230.465972 
L 122.644635 230.005243 
L 122.704315 230.812835 
L 122.724208 230.630866 
L 122.744102 230.449877 
L 122.883356 231.967223 
L 122.903249 231.943843 
L 123.072344 233.742154 
L 123.08229 233.584271 
L 123.132024 234.36855 
L 123.181758 234.444286 
L 123.151917 234.211458 
L 123.221544 234.216844 
L 123.370745 232.693386 
L 123.390639 233.007927 
L 123.490106 234.00045 
L 123.529893 233.865735 
L 123.539839 233.653004 
L 123.609466 234.315208 
L 123.619413 234.103983 
L 123.649253 234.655413 
L 123.71888 233.958817 
L 123.818348 233.650314 
L 123.768614 234.389059 
L 123.828294 233.830773 
L 123.917815 234.819582 
L 123.957602 234.28578 
L 123.967548 234.083126 
L 124.017282 234.64173 
L 124.067016 234.269384 
L 124.076962 234.327696 
L 124.116749 233.900302 
L 124.126696 234.07434 
L 124.136643 233.875827 
L 124.20627 234.321005 
L 124.226163 234.161974 
L 124.246057 234.062133 
L 124.444991 234.785697 
L 124.604138 233.785122 
L 124.733446 234.744409 
L 124.743392 234.558013 
L 124.793126 234.148195 
L 124.84286 234.709426 
L 124.852806 234.77435 
L 124.8727 234.406561 
L 124.882647 234.470937 
L 124.93238 233.955504 
L 125.002007 234.172214 
L 125.091528 234.458243 
L 125.021901 234.149421 
L 125.111421 234.435076 
L 125.270569 232.846862 
L 125.290462 233.036759 
L 125.370036 233.295728 
L 125.320302 232.895188 
L 125.389929 232.949825 
L 125.53913 232.065779 
L 125.549077 232.110489 
L 125.559023 232.261845 
L 125.62865 231.820878 
L 125.638597 231.857929 
L 125.728118 231.046934 
L 125.658491 231.891474 
L 125.767905 231.48592 
L 125.887265 232.049254 
L 125.897212 231.890027 
L 125.956892 231.47225 
L 126.016573 231.706808 
L 126.096146 232.060178 
L 126.036466 231.69077 
L 126.11604 231.739896 
L 126.2354 231.212589 
L 126.17572 231.967054 
L 126.245347 231.246184 
L 126.354761 231.584032 
L 126.364708 231.431986 
L 126.424388 231.655702 
L 126.394548 231.342337 
L 126.444281 231.346718 
L 126.464175 231.03954 
L 126.513908 231.711712 
L 126.543749 232.126885 
L 126.593482 231.545039 
L 126.732736 230.908755 
L 126.981404 232.427887 
L 126.991351 232.32416 
L 127.041085 231.867355 
L 127.120658 232.031674 
L 127.249966 232.887655 
L 127.269859 232.600744 
L 127.289753 232.312024 
L 127.35938 232.794495 
L 127.38922 232.407239 
L 127.429007 232.644781 
L 127.468794 232.343619 
L 127.538421 232.4808 
L 127.608048 231.944957 
L 127.687621 232.282214 
L 127.627941 231.842753 
L 127.747302 232.158991 
L 127.777142 231.921908 
L 127.826875 232.362436 
L 127.836822 232.224129 
L 127.866662 232.071748 
L 127.99597 232.876788 
L 128.065597 233.031592 
L 128.125277 232.518408 
L 128.334158 233.797474 
L 128.383892 233.380347 
L 128.443572 233.63126 
L 128.463465 233.901447 
L 128.503252 233.374991 
L 128.533092 233.456639 
L 128.562933 233.102297 
L 128.602719 233.602119 
L 128.622613 233.589725 
L 128.642506 233.71752 
L 128.682293 233.440575 
L 128.72208 233.652065 
L 128.771814 233.25362 
L 128.831494 233.646781 
L 128.851387 233.791936 
L 128.891174 233.316862 
L 128.921014 233.655758 
L 128.980695 233.129775 
L 129.050322 233.40162 
L 129.179629 234.145969 
L 129.070215 233.386672 
L 129.209469 234.09063 
L 129.279096 233.84002 
L 129.23931 234.105374 
L 129.318883 233.84747 
L 129.428297 234.551621 
L 129.458137 234.364173 
L 129.557605 234.080135 
L 129.577498 234.127574 
L 129.776432 234.54991 
L 129.786379 234.428778 
L 129.796326 234.307813 
L 129.865953 234.653417 
L 129.8759 234.533154 
L 129.915686 234.465057 
L 130.0251 235.002108 
L 130.184248 234.445517 
L 130.194195 234.468006 
L 130.224035 234.299088 
L 130.243928 234.423873 
L 130.333449 234.094385 
L 130.363289 234.181402 
L 130.492596 234.549316 
L 130.502543 234.433911 
L 130.651744 233.990549 
L 130.741264 234.081828 
L 130.721371 233.883356 
L 130.751211 233.968589 
L 130.930252 233.199125 
L 131.089399 233.785595 
L 130.979985 233.04354 
L 131.139133 233.498635 
L 131.218707 233.318387 
L 131.2386 233.541764 
L 131.338067 233.729751 
L 131.258493 233.454024 
L 131.348014 233.620956 
L 131.417641 233.196183 
L 131.457428 233.538897 
L 131.477321 233.655074 
L 131.517108 233.256802 
L 131.546948 233.46751 
L 131.596682 233.133899 
L 131.666309 233.338044 
L 131.676256 233.359166 
L 131.706096 233.167862 
L 131.716043 233.261622 
L 131.765776 232.859707 
L 131.825456 233.18067 
L 131.944817 233.450762 
L 131.984604 233.229447 
L 132.024391 233.582124 
L 132.044284 233.503634 
L 132.094018 233.337408 
L 132.163645 233.731035 
L 132.362579 232.714858 
L 132.392419 232.846355 
L 132.462046 233.197679 
L 132.471993 233.287281 
L 132.521727 232.932701 
L 132.551567 233.062604 
L 132.690821 233.356085 
L 132.710714 233.156672 
L 132.820128 232.865444 
L 132.830075 232.953398 
L 132.919596 233.332039 
L 132.849969 232.942189 
L 132.949436 233.190555 
L 132.959382 233.092022 
L 133.029009 233.409989 
L 133.05885 233.468373 
L 133.078743 233.272322 
L 133.138423 232.901997 
L 133.20805 233.005319 
L 133.297571 233.153283 
L 133.257784 232.943179 
L 133.307518 233.056682 
L 133.347304 232.880734 
L 133.406985 233.105678 
L 133.416932 233.012155 
L 133.506452 233.320149 
L 133.536292 233.148165 
L 133.546239 233.081417 
L 133.615866 233.298139 
L 133.625813 233.203141 
L 133.715333 233.534211 
L 133.745173 233.430834 
L 133.824747 232.876836 
L 133.874481 233.163527 
L 133.914267 233.366179 
L 133.964001 233.010305 
L 134.152989 233.302674 
L 133.993841 232.898833 
L 134.162935 233.210387 
L 134.351923 232.31802 
L 134.381763 232.503444 
L 134.431497 232.739583 
L 134.501124 232.525712 
L 134.540911 232.279158 
L 134.620485 232.335424 
L 134.670218 232.42316 
L 134.710005 232.17376 
L 134.729898 231.998046 
L 134.789579 232.443519 
L 134.829366 232.405151 
L 135.05814 233.844431 
L 135.127767 233.859925 
L 135.177501 233.638637 
L 135.366488 234.718005 
L 135.197394 233.628066 
L 135.396329 234.619158 
L 135.475902 234.437561 
L 135.495796 234.61262 
L 135.525636 234.515746 
L 135.63505 234.825108 
L 135.66489 234.566482 
L 135.734517 234.802641 
L 135.824038 235.123775 
L 135.863824 234.941073 
L 135.983185 235.213556 
L 136.013025 235.116944 
L 136.182119 234.523075 
L 136.221906 234.657918 
L 136.261693 234.323245 
L 136.341267 234.404979 
L 136.410894 233.997825 
L 136.430787 234.142614 
L 136.500414 233.884263 
L 136.510361 233.938806 
L 136.589935 234.029214 
L 136.649615 233.674202 
L 136.669509 233.764754 
L 136.709296 233.463651 
L 136.729189 233.629515 
L 136.788869 233.684116 
L 136.858496 233.448091 
L 136.868443 233.493715 
L 136.898283 233.276413 
L 136.93807 233.360207 
L 136.977857 233.063588 
L 137.057431 233.18874 
L 137.077324 233.294517 
L 137.146951 233.089808 
L 137.296152 232.61147 
L 137.176791 233.111648 
L 137.306099 232.656564 
L 137.325992 232.796668 
L 137.375726 232.553233 
L 137.415513 232.757739 
L 137.465246 232.612582 
L 137.445353 232.768587 
L 137.534873 232.651169 
L 137.57466 232.697947 
L 137.594554 232.542392 
L 137.6045 232.558242 
L 137.703967 232.247417 
L 137.624394 232.573138 
L 137.743754 232.324094 
L 137.843222 232.566086 
L 137.863115 232.412504 
L 137.942689 232.60043 
L 137.902902 232.343393 
L 137.982476 232.478747 
L 138.052103 232.322962 
L 138.101836 232.412708 
L 138.111783 232.480448 
L 138.161517 232.103656 
L 138.380344 231.15778 
L 138.440025 231.124185 
L 138.529545 231.433059 
L 138.559385 231.445385 
L 138.668799 231.161614 
L 138.688693 231.243915 
L 138.748373 230.968551 
L 138.837893 230.805837 
L 138.867734 230.853037 
L 138.90752 230.966207 
L 138.947307 230.816283 
L 138.957254 230.743788 
L 139.006988 230.993179 
L 139.056721 230.771954 
L 139.076615 230.856954 
L 139.116402 230.594972 
L 139.126348 230.660581 
L 139.305389 230.180333 
L 139.156188 230.741605 
L 139.315336 230.245597 
L 139.325283 230.261263 
L 139.345176 230.120936 
L 139.355123 230.136634 
L 139.504324 229.442233 
L 139.54411 229.554745 
L 139.554057 229.619623 
L 139.583897 229.408353 
L 139.633631 229.413816 
L 139.782832 229.749605 
L 139.663471 229.403652 
L 139.802725 229.74419 
L 139.882299 229.500338 
L 139.932033 229.604285 
L 139.941979 229.668119 
L 139.981766 229.483582 
L 140.011606 229.507343 
L 140.081233 229.291474 
L 140.111073 229.447823 
L 140.230434 229.684791 
L 140.240381 229.616487 
L 140.310008 229.69452 
L 140.399528 229.282347 
L 140.449262 229.161396 
L 140.518889 229.423128 
L 140.678036 228.985108 
L 140.687983 229.066373 
L 140.767557 228.929692 
L 140.817291 228.599408 
L 140.876971 228.87851 
L 140.896864 228.955475 
L 140.946598 228.787415 
L 140.986385 228.859763 
L 141.105745 229.125009 
L 141.125639 228.993525 
L 141.205213 228.863038 
L 141.244999 228.894637 
L 141.354413 229.133743 
L 141.264893 228.890184 
L 141.374307 229.003509 
L 141.404147 228.934057 
L 141.453881 229.160144 
L 141.463827 229.220426 
L 141.523508 229.01066 
L 141.553348 229.149095 
L 141.662762 228.951459 
L 141.613028 229.21345 
L 141.682655 229.026071 
L 141.732389 229.189596 
L 141.782122 228.967783 
L 141.792069 228.904194 
L 141.821909 229.082884 
L 141.881589 228.974314 
L 142.03079 229.396837 
L 142.080524 229.312947 
L 142.269512 228.611409 
L 142.289405 228.687867 
L 142.368979 228.695253 
L 142.329192 228.593255 
L 142.398819 228.661675 
L 142.458499 228.532904 
L 142.51818 228.552747 
L 142.557966 228.622593 
L 142.57786 228.518016 
L 142.627593 228.541432 
L 142.687274 228.581245 
L 142.806634 228.069952 
L 142.846421 228.100074 
L 142.866315 227.99697 
L 142.876261 228.011427 
L 142.896155 227.890176 
L 142.955835 228.166511 
L 142.965782 228.105495 
L 143.005569 228.130591 
L 143.025462 228.010459 
L 143.194556 227.69674 
L 143.323864 228.00635 
L 143.343757 228.002859 
L 143.413384 227.847782 
L 143.463118 227.932431 
L 143.473065 227.988841 
L 143.542692 227.869787 
L 143.562585 227.866419 
L 143.612319 227.759668 
L 143.652105 227.917302 
L 143.811253 228.273028 
L 143.85104 228.242798 
L 143.860987 228.183672 
L 143.930614 228.432861 
L 143.980347 228.520134 
L 144.010187 228.344945 
L 144.020134 228.37093 
L 144.169335 227.982054 
L 144.189228 228.018136 
L 144.258855 228.219833 
L 144.298642 228.099862 
L 144.527417 227.401925 
L 144.557257 227.443407 
L 144.587097 227.343659 
L 144.597044 227.286722 
L 144.636831 227.483221 
L 144.676618 227.446643 
L 144.835765 227.700097 
L 144.726351 227.373612 
L 144.895445 227.605182 
L 144.925286 227.435221 
L 145.014806 227.52113 
L 145.084433 227.675675 
L 145.134167 227.584173 
L 145.15406 227.551697 
L 145.303261 227.765044 
L 145.333101 227.68793 
L 145.362941 227.826994 
L 145.402728 227.748908 
L 145.422621 227.854533 
L 145.482302 227.701446 
L 145.492249 227.71554 
L 145.512142 227.60411 
L 145.541982 227.762064 
L 145.581769 227.767287 
L 145.601662 227.872275 
L 145.651396 227.613241 
L 145.661343 227.574992 
L 145.711076 227.738282 
L 145.73097 227.737833 
L 145.82049 227.980553 
L 145.890117 227.825286 
L 146.029371 227.610298 
L 146.158679 227.787511 
L 146.059211 227.534781 
L 146.168625 227.732959 
L 146.238252 227.57065 
L 146.287986 227.668497 
L 146.36756 227.89635 
L 146.3974 227.751367 
L 146.566494 227.275704 
L 146.586388 227.339669 
L 146.715695 227.431245 
L 146.725642 227.377775 
L 146.854949 227.071272 
L 146.765429 227.401337 
L 146.884789 227.083088 
L 146.924576 227.212684 
L 146.954416 227.054898 
L 147.163297 226.457244 
L 147.193137 226.505422 
L 147.242871 226.30911 
L 147.362232 226.087012 
L 147.382125 226.15288 
L 147.541273 226.374954 
L 147.620846 226.41432 
L 147.680527 226.16925 
L 147.690473 226.218845 
L 147.740207 226.079071 
L 147.7601 226.077239 
L 147.770047 226.025908 
L 147.819781 226.28594 
L 147.849621 226.33599 
L 147.889408 226.214667 
L 147.899355 226.227437 
L 148.058502 225.938767 
L 147.919248 226.241491 
L 148.068449 226.002625 
L 148.108236 226.065318 
L 148.148023 225.869848 
L 148.187809 225.9457 
L 148.21765 225.795279 
L 148.237543 225.695601 
L 148.327063 225.756269 
L 148.33701 225.769008 
L 148.356904 225.668356 
L 148.386744 225.679552 
L 148.446424 225.541855 
L 148.506104 225.646408 
L 148.595625 225.695488 
L 148.545891 225.571786 
L 148.605572 225.64556 
L 148.774666 225.275411 
L 148.635412 225.659344 
L 148.784613 225.307205 
L 148.85424 225.388313 
L 148.874133 225.28944 
L 149.033281 225.02464 
L 149.043227 225.037329 
L 149.063121 224.939217 
L 149.102908 224.966125 
L 149.202375 224.716506 
L 149.321735 224.805351 
L 149.470936 224.626426 
L 149.500776 224.638168 
L 149.52067 224.541603 
L 149.55051 224.598179 
L 149.759391 224.025892 
L 149.769338 224.057138 
L 149.868805 224.263682 
L 149.898645 224.180982 
L 149.998112 224.123946 
L 149.928485 224.227648 
L 150.008059 224.170811 
L 150.107526 224.25662 
L 150.12742 224.161958 
L 150.336301 223.707693 
L 150.366141 223.797583 
L 150.415874 223.682865 
L 150.485501 223.626801 
L 150.515342 223.734521 
L 150.565075 223.73069 
L 150.545182 223.653789 
L 150.575022 223.684109 
L 150.584969 223.637882 
L 150.664542 223.754523 
L 150.684436 223.661636 
L 150.754063 223.632533 
L 150.724223 223.595103 
L 150.76401 223.586228 
L 150.903264 223.321718 
L 150.923157 223.346705 
L 151.042518 223.586835 
L 150.952997 223.30091 
L 151.062411 223.49582 
L 151.072358 223.508213 
L 151.092251 223.417793 
L 151.112145 223.418697 
L 151.251399 223.288475 
L 151.291186 223.327587 
L 151.311079 223.236555 
L 151.321026 223.248935 
L 151.470227 223.047773 
L 151.480173 223.077808 
L 151.51996 222.898024 
L 151.699001 222.521949 
L 151.539854 222.912503 
L 151.718895 222.602162 
L 151.768628 222.70486 
L 151.808415 222.526757 
L 151.828309 222.586538 
L 151.848202 222.628773 
L 151.917829 222.505281 
L 152.086923 222.628744 
L 152.09687 222.584391 
L 152.146604 222.452321 
L 152.206284 222.579404 
L 152.275911 222.592472 
L 152.226177 222.547472 
L 152.285858 222.548356 
L 152.365431 222.415479 
L 152.415165 222.475037 
L 152.425112 222.519289 
L 152.504685 222.428875 
L 152.514632 222.441073 
L 152.753353 222.757198 
L 152.534526 222.40948 
L 152.783194 222.640765 
L 152.79314 222.597561 
L 152.852821 222.743364 
L 152.912501 222.843811 
L 152.962235 222.727601 
L 153.011968 222.684853 
L 153.071648 222.772161 
L 153.191009 222.500403 
L 153.240743 222.52981 
L 153.28053 222.608131 
L 153.320316 222.43763 
L 153.379997 222.253246 
L 153.449624 222.31215 
L 153.489411 222.455557 
L 153.568984 222.363889 
L 153.618718 222.321352 
L 153.648558 222.471519 
L 153.688345 222.614016 
L 153.767919 222.54376 
L 153.867386 222.402785 
L 153.817652 222.61304 
L 153.887279 222.487967 
L 153.986747 222.729121 
L 154.016587 222.602889 
L 154.026533 222.560756 
L 154.046427 222.645507 
L 154.106107 222.645431 
L 154.175734 222.548426 
L 154.215521 222.715116 
L 154.255308 222.643095 
L 154.285148 222.765261 
L 154.305042 222.761171 
L 154.434349 222.854726 
L 154.503976 222.780824 
L 154.543763 222.8269 
L 154.623337 222.950488 
L 154.663124 222.855951 
L 154.683017 222.911226 
L 154.752644 222.800331 
L 154.762591 222.759228 
L 154.822271 222.9211 
L 154.852111 222.860303 
L 155.041099 223.113456 
L 155.051046 223.072282 
L 155.100779 223.183387 
L 155.150513 223.129995 
L 155.259927 223.362792 
L 155.170406 223.115632 
L 155.319607 223.293907 
L 155.458861 223.16278 
L 155.498648 223.295969 
L 155.568275 223.196559 
L 155.657795 222.966817 
L 155.717476 223.018015 
L 155.737369 223.098992 
L 155.767209 222.977855 
L 155.836836 223.059366 
L 155.876623 223.081445 
L 155.906463 222.97366 
L 155.94625 222.863997 
L 156.005931 222.994051 
L 156.035771 223.087618 
L 156.095451 222.900727 
L 156.224758 222.784235 
L 156.334172 222.873774 
L 156.284439 222.729702 
L 156.344119 222.834238 
L 156.49332 222.649715 
L 156.503267 222.67618 
L 156.553 222.529934 
L 156.732041 222.121831 
L 156.751935 222.159287 
L 156.791721 222.210404 
L 156.831508 222.053643 
L 157.07023 221.563213 
L 157.090123 221.642259 
L 157.149803 221.47492 
L 157.179643 221.564902 
L 157.209484 221.598007 
L 157.239324 221.482017 
L 157.24927 221.521409 
L 157.299004 221.484312 
L 157.338791 221.584966 
L 157.348738 221.624241 
L 157.398471 221.432311 
L 157.418365 221.510802 
L 157.597406 221.213901 
L 157.667033 221.303224 
L 157.70682 221.21224 
L 157.955488 220.670164 
L 158.035061 220.772196 
L 158.064901 220.659648 
L 158.124582 220.704578 
L 158.204156 220.556456 
L 158.273783 220.599799 
L 158.313569 220.574464 
L 158.472717 220.314257 
L 158.482664 220.325255 
L 158.502557 220.374759 
L 158.552291 220.189341 
L 158.572184 220.253589 
L 158.611971 220.302277 
L 158.641811 220.191582 
L 158.701491 220.243585 
L 158.771119 220.088181 
L 158.820852 220.243939 
L 158.890479 220.112135 
L 158.989946 219.975096 
L 159.019786 220.035113 
L 159.03968 220.111327 
L 159.09936 220.013529 
L 159.119254 220.03534 
L 159.228668 219.891904 
L 159.248561 219.940764 
L 159.288348 220.05287 
L 159.377868 220.007853 
L 159.576803 219.616812 
L 159.586749 219.654542 
L 159.596696 219.665411 
L 159.626536 219.557239 
L 159.805577 219.326738 
L 159.845364 219.388739 
L 159.905044 219.321336 
L 160.074139 219.119738 
L 160.133819 219.09802 
L 160.103979 219.059328 
L 160.143766 219.062677 
L 160.243233 218.921389 
L 160.28302 218.944967 
L 160.31286 219.018131 
L 160.362594 218.847774 
L 160.382487 218.883656 
L 160.432221 218.765971 
L 160.442167 218.790981 
L 160.651048 218.402963 
L 160.780356 218.464992 
L 160.879823 218.565062 
L 160.800249 218.454923 
L 160.91961 218.542554 
L 160.969343 218.485652 
L 161.00913 218.57072 
L 161.029024 218.560908 
L 161.317479 218.094384 
L 161.048917 218.574261 
L 161.327425 218.119058 
L 161.337372 218.14372 
L 161.387106 217.983102 
L 161.426893 218.079764 
L 161.854601 216.970203 
L 161.934175 217.054889 
L 161.964015 216.964722 
L 162.19279 216.557415 
L 162.212683 216.579255 
L 162.232577 216.513492 
L 162.272364 216.482042 
L 162.302204 216.497181 
L 162.471298 216.161931 
L 162.560818 216.341569 
L 162.610552 216.314336 
L 162.7697 216.160338 
L 162.690126 216.355835 
L 162.779646 216.167096 
L 162.849273 216.25485 
L 162.88906 216.210641 
L 163.048208 215.898032 
L 163.068101 215.944646 
L 163.177515 216.032074 
L 163.187462 215.999376 
L 163.237195 216.107747 
L 163.356556 215.816556 
L 163.446076 215.892706 
L 163.46597 215.829287 
L 163.664904 215.939755 
L 163.485863 215.807615 
L 163.674851 215.907443 
L 163.963306 215.513202 
L 163.973253 215.523939 
L 164.013039 215.60799 
L 164.092613 215.560435 
L 164.152294 215.379596 
L 164.221921 215.516229 
L 164.291548 215.560036 
L 164.321388 215.464501 
L 164.480535 215.275342 
L 164.560109 215.198329 
L 164.609843 215.32756 
L 164.67947 215.270167 
L 164.70931 215.351961 
L 164.729203 215.397226 
L 164.778937 215.281743 
L 164.997765 215.039062 
L 165.146965 215.151796 
L 165.216592 215.067451 
L 165.276273 215.094941 
L 165.335953 215.098603 
L 165.306113 215.043226 
L 165.355847 215.036415 
L 165.514994 214.813449 
L 165.385687 215.050148 
L 165.524941 214.847665 
L 165.534887 214.881868 
L 165.614461 214.762096 
L 165.703982 214.656605 
L 165.723875 214.72483 
L 165.733822 214.758922 
L 165.783555 214.605136 
L 165.793502 214.628313 
L 165.843236 214.58076 
L 165.883023 214.669831 
L 165.912863 214.619869 
L 166.07201 214.782357 
L 166.221211 214.552784 
L 166.231158 214.596071 
L 166.241105 214.629849 
L 166.310732 214.485863 
L 166.430092 214.596491 
L 166.340572 214.435555 
L 166.459932 214.505517 
L 166.509666 214.552531 
L 166.579293 214.474717 
L 166.698654 214.516281 
L 166.609133 214.424678 
L 166.7086 214.486119 
L 166.827961 214.270299 
L 166.867748 214.296168 
L 166.937375 214.324228 
L 166.897588 214.270419 
L 166.957268 214.265131 
L 167.136309 214.013587 
L 167.146256 214.046886 
L 167.22583 214.076702 
L 167.19599 214.001132 
L 167.245723 214.018029 
L 167.305403 214.077045 
L 167.365084 213.991992 
L 167.394924 214.007489 
L 167.434711 213.889988 
L 167.603805 213.679115 
L 167.484444 213.919574 
L 167.613752 213.70166 
L 167.693326 213.735755 
L 167.723166 213.688699 
L 167.902207 213.478287 
L 167.9221 213.521512 
L 167.98178 213.385584 
L 168.041461 213.283441 
L 168.101141 213.365323 
L 168.130981 213.430804 
L 168.200608 213.349853 
L 168.300075 213.283651 
L 168.329916 213.33689 
L 168.389596 213.303258 
L 168.369702 213.260333 
L 168.399543 213.274285 
L 168.439329 213.312151 
L 168.55869 213.104468 
L 168.598477 213.152673 
L 168.648211 213.048505 
L 168.767571 212.954523 
L 168.777518 212.987003 
L 168.807358 213.0638 
L 168.876985 212.940654 
L 168.886932 212.97307 
L 169.016239 212.8518 
L 168.926719 212.997261 
L 169.026186 212.884148 
L 169.095813 212.923951 
L 169.065973 212.869599 
L 169.1356 212.909392 
L 169.284801 212.682423 
L 169.304694 212.726469 
L 169.384268 212.877184 
L 169.434001 212.79592 
L 169.493682 212.736958 
L 169.533469 212.823009 
L 169.603096 212.891566 
L 169.652829 212.849366 
L 169.911444 212.40277 
L 169.931337 212.444795 
L 169.971124 212.343864 
L 170.000964 212.347848 
L 170.160112 212.081001 
L 170.040751 212.365315 
L 170.180005 212.122953 
L 170.189952 212.163556 
L 170.239686 212.063675 
L 170.279473 212.062469 
L 170.289419 212.094216 
L 170.339153 211.965219 
L 170.359046 211.969245 
L 170.637554 211.515407 
L 170.647501 211.537105 
L 170.717128 211.442434 
L 170.846435 211.305203 
L 170.866329 211.337011 
L 170.876276 211.368553 
L 170.935956 211.242488 
L 170.945903 211.252643 
L 171.04537 211.104895 
L 171.07521 211.16971 
L 171.085157 211.201163 
L 171.144837 211.075424 
L 171.204517 211.036026 
L 171.254251 211.098117 
L 171.333825 211.066918 
L 171.294038 211.027899 
L 171.343771 211.039865 
L 171.512866 210.794106 
L 171.542706 210.808587 
L 171.562599 210.871087 
L 171.632226 210.757097 
L 171.642173 210.767212 
L 171.662066 210.780146 
L 171.801321 210.632383 
L 171.811267 210.672083 
L 171.870948 210.531882 
L 171.890841 210.573109 
L 171.920681 210.493078 
L 171.990308 210.622175 
L 172.000255 210.653216 
L 172.059935 210.539253 
L 172.089775 210.574662 
L 172.169349 210.53499 
L 172.119616 210.610034 
L 172.189243 210.576 
L 172.199189 210.606941 
L 172.25887 210.484286 
L 172.268816 210.494338 
L 172.328497 210.402126 
L 172.37823 210.505201 
L 172.487644 210.564709 
L 172.507538 210.54829 
L 172.577165 210.45944 
L 172.616951 210.561641 
L 172.666685 210.544 
L 172.746259 210.621002 
L 172.815886 210.680104 
L 172.875566 210.616851 
L 173.034714 210.467084 
L 173.104341 210.546699 
L 173.154074 210.481667 
L 173.333115 210.299553 
L 173.343062 210.329931 
L 173.412689 210.20537 
L 173.492263 210.264203 
L 173.522103 210.187262 
L 173.611623 210.23404 
L 173.661357 210.105101 
L 173.691197 210.119402 
L 173.721037 210.042034 
L 173.810558 209.97413 
L 173.850345 209.997151 
L 173.860291 210.027311 
L 173.939865 209.928451 
L 174.019439 209.972904 
L 173.979652 209.861868 
L 174.059226 209.916755 
L 174.307894 209.580248 
L 174.496881 209.800126 
L 174.665976 209.537828 
L 174.685869 209.597464 
L 175.043951 209.847204 
L 174.725656 209.532202 
L 175.053898 209.822035 
L 175.302566 209.485966 
L 175.392086 209.548358 
L 175.41198 209.49842 
L 175.421926 209.473464 
L 175.481607 209.581668 
L 175.491553 209.556727 
L 175.5015 209.586137 
L 175.56118 209.437913 
L 175.571127 209.447586 
L 175.730275 209.319757 
L 175.819795 209.393463 
L 175.849635 209.353573 
L 175.879475 209.279533 
L 175.959049 209.346797 
L 175.998836 209.370546 
L 176.038623 209.289148 
L 176.098303 209.328109 
L 176.16793 209.22419 
L 176.177877 209.253328 
L 176.237557 209.168727 
L 176.267397 209.182881 
L 176.346971 209.215379 
L 176.426545 209.073487 
L 176.516065 209.097941 
L 176.545906 209.05865 
L 176.784627 208.763979 
L 176.814467 208.811505 
L 176.884094 208.738129 
L 176.913934 208.752343 
L 177.122815 208.410783 
L 177.132762 208.439601 
L 177.192442 208.295172 
L 177.421217 207.985955 
L 177.44111 208.043442 
L 177.490844 207.924269 
L 177.510737 207.920998 
L 177.520684 207.93061 
L 177.560471 207.83522 
L 177.709672 207.696092 
L 177.719618 207.724753 
L 177.838979 207.791212 
L 177.868819 207.720273 
L 178.01802 207.517641 
L 178.037913 207.574729 
L 178.04786 207.584316 
L 178.087647 207.490131 
L 178.236848 207.407896 
L 178.256741 207.445939 
L 178.316422 207.338081 
L 178.56509 207.029647 
L 178.575036 207.058025 
L 178.634717 206.951076 
L 178.65461 206.956225 
L 178.71429 206.952682 
L 178.694397 206.999216 
L 178.74413 207.001546 
L 178.773971 207.059032 
L 178.833651 206.952417 
L 179.23152 206.291509 
L 179.301147 206.380831 
L 179.360827 206.308934 
L 179.579655 206.045679 
L 179.589602 206.055272 
L 179.629388 206.089824 
L 179.659229 206.02147 
L 179.689069 206.017871 
L 179.848216 205.871958 
L 179.858163 205.89995 
L 179.95763 205.897705 
L 179.967577 205.875059 
L 180.136671 205.683303 
L 180.156565 205.72076 
L 180.275925 205.724125 
L 180.285872 205.701616 
L 180.544487 205.391625 
L 180.604167 205.439726 
L 180.643954 205.358415 
L 180.813048 205.235236 
L 180.902568 205.271682 
L 180.932409 205.25487 
L 180.942355 205.264386 
L 180.972196 205.197775 
L 180.992089 205.185105 
L 181.071663 205.091659 
L 181.121396 205.121429 
L 181.151236 205.146063 
L 181.210917 205.045334 
L 181.320331 204.917788 
L 181.350171 204.983638 
L 181.370064 205.020618 
L 181.439691 204.939969 
L 181.568999 204.818768 
L 181.588892 204.837379 
L 181.658519 204.796078 
L 181.698306 204.838682 
L 182.026548 204.371997 
L 182.135962 204.474558 
L 182.145908 204.452862 
L 182.155855 204.462324 
L 182.185695 204.397281 
L 182.205589 204.385079 
L 182.38463 204.183924 
L 182.394576 204.193392 
L 182.404523 204.22057 
L 182.47415 204.112281 
L 182.722818 203.863061 
L 182.842179 203.920594 
L 182.852125 203.899207 
L 182.99138 203.738148 
L 183.02122 203.754588 
L 183.120687 203.875098 
L 183.17042 203.854704 
L 183.379302 203.626005 
L 183.389248 203.635416 
L 183.488715 203.795354 
L 183.538449 203.720759 
L 183.578236 203.71465 
L 183.568289 203.687865 
L 183.608076 203.651289 
L 183.816957 203.453931 
L 183.866691 203.45866 
L 183.846797 203.421287 
L 183.896531 203.395678 
L 184.145199 203.101375 
L 184.175039 203.146771 
L 184.224773 203.043172 
L 184.244666 203.056411 
L 184.523174 202.725786 
L 184.572908 202.764032 
L 184.553014 202.710952 
L 184.632588 202.734881 
L 184.761896 202.676048 
L 184.662428 202.750091 
L 184.771842 202.685408 
L 184.841469 202.695195 
L 184.821576 202.659397 
L 184.871309 202.672534 
L 185.000617 202.552402 
L 184.90115 202.696891 
L 185.030457 202.580084 
L 185.05035 202.598757 
L 185.100084 202.49621 
L 185.229391 202.362636 
L 185.249285 202.39831 
L 185.259231 202.424633 
L 185.308965 202.322517 
L 185.338805 202.329901 
L 185.547686 202.150984 
L 185.647154 202.185508 
L 185.6571 202.165219 
L 185.875928 201.946076 
L 185.925662 201.998046 
L 185.975395 201.901563 
L 186.104703 201.842679 
L 186.114649 201.851979 
L 186.214116 201.815025 
L 186.224063 201.802288 
L 186.393157 201.615374 
L 186.422998 201.652223 
L 186.502571 201.698966 
L 186.452838 201.638236 
L 186.532412 201.668289 
L 186.572198 201.709479 
L 186.661719 201.616351 
L 186.671666 201.642262 
L 186.711452 201.562867 
L 186.751239 201.567166 
L 186.880547 201.498995 
L 186.781079 201.591344 
L 186.890493 201.531596 
L 187.288362 201.101231 
L 187.328149 201.150752 
L 187.377883 201.195303 
L 187.44751 201.1632 
L 187.586764 201.007028 
L 187.616604 201.059955 
L 187.626551 201.0856 
L 187.696178 200.978641 
L 187.825485 200.950448 
L 187.974686 200.968058 
L 187.984632 200.949201 
L 188.133833 200.876075 
L 188.17362 200.909243 
L 188.223354 200.840998 
L 188.402395 200.724126 
L 188.481968 200.779609 
L 188.511809 200.721692 
L 188.740583 200.433678 
L 188.760477 200.476858 
L 188.939518 200.588201 
L 189.108612 200.466731 
L 189.118558 200.475837 
L 189.148399 200.50713 
L 189.178239 200.449846 
L 189.227972 200.455664 
L 189.287653 200.499296 
L 189.456747 200.2407 
L 189.556214 200.230637 
L 189.496534 200.193016 
L 189.566161 200.21168 
L 189.695468 200.095303 
L 189.725308 200.126106 
L 189.735255 200.143759 
L 189.804882 200.055465 
L 189.814829 200.064541 
L 189.973976 199.96314 
L 189.99387 200.013096 
L 190.033657 199.938011 
L 190.08339 199.959399 
L 190.471312 199.463974 
L 190.889074 198.917189 
L 190.899021 198.942006 
L 190.968648 198.827345 
L 191.147689 198.701337 
L 191.207369 198.733468 
L 191.247156 198.660102 
L 191.515718 198.38052 
L 191.555505 198.440827 
L 191.615185 198.334752 
L 191.814119 198.166515 
L 191.834013 198.200208 
L 191.893693 198.092739 
L 191.90364 198.110156 
L 191.923533 198.080901 
L 191.953373 198.16096 
L 191.99316 198.149962 
L 192.032947 198.120622 
L 192.102574 198.149098 
L 192.381082 197.752331 
L 192.420869 197.783852 
L 192.490496 197.833484 
L 192.54023 197.787145 
L 192.719271 197.640772 
L 192.729218 197.665166 
L 192.908258 197.717419 
L 192.918205 197.699603 
L 192.967939 197.652853 
L 193.017672 197.729621 
L 193.14698 197.800257 
L 193.156926 197.782485 
L 193.326021 197.670959 
L 193.335967 197.68811 
L 193.435435 197.639589 
L 193.664209 197.407051 
L 193.674156 197.424162 
L 193.684103 197.441268 
L 193.743783 197.343625 
L 193.84325 197.236558 
L 193.883037 197.291282 
L 193.892984 197.315359 
L 193.962611 197.206873 
L 194.151598 197.058458 
L 194.171492 197.091432 
L 194.231172 197.015317 
L 194.251066 197.015157 
L 194.290852 197.040736 
L 194.340586 196.954789 
L 194.410213 197.00283 
L 194.45 196.959614 
L 194.519627 197.006241 
L 194.559414 196.93681 
L 194.678774 196.928105 
L 194.688721 196.910785 
L 194.837922 196.846853 
L 194.897602 196.867347 
L 194.937389 196.798461 
L 195.11643 196.710194 
L 195.186057 196.683874 
L 195.225844 196.716202 
L 195.325311 196.713012 
L 195.295471 196.678422 
L 195.335258 196.695859 
L 195.454619 196.665024 
L 195.464565 196.688706 
L 195.554086 196.704855 
L 195.573979 196.671209 
L 195.78286 196.482089 
L 195.792807 196.490933 
L 195.802754 196.514537 
L 195.872381 196.39655 
L 195.961901 196.403336 
L 195.981795 196.369382 
L 196.150889 196.259127 
L 196.160836 196.282655 
L 196.170782 196.306177 
L 196.250356 196.224548 
L 196.439344 196.112157 
L 196.588545 196.133442 
L 196.598491 196.116627 
L 196.668118 196.052756 
L 196.707905 196.126065 
L 196.767585 196.171172 
L 196.837212 196.127037 
L 197.473803 195.266632 
L 197.523536 195.249132 
L 197.553376 195.200448 
L 197.752311 195.058596 
L 197.762257 195.0674 
L 198.120339 194.816281 
L 198.130286 194.832781 
L 198.2397 194.813658 
L 198.249647 194.797336 
L 198.498315 194.596906 
L 198.548048 194.605035 
L 198.587835 194.540113 
L 198.826556 194.3592 
L 198.93597 194.342266 
L 199.194585 194.134022 
L 199.274159 194.080119 
L 199.522827 193.883936 
L 199.532773 193.892694 
L 199.592454 193.797719 
L 199.811282 193.632088 
L 199.821228 193.654906 
L 199.900802 193.566965 
L 200.050003 193.512616 
L 200.059949 193.528894 
L 200.099736 193.466076 
L 200.129577 193.450743 
L 200.577179 192.938367 
L 200.597072 192.983749 
L 200.676646 192.915121 
L 200.835794 192.829771 
L 200.84574 192.852409 
L 203.093699 190.816378 
L 203.103646 190.838662 
L 203.113592 190.86094 
L 203.193166 190.772502 
L 203.511461 190.464292 
L 203.521408 190.48651 
L 203.600981 190.415117 
L 204.02869 189.97448 
L 204.038637 189.996623 
L 204.108264 189.89411 
L 204.386772 189.661864 
L 204.426559 189.687403 
L 204.476293 189.614568 
L 204.695121 189.428539 
L 204.705067 189.450578 
L 204.754801 189.468171 
L 204.794588 189.410537 
L 205.18251 189.03196 
L 205.222297 189.011165 
L 205.291924 189.029808 
L 205.600272 188.773475 
L 205.610219 188.795364 
L 205.679846 188.695039 
L 205.84894 188.60047 
L 205.858887 188.616244 
L 205.898674 188.589224 
L 205.978247 188.604142 
L 205.998141 188.628604 
L 206.057821 188.543792 
L 206.256755 188.403828 
L 206.266702 188.412536 
L 206.39601 188.437692 
L 206.674518 188.226832 
L 206.714305 188.242017 
L 206.764038 188.171881 
L 207.12212 187.852417 
L 207.171854 187.888982 
L 207.231534 187.833683 
L 207.480202 187.642005 
L 207.490149 187.663571 
L 207.599563 187.633611 
L 207.828337 187.477592 
L 207.897964 187.410699 
L 207.927804 187.436364 
L 208.36546 187.006127 
L 208.474874 186.98091 
L 208.882689 186.60388 
L 208.932423 186.615355 
L 208.982157 186.547738 
L 209.151251 186.524653 
L 209.161197 186.540093 
L 209.171144 186.561389 
L 209.240771 186.472478 
L 209.399919 186.38939 
L 209.419812 186.413431 
L 209.509333 186.384679 
L 209.469546 186.375001 
L 209.519279 186.371369 
L 209.748054 186.217489 
L 209.758001 186.238686 
L 210.374697 185.879817 
L 210.494058 185.911855 
L 210.504005 185.898566 
L 210.633312 185.823379 
L 210.663152 185.852196 
L 210.722832 185.844831 
L 210.762619 185.791846 
L 211.031181 185.604677 
L 211.130648 185.579219 
L 211.299742 185.524871 
L 211.309689 185.540068 
L 211.379316 185.448746 
L 211.727451 185.167636 
L 211.737398 185.188506 
L 211.777185 185.13635 
L 211.826918 185.142538 
L 212.185 184.849646 
L 212.194947 184.858187 
L 212.254627 184.781014 
L 212.413775 184.664934 
L 212.433668 184.695154 
L 212.443615 184.720896 
L 212.523189 184.639785 
L 212.841484 184.396042 
L 212.901164 184.352702 
L 212.940951 184.379012 
L 213.388553 183.959562 
L 213.448233 183.960056 
L 213.48802 183.909394 
L 213.716795 183.773005 
L 213.776475 183.840031 
L 213.836155 183.764495 
L 214.134557 183.539655 
L 214.164397 183.556121 
L 214.224077 183.501755 
L 214.572213 183.240936 
L 214.661733 183.231183 
L 214.681627 183.206259 
L 214.950188 183.023546 
L 214.960135 183.035486 
L 215.049655 182.93773 
L 215.238643 182.717916 
L 215.268483 182.732423 
L 215.358003 182.722715 
L 215.318217 182.6743 
L 215.36795 182.701794 
L 215.716085 182.231938 
L 215.735979 182.253191 
L 215.785712 182.126408 
L 216.113954 181.826286 
L 216.472036 181.290078 
L 216.481983 181.302018 
L 216.730651 181.21107 
L 216.899745 181.047656 
L 216.909692 181.08007 
L 217.009159 180.972803 
L 217.1882 180.760042 
L 217.257827 180.662022 
L 217.436868 180.5016 
L 217.496548 180.409541 
L 217.655696 180.255413 
L 217.735269 180.163242 
L 217.88447 180.047979 
L 218.192818 179.575035 
L 218.202765 179.602254 
L 218.212712 179.617947 
L 218.252499 179.517486 
L 218.272392 179.517686 
L 218.441486 179.332769 
L 218.650367 179.073813 
L 218.670261 179.101364 
L 218.849302 178.892456 
L 219.048236 178.607694 
L 219.147703 178.441607 
L 219.386425 178.195161 
L 219.406318 178.228023 
L 219.456052 178.120586 
L 219.625146 177.940726 
L 219.863867 177.692853 
L 219.883761 177.713774 
L 219.933494 177.611575 
L 220.192109 177.129414 
L 220.31147 176.947547 
L 220.470617 176.786034 
L 220.500457 176.851459 
L 220.570084 176.742974 
L 220.699392 176.552159 
L 221.216621 175.713716 
L 221.306141 175.604601 
L 221.574703 175.078843 
L 221.684117 175.039537 
L 221.932785 174.615911 
L 221.942731 174.636832 
L 221.982518 174.660618 
L 222.032252 174.568943 
L 222.161559 174.446285 
L 222.171506 174.452479 
L 222.191399 174.491754 
L 222.25108 174.37954 
L 222.261027 174.406875 
L 222.748416 173.583592 
L 222.758362 173.610927 
L 222.85783 173.503715 
L 223.106498 173.062322 
L 224.727813 171.270332 
L 224.73776 171.291253 
L 224.7676 171.204609 
L 224.807387 171.194153 
L 224.976481 171.011826 
L 225.185362 170.801124 
L 225.225149 170.714369 
L 225.453923 170.413103 
L 225.682698 170.170935 
L 225.831899 170.072019 
L 226.050726 169.852743 
L 226.140247 169.744532 
L 226.717157 168.71789 
L 226.73705 168.744776 
L 226.816624 168.64625 
L 226.995665 168.429231 
L 227.254279 168.136572 
L 227.463161 167.782381 
L 227.483054 167.809898 
L 227.532788 167.694757 
L 227.542734 167.694309 
L 227.771509 167.300996 
L 227.861029 167.21999 
L 228.099751 166.833524 
L 228.179324 166.737007 
L 228.348419 166.52781 
L 228.358365 166.560555 
L 228.388205 166.489306 
L 228.447886 166.489354 
L 228.7065 166.01634 
L 228.746287 166.038479 
L 228.805968 165.96601 
L 229.044689 165.556887 
L 229.532078 164.780954 
L 229.671332 164.674906 
L 229.880213 164.424979 
L 229.929947 164.33331 
L 230.148775 164.101873 
L 230.188562 164.1192 
L 230.208455 164.074398 
L 230.248242 164.074215 
L 230.357656 164.014341 
L 230.288029 164.101393 
L 230.377549 164.030034 
L 230.486963 163.925312 
L 230.765471 163.473853 
L 230.894779 163.391751 
L 231.034033 163.176925 
L 231.053926 163.204708 
L 231.10366 163.113424 
L 231.441848 162.648108 
L 231.481635 162.552768 
L 231.690516 162.199557 
L 231.730303 162.232857 
L 231.79993 162.191796 
L 232.028705 161.813787 
L 233.063163 160.413963 
L 233.182524 160.191022 
L 233.232258 160.207271 
L 233.291938 160.241384 
L 233.321778 160.16668 
L 233.490872 159.957416 
L 233.500819 159.978338 
L 233.560499 159.865394 
L 233.669913 159.768304 
L 233.779327 159.674989 
L 233.809167 159.70785 
L 233.819114 159.728655 
L 233.868848 159.587574 
L 234.047889 159.419291 
L 234.22693 159.335291 
L 234.455704 158.853736 
L 234.724266 158.345375 
L 234.773999 158.249416 
L 235.052507 157.796082 
L 235.062454 157.823416 
L 235.102241 157.692773 
L 235.132081 157.692773 
L 235.420536 157.097768 
L 235.430483 157.125103 
L 235.50011 156.994282 
L 235.510056 157.027143 
L 235.599577 156.977808 
L 235.549843 157.048311 
L 235.629417 157.005364 
L 235.778618 156.894156 
L 235.947712 156.731969 
L 235.997446 156.76833 
L 236.027286 156.669862 
L 236.037232 156.67031 
L 236.146646 156.549176 
L 236.16654 156.597316 
L 236.275954 156.48707 
L 236.405261 156.381825 
L 236.415208 156.390748 
L 236.524622 156.307533 
L 236.683769 156.144851 
L 236.723556 156.187934 
L 236.77329 156.127854 
L 236.942384 155.946704 
L 237.171158 155.845386 
L 237.320359 155.61274 
L 237.340253 155.640075 
L 237.429773 155.562243 
L 237.549134 155.457015 
L 237.718228 155.280745 
L 237.917162 155.191932 
L 238.116097 154.878992 
L 238.126043 154.883772 
L 238.255351 154.791807 
L 238.494072 154.492442 
L 238.504019 154.519777 
L 238.523912 154.547036 
L 238.553752 154.487255 
L 238.603486 154.502939 
L 238.74274 154.364039 
L 238.752687 154.391374 
L 238.931728 154.262675 
L 239.011301 154.160969 
L 239.200289 153.867087 
L 239.210236 153.893974 
L 239.269916 153.789424 
L 239.279863 153.789424 
L 239.518584 153.459589 
L 239.548424 153.514707 
L 239.598158 153.354625 
L 239.657838 153.274142 
L 239.826932 153.035171 
L 239.836879 153.062057 
L 239.976133 152.977384 
L 240.135281 152.81122 
L 240.194961 152.73204 
L 240.383949 152.485111 
L 240.393895 152.517973 
L 240.463522 152.410776 
L 240.692297 152.022139 
L 240.781817 151.912842 
L 241.000645 151.548804 
L 241.308994 151.231907 
L 241.527821 150.806222 
L 241.547715 150.812693 
L 241.746649 150.717757 
L 241.915743 150.519958 
L 241.92569 150.546629 
L 242.234038 150.156703 
L 242.393186 150.072901 
L 242.552333 149.9216 
L 242.671694 149.819838 
L 242.910415 149.395961 
L 242.980042 149.319617 
L 243.099403 149.274958 
L 243.10935 149.281308 
L 243.149137 149.17613 
L 243.238657 149.030497 
L 243.467432 148.720407 
L 243.586792 148.6355 
L 243.795673 148.380966 
L 243.915034 148.419489 
L 244.074181 148.308698 
L 244.312903 147.951429 
L 244.402423 147.852872 
L 244.611304 147.513589 
L 244.690878 147.409906 
L 245.0788 146.749459 
L 245.118587 146.798957 
L 245.178267 146.714169 
L 245.228001 146.599399 
L 245.476669 146.334102 
L 245.725337 146.053293 
L 246.003845 145.757222 
L 246.063525 145.662193 
L 246.252513 145.388665 
L 246.521074 145.306939 
L 246.660328 145.209252 
L 246.829423 145.108369 
L 247.127824 144.701047 
L 247.237238 144.597579 
L 247.396386 144.405656 
L 247.525693 144.324538 
L 247.674894 144.18814 
L 247.774361 144.08677 
L 247.933509 143.996363 
L 248.013082 143.912795 
L 248.152336 143.73738 
L 248.162283 143.758301 
L 248.241857 143.749697 
L 248.221963 143.722362 
L 248.251804 143.722362 
L 248.440791 143.523153 
L 248.460685 143.550488 
L 248.540258 143.51231 
L 248.888394 143.032992 
L 248.908287 143.064714 
L 248.948074 143.013662 
L 248.987861 143.029056 
L 249.156955 142.911616 
L 249.266369 142.815867 
L 249.594611 142.375675 
L 249.654291 142.29199 
L 249.783598 142.249058 
L 249.952692 142.1447 
L 250.17152 141.863047 
L 250.191414 141.874987 
L 250.330668 141.767755 
L 250.459975 141.665484 
L 250.648963 141.454818 
L 250.907578 141.202964 
L 251.036885 141.132068 
L 251.186086 141.045699 
L 251.345233 140.893338 
L 251.643635 140.511653 
L 251.802782 140.405352 
L 252.379692 139.439615 
L 252.479159 139.337649 
L 252.638307 139.195322 
L 252.747721 138.980925 
L 252.797454 139.067891 
L 252.886975 138.969044 
L 253.165483 138.422458 
L 253.195323 138.486291 
L 253.255003 138.350104 
L 253.434044 138.13728 
L 253.623032 137.890676 
L 253.742392 137.733141 
L 253.951274 137.430621 
L 254.020901 137.342044 
L 254.199942 137.069858 
L 254.219835 137.096305 
L 254.229782 137.11711 
L 254.279515 136.979969 
L 254.558023 136.56736 
L 254.677384 136.456962 
L 254.876318 136.174904 
L 254.945945 136.088128 
L 255.105093 135.930058 
L 255.194613 135.838673 
L 255.343814 135.686297 
L 255.383601 135.708583 
L 255.433335 135.613649 
L 255.582535 135.531053 
L 255.652163 135.421075 
L 255.861044 135.154582 
L 255.880937 135.174733 
L 256.199232 135.068248 
L 256.378273 134.879155 
L 256.497634 134.901243 
L 256.646834 134.794787 
L 256.835822 134.655363 
L 256.865662 134.688172 
L 256.905449 134.601976 
L 256.935289 134.613925 
L 257.064597 134.510229 
L 257.273478 134.295296 
L 257.293371 134.349966 
L 257.343105 134.243413 
L 257.382892 134.27589 
L 257.542039 134.199535 
L 257.69124 134.028872 
L 257.701187 134.035286 
L 257.830494 133.944889 
L 257.880228 133.853527 
L 257.939908 133.92924 
L 257.969748 133.882454 
L 258.029428 133.882836 
L 258.188576 133.675359 
L 258.198523 133.69628 
L 258.278096 133.581553 
L 258.427297 133.435061 
L 258.437244 133.462396 
L 258.496924 133.334083 
L 258.656072 133.125978 
L 258.666018 133.146775 
L 258.745592 133.062025 
L 258.924633 132.849559 
L 259.143461 132.765355 
L 259.302608 132.58504 
L 259.461756 132.577089 
L 259.63085 132.398566 
L 259.849678 132.11766 
L 259.949145 132.109287 
L 259.959092 132.088366 
L 260.128186 131.986165 
L 260.197813 131.891155 
L 260.406694 131.568802 
L 260.506161 131.473521 
L 260.585735 131.387923 
L 260.625522 131.440706 
L 260.754829 131.34814 
L 260.894083 131.255712 
L 261.053231 131.344784 
L 261.182538 131.405807 
L 261.272059 131.373719 
L 261.301899 131.386531 
L 261.988223 130.902741 
L 262.17721 130.638961 
L 262.256784 130.554629 
L 262.405985 130.379418 
L 262.415932 130.40034 
L 262.674546 130.164355 
L 262.774013 130.012659 
L 262.8138 130.046067 
L 262.883427 129.94797 
L 263.201722 129.535389 
L 263.33103 129.44155 
L 263.520017 129.195669 
L 263.669218 129.097599 
L 263.868152 128.888945 
L 263.927833 128.943407 
L 263.96762 128.856843 
L 264.05714 128.763937 
L 264.266021 128.511207 
L 264.415222 128.41893 
L 264.614156 128.127222 
L 264.69373 128.039361 
L 264.852878 127.838741 
L 264.872771 127.866076 
L 264.952345 127.818467 
L 265.121439 127.628621 
L 265.171173 127.649659 
L 265.201013 127.578409 
L 265.21096 127.578672 
L 265.320373 127.498188 
L 265.499414 127.258993 
L 265.559095 127.22307 
L 265.578988 127.181676 
L 265.738136 127.089252 
L 265.827656 126.998252 
L 266.016644 126.751719 
L 266.225525 126.563888 
L 266.374726 126.456672 
L 266.563713 126.277059 
L 266.6035 126.293585 
L 266.643287 126.206941 
L 266.653234 126.20739 
L 266.732808 126.100162 
L 266.941689 125.887952 
L 266.951635 125.892808 
L 267.12073 125.801114 
L 267.190357 125.724863 
L 267.24009 125.75251 
L 267.259984 125.779961 
L 267.309717 125.69928 
L 267.329611 125.694268 
L 267.518598 125.610878 
L 267.697639 125.351392 
L 267.926414 125.036923 
L 267.956254 125.06444 
L 268.035828 124.973709 
L 268.214869 124.806123 
L 268.463537 124.493976 
L 268.473483 124.521311 
L 268.702258 124.426742 
L 268.940979 124.145755 
L 268.960873 124.194011 
L 269.010606 124.058673 
L 269.229434 123.851745 
L 269.458209 123.749982 
L 269.617356 123.661847 
L 269.66709 123.570284 
L 269.816291 123.500943 
L 270.015225 123.604751 
L 270.104745 123.629104 
L 270.124639 123.601769 
L 270.243999 123.489516 
L 270.432987 123.342618 
L 270.462827 123.37625 
L 270.522508 123.300917 
L 270.681655 123.163992 
L 270.731389 123.080487 
L 270.751282 123.080039 
L 270.880589 122.991704 
L 271.02979 122.861802 
L 271.298352 122.764237 
L 271.447552 122.582454 
L 271.616647 122.38739 
L 271.726061 122.280437 
L 271.775794 122.308842 
L 271.994622 121.961392 
L 272.074196 121.863679 
L 272.412384 121.397293 
L 272.541692 121.317778 
L 272.700839 121.161695 
L 272.869933 121.058518 
L 273.039028 120.950394 
L 273.218068 120.821091 
L 273.228015 120.853952 
L 273.297642 120.726758 
L 273.446843 120.631761 
L 273.645777 120.399063 
L 273.735298 120.442837 
L 273.765138 120.40986 
L 273.884499 120.270529 
L 274.053593 120.045772 
L 274.15306 119.941306 
L 274.521089 119.365898 
L 274.531035 119.39876 
L 274.799597 119.30955 
L 274.998531 119.014711 
L 275.197466 118.914065 
L 275.406347 118.605568 
L 275.575441 118.488699 
L 275.704748 118.403141 
L 275.834056 118.250714 
L 275.853949 118.28346 
L 275.963363 118.190336 
L 276.142404 118.020475 
L 276.152351 118.04781 
L 276.709367 117.861922 
L 276.848621 117.760628 
L 276.997822 117.691565 
L 277.127129 117.61121 
L 277.30617 117.366008 
L 277.316117 117.393343 
L 277.574731 117.293323 
L 277.763719 117.095671 
L 277.773666 117.123006 
L 277.85324 117.025006 
L 277.982547 116.977802 
L 278.101908 116.896681 
L 278.251108 116.668877 
L 278.271002 116.701738 
L 278.708657 116.601019 
L 278.867805 116.451573 
L 279.066739 116.274331 
L 279.255727 116.166361 
L 279.434768 115.959328 
L 279.643649 115.86433 
L 279.82269 115.652902 
L 280.011678 115.562688 
L 280.160878 115.453435 
L 280.329973 115.277866 
L 280.51896 115.171399 
L 280.717895 114.991918 
L 280.737788 115.019252 
L 280.807415 114.916282 
L 280.936722 114.781571 
L 280.946669 114.808905 
L 281.03619 114.81502 
L 281.046136 114.773869 
L 281.145604 114.666959 
L 281.264964 114.657759 
L 281.274911 114.69062 
L 281.324645 114.625242 
L 281.364431 114.625869 
L 281.593206 114.526933 
L 281.802087 114.345866 
L 281.971181 114.256933 
L 282.090542 114.230121 
L 282.349157 114.140167 
L 282.558038 113.830857 
L 282.687345 113.731161 
L 282.836546 113.624291 
L 282.906173 113.530436 
L 283.115054 113.337163 
L 283.313988 113.229608 
L 283.403509 113.174203 
L 283.423402 113.228873 
L 283.542763 113.147273 
L 283.682017 113.052695 
L 283.771537 112.969998 
L 283.900845 112.928035 
L 284.239033 112.645675 
L 284.388234 112.53316 
L 284.507595 112.44691 
L 284.636902 112.414594 
L 284.786103 112.319293 
L 284.965144 112.18459 
L 285.034771 112.092382 
L 285.193918 111.930433 
L 285.203865 111.957768 
L 285.283439 111.854186 
L 285.482373 111.750793 
L 285.631574 111.619434 
L 285.860348 111.511345 
L 286.09907 111.269522 
L 286.278111 111.177698 
L 286.437258 111.0495 
L 286.496938 111.008823 
L 286.516832 110.976078 
L 286.596406 110.968226 
L 286.536725 110.988018 
L 286.616299 110.99556 
L 286.666033 111.022959 
L 286.725713 110.980885 
L 286.79534 110.888242 
L 286.954488 110.730606 
L 287.063901 110.651163 
L 287.213102 110.53111 
L 287.292676 110.432994 
L 287.49161 110.261617 
L 287.551291 110.285311 
L 287.601024 110.200958 
L 287.760172 110.070063 
L 287.869586 109.980428 
L 287.949159 109.881205 
L 287.998893 109.935297 
L 288.267454 109.827165 
L 288.406709 109.725264 
L 288.585749 109.642451 
L 288.754844 109.466851 
L 289.073139 109.362675 
L 289.28202 109.171937 
L 289.31186 109.199156 
L 289.381487 109.13143 
L 289.391434 109.152351 
L 289.560528 108.9741 
L 289.739569 108.880781 
L 289.819143 108.859988 
L 289.858929 108.880322 
L 290.545253 108.78739 
L 290.684507 108.62032 
L 290.694454 108.653181 
L 291.012749 108.56497 
L 291.052536 108.529868 
L 291.122163 108.557086 
L 291.291257 108.451287 
L 291.470298 108.246983 
L 291.490191 108.274169 
L 291.868167 108.178673 
L 292.096941 107.94809 
L 292.196408 107.856748 
L 292.375449 107.632881 
L 292.40529 107.6601 
L 292.484863 107.559275 
L 292.673851 107.340728 
L 292.733531 107.269894 
L 292.793212 107.355099 
L 292.942412 107.256421 
L 293.1314 107.149711 
L 293.250761 107.096168 
L 293.310441 107.177885 
L 293.350228 107.079301 
L 293.469589 107.063776 
L 293.549162 106.972392 
L 293.777937 106.74002 
L 293.917191 106.659586 
L 294.086285 106.474716 
L 294.235486 106.379991 
L 294.394633 106.241836 
L 294.543834 106.139241 
L 294.752715 105.9563 
L 294.92181 105.85203 
L 295.10085 105.64363 
L 295.369412 105.557345 
L 295.578293 105.368476 
L 295.936375 105.257661 
L 296.095522 105.147217 
L 296.105469 105.174146 
L 296.165149 105.050749 
L 296.324297 104.865347 
L 296.334244 104.892397 
L 297.030514 104.803712 
L 297.179715 104.676791 
L 297.507956 104.576705 
L 297.686997 104.391771 
L 299.865329 103.434461 
L 299.875276 103.461796 
L 300.094103 103.367276 
L 300.273144 103.180535 
L 300.68096 103.09015 
L 300.780427 103.068001 
L 300.800321 103.090108 
L 300.949521 102.979531 
L 301.068882 102.94086 
L 301.198189 102.979489 
L 301.665685 102.890526 
L 301.794992 102.826288 
L 302.56089 102.707724 
L 302.670304 102.615519 
L 302.690197 102.648335 
L 302.978652 102.576662 
L 303.107959 102.523785 
L 303.625189 102.435781 
L 303.77439 102.304576 
L 303.83407 102.331346 
L 303.873857 102.284359 
L 304.033004 102.19851 
L 304.172258 102.111886 
L 304.311512 102.029856 
L 304.858582 101.93596 
L 305.027676 101.87515 
L 305.216664 101.769142 
L 305.355918 101.655439 
L 305.604586 101.575299 
L 305.714 101.495375 
L 305.733893 101.528236 
L 305.902987 101.370431 
L 306.072082 101.28953 
L 306.191442 101.186404 
L 306.201389 101.213466 
L 306.35059 101.299886 
L 306.489844 101.21835 
L 306.648991 101.087582 
L 306.768352 100.991097 
L 306.887713 100.964331 
L 307.056807 100.872541 
L 307.156274 100.835207 
L 307.176167 100.868955 
L 307.295528 100.772835 
L 307.434782 100.70663 
L 307.564089 100.657574 
L 307.693397 100.643278 
L 307.932118 100.541469 
L 308.101212 100.439495 
L 308.538868 100.346443 
L 308.707962 100.187964 
L 308.887003 100.089101 
L 309.01631 100.00807 
L 309.026257 100.035071 
L 309.085938 99.947756 
L 309.105831 99.947872 
L 309.47386 99.851041 
L 309.642954 99.704724 
L 309.782208 99.678902 
L 309.891622 99.55242 
L 309.921462 99.586386 
L 309.931409 99.613721 
L 309.991089 99.532621 
L 310.010982 99.532621 
L 310.130343 99.444159 
L 310.299437 99.345349 
L 310.418798 99.244973 
L 310.548105 99.163458 
L 310.567999 99.191241 
L 310.637626 99.115766 
L 310.647572 99.115766 
L 311.005654 99.033096 
L 311.125015 98.981223 
L 311.194642 99.013871 
L 311.234429 98.98126 
L 311.453257 98.880807 
L 311.463203 98.853588 
L 311.493044 98.929179 
L 311.552724 98.929179 
L 311.821285 98.852334 
L 311.890912 98.893519 
L 311.940646 98.82835 
L 312.219154 98.740479 
L 312.318621 98.71472 
L 312.328568 98.742055 
L 312.706543 98.634007 
L 312.71649 98.592856 
L 312.815957 98.620413 
L 313.104412 98.517511 
L 313.283453 98.383639 
L 313.601748 98.281434 
L 313.671375 98.207411 
L 313.721109 98.24116 
L 314.039404 98.143782 
L 314.218445 98.015688 
L 314.337805 97.935158 
L 314.427326 97.896295 
L 314.457166 97.9171 
L 314.735674 97.809573 
L 314.894821 97.689204 
L 315.073862 97.591631 
L 315.153436 97.565182 
L 315.17333 97.592516 
L 315.282744 97.598216 
L 315.511518 97.497392 
L 315.591092 97.419709 
L 315.620932 97.495204 
L 315.829813 97.416976 
L 315.949174 97.342 
L 315.95912 97.369335 
L 316.605657 97.150478 
L 316.914005 97.059903 
L 317.2323 96.962787 
L 317.451128 96.76182 
L 318.366226 96.680096 
L 318.47564 96.647196 
L 318.485587 96.668117 
L 319.907968 96.695115 
L 319.937808 96.722596 
L 319.967648 96.65762 
L 320.017382 96.679291 
L 321.022 96.569771 
L 321.101574 96.443852 
L 321.151308 96.518107 
L 321.519336 96.423054 
L 321.678484 96.267479 
L 322.155926 96.158832 
L 322.29518 96.091118 
L 322.84225 95.996161 
L 323.011344 95.840519 
L 323.53852 95.721981 
L 323.647934 95.640413 
L 323.687721 95.667373 
L 325.100155 95.561296 
L 325.269249 95.41234 
L 325.408504 95.320619 
L 325.478131 95.227975 
L 325.547758 95.254542 
L 326.383282 95.159939 
L 326.472802 95.085967 
L 326.512589 95.113416 
L 327.228753 95.008596 
L 327.288433 94.955872 
L 327.348114 95.008973 
L 327.87529 94.927468 
L 327.895183 94.894653 
L 327.984704 94.923763 
L 328.223425 94.823677 
L 328.342786 94.776494 
L 328.352732 94.803828 
L 329.158417 94.716256 
L 329.307617 94.629997 
L 329.645806 94.53841 
L 329.795007 94.389642 
L 329.804953 94.416977 
L 330.441543 94.318936 
L 330.580797 94.274128 
L 331.545629 94.170486 
L 331.69483 94.056704 
L 331.814191 94.06738 
L 332.729289 93.981569 
L 332.868543 93.885781 
L 333.047584 93.778691 
L 333.137104 93.758099 
L 333.156998 93.790699 
L 333.435506 93.706325 
L 333.564813 93.647233 
L 333.674227 93.555245 
L 333.813481 93.486314 
L 334.191457 93.406739 
L 334.320764 93.341132 
L 334.430178 93.422956 
L 334.460018 93.402123 
L 334.539592 93.368377 
L 334.579379 93.396697 
L 334.867833 93.485297 
L 334.967301 93.485626 
L 335.116501 93.35714 
L 335.414903 93.271387 
L 335.54421 93.200551 
L 335.613837 93.227627 
L 335.643678 93.179371 
L 335.693411 93.097367 
L 335.772985 93.145952 
L 335.952026 93.056253 
L 336.081333 93.002797 
L 336.409575 92.89277 
L 336.558776 92.702424 
L 336.578669 92.729764 
L 336.72787 92.825662 
L 336.797497 92.732604 
L 336.976538 92.55871 
L 337.951316 92.452869 
L 338.130357 92.295315 
L 338.209931 92.354971 
L 338.249718 92.300301 
L 338.388972 92.40928 
L 338.498386 92.43736 
L 338.508333 92.416555 
L 339.672099 92.362102 
L 339.801406 92.302631 
L 340.686664 92.202915 
L 340.806025 92.164482 
L 341.12432 92.074009 
L 341.233734 92.041596 
L 341.313307 92.069394 
L 341.343148 92.042082 
L 341.482402 91.967473 
L 341.611709 92.00246 
L 341.800697 91.918784 
L 341.920057 91.880518 
L 342.407446 91.786691 
L 342.576541 91.634068 
L 342.994303 91.545278 
L 343.044037 91.495682 
L 343.09377 91.570729 
L 343.441905 91.481025 
L 343.541372 91.426558 
L 343.561266 91.460306 
L 345.023434 91.366392 
L 345.182581 91.289487 
L 346.047946 91.238749 
L 346.137466 91.206438 
L 346.15736 91.233324 
L 346.525388 91.150151 
L 346.644749 91.117309 
L 346.813843 91.011972 
L 346.963044 90.940462 
L 347.271392 90.836801 
L 347.370859 90.804519 
L 347.390753 90.821686 
L 347.699101 90.702682 
L 347.828408 90.668822 
L 348.464998 90.585582 
L 348.594306 90.532076 
L 349.31047 90.429326 
L 349.350256 90.45666 
L 349.42983 90.423683 
L 349.678498 90.330767 
L 349.817752 90.266624 
L 350.116154 90.163108 
L 350.245461 90.121786 
L 350.394662 90.13741 
L 350.514023 90.165134 
L 350.722904 90.063584 
L 350.762691 90.036025 
L 350.832318 90.062281 
L 352.732141 89.980454 
L 352.871395 89.892324 
L 353.79644 89.800932 
L 353.945641 89.736481 
L 354.940313 89.648513 
L 355.06962 89.569574 
L 355.198927 89.624667 
L 355.457542 89.514404 
L 355.576903 89.454229 
L 355.586849 89.481564 
L 355.696263 89.479534 
L 356.094132 89.416386 
L 356.233386 89.261137 
L 356.94955 89.157629 
L 357.06891 89.12767 
L 357.486673 89.017223 
L 357.606033 88.99675 
L 358.401771 88.881756 
L 358.531078 88.867054 
L 358.869267 88.774926 
L 358.978681 88.716419 
L 358.998574 88.743753 
L 359.117935 88.771134 
L 359.734631 88.869877 
L 359.784365 88.890798 
L 359.844045 88.863795 
L 359.983299 88.809395 
L 360.321488 88.699576 
L 360.480635 88.559531 
L 360.968024 88.46214 
L 361.107278 88.38039 
L 363.126462 88.286701 
L 363.28561 88.199166 
L 363.633745 88.091121 
L 363.753106 88.097228 
L 364.976552 87.995866 
L 365.105859 87.965744 
L 365.702663 87.881875 
L 365.792183 87.827462 
L 365.822023 87.854516 
L 365.931437 87.930182 
L 365.951331 87.897437 
L 366.309412 88.013894 
L 366.398933 88.035144 
L 366.40888 88.014294 
L 366.538187 87.929155 
L 366.766962 87.835149 
L 366.896269 87.780541 
L 368.239076 87.778346 
L 368.328596 87.736951 
L 368.34849 87.763837 
L 369.164121 87.663196 
L 369.243695 87.601665 
L 369.283481 87.63519 
L 369.422736 87.532587 
L 369.581883 87.386406 
L 370.666075 87.312208 
L 370.785436 87.2582 
L 370.914743 87.288747 
L 371.292719 87.176283 
L 371.392186 87.128475 
L 371.412079 87.155809 
L 371.949202 87.258531 
L 372.068563 87.292845 
L 372.207817 87.232279 
L 372.22771 87.259165 
L 372.247604 87.211358 
L 372.317231 87.211571 
L 372.685259 87.105321 
L 372.814567 87.031565 
L 373.849026 86.993412 
L 373.978333 86.937159 
L 374.246894 86.841884 
L 374.296628 86.808899 
L 374.356308 86.836434 
L 374.485616 86.944922 
L 374.565189 86.939931 
L 374.585083 86.912712 
L 375.907996 86.821606 
L 376.037304 86.789217 
L 376.932508 86.67808 
L 376.992189 86.657925 
L 377.022029 86.712262 
L 377.031976 86.712262 
L 378.782598 86.759051 
L 378.931799 86.860557 
L 379.369455 86.937571 
L 379.488815 86.963997 
L 380.901249 86.828021 
L 381.030557 86.734602 
L 381.667147 86.610911 
L 381.746721 86.513113 
L 381.786507 86.562241 
L 382.363417 86.647199 
L 383.457556 86.549547 
L 383.56697 86.547637 
L 386.08349 86.45175 
L 386.202851 86.424608 
L 386.312265 86.45171 
L 386.332158 86.424513 
L 386.411732 86.479415 
L 386.531092 86.505864 
L 387.476031 86.394804 
L 387.645125 86.281642 
L 387.804272 86.182279 
L 387.96342 86.062385 
L 389.087399 85.97261 
L 389.20676 85.93998 
L 389.803563 85.838587 
L 389.853297 85.784473 
L 389.922924 85.811924 
L 390.599301 85.719523 
L 390.738555 85.670589 
L 391.882427 85.563238 
L 392.011735 85.502073 
L 392.349923 85.399 
L 392.47923 85.344693 
L 394.2398 85.238097 
L 394.389 85.154184 
L 394.508361 85.181952 
L 395.065377 85.093821 
L 395.234472 84.909936 
L 395.622394 84.799652 
L 395.910849 84.860321 
L 396.089889 85.032442 
L 396.199303 85.034747 
L 398.437315 85.035065 
L 398.546729 85.063232 
L 398.676036 85.002653 
L 398.78545 84.997575 
L 399.620975 85.127471 
L 399.750282 85.180494 
L 399.99895 85.091743 
L 400.008897 85.064525 
L 400.088471 85.146561 
L 401.391491 85.242846 
L 401.441224 85.264521 
L 401.471064 85.210082 
L 401.490958 85.210414 
L 401.610319 85.177683 
L 401.809253 85.096159 
L 401.858987 85.064095 
L 401.918667 85.092223 
L 402.923285 85.020214 
L 402.943179 84.987352 
L 403.022753 85.04268 
L 405.230924 84.935734 
L 405.340338 84.882939 
L 405.350285 84.910274 
L 405.509432 85.025674 
L 407.558457 85.117159 
L 407.628084 85.177404 
L 407.677817 85.150572 
L 408.592915 85.128521 
L 408.602862 85.095849 
L 408.652596 85.20552 
L 408.692383 85.178075 
L 408.941051 85.261495 
L 409.000731 85.288885 
L 409.040518 85.235087 
L 410.09487 85.317563 
L 410.214231 85.41009 
L 410.224177 85.382755 
L 415.06823 85.28645 
L 415.18759 85.237039 
L 415.306951 85.264374 
L 415.714766 85.166356 
L 415.844074 85.109619 
L 415.963434 85.134971 
L 418.509794 85.024983 
L 418.619208 84.997237 
L 418.738569 85.024485 
L 418.94745 85.113748 
L 419.066811 85.140858 
L 419.305532 85.033341 
L 419.434839 84.985773 
L 419.663614 84.87907 
L 419.773028 84.878622 
L 420.807486 84.789868 
L 420.82738 84.757089 
L 420.847273 84.817285 
L 420.906954 84.817071 
L 421.971253 84.721096 
L 422.10056 84.666791 
L 422.647629 84.762856 
L 422.757043 84.81863 
L 422.76699 84.791295 
L 422.896297 84.731628 
L 423.284219 84.629071 
L 423.423474 84.514995 
L 423.43342 84.54233 
L 424.696654 84.474926 
L 424.825961 84.455535 
L 427.521522 84.398165 
L 427.640882 84.35602 
L 428.914062 84.460634 
L 429.023476 84.513536 
L 429.04337 84.491844 
L 429.16273 84.437755 
L 429.301985 84.512275 
L 429.749587 84.605925 
L 429.759534 84.633143 
L 429.849054 84.578459 
L 430.187243 84.679218 
L 430.326497 84.739145 
L 433.847635 84.630549 
L 433.966996 84.610795 
L 434.10625 84.690296 
L 434.146037 84.630332 
L 434.215664 84.684374 
L 436.04586 84.591757 
L 436.214954 84.452711 
L 437.846216 84.433712 
L 438.005364 84.339123 
L 438.671794 84.26306 
L 438.801101 84.213893 
L 440.631298 84.306342 
L 440.700925 84.36677 
L 440.760605 84.340453 
L 442.143199 84.252557 
L 442.222773 84.222099 
L 442.26256 84.249434 
L 443.615313 84.153979 
L 443.774461 84.034589 
L 446.569489 84.132568 
L 446.68885 84.158831 
L 450.846578 84.069739 
L 450.985832 84.012593 
L 452.915496 83.902884 
L 453.05475 83.853835 
L 454.96452 83.744713 
L 455.0242 83.772021 
L 455.08388 83.716933 
L 455.213188 83.770741 
L 455.680684 83.86533 
L 455.800044 83.893669 
L 455.919405 83.866625 
L 455.969138 83.894291 
L 456.018872 83.869113 
L 456.148179 83.819017 
L 456.794716 83.724533 
L 456.894183 83.665796 
L 456.924023 83.692799 
L 459.231662 83.590042 
L 459.351023 83.596575 
L 460.246228 83.499883 
L 460.355642 83.474081 
L 460.484949 83.525633 
L 461.708395 83.419765 
L 461.837703 83.364612 
L 462.66328 83.424423 
L 462.782641 83.451018 
L 463.21035 83.558689 
L 463.260084 83.586024 
L 463.279977 83.531354 
L 463.309817 83.531309 
L 464.752091 83.654359 
L 464.871452 83.67554 
L 465.378735 83.584392 
L 465.468255 83.562781 
L 465.498095 83.59034 
L 465.766657 83.503511 
L 465.806444 83.454807 
L 465.876071 83.508938 
L 467.02989 83.626499 
L 467.069677 83.653899 
L 467.139304 83.627242 
L 467.417812 83.53382 
L 467.547119 83.479931 
L 468.133976 83.366979 
L 468.263283 83.347129 
L 468.511951 83.457545 
L 468.770566 83.436401 
L 468.889927 83.411229 
L 469.645877 83.505048 
L 469.685664 83.564627 
L 469.765238 83.537018 
L 470.15316 83.434052 
L 470.282467 83.373857 
L 471.416393 83.357212 
L 471.51586 83.32974 
L 471.525807 83.357075 
L 472.271811 83.415593 
L 472.361332 83.441095 
L 472.371278 83.41376 
L 472.490639 83.387568 
L 473.873233 83.29569 
L 473.962753 83.247489 
L 473.992593 83.267514 
L 474.131848 83.183203 
L 474.241261 83.155303 
L 474.310888 83.209343 
L 474.360622 83.182008 
L 474.539663 83.233785 
L 474.659024 83.314783 
L 475.723323 83.403172 
L 475.862577 83.482863 
L 477.225277 83.375172 
L 477.314798 83.347972 
L 477.334691 83.375423 
L 478.249789 83.268 
L 478.33931 83.193731 
L 478.379097 83.22675 
L 478.558138 83.123691 
L 478.687445 83.070347 
L 479.572703 82.9504 
L 479.70201 82.891588 
L 481.532207 82.98515 
L 481.58194 83.012369 
L 481.64162 82.98671 
L 483.093841 83.081172 
L 483.193309 83.161713 
L 483.223149 83.128328 
L 483.46187 83.047975 
L 483.591177 82.988068 
L 485.520841 82.8526 
L 485.630255 82.825239 
L 485.670042 82.851804 
L 485.739669 82.824469 
L 486.117644 82.724099 
L 486.227058 82.66882 
L 486.237005 82.696155 
L 492.612852 82.785225 
L 492.722265 82.838821 
L 492.742159 82.8179 
L 493.478216 82.723063 
L 493.52795 82.70181 
L 493.577683 82.756928 
L 494.353527 82.843746 
L 494.522622 83.008922 
L 495.447667 82.907197 
L 495.636654 82.762648 
L 496.273244 82.796573 
L 496.372711 82.904217 
L 496.402552 82.876883 
L 496.531859 82.822293 
L 497.625998 82.718591 
L 497.775199 82.615991 
L 499.088166 82.53789 
L 499.217473 82.483588 
L 500.202198 82.403534 
L 500.301665 82.376437 
L 500.311612 82.403771 
L 500.679641 82.306125 
L 500.799001 82.277691 
L 501.25655 82.360416 
L 501.385858 82.413495 
L 504.887103 82.262888 
L 505.036304 82.17488 
L 505.225291 82.25883 
L 505.334705 82.25792 
L 506.309484 82.181626 
L 506.379111 82.154756 
L 506.418898 82.18141 
L 507.453356 82.048178 
L 507.572717 82.021141 
L 508.10984 81.943756 
L 508.239147 81.890575 
L 508.467922 82.001447 
L 508.587282 82.027448 
L 508.726537 81.967699 
L 509.114459 81.859 
L 509.203979 81.832293 
L 509.223872 81.859558 
L 509.562061 81.764535 
L 509.691368 81.704771 
L 509.800782 81.786363 
L 509.940036 81.87339 
L 510.059397 81.846759 
L 510.387639 81.758164 
L 510.467212 81.704234 
L 510.516946 81.728914 
L 516.067215 81.62163 
L 516.196523 81.598927 
L 518.285334 81.508394 
L 518.404694 81.453866 
L 518.524055 81.481375 
L 519.299899 81.58572 
L 519.439153 81.668705 
L 519.56846 81.613194 
L 520.105583 81.696591 
L 520.224944 81.736143 
L 520.921214 81.82214 
L 520.970948 81.849475 
L 521.030628 81.822472 
L 523.666509 81.86853 
L 523.785869 81.815359 
L 523.815709 81.843142 
L 523.885336 81.788396 
L 524.084271 81.892773 
L 524.283205 82.0475 
L 527.585516 81.976052 
L 527.684983 82.090407 
L 527.734717 82.061948 
L 528.381253 81.949427 
L 528.440934 81.894416 
L 528.500614 81.921634 
L 533.633121 81.65584 
L 533.702748 81.629923 
L 533.742535 81.662784 
L 538.984456 81.753024 
L 539.113763 81.774412 
L 539.262964 81.685655 
L 539.382325 81.71294 
L 540.725132 81.799994 
L 540.874333 81.91006 
L 542.386234 82.020626 
L 542.426021 82.06211 
L 542.485701 82.007655 
L 542.615008 81.95289 
L 544.524779 81.883314 
L 548.473626 81.891332 
L 548.602933 81.945281 
L 549.348937 81.856655 
L 549.468298 81.829118 
L 551.358175 81.735985 
L 551.437748 81.703495 
L 551.477535 81.728033 
L 551.964924 81.806428 
L 552.024605 81.833015 
L 552.074338 81.806133 
L 553.387305 81.917514 
L 553.526559 81.999534 
L 554.9191 81.889428 
L 555.088194 81.786583 
L 557.644501 81.680648 
L 557.763862 81.653029 
L 558.430292 81.568844 
L 558.559599 81.515418 
L 558.947521 81.593857 
L 559.017148 81.626242 
L 559.056935 81.598907 
L 560.200808 81.683336 
L 560.320168 81.711008 
L 565.721237 81.624884 
L 565.770971 81.598256 
L 565.820704 81.652963 
L 567.282872 81.74351 
L 567.392286 81.742775 
L 568.386958 81.827588 
L 568.496372 81.828378 
L 568.854453 81.71831 
L 568.983761 81.682102 
L 569.699925 81.788568 
L 569.839179 81.868214 
L 570.833851 81.765835 
L 570.963158 81.705281 
L 571.41076 81.816163 
L 571.569908 81.931103 
L 572.853035 82.039253 
L 572.982342 82.093939 
L 573.101703 82.065485 
L 574.006854 81.95958 
L 574.136161 81.850937 
L 574.265469 81.905372 
L 575.120887 81.789178 
L 575.250194 81.733853 
L 581.277906 81.907988 
L 581.407213 81.860108 
L 582.590873 81.755979 
L 582.72018 81.702697 
L 582.849487 81.755479 
L 583.29709 81.837642 
L 583.426397 81.894998 
L 583.565651 81.809925 
L 586.320892 81.911017 
L 586.400466 81.938045 
L 586.420359 81.88351 
L 587.991941 81.839424 
L 588.051621 81.810943 
L 588.101355 81.839002 
L 590.070805 81.933411 
L 590.220006 82.032379 
L 590.667608 82.122012 
L 592.17951 82.049463 
L 592.278977 82.048926 
L 592.408284 82.10851 
L 593.969919 82.062605 
L 594.009706 82.036381 
L 594.05944 82.118564 
L 595.561394 82.064597 
L 595.680755 82.036529 
L 596.436706 81.927188 
L 596.516279 81.838813 
L 596.566013 81.866212 
L 597.152869 81.950606 
L 599.15216 81.878345 
L 599.261574 81.82493 
L 599.27152 81.852264 
L 602.464417 81.951036 
L 602.514151 82.005257 
L 602.573831 81.952413 
L 602.633512 81.893048 
L 602.693192 81.921206 
L 603.041327 82.030608 
L 603.081114 82.057495 
L 603.150741 82.029222 
L 603.180581 81.97432 
L 603.260155 82.033952 
L 606.602252 81.968644 
L 606.73156 81.910403 
L 607.905273 81.818017 
L 608.054473 81.729368 
L 608.909891 81.815362 
L 609.059092 81.924585 
L 609.267973 81.839953 
L 609.417174 81.698337 
L 609.994084 81.613683 
L 610.113444 81.5865 
L 610.819661 81.507307 
L 611.356784 81.416856 
L 611.476145 81.389627 
L 612.162468 81.301605 
L 612.271882 81.222487 
L 612.291776 81.249822 
L 615.245951 81.158793 
L 615.285738 81.131915 
L 615.355365 81.159312 
L 615.991955 81.160544 
L 616.031742 81.13378 
L 616.051636 81.188449 
L 616.091422 81.188358 
L 617.732631 81.283849 
L 617.861938 81.338984 
L 618.050926 81.260163 
L 618.170287 81.231838 
L 618.76709 81.123861 
L 618.906344 81.041619 
L 619.572774 80.953727 
L 619.702082 80.892981 
L 622.636364 80.871553 
L 622.636364 80.871553 
" clip-path="url(#p33bbab3013)" style="fill: none; stroke: #ff7f0e; stroke-width: 1.5; stroke-linecap: square"/>
   </g>
   <g id="patch_3">
    <path d="M 90 320.4 
L 90 43.2 
" style="fill: none; stroke: #000000; stroke-width: 0.8; stroke-linejoin: miter; stroke-linecap: square"/>
   </g>
   <g id="patch_4">
    <path d="M 648 320.4 
L 648 43.2 
" style="fill: none; stroke: #000000; stroke-width: 0.8; stroke-linejoin: miter; stroke-linecap: square"/>
   </g>
   <g id="patch_5">
    <path d="M 90 320.4 
L 648 320.4 
" style="fill: none; stroke: #000000; stroke-width: 0.8; stroke-linejoin: miter; stroke-linecap: square"/>
   </g>
   <g id="patch_6">
    <path d="M 90 43.2 
L 648 43.2 
" style="fill: none; stroke: #000000; stroke-width: 0.8; stroke-linejoin: miter; stroke-linecap: square"/>
   </g>
   <g id="text_14">
    <!-- Evolution of rewards (PPO ) -->
    <g transform="translate(287.069062 37.2) scale(0.12 -0.12)">
     <defs>
      <path id="DejaVuSans-45" d="M 628 4666 
L 3578 4666 
L 3578 4134 
L 1259 4134 
L 1259 2753 
L 3481 2753 
L 3481 2222 
L 1259 2222 
L 1259 531 
L 3634 531 
L 3634 0 
L 628 0 
L 628 4666 
z
" transform="scale(0.015625)"/>
      <path id="DejaVuSans-6f" d="M 1959 3097 
Q 1497 3097 1228 2736 
Q 959 2375 959 1747 
Q 959 1119 1226 758 
Q 1494 397 1959 397 
Q 2419 397 2687 759 
Q 2956 1122 2956 1747 
Q 2956 2369 2687 2733 
Q 2419 3097 1959 3097 
z
M 1959 3584 
Q 2709 3584 3137 3096 
Q 3566 2609 3566 1747 
Q 3566 888 3137 398 
Q 2709 -91 1959 -91 
Q 1206 -91 779 398 
Q 353 888 353 1747 
Q 353 2609 779 3096 
Q 1206 3584 1959 3584 
z
" transform="scale(0.015625)"/>
      <path id="DejaVuSans-6c" d="M 603 4863 
L 1178 4863 
L 1178 0 
L 603 0 
L 603 4863 
z
" transform="scale(0.015625)"/>
      <path id="DejaVuSans-75" d="M 544 1381 
L 544 3500 
L 1119 3500 
L 1119 1403 
Q 1119 906 1312 657 
Q 1506 409 1894 409 
Q 2359 409 2629 706 
Q 2900 1003 2900 1516 
L 2900 3500 
L 3475 3500 
L 3475 0 
L 2900 0 
L 2900 538 
Q 2691 219 2414 64 
Q 2138 -91 1772 -91 
Q 1169 -91 856 284 
Q 544 659 544 1381 
z
M 1991 3584 
L 1991 3584 
z
" transform="scale(0.015625)"/>
      <path id="DejaVuSans-6e" d="M 3513 2113 
L 3513 0 
L 2938 0 
L 2938 2094 
Q 2938 2591 2744 2837 
Q 2550 3084 2163 3084 
Q 1697 3084 1428 2787 
Q 1159 2491 1159 1978 
L 1159 0 
L 581 0 
L 581 3500 
L 1159 3500 
L 1159 2956 
Q 1366 3272 1645 3428 
Q 1925 3584 2291 3584 
Q 2894 3584 3203 3211 
Q 3513 2838 3513 2113 
z
" transform="scale(0.015625)"/>
      <path id="DejaVuSans-66" d="M 2375 4863 
L 2375 4384 
L 1825 4384 
Q 1516 4384 1395 4259 
Q 1275 4134 1275 3809 
L 1275 3500 
L 2222 3500 
L 2222 3053 
L 1275 3053 
L 1275 0 
L 697 0 
L 697 3053 
L 147 3053 
L 147 3500 
L 697 3500 
L 697 3744 
Q 697 4328 969 4595 
Q 1241 4863 1831 4863 
L 2375 4863 
z
" transform="scale(0.015625)"/>
      <path id="DejaVuSans-28" d="M 1984 4856 
Q 1566 4138 1362 3434 
Q 1159 2731 1159 2009 
Q 1159 1288 1364 580 
Q 1569 -128 1984 -844 
L 1484 -844 
Q 1016 -109 783 600 
Q 550 1309 550 2009 
Q 550 2706 781 3412 
Q 1013 4119 1484 4856 
L 1984 4856 
z
" transform="scale(0.015625)"/>
      <path id="DejaVuSans-50" d="M 1259 4147 
L 1259 2394 
L 2053 2394 
Q 2494 2394 2734 2622 
Q 2975 2850 2975 3272 
Q 2975 3691 2734 3919 
Q 2494 4147 2053 4147 
L 1259 4147 
z
M 628 4666 
L 2053 4666 
Q 2838 4666 3239 4311 
Q 3641 3956 3641 3272 
Q 3641 2581 3239 2228 
Q 2838 1875 2053 1875 
L 1259 1875 
L 1259 0 
L 628 0 
L 628 4666 
z
" transform="scale(0.015625)"/>
      <path id="DejaVuSans-4f" d="M 2522 4238 
Q 1834 4238 1429 3725 
Q 1025 3213 1025 2328 
Q 1025 1447 1429 934 
Q 1834 422 2522 422 
Q 3209 422 3611 934 
Q 4013 1447 4013 2328 
Q 4013 3213 3611 3725 
Q 3209 4238 2522 4238 
z
M 2522 4750 
Q 3503 4750 4090 4092 
Q 4678 3434 4678 2328 
Q 4678 1225 4090 567 
Q 3503 -91 2522 -91 
Q 1538 -91 948 565 
Q 359 1222 359 2328 
Q 359 3434 948 4092 
Q 1538 4750 2522 4750 
z
" transform="scale(0.015625)"/>
      <path id="DejaVuSans-29" d="M 513 4856 
L 1013 4856 
Q 1481 4119 1714 3412 
Q 1947 2706 1947 2009 
Q 1947 1309 1714 600 
Q 1481 -109 1013 -844 
L 513 -844 
Q 928 -128 1133 580 
Q 1338 1288 1338 2009 
Q 1338 2731 1133 3434 
Q 928 4138 513 4856 
z
" transform="scale(0.015625)"/>
     </defs>
     <use xlink:href="#DejaVuSans-45"/>
     <use xlink:href="#DejaVuSans-76" x="63.183594"/>
     <use xlink:href="#DejaVuSans-6f" x="122.363281"/>
     <use xlink:href="#DejaVuSans-6c" x="183.544922"/>
     <use xlink:href="#DejaVuSans-75" x="211.328125"/>
     <use xlink:href="#DejaVuSans-74" x="274.707031"/>
     <use xlink:href="#DejaVuSans-69" x="313.916016"/>
     <use xlink:href="#DejaVuSans-6f" x="341.699219"/>
     <use xlink:href="#DejaVuSans-6e" x="402.880859"/>
     <use xlink:href="#DejaVuSans-20" x="466.259766"/>
     <use xlink:href="#DejaVuSans-6f" x="498.046875"/>
     <use xlink:href="#DejaVuSans-66" x="559.228516"/>
     <use xlink:href="#DejaVuSans-20" x="594.433594"/>
     <use xlink:href="#DejaVuSans-72" x="626.220703"/>
     <use xlink:href="#DejaVuSans-65" x="665.083984"/>
     <use xlink:href="#DejaVuSans-77" x="726.607422"/>
     <use xlink:href="#DejaVuSans-61" x="808.394531"/>
     <use xlink:href="#DejaVuSans-72" x="869.673828"/>
     <use xlink:href="#DejaVuSans-64" x="909.037109"/>
     <use xlink:href="#DejaVuSans-73" x="972.513672"/>
     <use xlink:href="#DejaVuSans-20" x="1024.613281"/>
     <use xlink:href="#DejaVuSans-28" x="1056.400391"/>
     <use xlink:href="#DejaVuSans-50" x="1095.414062"/>
     <use xlink:href="#DejaVuSans-50" x="1155.716797"/>
     <use xlink:href="#DejaVuSans-4f" x="1216.019531"/>
     <use xlink:href="#DejaVuSans-20" x="1294.730469"/>
     <use xlink:href="#DejaVuSans-29" x="1326.517578"/>
    </g>
   </g>
  </g>
 </g>
 <defs>
  <clipPath id="p33bbab3013">
   <rect x="90" y="43.2" width="558" height="277.2"/>
  </clipPath>
 </defs>
</svg>
