<?xml version="1.0" encoding="utf-8" standalone="no"?>
<!DOCTYPE svg PUBLIC "-//W3C//DTD SVG 1.1//EN"
  "http://www.w3.org/Graphics/SVG/1.1/DTD/svg11.dtd">
<svg xmlns:xlink="http://www.w3.org/1999/xlink" width="720pt" height="360pt" viewBox="0 0 720 360" xmlns="http://www.w3.org/2000/svg" version="1.1">
 <metadata>
  <rdf:RDF xmlns:dc="http://purl.org/dc/elements/1.1/" xmlns:cc="http://creativecommons.org/ns#" xmlns:rdf="http://www.w3.org/1999/02/22-rdf-syntax-ns#">
   <cc:Work>
    <dc:type rdf:resource="http://purl.org/dc/dcmitype/StillImage"/>
    <dc:date>2024-03-15T18:20:38.629702</dc:date>
    <dc:format>image/svg+xml</dc:format>
    <dc:creator>
     <cc:Agent>
      <dc:title>Matplotlib v3.7.0, https://matplotlib.org/</dc:title>
     </cc:Agent>
    </dc:creator>
   </cc:Work>
  </rdf:RDF>
 </metadata>
 <defs>
  <style type="text/css">*{stroke-linejoin: round; stroke-linecap: butt}</style>
 </defs>
 <g id="figure_1">
  <g id="patch_1">
   <path d="M 0 360 
L 720 360 
L 720 0 
L 0 0 
z
" style="fill: #ffffff"/>
  </g>
  <g id="axes_1">
   <g id="patch_2">
    <path d="M 90 320.4 
L 648 320.4 
L 648 43.2 
L 90 43.2 
z
" style="fill: #ffffff"/>
   </g>
   <g id="matplotlib.axis_1">
    <g id="xtick_1">
     <g id="line2d_1">
      <defs>
       <path id="m108c9fe8e0" d="M 0 0 
L 0 3.5 
" style="stroke: #000000; stroke-width: 0.8"/>
      </defs>
      <g>
       <use xlink:href="#m108c9fe8e0" x="115.279077" y="320.4" style="stroke: #000000; stroke-width: 0.8"/>
      </g>
     </g>
     <g id="text_1">
      <!-- 0 -->
      <g transform="translate(112.097827 334.998438) scale(0.1 -0.1)">
       <defs>
        <path id="DejaVuSans-30" d="M 2034 4250 
Q 1547 4250 1301 3770 
Q 1056 3291 1056 2328 
Q 1056 1369 1301 889 
Q 1547 409 2034 409 
Q 2525 409 2770 889 
Q 3016 1369 3016 2328 
Q 3016 3291 2770 3770 
Q 2525 4250 2034 4250 
z
M 2034 4750 
Q 2819 4750 3233 4129 
Q 3647 3509 3647 2328 
Q 3647 1150 3233 529 
Q 2819 -91 2034 -91 
Q 1250 -91 836 529 
Q 422 1150 422 2328 
Q 422 3509 836 4129 
Q 1250 4750 2034 4750 
z
" transform="scale(0.015625)"/>
       </defs>
       <use xlink:href="#DejaVuSans-30"/>
      </g>
     </g>
    </g>
    <g id="xtick_2">
     <g id="line2d_2">
      <g>
       <use xlink:href="#m108c9fe8e0" x="199.838625" y="320.4" style="stroke: #000000; stroke-width: 0.8"/>
      </g>
     </g>
     <g id="text_2">
      <!-- 1000 -->
      <g transform="translate(187.113625 334.998438) scale(0.1 -0.1)">
       <defs>
        <path id="DejaVuSans-31" d="M 794 531 
L 1825 531 
L 1825 4091 
L 703 3866 
L 703 4441 
L 1819 4666 
L 2450 4666 
L 2450 531 
L 3481 531 
L 3481 0 
L 794 0 
L 794 531 
z
" transform="scale(0.015625)"/>
       </defs>
       <use xlink:href="#DejaVuSans-31"/>
       <use xlink:href="#DejaVuSans-30" x="63.623047"/>
       <use xlink:href="#DejaVuSans-30" x="127.246094"/>
       <use xlink:href="#DejaVuSans-30" x="190.869141"/>
      </g>
     </g>
    </g>
    <g id="xtick_3">
     <g id="line2d_3">
      <g>
       <use xlink:href="#m108c9fe8e0" x="284.398172" y="320.4" style="stroke: #000000; stroke-width: 0.8"/>
      </g>
     </g>
     <g id="text_3">
      <!-- 2000 -->
      <g transform="translate(271.673172 334.998438) scale(0.1 -0.1)">
       <defs>
        <path id="DejaVuSans-32" d="M 1228 531 
L 3431 531 
L 3431 0 
L 469 0 
L 469 531 
Q 828 903 1448 1529 
Q 2069 2156 2228 2338 
Q 2531 2678 2651 2914 
Q 2772 3150 2772 3378 
Q 2772 3750 2511 3984 
Q 2250 4219 1831 4219 
Q 1534 4219 1204 4116 
Q 875 4013 500 3803 
L 500 4441 
Q 881 4594 1212 4672 
Q 1544 4750 1819 4750 
Q 2544 4750 2975 4387 
Q 3406 4025 3406 3419 
Q 3406 3131 3298 2873 
Q 3191 2616 2906 2266 
Q 2828 2175 2409 1742 
Q 1991 1309 1228 531 
z
" transform="scale(0.015625)"/>
       </defs>
       <use xlink:href="#DejaVuSans-32"/>
       <use xlink:href="#DejaVuSans-30" x="63.623047"/>
       <use xlink:href="#DejaVuSans-30" x="127.246094"/>
       <use xlink:href="#DejaVuSans-30" x="190.869141"/>
      </g>
     </g>
    </g>
    <g id="xtick_4">
     <g id="line2d_4">
      <g>
       <use xlink:href="#m108c9fe8e0" x="368.95772" y="320.4" style="stroke: #000000; stroke-width: 0.8"/>
      </g>
     </g>
     <g id="text_4">
      <!-- 3000 -->
      <g transform="translate(356.23272 334.998438) scale(0.1 -0.1)">
       <defs>
        <path id="DejaVuSans-33" d="M 2597 2516 
Q 3050 2419 3304 2112 
Q 3559 1806 3559 1356 
Q 3559 666 3084 287 
Q 2609 -91 1734 -91 
Q 1441 -91 1130 -33 
Q 819 25 488 141 
L 488 750 
Q 750 597 1062 519 
Q 1375 441 1716 441 
Q 2309 441 2620 675 
Q 2931 909 2931 1356 
Q 2931 1769 2642 2001 
Q 2353 2234 1838 2234 
L 1294 2234 
L 1294 2753 
L 1863 2753 
Q 2328 2753 2575 2939 
Q 2822 3125 2822 3475 
Q 2822 3834 2567 4026 
Q 2313 4219 1838 4219 
Q 1578 4219 1281 4162 
Q 984 4106 628 3988 
L 628 4550 
Q 988 4650 1302 4700 
Q 1616 4750 1894 4750 
Q 2613 4750 3031 4423 
Q 3450 4097 3450 3541 
Q 3450 3153 3228 2886 
Q 3006 2619 2597 2516 
z
" transform="scale(0.015625)"/>
       </defs>
       <use xlink:href="#DejaVuSans-33"/>
       <use xlink:href="#DejaVuSans-30" x="63.623047"/>
       <use xlink:href="#DejaVuSans-30" x="127.246094"/>
       <use xlink:href="#DejaVuSans-30" x="190.869141"/>
      </g>
     </g>
    </g>
    <g id="xtick_5">
     <g id="line2d_5">
      <g>
       <use xlink:href="#m108c9fe8e0" x="453.517268" y="320.4" style="stroke: #000000; stroke-width: 0.8"/>
      </g>
     </g>
     <g id="text_5">
      <!-- 4000 -->
      <g transform="translate(440.792268 334.998438) scale(0.1 -0.1)">
       <defs>
        <path id="DejaVuSans-34" d="M 2419 4116 
L 825 1625 
L 2419 1625 
L 2419 4116 
z
M 2253 4666 
L 3047 4666 
L 3047 1625 
L 3713 1625 
L 3713 1100 
L 3047 1100 
L 3047 0 
L 2419 0 
L 2419 1100 
L 313 1100 
L 313 1709 
L 2253 4666 
z
" transform="scale(0.015625)"/>
       </defs>
       <use xlink:href="#DejaVuSans-34"/>
       <use xlink:href="#DejaVuSans-30" x="63.623047"/>
       <use xlink:href="#DejaVuSans-30" x="127.246094"/>
       <use xlink:href="#DejaVuSans-30" x="190.869141"/>
      </g>
     </g>
    </g>
    <g id="xtick_6">
     <g id="line2d_6">
      <g>
       <use xlink:href="#m108c9fe8e0" x="538.076816" y="320.4" style="stroke: #000000; stroke-width: 0.8"/>
      </g>
     </g>
     <g id="text_6">
      <!-- 5000 -->
      <g transform="translate(525.351816 334.998438) scale(0.1 -0.1)">
       <defs>
        <path id="DejaVuSans-35" d="M 691 4666 
L 3169 4666 
L 3169 4134 
L 1269 4134 
L 1269 2991 
Q 1406 3038 1543 3061 
Q 1681 3084 1819 3084 
Q 2600 3084 3056 2656 
Q 3513 2228 3513 1497 
Q 3513 744 3044 326 
Q 2575 -91 1722 -91 
Q 1428 -91 1123 -41 
Q 819 9 494 109 
L 494 744 
Q 775 591 1075 516 
Q 1375 441 1709 441 
Q 2250 441 2565 725 
Q 2881 1009 2881 1497 
Q 2881 1984 2565 2268 
Q 2250 2553 1709 2553 
Q 1456 2553 1204 2497 
Q 953 2441 691 2322 
L 691 4666 
z
" transform="scale(0.015625)"/>
       </defs>
       <use xlink:href="#DejaVuSans-35"/>
       <use xlink:href="#DejaVuSans-30" x="63.623047"/>
       <use xlink:href="#DejaVuSans-30" x="127.246094"/>
       <use xlink:href="#DejaVuSans-30" x="190.869141"/>
      </g>
     </g>
    </g>
    <g id="xtick_7">
     <g id="line2d_7">
      <g>
       <use xlink:href="#m108c9fe8e0" x="622.636364" y="320.4" style="stroke: #000000; stroke-width: 0.8"/>
      </g>
     </g>
     <g id="text_7">
      <!-- 6000 -->
      <g transform="translate(609.911364 334.998438) scale(0.1 -0.1)">
       <defs>
        <path id="DejaVuSans-36" d="M 2113 2584 
Q 1688 2584 1439 2293 
Q 1191 2003 1191 1497 
Q 1191 994 1439 701 
Q 1688 409 2113 409 
Q 2538 409 2786 701 
Q 3034 994 3034 1497 
Q 3034 2003 2786 2293 
Q 2538 2584 2113 2584 
z
M 3366 4563 
L 3366 3988 
Q 3128 4100 2886 4159 
Q 2644 4219 2406 4219 
Q 1781 4219 1451 3797 
Q 1122 3375 1075 2522 
Q 1259 2794 1537 2939 
Q 1816 3084 2150 3084 
Q 2853 3084 3261 2657 
Q 3669 2231 3669 1497 
Q 3669 778 3244 343 
Q 2819 -91 2113 -91 
Q 1303 -91 875 529 
Q 447 1150 447 2328 
Q 447 3434 972 4092 
Q 1497 4750 2381 4750 
Q 2619 4750 2861 4703 
Q 3103 4656 3366 4563 
z
" transform="scale(0.015625)"/>
       </defs>
       <use xlink:href="#DejaVuSans-36"/>
       <use xlink:href="#DejaVuSans-30" x="63.623047"/>
       <use xlink:href="#DejaVuSans-30" x="127.246094"/>
       <use xlink:href="#DejaVuSans-30" x="190.869141"/>
      </g>
     </g>
    </g>
    <g id="text_8">
     <!-- Time step -->
     <g transform="translate(344.361719 348.676562) scale(0.1 -0.1)">
      <defs>
       <path id="DejaVuSans-54" d="M -19 4666 
L 3928 4666 
L 3928 4134 
L 2272 4134 
L 2272 0 
L 1638 0 
L 1638 4134 
L -19 4134 
L -19 4666 
z
" transform="scale(0.015625)"/>
       <path id="DejaVuSans-69" d="M 603 3500 
L 1178 3500 
L 1178 0 
L 603 0 
L 603 3500 
z
M 603 4863 
L 1178 4863 
L 1178 4134 
L 603 4134 
L 603 4863 
z
" transform="scale(0.015625)"/>
       <path id="DejaVuSans-6d" d="M 3328 2828 
Q 3544 3216 3844 3400 
Q 4144 3584 4550 3584 
Q 5097 3584 5394 3201 
Q 5691 2819 5691 2113 
L 5691 0 
L 5113 0 
L 5113 2094 
Q 5113 2597 4934 2840 
Q 4756 3084 4391 3084 
Q 3944 3084 3684 2787 
Q 3425 2491 3425 1978 
L 3425 0 
L 2847 0 
L 2847 2094 
Q 2847 2600 2669 2842 
Q 2491 3084 2119 3084 
Q 1678 3084 1418 2786 
Q 1159 2488 1159 1978 
L 1159 0 
L 581 0 
L 581 3500 
L 1159 3500 
L 1159 2956 
Q 1356 3278 1631 3431 
Q 1906 3584 2284 3584 
Q 2666 3584 2933 3390 
Q 3200 3197 3328 2828 
z
" transform="scale(0.015625)"/>
       <path id="DejaVuSans-65" d="M 3597 1894 
L 3597 1613 
L 953 1613 
Q 991 1019 1311 708 
Q 1631 397 2203 397 
Q 2534 397 2845 478 
Q 3156 559 3463 722 
L 3463 178 
Q 3153 47 2828 -22 
Q 2503 -91 2169 -91 
Q 1331 -91 842 396 
Q 353 884 353 1716 
Q 353 2575 817 3079 
Q 1281 3584 2069 3584 
Q 2775 3584 3186 3129 
Q 3597 2675 3597 1894 
z
M 3022 2063 
Q 3016 2534 2758 2815 
Q 2500 3097 2075 3097 
Q 1594 3097 1305 2825 
Q 1016 2553 972 2059 
L 3022 2063 
z
" transform="scale(0.015625)"/>
       <path id="DejaVuSans-20" transform="scale(0.015625)"/>
       <path id="DejaVuSans-73" d="M 2834 3397 
L 2834 2853 
Q 2591 2978 2328 3040 
Q 2066 3103 1784 3103 
Q 1356 3103 1142 2972 
Q 928 2841 928 2578 
Q 928 2378 1081 2264 
Q 1234 2150 1697 2047 
L 1894 2003 
Q 2506 1872 2764 1633 
Q 3022 1394 3022 966 
Q 3022 478 2636 193 
Q 2250 -91 1575 -91 
Q 1294 -91 989 -36 
Q 684 19 347 128 
L 347 722 
Q 666 556 975 473 
Q 1284 391 1588 391 
Q 1994 391 2212 530 
Q 2431 669 2431 922 
Q 2431 1156 2273 1281 
Q 2116 1406 1581 1522 
L 1381 1569 
Q 847 1681 609 1914 
Q 372 2147 372 2553 
Q 372 3047 722 3315 
Q 1072 3584 1716 3584 
Q 2034 3584 2315 3537 
Q 2597 3491 2834 3397 
z
" transform="scale(0.015625)"/>
       <path id="DejaVuSans-74" d="M 1172 4494 
L 1172 3500 
L 2356 3500 
L 2356 3053 
L 1172 3053 
L 1172 1153 
Q 1172 725 1289 603 
Q 1406 481 1766 481 
L 2356 481 
L 2356 0 
L 1766 0 
Q 1100 0 847 248 
Q 594 497 594 1153 
L 594 3053 
L 172 3053 
L 172 3500 
L 594 3500 
L 594 4494 
L 1172 4494 
z
" transform="scale(0.015625)"/>
       <path id="DejaVuSans-70" d="M 1159 525 
L 1159 -1331 
L 581 -1331 
L 581 3500 
L 1159 3500 
L 1159 2969 
Q 1341 3281 1617 3432 
Q 1894 3584 2278 3584 
Q 2916 3584 3314 3078 
Q 3713 2572 3713 1747 
Q 3713 922 3314 415 
Q 2916 -91 2278 -91 
Q 1894 -91 1617 61 
Q 1341 213 1159 525 
z
M 3116 1747 
Q 3116 2381 2855 2742 
Q 2594 3103 2138 3103 
Q 1681 3103 1420 2742 
Q 1159 2381 1159 1747 
Q 1159 1113 1420 752 
Q 1681 391 2138 391 
Q 2594 391 2855 752 
Q 3116 1113 3116 1747 
z
" transform="scale(0.015625)"/>
      </defs>
      <use xlink:href="#DejaVuSans-54"/>
      <use xlink:href="#DejaVuSans-69" x="57.958984"/>
      <use xlink:href="#DejaVuSans-6d" x="85.742188"/>
      <use xlink:href="#DejaVuSans-65" x="183.154297"/>
      <use xlink:href="#DejaVuSans-20" x="244.677734"/>
      <use xlink:href="#DejaVuSans-73" x="276.464844"/>
      <use xlink:href="#DejaVuSans-74" x="328.564453"/>
      <use xlink:href="#DejaVuSans-65" x="367.773438"/>
      <use xlink:href="#DejaVuSans-70" x="429.296875"/>
     </g>
    </g>
   </g>
   <g id="matplotlib.axis_2">
    <g id="ytick_1">
     <g id="line2d_8">
      <defs>
       <path id="m8ddaa6940a" d="M 0 0 
L -3.5 0 
" style="stroke: #000000; stroke-width: 0.8"/>
      </defs>
      <g>
       <use xlink:href="#m8ddaa6940a" x="90" y="291" style="stroke: #000000; stroke-width: 0.8"/>
      </g>
     </g>
     <g id="text_9">
      <!-- −0.2 -->
      <g transform="translate(58.717187 294.799219) scale(0.1 -0.1)">
       <defs>
        <path id="DejaVuSans-2212" d="M 678 2272 
L 4684 2272 
L 4684 1741 
L 678 1741 
L 678 2272 
z
" transform="scale(0.015625)"/>
        <path id="DejaVuSans-2e" d="M 684 794 
L 1344 794 
L 1344 0 
L 684 0 
L 684 794 
z
" transform="scale(0.015625)"/>
       </defs>
       <use xlink:href="#DejaVuSans-2212"/>
       <use xlink:href="#DejaVuSans-30" x="83.789062"/>
       <use xlink:href="#DejaVuSans-2e" x="147.412109"/>
       <use xlink:href="#DejaVuSans-32" x="179.199219"/>
      </g>
     </g>
    </g>
    <g id="ytick_2">
     <g id="line2d_9">
      <g>
       <use xlink:href="#m8ddaa6940a" x="90" y="251.8" style="stroke: #000000; stroke-width: 0.8"/>
      </g>
     </g>
     <g id="text_10">
      <!-- 0.0 -->
      <g transform="translate(67.096875 255.599219) scale(0.1 -0.1)">
       <use xlink:href="#DejaVuSans-30"/>
       <use xlink:href="#DejaVuSans-2e" x="63.623047"/>
       <use xlink:href="#DejaVuSans-30" x="95.410156"/>
      </g>
     </g>
    </g>
    <g id="ytick_3">
     <g id="line2d_10">
      <g>
       <use xlink:href="#m8ddaa6940a" x="90" y="212.6" style="stroke: #000000; stroke-width: 0.8"/>
      </g>
     </g>
     <g id="text_11">
      <!-- 0.2 -->
      <g transform="translate(67.096875 216.399219) scale(0.1 -0.1)">
       <use xlink:href="#DejaVuSans-30"/>
       <use xlink:href="#DejaVuSans-2e" x="63.623047"/>
       <use xlink:href="#DejaVuSans-32" x="95.410156"/>
      </g>
     </g>
    </g>
    <g id="ytick_4">
     <g id="line2d_11">
      <g>
       <use xlink:href="#m8ddaa6940a" x="90" y="173.4" style="stroke: #000000; stroke-width: 0.8"/>
      </g>
     </g>
     <g id="text_12">
      <!-- 0.4 -->
      <g transform="translate(67.096875 177.199219) scale(0.1 -0.1)">
       <use xlink:href="#DejaVuSans-30"/>
       <use xlink:href="#DejaVuSans-2e" x="63.623047"/>
       <use xlink:href="#DejaVuSans-34" x="95.410156"/>
      </g>
     </g>
    </g>
    <g id="ytick_5">
     <g id="line2d_12">
      <g>
       <use xlink:href="#m8ddaa6940a" x="90" y="134.2" style="stroke: #000000; stroke-width: 0.8"/>
      </g>
     </g>
     <g id="text_13">
      <!-- 0.6 -->
      <g transform="translate(67.096875 137.999219) scale(0.1 -0.1)">
       <use xlink:href="#DejaVuSans-30"/>
       <use xlink:href="#DejaVuSans-2e" x="63.623047"/>
       <use xlink:href="#DejaVuSans-36" x="95.410156"/>
      </g>
     </g>
    </g>
    <g id="ytick_6">
     <g id="line2d_13">
      <g>
       <use xlink:href="#m8ddaa6940a" x="90" y="95" style="stroke: #000000; stroke-width: 0.8"/>
      </g>
     </g>
     <g id="text_14">
      <!-- 0.8 -->
      <g transform="translate(67.096875 98.799219) scale(0.1 -0.1)">
       <defs>
        <path id="DejaVuSans-38" d="M 2034 2216 
Q 1584 2216 1326 1975 
Q 1069 1734 1069 1313 
Q 1069 891 1326 650 
Q 1584 409 2034 409 
Q 2484 409 2743 651 
Q 3003 894 3003 1313 
Q 3003 1734 2745 1975 
Q 2488 2216 2034 2216 
z
M 1403 2484 
Q 997 2584 770 2862 
Q 544 3141 544 3541 
Q 544 4100 942 4425 
Q 1341 4750 2034 4750 
Q 2731 4750 3128 4425 
Q 3525 4100 3525 3541 
Q 3525 3141 3298 2862 
Q 3072 2584 2669 2484 
Q 3125 2378 3379 2068 
Q 3634 1759 3634 1313 
Q 3634 634 3220 271 
Q 2806 -91 2034 -91 
Q 1263 -91 848 271 
Q 434 634 434 1313 
Q 434 1759 690 2068 
Q 947 2378 1403 2484 
z
M 1172 3481 
Q 1172 3119 1398 2916 
Q 1625 2713 2034 2713 
Q 2441 2713 2670 2916 
Q 2900 3119 2900 3481 
Q 2900 3844 2670 4047 
Q 2441 4250 2034 4250 
Q 1625 4250 1398 4047 
Q 1172 3844 1172 3481 
z
" transform="scale(0.015625)"/>
       </defs>
       <use xlink:href="#DejaVuSans-30"/>
       <use xlink:href="#DejaVuSans-2e" x="63.623047"/>
       <use xlink:href="#DejaVuSans-38" x="95.410156"/>
      </g>
     </g>
    </g>
    <g id="ytick_7">
     <g id="line2d_14">
      <g>
       <use xlink:href="#m8ddaa6940a" x="90" y="55.8" style="stroke: #000000; stroke-width: 0.8"/>
      </g>
     </g>
     <g id="text_15">
      <!-- 1.0 -->
      <g transform="translate(67.096875 59.599219) scale(0.1 -0.1)">
       <use xlink:href="#DejaVuSans-31"/>
       <use xlink:href="#DejaVuSans-2e" x="63.623047"/>
       <use xlink:href="#DejaVuSans-30" x="95.410156"/>
      </g>
     </g>
    </g>
    <g id="text_16">
     <!-- Average reward -->
     <g transform="translate(52.6375 221.236719) rotate(-90) scale(0.1 -0.1)">
      <defs>
       <path id="DejaVuSans-41" d="M 2188 4044 
L 1331 1722 
L 3047 1722 
L 2188 4044 
z
M 1831 4666 
L 2547 4666 
L 4325 0 
L 3669 0 
L 3244 1197 
L 1141 1197 
L 716 0 
L 50 0 
L 1831 4666 
z
" transform="scale(0.015625)"/>
       <path id="DejaVuSans-76" d="M 191 3500 
L 800 3500 
L 1894 563 
L 2988 3500 
L 3597 3500 
L 2284 0 
L 1503 0 
L 191 3500 
z
" transform="scale(0.015625)"/>
       <path id="DejaVuSans-72" d="M 2631 2963 
Q 2534 3019 2420 3045 
Q 2306 3072 2169 3072 
Q 1681 3072 1420 2755 
Q 1159 2438 1159 1844 
L 1159 0 
L 581 0 
L 581 3500 
L 1159 3500 
L 1159 2956 
Q 1341 3275 1631 3429 
Q 1922 3584 2338 3584 
Q 2397 3584 2469 3576 
Q 2541 3569 2628 3553 
L 2631 2963 
z
" transform="scale(0.015625)"/>
       <path id="DejaVuSans-61" d="M 2194 1759 
Q 1497 1759 1228 1600 
Q 959 1441 959 1056 
Q 959 750 1161 570 
Q 1363 391 1709 391 
Q 2188 391 2477 730 
Q 2766 1069 2766 1631 
L 2766 1759 
L 2194 1759 
z
M 3341 1997 
L 3341 0 
L 2766 0 
L 2766 531 
Q 2569 213 2275 61 
Q 1981 -91 1556 -91 
Q 1019 -91 701 211 
Q 384 513 384 1019 
Q 384 1609 779 1909 
Q 1175 2209 1959 2209 
L 2766 2209 
L 2766 2266 
Q 2766 2663 2505 2880 
Q 2244 3097 1772 3097 
Q 1472 3097 1187 3025 
Q 903 2953 641 2809 
L 641 3341 
Q 956 3463 1253 3523 
Q 1550 3584 1831 3584 
Q 2591 3584 2966 3190 
Q 3341 2797 3341 1997 
z
" transform="scale(0.015625)"/>
       <path id="DejaVuSans-67" d="M 2906 1791 
Q 2906 2416 2648 2759 
Q 2391 3103 1925 3103 
Q 1463 3103 1205 2759 
Q 947 2416 947 1791 
Q 947 1169 1205 825 
Q 1463 481 1925 481 
Q 2391 481 2648 825 
Q 2906 1169 2906 1791 
z
M 3481 434 
Q 3481 -459 3084 -895 
Q 2688 -1331 1869 -1331 
Q 1566 -1331 1297 -1286 
Q 1028 -1241 775 -1147 
L 775 -588 
Q 1028 -725 1275 -790 
Q 1522 -856 1778 -856 
Q 2344 -856 2625 -561 
Q 2906 -266 2906 331 
L 2906 616 
Q 2728 306 2450 153 
Q 2172 0 1784 0 
Q 1141 0 747 490 
Q 353 981 353 1791 
Q 353 2603 747 3093 
Q 1141 3584 1784 3584 
Q 2172 3584 2450 3431 
Q 2728 3278 2906 2969 
L 2906 3500 
L 3481 3500 
L 3481 434 
z
" transform="scale(0.015625)"/>
       <path id="DejaVuSans-77" d="M 269 3500 
L 844 3500 
L 1563 769 
L 2278 3500 
L 2956 3500 
L 3675 769 
L 4391 3500 
L 4966 3500 
L 4050 0 
L 3372 0 
L 2619 2869 
L 1863 0 
L 1184 0 
L 269 3500 
z
" transform="scale(0.015625)"/>
       <path id="DejaVuSans-64" d="M 2906 2969 
L 2906 4863 
L 3481 4863 
L 3481 0 
L 2906 0 
L 2906 525 
Q 2725 213 2448 61 
Q 2172 -91 1784 -91 
Q 1150 -91 751 415 
Q 353 922 353 1747 
Q 353 2572 751 3078 
Q 1150 3584 1784 3584 
Q 2172 3584 2448 3432 
Q 2725 3281 2906 2969 
z
M 947 1747 
Q 947 1113 1208 752 
Q 1469 391 1925 391 
Q 2381 391 2643 752 
Q 2906 1113 2906 1747 
Q 2906 2381 2643 2742 
Q 2381 3103 1925 3103 
Q 1469 3103 1208 2742 
Q 947 2381 947 1747 
z
" transform="scale(0.015625)"/>
      </defs>
      <use xlink:href="#DejaVuSans-41"/>
      <use xlink:href="#DejaVuSans-76" x="62.533203"/>
      <use xlink:href="#DejaVuSans-65" x="121.712891"/>
      <use xlink:href="#DejaVuSans-72" x="183.236328"/>
      <use xlink:href="#DejaVuSans-61" x="224.349609"/>
      <use xlink:href="#DejaVuSans-67" x="285.628906"/>
      <use xlink:href="#DejaVuSans-65" x="349.105469"/>
      <use xlink:href="#DejaVuSans-20" x="410.628906"/>
      <use xlink:href="#DejaVuSans-72" x="442.416016"/>
      <use xlink:href="#DejaVuSans-65" x="481.279297"/>
      <use xlink:href="#DejaVuSans-77" x="542.802734"/>
      <use xlink:href="#DejaVuSans-61" x="624.589844"/>
      <use xlink:href="#DejaVuSans-72" x="685.869141"/>
      <use xlink:href="#DejaVuSans-64" x="725.232422"/>
     </g>
    </g>
   </g>
   <g id="line2d_15">
    <path d="M 115.363636 251.8 
L 622.636364 251.8 
L 622.636364 251.8 
" clip-path="url(#p3d41673a4b)" style="fill: none; stroke-dasharray: 5.55,2.4; stroke-dashoffset: 0; stroke: #1f77b4; stroke-width: 1.5"/>
   </g>
   <g id="line2d_16">
    <path d="M 115.363636 55.8 
L 115.617315 300.8 
L 115.786434 251.8 
L 115.870994 307.8 
L 115.955553 300.8 
L 116.040113 295.355556 
L 116.209232 269.618182 
L 116.378351 266.876923 
L 116.46291 279.8 
L 116.63203 264.05 
L 116.716589 263.329412 
L 116.801149 284.466667 
L 116.970268 251.8 
L 117.054827 251.8 
L 117.223946 226.234783 
L 117.308506 227.3 
L 117.393066 220.44 
L 117.477625 221.646154 
L 117.562185 222.762963 
L 117.815863 212.6 
L 117.900423 213.864516 
L 117.984982 221.175 
L 118.069542 216.163636 
L 118.154101 228.741176 
L 118.746018 194.434146 
L 118.830578 195.8 
L 118.915137 201.660465 
L 119.168816 192.147826 
L 119.337935 198.716667 
L 119.422495 199.8 
L 119.676173 187.723077 
L 119.760733 188.932075 
L 119.845292 190.096296 
L 119.929852 187.654545 
L 120.014411 188.8 
L 120.098971 183.02807 
L 120.183531 184.213793 
L 120.26809 182.037288 
L 120.35265 176.666667 
L 120.437209 177.898361 
L 120.606328 174.022222 
L 120.775447 176.415385 
L 121.113686 169.423188 
L 121.198245 170.6 
L 121.282805 168.983099 
L 121.536483 180.286486 
L 121.621043 181.24 
L 121.705602 187.326316 
L 121.790162 185.618182 
L 122.043841 178.3 
L 122.382079 172.466667 
L 122.466638 175.705882 
L 122.635757 172.949425 
L 122.804877 174.721348 
L 122.889436 173.4 
L 122.973996 169.953846 
L 123.058555 170.843478 
L 123.143115 171.713978 
L 123.396793 166.05 
L 123.481353 170.975258 
L 123.650472 166.668687 
L 123.819591 172.235644 
L 123.98871 169.974757 
L 124.07327 170.761538 
L 124.157829 167.8 
L 124.242389 168.592453 
L 124.326948 167.538318 
L 124.411508 168.318519 
L 124.496068 172.680734 
L 124.580627 169.836364 
L 124.749746 173.05 
L 124.834306 172.012389 
L 124.918865 172.712281 
L 125.003425 169.991304 
L 125.087984 170.696552 
L 125.172544 169.71453 
L 125.257103 167.088136 
L 125.341663 167.8 
L 125.426223 168.5 
L 125.595342 166.652459 
L 125.84902 168.696 
L 125.93358 167.8 
L 126.018139 170.004724 
L 126.187258 168.234109 
L 126.271818 171.892308 
L 126.356378 171.006107 
L 126.779175 166.770588 
L 126.863735 167.391241 
L 127.117414 163.6 
L 127.201973 162.835461 
L 127.371092 164.07972 
L 127.540211 162.586207 
L 127.70933 167.8 
L 127.878449 164.981208 
L 128.047569 167.429139 
L 128.216688 165.969935 
L 128.301247 166.527273 
L 128.385807 165.812903 
L 128.470366 167.620513 
L 128.639485 166.205063 
L 128.724045 167.976101 
L 128.893164 164.147826 
L 128.977724 164.688889 
L 129.062283 164.020859 
L 129.146843 164.556098 
L 129.231402 163.89697 
L 129.400521 166.123353 
L 129.6542 167.635294 
L 130.161557 163.822727 
L 130.246117 164.319774 
L 130.330676 163.710112 
L 130.415236 165.297207 
L 130.499795 164.688889 
L 130.668915 165.646154 
L 130.753474 167.187978 
L 130.922593 165.983784 
L 131.007153 166.445161 
L 131.091712 165.853476 
L 131.176272 166.310638 
L 131.260831 165.725926 
L 131.42995 166.627225 
L 131.683629 169.964948 
L 131.937308 167.231472 
L 132.190986 171.44 
L 132.360105 170.29505 
L 132.529225 171.094118 
L 132.698344 169.023301 
L 132.782903 169.423188 
L 132.952022 173.02488 
L 133.036582 172.466667 
L 133.29026 173.584038 
L 133.37482 173.033645 
L 133.543939 174.67037 
L 133.628499 173.219355 
L 133.713058 173.579817 
L 133.797618 173.042009 
L 133.882177 171.618182 
L 133.966737 171.980995 
L 134.051296 172.340541 
L 134.135856 171.817937 
L 134.304975 174.271111 
L 134.389535 174.614159 
L 134.474094 173.227313 
L 134.558654 174.431579 
L 134.727773 171.695652 
L 134.812332 172.042424 
L 134.981451 171.044635 
L 135.066011 171.389744 
L 135.404249 169.447059 
L 135.488809 170.611715 
L 135.657928 168.845643 
L 135.827047 169.528395 
L 135.911606 170.668852 
L 136.165285 169.273684 
L 136.249845 169.606452 
L 136.418964 168.696 
L 136.503523 169.027092 
L 136.588083 170.133333 
L 136.757202 169.233071 
L 136.841762 171.094118 
L 136.926321 169.878125 
L 137.010881 170.196887 
L 137.09544 170.513178 
L 137.349119 168.443678 
L 137.433678 168.761832 
L 137.518238 169.822814 
L 137.687357 167.483019 
L 137.771917 167.8 
L 137.941036 170.620896 
L 138.110155 169.77037 
L 138.194714 170.073063 
L 138.279274 169.652941 
L 138.448393 170.252555 
L 138.532952 171.261818 
L 138.617512 170.133333 
L 138.702072 171.13574 
L 138.786631 170.720863 
L 138.871191 169.606452 
L 138.95575 169.9 
L 139.04031 169.49395 
L 139.124869 169.785816 
L 139.293988 168.983099 
L 139.378548 170.649123 
L 139.547667 169.165854 
L 139.632227 169.452778 
L 139.801346 168.668966 
L 139.885905 168.954639 
L 139.970465 168.567123 
L 140.224143 166.091525 
L 140.308703 166.381081 
L 140.393263 167.32862 
L 140.477822 166.954362 
L 140.731501 165.195349 
L 140.81606 164.833113 
L 140.985179 165.405263 
L 141.238858 164.334202 
L 141.323418 164.618182 
L 141.407977 164.266019 
L 141.577096 166.719614 
L 141.661656 166.364103 
L 141.746215 166.010863 
L 141.830775 166.284076 
L 142.084453 164.620189 
L 142.338132 165.4375 
L 142.591811 163.812384 
L 142.67637 164.083951 
L 142.76093 163.147692 
L 142.845489 164.622086 
L 143.014608 162.763415 
L 143.099168 163.034043 
L 143.268287 162.386103 
L 143.521966 163.189222 
L 143.606525 164.038806 
L 143.691085 163.716667 
L 143.775644 162.233234 
L 143.860204 162.498225 
L 144.029323 161.870588 
L 144.113883 162.134311 
L 144.198442 161.823392 
L 144.283002 162.657143 
L 144.53668 160.597688 
L 144.705799 161.121839 
L 144.790359 160.820057 
L 144.959478 161.896866 
L 145.128597 160.74051 
L 145.213157 160.99774 
L 145.382276 160.406742 
L 145.466835 160.662745 
L 145.551395 160.369832 
L 145.635954 160.624513 
L 145.805074 160.043767 
L 145.974193 160.549311 
L 146.143312 161.586301 
L 146.227871 161.832787 
L 146.48155 160.439566 
L 146.650669 159.875472 
L 146.735229 159.068817 
L 146.819788 159.317426 
L 146.988907 160.333333 
L 147.073467 160.055319 
L 147.158026 160.298674 
L 147.242586 161.577778 
L 147.327145 161.298681 
L 147.496265 160.744882 
L 147.665384 162.243864 
L 147.749943 161.966667 
L 147.919062 162.432124 
L 148.088181 163.397938 
L 148.172741 163.625193 
L 148.2573 162.846154 
L 148.34186 163.073657 
L 148.595539 162.256853 
L 148.849217 160.95869 
L 148.933777 160.694472 
L 149.018336 159.940351 
L 149.102896 160.17 
L 149.187455 161.37606 
L 149.610253 158.144828 
L 149.694813 158.374939 
L 149.779372 158.123529 
L 149.948491 158.580488 
L 150.033051 158.330414 
L 150.20217 159.257627 
L 150.28673 159.007729 
L 150.455849 158.040385 
L 150.540408 158.265228 
L 150.624968 158.020096 
L 150.709527 157.308353 
L 150.794087 158 
L 150.963206 157.51564 
L 151.047766 157.738534 
L 151.132325 158.422642 
L 151.216885 158.181176 
L 151.386004 158.619672 
L 151.470563 159.295327 
L 151.555123 158.597203 
L 151.724242 159.939211 
L 151.808801 159.698148 
L 151.977921 158.316129 
L 152.06248 158.531034 
L 152.231599 157.612357 
L 152.316159 157.827397 
L 152.400718 156.70205 
L 152.485278 156.918182 
L 152.654397 157.347511 
L 152.992635 156.436771 
L 153.077195 157.088591 
L 153.161754 156.8625 
L 153.246314 157.946993 
L 153.330873 157.72 
L 153.415433 157.928603 
L 153.838231 161.107018 
L 154.091909 159.991721 
L 154.176469 160.617391 
L 154.261028 159.964859 
L 154.430147 161.208207 
L 154.599267 160.754839 
L 154.683826 160.109013 
L 154.768386 160.725054 
L 154.937505 160.277612 
L 155.191183 161.689831 
L 155.444862 160.608421 
L 155.529422 160.388235 
L 155.698541 160.770711 
L 155.7831 160.551566 
L 155.952219 160.930977 
L 156.036779 160.712863 
L 156.121338 160.901449 
L 156.459577 162.855441 
L 156.628696 162.417587 
L 156.713255 161.8 
L 156.797815 161.983299 
L 156.882374 162.165854 
L 156.966934 161.950101 
L 157.136053 162.313131 
L 157.305172 161.095775 
L 157.389732 162.06506 
L 157.474291 161.852104 
L 157.558851 161.248 
L 157.64341 161.428743 
L 157.812529 161.788072 
L 157.897089 161.188889 
L 157.981648 161.368317 
L 158.066208 161.547036 
L 158.150768 161.338462 
L 158.235327 161.516535 
L 158.404446 160.333333 
L 158.573565 161.45625 
L 158.742684 161.045136 
L 158.827244 161.221359 
L 158.911803 161.017054 
L 158.996363 160.434429 
L 159.080923 161.367568 
L 159.165482 161.164162 
L 159.334601 161.512092 
L 159.50372 162.232122 
L 159.757399 162.742966 
L 159.926518 162.337879 
L 160.011078 162.506994 
L 160.095637 162.30566 
L 160.264756 162.642105 
L 160.349316 162.441651 
L 160.518435 162.775701 
L 160.856673 161.981818 
L 160.941233 161.422222 
L 161.025792 161.589279 
L 161.110352 162.478967 
L 161.533149 160.428885 
L 161.617709 160.237956 
L 161.786828 160.927273 
L 161.871388 160.736479 
L 161.955947 160.901449 
L 162.125066 160.522022 
L 162.209626 160.686486 
L 162.378745 160.309874 
L 162.463304 160.473835 
L 162.547864 160.286583 
L 162.632424 160.45 
L 162.716983 159.914082 
L 162.801543 160.07758 
L 162.970662 160.750355 
L 163.055221 160.911504 
L 163.139781 161.418375 
L 163.22434 160.88642 
L 163.3089 161.046479 
L 163.478019 161.364912 
L 163.562579 161.180035 
L 163.647138 161.338462 
L 163.731698 161.154276 
L 163.816257 161.312195 
L 163.985376 160.945833 
L 164.069936 161.103293 
L 164.154495 161.938408 
L 164.408174 161.053012 
L 164.577293 161.364322 
L 164.830972 160.48942 
L 164.915531 160.644974 
L 165.08465 160.288964 
L 165.16921 160.444068 
L 165.338329 160.090541 
L 165.422889 160.245194 
L 165.507448 160.06936 
L 165.761127 159.217085 
L 165.845686 159.044147 
L 165.930246 159.198998 
L 166.014805 159.68 
L 166.099365 159.181032 
L 166.183925 159.334884 
L 166.268484 159.488226 
L 166.353044 159.316556 
L 166.437603 159.469421 
L 166.691282 158.957895 
L 166.775841 159.110345 
L 166.944961 158.772177 
L 167.198639 157.630619 
L 167.283199 158.102439 
L 167.452318 157.770827 
L 167.705996 158.858065 
L 167.959675 157.417978 
L 168.044235 157.255128 
L 168.213354 157.870288 
L 168.382473 158.169427 
L 168.467032 158.006677 
L 168.805271 160.766825 
L 168.88983 160.601262 
L 168.97439 161.362205 
L 169.143509 160.723077 
L 169.228068 160.865831 
L 169.312628 160.701408 
L 169.397187 160.84375 
L 169.481747 160.679875 
L 169.566307 160.211215 
L 169.819985 161.548837 
L 169.904545 161.385139 
L 169.989104 161.524884 
L 170.073664 161.361728 
L 170.158223 161.501079 
L 170.496462 162.954671 
L 170.665581 161.430534 
L 170.75014 161.568293 
L 170.8347 161.10898 
L 170.919259 161.246809 
L 171.003819 161.384219 
L 171.088378 162.115152 
L 171.172938 161.954312 
L 171.342057 162.225339 
L 171.680295 161.587106 
L 171.764855 161.722156 
L 171.849414 162.149776 
L 171.933974 161.991045 
L 172.018533 162.124888 
L 172.103093 161.383333 
L 172.187652 161.517682 
L 172.272212 161.651632 
L 172.356772 161.494815 
L 172.441331 161.628402 
L 172.69501 162.604124 
L 172.864129 162.866079 
L 173.033248 164.274378 
L 173.117808 164.115789 
L 173.456046 162.916279 
L 173.625165 163.457971 
L 173.709724 163.585818 
L 173.794284 163.430058 
L 173.878843 164.123232 
L 173.963403 163.684726 
L 174.047963 164.093525 
L 174.217082 163.782783 
L 174.47076 164.16 
L 174.55532 164.005421 
L 174.639879 164.130484 
L 174.724439 164.533997 
L 174.808998 164.379545 
L 174.978118 165.737677 
L 175.231796 164.996051 
L 175.316356 165.11831 
L 175.400915 164.964557 
L 175.485475 165.086517 
L 175.739153 164.353846 
L 175.823713 164.202235 
L 175.908273 164.324407 
L 175.992832 164.173259 
L 176.077392 164.295132 
L 176.246511 163.994175 
L 176.33107 164.115789 
L 176.41563 163.965975 
L 176.669309 163.249036 
L 177.007547 162.660274 
L 177.092106 162.782216 
L 177.176666 162.636066 
L 177.261225 162.757708 
L 177.345785 162.611989 
L 177.430344 162.733333 
L 177.599464 162.443148 
L 177.684023 162.564228 
L 177.853142 162.010811 
L 178.106821 163.164738 
L 178.27594 162.87651 
L 178.360499 163.258445 
L 178.529619 162.971123 
L 178.698738 162.424 
L 178.783297 162.803995 
L 178.952416 161.999203 
L 179.206095 162.355556 
L 179.375214 161.815831 
L 179.544333 162.052632 
L 179.628893 161.913009 
L 179.713452 162.030971 
L 179.798012 161.891743 
L 179.882571 162.265969 
L 179.967131 162.126797 
L 180.05169 162.243864 
L 180.13625 162.105085 
L 180.22081 162.477083 
L 180.305369 162.338362 
L 180.389929 162.709091 
L 180.474488 162.570428 
L 180.643607 163.054851 
L 180.728167 162.916279 
L 180.812726 163.030968 
L 180.981845 162.754955 
L 181.235524 163.097436 
L 181.320084 162.709091 
L 181.404643 162.823018 
L 181.489203 162.936654 
L 181.573762 162.55 
L 181.658322 162.663694 
L 181.742881 162.527735 
L 181.827441 162.641169 
L 182.08112 162.235443 
L 182.334798 163.315763 
L 182.419358 163.427204 
L 182.503917 163.045283 
L 182.588477 163.156784 
L 182.673036 163.022083 
L 182.757596 163.133333 
L 182.842156 162.998999 
L 182.926715 163.11 
L 183.011275 162.97603 
L 183.180394 163.19726 
L 183.434072 162.554342 
L 183.603191 162.775248 
L 183.687751 162.400742 
L 183.772311 162.511111 
L 183.85687 162.379531 
L 184.110549 161.745946 
L 184.195108 161.615951 
L 184.279668 161.726471 
L 184.448787 161.467482 
L 184.533346 161.577778 
L 184.702466 161.081364 
L 184.787025 161.668613 
L 184.871585 161.301823 
L 184.956144 161.41165 
L 185.040704 161.758788 
L 185.125263 161.630508 
L 185.378942 161.011098 
L 185.463501 161.592771 
L 185.548061 161.465463 
L 185.632621 161.574038 
L 185.970859 163.17799 
L 186.055418 163.049701 
L 186.224537 162.560429 
L 186.393657 163.005707 
L 186.478216 162.645606 
L 186.562776 162.751364 
L 186.647335 162.624645 
L 186.731895 163.194083 
L 186.816454 163.067139 
L 186.985573 163.507547 
L 187.239252 162.897532 
L 187.408371 163.105979 
L 187.57749 162.854971 
L 187.831169 163.165967 
L 188.084847 162.79187 
L 188.169407 162.895128 
L 188.253967 163.452375 
L 188.338526 163.327778 
L 188.592205 162.955709 
L 188.761324 162.483544 
L 188.845883 162.586207 
L 188.930443 162.463605 
L 189.099562 162.66827 
L 189.184122 162.097483 
L 189.268681 162.2 
L 189.353241 162.078539 
L 189.52236 161.613212 
L 189.606919 161.715813 
L 189.776038 161.475369 
L 189.860598 161.133333 
L 189.945158 161.236014 
L 190.029717 161.338462 
L 190.198836 161.985102 
L 190.452515 161.406299 
L 190.537074 161.507865 
L 190.621634 161.169248 
L 190.706193 161.270852 
L 190.790753 161.152744 
L 190.875313 161.692617 
L 190.959872 161.574302 
L 191.29811 160.667631 
L 191.38267 160.768889 
L 191.636348 160.203101 
L 191.805468 160.405525 
L 191.890027 160.073731 
L 191.974587 160.174862 
L 192.059146 160.059912 
L 192.143706 160.160836 
L 192.312825 159.931723 
L 192.397384 160.032456 
L 192.651063 159.476503 
L 192.735623 159.577293 
L 192.820182 159.464122 
L 192.904742 159.564706 
L 192.989301 159.451795 
L 193.24298 158.901952 
L 193.327539 159.0026 
L 193.665778 158.557282 
L 193.750337 159.080172 
L 194.088575 158.216309 
L 194.173135 158.106538 
L 194.257694 158.206852 
L 194.342254 158.097326 
L 194.426814 157.778632 
L 194.511373 157.878975 
L 194.595933 157.770149 
L 194.680492 157.870288 
L 194.765052 157.761702 
L 194.849611 157.861637 
L 194.934171 157.753291 
L 195.187849 157.222222 
L 195.272409 157.115011 
L 195.356969 157.214995 
L 195.441528 157.108017 
L 195.526088 157.207798 
L 195.610647 157.101053 
L 195.695207 157.40673 
L 195.779766 157.3 
L 195.864326 157.399161 
L 196.118005 158.105439 
L 196.202564 157.998537 
L 196.287124 157.687265 
L 196.371683 157.989781 
L 196.456243 159.108333 
L 196.540802 159.000832 
L 196.625362 158.893555 
L 196.794481 159.289627 
L 196.9636 159.075362 
L 197.132719 159.671901 
L 197.217279 159.362436 
L 197.301838 159.457732 
L 197.386398 159.552832 
L 197.470957 159.446091 
L 197.555517 159.138129 
L 197.640076 159.233265 
L 197.809195 159.021311 
L 197.978315 159.211043 
L 198.147434 159 
L 198.231993 159.49419 
L 198.316553 159.388595 
L 198.401112 159.482604 
L 198.485672 159.377236 
L 198.570231 159.471066 
L 198.654791 159.365923 
L 198.82391 159.553036 
L 198.993029 159.343434 
L 199.162148 159.529839 
L 199.246708 159.425378 
L 199.415827 159.611055 
L 199.500386 159.506827 
L 199.669506 160.084569 
L 199.754065 159.98018 
L 199.838625 160.072 
L 199.923184 159.967832 
L 200.092303 160.150947 
L 200.176863 159.851793 
L 200.261422 160.333333 
L 200.345982 160.034592 
L 200.430541 160.12572 
L 200.515101 160.216667 
L 200.76878 159.906825 
L 200.853339 159.997628 
L 201.022458 159.598817 
L 201.191577 159.780315 
L 201.360696 159.576031 
L 201.614375 159.847013 
L 201.698935 159.745205 
L 201.868054 160.499219 
L 202.206292 160.091829 
L 202.459971 160.548788 
L 202.54453 160.257364 
L 202.62909 160.345983 
L 202.713649 160.434429 
L 202.798209 160.333333 
L 203.051887 160.786513 
L 203.136447 160.87411 
L 203.221007 160.584615 
L 203.305566 160.672238 
L 203.474685 160.471141 
L 203.559245 160.558621 
L 203.643804 160.458373 
L 203.728364 160.170937 
L 203.812923 160.258453 
L 203.897483 160.345802 
L 203.982042 160.806673 
L 204.066602 160.706667 
L 204.235721 160.879848 
L 204.4894 161.695735 
L 204.573959 161.595455 
L 204.658519 161.680795 
L 204.912197 161.011321 
L 204.996757 161.466352 
L 205.081317 161.366855 
L 205.165876 161.267545 
L 205.250436 161.352632 
L 205.419555 161.154597 
L 205.504114 161.23955 
L 205.588674 161.140824 
L 205.673233 161.592329 
L 205.757793 161.493458 
L 205.842353 161.577778 
L 205.926912 161.479104 
L 206.011472 161.563281 
L 206.096031 161.464804 
L 206.180591 161.548837 
L 206.26515 161.450558 
L 206.434269 161.618182 
L 206.603388 161.422222 
L 206.772508 161.589279 
L 206.857067 161.491597 
L 206.941627 161.75572 
L 207.026186 161.658065 
L 207.110746 161.560589 
L 207.195305 161.643606 
L 207.279865 161.546324 
L 207.448984 161.711927 
L 207.618103 161.517949 
L 207.871782 161.049315 
L 208.040901 161.750775 
L 208.12546 161.475774 
L 208.21002 161.379618 
L 208.294579 161.461818 
L 208.379139 161.721889 
L 208.463698 161.625771 
L 208.548258 161.529828 
L 208.717377 161.870588 
L 208.971056 161.406498 
L 209.055615 161.488007 
L 209.140175 161.392793 
L 209.224734 161.474167 
L 209.309294 161.907914 
L 209.393854 161.812579 
L 209.562973 161.622422 
L 209.647532 161.703226 
L 209.816651 161.513775 
L 209.901211 161.594459 
L 209.98577 161.5 
L 210.154889 161.660963 
L 210.239449 161.915761 
L 210.324009 161.821352 
L 210.493128 161.981172 
L 210.577687 162.408696 
L 210.831366 161.952212 
L 210.915925 162.031653 
L 211.169604 162.787654 
L 211.254164 162.693392 
L 211.338723 162.426761 
L 211.423283 162.505365 
L 211.507842 162.583831 
L 211.592402 162.490079 
L 211.761521 161.959509 
L 211.93064 162.631146 
L 212.0152 162.537762 
L 212.099759 162.444541 
L 212.268878 162.600349 
L 212.437997 163.09678 
L 212.522557 163.003478 
L 212.691676 163.157639 
L 212.776235 163.064527 
L 212.860795 163.141421 
L 212.945355 163.048485 
L 213.029914 162.786159 
L 213.114474 162.863094 
L 213.199033 162.770639 
L 213.368152 162.924138 
L 213.452712 162.831869 
L 213.537271 162.908434 
L 213.70639 162.556014 
L 213.87551 162.709091 
L 213.960069 162.617481 
L 214.213748 163.181197 
L 214.298307 163.089496 
L 214.382867 162.663481 
L 214.467426 162.906564 
L 214.551986 162.815332 
L 214.721105 162.3 
L 214.890224 162.451952 
L 215.059343 162.271186 
L 215.143903 162.346994 
L 215.397581 162.739189 
L 215.65126 162.96428 
L 215.820379 162.619176 
L 216.074058 163.336913 
L 216.158617 163.246773 
L 216.243177 163.156784 
L 216.327736 163.230962 
L 216.412296 163.141137 
L 216.665975 162.709091 
L 216.750534 162.62 
L 216.835094 162.694255 
L 216.919653 162.442263 
L 217.004213 162.516542 
L 217.173332 162.827386 
L 217.257891 162.576119 
L 217.342451 162.650041 
L 217.427011 162.561589 
L 217.59613 162.709091 
L 217.680689 162.620809 
L 217.765249 163.017822 
L 217.849808 162.929431 
L 217.934368 162.679736 
L 218.018927 163.07572 
L 218.272606 162.650575 
L 218.357166 162.56292 
L 218.441725 162.636066 
L 218.526285 162.548567 
L 218.610844 162.94239 
L 218.864523 162.52 
L 218.949082 162.432953 
L 219.118202 162.578502 
L 219.202761 162.491619 
L 219.287321 162.564228 
L 219.625559 162.218152 
L 219.710118 162.608097 
L 219.794678 162.363107 
L 219.879237 162.593856 
L 219.963797 162.507593 
L 220.217476 162.407575 
L 220.386595 162.393725 
L 220.471154 162.465595 
L 220.555714 162.06506 
L 220.640273 162.137079 
L 220.724833 161.894627 
L 220.809392 161.966667 
L 221.147631 161.784026 
L 221.23219 161.855866 
L 221.485869 161.446497 
L 221.654988 161.590143 
L 221.824107 161.888889 
L 221.908667 161.649326 
L 221.993226 161.720761 
L 222.500583 161.219558 
L 222.754262 161.587569 
L 222.838822 161.658491 
L 223.0925 161.409412 
L 223.17706 161.787461 
L 223.261619 161.704464 
L 223.430738 161.845348 
L 223.684417 161.444306 
L 223.768977 161.514731 
L 223.853536 161.737695 
L 223.938096 161.197665 
L 224.022655 161.268118 
L 224.276334 161.630877 
L 224.445453 161.770565 
L 224.530013 162.143653 
L 224.614572 161.606651 
L 224.699132 161.676352 
L 225.291049 160.956034 
L 225.375608 161.176344 
L 225.460168 161.245894 
L 225.713846 160.853599 
L 226.221204 160.522561 
L 226.305763 160.592079 
L 226.390323 160.810654 
L 226.474882 160.730798 
L 226.559442 160.651064 
L 226.644001 160.869096 
L 226.982239 160.254201 
L 227.151359 160.392593 
L 227.235918 160.165559 
L 227.320478 160.234717 
L 227.574156 160.589157 
L 227.743275 160.726316 
L 228.504311 160.02106 
L 228.75799 160.37228 
L 228.84255 160.440357 
L 229.434466 160.042963 
L 229.519026 160.401036 
L 229.603585 160.323669 
L 229.688145 160.391279 
L 229.772705 160.603545 
L 229.857264 160.526199 
L 230.110943 160.439175 
L 230.280062 160.573529 
L 230.449181 160.275771 
L 230.53374 160.34292 
L 230.787419 159.969839 
L 230.871979 160.037015 
L 231.379336 159.724253 
L 231.633015 160.494767 
L 231.717574 160.561075 
L 231.886693 160.835533 
L 231.971253 160.617391 
L 232.140372 161.032996 
L 232.224931 161.098626 
L 232.56317 160.936265 
L 232.647729 161.001729 
L 232.732289 160.784881 
L 232.816848 160.85036 
L 233.155086 160.689527 
L 233.239646 160.754839 
L 233.662444 160.38 
L 233.831563 160.790014 
L 234.085241 160.426335 
L 234.169801 160.770128 
L 234.254361 160.695522 
L 234.592599 160.814883 
L 234.761718 160.804954 
L 234.930837 160.795053 
L 235.184516 160.57292 
L 235.607313 161.306676 
L 236.537468 160.634031 
L 236.791147 160.824356 
L 236.960266 160.542182 
L 237.467623 160.785467 
L 237.890421 160.558621 
L 238.228659 160.944429 
L 238.397778 161.203846 
L 238.566898 161.19369 
L 238.820576 161.245585 
L 238.905136 161.173461 
L 239.074255 161.431148 
L 239.243374 161.420737 
L 239.412493 161.677384 
L 239.91985 161.379376 
L 240.258088 161.491475 
L 240.511767 161.145037 
L 240.680886 161.135131 
L 240.765446 160.932075 
L 240.850005 160.993266 
L 241.019124 160.851782 
L 241.272803 161.297987 
L 241.441922 160.893834 
L 241.526482 160.954722 
L 241.611041 160.753146 
L 241.695601 161.076254 
L 241.78016 161.005882 
L 241.86472 161.066533 
L 242.118399 160.725333 
L 242.202958 160.786009 
L 242.287518 160.585619 
L 242.372077 160.646307 
L 242.456637 160.706915 
L 242.541196 160.506977 
L 242.625756 160.567596 
L 242.710315 160.628135 
L 242.794875 160.428647 
L 242.879434 160.489198 
L 242.963994 160.419868 
L 243.133113 160.67037 
L 243.217673 160.601058 
L 243.386792 161.109571 
L 243.64047 161.030567 
L 243.809589 161.021053 
L 243.978709 161.011564 
L 244.063268 161.328562 
L 244.147828 161.259318 
L 244.401506 161.437197 
L 244.655185 161.101961 
L 245.077983 161.269707 
L 245.50078 161.054545 
L 245.6699 161.045136 
L 245.923578 160.967638 
L 246.346376 161.134194 
L 246.515495 160.998454 
L 246.684614 161.367568 
L 247.191971 161.087179 
L 247.44565 161.261292 
L 247.614769 161.001278 
L 247.699329 161.184419 
L 247.783888 160.992087 
L 247.868448 161.05 
L 248.122126 161.098536 
L 248.206686 161.031552 
L 248.291246 161.213859 
L 248.375805 161.022363 
L 248.460365 161.08 
L 248.544924 161.137563 
L 248.629484 160.946481 
L 248.714043 161.004056 
L 249.559639 160.341562 
L 249.644198 160.522467 
L 249.728758 160.456604 
L 250.574353 159.925 
L 250.743472 160.0397 
L 250.828032 159.852402 
L 250.912591 159.909726 
L 251.081711 159.902117 
L 251.16627 160.081269 
L 251.25083 160.016418 
L 251.589068 159.879404 
L 251.673627 159.936392 
L 252.011866 159.436364 
L 252.265544 159.365432 
L 253.02658 159.87612 
L 253.11114 159.692025 
L 253.195699 159.748498 
L 253.703057 159.367502 
L 253.787616 159.064957 
L 253.872176 159.121538 
L 254.125854 158.813398 
L 254.210414 158.631406 
L 254.294973 158.688078 
L 254.464093 158.682139 
L 254.717771 158.494967 
L 254.88689 158.845427 
L 255.394248 159.300302 
L 255.478807 159.592521 
L 255.563367 159.529958 
L 255.817045 159.57858 
L 255.986164 159.453846 
L 256.239843 159.737612 
L 256.324403 159.557794 
L 256.408962 159.613062 
L 256.493522 159.668263 
L 256.578081 159.488809 
L 256.662641 159.544019 
L 256.7472 159.599163 
L 256.83176 159.888411 
L 256.916319 159.826269 
L 257.254558 159.928648 
L 257.508236 159.859453 
L 258.015594 160.070142 
L 259.030308 159.449412 
L 259.199427 158.982139 
L 259.368546 158.976056 
L 259.453106 159.030499 
L 259.537665 158.8551 
L 259.622225 158.909549 
L 259.706784 158.84918 
L 259.791344 159.132943 
L 259.875904 159.072515 
L 260.045023 159.066355 
L 260.46782 158.87979 
L 260.721499 159.269767 
L 261.059737 159.143387 
L 261.228856 159.364311 
L 261.313416 159.190851 
L 261.397975 159.35787 
L 261.482535 159.297976 
L 261.736214 159.231871 
L 261.989892 159.391931 
L 262.41269 158.643678 
L 262.49725 158.809765 
L 262.581809 158.413088 
L 262.666369 158.466667 
L 262.920047 159.07606 
L 263.089166 158.845767 
L 263.173726 158.898914 
L 263.427405 158.49863 
L 263.511964 158.663662 
L 263.596524 158.605017 
L 263.765643 158.599544 
L 263.934762 158.594084 
L 264.18844 158.307666 
L 264.35756 158.080204 
L 264.695798 158.181437 
L 265.203155 157.945516 
L 265.287715 157.998422 
L 265.541393 157.715588 
L 266.302429 158.079955 
L 266.386989 157.913039 
L 266.471548 158.075168 
L 266.556108 158.017999 
L 266.894346 157.899275 
L 267.232584 157.999221 
L 267.317144 157.83337 
L 267.401703 157.885603 
L 267.655382 157.824417 
L 267.824501 157.819956 
L 267.99362 157.815504 
L 268.162739 157.919469 
L 268.247299 157.754671 
L 268.331858 157.80663 
L 268.839216 157.361674 
L 269.008335 157.681188 
L 269.177454 157.461538 
L 269.346573 157.780241 
L 269.431132 157.616786 
L 269.600252 157.827397 
L 269.769371 157.822989 
L 269.93849 158.140077 
L 270.107609 158.135336 
L 270.361287 158.074809 
L 270.445847 158.33951 
L 270.530407 158.176906 
L 270.614966 158.441263 
L 270.699526 158.278781 
L 270.868645 158.593478 
L 271.376002 158.365547 
L 271.545121 158.466667 
L 271.7988 158.088493 
L 271.967919 158.189638 
L 272.137038 158.607547 
L 272.390717 158.863509 
L 272.475276 158.702636 
L 272.559836 158.541935 
L 272.728955 158.747368 
L 272.813514 158.69211 
L 272.898074 158.952361 
L 272.982633 158.897051 
L 273.067193 158.631726 
L 273.151753 158.681628 
L 273.405431 158.62139 
L 273.57455 159.035043 
L 273.65911 158.979925 
L 273.997348 158.551199 
L 274.166467 158.33752 
L 274.335586 158.749495 
L 274.673824 158.635013 
L 275.012063 158.832292 
L 275.265741 158.35814 
L 275.350301 158.303962 
L 275.43486 158.560296 
L 275.773099 158.137197 
L 275.857658 158.289731 
L 275.942218 158.235789 
L 276.280456 157.814706 
L 276.534134 158.270897 
L 276.703254 158.266213 
L 276.787813 158.315183 
L 276.956932 158.002929 
L 277.041492 158.05196 
L 277.210611 158.04752 
L 277.29517 157.994154 
L 277.548849 158.242939 
L 278.394445 157.711871 
L 278.479004 157.862176 
L 278.563564 157.809322 
L 278.817242 157.75243 
L 278.986361 157.748347 
L 279.3246 157.639175 
L 280.001076 157.925257 
L 280.339314 157.615574 
L 280.423874 157.463082 
L 280.508433 157.511361 
L 280.846671 157.403677 
L 281.354029 157.791853 
L 281.523148 157.488708 
L 281.776826 157.433316 
L 281.861386 157.580711 
L 281.945946 157.529072 
L 282.199624 157.473759 
L 282.622422 157.613037 
L 282.791541 157.411307 
L 282.876101 157.65671 
L 282.96066 157.605345 
L 283.04522 157.554032 
L 283.129779 157.700252 
L 283.383458 157.250704 
L 283.552577 157.542714 
L 283.721696 157.538956 
L 284.059934 157.924248 
L 284.398172 158.014 
L 284.482732 157.962919 
L 284.736411 158.299002 
L 284.82097 158.150125 
L 284.990089 158.341106 
L 285.159208 158.239024 
L 286.089363 157.778218 
L 286.76584 158.052465 
L 287.019518 157.804924 
L 287.611435 158.0316 
L 287.780554 157.931373 
L 287.949673 158.02331 
L 288.287912 158.11085 
L 288.62615 158.006829 
L 288.879828 158.239357 
L 289.048948 158.235036 
L 289.302626 158.466667 
L 289.556305 158.222125 
L 289.894543 158.308475 
L 290.317341 158.155556 
L 290.48646 158.151351 
L 290.824698 158.048555 
L 290.993817 158.138787 
L 291.332055 157.75389 
L 291.585734 157.701199 
L 291.923972 157.787554 
L 292.177651 157.73499 
L 292.34677 158.105635 
L 292.431329 157.963246 
L 292.515889 157.914504 
L 292.685008 157.630315 
L 293.107806 157.481408 
L 293.192365 157.712548 
L 293.276925 157.664133 
L 293.615163 157.285064 
L 293.953401 157.371226 
L 294.20708 157.227221 
L 294.29164 157.364478 
L 294.460759 157.268617 
L 294.629878 157.265347 
L 294.883556 157.306591 
L 294.968116 157.166588 
L 295.137235 157.255571 
L 295.306354 157.252325 
L 295.475473 157.341061 
L 295.813711 157.42623 
L 295.898271 157.378652 
L 296.15195 157.602712 
L 296.405628 157.551634 
L 296.574747 157.548134 
L 296.743866 157.544641 
L 296.828426 157.588542 
L 296.912985 157.449907 
L 296.997545 157.676221 
L 297.082105 157.628837 
L 297.251224 157.443123 
L 298.096819 157.879556 
L 298.265938 157.785213 
L 298.773296 157.954839 
L 298.857855 157.907784 
L 298.942415 158.131492 
L 299.026974 158.084399 
L 299.534331 157.892703 
L 299.703451 158.158551 
L 299.78801 157.931989 
L 299.87257 157.974989 
L 300.464487 157.7379 
L 300.887284 157.86287 
L 300.971844 157.816393 
L 301.140963 157.901911 
L 301.225522 157.944611 
L 301.394642 157.762744 
L 301.479201 157.80545 
L 301.64832 157.623956 
L 301.901999 157.663163 
L 302.155677 157.613575 
L 302.240237 157.656174 
L 302.409356 157.564121 
L 302.578475 157.560722 
L 302.832154 157.069612 
L 303.085832 157.10932 
L 303.339511 157.060791 
L 303.424071 157.279551 
L 303.50863 157.233962 
L 304.100547 157.003762 
L 304.354226 157.481574 
L 304.607904 157.257794 
L 304.946143 157.426393 
L 305.115262 157.248552 
L 305.707178 157.542451 
L 305.876298 157.452174 
L 306.468214 157.224149 
L 307.31381 157.554293 
L 307.482929 157.55099 
L 307.652048 157.547692 
L 307.990286 157.369109 
L 308.074846 157.496491 
L 308.243965 157.321472 
L 308.582203 157.40105 
L 309.08956 157.135079 
L 309.17412 156.91993 
L 309.258679 156.96129 
L 309.512358 156.829168 
L 309.681477 156.997042 
L 309.766037 156.953043 
L 309.935156 157.035447 
L 310.104275 156.8625 
L 310.188835 156.903688 
L 310.357954 156.816038 
L 310.611632 156.769697 
L 310.780751 156.851903 
L 310.94987 156.679862 
L 311.11899 156.762003 
L 311.372668 156.800431 
L 311.541787 156.797846 
L 311.710906 157.048386 
L 311.880025 156.96129 
L 312.133704 156.999313 
L 312.387383 156.869069 
L 312.556502 156.614402 
L 312.725621 156.611991 
L 312.89474 156.441849 
L 312.9793 156.482635 
L 313.148419 156.396581 
L 313.232978 156.35361 
L 313.317538 156.561742 
L 313.402097 156.518737 
L 313.486657 156.559386 
L 313.655776 156.473487 
L 313.909455 156.511792 
L 314.163133 156.3 
L 314.332252 156.297876 
L 314.416812 156.338429 
L 314.585931 156.253118 
L 314.670491 156.293639 
L 314.924169 156.082931 
L 315.093288 156.080999 
L 315.262407 156.07907 
L 315.346967 156.119527 
L 315.431526 156.32556 
L 315.516086 156.283108 
L 315.854324 156.19629 
L 316.192562 156.522222 
L 316.361681 156.437511 
L 316.784479 156.226353 
L 316.953598 156.388679 
L 317.122717 156.38651 
L 317.291837 156.466388 
L 317.376396 156.506276 
L 317.545515 156.422074 
L 318.137432 156.700375 
L 318.391111 156.329559 
L 318.56023 156.408985 
L 318.729349 156.488279 
L 318.898468 156.404651 
L 319.067587 156.40249 
L 319.152147 156.360763 
L 319.236706 156.481592 
L 319.659504 156.030037 
L 319.744063 156.069644 
L 319.828623 155.947168 
L 319.997742 156.026353 
L 320.42054 155.900577 
L 320.505099 156.020849 
L 320.674218 155.857637 
L 320.758778 155.897119 
L 321.097016 155.571569 
L 321.266135 155.570115 
L 321.688933 155.446047 
L 321.773493 155.565766 
L 322.027171 155.36319 
L 322.19629 155.361913 
L 322.365409 155.44067 
L 322.619088 155.47863 
L 322.872767 155.356823 
L 323.041886 155.5151 
L 323.211005 155.35429 
L 323.380124 155.512312 
L 323.464684 155.471812 
L 323.718362 155.748073 
L 323.972041 155.388331 
L 324.394839 155.821027 
L 324.733077 155.738635 
L 325.071315 156.130512 
L 325.240434 156.128635 
L 325.409553 156.126761 
L 325.578672 156.124889 
L 325.663232 156.163344 
L 325.832351 156.476305 
L 326.00147 156.474157 
L 326.170589 156.62919 
L 326.424268 156.429555 
L 326.593387 156.427451 
L 326.677946 156.3872 
L 326.847065 156.15012 
L 327.100744 156.02994 
L 327.354423 156.457097 
L 327.77722 156.256825 
L 327.86178 156.450756 
L 327.94634 156.410736 
L 328.030899 156.370747 
L 328.284578 156.562207 
L 328.369137 156.522222 
L 328.538256 156.59778 
L 328.707375 156.673217 
L 328.876495 156.515756 
L 328.961054 156.631025 
L 329.130173 156.473784 
L 329.383852 156.664139 
L 329.552971 156.661878 
L 329.72209 156.736909 
L 329.891209 156.734594 
L 330.060328 156.809449 
L 330.229447 156.807081 
L 330.398566 156.650629 
L 330.483126 156.842043 
L 330.736805 156.646154 
L 331.075043 156.56489 
L 331.159602 156.602193 
L 331.328721 156.523288 
L 331.751519 156.403125 
L 332.174317 156.589084 
L 332.512555 156.279564 
L 332.681674 156.35387 
L 332.850793 156.504236 
L 333.104472 156.767391 
L 333.189032 156.728211 
L 333.358151 156.801939 
L 333.52727 156.799613 
L 333.865508 156.415861 
L 333.950067 156.604331 
L 334.034627 156.565365 
L 334.711103 156.33025 
L 334.964782 156.36505 
L 335.133901 156.287692 
L 335.218461 156.249058 
L 335.30302 156.436434 
L 335.472139 156.35914 
L 335.641258 156.206754 
L 335.894937 156.016175 
L 336.317735 156.124407 
L 336.486854 156.047706 
L 336.571413 156.234085 
L 336.740533 156.157388 
L 336.994211 156.117315 
L 337.24789 156.152 
L 337.501568 155.962861 
L 337.755247 155.997643 
L 338.093485 155.919924 
L 338.178045 155.956297 
L 338.347164 155.806065 
L 338.431723 155.84244 
L 338.600843 155.766679 
L 338.939081 155.911909 
L 339.192759 155.724471 
L 339.446438 155.685326 
L 339.530998 155.721569 
L 339.784676 156.051601 
L 339.869236 156.013855 
L 340.038355 156.085929 
L 340.207474 155.936842 
L 340.292034 155.825554 
L 340.461153 156.044837 
L 341.814105 155.519298 
L 342.321463 155.661453 
L 342.406022 155.624274 
L 342.575141 155.76875 
L 342.82882 155.584467 
L 342.997939 155.728704 
L 343.082499 155.691611 
L 343.251618 155.762908 
L 343.420737 155.761453 
L 343.674415 155.795557 
L 343.928094 155.757101 
L 344.097213 155.972949 
L 344.350892 156.006718 
L 344.68913 155.93122 
L 344.77369 156.038762 
L 344.942809 155.964948 
L 345.196487 155.998602 
L 345.365606 155.852922 
L 345.450166 155.960176 
L 345.619285 155.814684 
L 345.703845 155.849908 
L 345.872964 155.776531 
L 346.126642 155.953846 
L 346.380321 156.130772 
L 346.54944 156.057404 
L 346.718559 156.270588 
L 346.887678 156.197225 
L 347.056797 156.195476 
L 347.225916 156.05082 
L 347.479595 156.226803 
L 347.733274 156.188505 
L 347.902393 156.258015 
L 348.071512 156.185035 
L 348.240631 156.183303 
L 348.40975 156.110482 
L 348.832548 155.999855 
L 349.001667 156.069175 
L 349.086226 156.103797 
L 349.255346 155.960463 
L 349.424465 156.029686 
L 349.593584 155.886611 
L 349.678143 155.921212 
L 349.847262 156.131651 
L 349.931822 156.166126 
L 350.100941 156.093842 
L 350.439179 156.161021 
L 350.523739 156.054493 
L 350.608298 156.159324 
L 350.777417 156.016876 
L 350.946537 156.155938 
L 351.200215 156.18853 
L 351.538453 156.04481 
L 351.623013 155.868694 
L 351.792132 156.007365 
L 351.961251 156.005788 
L 352.13037 156.144163 
L 352.468608 156.00107 
L 352.637728 156.208978 
L 352.891406 156.032028 
L 352.975966 156.135824 
L 353.145085 156.064486 
L 353.483323 156.130848 
L 353.737002 155.95461 
L 353.821561 155.988586 
L 354.07524 155.812748 
L 354.413478 155.879208 
L 354.498038 155.843832 
L 354.667157 155.703921 
L 355.089954 155.804231 
L 355.343633 155.698556 
L 355.512752 155.835199 
L 355.681871 155.764826 
L 355.85099 155.90123 
L 356.020109 155.83091 
L 356.273788 155.794386 
L 356.612026 155.860266 
L 356.781145 155.721569 
L 357.034824 155.959496 
L 357.203943 155.957987 
L 357.457622 156.400559 
L 357.626741 156.261968 
L 357.79586 156.260251 
L 357.880419 156.225235 
L 358.049539 156.360084 
L 358.387777 156.288348 
L 358.556896 156.354745 
L 358.641455 156.524114 
L 358.979694 156.2483 
L 359.233372 156.415598 
L 359.74073 156.545763 
L 359.909849 156.543865 
L 360.078968 156.677375 
L 360.417206 156.741014 
L 360.755444 156.601929 
L 360.924563 156.73494 
L 361.093682 156.665497 
L 361.262801 156.730904 
L 361.60104 156.794164 
L 362.108397 156.653717 
L 362.277516 156.785964 
L 362.531195 156.749384 
L 362.615754 156.848889 
L 362.784873 156.645917 
L 362.953992 156.710891 
L 363.37679 156.605726 
L 364.222386 156.929076 
L 364.391505 156.860421 
L 364.560624 156.858345 
L 364.729743 156.72339 
L 364.983421 156.554487 
L 365.067981 156.58673 
L 365.2371 156.518539 
L 365.490779 156.61514 
L 365.659898 156.480851 
L 365.744457 156.645375 
L 365.913577 156.511201 
L 366.251815 156.639623 
L 366.420934 156.505724 
L 366.674612 156.799664 
L 366.843732 156.665882 
L 367.012851 156.795633 
L 367.266529 156.759732 
L 367.689327 156.918928 
L 367.858446 156.719987 
L 368.027565 156.783607 
L 368.196684 156.716082 
L 368.365803 156.845105 
L 368.619482 156.809346 
L 368.704042 156.841041 
L 368.788601 157.003469 
L 368.95772 156.936 
L 369.211399 156.965501 
L 369.465078 156.929741 
L 369.634197 156.992819 
L 369.887875 156.826901 
L 370.395233 157.340603 
L 370.987149 157.17037 
L 371.240828 157.199405 
L 371.409947 157.132453 
L 371.663626 157.161478 
L 372.170983 157.025806 
L 372.67834 157.212615 
L 372.932019 156.984116 
L 373.101138 157.174877 
L 373.354817 157.13945 
L 373.608495 157.168249 
L 373.777614 157.037815 
L 373.862174 157.068803 
L 373.946734 156.971625 
L 374.200412 157.128543 
L 374.53865 157.188128 
L 374.792329 157.152884 
L 374.961448 157.278346 
L 375.299686 157.210081 
L 375.553365 157.493307 
L 375.722484 157.3 
L 375.807044 157.330672 
L 375.976163 157.264807 
L 376.821758 156.873392 
L 376.990877 157.061389 
L 377.159996 157.059283 
L 377.329115 157.05718 
L 377.582794 156.896067 
L 378.005592 156.98571 
L 378.34383 156.918611 
L 378.42839 157.012082 
L 378.597509 156.884136 
L 378.766628 156.882157 
L 379.020306 156.847772 
L 379.189426 156.908619 
L 379.443104 156.874264 
L 379.612223 156.872297 
L 380.119581 156.741252 
L 380.20414 156.771593 
L 380.457819 156.6125 
L 380.880616 156.701624 
L 381.049736 156.512695 
L 381.387974 156.571528 
L 381.641652 156.475556 
L 381.810771 156.536041 
L 382.06445 156.316006 
L 382.233569 156.376497 
L 382.402688 156.312821 
L 382.656367 156.217457 
L 382.825486 156.339823 
L 383.163724 156.522222 
L 383.671082 156.949338 
L 383.755641 156.91748 
L 383.92476 157.038905 
L 384.178439 156.758491 
L 384.601237 156.661538 
L 384.854915 156.689586 
L 385.193153 156.378947 
L 385.277713 156.408832 
L 385.531392 156.253066 
L 385.615951 156.282953 
L 385.78507 156.158862 
L 386.715225 156.425545 
L 386.968904 156.392593 
L 387.476261 156.874868 
L 387.814499 156.810239 
L 387.983618 156.808372 
L 388.152738 156.806508 
L 388.490976 156.863448 
L 388.660095 156.800928 
L 388.829214 156.920247 
L 389.167452 156.613831 
L 389.50569 156.731237 
L 389.759369 156.577572 
L 390.774084 156.9283 
L 391.027762 156.775161 
L 391.281441 156.742402 
L 391.366 156.771516 
L 391.535119 156.709703 
L 391.788798 156.856881 
L 392.042477 156.704369 
L 393.141751 156.36482 
L 393.31087 156.36326 
L 393.39543 156.332685 
L 393.649108 156.538761 
L 393.733668 156.508169 
L 393.902787 156.566009 
L 393.987346 156.594903 
L 394.071906 156.504883 
L 394.156465 156.652638 
L 394.410144 156.501606 
L 394.832942 156.40859 
L 395.002061 156.466264 
L 395.08662 156.495074 
L 395.17118 156.405438 
L 395.424859 156.610142 
L 396.101335 156.426317 
L 396.270454 156.424737 
L 396.777811 156.302253 
L 397.792526 156.586591 
L 398.384443 156.492951 
L 398.807241 156.576618 
L 398.8918 156.488134 
L 399.060919 156.603337 
L 399.230038 156.660036 
L 399.821955 156.741456 
L 400.329312 156.619935 
L 400.498432 156.73448 
L 400.83667 156.672964 
L 401.005789 156.729269 
L 401.682265 156.838087 
L 402.020503 156.776703 
L 402.189623 156.832714 
L 403.035218 156.651014 
L 403.373456 156.647667 
L 403.627135 156.501466 
L 403.965373 156.498301 
L 404.895528 156.289343 
L 405.741124 156.510335 
L 405.910243 156.451731 
L 406.163921 156.42093 
L 406.671279 156.359489 
L 406.840398 156.358005 
L 407.009517 156.29971 
L 407.347755 156.296815 
L 407.601434 156.322997 
L 407.770553 156.264874 
L 409.038946 156.564537 
L 409.884541 156.38783 
L 410.05366 156.33012 
L 411.152935 156.012632 
L 411.406613 156.262593 
L 412.759566 156.585674 
L 412.844126 156.557033 
L 412.928685 156.695455 
L 413.097804 156.63816 
L 413.436042 156.63494 
L 413.520602 156.717494 
L 413.689721 156.549221 
L 413.774281 156.576204 
L 413.9434 156.352661 
L 414.873555 156.538357 
L 415.211793 156.480011 
L 415.380912 156.588955 
L 416.733865 156.246564 
L 417.241222 156.29734 
L 417.410341 156.18623 
L 417.748579 156.238356 
L 417.917698 156.127466 
L 418.171377 156.262312 
L 418.678734 156.312821 
L 419.270651 156.226147 
L 419.43977 156.279288 
L 419.608889 156.168991 
L 420.961842 156.483817 
L 421.130961 156.536522 
L 422.568474 156.874298 
L 422.653033 156.738652 
L 422.822152 156.790927 
L 422.906712 156.709291 
L 423.16039 156.841472 
L 424.259664 156.589272 
L 425.10526 156.74214 
L 426.458213 156.409783 
L 427.219249 156.536243 
L 428.064844 156.369884 
L 428.403082 156.367108 
L 428.741321 156.364338 
L 429.248678 156.412981 
L 429.671476 156.383109 
L 430.263392 156.457181 
L 430.517071 156.48133 
L 431.700905 156.733191 
L 431.870024 156.731624 
L 431.954583 156.861682 
L 432.123702 156.755431 
L 432.461941 156.491016 
L 432.715619 156.619393 
L 433.138417 156.589572 
L 433.392096 156.613397 
L 433.476655 156.53452 
L 433.814893 156.73974 
L 434.153132 156.684646 
L 434.40681 156.812189 
L 434.660489 156.835743 
L 434.914168 157.066667 
L 435.083287 156.96129 
L 435.675203 157.033043 
L 435.928882 156.901266 
L 436.26712 156.897998 
L 436.520799 157.076125 
L 438.042871 156.701231 
L 438.21199 156.751034 
L 438.465669 156.825641 
L 438.634788 156.670293 
L 438.803907 156.720021 
L 439.311264 156.613152 
L 439.480383 156.76505 
L 439.649502 156.610219 
L 439.818621 156.710891 
L 440.579657 156.576709 
L 441.002455 156.598546 
L 441.678931 156.491192 
L 441.93261 156.463733 
L 442.186289 156.33492 
L 442.778205 156.406248 
L 443.031884 156.378947 
L 443.201003 156.428159 
L 443.454682 156.400876 
L 444.469396 156.191472 
L 444.553956 156.216025 
L 444.723075 156.114168 
L 445.230432 156.060379 
L 445.822349 156.131543 
L 445.991468 156.080235 
L 446.837064 155.874471 
L 447.090742 155.997757 
L 447.851778 156.16715 
L 447.936338 156.091815 
L 448.020897 156.165947 
L 448.274576 156.039716 
L 448.697374 156.111438 
L 449.035612 155.910464 
L 449.204731 156.00866 
L 449.45841 155.882996 
L 449.712088 155.856637 
L 449.881207 155.90513 
L 450.219446 155.903004 
L 450.388565 155.852485 
L 450.811362 155.923992 
L 450.980482 155.873552 
L 451.572398 155.943827 
L 451.995196 155.916524 
L 452.248875 155.939523 
L 452.502553 155.864193 
L 452.925351 155.837065 
L 453.09447 155.836045 
L 453.263589 155.785989 
L 454.278304 156.024495 
L 454.616542 155.875754 
L 455.03934 155.946341 
L 455.208459 155.896517 
L 455.462138 155.968034 
L 455.631257 155.918261 
L 456.054054 155.891315 
L 456.89965 156.031683 
L 458.421722 155.683687 
L 458.929079 155.729134 
L 459.098198 155.77639 
L 459.774675 155.868729 
L 460.958508 155.621918 
L 461.127627 155.668949 
L 461.719544 155.593996 
L 461.888663 155.73657 
L 462.142342 155.902389 
L 462.311461 155.949123 
L 463.072497 156.063555 
L 463.495295 156.037008 
L 463.918092 156.058065 
L 464.171771 155.985167 
L 464.256331 155.960892 
L 464.42545 156.054783 
L 464.679128 156.029429 
L 464.848247 156.02835 
L 465.101926 156.192555 
L 465.186486 156.168294 
L 465.271045 156.286108 
L 465.440164 156.190244 
L 465.862962 156.163724 
L 466.2012 156.208675 
L 466.454879 156.136143 
L 467.215915 156.013359 
L 468.06151 156.148993 
L 469.160784 155.88411 
L 469.414463 155.952818 
L 469.668142 155.927893 
L 470.090939 155.855291 
L 470.344618 155.923839 
L 470.851975 156.060642 
L 470.936535 155.943604 
L 471.021094 156.012978 
L 471.190214 156.011927 
L 471.697571 155.729775 
L 471.951249 155.705168 
L 472.627726 155.608803 
L 473.219643 155.675266 
L 473.388762 155.67438 
L 473.727 155.672611 
L 474.403476 155.576784 
L 475.164512 155.688158 
L 475.925548 155.569285 
L 476.179227 155.591003 
L 476.432905 155.520908 
L 477.109382 155.609301 
L 477.363061 155.63092 
L 477.53218 155.675817 
L 478.293216 155.557745 
L 478.716013 155.578502 
L 478.969692 155.554476 
L 479.054251 155.667968 
L 479.138811 155.59921 
L 479.815287 155.686801 
L 479.984406 155.685926 
L 480.914562 155.522479 
L 481.083681 155.56699 
L 481.337359 155.543128 
L 481.675597 155.812924 
L 482.352074 155.718913 
L 482.943991 155.783441 
L 483.535907 155.712744 
L 483.958705 155.733028 
L 484.88886 155.571219 
L 485.396218 155.613571 
L 485.565337 155.657502 
L 486.157253 155.721569 
L 486.74917 155.651582 
L 487.002849 155.717197 
L 487.171968 155.939154 
L 487.341087 155.982727 
L 487.679325 155.980745 
L 488.017564 155.845372 
L 488.524921 155.798188 
L 488.863159 155.796378 
L 489.201397 155.794573 
L 489.285957 155.904906 
L 489.370516 155.837975 
L 489.539635 155.925621 
L 489.624195 155.814457 
L 489.708754 155.880397 
L 490.300671 155.810823 
L 490.55435 155.831546 
L 490.723469 155.786486 
L 491.569065 155.914157 
L 492.076422 155.823339 
L 492.245541 155.822432 
L 492.752898 155.775806 
L 493.513934 155.881377 
L 493.936732 155.857168 
L 494.528649 155.919509 
L 494.697768 155.874883 
L 494.866887 156.004945 
L 495.205125 156.133853 
L 495.374244 156.132814 
L 495.712482 156.479262 
L 496.13528 156.454529 
L 497.149995 156.751284 
L 497.319114 156.880124 
L 497.911031 156.810387 
L 498.333828 156.871965 
L 498.672067 156.739568 
L 500.025019 156.987692 
L 500.194138 157.02935 
L 500.786055 157.088879 
L 501.124293 157.085996 
L 501.462532 157.211868 
L 501.80077 157.123124 
L 501.969889 157.207391 
L 502.984603 157.369466 
L 503.830199 157.233732 
L 503.999318 157.274875 
L 504.252997 157.251304 
L 504.506675 157.355507 
L 504.675794 157.353963 
L 504.844914 157.35242 
L 505.014033 157.393404 
L 505.267711 157.412316 
L 505.605949 157.409185 
L 506.113307 157.362094 
L 506.366985 157.338595 
L 506.874343 157.291686 
L 507.804498 157.431193 
L 507.973617 157.387425 
L 508.227295 157.574909 
L 508.480974 157.467097 
L 508.650093 157.507653 
L 508.819212 157.421831 
L 510.510403 157.07086 
L 510.679522 157.027545 
L 511.10232 157.003162 
L 511.355999 157.022032 
L 511.609677 156.957243 
L 511.863356 156.934328 
L 512.370713 156.888586 
L 512.96263 156.946502 
L 513.300868 156.902188 
L 513.469987 156.984116 
L 513.977345 156.938494 
L 515.245738 157.156448 
L 515.668536 157.132207 
L 516.175893 157.169331 
L 516.68325 157.123783 
L 516.936929 157.266105 
L 517.106048 157.264646 
L 517.359727 157.200631 
L 517.697965 157.197773 
L 518.036203 157.194919 
L 518.289882 157.336718 
L 518.374441 157.315419 
L 518.62812 157.457023 
L 519.558275 157.305124 
L 520.40387 157.420539 
L 520.572989 157.459921 
L 520.742109 157.417518 
L 521.164906 157.393333 
L 521.334025 157.514286 
L 521.587704 157.40999 
L 522.095061 157.446227 
L 522.856097 157.337759 
L 523.025216 157.417586 
L 523.448014 157.474746 
L 523.617133 157.392048 
L 524.12449 157.428128 
L 524.378169 157.36511 
L 524.547288 157.363636 
L 524.716407 157.200248 
L 524.885526 157.198844 
L 525.223765 157.438614 
L 525.900241 157.553707 
L 526.238479 157.42963 
L 526.576717 157.426645 
L 527.168634 157.361076 
L 527.675991 157.437072 
L 527.845111 157.435581 
L 528.267908 157.2914 
L 528.521587 157.068672 
L 529.113504 157.12407 
L 529.367182 157.061997 
L 529.87454 157.137956 
L 530.043659 157.056677 
L 530.128218 157.036038 
L 530.297337 157.114588 
L 530.635576 157.111889 
L 530.804695 157.070655 
L 531.142933 157.067995 
L 531.65029 157.024208 
L 531.903969 157.121697 
L 532.242207 157.119002 
L 532.665005 157.334036 
L 532.918683 157.272363 
L 535.37091 156.758937 
L 535.878268 156.794773 
L 536.131946 156.812658 
L 536.639304 156.887698 
L 536.892982 156.787565 
L 537.31578 156.96129 
L 537.823137 157.035942 
L 537.992256 156.917023 
L 538.330494 156.914531 
L 538.837852 156.871671 
L 539.09153 156.850279 
L 539.345209 156.789831 
L 540.698162 156.546571 
L 540.95184 156.759078 
L 541.374638 156.697797 
L 541.543757 156.77441 
L 541.797436 156.675496 
L 542.473912 156.787332 
L 542.643031 156.747368 
L 543.150389 156.821344 
L 543.319508 156.78143 
L 543.488627 156.818957 
L 543.826865 156.816575 
L 544.080544 156.911418 
L 544.587901 156.869135 
L 544.84158 156.848031 
L 545.348937 156.805899 
L 545.771735 156.822196 
L 546.871009 156.641693 
L 547.040128 156.602193 
L 548.5622 156.32459 
L 548.900438 156.437285 
L 550.33795 156.67619 
L 550.591629 156.693551 
L 550.845308 156.67284 
L 551.098986 156.576096 
L 551.606343 156.610853 
L 551.944582 156.608675 
L 552.029141 156.703001 
L 552.19826 156.663944 
L 552.367379 156.624918 
L 552.621058 156.680124 
L 552.874737 156.697391 
L 553.212975 156.846534 
L 553.551213 156.730735 
L 554.14313 156.745665 
L 554.819606 156.703424 
L 554.988725 156.777692 
L 555.580642 156.830152 
L 555.91888 156.714988 
L 556.257119 156.675168 
L 557.271833 156.518577 
L 557.440952 156.592503 
L 557.77919 156.590369 
L 557.94831 156.514422 
L 558.117429 156.513386 
L 558.286548 156.624585 
L 558.540226 156.641663 
L 558.709345 156.64058 
L 559.132143 156.656544 
L 559.72406 156.671385 
L 560.231417 156.668111 
L 560.823334 156.6829 
L 561.161572 156.569202 
L 561.330691 156.605308 
L 561.499811 156.715672 
L 563.952037 156.274934 
L 564.966752 156.158781 
L 565.643228 156.192039 
L 566.319705 156.151706 
L 566.657943 156.113226 
L 567.24986 156.091862 
L 567.588098 156.090148 
L 567.757217 156.016034 
L 568.180015 156.178641 
L 568.433693 156.195596 
L 568.687372 156.28564 
L 568.856491 156.357793 
L 569.448408 156.372705 
L 570.294004 156.295075 
L 570.547682 156.348291 
L 571.646956 156.215045 
L 571.900635 156.159259 
L 572.069754 156.08582 
L 572.83079 156.208797 
L 572.999909 156.171698 
L 573.507266 156.169072 
L 573.760945 156.221985 
L 574.268302 156.219307 
L 574.437421 156.254512 
L 574.860219 156.270285 
L 575.198457 156.16036 
L 576.044053 156.048119 
L 576.213172 156.155164 
L 576.889648 156.115809 
L 577.650684 156.165764 
L 578.580839 156.071582 
L 579.257316 156.103991 
L 579.426435 155.996028 
L 579.764673 156.172838 
L 580.102911 156.064144 
L 580.35659 156.223273 
L 581.286745 156.307349 
L 582.724257 156.104631 
L 583.147055 156.297379 
L 584.246329 156.132492 
L 584.415448 156.237635 
L 584.922805 156.235002 
L 585.091924 156.269402 
L 586.275758 156.40395 
L 587.036794 156.31192 
L 587.205913 156.381258 
L 587.459592 156.327221 
L 587.882389 156.342494 
L 588.220628 156.235544 
L 589.235342 156.125424 
L 589.57358 156.088822 
L 589.996378 156.034414 
L 590.165497 156.103419 
L 590.419176 156.154511 
L 590.588295 156.223412 
L 591.095652 156.220828 
L 591.264771 156.324427 
L 592.702284 156.125894 
L 592.955962 156.176704 
L 593.125081 156.141179 
L 594.224356 156.256921 
L 594.816272 156.236607 
L 595.154511 156.338502 
L 595.492749 156.336714 
L 595.746427 156.283633 
L 596.084666 156.247415 
L 596.422904 156.142355 
L 598.029535 156.392048 
L 598.198654 156.219541 
L 599.128809 156.129256 
L 599.297928 156.162683 
L 600.058964 156.073504 
L 600.312643 156.12357 
L 600.90456 156.137803 
L 601.834715 156.048175 
L 602.342072 156.079861 
L 602.595751 155.993649 
L 602.933989 155.958141 
L 603.103108 155.923418 
L 603.272227 155.922682 
L 604.456061 155.748142 
L 604.62518 155.849076 
L 604.963418 155.813815 
L 605.809014 155.742768 
L 606.062692 155.792419 
L 606.231811 155.825491 
L 606.48549 155.875056 
L 607.584764 155.988251 
L 609.191396 155.76302 
L 609.614193 155.778105 
L 609.867872 155.726825 
L 611.220825 155.92208 
L 611.389944 155.88795 
L 611.643622 156.003748 
L 611.812742 156.036376 
L 612.06642 156.152 
L 612.489218 156.3 
L 612.742897 156.248751 
L 613.92673 156.076751 
L 614.095849 156.109205 
L 614.434087 156.10764 
L 614.772326 156.20562 
L 614.941445 156.204806 
L 615.110564 156.303468 
L 615.533362 156.317918 
L 616.040719 156.315366 
L 616.294398 156.198312 
L 616.463517 156.263641 
L 616.717195 156.212816 
L 617.73191 156.108987 
L 617.901029 156.141184 
L 618.577505 156.039247 
L 618.746624 156.137252 
L 619.000303 156.185429 
L 619.169422 156.250411 
L 619.338541 156.216709 
L 619.761339 156.395374 
L 620.184137 156.409613 
L 620.606934 156.423829 
L 620.945173 156.323746 
L 621.45253 156.321216 
L 621.706209 156.30359 
L 621.875328 156.270038 
L 622.213566 156.26839 
L 622.467245 156.218139 
L 622.636364 156.217333 
L 622.636364 156.217333 
" clip-path="url(#p3d41673a4b)" style="fill: none; stroke: #ff7f0e; stroke-width: 1.5; stroke-linecap: square"/>
   </g>
   <g id="patch_3">
    <path d="M 90 320.4 
L 90 43.2 
" style="fill: none; stroke: #000000; stroke-width: 0.8; stroke-linejoin: miter; stroke-linecap: square"/>
   </g>
   <g id="patch_4">
    <path d="M 648 320.4 
L 648 43.2 
" style="fill: none; stroke: #000000; stroke-width: 0.8; stroke-linejoin: miter; stroke-linecap: square"/>
   </g>
   <g id="patch_5">
    <path d="M 90 320.4 
L 648 320.4 
" style="fill: none; stroke: #000000; stroke-width: 0.8; stroke-linejoin: miter; stroke-linecap: square"/>
   </g>
   <g id="patch_6">
    <path d="M 90 43.2 
L 648 43.2 
" style="fill: none; stroke: #000000; stroke-width: 0.8; stroke-linejoin: miter; stroke-linecap: square"/>
   </g>
   <g id="text_17">
    <!-- Evolution of rewards (SARSA - Constant ε=0.1 (γ=0.995)) -->
    <g transform="translate(195.698438 37.2) scale(0.12 -0.12)">
     <defs>
      <path id="DejaVuSans-45" d="M 628 4666 
L 3578 4666 
L 3578 4134 
L 1259 4134 
L 1259 2753 
L 3481 2753 
L 3481 2222 
L 1259 2222 
L 1259 531 
L 3634 531 
L 3634 0 
L 628 0 
L 628 4666 
z
" transform="scale(0.015625)"/>
      <path id="DejaVuSans-6f" d="M 1959 3097 
Q 1497 3097 1228 2736 
Q 959 2375 959 1747 
Q 959 1119 1226 758 
Q 1494 397 1959 397 
Q 2419 397 2687 759 
Q 2956 1122 2956 1747 
Q 2956 2369 2687 2733 
Q 2419 3097 1959 3097 
z
M 1959 3584 
Q 2709 3584 3137 3096 
Q 3566 2609 3566 1747 
Q 3566 888 3137 398 
Q 2709 -91 1959 -91 
Q 1206 -91 779 398 
Q 353 888 353 1747 
Q 353 2609 779 3096 
Q 1206 3584 1959 3584 
z
" transform="scale(0.015625)"/>
      <path id="DejaVuSans-6c" d="M 603 4863 
L 1178 4863 
L 1178 0 
L 603 0 
L 603 4863 
z
" transform="scale(0.015625)"/>
      <path id="DejaVuSans-75" d="M 544 1381 
L 544 3500 
L 1119 3500 
L 1119 1403 
Q 1119 906 1312 657 
Q 1506 409 1894 409 
Q 2359 409 2629 706 
Q 2900 1003 2900 1516 
L 2900 3500 
L 3475 3500 
L 3475 0 
L 2900 0 
L 2900 538 
Q 2691 219 2414 64 
Q 2138 -91 1772 -91 
Q 1169 -91 856 284 
Q 544 659 544 1381 
z
M 1991 3584 
L 1991 3584 
z
" transform="scale(0.015625)"/>
      <path id="DejaVuSans-6e" d="M 3513 2113 
L 3513 0 
L 2938 0 
L 2938 2094 
Q 2938 2591 2744 2837 
Q 2550 3084 2163 3084 
Q 1697 3084 1428 2787 
Q 1159 2491 1159 1978 
L 1159 0 
L 581 0 
L 581 3500 
L 1159 3500 
L 1159 2956 
Q 1366 3272 1645 3428 
Q 1925 3584 2291 3584 
Q 2894 3584 3203 3211 
Q 3513 2838 3513 2113 
z
" transform="scale(0.015625)"/>
      <path id="DejaVuSans-66" d="M 2375 4863 
L 2375 4384 
L 1825 4384 
Q 1516 4384 1395 4259 
Q 1275 4134 1275 3809 
L 1275 3500 
L 2222 3500 
L 2222 3053 
L 1275 3053 
L 1275 0 
L 697 0 
L 697 3053 
L 147 3053 
L 147 3500 
L 697 3500 
L 697 3744 
Q 697 4328 969 4595 
Q 1241 4863 1831 4863 
L 2375 4863 
z
" transform="scale(0.015625)"/>
      <path id="DejaVuSans-28" d="M 1984 4856 
Q 1566 4138 1362 3434 
Q 1159 2731 1159 2009 
Q 1159 1288 1364 580 
Q 1569 -128 1984 -844 
L 1484 -844 
Q 1016 -109 783 600 
Q 550 1309 550 2009 
Q 550 2706 781 3412 
Q 1013 4119 1484 4856 
L 1984 4856 
z
" transform="scale(0.015625)"/>
      <path id="DejaVuSans-53" d="M 3425 4513 
L 3425 3897 
Q 3066 4069 2747 4153 
Q 2428 4238 2131 4238 
Q 1616 4238 1336 4038 
Q 1056 3838 1056 3469 
Q 1056 3159 1242 3001 
Q 1428 2844 1947 2747 
L 2328 2669 
Q 3034 2534 3370 2195 
Q 3706 1856 3706 1288 
Q 3706 609 3251 259 
Q 2797 -91 1919 -91 
Q 1588 -91 1214 -16 
Q 841 59 441 206 
L 441 856 
Q 825 641 1194 531 
Q 1563 422 1919 422 
Q 2459 422 2753 634 
Q 3047 847 3047 1241 
Q 3047 1584 2836 1778 
Q 2625 1972 2144 2069 
L 1759 2144 
Q 1053 2284 737 2584 
Q 422 2884 422 3419 
Q 422 4038 858 4394 
Q 1294 4750 2059 4750 
Q 2388 4750 2728 4690 
Q 3069 4631 3425 4513 
z
" transform="scale(0.015625)"/>
      <path id="DejaVuSans-52" d="M 2841 2188 
Q 3044 2119 3236 1894 
Q 3428 1669 3622 1275 
L 4263 0 
L 3584 0 
L 2988 1197 
Q 2756 1666 2539 1819 
Q 2322 1972 1947 1972 
L 1259 1972 
L 1259 0 
L 628 0 
L 628 4666 
L 2053 4666 
Q 2853 4666 3247 4331 
Q 3641 3997 3641 3322 
Q 3641 2881 3436 2590 
Q 3231 2300 2841 2188 
z
M 1259 4147 
L 1259 2491 
L 2053 2491 
Q 2509 2491 2742 2702 
Q 2975 2913 2975 3322 
Q 2975 3731 2742 3939 
Q 2509 4147 2053 4147 
L 1259 4147 
z
" transform="scale(0.015625)"/>
      <path id="DejaVuSans-2d" d="M 313 2009 
L 1997 2009 
L 1997 1497 
L 313 1497 
L 313 2009 
z
" transform="scale(0.015625)"/>
      <path id="DejaVuSans-43" d="M 4122 4306 
L 4122 3641 
Q 3803 3938 3442 4084 
Q 3081 4231 2675 4231 
Q 1875 4231 1450 3742 
Q 1025 3253 1025 2328 
Q 1025 1406 1450 917 
Q 1875 428 2675 428 
Q 3081 428 3442 575 
Q 3803 722 4122 1019 
L 4122 359 
Q 3791 134 3420 21 
Q 3050 -91 2638 -91 
Q 1578 -91 968 557 
Q 359 1206 359 2328 
Q 359 3453 968 4101 
Q 1578 4750 2638 4750 
Q 3056 4750 3426 4639 
Q 3797 4528 4122 4306 
z
" transform="scale(0.015625)"/>
      <path id="DejaVuSans-3b5" d="M 1234 1888 
Q 884 1963 697 2166 
Q 509 2366 509 2656 
Q 509 3097 866 3344 
Q 1219 3588 1831 3588 
Q 2069 3588 2334 3550 
Q 2600 3513 2906 3438 
L 2906 2916 
Q 2603 3006 2353 3047 
Q 2100 3088 1878 3088 
Q 1506 3088 1291 2944 
Q 1072 2800 1072 2600 
Q 1072 2381 1284 2241 
Q 1494 2103 1856 2103 
L 2341 2103 
L 2341 1628 
L 1878 1628 
Q 1450 1628 1225 1469 
Q 981 1294 981 1019 
Q 981 738 1244 563 
Q 1509 388 1981 388 
Q 2272 388 2538 444 
Q 2803 503 3025 619 
L 3025 84 
Q 2744 -3 2481 -47 
Q 2216 -91 1966 -91 
Q 1222 -91 819 194 
Q 416 478 416 1019 
Q 416 1356 631 1584 
Q 847 1813 1234 1888 
z
" transform="scale(0.015625)"/>
      <path id="DejaVuSans-3d" d="M 678 2906 
L 4684 2906 
L 4684 2381 
L 678 2381 
L 678 2906 
z
M 678 1631 
L 4684 1631 
L 4684 1100 
L 678 1100 
L 678 1631 
z
" transform="scale(0.015625)"/>
      <path id="DejaVuSans-3b3" d="M 1128 2950 
L 1894 788 
L 2988 3500 
L 3597 3500 
L 2181 0 
L 2181 -1331 
L 1606 -1331 
L 1606 0 
L 688 2613 
Q 550 3006 253 3006 
L 100 3006 
L 100 3500 
L 319 3500 
Q 934 3500 1128 2950 
z
" transform="scale(0.015625)"/>
      <path id="DejaVuSans-39" d="M 703 97 
L 703 672 
Q 941 559 1184 500 
Q 1428 441 1663 441 
Q 2288 441 2617 861 
Q 2947 1281 2994 2138 
Q 2813 1869 2534 1725 
Q 2256 1581 1919 1581 
Q 1219 1581 811 2004 
Q 403 2428 403 3163 
Q 403 3881 828 4315 
Q 1253 4750 1959 4750 
Q 2769 4750 3195 4129 
Q 3622 3509 3622 2328 
Q 3622 1225 3098 567 
Q 2575 -91 1691 -91 
Q 1453 -91 1209 -44 
Q 966 3 703 97 
z
M 1959 2075 
Q 2384 2075 2632 2365 
Q 2881 2656 2881 3163 
Q 2881 3666 2632 3958 
Q 2384 4250 1959 4250 
Q 1534 4250 1286 3958 
Q 1038 3666 1038 3163 
Q 1038 2656 1286 2365 
Q 1534 2075 1959 2075 
z
" transform="scale(0.015625)"/>
      <path id="DejaVuSans-29" d="M 513 4856 
L 1013 4856 
Q 1481 4119 1714 3412 
Q 1947 2706 1947 2009 
Q 1947 1309 1714 600 
Q 1481 -109 1013 -844 
L 513 -844 
Q 928 -128 1133 580 
Q 1338 1288 1338 2009 
Q 1338 2731 1133 3434 
Q 928 4138 513 4856 
z
" transform="scale(0.015625)"/>
     </defs>
     <use xlink:href="#DejaVuSans-45"/>
     <use xlink:href="#DejaVuSans-76" x="63.183594"/>
     <use xlink:href="#DejaVuSans-6f" x="122.363281"/>
     <use xlink:href="#DejaVuSans-6c" x="183.544922"/>
     <use xlink:href="#DejaVuSans-75" x="211.328125"/>
     <use xlink:href="#DejaVuSans-74" x="274.707031"/>
     <use xlink:href="#DejaVuSans-69" x="313.916016"/>
     <use xlink:href="#DejaVuSans-6f" x="341.699219"/>
     <use xlink:href="#DejaVuSans-6e" x="402.880859"/>
     <use xlink:href="#DejaVuSans-20" x="466.259766"/>
     <use xlink:href="#DejaVuSans-6f" x="498.046875"/>
     <use xlink:href="#DejaVuSans-66" x="559.228516"/>
     <use xlink:href="#DejaVuSans-20" x="594.433594"/>
     <use xlink:href="#DejaVuSans-72" x="626.220703"/>
     <use xlink:href="#DejaVuSans-65" x="665.083984"/>
     <use xlink:href="#DejaVuSans-77" x="726.607422"/>
     <use xlink:href="#DejaVuSans-61" x="808.394531"/>
     <use xlink:href="#DejaVuSans-72" x="869.673828"/>
     <use xlink:href="#DejaVuSans-64" x="909.037109"/>
     <use xlink:href="#DejaVuSans-73" x="972.513672"/>
     <use xlink:href="#DejaVuSans-20" x="1024.613281"/>
     <use xlink:href="#DejaVuSans-28" x="1056.400391"/>
     <use xlink:href="#DejaVuSans-53" x="1095.414062"/>
     <use xlink:href="#DejaVuSans-41" x="1160.765625"/>
     <use xlink:href="#DejaVuSans-52" x="1229.173828"/>
     <use xlink:href="#DejaVuSans-53" x="1298.65625"/>
     <use xlink:href="#DejaVuSans-41" x="1364.007812"/>
     <use xlink:href="#DejaVuSans-20" x="1432.416016"/>
     <use xlink:href="#DejaVuSans-2d" x="1464.203125"/>
     <use xlink:href="#DejaVuSans-20" x="1500.287109"/>
     <use xlink:href="#DejaVuSans-43" x="1532.074219"/>
     <use xlink:href="#DejaVuSans-6f" x="1601.898438"/>
     <use xlink:href="#DejaVuSans-6e" x="1663.080078"/>
     <use xlink:href="#DejaVuSans-73" x="1726.458984"/>
     <use xlink:href="#DejaVuSans-74" x="1778.558594"/>
     <use xlink:href="#DejaVuSans-61" x="1817.767578"/>
     <use xlink:href="#DejaVuSans-6e" x="1879.046875"/>
     <use xlink:href="#DejaVuSans-74" x="1942.425781"/>
     <use xlink:href="#DejaVuSans-20" x="1981.634766"/>
     <use xlink:href="#DejaVuSans-3b5" x="2013.421875"/>
     <use xlink:href="#DejaVuSans-3d" x="2067.474609"/>
     <use xlink:href="#DejaVuSans-30" x="2151.263672"/>
     <use xlink:href="#DejaVuSans-2e" x="2214.886719"/>
     <use xlink:href="#DejaVuSans-31" x="2246.673828"/>
     <use xlink:href="#DejaVuSans-20" x="2310.296875"/>
     <use xlink:href="#DejaVuSans-28" x="2342.083984"/>
     <use xlink:href="#DejaVuSans-3b3" x="2381.097656"/>
     <use xlink:href="#DejaVuSans-3d" x="2440.277344"/>
     <use xlink:href="#DejaVuSans-30" x="2524.066406"/>
     <use xlink:href="#DejaVuSans-2e" x="2587.689453"/>
     <use xlink:href="#DejaVuSans-39" x="2619.476562"/>
     <use xlink:href="#DejaVuSans-39" x="2683.099609"/>
     <use xlink:href="#DejaVuSans-35" x="2746.722656"/>
     <use xlink:href="#DejaVuSans-29" x="2810.345703"/>
     <use xlink:href="#DejaVuSans-29" x="2849.359375"/>
    </g>
   </g>
  </g>
 </g>
 <defs>
  <clipPath id="p3d41673a4b">
   <rect x="90" y="43.2" width="558" height="277.2"/>
  </clipPath>
 </defs>
</svg>
