<?xml version="1.0" encoding="utf-8" standalone="no"?>
<!DOCTYPE svg PUBLIC "-//W3C//DTD SVG 1.1//EN"
  "http://www.w3.org/Graphics/SVG/1.1/DTD/svg11.dtd">
<svg xmlns:xlink="http://www.w3.org/1999/xlink" width="720pt" height="360pt" viewBox="0 0 720 360" xmlns="http://www.w3.org/2000/svg" version="1.1">
 <metadata>
  <rdf:RDF xmlns:dc="http://purl.org/dc/elements/1.1/" xmlns:cc="http://creativecommons.org/ns#" xmlns:rdf="http://www.w3.org/1999/02/22-rdf-syntax-ns#">
   <cc:Work>
    <dc:type rdf:resource="http://purl.org/dc/dcmitype/StillImage"/>
    <dc:date>2024-03-15T18:20:24.719702</dc:date>
    <dc:format>image/svg+xml</dc:format>
    <dc:creator>
     <cc:Agent>
      <dc:title>Matplotlib v3.7.0, https://matplotlib.org/</dc:title>
     </cc:Agent>
    </dc:creator>
   </cc:Work>
  </rdf:RDF>
 </metadata>
 <defs>
  <style type="text/css">*{stroke-linejoin: round; stroke-linecap: butt}</style>
 </defs>
 <g id="figure_1">
  <g id="patch_1">
   <path d="M 0 360 
L 720 360 
L 720 0 
L 0 0 
z
" style="fill: #ffffff"/>
  </g>
  <g id="axes_1">
   <g id="patch_2">
    <path d="M 90 320.4 
L 648 320.4 
L 648 43.2 
L 90 43.2 
z
" style="fill: #ffffff"/>
   </g>
   <g id="matplotlib.axis_1">
    <g id="xtick_1">
     <g id="line2d_1">
      <defs>
       <path id="m181359ca39" d="M 0 0 
L 0 3.5 
" style="stroke: #000000; stroke-width: 0.8"/>
      </defs>
      <g>
       <use xlink:href="#m181359ca39" x="115.279077" y="320.4" style="stroke: #000000; stroke-width: 0.8"/>
      </g>
     </g>
     <g id="text_1">
      <!-- 0 -->
      <g transform="translate(112.097827 334.998438) scale(0.1 -0.1)">
       <defs>
        <path id="DejaVuSans-30" d="M 2034 4250 
Q 1547 4250 1301 3770 
Q 1056 3291 1056 2328 
Q 1056 1369 1301 889 
Q 1547 409 2034 409 
Q 2525 409 2770 889 
Q 3016 1369 3016 2328 
Q 3016 3291 2770 3770 
Q 2525 4250 2034 4250 
z
M 2034 4750 
Q 2819 4750 3233 4129 
Q 3647 3509 3647 2328 
Q 3647 1150 3233 529 
Q 2819 -91 2034 -91 
Q 1250 -91 836 529 
Q 422 1150 422 2328 
Q 422 3509 836 4129 
Q 1250 4750 2034 4750 
z
" transform="scale(0.015625)"/>
       </defs>
       <use xlink:href="#DejaVuSans-30"/>
      </g>
     </g>
    </g>
    <g id="xtick_2">
     <g id="line2d_2">
      <g>
       <use xlink:href="#m181359ca39" x="199.838625" y="320.4" style="stroke: #000000; stroke-width: 0.8"/>
      </g>
     </g>
     <g id="text_2">
      <!-- 1000 -->
      <g transform="translate(187.113625 334.998438) scale(0.1 -0.1)">
       <defs>
        <path id="DejaVuSans-31" d="M 794 531 
L 1825 531 
L 1825 4091 
L 703 3866 
L 703 4441 
L 1819 4666 
L 2450 4666 
L 2450 531 
L 3481 531 
L 3481 0 
L 794 0 
L 794 531 
z
" transform="scale(0.015625)"/>
       </defs>
       <use xlink:href="#DejaVuSans-31"/>
       <use xlink:href="#DejaVuSans-30" x="63.623047"/>
       <use xlink:href="#DejaVuSans-30" x="127.246094"/>
       <use xlink:href="#DejaVuSans-30" x="190.869141"/>
      </g>
     </g>
    </g>
    <g id="xtick_3">
     <g id="line2d_3">
      <g>
       <use xlink:href="#m181359ca39" x="284.398172" y="320.4" style="stroke: #000000; stroke-width: 0.8"/>
      </g>
     </g>
     <g id="text_3">
      <!-- 2000 -->
      <g transform="translate(271.673172 334.998438) scale(0.1 -0.1)">
       <defs>
        <path id="DejaVuSans-32" d="M 1228 531 
L 3431 531 
L 3431 0 
L 469 0 
L 469 531 
Q 828 903 1448 1529 
Q 2069 2156 2228 2338 
Q 2531 2678 2651 2914 
Q 2772 3150 2772 3378 
Q 2772 3750 2511 3984 
Q 2250 4219 1831 4219 
Q 1534 4219 1204 4116 
Q 875 4013 500 3803 
L 500 4441 
Q 881 4594 1212 4672 
Q 1544 4750 1819 4750 
Q 2544 4750 2975 4387 
Q 3406 4025 3406 3419 
Q 3406 3131 3298 2873 
Q 3191 2616 2906 2266 
Q 2828 2175 2409 1742 
Q 1991 1309 1228 531 
z
" transform="scale(0.015625)"/>
       </defs>
       <use xlink:href="#DejaVuSans-32"/>
       <use xlink:href="#DejaVuSans-30" x="63.623047"/>
       <use xlink:href="#DejaVuSans-30" x="127.246094"/>
       <use xlink:href="#DejaVuSans-30" x="190.869141"/>
      </g>
     </g>
    </g>
    <g id="xtick_4">
     <g id="line2d_4">
      <g>
       <use xlink:href="#m181359ca39" x="368.95772" y="320.4" style="stroke: #000000; stroke-width: 0.8"/>
      </g>
     </g>
     <g id="text_4">
      <!-- 3000 -->
      <g transform="translate(356.23272 334.998438) scale(0.1 -0.1)">
       <defs>
        <path id="DejaVuSans-33" d="M 2597 2516 
Q 3050 2419 3304 2112 
Q 3559 1806 3559 1356 
Q 3559 666 3084 287 
Q 2609 -91 1734 -91 
Q 1441 -91 1130 -33 
Q 819 25 488 141 
L 488 750 
Q 750 597 1062 519 
Q 1375 441 1716 441 
Q 2309 441 2620 675 
Q 2931 909 2931 1356 
Q 2931 1769 2642 2001 
Q 2353 2234 1838 2234 
L 1294 2234 
L 1294 2753 
L 1863 2753 
Q 2328 2753 2575 2939 
Q 2822 3125 2822 3475 
Q 2822 3834 2567 4026 
Q 2313 4219 1838 4219 
Q 1578 4219 1281 4162 
Q 984 4106 628 3988 
L 628 4550 
Q 988 4650 1302 4700 
Q 1616 4750 1894 4750 
Q 2613 4750 3031 4423 
Q 3450 4097 3450 3541 
Q 3450 3153 3228 2886 
Q 3006 2619 2597 2516 
z
" transform="scale(0.015625)"/>
       </defs>
       <use xlink:href="#DejaVuSans-33"/>
       <use xlink:href="#DejaVuSans-30" x="63.623047"/>
       <use xlink:href="#DejaVuSans-30" x="127.246094"/>
       <use xlink:href="#DejaVuSans-30" x="190.869141"/>
      </g>
     </g>
    </g>
    <g id="xtick_5">
     <g id="line2d_5">
      <g>
       <use xlink:href="#m181359ca39" x="453.517268" y="320.4" style="stroke: #000000; stroke-width: 0.8"/>
      </g>
     </g>
     <g id="text_5">
      <!-- 4000 -->
      <g transform="translate(440.792268 334.998438) scale(0.1 -0.1)">
       <defs>
        <path id="DejaVuSans-34" d="M 2419 4116 
L 825 1625 
L 2419 1625 
L 2419 4116 
z
M 2253 4666 
L 3047 4666 
L 3047 1625 
L 3713 1625 
L 3713 1100 
L 3047 1100 
L 3047 0 
L 2419 0 
L 2419 1100 
L 313 1100 
L 313 1709 
L 2253 4666 
z
" transform="scale(0.015625)"/>
       </defs>
       <use xlink:href="#DejaVuSans-34"/>
       <use xlink:href="#DejaVuSans-30" x="63.623047"/>
       <use xlink:href="#DejaVuSans-30" x="127.246094"/>
       <use xlink:href="#DejaVuSans-30" x="190.869141"/>
      </g>
     </g>
    </g>
    <g id="xtick_6">
     <g id="line2d_6">
      <g>
       <use xlink:href="#m181359ca39" x="538.076816" y="320.4" style="stroke: #000000; stroke-width: 0.8"/>
      </g>
     </g>
     <g id="text_6">
      <!-- 5000 -->
      <g transform="translate(525.351816 334.998438) scale(0.1 -0.1)">
       <defs>
        <path id="DejaVuSans-35" d="M 691 4666 
L 3169 4666 
L 3169 4134 
L 1269 4134 
L 1269 2991 
Q 1406 3038 1543 3061 
Q 1681 3084 1819 3084 
Q 2600 3084 3056 2656 
Q 3513 2228 3513 1497 
Q 3513 744 3044 326 
Q 2575 -91 1722 -91 
Q 1428 -91 1123 -41 
Q 819 9 494 109 
L 494 744 
Q 775 591 1075 516 
Q 1375 441 1709 441 
Q 2250 441 2565 725 
Q 2881 1009 2881 1497 
Q 2881 1984 2565 2268 
Q 2250 2553 1709 2553 
Q 1456 2553 1204 2497 
Q 953 2441 691 2322 
L 691 4666 
z
" transform="scale(0.015625)"/>
       </defs>
       <use xlink:href="#DejaVuSans-35"/>
       <use xlink:href="#DejaVuSans-30" x="63.623047"/>
       <use xlink:href="#DejaVuSans-30" x="127.246094"/>
       <use xlink:href="#DejaVuSans-30" x="190.869141"/>
      </g>
     </g>
    </g>
    <g id="xtick_7">
     <g id="line2d_7">
      <g>
       <use xlink:href="#m181359ca39" x="622.636364" y="320.4" style="stroke: #000000; stroke-width: 0.8"/>
      </g>
     </g>
     <g id="text_7">
      <!-- 6000 -->
      <g transform="translate(609.911364 334.998438) scale(0.1 -0.1)">
       <defs>
        <path id="DejaVuSans-36" d="M 2113 2584 
Q 1688 2584 1439 2293 
Q 1191 2003 1191 1497 
Q 1191 994 1439 701 
Q 1688 409 2113 409 
Q 2538 409 2786 701 
Q 3034 994 3034 1497 
Q 3034 2003 2786 2293 
Q 2538 2584 2113 2584 
z
M 3366 4563 
L 3366 3988 
Q 3128 4100 2886 4159 
Q 2644 4219 2406 4219 
Q 1781 4219 1451 3797 
Q 1122 3375 1075 2522 
Q 1259 2794 1537 2939 
Q 1816 3084 2150 3084 
Q 2853 3084 3261 2657 
Q 3669 2231 3669 1497 
Q 3669 778 3244 343 
Q 2819 -91 2113 -91 
Q 1303 -91 875 529 
Q 447 1150 447 2328 
Q 447 3434 972 4092 
Q 1497 4750 2381 4750 
Q 2619 4750 2861 4703 
Q 3103 4656 3366 4563 
z
" transform="scale(0.015625)"/>
       </defs>
       <use xlink:href="#DejaVuSans-36"/>
       <use xlink:href="#DejaVuSans-30" x="63.623047"/>
       <use xlink:href="#DejaVuSans-30" x="127.246094"/>
       <use xlink:href="#DejaVuSans-30" x="190.869141"/>
      </g>
     </g>
    </g>
    <g id="text_8">
     <!-- Time step -->
     <g transform="translate(344.361719 348.676562) scale(0.1 -0.1)">
      <defs>
       <path id="DejaVuSans-54" d="M -19 4666 
L 3928 4666 
L 3928 4134 
L 2272 4134 
L 2272 0 
L 1638 0 
L 1638 4134 
L -19 4134 
L -19 4666 
z
" transform="scale(0.015625)"/>
       <path id="DejaVuSans-69" d="M 603 3500 
L 1178 3500 
L 1178 0 
L 603 0 
L 603 3500 
z
M 603 4863 
L 1178 4863 
L 1178 4134 
L 603 4134 
L 603 4863 
z
" transform="scale(0.015625)"/>
       <path id="DejaVuSans-6d" d="M 3328 2828 
Q 3544 3216 3844 3400 
Q 4144 3584 4550 3584 
Q 5097 3584 5394 3201 
Q 5691 2819 5691 2113 
L 5691 0 
L 5113 0 
L 5113 2094 
Q 5113 2597 4934 2840 
Q 4756 3084 4391 3084 
Q 3944 3084 3684 2787 
Q 3425 2491 3425 1978 
L 3425 0 
L 2847 0 
L 2847 2094 
Q 2847 2600 2669 2842 
Q 2491 3084 2119 3084 
Q 1678 3084 1418 2786 
Q 1159 2488 1159 1978 
L 1159 0 
L 581 0 
L 581 3500 
L 1159 3500 
L 1159 2956 
Q 1356 3278 1631 3431 
Q 1906 3584 2284 3584 
Q 2666 3584 2933 3390 
Q 3200 3197 3328 2828 
z
" transform="scale(0.015625)"/>
       <path id="DejaVuSans-65" d="M 3597 1894 
L 3597 1613 
L 953 1613 
Q 991 1019 1311 708 
Q 1631 397 2203 397 
Q 2534 397 2845 478 
Q 3156 559 3463 722 
L 3463 178 
Q 3153 47 2828 -22 
Q 2503 -91 2169 -91 
Q 1331 -91 842 396 
Q 353 884 353 1716 
Q 353 2575 817 3079 
Q 1281 3584 2069 3584 
Q 2775 3584 3186 3129 
Q 3597 2675 3597 1894 
z
M 3022 2063 
Q 3016 2534 2758 2815 
Q 2500 3097 2075 3097 
Q 1594 3097 1305 2825 
Q 1016 2553 972 2059 
L 3022 2063 
z
" transform="scale(0.015625)"/>
       <path id="DejaVuSans-20" transform="scale(0.015625)"/>
       <path id="DejaVuSans-73" d="M 2834 3397 
L 2834 2853 
Q 2591 2978 2328 3040 
Q 2066 3103 1784 3103 
Q 1356 3103 1142 2972 
Q 928 2841 928 2578 
Q 928 2378 1081 2264 
Q 1234 2150 1697 2047 
L 1894 2003 
Q 2506 1872 2764 1633 
Q 3022 1394 3022 966 
Q 3022 478 2636 193 
Q 2250 -91 1575 -91 
Q 1294 -91 989 -36 
Q 684 19 347 128 
L 347 722 
Q 666 556 975 473 
Q 1284 391 1588 391 
Q 1994 391 2212 530 
Q 2431 669 2431 922 
Q 2431 1156 2273 1281 
Q 2116 1406 1581 1522 
L 1381 1569 
Q 847 1681 609 1914 
Q 372 2147 372 2553 
Q 372 3047 722 3315 
Q 1072 3584 1716 3584 
Q 2034 3584 2315 3537 
Q 2597 3491 2834 3397 
z
" transform="scale(0.015625)"/>
       <path id="DejaVuSans-74" d="M 1172 4494 
L 1172 3500 
L 2356 3500 
L 2356 3053 
L 1172 3053 
L 1172 1153 
Q 1172 725 1289 603 
Q 1406 481 1766 481 
L 2356 481 
L 2356 0 
L 1766 0 
Q 1100 0 847 248 
Q 594 497 594 1153 
L 594 3053 
L 172 3053 
L 172 3500 
L 594 3500 
L 594 4494 
L 1172 4494 
z
" transform="scale(0.015625)"/>
       <path id="DejaVuSans-70" d="M 1159 525 
L 1159 -1331 
L 581 -1331 
L 581 3500 
L 1159 3500 
L 1159 2969 
Q 1341 3281 1617 3432 
Q 1894 3584 2278 3584 
Q 2916 3584 3314 3078 
Q 3713 2572 3713 1747 
Q 3713 922 3314 415 
Q 2916 -91 2278 -91 
Q 1894 -91 1617 61 
Q 1341 213 1159 525 
z
M 3116 1747 
Q 3116 2381 2855 2742 
Q 2594 3103 2138 3103 
Q 1681 3103 1420 2742 
Q 1159 2381 1159 1747 
Q 1159 1113 1420 752 
Q 1681 391 2138 391 
Q 2594 391 2855 752 
Q 3116 1113 3116 1747 
z
" transform="scale(0.015625)"/>
      </defs>
      <use xlink:href="#DejaVuSans-54"/>
      <use xlink:href="#DejaVuSans-69" x="57.958984"/>
      <use xlink:href="#DejaVuSans-6d" x="85.742188"/>
      <use xlink:href="#DejaVuSans-65" x="183.154297"/>
      <use xlink:href="#DejaVuSans-20" x="244.677734"/>
      <use xlink:href="#DejaVuSans-73" x="276.464844"/>
      <use xlink:href="#DejaVuSans-74" x="328.564453"/>
      <use xlink:href="#DejaVuSans-65" x="367.773438"/>
      <use xlink:href="#DejaVuSans-70" x="429.296875"/>
     </g>
    </g>
   </g>
   <g id="matplotlib.axis_2">
    <g id="ytick_1">
     <g id="line2d_8">
      <defs>
       <path id="m47f9e368b3" d="M 0 0 
L -3.5 0 
" style="stroke: #000000; stroke-width: 0.8"/>
      </defs>
      <g>
       <use xlink:href="#m47f9e368b3" x="90" y="307.8" style="stroke: #000000; stroke-width: 0.8"/>
      </g>
     </g>
     <g id="text_9">
      <!-- −1.0 -->
      <g transform="translate(58.717187 311.599219) scale(0.1 -0.1)">
       <defs>
        <path id="DejaVuSans-2212" d="M 678 2272 
L 4684 2272 
L 4684 1741 
L 678 1741 
L 678 2272 
z
" transform="scale(0.015625)"/>
        <path id="DejaVuSans-2e" d="M 684 794 
L 1344 794 
L 1344 0 
L 684 0 
L 684 794 
z
" transform="scale(0.015625)"/>
       </defs>
       <use xlink:href="#DejaVuSans-2212"/>
       <use xlink:href="#DejaVuSans-31" x="83.789062"/>
       <use xlink:href="#DejaVuSans-2e" x="147.412109"/>
       <use xlink:href="#DejaVuSans-30" x="179.199219"/>
      </g>
     </g>
    </g>
    <g id="ytick_2">
     <g id="line2d_9">
      <g>
       <use xlink:href="#m47f9e368b3" x="90" y="257.4" style="stroke: #000000; stroke-width: 0.8"/>
      </g>
     </g>
     <g id="text_10">
      <!-- −0.8 -->
      <g transform="translate(58.717187 261.199219) scale(0.1 -0.1)">
       <defs>
        <path id="DejaVuSans-38" d="M 2034 2216 
Q 1584 2216 1326 1975 
Q 1069 1734 1069 1313 
Q 1069 891 1326 650 
Q 1584 409 2034 409 
Q 2484 409 2743 651 
Q 3003 894 3003 1313 
Q 3003 1734 2745 1975 
Q 2488 2216 2034 2216 
z
M 1403 2484 
Q 997 2584 770 2862 
Q 544 3141 544 3541 
Q 544 4100 942 4425 
Q 1341 4750 2034 4750 
Q 2731 4750 3128 4425 
Q 3525 4100 3525 3541 
Q 3525 3141 3298 2862 
Q 3072 2584 2669 2484 
Q 3125 2378 3379 2068 
Q 3634 1759 3634 1313 
Q 3634 634 3220 271 
Q 2806 -91 2034 -91 
Q 1263 -91 848 271 
Q 434 634 434 1313 
Q 434 1759 690 2068 
Q 947 2378 1403 2484 
z
M 1172 3481 
Q 1172 3119 1398 2916 
Q 1625 2713 2034 2713 
Q 2441 2713 2670 2916 
Q 2900 3119 2900 3481 
Q 2900 3844 2670 4047 
Q 2441 4250 2034 4250 
Q 1625 4250 1398 4047 
Q 1172 3844 1172 3481 
z
" transform="scale(0.015625)"/>
       </defs>
       <use xlink:href="#DejaVuSans-2212"/>
       <use xlink:href="#DejaVuSans-30" x="83.789062"/>
       <use xlink:href="#DejaVuSans-2e" x="147.412109"/>
       <use xlink:href="#DejaVuSans-38" x="179.199219"/>
      </g>
     </g>
    </g>
    <g id="ytick_3">
     <g id="line2d_10">
      <g>
       <use xlink:href="#m47f9e368b3" x="90" y="207" style="stroke: #000000; stroke-width: 0.8"/>
      </g>
     </g>
     <g id="text_11">
      <!-- −0.6 -->
      <g transform="translate(58.717187 210.799219) scale(0.1 -0.1)">
       <use xlink:href="#DejaVuSans-2212"/>
       <use xlink:href="#DejaVuSans-30" x="83.789062"/>
       <use xlink:href="#DejaVuSans-2e" x="147.412109"/>
       <use xlink:href="#DejaVuSans-36" x="179.199219"/>
      </g>
     </g>
    </g>
    <g id="ytick_4">
     <g id="line2d_11">
      <g>
       <use xlink:href="#m47f9e368b3" x="90" y="156.6" style="stroke: #000000; stroke-width: 0.8"/>
      </g>
     </g>
     <g id="text_12">
      <!-- −0.4 -->
      <g transform="translate(58.717187 160.399219) scale(0.1 -0.1)">
       <use xlink:href="#DejaVuSans-2212"/>
       <use xlink:href="#DejaVuSans-30" x="83.789062"/>
       <use xlink:href="#DejaVuSans-2e" x="147.412109"/>
       <use xlink:href="#DejaVuSans-34" x="179.199219"/>
      </g>
     </g>
    </g>
    <g id="ytick_5">
     <g id="line2d_12">
      <g>
       <use xlink:href="#m47f9e368b3" x="90" y="106.2" style="stroke: #000000; stroke-width: 0.8"/>
      </g>
     </g>
     <g id="text_13">
      <!-- −0.2 -->
      <g transform="translate(58.717187 109.999219) scale(0.1 -0.1)">
       <use xlink:href="#DejaVuSans-2212"/>
       <use xlink:href="#DejaVuSans-30" x="83.789062"/>
       <use xlink:href="#DejaVuSans-2e" x="147.412109"/>
       <use xlink:href="#DejaVuSans-32" x="179.199219"/>
      </g>
     </g>
    </g>
    <g id="ytick_6">
     <g id="line2d_13">
      <g>
       <use xlink:href="#m47f9e368b3" x="90" y="55.8" style="stroke: #000000; stroke-width: 0.8"/>
      </g>
     </g>
     <g id="text_14">
      <!-- 0.0 -->
      <g transform="translate(67.096875 59.599219) scale(0.1 -0.1)">
       <use xlink:href="#DejaVuSans-30"/>
       <use xlink:href="#DejaVuSans-2e" x="63.623047"/>
       <use xlink:href="#DejaVuSans-30" x="95.410156"/>
      </g>
     </g>
    </g>
    <g id="text_15">
     <!-- Average reward -->
     <g transform="translate(52.6375 221.236719) rotate(-90) scale(0.1 -0.1)">
      <defs>
       <path id="DejaVuSans-41" d="M 2188 4044 
L 1331 1722 
L 3047 1722 
L 2188 4044 
z
M 1831 4666 
L 2547 4666 
L 4325 0 
L 3669 0 
L 3244 1197 
L 1141 1197 
L 716 0 
L 50 0 
L 1831 4666 
z
" transform="scale(0.015625)"/>
       <path id="DejaVuSans-76" d="M 191 3500 
L 800 3500 
L 1894 563 
L 2988 3500 
L 3597 3500 
L 2284 0 
L 1503 0 
L 191 3500 
z
" transform="scale(0.015625)"/>
       <path id="DejaVuSans-72" d="M 2631 2963 
Q 2534 3019 2420 3045 
Q 2306 3072 2169 3072 
Q 1681 3072 1420 2755 
Q 1159 2438 1159 1844 
L 1159 0 
L 581 0 
L 581 3500 
L 1159 3500 
L 1159 2956 
Q 1341 3275 1631 3429 
Q 1922 3584 2338 3584 
Q 2397 3584 2469 3576 
Q 2541 3569 2628 3553 
L 2631 2963 
z
" transform="scale(0.015625)"/>
       <path id="DejaVuSans-61" d="M 2194 1759 
Q 1497 1759 1228 1600 
Q 959 1441 959 1056 
Q 959 750 1161 570 
Q 1363 391 1709 391 
Q 2188 391 2477 730 
Q 2766 1069 2766 1631 
L 2766 1759 
L 2194 1759 
z
M 3341 1997 
L 3341 0 
L 2766 0 
L 2766 531 
Q 2569 213 2275 61 
Q 1981 -91 1556 -91 
Q 1019 -91 701 211 
Q 384 513 384 1019 
Q 384 1609 779 1909 
Q 1175 2209 1959 2209 
L 2766 2209 
L 2766 2266 
Q 2766 2663 2505 2880 
Q 2244 3097 1772 3097 
Q 1472 3097 1187 3025 
Q 903 2953 641 2809 
L 641 3341 
Q 956 3463 1253 3523 
Q 1550 3584 1831 3584 
Q 2591 3584 2966 3190 
Q 3341 2797 3341 1997 
z
" transform="scale(0.015625)"/>
       <path id="DejaVuSans-67" d="M 2906 1791 
Q 2906 2416 2648 2759 
Q 2391 3103 1925 3103 
Q 1463 3103 1205 2759 
Q 947 2416 947 1791 
Q 947 1169 1205 825 
Q 1463 481 1925 481 
Q 2391 481 2648 825 
Q 2906 1169 2906 1791 
z
M 3481 434 
Q 3481 -459 3084 -895 
Q 2688 -1331 1869 -1331 
Q 1566 -1331 1297 -1286 
Q 1028 -1241 775 -1147 
L 775 -588 
Q 1028 -725 1275 -790 
Q 1522 -856 1778 -856 
Q 2344 -856 2625 -561 
Q 2906 -266 2906 331 
L 2906 616 
Q 2728 306 2450 153 
Q 2172 0 1784 0 
Q 1141 0 747 490 
Q 353 981 353 1791 
Q 353 2603 747 3093 
Q 1141 3584 1784 3584 
Q 2172 3584 2450 3431 
Q 2728 3278 2906 2969 
L 2906 3500 
L 3481 3500 
L 3481 434 
z
" transform="scale(0.015625)"/>
       <path id="DejaVuSans-77" d="M 269 3500 
L 844 3500 
L 1563 769 
L 2278 3500 
L 2956 3500 
L 3675 769 
L 4391 3500 
L 4966 3500 
L 4050 0 
L 3372 0 
L 2619 2869 
L 1863 0 
L 1184 0 
L 269 3500 
z
" transform="scale(0.015625)"/>
       <path id="DejaVuSans-64" d="M 2906 2969 
L 2906 4863 
L 3481 4863 
L 3481 0 
L 2906 0 
L 2906 525 
Q 2725 213 2448 61 
Q 2172 -91 1784 -91 
Q 1150 -91 751 415 
Q 353 922 353 1747 
Q 353 2572 751 3078 
Q 1150 3584 1784 3584 
Q 2172 3584 2448 3432 
Q 2725 3281 2906 2969 
z
M 947 1747 
Q 947 1113 1208 752 
Q 1469 391 1925 391 
Q 2381 391 2643 752 
Q 2906 1113 2906 1747 
Q 2906 2381 2643 2742 
Q 2381 3103 1925 3103 
Q 1469 3103 1208 2742 
Q 947 2381 947 1747 
z
" transform="scale(0.015625)"/>
      </defs>
      <use xlink:href="#DejaVuSans-41"/>
      <use xlink:href="#DejaVuSans-76" x="62.533203"/>
      <use xlink:href="#DejaVuSans-65" x="121.712891"/>
      <use xlink:href="#DejaVuSans-72" x="183.236328"/>
      <use xlink:href="#DejaVuSans-61" x="224.349609"/>
      <use xlink:href="#DejaVuSans-67" x="285.628906"/>
      <use xlink:href="#DejaVuSans-65" x="349.105469"/>
      <use xlink:href="#DejaVuSans-20" x="410.628906"/>
      <use xlink:href="#DejaVuSans-72" x="442.416016"/>
      <use xlink:href="#DejaVuSans-65" x="481.279297"/>
      <use xlink:href="#DejaVuSans-77" x="542.802734"/>
      <use xlink:href="#DejaVuSans-61" x="624.589844"/>
      <use xlink:href="#DejaVuSans-72" x="685.869141"/>
      <use xlink:href="#DejaVuSans-64" x="725.232422"/>
     </g>
    </g>
   </g>
   <g id="line2d_14">
    <path d="M 115.363636 55.8 
L 622.636364 55.8 
L 622.636364 55.8 
" clip-path="url(#p8eaa1f99b1)" style="fill: none; stroke-dasharray: 5.55,2.4; stroke-dashoffset: 0; stroke: #1f77b4; stroke-width: 1.5"/>
   </g>
   <g id="line2d_15">
    <path d="M 115.363636 307.8 
L 115.532755 139.8 
L 115.617315 118.8 
L 115.701875 207 
L 115.786434 181.8 
L 115.870994 235.8 
L 116.209232 170.345455 
L 116.63203 134.55 
L 117.054827 115.8 
L 117.139387 113.072727 
L 117.223946 121.53913 
L 117.562185 111.8 
L 117.731304 99.248276 
L 118.069542 93.981818 
L 118.238661 84.6 
L 118.40778 110.286486 
L 118.49234 108.852632 
L 118.746018 104.970732 
L 118.830578 115.8 
L 118.915137 114.404651 
L 119.591614 105.211765 
L 120.35265 97.8 
L 121.029126 92.858824 
L 121.113686 99.626087 
L 121.198245 99 
L 122.043841 93.6 
L 122.889436 89.4 
L 123.058555 99.626087 
L 123.143115 99.154839 
L 124.157829 94.2 
L 124.496068 92.790826 
L 124.580627 97.036364 
L 124.665187 96.664865 
L 124.918865 95.589474 
L 125.003425 99.626087 
L 125.087984 99.248276 
L 125.341663 98.152941 
L 125.426223 102 
L 125.510782 101.618182 
L 125.93358 99.8 
L 126.018139 103.422047 
L 126.102699 103.05 
L 126.440937 101.618182 
L 126.525497 105.063158 
L 126.610056 104.695522 
L 126.694616 104.333333 
L 126.779175 107.682353 
L 126.863735 107.30365 
L 127.540211 104.462069 
L 127.624771 107.580822 
L 127.70933 107.228571 
L 128.639485 103.648101 
L 128.808604 101.475 
L 128.977724 107.133333 
L 129.062283 106.818405 
L 129.400521 105.596407 
L 129.738759 100.010526 
L 129.907879 99.499422 
L 129.992438 102.144828 
L 130.076998 101.88 
L 130.922593 99.389189 
L 131.345391 92.936842 
L 131.683629 92.171134 
L 131.852748 90.514286 
L 131.937308 90.338071 
L 132.190986 87.3 
L 132.444665 86.834483 
L 132.529225 81.741176 
L 132.613784 84.073171 
L 132.698344 83.935922 
L 132.782903 85.017391 
L 132.867463 84.876923 
L 133.205701 80.762264 
L 133.37482 75.818692 
L 134.135856 75.010762 
L 134.220416 73.8 
L 134.304975 75.96 
L 134.389535 75.870796 
L 134.896892 75.351724 
L 134.981451 77.430901 
L 135.066011 77.338462 
L 135.573368 76.8 
L 135.742487 75.585124 
L 136.334404 75.028916 
L 136.418964 76.968 
L 136.503523 76.883665 
L 136.672642 76.716996 
L 136.757202 78.618898 
L 136.841762 78.529412 
L 137.010881 78.352529 
L 137.09544 80.218605 
L 137.18 80.124324 
L 137.264559 80.030769 
L 137.433678 78.883969 
L 137.602797 78.709091 
L 137.771917 77.589474 
L 138.025595 77.346468 
L 138.194714 76.257565 
L 138.279274 76.182353 
L 138.448393 75.113869 
L 139.04031 74.63274 
L 139.293988 72.659155 
L 139.885905 72.253608 
L 140.224143 69.467797 
L 141.069739 69.019672 
L 141.154298 70.623529 
L 141.238858 70.575244 
L 142.253573 70.019436 
L 142.422692 69.145794 
L 142.507251 70.669565 
L 142.591811 70.623529 
L 143.183728 70.309091 
L 143.268287 71.787915 
L 143.352847 71.739759 
L 143.606525 71.597015 
L 143.691085 73.05 
L 143.775644 72.998813 
L 144.874919 72.36 
L 144.959478 73.748718 
L 145.044038 73.697727 
L 145.466835 73.447059 
L 145.720514 76.1 
L 146.48155 75.604878 
L 146.650669 74.818868 
L 147.073467 74.565957 
L 147.158026 75.85305 
L 147.242586 75.8 
L 148.003622 75.334884 
L 148.088181 76.583505 
L 148.172741 76.530077 
L 148.34186 75.77954 
L 149.863932 74.900244 
L 149.948491 76.082927 
L 150.033051 76.033577 
L 150.794087 75.6 
L 150.878646 76.750119 
L 150.963206 76.700474 
L 152.992635 75.575785 
L 153.161754 74.925 
L 153.415433 74.797783 
L 153.584552 79.164238 
L 153.669112 79.112775 
L 153.838231 78.457895 
L 154.00735 78.358952 
L 154.091909 78.858824 
L 154.176469 80.452174 
L 154.430147 88.456587 
L 154.852945 99.415385 
L 155.022064 100.302128 
L 155.106624 100.207643 
L 155.613981 99.649057 
L 155.86766 100.95 
L 156.121338 106.408696 
L 156.290458 107.239175 
L 156.544136 116.218033 
L 156.628696 116.094479 
L 156.713255 116.485714 
L 156.797815 118.415071 
L 156.882374 118.287805 
L 157.051493 119.055061 
L 157.136053 118.927273 
L 157.305172 119.687324 
L 157.389732 119.559036 
L 157.72797 119.050996 
L 157.981648 121.669307 
L 158.066208 121.53913 
L 158.404446 121.023529 
L 158.573565 120.276562 
L 158.827244 119.900971 
L 158.996363 119.165571 
L 159.080923 119.52973 
L 159.165482 119.406936 
L 159.841959 118.441366 
L 160.011078 117.728166 
L 160.941233 116.466667 
L 161.194911 117.523757 
L 161.36403 120.533945 
L 162.209626 119.367568 
L 162.294185 120.159712 
L 162.378745 120.044165 
L 162.886102 119.359503 
L 163.055221 118.242478 
L 163.22434 118.022222 
L 163.478019 119.463158 
L 163.562579 119.351664 
L 163.731698 118.690052 
L 164.154495 118.146021 
L 164.239055 119.344041 
L 164.323615 119.234483 
L 164.577293 118.908062 
L 164.830972 122.885324 
L 165.08465 125.53854 
L 165.16921 125.420339 
L 165.25377 125.302538 
L 165.507448 126.648485 
L 165.592008 126.529412 
L 165.676567 128.524832 
L 165.845686 137.131104 
L 165.930246 137.416027 
L 166.268484 143.143284 
L 166.353044 142.581457 
L 166.522163 146.453465 
L 166.606722 145.888962 
L 166.691282 146.155263 
L 166.860401 147.92459 
L 166.944961 148.186252 
L 167.367758 156.436364 
L 167.452318 156.273258 
L 167.621437 155.948627 
L 167.790556 155.22029 
L 167.875116 155.87074 
L 167.959675 155.710112 
L 168.297913 155.072727 
L 168.382473 155.717197 
L 168.467032 155.558347 
L 169.143509 154.305495 
L 169.228068 154.941066 
L 169.312628 157.152113 
L 169.397187 156.99375 
L 169.566307 156.678505 
L 169.650866 157.305443 
L 169.735426 157.147826 
L 169.989104 155.898918 
L 170.496462 154.979173 
L 170.581021 155.598165 
L 170.665581 155.445802 
L 170.919259 154.991489 
L 171.003819 155.223369 
L 171.426617 154.474699 
L 171.511176 155.084211 
L 171.595736 154.556757 
L 171.680295 155.164318 
L 171.933974 153.967164 
L 172.103093 155.55 
L 172.187652 155.401783 
L 172.525891 154.813294 
L 172.61045 155.038938 
L 172.864129 154.601762 
L 172.948688 155.195894 
L 173.033248 155.050366 
L 173.117808 154.905263 
L 173.286927 153.881633 
L 174.132522 152.472414 
L 174.217082 152.695265 
L 175.739153 150.255944 
L 175.908273 151.046862 
L 175.992832 150.914206 
L 176.077392 151.83338 
L 176.246511 155.062136 
L 176.33107 155.273684 
L 176.41563 158.621577 
L 176.500189 158.479558 
L 176.584749 157.990345 
L 176.838428 162.761538 
L 176.922987 162.960494 
L 177.007547 162.813699 
L 177.092106 163.701505 
L 177.176666 163.554098 
L 177.261225 163.407094 
L 177.684023 168.482927 
L 177.768583 168.330447 
L 178.445059 167.125301 
L 178.614178 167.500935 
L 178.698738 168.024 
L 178.783297 167.874567 
L 179.459774 166.693281 
L 179.544333 166.215789 
L 179.713452 166.587402 
L 179.882571 167.616754 
L 179.967131 170.764706 
L 180.05169 170.614621 
L 180.22081 170.315625 
L 180.474488 171.50428 
L 180.559048 173.965803 
L 180.643607 173.812937 
L 180.897286 173.356701 
L 181.066405 172.730591 
L 181.150965 172.580488 
L 181.235524 173.076923 
L 181.320084 172.926761 
L 181.99656 171.739163 
L 182.250239 170.663636 
L 182.334798 170.518789 
L 182.419358 171.009068 
L 182.842156 177.542178 
L 182.926715 177.705 
L 183.011275 178.811236 
L 183.095834 178.657855 
L 183.180394 178.504857 
L 183.603191 181.8 
L 183.687751 181.955748 
L 183.772311 181.8 
L 183.85687 181.955364 
L 184.702466 180.418758 
L 185.125263 178.444068 
L 185.209823 178.295768 
L 185.378942 177.696261 
L 186.055418 176.531183 
L 186.139978 176.687828 
L 186.309097 179.4 
L 186.393657 179.253032 
L 186.562776 178.66121 
L 186.647335 178.51564 
L 186.731895 178.966864 
L 186.816454 178.821277 
L 187.492931 177.668852 
L 187.57749 177.821053 
L 187.746609 177.24224 
L 188.000288 176.818605 
L 188.084847 176.970732 
L 188.169407 177.999536 
L 188.253967 177.857937 
L 188.338526 178.3 
L 188.423086 178.158382 
L 188.592205 177.876125 
L 188.676764 178.025806 
L 188.845883 178.903448 
L 188.930443 178.762113 
L 189.015003 178.910092 
L 189.099562 180.212371 
L 189.353241 179.210959 
L 189.606919 181.083276 
L 189.776038 185.94756 
L 190.029717 187.21629 
L 190.367955 193.718919 
L 190.537074 201.903371 
L 190.621634 202.870707 
L 190.706193 205.813453 
L 190.790753 205.36327 
L 191.213551 204.530512 
L 191.29811 204.925695 
L 191.38267 204.76 
L 191.551789 205.826608 
L 191.636348 206.776744 
L 191.720908 206.609735 
L 192.143706 205.780198 
L 192.228265 206.169231 
L 192.397384 205.839474 
L 192.651063 205.072131 
L 192.735623 204.90917 
L 192.989301 204.148205 
L 193.581218 203.026782 
L 193.665778 203.41165 
L 193.919456 202.935484 
L 194.004016 203.04812 
L 194.342254 202.418182 
L 194.595933 201.680597 
L 194.680492 201.52524 
L 194.934171 200.793631 
L 195.356969 200.028089 
L 195.526088 199.193045 
L 195.610647 199.572632 
L 195.864326 199.120042 
L 195.948885 199.498113 
L 196.625362 198.303119 
L 196.709921 198.678505 
L 199.331267 194.222535 
L 199.500386 194.956627 
L 199.584946 194.817051 
L 199.669506 195.182766 
L 199.754065 195.043243 
L 199.838625 195.156 
L 200.345982 203.092247 
L 200.430541 203.696723 
L 200.515101 203.55 
L 201.107018 202.531034 
L 201.191577 202.634646 
L 201.276137 202.985841 
L 201.529816 202.305882 
L 201.868054 201.733594 
L 202.121732 201.061928 
L 202.375411 200.638835 
L 202.459971 200.987197 
L 203.051887 200.008092 
L 203.136447 200.354379 
L 204.658519 197.654305 
L 204.743078 198.234783 
L 204.827638 198.100283 
L 205.673233 196.76913 
L 205.842353 198.152941 
L 205.926912 198.490299 
L 206.011472 198.357316 
L 206.180591 204.421395 
L 206.26515 204.283271 
L 206.34971 204.847354 
L 206.603388 208.166667 
L 206.687948 208.258834 
L 207.026186 207.696774 
L 207.110746 208.020994 
L 207.279865 207.741176 
L 207.533543 207.092392 
L 208.548258 205.446419 
L 208.717377 206.087783 
L 208.971056 208.182671 
L 209.055615 208.045266 
L 209.140175 208.135135 
L 210.07033 213.833898 
L 210.324009 213.4121 
L 210.493128 214.027353 
L 211.507842 212.137434 
L 211.676961 213.410526 
L 211.761521 213.272393 
L 211.84608 213.355166 
L 212.0152 213.960839 
L 212.353438 213.409756 
L 212.437997 213.711227 
L 212.607116 213.436838 
L 212.691676 213.51875 
L 212.945355 212.890909 
L 214.721105 210.085714 
L 215.059343 212.125424 
L 215.482141 211.465823 
L 215.73582 211.709091 
L 215.820379 212.425736 
L 215.904939 212.294118 
L 216.074058 212.031544 
L 216.243177 212.19196 
L 216.750534 211.41 
L 217.004213 212.907232 
L 217.088772 212.776744 
L 217.680689 211.869364 
L 217.765249 211.948515 
L 218.188046 217.311915 
L 218.272606 217.8 
L 218.441725 221.045902 
L 218.949082 220.031648 
L 219.118202 219.558958 
L 219.202761 219.835801 
L 219.37188 219.569293 
L 219.45644 220.05 
L 219.625559 223.255429 
L 219.710118 223.323887 
L 219.794678 223.596117 
L 220.048357 227.054237 
L 220.893952 225.683106 
L 220.978512 225.9504 
L 221.23219 225.341899 
L 221.908667 224.066455 
L 222.077786 224.19905 
L 222.669703 223.270866 
L 222.838822 224.592453 
L 222.923381 224.855774 
L 223.0925 224.590588 
L 223.17706 224.853292 
L 224.107215 223.408392 
L 224.191774 223.669565 
L 224.445453 223.279473 
L 224.530013 223.539938 
L 225.291049 222.379554 
L 225.375608 222.832258 
L 225.460168 222.704068 
L 225.629287 222.448276 
L 225.713846 222.706585 
L 226.559442 221.246809 
L 226.728561 220.804552 
L 226.81312 221.061562 
L 226.89768 220.936364 
L 226.982239 221.192884 
L 227.320478 220.693585 
L 227.405037 220.949321 
L 227.658716 220.576524 
L 227.743275 220.831579 
L 227.827835 220.518257 
L 227.912394 220.772973 
L 228.67343 219.665772 
L 228.75799 219.731446 
L 228.927109 219.8625 
L 229.011669 221.052045 
L 229.096228 220.929272 
L 229.180788 220.993764 
L 229.349907 220.748851 
L 229.434466 220.813333 
L 230.195502 233.256954 
L 230.280062 233.126471 
L 230.787419 232.347584 
L 230.871979 233.324506 
L 230.956538 233.194737 
L 231.125657 233.671533 
L 231.463895 233.337118 
L 231.548455 233.574545 
L 231.633015 233.445349 
L 231.717574 234.231373 
L 231.802134 234.101887 
L 232.56317 232.944917 
L 232.647729 233.180403 
L 233.662444 231.84 
L 233.747003 232.07409 
L 235.438194 229.593103 
L 235.522754 229.648101 
L 235.607313 229.525931 
L 235.691873 229.757865 
L 235.945552 229.215557 
L 236.030111 229.623529 
L 236.28379 232.428931 
L 236.537468 232.586611 
L 236.706587 232.34039 
L 236.875707 232.620584 
L 238.651457 229.90281 
L 238.820576 231.389322 
L 238.905136 231.26922 
L 238.989695 231.49378 
L 239.497053 230.776174 
L 239.581612 231 
L 239.750731 230.761957 
L 240.00441 231.260339 
L 240.088969 231.312195 
L 240.173529 231.193365 
L 240.342648 232.31927 
L 240.427208 232.2 
L 243.302232 228.072127 
L 243.386792 228.291089 
L 243.555911 229.392617 
L 243.64047 229.444269 
L 243.809589 229.878947 
L 243.978709 229.815769 
L 244.232387 231.456393 
L 244.316947 231.341284 
L 244.401506 231.556385 
L 244.570625 231.491302 
L 244.655185 231.705882 
L 245.162542 231.01875 
L 245.247102 231.232661 
L 245.331661 231.118596 
L 245.416221 231.332164 
L 245.58534 231.267878 
L 245.754459 232.510305 
L 245.839019 232.395855 
L 245.923578 232.607767 
L 246.008138 233.634411 
L 246.092697 233.519457 
L 246.430935 233.061122 
L 246.515495 233.271649 
L 246.853733 232.977378 
L 246.938293 233.025434 
L 247.022852 232.911682 
L 247.276531 233.701345 
L 247.36109 234.39411 
L 247.44565 234.279846 
L 247.53021 234.326854 
L 247.868448 236.282143 
L 247.953007 236.80956 
L 248.037567 236.694268 
L 248.122126 236.739529 
L 249.221401 235.095455 
L 249.475079 234.597732 
L 249.897877 234.036181 
L 250.066996 234.761104 
L 250.236115 236.115789 
L 250.489794 235.777486 
L 250.574353 235.98 
L 251.419949 234.86087 
L 251.504508 235.06257 
L 251.758187 234.885502 
L 252.180985 236.978505 
L 252.350104 236.910426 
L 252.434663 237.264858 
L 252.519223 239.016266 
L 252.603782 238.903448 
L 252.688342 238.790769 
L 252.857461 239.030486 
L 252.942021 239.691892 
L 253.02658 239.579006 
L 253.449378 240.867319 
L 253.618497 242.797555 
L 253.787616 243.338462 
L 254.379533 242.540426 
L 254.548652 243.078689 
L 254.633212 243.270874 
L 254.88689 245.37238 
L 255.056009 246.057713 
L 255.225128 245.523263 
L 255.309688 245.713043 
L 255.563367 245.065823 
L 255.647926 245.255422 
L 256.239843 244.459868 
L 256.324403 244.648921 
L 257.508236 243.077051 
L 257.592796 243.265241 
L 257.761915 243.04273 
L 257.846474 243.230605 
L 258.269272 242.676404 
L 258.353832 242.86383 
L 258.945749 242.241436 
L 259.030308 242.428235 
L 259.791344 241.445407 
L 259.960463 241.817534 
L 262.32813 238.677516 
L 262.49725 239.625388 
L 262.581809 239.519862 
L 262.666369 243.028916 
L 262.750928 242.92156 
L 263.173726 242.386621 
L 263.258285 242.568 
L 264.695798 240.913752 
L 264.780357 241.236652 
L 264.864917 241.131826 
L 264.949476 241.169492 
L 265.203155 241.708629 
L 265.287715 241.745885 
L 265.372274 241.641127 
L 265.541393 241.8574 
L 265.710512 243.064755 
L 265.795072 243.101124 
L 265.879631 243.420438 
L 265.964191 243.315152 
L 266.302429 242.895185 
L 266.386989 243.354561 
L 266.471548 243.249664 
L 267.99362 241.24186 
L 268.247299 243.999005 
L 268.331858 243.895028 
L 268.839216 243.134802 
L 269.092894 242.687301 
L 269.85393 241.767177 
L 269.93849 241.941061 
L 270.868645 240.828261 
L 271.122323 242.441346 
L 271.291443 242.37561 
L 271.376002 242.547562 
L 271.460562 242.310016 
L 271.545121 242.481818 
L 271.7988 242.043112 
L 271.883359 242.214687 
L 272.306157 241.712763 
L 272.390717 242.155221 
L 272.475276 243.817214 
L 272.559836 243.716129 
L 273.828229 242.0784 
L 273.912788 242.785075 
L 273.997348 242.685456 
L 274.081908 242.720128 
L 274.166467 242.620649 
L 274.589265 248.812739 
L 276.534134 246.61699 
L 276.618694 246.781132 
L 277.717968 245.488704 
L 277.802528 245.652237 
L 278.394445 245.093935 
L 278.563564 245.550388 
L 278.648123 245.582609 
L 278.986361 246.101653 
L 279.916516 245.026502 
L 280.085635 246.513186 
L 280.254755 248.125987 
L 280.423874 248.316129 
L 280.508433 248.346571 
L 280.592993 248.248082 
L 280.677552 248.536196 
L 280.931231 250.685145 
L 281.015791 250.585714 
L 281.10035 250.743396 
L 281.861386 249.980711 
L 282.453303 252.479818 
L 282.537862 252.507786 
L 282.791541 254.372438 
L 282.876101 254.907972 
L 282.96066 254.807564 
L 283.04522 254.707258 
L 283.129779 254.860957 
L 283.721696 254.161446 
L 283.806256 254.314802 
L 283.890815 254.215246 
L 283.975375 254.368421 
L 284.059934 254.142685 
L 284.229053 254.322523 
L 285.159208 253.360976 
L 285.328327 253.665738 
L 285.497447 254.345455 
L 285.582006 254.246872 
L 286.173923 256.302721 
L 286.258482 256.203561 
L 286.934959 255.413793 
L 287.019518 255.563663 
L 288.710709 253.738567 
L 288.795269 253.764912 
L 288.964388 254.185589 
L 289.218067 254.631308 
L 289.302626 254.779592 
L 289.979103 254.0091 
L 290.063662 254.157039 
L 290.148222 254.061122 
L 290.232781 254.208893 
L 290.571019 253.826049 
L 290.655579 253.973578 
L 292.177651 252.38891 
L 292.26221 252.535786 
L 292.515889 252.133969 
L 294.12252 250.489362 
L 294.20708 250.516446 
L 294.460759 250.12185 
L 296.574747 247.973507 
L 296.659307 248.001399 
L 296.912985 247.732961 
L 296.997545 247.409121 
L 297.082105 247.437209 
L 297.166664 247.465272 
L 297.251224 247.142007 
L 297.335783 247.287227 
L 297.504902 247.109513 
L 297.674021 247.983588 
L 297.843141 247.805558 
L 298.857855 246.860341 
L 299.280653 248.969118 
L 299.365212 248.880386 
L 299.449772 249.138843 
L 299.534331 249.050115 
L 299.78801 248.899908 
L 301.140963 254.373248 
L 301.479201 254.355858 
L 302.324797 253.572152 
L 302.409356 255.418617 
L 302.493916 255.328455 
L 302.663035 255.489531 
L 302.832154 255.991163 
L 302.916713 255.900946 
L 303.001273 256.037838 
L 304.100547 254.759248 
L 304.354226 254.379606 
L 304.438785 254.516138 
L 305.538059 253.256 
L 305.622619 253.056331 
L 305.707178 253.19254 
L 305.791738 253.104927 
L 305.876298 253.240994 
L 306.129976 252.866903 
L 306.806453 252.059603 
L 307.060131 251.688889 
L 308.582203 250.03622 
L 308.666763 250.281854 
L 308.751322 250.196853 
L 309.08956 249.857592 
L 309.17412 249.992761 
L 309.427799 249.629268 
L 309.935156 249.124066 
L 310.019715 249.477812 
L 310.104275 249.39375 
L 310.188835 249.528416 
L 311.288109 248.333218 
L 311.541787 247.758639 
L 311.626347 247.893023 
L 312.725621 246.931478 
L 313.063859 249.298076 
L 313.148419 249.323077 
L 313.486657 252.325597 
L 313.655776 253.876726 
L 313.994014 254.826383 
L 314.078574 254.741727 
L 314.163133 254.871429 
L 314.247693 254.786825 
L 314.670491 256.181679 
L 318.137432 252.757065 
L 318.391111 253.5602 
L 318.47567 253.792509 
L 318.56023 253.71015 
L 319.574944 252.831457 
L 319.744063 253.189578 
L 319.828623 253.107979 
L 319.997742 253.465428 
L 320.505099 253.080593 
L 320.589659 253.206919 
L 321.266135 252.662069 
L 321.350695 252.684694 
L 321.688933 253.704138 
L 321.773493 253.623096 
L 322.872767 252.472912 
L 323.041886 253.54359 
L 324.225719 252.321246 
L 324.394839 252.569915 
L 324.563958 252.410909 
L 324.648517 252.738611 
L 324.733077 252.659104 
L 324.902196 252.500282 
L 325.071315 252.748005 
L 326.931625 250.91626 
L 327.016185 251.039617 
L 327.185304 251.688268 
L 327.269863 251.610132 
L 327.354423 251.733014 
L 327.438982 251.654922 
L 327.523542 251.777689 
L 327.692661 251.621656 
L 327.77722 251.74429 
L 328.791935 250.813069 
L 328.876495 250.935392 
L 329.130173 250.60427 
L 329.214733 250.527273 
L 329.468411 251.192025 
L 329.552971 251.114917 
L 329.63753 251.733728 
L 329.72209 251.656467 
L 330.314007 254.982068 
L 330.567686 257.221838 
L 330.652245 259.022615 
L 330.736805 258.942857 
L 331.5824 258.14871 
L 331.751519 258.384375 
L 331.836079 258.305271 
L 332.005198 259.130472 
L 332.174317 259.266667 
L 332.258876 259.481995 
L 332.343436 259.402649 
L 333.865508 257.984913 
L 333.950067 258.101624 
L 334.119187 257.945286 
L 334.203746 258.061877 
L 335.979497 256.337931 
L 336.402294 255.665392 
L 337.16333 254.883841 
L 337.417009 254.560563 
L 337.501568 254.484932 
L 337.755247 255.695097 
L 338.178045 256.463126 
L 338.347164 257.743897 
L 338.600843 257.60992 
L 339.02364 257.609524 
L 339.277319 257.285844 
L 339.953795 256.584343 
L 340.122914 257.475818 
L 340.207474 257.4 
L 340.461153 258.403079 
L 340.545712 258.516216 
L 340.630272 258.44015 
L 340.714831 258.553188 
L 341.475867 257.871028 
L 341.560427 257.983857 
L 341.814105 257.757447 
L 341.898665 257.870149 
L 342.91338 257.063001 
L 342.997939 257.175418 
L 343.167058 257.119481 
L 343.251618 257.231751 
L 343.336177 257.157063 
L 343.505296 257.287959 
L 343.843535 257.269478 
L 344.942809 256.212371 
L 345.281047 255.732353 
L 345.365606 255.844101 
L 345.619285 255.623789 
L 345.703845 255.735413 
L 346.464881 255.077249 
L 346.54944 255.188665 
L 348.156071 253.813072 
L 348.240631 253.924138 
L 348.325191 253.85225 
L 348.663429 253.565217 
L 348.917107 254.08013 
L 349.339905 253.721965 
L 349.424465 253.92351 
L 349.509024 253.851986 
L 349.931822 254.221622 
L 350.016382 254.3317 
L 350.185501 254.733045 
L 350.523739 254.447017 
L 350.946537 254.994833 
L 351.031096 255.646485 
L 351.115656 255.57483 
L 351.538453 255.217323 
L 351.623013 255.777102 
L 351.707572 255.705579 
L 351.961251 255.491318 
L 352.13037 255.618636 
L 353.567883 254.502626 
L 353.821561 254.559305 
L 353.99068 254.775558 
L 354.159799 254.723894 
L 355.343633 253.831701 
L 355.428193 253.939437 
L 355.512752 253.869694 
L 355.93555 253.61026 
L 356.273788 254.216842 
L 356.442907 254.431136 
L 356.612026 254.291941 
L 357.034824 254.73809 
L 357.626741 254.252198 
L 357.7113 254.358772 
L 357.79586 254.28954 
L 358.556896 253.581022 
L 358.641455 253.862543 
L 358.726015 253.793748 
L 358.895134 253.918709 
L 358.979694 254.024844 
L 359.064253 253.956087 
L 359.317932 253.837422 
L 359.57161 253.806231 
L 359.909849 253.532458 
L 359.994408 253.638286 
L 360.078968 253.569948 
L 360.332646 253.278261 
L 361.178242 252.599175 
L 361.347361 252.896907 
L 361.770159 256.621955 
L 361.854718 256.553086 
L 362.023837 257.797258 
L 362.108397 257.900719 
L 362.192956 257.831507 
L 362.362075 257.865708 
L 362.615754 258.606154 
L 362.700314 258.536842 
L 362.953992 259.447661 
L 363.123111 259.480655 
L 363.207671 260.442565 
L 363.292231 260.372792 
L 363.37679 260.388957 
L 363.545909 260.764578 
L 363.630469 260.608989 
L 363.799588 260.641102 
L 364.222386 260.207609 
L 364.391505 259.89776 
L 364.560624 259.759294 
L 364.729743 259.791864 
L 364.983421 259.499289 
L 366.420934 258.248485 
L 366.505493 258.095523 
L 366.674612 258.298486 
L 366.759172 258.145662 
L 366.843732 258.331765 
L 367.09741 258.043116 
L 367.18197 257.975227 
L 367.351089 258.008655 
L 367.604767 257.889812 
L 367.689327 257.906533 
L 367.858446 258.108671 
L 367.943006 258.125301 
L 368.027565 258.647775 
L 368.112125 258.579933 
L 368.450363 259.655711 
L 368.619482 259.519626 
L 368.788601 259.804003 
L 369.04228 259.516095 
L 371.156268 257.916325 
L 371.409947 258.048927 
L 372.67834 257.0523 
L 372.847459 257.08562 
L 372.932019 257.01956 
L 373.185698 257.317377 
L 373.270257 257.416519 
L 373.862174 259.592021 
L 374.031293 259.705882 
L 374.200412 260.231091 
L 374.284972 260.246621 
L 374.53865 260.868493 
L 374.62321 260.80163 
L 374.876889 261.093811 
L 375.046008 260.960156 
L 375.299686 261.087805 
L 375.384246 261.021066 
L 375.553365 261.051462 
L 376.906318 259.990045 
L 377.075437 260.02093 
L 377.244556 259.88909 
L 377.329115 259.90455 
L 377.498235 260.341761 
L 377.921032 259.931359 
L 378.005592 260.10898 
L 378.174711 260.707044 
L 378.25927 260.641158 
L 378.42839 260.671465 
L 379.273985 260.015247 
L 379.527664 260.14176 
L 379.696783 260.011065 
L 379.781342 260.509719 
L 379.865902 260.363758 
L 380.119581 260.489655 
L 383.163724 258.163636 
L 383.332843 258.194953 
L 383.586522 258.083013 
L 383.755641 258.034961 
L 383.92476 257.907649 
L 384.093879 258.573199 
L 384.854915 258.633124 
L 385.277713 258.315503 
L 385.446832 258.346479 
L 385.700511 259.49606 
L 385.78507 259.432385 
L 386.123308 259.886169 
L 386.799785 259.377702 
L 387.222583 259.68806 
L 387.307142 259.624681 
L 387.560821 259.904348 
L 387.72994 260.32514 
L 387.814499 260.574434 
L 387.899059 260.510918 
L 388.152738 260.47679 
L 389.336571 259.514903 
L 389.50569 259.311563 
L 389.759369 260.365619 
L 390.013048 260.874792 
L 390.182167 261.756321 
L 390.351286 261.707163 
L 390.858643 262.874563 
L 391.196881 263.161324 
L 391.45056 262.970851 
L 391.619679 262.998286 
L 391.788798 263.025688 
L 392.042477 263.75967 
L 392.127036 263.696151 
L 392.296155 264.569231 
L 392.465275 265.210616 
L 392.972632 264.828015 
L 393.141751 264.854169 
L 393.22631 264.790569 
L 393.39543 264.816722 
L 393.649108 264.702795 
L 393.818227 264.728962 
L 395.424859 263.530758 
L 395.593978 263.557466 
L 396.185895 263.119687 
L 396.524133 263.476488 
L 396.608692 263.944274 
L 396.693252 263.881731 
L 396.777811 263.819225 
L 396.862371 264.286486 
L 396.946931 264.223897 
L 397.200609 264.489862 
L 397.369728 265.195683 
L 397.623407 265.007547 
L 397.792526 265.033164 
L 398.046205 264.845455 
L 398.215324 264.87113 
L 398.722681 264.496897 
L 398.8918 264.522719 
L 400.075634 263.655107 
L 400.244753 263.681306 
L 400.413872 263.558007 
L 400.582991 263.658921 
L 401.597706 262.922268 
L 401.851384 263.779935 
L 402.105063 263.744575 
L 402.358742 264.37732 
L 403.288897 263.703699 
L 403.458016 263.729577 
L 404.134492 263.168852 
L 404.219052 263.403161 
L 404.303611 263.342422 
L 404.388171 263.28172 
L 404.47273 263.736842 
L 404.55729 263.602397 
L 404.980088 263.299124 
L 405.233766 263.411549 
L 405.487445 263.23007 
L 405.656564 263.256028 
L 405.741124 263.195633 
L 405.910243 263.441548 
L 406.248481 263.12694 
L 406.4176 263.811618 
L 406.671279 263.923041 
L 406.840398 263.80232 
L 407.009517 263.827826 
L 407.770553 263.35941 
L 408.27791 263.727273 
L 408.447029 263.607326 
L 408.531589 263.692734 
L 408.785267 263.440449 
L 408.954386 263.465995 
L 409.292625 263.154616 
L 409.884541 264.112285 
L 409.969101 264.052511 
L 410.307339 265.330525 
L 410.391899 265.270487 
L 411.575732 264.505479 
L 411.99853 264.854431 
L 412.675006 264.378902 
L 412.759566 264.892666 
L 412.844126 264.833248 
L 413.85884 264.051487 
L 414.197078 263.673267 
L 414.281638 263.61448 
L 414.450757 263.639457 
L 414.535316 263.580729 
L 414.958114 263.92754 
L 417.410341 262.308816 
L 417.57946 262.475245 
L 417.748579 262.852838 
L 417.833139 262.93583 
L 418.002258 263.805587 
L 418.086817 263.817872 
L 418.255937 264.123751 
L 418.340496 264.135937 
L 418.509615 265.003569 
L 418.594175 264.945247 
L 418.847853 264.770474 
L 419.101532 264.876538 
L 419.608889 264.597999 
L 419.778008 264.552013 
L 420.454485 264.089277 
L 420.623604 264.113487 
L 420.708163 264.055814 
L 420.792723 264.207418 
L 420.961842 264.719502 
L 421.130961 265.091678 
L 421.215521 265.033831 
L 421.638319 265.301518 
L 421.807438 265.255448 
L 421.891997 265.545174 
L 421.976557 265.487345 
L 422.822152 264.910806 
L 423.075831 265.153846 
L 423.24495 265.730807 
L 423.414069 265.753897 
L 423.583188 265.707844 
L 423.752307 265.8 
L 424.005986 266.800822 
L 424.175105 267.237175 
L 424.428784 267.27046 
L 424.682462 267.785788 
L 424.851581 268.014149 
L 425.0207 267.89828 
L 425.528058 268.238267 
L 425.697177 268.808989 
L 426.458213 268.288043 
L 426.627332 268.446388 
L 426.796451 269.562215 
L 426.96557 269.788063 
L 427.134689 269.467028 
L 427.219249 269.409108 
L 427.388368 269.498185 
L 427.472927 269.440303 
L 427.642046 269.461072 
L 427.980285 269.229962 
L 428.149404 269.591351 
L 428.741321 269.187645 
L 428.994999 268.879245 
L 432.208262 266.786126 
L 432.292822 266.797066 
L 432.377381 266.9424 
L 432.461941 266.88611 
L 432.63106 266.773621 
L 432.800179 266.795473 
L 434.40681 265.8 
L 434.575929 265.822246 
L 435.421525 265.200951 
L 435.675203 265.434204 
L 435.844323 265.390082 
L 436.520799 264.948723 
L 437.028156 265.479895 
L 437.197275 265.766903 
L 437.366394 267.112155 
L 437.704633 268.212274 
L 437.789192 268.156581 
L 438.042871 268.3858 
L 438.21199 269.132286 
L 438.381109 268.954672 
L 438.550228 268.974993 
L 438.634788 268.985146 
L 438.803907 269.466492 
L 438.888466 269.410661 
L 439.057585 269.364899 
L 439.226704 269.516523 
L 443.285563 266.741995 
L 443.370122 266.62268 
L 443.454682 266.893017 
L 443.539241 266.83864 
L 443.962039 266.696836 
L 444.131158 266.717974 
L 445.145873 266.198359 
L 445.73779 266.595292 
L 446.329706 266.282759 
L 446.414266 266.422063 
L 446.498826 266.947307 
L 446.583385 266.893415 
L 446.667945 267.161061 
L 446.752504 267.107143 
L 447.006183 266.881315 
L 447.090742 267.020183 
L 447.259861 266.97677 
L 447.851778 266.729062 
L 448.020897 267.326302 
L 448.105457 267.336585 
L 448.190017 267.922936 
L 448.274576 267.869071 
L 448.359136 267.815232 
L 448.443695 268.017259 
L 448.528255 267.96341 
L 448.697374 268.942277 
L 448.866493 269.21749 
L 449.035612 269.173195 
L 449.120172 269.629787 
L 449.204731 269.575639 
L 449.289291 269.521519 
L 449.37385 270.169021 
L 449.45841 270.051012 
L 449.542969 270.060562 
L 449.796648 270.280283 
L 449.965767 271.063264 
L 450.134886 271.272727 
L 450.304005 271.8 
L 450.388565 271.745496 
L 451.741518 270.877155 
L 451.995196 271.347966 
L 453.263589 268.836778 
L 453.686387 268.696552 
L 453.855506 268.716084 
L 454.447423 268.344503 
L 454.616542 267.987391 
L 454.870221 267.954382 
L 455.208459 268.119403 
L 456.054054 267.655087 
L 456.223174 267.675 
L 458.421722 266.379596 
L 458.590841 266.4 
L 459.351877 265.810322 
L 459.690115 265.542205 
L 460.958508 264.834247 
L 461.127627 264.855257 
L 461.381306 264.825165 
L 461.550425 265.153846 
L 462.734259 264.563203 
L 462.903378 264.584237 
L 464.171771 263.825206 
L 464.34089 264.273837 
L 464.679128 264.133011 
L 464.848247 264.154136 
L 466.032081 263.57242 
L 466.2012 263.593735 
L 466.708557 263.415014 
L 466.877677 263.436364 
L 467.046796 263.457692 
L 467.215915 264.32667 
L 467.469593 264.297479 
L 467.638713 264.197408 
L 467.723272 264.389251 
L 467.807832 264.339218 
L 468.907106 263.75122 
L 468.991665 263.821994 
L 469.160784 264.204301 
L 469.245344 264.214716 
L 469.499023 264.787348 
L 469.668142 265.950322 
L 469.837261 266.150584 
L 470.00638 266.230513 
L 472.374047 264.835283 
L 472.712285 265.352874 
L 472.881404 266.028423 
L 473.135083 266.236673 
L 473.304202 266.196788 
L 475.840989 264.77561 
L 476.010108 264.736709 
L 476.263786 264.648911 
L 476.602025 264.807255 
L 476.855703 265.721422 
L 477.024822 265.741094 
L 477.193941 265.996262 
L 477.363061 266.663148 
L 477.44762 266.613915 
L 477.53218 266.623529 
L 477.701299 267.289501 
L 478.039537 267.268531 
L 479.477049 266.433852 
L 479.561609 266.735933 
L 479.646168 266.686981 
L 480.407204 266.36415 
L 480.576323 266.383333 
L 483.366788 264.902688 
L 484.635182 264.126923 
L 484.88886 264.618119 
L 485.227098 264.6 
L 487.171968 263.508049 
L 487.341087 263.814545 
L 487.510206 263.777283 
L 487.594766 264.130684 
L 487.679325 264.083379 
L 487.933004 263.998775 
L 488.017564 264.123049 
L 488.355802 263.819946 
L 488.60948 263.906908 
L 488.863159 263.822635 
L 489.032278 263.899548 
L 489.201397 263.862415 
L 490.723469 263.132432 
L 491.061707 263.342754 
L 491.146267 263.296063 
L 491.315386 263.71275 
L 491.653624 264.997933 
L 491.738184 264.950943 
L 491.907303 265.535968 
L 492.076422 266.233573 
L 492.245541 266.534859 
L 492.3301 266.544113 
L 492.49922 267.014526 
L 492.752898 267.098387 
L 494.021291 266.447019 
L 494.190411 266.465476 
L 495.120566 265.8935 
L 495.289685 266.080374 
L 495.797042 266.584 
L 495.966161 266.938161 
L 496.13528 267.012256 
L 496.21984 267.300999 
L 496.304399 267.254061 
L 496.473518 267.27205 
L 496.980876 267.102614 
L 497.149995 267.120638 
L 500.786055 265.182759 
L 500.955174 265.201447 
L 501.377972 264.972142 
L 501.71621 265.395624 
L 501.80077 265.34977 
L 501.969889 265.58876 
L 502.223568 267.984441 
L 502.392687 268.442202 
L 502.477246 268.450797 
L 502.561806 268.624454 
L 502.646365 268.577996 
L 504.591235 267.569765 
L 504.760354 267.587234 
L 504.929473 267.55 
L 505.267711 268.78699 
L 505.43683 268.96775 
L 505.605949 267.838128 
L 505.690509 267.792203 
L 505.859628 267.209396 
L 506.620664 266.907174 
L 506.789783 266.924838 
L 511.10232 264.678445 
L 511.271439 264.696861 
L 513.554547 263.552866 
L 513.892785 263.804243 
L 514.231023 264.589318 
L 514.738381 264.750889 
L 514.82294 264.973333 
L 514.9075 264.929073 
L 515.753095 264.913176 
L 518.62812 263.528302 
L 518.712679 263.537581 
L 519.220037 264.700984 
L 519.389156 264.719021 
L 519.642834 265.325721 
L 519.811954 265.343478 
L 520.065632 265.106873 
L 525.815681 262.227188 
L 525.9848 262.45349 
L 526.15392 262.472155 
L 526.492158 262.613078 
L 526.745836 262.589149 
L 526.914956 262.81479 
L 527.084075 263.247228 
L 527.506872 263.396308 
L 527.92967 263.648361 
L 528.01423 263.605778 
L 528.267908 264.458477 
L 528.437027 264.991977 
L 529.282623 264.667647 
L 529.451742 264.942507 
L 530.297337 265.132518 
L 530.551016 265.671717 
L 530.635576 265.680293 
L 530.720135 265.996621 
L 530.804695 265.953846 
L 531.312052 265.74878 
L 531.481171 265.765868 
L 532.411326 265.399838 
L 532.580445 265.417021 
L 534.017958 264.799192 
L 534.187077 264.816552 
L 535.117232 264.454985 
L 535.286351 264.573908 
L 537.823137 263.421373 
L 537.992256 263.489538 
L 538.499614 264.046154 
L 539.598888 263.607094 
L 539.683447 263.666109 
L 539.937126 264.093907 
L 540.190805 264.320597 
L 540.275364 264.730362 
L 540.359924 264.6888 
L 542.304793 263.837228 
L 542.473912 263.954394 
L 542.643031 264.221053 
L 542.812151 264.337975 
L 543.065829 264.712433 
L 543.995984 264.35858 
L 544.165103 264.37571 
L 545.433496 263.760684 
L 545.687175 264.083694 
L 545.856294 264.100864 
L 546.025413 264.513781 
L 546.109973 264.472816 
L 546.279092 264.489818 
L 546.61733 266.302254 
L 546.70189 266.35978 
L 546.871009 266.869749 
L 547.124687 268.07805 
L 547.293807 268.192249 
L 548.139402 267.826568 
L 548.308521 267.842179 
L 549.238676 267.485892 
L 549.323236 267.54284 
L 549.661474 267.328908 
L 550.845308 266.851835 
L 551.014427 266.867728 
L 553.889451 265.581377 
L 554.05857 265.597649 
L 554.481368 265.492722 
L 554.650487 265.509007 
L 556.595357 264.63311 
L 556.764476 264.649646 
L 557.102714 264.682679 
L 557.187274 264.883812 
L 557.271833 264.843811 
L 558.032869 264.436364 
L 558.201988 264.597251 
L 558.455667 264.670063 
L 558.624786 264.734579 
L 559.132143 264.59177 
L 559.216703 264.6 
L 559.385822 265.336177 
L 560.485096 264.91453 
L 560.738775 265.034624 
L 560.907894 265.050854 
L 561.330691 265.473555 
L 562.260847 265.132577 
L 562.514525 265.25207 
L 563.698359 264.746634 
L 563.867478 264.952875 
L 564.036597 265.58632 
L 564.290276 265.657627 
L 564.628514 265.97388 
L 565.220431 265.697388 
L 565.727788 266.312484 
L 565.896907 266.895515 
L 566.404264 266.894283 
L 566.657943 266.775646 
L 566.827062 266.791011 
L 566.996181 266.664845 
L 567.24986 267.017961 
L 567.334419 266.978451 
L 567.757217 267.393347 
L 567.841777 267.400897 
L 568.095455 267.658824 
L 568.264574 267.67381 
L 569.702087 267.050465 
L 569.871206 267.1125 
L 572.577111 265.908728 
L 572.83079 265.978525 
L 575.621255 264.750771 
L 575.790374 264.766581 
L 576.720529 264.391534 
L 577.143327 265.307873 
L 577.227886 265.361779 
L 577.397006 265.792315 
L 577.566125 266.084251 
L 577.650684 266.644916 
L 577.735244 266.606363 
L 578.073482 266.498337 
L 578.242601 266.513425 
L 579.172756 266.182793 
L 579.257316 266.190377 
L 579.510994 266.763934 
L 579.680113 267.054188 
L 580.102911 266.95372 
L 580.610268 267.730947 
L 581.963221 267.116543 
L 582.386019 267.655177 
L 585.683841 266.260543 
L 585.768401 266.268009 
L 585.93752 266.418757 
L 586.106639 266.388362 
L 586.275758 266.403232 
L 586.444877 266.372864 
L 586.529437 266.606388 
L 586.613996 266.568568 
L 588.389747 265.77748 
L 588.643425 265.935048 
L 588.812545 266.4 
L 589.319902 266.174599 
L 589.57358 266.556285 
L 589.827259 266.533428 
L 589.996378 266.637905 
L 590.503735 266.457651 
L 590.672855 266.562006 
L 591.349331 266.307282 
L 591.51845 266.322017 
L 591.856688 266.26203 
L 592.110367 266.775705 
L 592.955962 266.44684 
L 593.125081 266.461476 
L 593.970677 266.178378 
L 594.308915 266.341218 
L 594.393475 266.304059 
L 594.562594 266.496542 
L 596.000106 265.955145 
L 596.084666 265.962504 
L 596.253785 266.243038 
L 597.09938 265.962162 
L 597.353059 266.293598 
L 597.522178 266.396528 
L 597.691297 266.676074 
L 597.944976 266.60939 
L 598.114095 266.667951 
L 598.198654 266.631028 
L 598.452333 267.00546 
L 598.706012 267.423579 
L 598.875131 267.481763 
L 599.04425 268.112533 
L 599.297928 268.045283 
L 599.889845 267.698098 
L 600.143524 267.543286 
L 600.312643 267.557322 
L 601.411917 267.166151 
L 601.581036 267.180282 
L 602.257513 266.974162 
L 602.426632 267.032078 
L 602.595751 267.046226 
L 602.76487 266.885516 
L 602.933989 266.899705 
L 604.033263 266.381315 
L 604.117823 266.606435 
L 604.202382 266.569976 
L 604.371501 266.627801 
L 606.48549 265.720468 
L 606.57005 265.987952 
L 606.654609 265.951781 
L 606.823728 266.00953 
L 607.161966 265.864982 
L 607.500205 266.110256 
L 607.753883 267.343269 
L 608.261241 267.471355 
L 608.43036 268.435802 
L 608.514919 268.572158 
L 608.684038 269.492545 
L 609.783312 268.586594 
L 610.967146 268.164381 
L 611.220825 268.227621 
L 611.897301 267.981168 
L 612.06642 267.994723 
L 612.235539 267.879632 
L 612.404658 268.064671 
L 612.658337 267.999252 
L 615.533362 266.864909 
L 615.8716 266.807432 
L 617.139993 266.189217 
L 617.309112 266.075897 
L 617.478231 266.089948 
L 617.985589 265.962489 
L 618.154708 265.97656 
L 619.50766 265.497132 
L 619.676779 265.511316 
L 620.353256 265.272627 
L 620.522375 265.582092 
L 620.606934 265.673494 
L 620.691494 265.975673 
L 620.776054 265.940515 
L 621.198851 265.80702 
L 621.36797 265.821053 
L 621.53709 265.835076 
L 621.706209 266.017399 
L 622.129006 266.01021 
L 622.213566 266.227356 
L 622.298125 266.192262 
L 622.636364 266.052 
L 622.636364 266.052 
" clip-path="url(#p8eaa1f99b1)" style="fill: none; stroke: #ff7f0e; stroke-width: 1.5; stroke-linecap: square"/>
   </g>
   <g id="patch_3">
    <path d="M 90 320.4 
L 90 43.2 
" style="fill: none; stroke: #000000; stroke-width: 0.8; stroke-linejoin: miter; stroke-linecap: square"/>
   </g>
   <g id="patch_4">
    <path d="M 648 320.4 
L 648 43.2 
" style="fill: none; stroke: #000000; stroke-width: 0.8; stroke-linejoin: miter; stroke-linecap: square"/>
   </g>
   <g id="patch_5">
    <path d="M 90 320.4 
L 648 320.4 
" style="fill: none; stroke: #000000; stroke-width: 0.8; stroke-linejoin: miter; stroke-linecap: square"/>
   </g>
   <g id="patch_6">
    <path d="M 90 43.2 
L 648 43.2 
" style="fill: none; stroke: #000000; stroke-width: 0.8; stroke-linejoin: miter; stroke-linecap: square"/>
   </g>
   <g id="text_16">
    <!-- Evolution of rewards (DDQN with PER Constant ε=0.1 (γ=0.995)) -->
    <g transform="translate(173.41875 37.2) scale(0.12 -0.12)">
     <defs>
      <path id="DejaVuSans-45" d="M 628 4666 
L 3578 4666 
L 3578 4134 
L 1259 4134 
L 1259 2753 
L 3481 2753 
L 3481 2222 
L 1259 2222 
L 1259 531 
L 3634 531 
L 3634 0 
L 628 0 
L 628 4666 
z
" transform="scale(0.015625)"/>
      <path id="DejaVuSans-6f" d="M 1959 3097 
Q 1497 3097 1228 2736 
Q 959 2375 959 1747 
Q 959 1119 1226 758 
Q 1494 397 1959 397 
Q 2419 397 2687 759 
Q 2956 1122 2956 1747 
Q 2956 2369 2687 2733 
Q 2419 3097 1959 3097 
z
M 1959 3584 
Q 2709 3584 3137 3096 
Q 3566 2609 3566 1747 
Q 3566 888 3137 398 
Q 2709 -91 1959 -91 
Q 1206 -91 779 398 
Q 353 888 353 1747 
Q 353 2609 779 3096 
Q 1206 3584 1959 3584 
z
" transform="scale(0.015625)"/>
      <path id="DejaVuSans-6c" d="M 603 4863 
L 1178 4863 
L 1178 0 
L 603 0 
L 603 4863 
z
" transform="scale(0.015625)"/>
      <path id="DejaVuSans-75" d="M 544 1381 
L 544 3500 
L 1119 3500 
L 1119 1403 
Q 1119 906 1312 657 
Q 1506 409 1894 409 
Q 2359 409 2629 706 
Q 2900 1003 2900 1516 
L 2900 3500 
L 3475 3500 
L 3475 0 
L 2900 0 
L 2900 538 
Q 2691 219 2414 64 
Q 2138 -91 1772 -91 
Q 1169 -91 856 284 
Q 544 659 544 1381 
z
M 1991 3584 
L 1991 3584 
z
" transform="scale(0.015625)"/>
      <path id="DejaVuSans-6e" d="M 3513 2113 
L 3513 0 
L 2938 0 
L 2938 2094 
Q 2938 2591 2744 2837 
Q 2550 3084 2163 3084 
Q 1697 3084 1428 2787 
Q 1159 2491 1159 1978 
L 1159 0 
L 581 0 
L 581 3500 
L 1159 3500 
L 1159 2956 
Q 1366 3272 1645 3428 
Q 1925 3584 2291 3584 
Q 2894 3584 3203 3211 
Q 3513 2838 3513 2113 
z
" transform="scale(0.015625)"/>
      <path id="DejaVuSans-66" d="M 2375 4863 
L 2375 4384 
L 1825 4384 
Q 1516 4384 1395 4259 
Q 1275 4134 1275 3809 
L 1275 3500 
L 2222 3500 
L 2222 3053 
L 1275 3053 
L 1275 0 
L 697 0 
L 697 3053 
L 147 3053 
L 147 3500 
L 697 3500 
L 697 3744 
Q 697 4328 969 4595 
Q 1241 4863 1831 4863 
L 2375 4863 
z
" transform="scale(0.015625)"/>
      <path id="DejaVuSans-28" d="M 1984 4856 
Q 1566 4138 1362 3434 
Q 1159 2731 1159 2009 
Q 1159 1288 1364 580 
Q 1569 -128 1984 -844 
L 1484 -844 
Q 1016 -109 783 600 
Q 550 1309 550 2009 
Q 550 2706 781 3412 
Q 1013 4119 1484 4856 
L 1984 4856 
z
" transform="scale(0.015625)"/>
      <path id="DejaVuSans-44" d="M 1259 4147 
L 1259 519 
L 2022 519 
Q 2988 519 3436 956 
Q 3884 1394 3884 2338 
Q 3884 3275 3436 3711 
Q 2988 4147 2022 4147 
L 1259 4147 
z
M 628 4666 
L 1925 4666 
Q 3281 4666 3915 4102 
Q 4550 3538 4550 2338 
Q 4550 1131 3912 565 
Q 3275 0 1925 0 
L 628 0 
L 628 4666 
z
" transform="scale(0.015625)"/>
      <path id="DejaVuSans-51" d="M 2522 4238 
Q 1834 4238 1429 3725 
Q 1025 3213 1025 2328 
Q 1025 1447 1429 934 
Q 1834 422 2522 422 
Q 3209 422 3611 934 
Q 4013 1447 4013 2328 
Q 4013 3213 3611 3725 
Q 3209 4238 2522 4238 
z
M 3406 84 
L 4238 -825 
L 3475 -825 
L 2784 -78 
Q 2681 -84 2626 -87 
Q 2572 -91 2522 -91 
Q 1538 -91 948 567 
Q 359 1225 359 2328 
Q 359 3434 948 4092 
Q 1538 4750 2522 4750 
Q 3503 4750 4090 4092 
Q 4678 3434 4678 2328 
Q 4678 1516 4351 937 
Q 4025 359 3406 84 
z
" transform="scale(0.015625)"/>
      <path id="DejaVuSans-4e" d="M 628 4666 
L 1478 4666 
L 3547 763 
L 3547 4666 
L 4159 4666 
L 4159 0 
L 3309 0 
L 1241 3903 
L 1241 0 
L 628 0 
L 628 4666 
z
" transform="scale(0.015625)"/>
      <path id="DejaVuSans-68" d="M 3513 2113 
L 3513 0 
L 2938 0 
L 2938 2094 
Q 2938 2591 2744 2837 
Q 2550 3084 2163 3084 
Q 1697 3084 1428 2787 
Q 1159 2491 1159 1978 
L 1159 0 
L 581 0 
L 581 4863 
L 1159 4863 
L 1159 2956 
Q 1366 3272 1645 3428 
Q 1925 3584 2291 3584 
Q 2894 3584 3203 3211 
Q 3513 2838 3513 2113 
z
" transform="scale(0.015625)"/>
      <path id="DejaVuSans-50" d="M 1259 4147 
L 1259 2394 
L 2053 2394 
Q 2494 2394 2734 2622 
Q 2975 2850 2975 3272 
Q 2975 3691 2734 3919 
Q 2494 4147 2053 4147 
L 1259 4147 
z
M 628 4666 
L 2053 4666 
Q 2838 4666 3239 4311 
Q 3641 3956 3641 3272 
Q 3641 2581 3239 2228 
Q 2838 1875 2053 1875 
L 1259 1875 
L 1259 0 
L 628 0 
L 628 4666 
z
" transform="scale(0.015625)"/>
      <path id="DejaVuSans-52" d="M 2841 2188 
Q 3044 2119 3236 1894 
Q 3428 1669 3622 1275 
L 4263 0 
L 3584 0 
L 2988 1197 
Q 2756 1666 2539 1819 
Q 2322 1972 1947 1972 
L 1259 1972 
L 1259 0 
L 628 0 
L 628 4666 
L 2053 4666 
Q 2853 4666 3247 4331 
Q 3641 3997 3641 3322 
Q 3641 2881 3436 2590 
Q 3231 2300 2841 2188 
z
M 1259 4147 
L 1259 2491 
L 2053 2491 
Q 2509 2491 2742 2702 
Q 2975 2913 2975 3322 
Q 2975 3731 2742 3939 
Q 2509 4147 2053 4147 
L 1259 4147 
z
" transform="scale(0.015625)"/>
      <path id="DejaVuSans-43" d="M 4122 4306 
L 4122 3641 
Q 3803 3938 3442 4084 
Q 3081 4231 2675 4231 
Q 1875 4231 1450 3742 
Q 1025 3253 1025 2328 
Q 1025 1406 1450 917 
Q 1875 428 2675 428 
Q 3081 428 3442 575 
Q 3803 722 4122 1019 
L 4122 359 
Q 3791 134 3420 21 
Q 3050 -91 2638 -91 
Q 1578 -91 968 557 
Q 359 1206 359 2328 
Q 359 3453 968 4101 
Q 1578 4750 2638 4750 
Q 3056 4750 3426 4639 
Q 3797 4528 4122 4306 
z
" transform="scale(0.015625)"/>
      <path id="DejaVuSans-3b5" d="M 1234 1888 
Q 884 1963 697 2166 
Q 509 2366 509 2656 
Q 509 3097 866 3344 
Q 1219 3588 1831 3588 
Q 2069 3588 2334 3550 
Q 2600 3513 2906 3438 
L 2906 2916 
Q 2603 3006 2353 3047 
Q 2100 3088 1878 3088 
Q 1506 3088 1291 2944 
Q 1072 2800 1072 2600 
Q 1072 2381 1284 2241 
Q 1494 2103 1856 2103 
L 2341 2103 
L 2341 1628 
L 1878 1628 
Q 1450 1628 1225 1469 
Q 981 1294 981 1019 
Q 981 738 1244 563 
Q 1509 388 1981 388 
Q 2272 388 2538 444 
Q 2803 503 3025 619 
L 3025 84 
Q 2744 -3 2481 -47 
Q 2216 -91 1966 -91 
Q 1222 -91 819 194 
Q 416 478 416 1019 
Q 416 1356 631 1584 
Q 847 1813 1234 1888 
z
" transform="scale(0.015625)"/>
      <path id="DejaVuSans-3d" d="M 678 2906 
L 4684 2906 
L 4684 2381 
L 678 2381 
L 678 2906 
z
M 678 1631 
L 4684 1631 
L 4684 1100 
L 678 1100 
L 678 1631 
z
" transform="scale(0.015625)"/>
      <path id="DejaVuSans-3b3" d="M 1128 2950 
L 1894 788 
L 2988 3500 
L 3597 3500 
L 2181 0 
L 2181 -1331 
L 1606 -1331 
L 1606 0 
L 688 2613 
Q 550 3006 253 3006 
L 100 3006 
L 100 3500 
L 319 3500 
Q 934 3500 1128 2950 
z
" transform="scale(0.015625)"/>
      <path id="DejaVuSans-39" d="M 703 97 
L 703 672 
Q 941 559 1184 500 
Q 1428 441 1663 441 
Q 2288 441 2617 861 
Q 2947 1281 2994 2138 
Q 2813 1869 2534 1725 
Q 2256 1581 1919 1581 
Q 1219 1581 811 2004 
Q 403 2428 403 3163 
Q 403 3881 828 4315 
Q 1253 4750 1959 4750 
Q 2769 4750 3195 4129 
Q 3622 3509 3622 2328 
Q 3622 1225 3098 567 
Q 2575 -91 1691 -91 
Q 1453 -91 1209 -44 
Q 966 3 703 97 
z
M 1959 2075 
Q 2384 2075 2632 2365 
Q 2881 2656 2881 3163 
Q 2881 3666 2632 3958 
Q 2384 4250 1959 4250 
Q 1534 4250 1286 3958 
Q 1038 3666 1038 3163 
Q 1038 2656 1286 2365 
Q 1534 2075 1959 2075 
z
" transform="scale(0.015625)"/>
      <path id="DejaVuSans-29" d="M 513 4856 
L 1013 4856 
Q 1481 4119 1714 3412 
Q 1947 2706 1947 2009 
Q 1947 1309 1714 600 
Q 1481 -109 1013 -844 
L 513 -844 
Q 928 -128 1133 580 
Q 1338 1288 1338 2009 
Q 1338 2731 1133 3434 
Q 928 4138 513 4856 
z
" transform="scale(0.015625)"/>
     </defs>
     <use xlink:href="#DejaVuSans-45"/>
     <use xlink:href="#DejaVuSans-76" x="63.183594"/>
     <use xlink:href="#DejaVuSans-6f" x="122.363281"/>
     <use xlink:href="#DejaVuSans-6c" x="183.544922"/>
     <use xlink:href="#DejaVuSans-75" x="211.328125"/>
     <use xlink:href="#DejaVuSans-74" x="274.707031"/>
     <use xlink:href="#DejaVuSans-69" x="313.916016"/>
     <use xlink:href="#DejaVuSans-6f" x="341.699219"/>
     <use xlink:href="#DejaVuSans-6e" x="402.880859"/>
     <use xlink:href="#DejaVuSans-20" x="466.259766"/>
     <use xlink:href="#DejaVuSans-6f" x="498.046875"/>
     <use xlink:href="#DejaVuSans-66" x="559.228516"/>
     <use xlink:href="#DejaVuSans-20" x="594.433594"/>
     <use xlink:href="#DejaVuSans-72" x="626.220703"/>
     <use xlink:href="#DejaVuSans-65" x="665.083984"/>
     <use xlink:href="#DejaVuSans-77" x="726.607422"/>
     <use xlink:href="#DejaVuSans-61" x="808.394531"/>
     <use xlink:href="#DejaVuSans-72" x="869.673828"/>
     <use xlink:href="#DejaVuSans-64" x="909.037109"/>
     <use xlink:href="#DejaVuSans-73" x="972.513672"/>
     <use xlink:href="#DejaVuSans-20" x="1024.613281"/>
     <use xlink:href="#DejaVuSans-28" x="1056.400391"/>
     <use xlink:href="#DejaVuSans-44" x="1095.414062"/>
     <use xlink:href="#DejaVuSans-44" x="1172.416016"/>
     <use xlink:href="#DejaVuSans-51" x="1249.417969"/>
     <use xlink:href="#DejaVuSans-4e" x="1328.128906"/>
     <use xlink:href="#DejaVuSans-20" x="1402.933594"/>
     <use xlink:href="#DejaVuSans-77" x="1434.720703"/>
     <use xlink:href="#DejaVuSans-69" x="1516.507812"/>
     <use xlink:href="#DejaVuSans-74" x="1544.291016"/>
     <use xlink:href="#DejaVuSans-68" x="1583.5"/>
     <use xlink:href="#DejaVuSans-20" x="1646.878906"/>
     <use xlink:href="#DejaVuSans-50" x="1678.666016"/>
     <use xlink:href="#DejaVuSans-45" x="1738.96875"/>
     <use xlink:href="#DejaVuSans-52" x="1802.152344"/>
     <use xlink:href="#DejaVuSans-20" x="1871.634766"/>
     <use xlink:href="#DejaVuSans-43" x="1903.421875"/>
     <use xlink:href="#DejaVuSans-6f" x="1973.246094"/>
     <use xlink:href="#DejaVuSans-6e" x="2034.427734"/>
     <use xlink:href="#DejaVuSans-73" x="2097.806641"/>
     <use xlink:href="#DejaVuSans-74" x="2149.90625"/>
     <use xlink:href="#DejaVuSans-61" x="2189.115234"/>
     <use xlink:href="#DejaVuSans-6e" x="2250.394531"/>
     <use xlink:href="#DejaVuSans-74" x="2313.773438"/>
     <use xlink:href="#DejaVuSans-20" x="2352.982422"/>
     <use xlink:href="#DejaVuSans-3b5" x="2384.769531"/>
     <use xlink:href="#DejaVuSans-3d" x="2438.822266"/>
     <use xlink:href="#DejaVuSans-30" x="2522.611328"/>
     <use xlink:href="#DejaVuSans-2e" x="2586.234375"/>
     <use xlink:href="#DejaVuSans-31" x="2618.021484"/>
     <use xlink:href="#DejaVuSans-20" x="2681.644531"/>
     <use xlink:href="#DejaVuSans-28" x="2713.431641"/>
     <use xlink:href="#DejaVuSans-3b3" x="2752.445312"/>
     <use xlink:href="#DejaVuSans-3d" x="2811.625"/>
     <use xlink:href="#DejaVuSans-30" x="2895.414062"/>
     <use xlink:href="#DejaVuSans-2e" x="2959.037109"/>
     <use xlink:href="#DejaVuSans-39" x="2990.824219"/>
     <use xlink:href="#DejaVuSans-39" x="3054.447266"/>
     <use xlink:href="#DejaVuSans-35" x="3118.070312"/>
     <use xlink:href="#DejaVuSans-29" x="3181.693359"/>
     <use xlink:href="#DejaVuSans-29" x="3220.707031"/>
    </g>
   </g>
  </g>
 </g>
 <defs>
  <clipPath id="p8eaa1f99b1">
   <rect x="90" y="43.2" width="558" height="277.2"/>
  </clipPath>
 </defs>
</svg>
