<?xml version="1.0" encoding="utf-8" standalone="no"?>
<!DOCTYPE svg PUBLIC "-//W3C//DTD SVG 1.1//EN"
  "http://www.w3.org/Graphics/SVG/1.1/DTD/svg11.dtd">
<svg xmlns:xlink="http://www.w3.org/1999/xlink" width="720pt" height="360pt" viewBox="0 0 720 360" xmlns="http://www.w3.org/2000/svg" version="1.1">
 <metadata>
  <rdf:RDF xmlns:dc="http://purl.org/dc/elements/1.1/" xmlns:cc="http://creativecommons.org/ns#" xmlns:rdf="http://www.w3.org/1999/02/22-rdf-syntax-ns#">
   <cc:Work>
    <dc:type rdf:resource="http://purl.org/dc/dcmitype/StillImage"/>
    <dc:date>2023-05-10T05:10:03.702244</dc:date>
    <dc:format>image/svg+xml</dc:format>
    <dc:creator>
     <cc:Agent>
      <dc:title>Matplotlib v3.7.1, https://matplotlib.org/</dc:title>
     </cc:Agent>
    </dc:creator>
   </cc:Work>
  </rdf:RDF>
 </metadata>
 <defs>
  <style type="text/css">*{stroke-linejoin: round; stroke-linecap: butt}</style>
 </defs>
 <g id="figure_1">
  <g id="patch_1">
   <path d="M 0 360 
L 720 360 
L 720 0 
L 0 0 
z
" style="fill: #ffffff"/>
  </g>
  <g id="axes_1">
   <g id="patch_2">
    <path d="M 90 320.4 
L 648 320.4 
L 648 43.2 
L 90 43.2 
z
" style="fill: #ffffff"/>
   </g>
   <g id="matplotlib.axis_1">
    <g id="xtick_1">
     <g id="line2d_1">
      <defs>
       <path id="m7f09622d0f" d="M 0 0 
L 0 3.5 
" style="stroke: #000000; stroke-width: 0.8"/>
      </defs>
      <g>
       <use xlink:href="#m7f09622d0f" x="115.362626" y="320.4" style="stroke: #000000; stroke-width: 0.8"/>
      </g>
     </g>
     <g id="text_1">
      <!-- 0 -->
      <g transform="translate(112.181376 334.998438) scale(0.1 -0.1)">
       <defs>
        <path id="DejaVuSans-30" d="M 2034 4250 
Q 1547 4250 1301 3770 
Q 1056 3291 1056 2328 
Q 1056 1369 1301 889 
Q 1547 409 2034 409 
Q 2525 409 2770 889 
Q 3016 1369 3016 2328 
Q 3016 3291 2770 3770 
Q 2525 4250 2034 4250 
z
M 2034 4750 
Q 2819 4750 3233 4129 
Q 3647 3509 3647 2328 
Q 3647 1150 3233 529 
Q 2819 -91 2034 -91 
Q 1250 -91 836 529 
Q 422 1150 422 2328 
Q 422 3509 836 4129 
Q 1250 4750 2034 4750 
z
" transform="scale(0.015625)"/>
       </defs>
       <use xlink:href="#DejaVuSans-30"/>
      </g>
     </g>
    </g>
    <g id="xtick_2">
     <g id="line2d_2">
      <g>
       <use xlink:href="#m7f09622d0f" x="216.413171" y="320.4" style="stroke: #000000; stroke-width: 0.8"/>
      </g>
     </g>
     <g id="text_2">
      <!-- 100000 -->
      <g transform="translate(197.325671 334.998438) scale(0.1 -0.1)">
       <defs>
        <path id="DejaVuSans-31" d="M 794 531 
L 1825 531 
L 1825 4091 
L 703 3866 
L 703 4441 
L 1819 4666 
L 2450 4666 
L 2450 531 
L 3481 531 
L 3481 0 
L 794 0 
L 794 531 
z
" transform="scale(0.015625)"/>
       </defs>
       <use xlink:href="#DejaVuSans-31"/>
       <use xlink:href="#DejaVuSans-30" x="63.623047"/>
       <use xlink:href="#DejaVuSans-30" x="127.246094"/>
       <use xlink:href="#DejaVuSans-30" x="190.869141"/>
       <use xlink:href="#DejaVuSans-30" x="254.492188"/>
       <use xlink:href="#DejaVuSans-30" x="318.115234"/>
      </g>
     </g>
    </g>
    <g id="xtick_3">
     <g id="line2d_3">
      <g>
       <use xlink:href="#m7f09622d0f" x="317.463717" y="320.4" style="stroke: #000000; stroke-width: 0.8"/>
      </g>
     </g>
     <g id="text_3">
      <!-- 200000 -->
      <g transform="translate(298.376217 334.998438) scale(0.1 -0.1)">
       <defs>
        <path id="DejaVuSans-32" d="M 1228 531 
L 3431 531 
L 3431 0 
L 469 0 
L 469 531 
Q 828 903 1448 1529 
Q 2069 2156 2228 2338 
Q 2531 2678 2651 2914 
Q 2772 3150 2772 3378 
Q 2772 3750 2511 3984 
Q 2250 4219 1831 4219 
Q 1534 4219 1204 4116 
Q 875 4013 500 3803 
L 500 4441 
Q 881 4594 1212 4672 
Q 1544 4750 1819 4750 
Q 2544 4750 2975 4387 
Q 3406 4025 3406 3419 
Q 3406 3131 3298 2873 
Q 3191 2616 2906 2266 
Q 2828 2175 2409 1742 
Q 1991 1309 1228 531 
z
" transform="scale(0.015625)"/>
       </defs>
       <use xlink:href="#DejaVuSans-32"/>
       <use xlink:href="#DejaVuSans-30" x="63.623047"/>
       <use xlink:href="#DejaVuSans-30" x="127.246094"/>
       <use xlink:href="#DejaVuSans-30" x="190.869141"/>
       <use xlink:href="#DejaVuSans-30" x="254.492188"/>
       <use xlink:href="#DejaVuSans-30" x="318.115234"/>
      </g>
     </g>
    </g>
    <g id="xtick_4">
     <g id="line2d_4">
      <g>
       <use xlink:href="#m7f09622d0f" x="418.514262" y="320.4" style="stroke: #000000; stroke-width: 0.8"/>
      </g>
     </g>
     <g id="text_4">
      <!-- 300000 -->
      <g transform="translate(399.426762 334.998438) scale(0.1 -0.1)">
       <defs>
        <path id="DejaVuSans-33" d="M 2597 2516 
Q 3050 2419 3304 2112 
Q 3559 1806 3559 1356 
Q 3559 666 3084 287 
Q 2609 -91 1734 -91 
Q 1441 -91 1130 -33 
Q 819 25 488 141 
L 488 750 
Q 750 597 1062 519 
Q 1375 441 1716 441 
Q 2309 441 2620 675 
Q 2931 909 2931 1356 
Q 2931 1769 2642 2001 
Q 2353 2234 1838 2234 
L 1294 2234 
L 1294 2753 
L 1863 2753 
Q 2328 2753 2575 2939 
Q 2822 3125 2822 3475 
Q 2822 3834 2567 4026 
Q 2313 4219 1838 4219 
Q 1578 4219 1281 4162 
Q 984 4106 628 3988 
L 628 4550 
Q 988 4650 1302 4700 
Q 1616 4750 1894 4750 
Q 2613 4750 3031 4423 
Q 3450 4097 3450 3541 
Q 3450 3153 3228 2886 
Q 3006 2619 2597 2516 
z
" transform="scale(0.015625)"/>
       </defs>
       <use xlink:href="#DejaVuSans-33"/>
       <use xlink:href="#DejaVuSans-30" x="63.623047"/>
       <use xlink:href="#DejaVuSans-30" x="127.246094"/>
       <use xlink:href="#DejaVuSans-30" x="190.869141"/>
       <use xlink:href="#DejaVuSans-30" x="254.492188"/>
       <use xlink:href="#DejaVuSans-30" x="318.115234"/>
      </g>
     </g>
    </g>
    <g id="xtick_5">
     <g id="line2d_5">
      <g>
       <use xlink:href="#m7f09622d0f" x="519.564807" y="320.4" style="stroke: #000000; stroke-width: 0.8"/>
      </g>
     </g>
     <g id="text_5">
      <!-- 400000 -->
      <g transform="translate(500.477307 334.998438) scale(0.1 -0.1)">
       <defs>
        <path id="DejaVuSans-34" d="M 2419 4116 
L 825 1625 
L 2419 1625 
L 2419 4116 
z
M 2253 4666 
L 3047 4666 
L 3047 1625 
L 3713 1625 
L 3713 1100 
L 3047 1100 
L 3047 0 
L 2419 0 
L 2419 1100 
L 313 1100 
L 313 1709 
L 2253 4666 
z
" transform="scale(0.015625)"/>
       </defs>
       <use xlink:href="#DejaVuSans-34"/>
       <use xlink:href="#DejaVuSans-30" x="63.623047"/>
       <use xlink:href="#DejaVuSans-30" x="127.246094"/>
       <use xlink:href="#DejaVuSans-30" x="190.869141"/>
       <use xlink:href="#DejaVuSans-30" x="254.492188"/>
       <use xlink:href="#DejaVuSans-30" x="318.115234"/>
      </g>
     </g>
    </g>
    <g id="xtick_6">
     <g id="line2d_6">
      <g>
       <use xlink:href="#m7f09622d0f" x="620.615353" y="320.4" style="stroke: #000000; stroke-width: 0.8"/>
      </g>
     </g>
     <g id="text_6">
      <!-- 500000 -->
      <g transform="translate(601.527853 334.998438) scale(0.1 -0.1)">
       <defs>
        <path id="DejaVuSans-35" d="M 691 4666 
L 3169 4666 
L 3169 4134 
L 1269 4134 
L 1269 2991 
Q 1406 3038 1543 3061 
Q 1681 3084 1819 3084 
Q 2600 3084 3056 2656 
Q 3513 2228 3513 1497 
Q 3513 744 3044 326 
Q 2575 -91 1722 -91 
Q 1428 -91 1123 -41 
Q 819 9 494 109 
L 494 744 
Q 775 591 1075 516 
Q 1375 441 1709 441 
Q 2250 441 2565 725 
Q 2881 1009 2881 1497 
Q 2881 1984 2565 2268 
Q 2250 2553 1709 2553 
Q 1456 2553 1204 2497 
Q 953 2441 691 2322 
L 691 4666 
z
" transform="scale(0.015625)"/>
       </defs>
       <use xlink:href="#DejaVuSans-35"/>
       <use xlink:href="#DejaVuSans-30" x="63.623047"/>
       <use xlink:href="#DejaVuSans-30" x="127.246094"/>
       <use xlink:href="#DejaVuSans-30" x="190.869141"/>
       <use xlink:href="#DejaVuSans-30" x="254.492188"/>
       <use xlink:href="#DejaVuSans-30" x="318.115234"/>
      </g>
     </g>
    </g>
    <g id="text_7">
     <!-- Time step -->
     <g transform="translate(344.361719 348.676562) scale(0.1 -0.1)">
      <defs>
       <path id="DejaVuSans-54" d="M -19 4666 
L 3928 4666 
L 3928 4134 
L 2272 4134 
L 2272 0 
L 1638 0 
L 1638 4134 
L -19 4134 
L -19 4666 
z
" transform="scale(0.015625)"/>
       <path id="DejaVuSans-69" d="M 603 3500 
L 1178 3500 
L 1178 0 
L 603 0 
L 603 3500 
z
M 603 4863 
L 1178 4863 
L 1178 4134 
L 603 4134 
L 603 4863 
z
" transform="scale(0.015625)"/>
       <path id="DejaVuSans-6d" d="M 3328 2828 
Q 3544 3216 3844 3400 
Q 4144 3584 4550 3584 
Q 5097 3584 5394 3201 
Q 5691 2819 5691 2113 
L 5691 0 
L 5113 0 
L 5113 2094 
Q 5113 2597 4934 2840 
Q 4756 3084 4391 3084 
Q 3944 3084 3684 2787 
Q 3425 2491 3425 1978 
L 3425 0 
L 2847 0 
L 2847 2094 
Q 2847 2600 2669 2842 
Q 2491 3084 2119 3084 
Q 1678 3084 1418 2786 
Q 1159 2488 1159 1978 
L 1159 0 
L 581 0 
L 581 3500 
L 1159 3500 
L 1159 2956 
Q 1356 3278 1631 3431 
Q 1906 3584 2284 3584 
Q 2666 3584 2933 3390 
Q 3200 3197 3328 2828 
z
" transform="scale(0.015625)"/>
       <path id="DejaVuSans-65" d="M 3597 1894 
L 3597 1613 
L 953 1613 
Q 991 1019 1311 708 
Q 1631 397 2203 397 
Q 2534 397 2845 478 
Q 3156 559 3463 722 
L 3463 178 
Q 3153 47 2828 -22 
Q 2503 -91 2169 -91 
Q 1331 -91 842 396 
Q 353 884 353 1716 
Q 353 2575 817 3079 
Q 1281 3584 2069 3584 
Q 2775 3584 3186 3129 
Q 3597 2675 3597 1894 
z
M 3022 2063 
Q 3016 2534 2758 2815 
Q 2500 3097 2075 3097 
Q 1594 3097 1305 2825 
Q 1016 2553 972 2059 
L 3022 2063 
z
" transform="scale(0.015625)"/>
       <path id="DejaVuSans-20" transform="scale(0.015625)"/>
       <path id="DejaVuSans-73" d="M 2834 3397 
L 2834 2853 
Q 2591 2978 2328 3040 
Q 2066 3103 1784 3103 
Q 1356 3103 1142 2972 
Q 928 2841 928 2578 
Q 928 2378 1081 2264 
Q 1234 2150 1697 2047 
L 1894 2003 
Q 2506 1872 2764 1633 
Q 3022 1394 3022 966 
Q 3022 478 2636 193 
Q 2250 -91 1575 -91 
Q 1294 -91 989 -36 
Q 684 19 347 128 
L 347 722 
Q 666 556 975 473 
Q 1284 391 1588 391 
Q 1994 391 2212 530 
Q 2431 669 2431 922 
Q 2431 1156 2273 1281 
Q 2116 1406 1581 1522 
L 1381 1569 
Q 847 1681 609 1914 
Q 372 2147 372 2553 
Q 372 3047 722 3315 
Q 1072 3584 1716 3584 
Q 2034 3584 2315 3537 
Q 2597 3491 2834 3397 
z
" transform="scale(0.015625)"/>
       <path id="DejaVuSans-74" d="M 1172 4494 
L 1172 3500 
L 2356 3500 
L 2356 3053 
L 1172 3053 
L 1172 1153 
Q 1172 725 1289 603 
Q 1406 481 1766 481 
L 2356 481 
L 2356 0 
L 1766 0 
Q 1100 0 847 248 
Q 594 497 594 1153 
L 594 3053 
L 172 3053 
L 172 3500 
L 594 3500 
L 594 4494 
L 1172 4494 
z
" transform="scale(0.015625)"/>
       <path id="DejaVuSans-70" d="M 1159 525 
L 1159 -1331 
L 581 -1331 
L 581 3500 
L 1159 3500 
L 1159 2969 
Q 1341 3281 1617 3432 
Q 1894 3584 2278 3584 
Q 2916 3584 3314 3078 
Q 3713 2572 3713 1747 
Q 3713 922 3314 415 
Q 2916 -91 2278 -91 
Q 1894 -91 1617 61 
Q 1341 213 1159 525 
z
M 3116 1747 
Q 3116 2381 2855 2742 
Q 2594 3103 2138 3103 
Q 1681 3103 1420 2742 
Q 1159 2381 1159 1747 
Q 1159 1113 1420 752 
Q 1681 391 2138 391 
Q 2594 391 2855 752 
Q 3116 1113 3116 1747 
z
" transform="scale(0.015625)"/>
      </defs>
      <use xlink:href="#DejaVuSans-54"/>
      <use xlink:href="#DejaVuSans-69" x="57.958984"/>
      <use xlink:href="#DejaVuSans-6d" x="85.742188"/>
      <use xlink:href="#DejaVuSans-65" x="183.154297"/>
      <use xlink:href="#DejaVuSans-20" x="244.677734"/>
      <use xlink:href="#DejaVuSans-73" x="276.464844"/>
      <use xlink:href="#DejaVuSans-74" x="328.564453"/>
      <use xlink:href="#DejaVuSans-65" x="367.773438"/>
      <use xlink:href="#DejaVuSans-70" x="429.296875"/>
     </g>
    </g>
   </g>
   <g id="matplotlib.axis_2">
    <g id="ytick_1">
     <g id="line2d_7">
      <defs>
       <path id="ma138574ab0" d="M 0 0 
L -3.5 0 
" style="stroke: #000000; stroke-width: 0.8"/>
      </defs>
      <g>
       <use xlink:href="#ma138574ab0" x="90" y="311.248905" style="stroke: #000000; stroke-width: 0.8"/>
      </g>
     </g>
     <g id="text_8">
      <!-- −10 -->
      <g transform="translate(61.895313 315.048124) scale(0.1 -0.1)">
       <defs>
        <path id="DejaVuSans-2212" d="M 678 2272 
L 4684 2272 
L 4684 1741 
L 678 1741 
L 678 2272 
z
" transform="scale(0.015625)"/>
       </defs>
       <use xlink:href="#DejaVuSans-2212"/>
       <use xlink:href="#DejaVuSans-31" x="83.789062"/>
       <use xlink:href="#DejaVuSans-30" x="147.412109"/>
      </g>
     </g>
    </g>
    <g id="ytick_2">
     <g id="line2d_8">
      <g>
       <use xlink:href="#ma138574ab0" x="90" y="264.80365" style="stroke: #000000; stroke-width: 0.8"/>
      </g>
     </g>
     <g id="text_9">
      <!-- −8 -->
      <g transform="translate(68.257812 268.602868) scale(0.1 -0.1)">
       <defs>
        <path id="DejaVuSans-38" d="M 2034 2216 
Q 1584 2216 1326 1975 
Q 1069 1734 1069 1313 
Q 1069 891 1326 650 
Q 1584 409 2034 409 
Q 2484 409 2743 651 
Q 3003 894 3003 1313 
Q 3003 1734 2745 1975 
Q 2488 2216 2034 2216 
z
M 1403 2484 
Q 997 2584 770 2862 
Q 544 3141 544 3541 
Q 544 4100 942 4425 
Q 1341 4750 2034 4750 
Q 2731 4750 3128 4425 
Q 3525 4100 3525 3541 
Q 3525 3141 3298 2862 
Q 3072 2584 2669 2484 
Q 3125 2378 3379 2068 
Q 3634 1759 3634 1313 
Q 3634 634 3220 271 
Q 2806 -91 2034 -91 
Q 1263 -91 848 271 
Q 434 634 434 1313 
Q 434 1759 690 2068 
Q 947 2378 1403 2484 
z
M 1172 3481 
Q 1172 3119 1398 2916 
Q 1625 2713 2034 2713 
Q 2441 2713 2670 2916 
Q 2900 3119 2900 3481 
Q 2900 3844 2670 4047 
Q 2441 4250 2034 4250 
Q 1625 4250 1398 4047 
Q 1172 3844 1172 3481 
z
" transform="scale(0.015625)"/>
       </defs>
       <use xlink:href="#DejaVuSans-2212"/>
       <use xlink:href="#DejaVuSans-38" x="83.789062"/>
      </g>
     </g>
    </g>
    <g id="ytick_3">
     <g id="line2d_9">
      <g>
       <use xlink:href="#ma138574ab0" x="90" y="218.358394" style="stroke: #000000; stroke-width: 0.8"/>
      </g>
     </g>
     <g id="text_10">
      <!-- −6 -->
      <g transform="translate(68.257812 222.157613) scale(0.1 -0.1)">
       <defs>
        <path id="DejaVuSans-36" d="M 2113 2584 
Q 1688 2584 1439 2293 
Q 1191 2003 1191 1497 
Q 1191 994 1439 701 
Q 1688 409 2113 409 
Q 2538 409 2786 701 
Q 3034 994 3034 1497 
Q 3034 2003 2786 2293 
Q 2538 2584 2113 2584 
z
M 3366 4563 
L 3366 3988 
Q 3128 4100 2886 4159 
Q 2644 4219 2406 4219 
Q 1781 4219 1451 3797 
Q 1122 3375 1075 2522 
Q 1259 2794 1537 2939 
Q 1816 3084 2150 3084 
Q 2853 3084 3261 2657 
Q 3669 2231 3669 1497 
Q 3669 778 3244 343 
Q 2819 -91 2113 -91 
Q 1303 -91 875 529 
Q 447 1150 447 2328 
Q 447 3434 972 4092 
Q 1497 4750 2381 4750 
Q 2619 4750 2861 4703 
Q 3103 4656 3366 4563 
z
" transform="scale(0.015625)"/>
       </defs>
       <use xlink:href="#DejaVuSans-2212"/>
       <use xlink:href="#DejaVuSans-36" x="83.789062"/>
      </g>
     </g>
    </g>
    <g id="ytick_4">
     <g id="line2d_10">
      <g>
       <use xlink:href="#ma138574ab0" x="90" y="171.913139" style="stroke: #000000; stroke-width: 0.8"/>
      </g>
     </g>
     <g id="text_11">
      <!-- −4 -->
      <g transform="translate(68.257812 175.712357) scale(0.1 -0.1)">
       <use xlink:href="#DejaVuSans-2212"/>
       <use xlink:href="#DejaVuSans-34" x="83.789062"/>
      </g>
     </g>
    </g>
    <g id="ytick_5">
     <g id="line2d_11">
      <g>
       <use xlink:href="#ma138574ab0" x="90" y="125.467883" style="stroke: #000000; stroke-width: 0.8"/>
      </g>
     </g>
     <g id="text_12">
      <!-- −2 -->
      <g transform="translate(68.257812 129.267102) scale(0.1 -0.1)">
       <use xlink:href="#DejaVuSans-2212"/>
       <use xlink:href="#DejaVuSans-32" x="83.789062"/>
      </g>
     </g>
    </g>
    <g id="ytick_6">
     <g id="line2d_12">
      <g>
       <use xlink:href="#ma138574ab0" x="90" y="79.022628" style="stroke: #000000; stroke-width: 0.8"/>
      </g>
     </g>
     <g id="text_13">
      <!-- 0 -->
      <g transform="translate(76.6375 82.821846) scale(0.1 -0.1)">
       <use xlink:href="#DejaVuSans-30"/>
      </g>
     </g>
    </g>
    <g id="text_14">
     <!-- Average reward -->
     <g transform="translate(55.815625 221.236719) rotate(-90) scale(0.1 -0.1)">
      <defs>
       <path id="DejaVuSans-41" d="M 2188 4044 
L 1331 1722 
L 3047 1722 
L 2188 4044 
z
M 1831 4666 
L 2547 4666 
L 4325 0 
L 3669 0 
L 3244 1197 
L 1141 1197 
L 716 0 
L 50 0 
L 1831 4666 
z
" transform="scale(0.015625)"/>
       <path id="DejaVuSans-76" d="M 191 3500 
L 800 3500 
L 1894 563 
L 2988 3500 
L 3597 3500 
L 2284 0 
L 1503 0 
L 191 3500 
z
" transform="scale(0.015625)"/>
       <path id="DejaVuSans-72" d="M 2631 2963 
Q 2534 3019 2420 3045 
Q 2306 3072 2169 3072 
Q 1681 3072 1420 2755 
Q 1159 2438 1159 1844 
L 1159 0 
L 581 0 
L 581 3500 
L 1159 3500 
L 1159 2956 
Q 1341 3275 1631 3429 
Q 1922 3584 2338 3584 
Q 2397 3584 2469 3576 
Q 2541 3569 2628 3553 
L 2631 2963 
z
" transform="scale(0.015625)"/>
       <path id="DejaVuSans-61" d="M 2194 1759 
Q 1497 1759 1228 1600 
Q 959 1441 959 1056 
Q 959 750 1161 570 
Q 1363 391 1709 391 
Q 2188 391 2477 730 
Q 2766 1069 2766 1631 
L 2766 1759 
L 2194 1759 
z
M 3341 1997 
L 3341 0 
L 2766 0 
L 2766 531 
Q 2569 213 2275 61 
Q 1981 -91 1556 -91 
Q 1019 -91 701 211 
Q 384 513 384 1019 
Q 384 1609 779 1909 
Q 1175 2209 1959 2209 
L 2766 2209 
L 2766 2266 
Q 2766 2663 2505 2880 
Q 2244 3097 1772 3097 
Q 1472 3097 1187 3025 
Q 903 2953 641 2809 
L 641 3341 
Q 956 3463 1253 3523 
Q 1550 3584 1831 3584 
Q 2591 3584 2966 3190 
Q 3341 2797 3341 1997 
z
" transform="scale(0.015625)"/>
       <path id="DejaVuSans-67" d="M 2906 1791 
Q 2906 2416 2648 2759 
Q 2391 3103 1925 3103 
Q 1463 3103 1205 2759 
Q 947 2416 947 1791 
Q 947 1169 1205 825 
Q 1463 481 1925 481 
Q 2391 481 2648 825 
Q 2906 1169 2906 1791 
z
M 3481 434 
Q 3481 -459 3084 -895 
Q 2688 -1331 1869 -1331 
Q 1566 -1331 1297 -1286 
Q 1028 -1241 775 -1147 
L 775 -588 
Q 1028 -725 1275 -790 
Q 1522 -856 1778 -856 
Q 2344 -856 2625 -561 
Q 2906 -266 2906 331 
L 2906 616 
Q 2728 306 2450 153 
Q 2172 0 1784 0 
Q 1141 0 747 490 
Q 353 981 353 1791 
Q 353 2603 747 3093 
Q 1141 3584 1784 3584 
Q 2172 3584 2450 3431 
Q 2728 3278 2906 2969 
L 2906 3500 
L 3481 3500 
L 3481 434 
z
" transform="scale(0.015625)"/>
       <path id="DejaVuSans-77" d="M 269 3500 
L 844 3500 
L 1563 769 
L 2278 3500 
L 2956 3500 
L 3675 769 
L 4391 3500 
L 4966 3500 
L 4050 0 
L 3372 0 
L 2619 2869 
L 1863 0 
L 1184 0 
L 269 3500 
z
" transform="scale(0.015625)"/>
       <path id="DejaVuSans-64" d="M 2906 2969 
L 2906 4863 
L 3481 4863 
L 3481 0 
L 2906 0 
L 2906 525 
Q 2725 213 2448 61 
Q 2172 -91 1784 -91 
Q 1150 -91 751 415 
Q 353 922 353 1747 
Q 353 2572 751 3078 
Q 1150 3584 1784 3584 
Q 2172 3584 2448 3432 
Q 2725 3281 2906 2969 
z
M 947 1747 
Q 947 1113 1208 752 
Q 1469 391 1925 391 
Q 2381 391 2643 752 
Q 2906 1113 2906 1747 
Q 2906 2381 2643 2742 
Q 2381 3103 1925 3103 
Q 1469 3103 1208 2742 
Q 947 2381 947 1747 
z
" transform="scale(0.015625)"/>
      </defs>
      <use xlink:href="#DejaVuSans-41"/>
      <use xlink:href="#DejaVuSans-76" x="62.533203"/>
      <use xlink:href="#DejaVuSans-65" x="121.712891"/>
      <use xlink:href="#DejaVuSans-72" x="183.236328"/>
      <use xlink:href="#DejaVuSans-61" x="224.349609"/>
      <use xlink:href="#DejaVuSans-67" x="285.628906"/>
      <use xlink:href="#DejaVuSans-65" x="349.105469"/>
      <use xlink:href="#DejaVuSans-20" x="410.628906"/>
      <use xlink:href="#DejaVuSans-72" x="442.416016"/>
      <use xlink:href="#DejaVuSans-65" x="481.279297"/>
      <use xlink:href="#DejaVuSans-77" x="542.802734"/>
      <use xlink:href="#DejaVuSans-61" x="624.589844"/>
      <use xlink:href="#DejaVuSans-72" x="685.869141"/>
      <use xlink:href="#DejaVuSans-64" x="725.232422"/>
     </g>
    </g>
   </g>
   <g id="line2d_13">
    <path d="M 115.363636 79.022628 
L 622.636364 79.022628 
L 622.636364 79.022628 
" clip-path="url(#p394b204f46)" style="fill: none; stroke-dasharray: 5.55,2.4; stroke-dashoffset: 0; stroke: #1f77b4; stroke-width: 1.5"/>
   </g>
   <g id="line2d_14">
    <path d="M 115.363636 55.8 
L 115.464687 307.8 
L 115.491971 258.997993 
L 115.642536 193.794387 
L 115.504097 259.827372 
L 115.644557 201.128703 
L 115.665777 222.770693 
L 115.781986 187.469501 
L 115.844637 182.136937 
L 115.855753 194.041257 
L 115.893141 207.344234 
L 115.965898 191.129182 
L 116.082106 182.024114 
L 115.995202 193.280924 
L 116.099284 185.706551 
L 116.146778 193.819019 
L 116.21044 186.998159 
L 116.241766 182.483438 
L 116.269049 192.158506 
L 116.29027 191.745971 
L 116.353932 193.620733 
L 116.351911 189.110692 
L 116.394352 190.9052 
L 116.468119 187.090633 
L 116.474182 192.750169 
L 116.493381 190.570102 
L 116.582306 202.50467 
L 116.608579 199.67482 
L 116.646978 200.76328 
L 116.80967 189.427411 
L 116.908699 195.484865 
L 116.923857 194.309071 
L 116.948109 192.397598 
L 117.016823 195.859257 
L 117.023897 195.277023 
L 117.082506 196.691219 
L 117.133031 194.353726 
L 117.23004 196.731694 
L 117.173452 192.945686 
L 117.245198 195.709165 
L 117.308859 194.026482 
L 117.259345 197.300902 
L 117.353322 194.864639 
L 117.355343 197.102389 
L 117.427089 194.078642 
L 117.463467 194.108118 
L 117.627169 188.990734 
L 117.646368 189.145151 
L 117.647379 190.123541 
L 117.755503 187.859082 
L 117.795923 186.031879 
L 117.821186 187.929402 
L 117.874742 186.569737 
L 117.936383 191.151358 
L 117.98893 189.944406 
L 118.053602 187.662318 
L 118.080886 190.111391 
L 118.083917 189.987638 
L 118.104127 190.941484 
L 118.166778 188.499534 
L 118.193052 188.503099 
L 118.194062 188.472314 
L 118.215283 190.973298 
L 118.280966 193.921564 
L 118.327449 192.009339 
L 118.375953 190.299666 
L 118.41031 192.333035 
L 118.437594 191.983961 
L 118.493172 193.823965 
L 118.54875 192.403259 
L 118.750851 187.75273 
L 118.76904 187.847264 
L 118.836744 190.076503 
L 118.881206 188.706527 
L 118.927689 189.270868 
L 119.011561 188.042286 
L 119.019645 189.713517 
L 119.08937 187.988889 
L 119.123727 189.083658 
L 119.261156 187.298581 
L 119.127769 189.601227 
L 119.26924 187.699239 
L 119.373322 189.600718 
L 119.303597 187.353209 
L 119.382417 189.368055 
L 119.419805 189.085737 
L 119.393532 189.756547 
L 119.466289 189.646054 
L 119.467299 190.201959 
L 119.575423 189.041846 
L 119.854323 185.193661 
L 119.855333 185.692107 
L 119.961436 183.246353 
L 119.977604 183.369364 
L 120.227199 180.335803 
L 120.26964 181.535035 
L 120.339365 181.037156 
L 120.556624 178.125418 
L 120.565718 178.412227 
L 120.659695 178.948151 
L 120.601086 178.180202 
L 120.676874 178.594226 
L 120.731441 178.875993 
L 120.821376 177.669358 
L 120.857755 178.933734 
L 120.931521 177.669283 
L 121.046719 176.454453 
L 121.092192 176.50442 
L 121.150801 178.594509 
L 121.207389 178.200593 
L 121.500436 174.956473 
L 121.501446 175.319124 
L 121.60755 174.235401 
L 121.60856 174.257568 
L 121.643928 174.11361 
L 121.656054 175.11986 
L 121.680306 174.858683 
L 121.705569 174.880248 
L 122.011752 171.394335 
L 122.197685 169.430886 
L 122.209811 169.630631 
L 122.250231 170.809246 
L 122.322987 170.544325 
L 122.570561 168.442604 
L 122.601887 169.089729 
L 122.679696 168.151208 
L 122.80702 167.377051 
L 122.713043 168.426871 
L 122.82723 167.461637 
L 122.852492 168.084476 
L 122.939396 167.967336 
L 123.133413 166.92737 
L 123.138465 167.473829 
L 123.225369 166.752886 
L 123.243558 166.860081 
L 123.371892 165.918501 
L 123.246589 167.112049 
L 123.399176 166.041052 
L 123.400186 166.322074 
L 123.50831 165.540672 
L 123.533573 165.250203 
L 123.537615 166.065859 
L 123.623508 165.473298 
L 123.635634 165.928072 
L 123.731632 164.939621 
L 124.0267 163.053655 
L 125.003858 156.615558 
L 125.033163 156.657061 
L 125.034174 156.891585 
L 125.100867 156.36793 
L 125.143308 156.526558 
L 125.170592 156.822977 
L 125.292863 155.924098 
L 125.293873 156.150201 
L 125.401998 155.656131 
L 125.529321 154.979199 
L 125.638456 152.629069 
L 125.649571 152.649969 
L 125.684939 152.714992 
L 125.796095 150.966328 
L 125.803168 150.991873 
L 125.815294 150.980262 
L 125.816305 151.214811 
L 125.829441 151.207844 
L 125.882998 151.240355 
L 125.892093 151.477226 
L 125.985059 150.072257 
L 125.988091 150.090835 
L 125.989101 150.09548 
L 125.998196 149.644961 
L 126.081057 149.995623 
L 126.083078 149.997945 
L 126.197265 149.171219 
L 126.201307 149.173542 
L 126.208381 148.934349 
L 126.222528 148.957571 
L 126.303368 147.982221 
L 126.336715 148.056533 
L 126.34682 148.079756 
L 126.465049 146.03152 
L 126.46606 146.038487 
L 126.488291 145.824839 
L 126.528711 146.110477 
L 126.648961 143.391107 
L 126.650982 143.402719 
L 126.658056 143.428264 
L 126.670182 142.987034 
L 126.675234 142.994 
L 126.68635 143.005612 
L 126.800537 141.972205 
L 126.801548 141.974527 
L 127.008701 139.956481 
L 126.858136 142.027939 
L 127.012743 139.963447 
L 127.121878 138.934685 
L 127.053163 139.98667 
L 127.127941 138.948619 
L 127.132993 138.932363 
L 127.24617 137.669052 
L 127.249202 137.673696 
L 127.301748 137.07223 
L 127.255265 137.696919 
L 127.307811 137.086164 
L 127.421998 135.813564 
L 127.424019 135.815886 
L 127.458376 136.087591 
L 127.460397 135.623138 
L 127.464439 135.632427 
L 127.484649 135.657972 
L 128.040427 130.964679 
L 128.094995 130.486293 
L 128.151583 130.727808 
L 128.158656 130.732453 
L 128.163709 130.483971 
L 128.167751 130.490938 
L 128.28497 129.067391 
L 128.348631 127.646166 
L 128.349642 127.648488 
L 128.38602 126.582569 
L 128.46484 126.617403 
L 128.504249 126.071672 
L 128.602268 124.15116 
L 128.622478 124.204572 
L 128.624499 124.206895 
L 128.734645 123.846944 
L 128.736666 123.849266 
L 128.738687 123.851588 
L 128.790222 123.287278 
L 128.851863 123.329079 
L 128.855905 123.340691 
L 128.877126 122.876238 
L 128.892283 122.883205 
L 128.941798 121.986811 
L 129.00647 122.088991 
L 129.119647 120.621321 
L 129.023649 122.109891 
L 129.123689 120.628288 
L 129.233834 119.57398 
L 129.238887 119.583269 
L 129.313664 119.555402 
L 129.415725 118.031998 
L 129.429872 118.285124 
L 129.512734 117.035747 
L 129.52486 117.054325 
L 129.628942 115.997696 
L 129.640057 116.009307 
L 129.652183 115.969828 
L 129.76435 115.296372 
L 129.76536 115.298695 
L 129.796686 115.266183 
L 129.902789 114.300122 
L 129.911883 114.302444 
L 129.959377 114.311733 
L 129.96443 114.077184 
L 130.008892 114.3187 
L 130.070533 114.276899 
L 130.081648 114.309411 
L 130.102869 113.891403 
L 130.193814 113.954104 
L 130.201898 113.928559 
L 130.316086 113.152924 
L 130.589933 111.165067 
L 130.633384 111.26028 
L 130.659657 111.329947 
L 130.679868 110.828339 
L 130.681889 110.828339 
L 130.70412 110.849239 
L 130.961799 108.17167 
L 131.074975 107.646839 
L 131.075986 107.649161 
L 131.08407 107.628261 
L 131.088112 107.630583 
L 131.202299 106.838691 
L 131.203309 106.843336 
L 131.222509 106.58092 
L 131.22453 106.583242 
L 131.340738 105.045904 
L 131.341749 105.048227 
L 131.497366 104.326003 
L 131.388232 105.064482 
L 131.594375 104.407282 
L 131.605491 104.409604 
L 131.668142 103.970697 
L 131.717657 103.989275 
L 131.718667 103.996242 
L 131.753024 103.476055 
L 131.866201 102.396203 
L 131.868222 102.405492 
L 131.876306 102.407814 
L 131.877316 102.17791 
L 131.893485 102.187199 
L 131.951083 102.217388 
L 131.952094 101.987484 
L 132.021819 102.273123 
L 132.061228 102.215066 
L 132.199668 102.119853 
L 132.366401 100.401379 
L 132.38459 100.41299 
L 132.412884 100.099485 
L 132.415916 100.106451 
L 132.529093 99.50963 
L 132.570523 99.558397 
L 132.697847 98.94532 
L 132.810013 98.390299 
L 132.811024 98.394944 
L 132.817087 98.406555 
L 132.821129 98.169684 
L 132.882769 98.202196 
L 132.906011 98.095372 
L 132.934305 97.584474 
L 133.042429 96.439599 
L 133.049503 96.462821 
L 133.16369 95.986757 
L 133.174805 96.003013 
L 133.288993 95.016051 
L 133.290003 95.018374 
L 133.294045 95.027663 
L 133.298087 94.783825 
L 133.311224 94.790792 
L 133.330423 94.769892 
L 133.440568 94.161459 
L 133.4436 94.170748 
L 133.475936 94.217193 
L 133.50423 93.864209 
L 133.552735 93.274354 
L 133.617407 93.316155 
L 133.631554 93.334733 
L 133.639638 93.09554 
L 133.668943 92.598576 
L 133.669953 92.600898 
L 133.751804 91.87403 
L 133.78313 91.901897 
L 133.897317 91.797395 
L 133.970073 91.69986 
L 133.980178 91.94602 
L 133.989273 91.932086 
L 134.032725 91.892608 
L 134.112555 91.137873 
L 134.146912 91.158773 
L 134.241899 91.103039 
L 134.190363 91.191285 
L 134.265141 91.161095 
L 134.269183 91.168062 
L 134.332845 91.047304 
L 134.4632 90.768633 
L 134.360128 91.082138 
L 134.479368 90.810434 
L 134.596587 90.708254 
L 134.790604 89.414754 
L 134.799698 89.437976 
L 134.868413 89.558734 
L 134.907822 89.5239 
L 135.00281 89.261484 
L 135.019988 89.27774 
L 135.108913 89.198783 
L 135.206932 88.492815 
L 135.22209 88.523005 
L 135.228153 88.541583 
L 135.257457 88.248978 
L 135.26251 88.255945 
L 135.352445 87.765947 
L 135.375686 87.775236 
L 135.392865 87.786847 
L 135.433285 87.503531 
L 135.537367 87.02979 
L 135.545451 87.036757 
L 135.556567 87.013534 
L 135.613155 87.148225 
L 135.617197 87.148225 
L 135.698038 87.262016 
L 135.701069 87.025145 
L 135.704101 87.027468 
L 135.771805 86.920643 
L 135.888013 86.869554 
L 135.819298 86.971733 
L 135.895086 86.87652 
L 135.908223 86.844009 
L 135.920349 86.874198 
L 135.996137 86.365623 
L 136.032515 86.484058 
L 136.060809 86.437613 
L 136.171965 85.710745 
L 136.173986 85.717711 
L 136.477137 85.225392 
L 136.191164 85.750223 
L 136.495326 85.253259 
L 136.499368 85.260226 
L 136.5216 85.004777 
L 136.56202 85.039611 
L 136.598398 85.123212 
L 136.710564 84.809707 
L 136.711575 84.812029 
L 136.76311 84.661082 
L 136.765131 84.661082 
L 136.849003 84.623926 
L 136.877297 84.656437 
L 137.126892 84.760939 
L 137.223901 84.201274 
L 137.239058 84.452078 
L 137.24209 84.466012 
L 137.334046 84.375443 
L 137.345161 84.400988 
L 137.434086 84.224496 
L 137.444191 84.470656 
L 137.447223 84.463689 
L 137.479559 84.470656 
L 137.46137 84.442789 
L 137.480569 84.468334 
L 137.539179 83.706632 
L 137.594756 83.734499 
L 137.88174 83.627675 
L 138.007043 83.448861 
L 137.931255 83.639286 
L 138.017148 83.465116 
L 138.055547 83.490661 
L 138.167713 83.1609 
L 138.200049 83.177156 
L 138.245522 82.826494 
L 138.312215 82.86365 
L 138.473896 82.763793 
L 138.598188 82.601235 
L 138.599199 82.603557 
L 138.74067 83.054076 
L 138.842731 82.886873 
L 139.006432 82.782371 
L 139.12062 82.078726 
L 139.238849 82.046214 
L 139.172155 82.090337 
L 139.24087 82.048536 
L 139.24188 82.050858 
L 139.285332 81.96029 
L 139.371225 81.563183 
L 139.397498 81.59105 
L 139.522801 81.509771 
L 139.635977 80.922239 
L 139.699639 80.546032 
L 139.804732 80.669112 
L 140.112936 80.638923 
L 140.225102 80.311484 
L 140.226113 80.316128 
L 140.291795 80.209304 
L 140.319079 80.220915 
L 140.530275 80.0003 
L 140.337268 80.251105 
L 140.532296 80.004945 
L 140.546443 80.018878 
L 140.595958 79.87722 
L 140.806143 79.429024 
L 140.8213 79.468502 
L 140.913256 79.403479 
L 140.914267 79.403479 
L 141.099189 79.296655 
L 141.170935 79.273432 
L 141.14163 79.324522 
L 141.205292 79.331489 
L 141.38011 79.013339 
L 141.275017 79.412768 
L 141.397288 79.043528 
L 141.398299 79.275754 
L 141.508444 79.117841 
L 141.608484 78.88097 
L 141.631726 79.073718 
L 141.741871 79.094618 
L 141.825743 78.811302 
L 141.854037 78.822913 
L 141.858079 78.832202 
L 141.994497 78.771823 
L 142.031886 78.815946 
L 142.059169 78.750923 
L 142.170325 78.379361 
L 142.171336 78.381683 
L 142.26026 78.270215 
L 142.323922 78.307371 
L 142.598779 78.200547 
L 142.64021 78.219125 
L 142.712966 78.181969 
L 142.715998 78.188935 
L 142.775618 78.058889 
L 142.94033 77.541024 
L 142.943362 77.543346 
L 142.974687 77.489934 
L 143.048454 77.573536 
L 143.147484 77.60837 
L 143.092917 77.517801 
L 143.161631 77.585147 
L 143.21923 77.478323 
L 143.31927 77.380788 
L 143.34049 77.408655 
L 143.441541 77.492257 
L 143.467814 77.473678 
L 143.602211 77.273964 
L 143.622421 77.285575 
L 143.724482 77.178751 
L 143.813407 77.113728 
L 143.747724 77.195007 
L 143.83968 77.171784 
L 144.147884 76.584252 
L 144.191336 76.639986 
L 144.214578 76.672498 
L 144.277229 76.465816 
L 144.572297 76.054776 
L 144.348975 76.505295 
L 144.574318 76.05942 
L 144.617769 76.054776 
L 144.654147 75.975819 
L 144.656168 75.975819 
L 144.780461 75.899184 
L 144.784503 75.908473 
L 144.874438 75.801649 
L 145.044203 75.543878 
L 145.275608 75.434732 
L 145.467604 75.074781 
L 145.477709 75.093359 
L 145.517119 75.01208 
L 145.57977 75.070136 
L 145.642422 75.121226 
L 145.827344 74.777531 
L 145.985994 74.668385 
L 146.245694 74.268956 
L 145.993067 74.67303 
L 146.267925 74.296823 
L 146.374028 74.187677 
L 146.51853 74.069241 
L 146.529646 74.106397 
L 146.576129 74.192321 
L 146.642822 74.090142 
L 146.774188 73.857915 
L 146.785303 73.871849 
L 146.794398 73.88346 
L 146.861091 73.795214 
L 146.884333 73.806826 
L 147.035909 73.572277 
L 146.886354 73.809148 
L 147.046014 73.581566 
L 147.07734 73.5955 
L 147.052077 73.562988 
L 147.149085 73.54441 
L 147.275399 73.432941 
L 147.210726 73.579244 
L 147.276409 73.437586 
L 147.343102 73.484031 
L 147.448195 73.142658 
L 147.455269 73.163559 
L 147.545204 73.098535 
L 147.645244 72.829153 
L 147.65737 72.845409 
L 147.699811 72.736262 
L 147.945364 72.432046 
L 147.703853 72.743229 
L 147.949406 72.439013 
L 147.990836 72.462235 
L 147.963553 72.422757 
L 148.05753 72.413468 
L 148.227295 72.299677 
L 148.392007 72.195175 
L 148.516299 72.109251 
L 148.602192 72.051195 
L 148.661812 72.313611 
L 148.713348 72.267165 
L 149.067025 71.721434 
L 148.722442 72.274132 
L 149.068035 71.726078 
L 149.096329 71.742334 
L 149.162012 71.619254 
L 149.164033 71.619254 
L 149.360071 71.412573 
L 149.364113 71.426506 
L 149.409586 71.470629 
L 149.47729 71.456696 
L 149.482343 71.46134 
L 149.572277 71.400961 
L 149.581372 71.414895 
L 149.710717 71.382383 
L 149.713748 71.384705 
L 149.75821 71.380061 
L 149.749116 71.352194 
L 149.81682 71.33826 
L 150.108856 70.943476 
L 150.322073 70.834329 
L 150.508006 70.62997 
L 150.513058 70.669449 
L 150.570657 70.669449 
L 150.600972 70.625326 
L 150.614109 70.627648 
L 150.621182 70.604425 
L 150.722233 70.655515 
L 150.723243 70.660159 
L 150.7576 70.602103 
L 150.830357 70.632292 
L 150.851577 70.643904 
L 150.985975 70.551013 
L 150.986985 70.553335 
L 151.061763 70.451156 
L 151.178981 70.288597 
L 151.205254 70.302531 
L 151.229506 70.33272 
L 151.307315 70.228219 
L 151.308326 70.228219 
L 151.312368 70.232863 
L 151.43666 70.11675 
L 151.502343 70.084238 
L 151.612488 69.733577 
L 151.614509 69.735899 
L 151.897451 69.245901 
L 151.925745 69.296991 
L 151.947976 69.33647 
L 152.023764 69.236612 
L 152.030837 69.241257 
L 152.25618 69.134433 
L 152.391588 69.027609 
L 152.282453 69.146044 
L 152.392598 69.029931 
L 152.588636 68.84415 
L 152.591668 68.848795 
L 152.714949 68.869695 
L 152.604804 68.827894 
L 152.717981 68.862728 
L 152.91604 68.674625 
L 152.722023 68.86505 
L 152.917051 68.681592 
L 153.041343 68.760549 
L 153.045385 68.751259 
L 153.177761 68.602635 
L 153.052458 68.755904 
L 153.178771 68.604957 
L 153.252538 68.495811 
L 153.183824 68.609601 
L 153.303064 68.556189 
L 153.420282 68.556189 
L 153.338431 68.604957 
L 153.421293 68.560834 
L 153.518301 68.451688 
L 153.676951 68.349508 
L 153.678972 68.358797 
L 153.900272 68.249651 
L 154.019512 68.13586 
L 154.05589 68.168372 
L 154.145825 68.191594 
L 154.078121 68.152116 
L 154.169067 68.152116 
L 154.301443 68.010458 
L 154.200392 68.173016 
L 154.311548 68.017424 
L 154.408557 68.089415 
L 154.319632 67.99188 
L 154.436851 68.031358 
L 154.526786 67.977946 
L 154.450998 68.036003 
L 154.553059 67.998846 
L 155.111868 67.8897 
L 155.277591 67.752686 
L 155.329127 68.029036 
L 155.389757 68.003491 
L 155.571648 67.943112 
L 155.572659 68.177661 
L 155.682804 68.149793 
L 155.762634 68.042969 
L 155.904105 67.875766 
L 155.909157 67.887378 
L 155.964735 67.894345 
L 156.002124 67.824677 
L 156.039512 67.734108 
L 156.116311 67.757331 
L 156.13551 67.785198 
L 156.217361 67.703919 
L 156.219382 67.703919 
L 156.232519 67.71553 
L 156.33559 67.692308 
L 156.579122 67.587806 
L 156.592259 67.555294 
L 156.625606 67.813065 
L 156.676131 67.692308 
L 156.785265 67.662118 
L 156.693309 67.717853 
L 156.798402 67.687663 
L 156.91461 67.578517 
L 157.002524 67.543683 
L 156.927747 67.590128 
L 157.03486 67.578517 
L 157.037892 67.585484 
L 157.071238 67.504204 
L 157.129848 67.525105 
L 157.241003 67.471693 
L 157.247066 67.483304 
L 157.251108 67.490271 
L 157.341043 67.357902 
L 157.466346 67.199988 
L 157.475441 67.204632 
L 157.689668 67.095486 
L 157.770508 67.028141 
L 157.772529 67.030463 
L 157.789708 67.281267 
L 157.883685 67.204632 
L 158.039303 67.100131 
L 158.043345 67.114064 
L 158.155511 67.118709 
L 158.095891 67.07923 
L 158.161574 67.111742 
L 158.286877 66.98634 
L 158.350538 67.00724 
L 158.423295 67.362546 
L 158.462704 67.309134 
L 158.645606 67.265011 
L 158.650658 67.497238 
L 158.75272 67.186054 
L 158.755751 67.190699 
L 158.898232 67.025818 
L 158.903285 67.032785 
L 158.905306 67.044396 
L 158.995241 66.960795 
L 159.002314 66.965439 
L 159.15389 66.856293 
L 159.171069 66.872549 
L 159.287277 66.826104 
L 159.409548 66.921316 
L 159.296371 66.819137 
L 159.418643 66.907383 
L 159.435821 66.916672 
L 159.49241 66.814492 
L 159.498473 66.819137 
L 159.617712 66.777336 
L 159.520704 66.830748 
L 159.619733 66.779658 
L 159.621754 66.784303 
L 159.682385 66.705346 
L 159.715731 66.700701 
L 159.864276 66.563688 
L 159.722805 66.705346 
L 159.880444 66.598522 
L 159.956232 66.642645 
L 159.99362 66.607811 
L 160.261404 66.498665 
L 160.398833 66.357007 
L 160.404896 66.361651 
L 160.61306 66.598522 
L 160.615081 66.579944 
L 160.7131 66.498665 
L 160.731289 66.524209 
L 160.9728 66.415063 
L 161.087998 66.396485 
L 161.018273 66.428997 
L 161.089008 66.398807 
L 161.257763 66.651934 
L 161.502305 66.542788 
L 161.618513 66.521887 
L 161.576072 66.568332 
L 161.619524 66.526532 
L 161.846887 66.417385 
L 161.974211 66.396485 
L 161.975221 66.398807 
L 162.167217 66.296628 
L 162.250079 66.240893 
L 162.282415 66.254827 
L 162.313741 66.268761 
L 162.380434 66.203737 
L 162.390539 66.192126 
L 162.446117 66.254827 
L 162.479464 66.252505 
L 162.555252 66.275727 
L 162.577483 66.206059 
L 162.655292 66.157292 
L 162.688638 66.215349 
L 162.885687 66.415063 
L 162.719964 66.194448 
L 162.89175 66.405774 
L 163.041305 66.331462 
L 163.042315 66.336106 
L 163.153471 66.229282 
L 163.233301 66.19677 
L 163.267658 66.210704 
L 163.379824 66.101558 
L 163.387908 66.094591 
L 163.434391 66.159614 
L 163.474812 66.157292 
L 163.556662 66.152647 
L 163.579904 66.12478 
L 163.708238 66.057435 
L 163.727438 66.078335 
L 163.845667 66.013312 
L 163.846678 66.017956 
L 163.890129 65.957577 
L 163.948739 65.973833 
L 164.060905 65.936677 
L 164.086167 65.950611 
L 164.142756 65.887909 
L 164.159934 65.899521 
L 164.201365 65.850753 
L 164.27109 65.892554 
L 164.461065 65.783408 
L 164.597483 65.674261 
L 164.622746 65.685873 
L 164.707628 65.651039 
L 164.739964 65.702128 
L 164.79049 65.729996 
L 164.85112 65.685873 
L 164.954192 65.630138 
L 164.969349 65.64175 
L 165.314942 65.532603 
L 165.585757 65.179619 
L 165.587778 65.181942 
L 165.676703 65.184264 
L 165.788869 64.875403 
L 165.843436 64.819669 
L 165.901035 64.889336 
L 165.994002 64.933459 
L 165.91114 64.877725 
L 166.018254 64.905592 
L 166.72965 64.873081 
L 166.789269 64.582798 
L 166.841816 64.617632 
L 166.904467 64.508485 
L 167.016633 64.517774 
L 166.912551 64.522419 
L 167.018654 64.522419 
L 167.132841 64.589765 
L 167.027749 64.503841 
L 167.157093 64.566542 
L 167.26926 64.522419 
L 167.284417 64.550286 
L 167.402646 64.44114 
L 167.522896 64.394695 
L 167.525928 64.397017 
L 167.877584 64.355216 
L 167.880615 64.12299 
L 167.988739 64.167113 
L 168.096863 64.197302 
L 168.115053 64.181046 
L 168.255513 64.12299 
L 168.256523 64.127634 
L 168.33029 64.171757 
L 168.3697 64.148535 
L 168.721356 63.60977 
L 168.387889 64.171757 
L 168.722366 63.614414 
L 168.75066 63.60977 
L 168.841606 63.270719 
L 168.862827 63.296264 
L 169.119495 63.326454 
L 169.150821 63.57958 
L 169.230651 63.528491 
L 170.562497 63.533135 
L 170.615043 63.252141 
L 170.674663 63.263753 
L 170.677694 63.275364 
L 170.718115 63.217307 
L 170.784808 63.247497 
L 170.851501 63.298586 
L 170.904048 63.245174 
L 170.92931 63.270719 
L 171.017224 63.252141 
L 171.10918 63.300909 
L 171.12939 63.26143 
L 171.204168 63.280008 
L 171.246609 63.043138 
L 171.315323 63.073327 
L 172.003478 63.177829 
L 172.004488 63.187118 
L 172.103518 63.089583 
L 172.104528 63.089583 
L 172.10756 63.084938 
L 172.189411 63.163895 
L 172.193453 63.161573 
L 172.825018 63.159251 
L 172.841187 63.405411 
L 172.910911 63.142995 
L 172.935164 63.152284 
L 174.700517 63.259108 
L 174.753063 63.235885 
L 174.814704 63.280008 
L 174.919796 63.166218 
L 174.96729 63.203374 
L 175.094614 63.228919 
L 174.974364 63.191762 
L 175.096635 63.224274 
L 175.185559 63.284653 
L 175.211832 63.233563 
L 175.291662 63.263753 
L 175.32804 63.224274 
L 175.733253 63.328776 
L 175.738306 63.338065 
L 175.790852 63.296264 
L 175.839356 63.296264 
L 175.876745 63.26143 
L 175.949501 63.305553 
L 176.534584 63.196407 
L 176.660897 63.166218 
L 176.66595 63.170862 
L 176.720517 63.147639 
L 176.764979 63.38451 
L 176.831673 63.365932 
L 176.850872 63.403088 
L 176.924639 63.347354 
L 176.943839 63.372899 
L 177.703739 63.479723 
L 177.763359 63.516879 
L 177.795695 63.449534 
L 177.812873 63.461145 
L 178.709192 63.351999 
L 178.732433 63.345032 
L 178.793064 63.403088 
L 178.804179 63.407733 
L 178.931503 63.423989 
L 179.22455 63.4147 
L 179.294274 63.154606 
L 179.336716 63.163895 
L 179.407451 63.201051 
L 179.452924 63.156928 
L 179.570142 63.054749 
L 179.578226 63.059393 
L 179.608542 63.087261 
L 179.597426 63.04546 
L 179.677256 63.017593 
L 179.780328 62.985081 
L 179.791443 62.999015 
L 179.830853 63.026882 
L 179.883399 62.975792 
L 179.900578 62.978114 
L 179.962219 62.968825 
L 179.948071 63.001337 
L 180.009712 63.003659 
L 180.247181 62.896835 
L 180.375515 62.827167 
L 180.470503 62.85039 
L 180.421998 62.8202 
L 180.489702 62.845745 
L 180.769612 62.736599 
L 180.775675 62.743566 
L 180.891884 62.731954 
L 180.899968 62.743566 
L 180.985861 62.659964 
L 180.989903 62.662286 
L 181.085901 62.648353 
L 181.106111 62.669253 
L 181.127331 62.687831 
L 181.167752 62.641386 
L 181.208172 62.627453 
L 181.679067 62.518306 
L 181.82458 62.346459 
L 181.827612 62.355748 
L 181.911484 62.360392 
L 181.840748 62.334847 
L 181.939778 62.33717 
L 182.412694 62.228023 
L 182.513745 62.193189 
L 182.530923 62.207123 
L 182.646121 62.146744 
L 182.665321 62.174611 
L 182.930073 62.097977 
L 182.946241 61.842528 
L 183.041229 61.868073 
L 183.046281 61.879684 
L 183.135206 61.819305 
L 183.141269 61.826272 
L 183.22413 61.861106 
L 183.256466 61.816983 
L 183.273645 61.82395 
L 183.339328 61.777504 
L 183.36358 61.786793 
L 183.746561 61.679969 
L 183.872875 61.614946 
L 183.748582 61.682292 
L 183.873885 61.617268 
L 184.032534 61.580112 
L 184.036576 61.821627 
L 184.14369 61.803049 
L 184.458968 61.693903 
L 184.610544 61.584757 
L 184.618628 61.603335 
L 184.693405 61.635846 
L 184.641869 61.582434 
L 184.731804 61.601012 
L 185.366402 61.491866 
L 185.481599 61.463999 
L 185.490694 61.480255 
L 185.496757 61.491866 
L 185.578608 61.410587 
L 185.590734 61.422198 
L 185.726142 61.359497 
L 185.593765 61.426843 
L 185.733215 61.366464 
L 185.777677 61.378075 
L 185.836287 61.326985 
L 185.837297 61.326985 
L 185.887822 61.303763 
L 185.946432 61.35253 
L 186.420359 61.408265 
L 186.449664 61.663714 
L 186.531514 61.587079 
L 186.825572 61.62888 
L 186.937738 61.343241 
L 186.963 61.359497 
L 187.049904 61.340919 
L 187.236847 61.236417 
L 187.357097 61.169072 
L 187.258068 61.241062 
L 187.358108 61.171394 
L 187.48139 61.241062 
L 187.499579 61.220161 
L 187.558188 61.238739 
L 187.617808 61.194616 
L 187.718858 61.192294 
L 187.729974 61.178361 
L 187.815867 61.13656 
L 187.845172 61.18765 
L 187.992705 61.254995 
L 188.123061 61.124949 
L 188.640439 61.015802 
L 188.750584 60.997224 
L 188.651555 61.027414 
L 188.765742 61.004191 
L 189.167923 60.895045 
L 189.287163 60.888078 
L 189.188133 60.915945 
L 189.290194 60.8904 
L 190.164282 60.781254 
L 190.177418 60.76732 
L 190.24209 60.888078 
L 190.256238 60.878789 
L 191.633556 60.771965 
L 191.643662 60.76732 
L 191.682061 60.830021 
L 191.73966 60.806799 
L 193.714187 60.699974 
L 193.803112 60.693008 
L 193.818269 60.725519 
L 193.822311 60.725519 
L 194.137589 60.688363 
L 194.194177 60.430592 
L 194.249755 60.446848 
L 194.377079 60.418981 
L 194.3791 60.425947 
L 194.700441 60.530449 
L 194.748945 60.565283 
L 194.797449 60.50026 
L 194.810586 60.516516 
L 194.913657 60.544383 
L 194.924773 60.52116 
L 195.011676 60.507227 
L 194.985403 60.535094 
L 195.035928 60.528127 
L 195.120811 60.484004 
L 195.152136 60.518838 
L 195.244092 60.474715 
L 195.268345 60.504904 
L 195.841301 60.607084 
L 195.843322 60.621018 
L 195.950436 60.583861 
L 196.220241 60.477037 
L 196.253587 60.488649 
L 196.345543 60.421303 
L 196.410216 60.467748 
L 196.349585 60.418981 
L 196.461752 60.412014 
L 196.525413 60.360924 
L 196.544613 60.11012 
L 196.636569 60.128698 
L 196.735599 60.135665 
L 196.750756 60.13102 
L 196.867975 60.061352 
L 196.872017 60.063674 
L 196.972057 60.075286 
L 196.875048 60.061352 
L 196.989235 60.061352 
L 197.011467 60.033485 
L 197.101402 60.063674 
L 197.107465 60.054385 
L 197.239841 60.107797 
L 197.267124 60.096186 
L 197.336849 60.177465 
L 197.33786 60.177465 
L 197.453057 60.242489 
L 197.472257 60.214622 
L 197.586444 60.147276 
L 197.596549 60.163532 
L 197.644043 60.165854 
L 197.671327 60.128698 
L 197.705684 60.144954 
L 197.964373 60.035807 
L 198.063403 59.984718 
L 198.081592 60.000973 
L 198.164453 59.989362 
L 198.194768 60.017229 
L 199.795409 59.908083 
L 199.804504 59.922016 
L 199.922733 59.889505 
L 200.024794 59.880216 
L 199.975279 59.866282 
L 200.030857 59.86396 
L 200.065214 59.891827 
L 200.152117 59.859315 
L 200.282473 59.889505 
L 200.169296 59.83377 
L 200.283483 59.88486 
L 200.449206 59.775714 
L 200.574509 59.738558 
L 200.580572 59.750169 
L 200.634129 59.71998 
L 200.700822 59.750169 
L 201.085825 59.641023 
L 201.188896 59.627089 
L 201.200012 59.6387 
L 202.564194 59.529554 
L 202.685455 59.466853 
L 204.778211 59.357707 
L 204.907556 59.283394 
L 205.276391 59.17657 
L 205.399672 59.120836 
L 205.310748 59.190504 
L 205.400683 59.123158 
L 205.481523 59.116191 
L 205.507796 59.092969 
L 206.661794 59.086002 
L 206.741624 59.332162 
L 206.772949 59.301972 
L 207.39441 59.192826 
L 207.520723 59.109224 
L 207.525776 59.111547 
L 207.647036 59.109224 
L 210.59367 59.000078 
L 210.709878 58.988467 
L 210.628028 59.046523 
L 210.71392 59.000078 
L 212.339824 59.048846 
L 212.405507 59.301972 
L 212.450979 59.255527 
L 212.510599 59.269461 
L 212.569208 59.234627 
L 213.584766 59.127803 
L 213.686828 59.111547 
L 213.698954 59.12548 
L 215.475422 59.229982 
L 215.576473 59.27875 
L 215.59163 59.274105 
L 215.693691 59.290361 
L 215.634072 59.246238 
L 215.706828 59.267138 
L 215.842236 59.164959 
L 215.90994 59.199793 
L 215.85032 59.153347 
L 215.966528 59.174248 
L 216.766848 59.183537 
L 216.843647 58.921121 
L 216.878004 58.944344 
L 217.479254 59.05349 
L 217.604557 59.097613 
L 217.612641 59.08368 
L 220.619905 59.192826 
L 220.757334 59.232304 
L 220.875563 59.236949 
L 220.940236 59.236949 
L 220.978635 59.195148 
L 220.980656 59.199793 
L 222.444878 59.202115 
L 222.523698 58.939699 
L 222.556034 58.965244 
L 222.691442 59.000078 
L 223.274503 59.051168 
L 223.351302 59.325195 
L 223.386669 59.29965 
L 223.865649 59.408796 
L 223.883838 59.432019 
L 223.960636 59.373962 
L 223.971752 59.378607 
L 224.017225 59.369318 
L 224.034403 59.411119 
L 224.074824 59.415763 
L 224.154654 59.413441 
L 224.101097 59.394863 
L 224.182948 59.387896 
L 225.461237 59.27875 
L 225.544099 59.322873 
L 225.577445 59.285716 
L 225.684559 59.313584 
L 225.702748 59.301972 
L 225.805819 59.271783 
L 225.722958 59.327517 
L 225.818956 59.288039 
L 225.932133 59.297328 
L 225.933143 59.290361 
L 226.079666 59.397185 
L 226.114024 59.425052 
L 226.190822 59.387896 
L 227.696475 59.27875 
L 227.801568 59.292683 
L 227.80561 59.29965 
L 227.921818 59.343773 
L 227.92586 59.332162 
L 228.003669 59.297328 
L 228.042068 59.339128 
L 228.120887 59.387896 
L 228.161308 59.366996 
L 230.297516 59.476142 
L 230.461218 59.575999 
L 230.591573 59.550454 
L 230.594605 59.541165 
L 230.701718 59.527232 
L 230.753254 59.51562 
L 230.782559 59.555099 
L 230.808832 59.552777 
L 230.934135 59.580644 
L 230.938177 59.573677 
L 231.060448 59.527232 
L 230.966471 59.582966 
L 231.061458 59.529554 
L 231.523259 59.6387 
L 231.633404 59.629411 
L 231.572774 59.603866 
L 231.636436 59.627089 
L 231.747591 59.585288 
L 231.755676 59.599222 
L 233.096616 59.708368 
L 233.194635 59.717657 
L 233.128952 59.680501 
L 233.206761 59.68979 
L 233.30478 59.687468 
L 233.235056 59.710691 
L 233.317917 59.694435 
L 233.375516 59.715335 
L 233.379558 59.713013 
L 233.454335 59.438986 
L 233.490713 59.471497 
L 235.279308 59.364673 
L 235.318718 59.327517 
L 235.393495 59.346095 
L 235.996767 59.455242 
L 236.051334 59.445953 
L 236.093775 59.404152 
L 236.094786 59.404152 
L 238.2411 59.295005 
L 238.36236 59.211404 
L 238.364381 59.213726 
L 238.465432 59.239271 
L 238.372465 59.209082 
L 238.487663 59.220693 
L 239.043441 59.123158 
L 239.124281 59.065101 
L 239.158638 59.069746 
L 239.18188 59.092969 
L 239.28091 59.062779 
L 239.298088 59.051168 
L 239.403181 59.102258 
L 240.310615 58.995434 
L 240.438949 58.925766 
L 240.96037 58.816619 
L 241.093756 58.770174 
L 241.097798 58.774819 
L 241.188744 58.851453 
L 241.223101 58.832875 
L 241.327183 58.828231 
L 241.339309 58.842164 
L 241.531305 58.733018 
L 241.613156 58.665672 
L 241.654587 58.686573 
L 242.399329 58.577426 
L 242.448844 58.568137 
L 242.508464 58.602971 
L 242.855067 58.635483 
L 242.856078 58.867709 
L 242.966223 58.825908 
L 244.955908 58.791074 
L 245.008455 59.027945 
L 245.067064 59.004723 
L 245.168114 59.0024 
L 245.078179 58.990789 
L 245.17923 58.997756 
L 245.485413 59.10458 
L 245.584443 59.095291 
L 245.569285 59.065101 
L 245.593537 59.079035 
L 245.604653 59.088324 
L 245.716819 59.072068 
L 245.752187 59.113869 
L 245.831006 59.090646 
L 246.102832 58.983822 
L 246.157399 58.976855 
L 246.180641 59.025623 
L 246.210956 59.011689 
L 246.763703 58.902543 
L 246.801091 58.900221 
L 246.771787 58.90951 
L 246.802102 58.902543 
L 246.914268 59.17657 
L 247.036539 59.434341 
L 247.075949 59.399507 
L 247.242682 59.508654 
L 247.35889 59.531876 
L 247.255819 59.501687 
L 247.364953 59.517943 
L 247.389205 59.490076 
L 247.448825 59.536521 
L 247.47914 59.504009 
L 248.494698 59.613155 
L 248.591707 59.645667 
L 248.606864 59.6178 
L 249.380912 59.724624 
L 249.404153 59.747847 
L 249.43851 59.708368 
L 249.491057 59.708368 
L 250.290367 59.815192 
L 250.331797 59.838415 
L 250.365144 59.782681 
L 250.400512 59.798936 
L 250.478321 59.840737 
L 250.503583 60.093864 
L 250.589476 60.075286 
L 251.152328 60.149598 
L 251.204874 60.416658 
L 251.263483 60.370213 
L 251.300872 60.330735 
L 251.375649 60.37718 
L 252.105234 60.486326 
L 252.109276 60.479359 
L 252.2366 60.511871 
L 252.347756 60.481682 
L 252.261863 60.523482 
L 252.353819 60.493293 
L 252.438701 60.516516 
L 252.465985 60.493293 
L 252.578151 60.467748 
L 252.471037 60.504904 
L 252.589266 60.486326 
L 252.960122 60.442203 
L 252.964164 60.209977 
L 253.071278 60.230877 
L 254.619372 60.335379 
L 254.694149 60.367891 
L 254.668887 60.32609 
L 254.731538 60.342346 
L 254.85482 60.314479 
L 254.858862 60.32609 
L 255.060963 60.32609 
L 255.127656 60.072964 
L 255.172118 60.103153 
L 256.685856 60.212299 
L 256.819242 60.275 
L 256.829347 60.265711 
L 256.907156 60.316801 
L 256.95465 60.065997 
L 257.018312 60.082253 
L 257.102184 60.075286 
L 257.204245 59.803581 
L 257.21435 59.81287 
L 257.63371 59.922016 
L 257.740823 59.959173 
L 257.75396 59.952206 
L 257.860063 59.947561 
L 257.780233 59.970784 
L 257.864105 59.963817 
L 259.320243 60.072964 
L 259.448577 60.096186 
L 259.449588 60.093864 
L 260.583375 60.103153 
L 260.59247 59.866282 
L 260.694531 59.908083 
L 260.808718 59.912727 
L 260.704636 59.896472 
L 260.811749 59.905761 
L 260.909768 59.852349 
L 260.934021 59.866282 
L 261.036082 59.873249 
L 260.99364 59.905761 
L 261.041134 59.896472 
L 261.257382 59.891827 
L 261.354391 59.620122 
L 261.369548 59.631734 
L 261.51304 59.696757 
L 261.374601 59.627089 
L 261.517082 59.694435 
L 261.626217 59.636378 
L 261.641374 59.643345 
L 261.671689 59.613155 
L 261.745456 59.608511 
L 261.836402 59.548132 
L 261.748488 59.610833 
L 261.875812 59.585288 
L 262.900464 59.692112 
L 262.997473 59.71998 
L 263.015662 59.699079 
L 263.115702 59.682823 
L 263.13288 59.703724 
L 263.234941 59.699079 
L 263.156122 59.673534 
L 263.247067 59.68979 
L 264.05143 59.622445 
L 264.120144 59.877893 
L 264.162585 59.856993 
L 264.300014 59.908083 
L 264.303046 59.905761 
L 264.404096 59.908083 
L 264.33235 59.933628 
L 264.417233 59.917372 
L 264.545567 59.942917 
L 264.437443 59.898794 
L 264.546578 59.938272 
L 267.578094 59.831448 
L 267.679144 59.805903 
L 267.595272 59.836093 
L 267.69127 59.815192 
L 267.724617 59.845382 
L 267.807479 59.826804 
L 267.936823 59.729269 
L 267.940865 59.736235 
L 268.0692 59.805903 
L 269.417214 59.701401 
L 269.521296 59.66889 
L 269.532411 59.675857 
L 269.538474 59.682823 
L 269.634472 59.608511 
L 269.697124 59.622445 
L 269.66883 59.587611 
L 269.745628 59.587611 
L 270.025538 59.478464 
L 270.114463 59.452919 
L 270.145788 59.476142 
L 270.211471 59.508654 
L 270.259975 59.490076 
L 272.190041 59.380929 
L 272.284018 59.315906 
L 272.220356 59.385574 
L 272.310291 59.322873 
L 272.414373 59.343773 
L 272.334543 59.301972 
L 272.426499 59.339128 
L 272.543718 59.334484 
L 272.449741 59.35074 
L 272.546749 59.339128 
L 272.686199 59.383251 
L 272.799376 59.376285 
L 272.696304 59.390218 
L 272.805439 59.385574 
L 272.876174 59.427374 
L 272.809481 59.373962 
L 272.924678 59.383251 
L 273.020676 59.369318 
L 272.943878 59.406474 
L 273.035834 59.385574 
L 274.156484 59.362351 
L 274.258545 59.120836 
L 274.26764 59.12548 
L 274.396985 59.092969 
L 274.276735 59.132447 
L 274.401027 59.095291 
L 275.489341 59.102258 
L 275.574224 59.341451 
L 275.600497 59.332162 
L 276.008741 59.399507 
L 276.028951 59.650312 
L 276.119896 59.5969 
L 276.175474 59.603866 
L 276.141117 59.606189 
L 276.223979 59.631734 
L 276.325029 59.664245 
L 276.350292 59.647989 
L 276.488731 59.603866 
L 276.50692 59.610833 
L 276.533193 59.571355 
L 276.597866 59.585288 
L 277.149602 59.476142 
L 277.164759 59.459886 
L 277.237516 59.527232 
L 277.254694 59.51562 
L 277.340587 59.562066 
L 277.256715 59.510976 
L 277.372923 59.536521 
L 279.700117 59.645667 
L 279.824409 59.696757 
L 279.923439 59.699079 
L 279.862809 59.724624 
L 279.937586 59.710691 
L 280.084109 59.771069 
L 282.088952 59.877893 
L 282.18394 59.968462 
L 282.20516 59.940595 
L 282.331473 59.912727 
L 282.334505 59.919694 
L 285.594396 59.95685 
L 285.659068 59.706046 
L 285.705551 59.715335 
L 286.113795 59.675857 
L 286.134006 59.434341 
L 286.224951 59.492398 
L 286.241119 59.483109 
L 286.346212 59.49472 
L 287.498188 59.599222 
L 287.571955 59.620122 
L 287.524461 59.587611 
L 287.608333 59.587611 
L 289.260509 59.478464 
L 289.328213 59.418085 
L 289.378739 59.455242 
L 290.30133 59.346095 
L 290.422591 59.332162 
L 290.327603 59.369318 
L 290.425622 59.336806 
L 291.623071 59.22766 
L 291.691786 59.225338 
L 291.64126 59.246238 
L 291.727153 59.262494 
L 291.836288 59.260172 
L 291.743321 59.250882 
L 291.843361 59.255527 
L 291.94138 59.264816 
L 291.865592 59.283394 
L 291.952496 59.276427 
L 292.243521 59.167281 
L 292.368824 59.15567 
L 293.772416 59.106902 
L 293.83911 59.471497 
L 293.883572 59.455242 
L 294.001801 59.487753 
L 293.887614 59.445953 
L 294.009885 59.469175 
L 294.091736 59.466853 
L 294.03919 59.485431 
L 294.11902 59.490076 
L 294.530295 59.380929 
L 294.664693 59.343773 
L 294.665703 59.346095 
L 295.251796 59.325195 
L 295.341731 59.578322 
L 295.363962 59.571355 
L 295.47916 59.490076 
L 295.369015 59.575999 
L 295.509475 59.510976 
L 295.594358 59.524909 
L 295.523622 59.499365 
L 295.624673 59.501687 
L 295.694398 59.510976 
L 295.658019 59.520265 
L 295.728755 59.538843 
L 295.829805 59.536521 
L 295.786354 59.513298 
L 295.842942 59.527232 
L 295.931866 59.47382 
L 295.971276 59.508654 
L 296.056159 59.520265 
L 295.986434 59.499365 
L 296.082432 59.490076 
L 296.197629 59.492398 
L 296.094558 59.504009 
L 296.19965 59.497042 
L 297.569896 59.387896 
L 297.689135 59.380929 
L 297.576969 59.392541 
L 297.691156 59.385574 
L 297.946814 59.492398 
L 298.074138 59.555099 
L 298.160031 59.538843 
L 298.189336 59.56671 
L 298.268155 59.599222 
L 298.194388 59.562066 
L 298.308575 59.569032 
L 298.41872 59.541165 
L 298.426804 59.548132 
L 298.508655 59.564388 
L 298.536949 59.534199 
L 299.345354 59.636378 
L 299.433268 59.729269 
L 299.461562 59.706046 
L 300.539771 59.815192 
L 300.609496 59.887182 
L 300.658 59.838415 
L 301.738231 59.942917 
L 301.741262 59.959173 
L 301.83726 59.903438 
L 301.848376 59.931305 
L 301.933258 59.973106 
L 301.965594 59.949884 
L 302.01612 59.917372 
L 302.079782 59.931305 
L 302.151527 59.970784 
L 302.206095 59.945239 
L 302.322303 59.945239 
L 302.214179 59.949884 
L 302.324324 59.949884 
L 303.611708 60.054385 
L 303.632928 60.077608 
L 303.711748 60.014907 
L 303.719832 60.024196 
L 303.857261 60.072964 
L 303.860292 60.070641 
L 303.877471 60.086897 
L 303.954269 59.738558 
L 303.988626 59.754814 
L 304.108877 59.713013 
L 303.992668 59.757136 
L 304.118982 59.729269 
L 304.180622 59.768747 
L 304.2362 59.722302 
L 304.665665 59.831448 
L 304.800062 59.873249 
L 304.672739 59.826804 
L 304.802083 59.868604 
L 304.856651 59.861638 
L 304.894039 59.919694 
L 304.907176 59.903438 
L 304.937491 59.882538 
L 305.029447 59.908083 
L 305.151718 59.891827 
L 305.15475 59.896472 
L 305.285105 59.924339 
L 305.286115 59.922016 
L 305.356851 59.947561 
L 305.447796 59.710691 
L 305.468006 59.724624 
L 306.87463 59.764103 
L 306.951428 60.049741 
L 306.986796 60.026518 
L 311.681604 59.919694 
L 311.801855 59.889505 
L 311.91301 59.875571 
L 311.845306 59.850026 
L 311.914021 59.873249 
L 311.989809 59.847704 
L 312.027197 59.889505 
L 312.844696 59.989362 
L 312.847728 60.000973 
L 312.869959 59.963817 
L 312.953831 59.973106 
L 315.132481 59.86396 
L 315.25071 59.854671 
L 315.252731 59.861638 
L 315.357823 59.847704 
L 315.280014 59.840737 
L 315.363886 59.843059 
L 315.505357 59.794292 
L 316.196543 59.903438 
L 316.227868 59.903438 
L 316.276373 59.852349 
L 316.294562 59.852349 
L 316.979684 59.910405 
L 317.060525 59.636378 
L 317.09084 59.673534 
L 317.099935 59.659601 
L 317.218164 59.68979 
L 317.300015 59.615478 
L 317.337403 59.641023 
L 317.457654 59.696757 
L 318.074062 59.5969 
L 318.181175 59.559743 
L 318.187239 59.571355 
L 318.313552 59.557421 
L 319.765648 59.666568 
L 319.816173 59.680501 
L 319.773732 59.659601 
L 319.867709 59.624767 
L 323.489361 59.517943 
L 323.494413 59.508654 
L 323.50856 59.541165 
L 323.598495 59.536521 
L 323.719756 59.54581 
L 323.603548 59.531876 
L 323.720766 59.543488 
L 323.809691 59.506331 
L 323.844048 59.534199 
L 323.934994 59.506331 
L 323.90771 59.492398 
L 323.943078 59.487753 
L 324.098695 59.390218 
L 324.101727 59.399507 
L 324.139116 59.390218 
L 324.222988 59.436664 
L 324.22804 59.434341 
L 324.297765 59.501687 
L 324.316965 59.497042 
L 325.593233 59.606189 
L 325.701357 59.629411 
L 325.709441 59.620122 
L 325.722578 59.631734 
L 325.830702 59.6178 
L 328.212463 59.678179 
L 328.300377 59.949884 
L 328.324629 59.926661 
L 328.4469 59.93595 
L 328.447911 59.933628 
L 328.532793 59.910405 
L 328.476205 59.949884 
L 328.562098 59.931305 
L 328.68639 59.959173 
L 328.56513 59.928983 
L 328.691443 59.952206 
L 328.840998 59.870927 
L 328.84504 59.875571 
L 328.962258 59.938272 
L 328.968321 59.922016 
L 328.973374 59.926661 
L 329.08554 59.928983 
L 332.216086 60.035807 
L 332.339367 60.07993 
L 332.810263 60.128698 
L 332.835526 60.386469 
L 332.921419 60.342346 
L 333.0639 60.393436 
L 333.349873 60.437559 
L 333.446881 60.755709 
L 333.462039 60.732486 
L 333.48326 60.758031 
L 333.485281 60.990257 
L 333.594415 60.96239 
L 334.146151 61.071536 
L 334.256296 61.048314 
L 338.230614 61.15746 
L 338.30135 61.178361 
L 338.317518 61.164427 
L 338.405432 60.888078 
L 338.428673 60.913623 
L 338.538818 60.925234 
L 338.497388 60.885755 
L 338.543871 60.922912 
L 338.656037 60.932201 
L 338.607533 60.960068 
L 338.658058 60.934523 
L 338.726772 60.94149 
L 338.740919 60.9113 
L 338.768203 60.922912 
L 339.964642 60.876466 
L 339.990915 61.131915 
L 340.075797 61.094759 
L 340.696247 61.099404 
L 340.726563 61.350208 
L 340.807403 61.329308 
L 340.923611 61.264284 
L 340.947863 61.282862 
L 342.149354 61.176038 
L 342.234237 61.183005 
L 342.247373 61.222484 
L 342.253436 61.220161 
L 342.373687 61.22945 
L 342.375708 61.227128 
L 342.433306 61.215517 
L 342.468674 61.268929 
L 342.483832 61.254995 
L 342.713216 61.145849 
L 342.769805 61.150493 
L 342.807193 61.203905 
L 342.809214 61.201583 
L 342.915317 61.22945 
L 342.996158 60.960068 
L 343.027484 60.976324 
L 343.163902 60.913623 
L 343.168954 60.927556 
L 343.454927 60.974001 
L 343.553957 60.653529 
L 343.567093 60.681396 
L 343.767174 60.479359 
L 343.772226 60.484004 
L 343.82073 60.465426 
L 343.892476 60.514193 
L 346.432887 60.405047 
L 346.53798 60.381824 
L 346.546064 60.395758 
L 346.751196 60.497938 
L 346.862352 60.532772 
L 346.768375 60.486326 
L 346.865383 60.52116 
L 347.414088 60.412014 
L 347.426214 60.393436 
L 347.483813 60.432914 
L 347.524233 60.425947 
L 347.630336 60.405047 
L 347.584863 60.372535 
L 347.634378 60.402725 
L 350.069696 60.384147 
L 350.102032 60.144954 
L 350.180852 60.186754 
L 350.31727 60.149598 
L 350.801302 60.149598 
L 350.881132 59.896472 
L 350.912458 59.917372 
L 351.981572 59.808226 
L 352.004814 59.803581 
L 352.042203 59.845382 
L 352.086665 59.845382 
L 352.402953 59.736235 
L 352.527245 59.694435 
L 352.535329 59.706046 
L 352.668716 59.745524 
L 352.554529 59.687468 
L 352.669727 59.74088 
L 352.801092 59.715335 
L 353.345755 59.606189 
L 353.464994 59.534199 
L 353.473078 59.543488 
L 353.585245 59.492398 
L 353.605455 59.51562 
L 354.049067 59.406474 
L 354.170327 59.399507 
L 354.262283 59.406474 
L 354.202663 59.390218 
L 354.281483 59.399507 
L 354.391628 59.387896 
L 354.35626 59.42273 
L 354.39668 59.392541 
L 354.965595 59.283394 
L 354.976711 59.292683 
L 355.123234 59.19747 
L 355.201043 59.204437 
L 355.142433 59.181215 
L 355.2354 59.178892 
L 355.341503 59.113869 
L 355.358682 59.134769 
L 356.391418 59.025623 
L 356.478322 58.9815 
L 356.51571 59.011689 
L 356.631918 59.037234 
L 356.632929 59.03259 
L 356.658192 59.05349 
L 356.753179 59.03259 
L 356.924965 58.925766 
L 357.032079 58.921121 
L 356.936081 58.939699 
L 357.037131 58.93041 
L 357.961744 58.821264 
L 358.079973 58.791074 
L 357.968817 58.83752 
L 358.089067 58.805008 
L 358.882314 58.695862 
L 358.958102 58.702828 
L 358.982354 58.742307 
L 359.43304 58.635483 
L 359.515901 58.59136 
L 359.45325 58.644772 
L 359.547227 58.633161 
L 360.484976 58.528659 
L 360.502154 58.521692 
L 360.585016 58.56117 
L 360.5931 58.554204 
L 360.620384 58.51937 
L 360.709308 58.544915 
L 360.79419 58.54027 
L 360.814401 58.579749 
L 360.895241 58.556526 
L 360.866947 58.535626 
L 360.916462 58.537948 
L 361.011449 58.54027 
L 360.980123 58.554204 
L 361.027617 58.547237 
L 361.791559 58.445057 
L 361.795601 58.433446 
L 361.819853 58.482214 
L 361.899683 58.472924 
L 362.185656 58.470602 
L 362.258413 58.730696 
L 362.297823 58.716762 
L 362.410999 58.695862 
L 362.422115 58.707473 
L 362.55348 58.760885 
L 362.561565 58.751596 
L 363.265887 58.64245 
L 363.365927 58.61226 
L 363.268918 58.644772 
L 363.391189 58.626194 
L 363.430599 58.647094 
L 363.395232 58.619227 
L 363.502345 58.623872 
L 363.824696 58.728373 
L 363.880274 58.737662 
L 363.85299 58.700506 
L 363.935852 58.721407 
L 363.985367 58.707473 
L 363.95101 58.726051 
L 364.047008 58.728373 
L 364.055092 58.721407 
L 364.170289 58.774819 
L 364.300644 58.739985 
L 364.17231 58.777141 
L 364.302665 58.746951 
L 365.405127 58.853776 
L 365.517293 58.872354 
L 365.521335 58.870031 
L 365.618343 58.863065 
L 365.589039 58.886287 
L 365.634512 58.872354 
L 367.246268 58.979178 
L 367.256373 58.988467 
L 367.345297 58.93041 
L 367.35035 58.935055 
L 371.317594 59.044201 
L 371.446939 59.065101 
L 371.591441 58.995434 
L 371.451991 59.067424 
L 371.595483 59.000078 
L 371.703607 59.044201 
L 371.713712 59.041879 
L 371.775353 59.009367 
L 371.720786 59.05349 
L 371.825879 59.046523 
L 371.901666 59.055812 
L 371.871351 59.007045 
L 371.932992 59.016334 
L 372.047179 59.000078 
L 371.987559 59.03259 
L 372.0492 59.0024 
L 372.179555 59.025623 
L 372.290711 59.074391 
L 372.400856 58.818942 
L 372.402877 58.825908 
L 375.693083 58.719084 
L 375.779986 58.674961 
L 375.723398 58.733018 
L 375.80828 58.698184 
L 375.891142 58.688895 
L 375.860827 58.674961 
L 375.915394 58.672639 
L 375.984108 58.640127 
L 376.028571 58.674961 
L 376.997645 58.565815 
L 377.120927 58.544915 
L 377.123959 58.547237 
L 377.199747 58.565815 
L 377.230062 58.528659 
L 377.233093 58.528659 
L 377.369511 58.465958 
L 377.375574 58.475247 
L 377.503909 58.512403 
L 377.387701 58.46828 
L 377.509972 58.507758 
L 378.20621 58.398612 
L 378.335555 58.354489 
L 378.214294 58.407901 
L 378.339597 58.368423 
L 380.009962 58.259276 
L 380.120107 58.226765 
L 380.048361 58.268565 
L 380.124149 58.236054 
L 381.446901 58.12923 
L 381.452964 58.119941 
L 381.494395 58.166386 
L 381.554015 58.157097 
L 382.374545 58.050273 
L 382.452354 58.020083 
L 382.491764 58.034017 
L 383.052594 58.143163 
L 383.170823 58.138519 
L 384.133835 58.029372 
L 384.241959 58.00615 
L 384.250043 58.015439 
L 385.554606 57.906292 
L 385.650604 57.910937 
L 385.660709 57.934159 
L 385.678898 57.938804 
L 385.749633 57.864492 
L 385.761759 57.878425 
L 385.827442 57.913259 
L 385.872915 57.897003 
L 385.98407 57.901648 
L 385.990133 57.892359 
L 386.098258 57.906292 
L 386.068953 57.927193 
L 386.099268 57.908615 
L 386.213455 57.917904 
L 386.14272 57.873781 
L 386.220529 57.910937 
L 386.301369 57.871458 
L 386.344821 57.901648 
L 386.469113 57.917904 
L 386.471134 57.915581 
L 387.065311 57.808757 
L 387.091584 57.794824 
L 387.136047 57.838947 
L 387.172425 57.834302 
L 387.281559 57.876103 
L 387.303791 57.859847 
L 389.826012 57.757668 
L 389.889674 57.678711 
L 389.943231 57.701933 
L 390.045292 57.753023 
L 390.074596 57.727478 
L 390.18171 57.706578 
L 390.199899 57.715867 
L 391.317518 57.60672 
L 391.423621 57.576531 
L 391.433726 57.578853 
L 393.806393 57.469707 
L 393.934727 57.437195 
L 393.937759 57.44184 
L 394.065083 57.495252 
L 393.94079 57.439518 
L 394.075188 57.483641 
L 394.192406 57.481318 
L 394.195438 57.483641 
L 394.685533 57.376816 
L 394.803762 57.353594 
L 394.827004 57.344305 
L 394.926033 57.395395 
L 395.369645 57.28857 
L 395.430275 57.260703 
L 395.387834 57.300182 
L 395.47878 57.307149 
L 398.117209 57.198002 
L 398.220281 57.230514 
L 398.140451 57.232836 
L 398.221291 57.232836 
L 398.330426 57.232836 
L 398.235439 57.218903 
L 398.33851 57.225869 
L 400.550507 57.116723 
L 400.647515 57.077245 
L 400.664694 57.086534 
L 400.675809 57.0726 
L 400.774839 57.063311 
L 401.308386 57.172457 
L 401.433688 57.202647 
L 401.43672 57.193358 
L 401.448846 57.211936 
L 401.554949 57.198002 
L 404.162053 57.088856 
L 404.163064 57.086534 
L 404.240872 57.153879 
L 404.25603 57.149235 
L 406.085045 57.156201 
L 406.087066 57.393072 
L 406.1962 57.360561 
L 406.29523 57.355916 
L 406.311398 57.36985 
L 406.35586 57.335016 
L 406.428617 57.362883 
L 406.470047 57.355916 
L 406.578172 57.620654 
L 406.582214 57.613687 
L 407.13395 57.592787 
L 407.243084 57.873781 
L 407.246116 57.871458 
L 407.392639 57.762312 
L 407.510868 57.757668 
L 407.399712 57.769279 
L 407.511879 57.75999 
L 407.645265 57.85288 
L 410.682845 57.957382 
L 410.717202 57.952738 
L 410.800063 58.010794 
L 410.874841 58.050273 
L 410.822294 58.003827 
L 410.912229 58.003827 
L 412.790759 57.894681 
L 412.81198 57.885392 
L 412.878673 57.938804 
L 412.896862 57.92487 
L 413.022165 58.017761 
L 413.116142 58.00615 
L 413.056522 57.987572 
L 413.130289 57.992216 
L 413.226287 57.966671 
L 413.253571 57.985249 
L 415.854612 57.880747 
L 415.935452 57.855203 
L 415.896042 57.887714 
L 415.966778 57.880747 
L 415.99204 57.85288 
L 416.07187 57.908615 
L 416.073891 57.908615 
L 416.190099 57.899326 
L 416.204247 57.664777 
L 416.301255 57.706578 
L 416.355822 57.7298 
L 416.306308 57.699611 
L 416.414432 57.690322 
L 416.575102 57.718189 
L 416.586218 57.469707 
L 416.686258 57.478996 
L 416.825707 57.527764 
L 416.694342 57.474351 
L 416.826718 57.525441 
L 417.239004 57.506863 
L 417.345107 57.235158 
L 417.35117 57.244447 
L 419.052861 57.137623 
L 419.088229 57.128334 
L 419.124607 57.179424 
L 419.158964 57.179424 
L 420.047199 57.218903 
L 420.075493 57.465062 
L 420.158354 57.448807 
L 420.262436 57.458096 
L 420.182606 57.425584 
L 420.275573 57.44184 
L 420.832361 57.332693 
L 420.970801 57.286248 
L 420.971811 57.28857 
L 420.982927 57.276959 
L 421.092061 57.344305 
L 421.30831 57.609043 
L 421.322457 57.599754 
L 421.458875 57.527764 
L 421.46999 57.53473 
L 421.594283 57.590465 
L 421.513442 57.504541 
L 421.595293 57.588142 
L 421.710491 57.599754 
L 422.107619 57.49293 
L 422.216754 57.49293 
L 422.135914 57.518474 
L 422.218775 57.495252 
L 422.534053 57.604398 
L 422.567399 57.660132 
L 422.64824 57.609043 
L 422.771521 57.567242 
L 422.781627 57.576531 
L 422.901877 57.60672 
L 422.933202 57.609043 
L 422.960486 57.560275 
L 422.998885 57.553308 
L 425.837395 57.662455 
L 425.954614 57.7089 
L 425.850532 57.65781 
L 425.960677 57.706578 
L 426.46795 57.597431 
L 426.582138 57.58582 
L 426.491192 57.616009 
L 426.588201 57.595109 
L 426.653883 57.571886 
L 426.718556 57.676388 
L 426.824659 57.704255 
L 426.748871 57.727478 
L 426.825669 57.706578 
L 427.311722 57.597431 
L 427.383468 57.609043 
L 427.322838 57.620654 
L 427.408731 57.650843 
L 428.173684 57.669422 
L 428.230272 58.034017 
L 428.284839 58.013116 
L 428.408121 58.068851 
L 428.410142 58.066528 
L 429.256945 57.957382 
L 429.294334 57.950415 
L 429.353954 57.992216 
L 429.364059 57.987572 
L 429.835965 57.878425 
L 429.844049 57.869136 
L 429.938026 57.922548 
L 429.941058 57.917904 
L 430.152253 57.927193 
L 430.180547 57.671744 
L 430.263409 57.697289 
L 430.377596 57.676388 
L 430.277556 57.706578 
L 430.386691 57.685677 
L 430.470563 57.720511 
L 430.496836 57.671744 
L 431.2052 57.681033 
L 431.292103 57.425584 
L 431.316356 57.439518 
L 431.446711 57.41165 
L 431.447721 57.413973 
L 431.596266 57.523119 
L 431.611423 57.539375 
L 431.688222 57.46274 
L 431.690243 57.46274 
L 432.66437 57.353594 
L 432.677506 57.33966 
L 432.739147 57.402361 
L 432.769462 57.39075 
L 434.406481 57.499896 
L 434.427702 57.532408 
L 434.487322 57.458096 
L 434.512584 57.469707 
L 434.64294 57.416295 
L 434.526731 57.478996 
L 434.653045 57.420939 
L 434.762179 57.467385 
L 434.661129 57.409328 
L 434.780368 57.437195 
L 434.879398 57.397717 
L 434.793505 57.444162 
L 434.899608 57.409328 
L 437.551174 57.300182 
L 437.686582 57.258381 
L 437.561279 57.307149 
L 437.688603 57.260703 
L 438.241349 57.36985 
L 438.278738 57.407006 
L 438.300969 57.042411 
L 438.389894 57.054022 
L 438.513175 57.044733 
L 438.516207 57.042411 
L 438.726392 57.258381 
L 438.843611 57.21658 
L 438.952745 57.274637 
L 438.851695 57.211936 
L 438.980029 57.253736 
L 439.1023 57.211936 
L 439.259939 57.483641 
L 439.133626 57.204969 
L 439.272065 57.469707 
L 439.372105 57.474351 
L 439.385242 57.485963 
L 441.52145 57.595109 
L 441.565912 57.625299 
L 441.630585 57.574209 
L 443.039229 57.681033 
L 443.058429 57.685677 
L 443.090765 57.625299 
L 443.14028 57.629943 
L 443.152406 57.618332 
L 443.203942 57.655488 
L 443.249414 57.650843 
L 444.354907 57.578853 
L 444.451916 57.838947 
L 444.467074 57.822691 
L 444.495368 57.822691 
L 444.531746 57.75999 
L 444.56004 57.762312 
L 444.623702 57.732123 
L 444.571156 57.773923 
L 444.677259 57.769279 
L 445.79993 57.873781 
L 445.881781 57.906292 
L 445.915128 57.897003 
L 446.017189 57.927193 
L 446.036389 57.901648 
L 446.043462 57.910937 
L 446.152597 57.90397 
L 446.261731 57.917904 
L 446.201101 57.876103 
L 446.264763 57.910937 
L 446.385013 57.90397 
L 446.322362 57.936482 
L 446.387034 57.906292 
L 447.586504 58.015439 
L 447.700691 58.103685 
L 447.714838 58.085107 
L 447.7593 58.071173 
L 447.813868 58.131552 
L 447.840141 58.159419 
L 447.925023 58.110651 
L 448.013948 58.089751 
L 447.936139 58.117618 
L 448.043252 58.115296 
L 448.087715 58.136196 
L 448.11904 58.089751 
L 448.149355 58.087429 
L 448.241311 58.038661 
L 448.270616 58.050273 
L 448.73848 58.124585 
L 448.831447 57.866814 
L 448.849636 57.887714 
L 449.249796 57.936482 
L 449.29729 57.688 
L 449.360951 57.711222 
L 449.39834 57.697289 
L 449.463013 57.766957 
L 449.466044 57.764634 
L 449.609536 57.834302 
L 449.612567 57.827335 
L 449.719681 57.815724 
L 449.730796 57.83198 
L 449.856099 57.878425 
L 449.733828 57.829658 
L 449.865194 57.866814 
L 449.993528 57.843591 
L 449.880351 57.873781 
L 449.994538 57.845914 
L 451.533538 57.95506 
L 451.587095 57.959704 
L 451.608316 57.931837 
L 451.641662 57.929515 
L 453.619221 57.827335 
L 453.651558 57.794824 
L 453.713198 57.871458 
L 453.727346 57.855203 
L 453.732398 57.845914 
L 453.85568 57.878425 
L 453.974919 57.838947 
L 453.889026 57.890036 
L 453.97694 57.841269 
L 454.459962 57.787857 
L 454.538781 57.530086 
L 454.571118 57.546342 
L 455.020793 57.653166 
L 455.097591 57.692644 
L 455.033929 57.650843 
L 455.131948 57.646199 
L 455.253209 57.671744 
L 455.142053 57.641554 
L 455.257251 57.664777 
L 455.348196 57.616009 
L 455.269377 57.669422 
L 455.372448 57.627621 
L 455.796861 57.518474 
L 455.924184 57.448807 
L 455.811008 57.525441 
L 455.942373 57.460418 
L 456.064645 57.497574 
L 456.073739 57.485963 
L 456.187926 57.425584 
L 456.192979 57.427906 
L 456.222283 57.432551 
L 456.250578 57.400039 
L 456.298071 57.39075 
L 457.130728 57.283926 
L 457.232789 57.232836 
L 457.252999 57.244447 
L 457.383354 57.286248 
L 457.260073 57.237481 
L 457.388407 57.279281 
L 457.484405 57.295537 
L 457.496531 57.304826 
L 457.518762 57.321082 
L 457.593539 57.26767 
L 457.604655 57.274637 
L 457.87547 57.165491 
L 457.945195 57.128334 
L 457.986626 57.167813 
L 459.627687 57.058666 
L 459.668107 57.054022 
L 459.655981 57.077245 
L 459.736821 57.074922 
L 460.668507 56.968098 
L 460.771579 56.882174 
L 460.680634 56.975065 
L 460.798863 56.891464 
L 460.81402 56.884497 
L 460.924165 56.903075 
L 461.258643 57.012221 
L 461.279863 57.019188 
L 461.351609 56.954165 
L 461.35363 56.956487 
L 461.361714 56.968098 
L 461.496111 56.905397 
L 461.639603 56.796251 
L 461.727517 56.779995 
L 461.749748 56.810184 
L 461.860904 56.791606 
L 461.751769 56.812507 
L 461.87303 56.800895 
L 461.99227 56.814829 
L 461.995301 56.80554 
L 462.031679 56.784639 
L 462.091299 56.858952 
L 462.166077 56.875208 
L 462.207507 56.851985 
L 462.228728 56.842696 
L 462.257022 56.884497 
L 462.31361 56.884497 
L 462.327757 56.875208 
L 462.430829 56.882174 
L 462.439924 56.863596 
L 462.504596 56.912364 
L 462.540974 56.896108 
L 462.655161 56.849663 
L 462.676382 56.861274 
L 462.695581 56.89843 
L 462.756212 56.845018 
L 462.787537 56.861274 
L 462.89364 56.893786 
L 462.910819 56.870563 
L 463.007828 56.831085 
L 463.030059 56.845018 
L 463.137172 56.868241 
L 463.064416 56.833407 
L 463.143235 56.854307 
L 465.826127 56.963454 
L 465.95143 57.016866 
L 468.588849 57.126012 
L 468.71112 57.165491 
L 468.592891 57.12369 
L 468.720215 57.153879 
L 468.86977 57.056344 
L 468.878864 57.065633 
L 468.941516 57.105112 
L 468.887959 57.049377 
L 468.993051 57.067955 
L 469.115323 57.063311 
L 469.141596 57.067955 
L 469.23052 57.309471 
L 469.252751 57.293215 
L 470.284477 57.341982 
L 470.392601 57.613687 
L 470.396643 57.609043 
L 470.402707 57.599754 
L 470.414833 57.836624 
L 470.513862 57.801791 
L 470.540135 57.778568 
L 470.637144 57.81108 
L 470.657354 57.792501 
L 470.7291 57.85288 
L 470.739205 57.850558 
L 470.876634 57.90397 
L 470.741226 57.845914 
L 470.881686 57.901648 
L 470.992842 57.873781 
L 471.003957 57.894681 
L 471.112081 57.878425 
L 471.061556 57.850558 
L 471.115113 57.873781 
L 471.612282 57.980605 
L 471.733542 58.02705 
L 471.633502 57.959704 
L 471.734553 58.024728 
L 471.811351 58.040984 
L 471.853792 57.971316 
L 471.978085 58.015439 
L 471.987179 58.001505 
L 473.461507 58.110651 
L 473.601967 58.164064 
L 473.466559 58.103685 
L 473.602977 58.159419 
L 474.948971 58.266243 
L 475.070231 58.315011 
L 475.072252 58.312688 
L 475.508791 58.419512 
L 475.518896 58.435768 
L 475.592663 58.370745 
L 475.614894 58.375389 
L 475.70786 58.347522 
L 475.738175 58.368423 
L 475.80689 58.370745 
L 475.742217 58.363778 
L 475.839226 58.331266 
L 475.945329 58.29411 
L 475.861457 58.359134 
L 475.955434 58.303399 
L 476.630452 58.412546 
L 476.720387 58.442735 
L 476.752723 58.419512 
L 476.865899 58.410223 
L 476.784048 58.428801 
L 476.86792 58.412546 
L 478.031012 58.51937 
L 478.142168 58.549559 
L 478.149241 58.54027 
L 479.090022 58.647094 
L 479.190062 58.667995 
L 479.20522 58.656383 
L 479.401258 58.368423 
L 479.210272 58.665672 
L 479.433594 58.407901 
L 479.688241 58.470602 
L 479.793334 58.758563 
L 479.800407 58.753918 
L 480.389532 58.737662 
L 480.392563 58.500792 
L 480.500688 58.54027 
L 480.507761 58.544915 
L 480.514835 58.310366 
L 480.618917 58.321977 
L 480.722999 58.308044 
L 480.655295 58.335911 
L 480.733104 58.317333 
L 480.847291 58.317333 
L 480.850322 58.310366 
L 482.150843 58.414868 
L 482.255935 58.440413 
L 482.171053 58.387001 
L 482.26402 58.424157 
L 482.289282 58.445057 
L 482.376186 58.442735 
L 484.215306 58.333589 
L 484.342629 58.303399 
L 484.449743 58.354489 
L 484.456816 58.352167 
L 484.595256 58.39629 
L 484.687212 58.373067 
L 484.607382 58.41719 
L 484.716516 58.393968 
L 484.828682 58.445057 
L 484.721569 58.391645 
L 484.838787 58.433446 
L 484.967122 58.363778 
L 487.714686 58.472924 
L 487.827863 58.491503 
L 487.829884 58.48918 
L 487.932955 58.477569 
L 487.940029 58.496147 
L 488.007733 58.458991 
L 488.048153 58.46828 
L 489.532585 58.359134 
L 489.627573 58.303399 
L 489.563911 58.375389 
L 489.652835 58.328944 
L 489.680119 58.359134 
L 489.778138 58.317333 
L 489.793296 58.315011 
L 489.905462 58.045628 
L 490.733066 58.154774 
L 490.796728 58.157097 
L 490.840179 58.126907 
L 492.033586 58.017761 
L 492.165962 57.966671 
L 492.173036 57.973638 
L 493.494777 58.082784 
L 493.581681 58.126907 
L 493.614017 58.082784 
L 493.719109 58.085107 
L 493.642311 58.103685 
L 493.724162 58.089751 
L 493.857549 58.119941 
L 493.891906 58.147808 
L 493.970725 58.122263 
L 494.089965 58.115296 
L 493.98083 58.136196 
L 494.090975 58.122263 
L 495.9786 58.231409 
L 496.022051 58.259276 
L 496.093797 58.219798 
L 497.537809 58.326622 
L 497.646944 58.354489 
L 497.656039 58.349845 
L 500.39754 58.458991 
L 500.514759 58.458991 
L 500.522843 58.463635 
L 500.631977 58.419512 
L 501.532338 58.526336 
L 501.569726 58.556526 
L 501.640462 58.503114 
L 501.654609 58.512403 
L 501.755659 58.482214 
L 502.138641 58.589038 
L 502.186135 58.658705 
L 502.258891 58.647094 
L 502.389246 58.61226 
L 502.391267 58.616905 
L 502.513538 58.623872 
L 502.566085 58.589038 
L 502.629746 58.630838 
L 502.698461 58.651739 
L 502.638841 58.628516 
L 502.740902 58.623872 
L 502.894499 58.542592 
L 502.895509 58.544915 
L 503.805975 58.445057 
L 503.810017 58.433446 
L 503.900962 58.482214 
L 503.914099 58.477569 
L 504.047486 58.44738 
L 504.158641 58.456669 
L 504.167736 58.44738 
L 505.538992 58.39629 
L 505.564254 58.640127 
L 505.650147 58.607616 
L 506.092749 58.500792 
L 506.198852 58.512403 
L 506.130137 58.526336 
L 506.202894 58.517047 
L 506.310007 58.51937 
L 506.317081 58.530981 
L 506.458552 58.421835 
L 506.483814 58.433446 
L 506.59598 58.382356 
L 506.756651 58.484536 
L 506.621243 58.3661 
L 506.757661 58.479891 
L 506.871848 58.465958 
L 506.787976 58.496147 
L 506.873869 58.46828 
L 507.631748 58.359134 
L 507.741894 58.349845 
L 507.67419 58.370745 
L 507.744925 58.352167 
L 508.446216 58.245343 
L 508.498762 58.219798 
L 508.558382 58.252309 
L 510.998753 58.143163 
L 511.015931 58.133874 
L 511.075551 58.173353 
L 511.107887 58.161741 
L 511.608087 58.054917 
L 511.67276 58.022405 
L 511.637392 58.066528 
L 511.723285 58.045628 
L 512.269968 57.936482 
L 512.271989 57.938804 
L 512.399313 57.915581 
L 515.644046 57.938804 
L 515.747118 57.616009 
L 515.756212 57.634588 
L 520.521756 57.527764 
L 520.578344 57.423262 
L 520.652111 57.451129 
L 521.06945 57.557953 
L 521.16949 57.569564 
L 521.134122 57.541697 
L 521.184648 57.56492 
L 523.46839 57.671744 
L 523.56944 57.692644 
L 523.474453 57.664777 
L 523.582577 57.674066 
L 523.68767 57.625299 
L 523.713943 57.648521 
L 524.82752 57.539375 
L 524.968991 57.488285 
L 524.974043 57.499896 
L 525.059936 57.446484 
L 525.077115 57.46274 
L 526.032042 57.358238 
L 526.138145 57.323404 
L 526.146229 57.330371 
L 527.915624 57.221225 
L 527.916635 57.21658 
L 528.014654 57.286248 
L 528.015664 57.283926 
L 529.389952 57.17478 
L 529.498076 57.193358 
L 529.451593 57.221225 
L 529.499086 57.19568 
L 531.073454 57.086534 
L 531.106801 57.102789 
L 531.190673 57.070278 
L 531.294755 57.079567 
L 531.198757 57.079567 
L 531.302839 57.086534 
L 531.335175 57.070278 
L 531.422078 57.084211 
L 533.630033 56.977387 
L 533.641148 56.97042 
L 533.712894 57.035444 
L 533.732094 57.026155 
L 533.862449 57.063311 
L 533.86447 57.058666 
L 533.977647 57.033122 
L 533.875586 57.063311 
L 533.982699 57.035444 
L 534.133264 57.114401 
L 534.135285 57.109756 
L 534.200968 57.095823 
L 534.167622 57.128334 
L 534.246441 57.119045 
L 536.838388 57.228192 
L 536.865671 57.228192 
L 536.920239 57.17478 
L 536.935396 57.17478 
L 537.00411 57.170135 
L 537.045541 57.198002 
L 542.706393 57.095823 
L 542.796328 57.086534 
L 542.773086 57.112078 
L 542.816538 57.102789 
L 543.043902 56.995965 
L 543.062091 56.988999 
L 543.138889 57.056344 
L 543.144952 57.054022 
L 543.151015 57.063311 
L 543.269244 57.044733 
L 545.630796 56.935586 
L 545.762161 56.89843 
L 545.665153 56.965776 
L 545.764182 56.905397 
L 546.397769 57.012221 
L 546.491746 57.030799 
L 546.427074 57.002932 
L 546.509935 57.012221 
L 548.096429 56.905397 
L 548.186364 56.882174 
L 548.140891 56.917008 
L 548.212637 56.891464 
L 548.336929 56.958809 
L 548.339961 56.954165 
L 548.466274 56.933264 
L 548.467284 56.935586 
L 548.596629 56.956487 
L 548.7189 56.917008 
L 548.602692 56.968098 
L 548.731026 56.923975 
L 549.648565 56.817151 
L 549.674838 56.798573 
L 549.725364 56.845018 
L 549.759721 56.828762 
L 549.859761 56.831085 
L 549.876939 56.821796 
L 553.124704 56.92862 
L 553.21666 56.940231 
L 553.152998 56.917008 
L 553.23687 56.926297 
L 553.245965 56.933264 
L 553.369246 56.896108 
L 553.459181 56.926297 
L 553.481412 56.900753 
L 555.793449 57.009899 
L 555.901573 57.019188 
L 555.906625 57.009899 
L 558.4339 56.900753 
L 558.516761 56.872885 
L 558.546066 56.907719 
L 559.659643 56.910042 
L 559.771809 57.191035 
L 559.875891 57.17478 
L 559.832439 57.153879 
L 559.881954 57.167813 
L 559.983004 57.156201 
L 559.928437 57.191035 
L 559.995131 57.160846 
L 560.783325 57.172457 
L 560.809598 57.423262 
L 560.89448 57.367527 
L 561.696822 57.476674 
L 561.822124 57.51383 
L 561.716021 57.455773 
L 561.827177 57.509185 
L 561.832229 57.499896 
L 561.87366 57.550986 
L 561.936312 57.530086 
L 561.9737 57.539375 
L 562.036352 57.485963 
L 562.038373 57.490607 
L 562.154581 57.478996 
L 563.320704 57.36985 
L 563.439944 57.372172 
L 566.733181 57.263026 
L 566.859494 57.242125 
L 566.860505 57.24677 
L 569.764697 57.26767 
L 569.812191 57.007577 
L 569.875853 57.035444 
L 570.888379 57.060989 
L 570.914652 56.821796 
L 570.999535 56.863596 
L 577.091872 56.972743 
L 577.232333 57.019188 
L 579.727271 56.910042 
L 579.809121 56.919331 
L 579.738386 56.92862 
L 579.834384 56.940231 
L 581.130863 56.831085 
L 581.263239 56.791606 
L 581.138947 56.840374 
L 581.264249 56.800895 
L 588.014426 56.742839 
L 588.016447 56.982032 
L 588.125581 56.97042 
L 588.244821 57.00061 
L 588.253916 56.988999 
L 589.615066 57.098145 
L 589.628203 57.088856 
L 589.74138 57.116723 
L 589.805041 57.088856 
L 589.744411 57.121368 
L 589.852535 57.12369 
L 589.978848 57.086534 
L 589.984911 57.0935 
L 590.06171 57.105112 
L 590.090004 57.0726 
L 590.094046 57.077245 
L 590.224401 57.042411 
L 590.227433 57.047055 
L 591.773506 57.151557 
L 591.808874 57.163168 
L 591.827063 57.137623 
L 591.882641 57.132979 
L 591.991775 57.116723 
L 592.00188 57.132979 
L 592.078679 57.119045 
L 592.006933 57.126012 
L 592.103941 57.091178 
L 593.770265 56.984354 
L 593.88041 56.972743 
L 593.796538 57.005254 
L 593.882431 56.975065 
L 594.015818 57.065633 
L 594.14011 57.033122 
L 594.147183 57.040088 
L 594.183562 57.063311 
L 594.26036 57.023832 
L 598.11948 57.007577 
L 598.210426 56.745161 
L 598.231646 56.747483 
L 601.783573 56.638337 
L 601.89776 56.594214 
L 601.913928 56.612792 
L 602.029126 56.626726 
L 602.03721 56.619759 
L 603.331667 56.512935 
L 603.41756 56.496679 
L 603.389266 56.526868 
L 603.443834 56.50829 
L 606.299522 56.399144 
L 606.346005 56.401466 
L 606.388446 56.445589 
L 606.402594 56.438622 
L 608.547897 56.329476 
L 608.55396 56.322509 
L 608.647937 56.389855 
L 608.648947 56.387532 
L 609.964625 56.278386 
L 610.098012 56.238908 
L 610.101043 56.24123 
L 610.221294 56.24123 
L 612.604065 56.299286 
L 612.709158 56.55938 
L 612.716232 56.552413 
L 612.966837 56.471134 
L 613.019383 56.721938 
L 613.077993 56.698716 
L 613.19218 56.70336 
L 613.311419 56.666204 
L 613.325566 56.673171 
L 613.442785 56.705682 
L 613.330619 56.668526 
L 613.453901 56.691749 
L 614.929239 56.582603 
L 615.034331 56.589569 
L 614.945407 56.594214 
L 615.040394 56.601181 
L 615.125277 56.615114 
L 615.089909 56.582603 
L 615.15256 56.601181 
L 615.848799 56.499001 
L 615.921555 56.466489 
L 615.960965 56.48739 
L 617.379714 56.378243 
L 617.501985 56.348054 
L 617.383756 56.380566 
L 617.51108 56.352699 
L 618.0709 56.4572 
L 618.086058 56.471134 
L 618.11031 56.440945 
L 618.180035 56.438622 
L 618.776233 56.329476 
L 618.845958 56.299286 
L 618.782296 56.336443 
L 618.893451 56.31322 
L 618.955092 56.306253 
L 618.913662 56.324831 
L 618.994502 56.355021 
L 619.135973 56.413077 
L 619.137994 56.410755 
L 619.215803 56.359665 
L 619.266328 56.392177 
L 619.3694 56.380566 
L 619.27037 56.389855 
L 619.378494 56.373599 
L 621.21054 56.482745 
L 621.304517 56.459523 
L 621.257024 56.450234 
L 621.314623 56.447911 
L 621.392431 56.429333 
L 621.336854 56.454878 
L 621.42982 56.440945 
L 621.547039 56.438622 
L 621.54906 56.443267 
L 622.636364 56.375921 
L 622.636364 56.375921 
" clip-path="url(#p394b204f46)" style="fill: none; stroke: #ff7f0e; stroke-width: 1.5; stroke-linecap: square"/>
   </g>
   <g id="patch_3">
    <path d="M 90 320.4 
L 90 43.2 
" style="fill: none; stroke: #000000; stroke-width: 0.8; stroke-linejoin: miter; stroke-linecap: square"/>
   </g>
   <g id="patch_4">
    <path d="M 648 320.4 
L 648 43.2 
" style="fill: none; stroke: #000000; stroke-width: 0.8; stroke-linejoin: miter; stroke-linecap: square"/>
   </g>
   <g id="patch_5">
    <path d="M 90 320.4 
L 648 320.4 
" style="fill: none; stroke: #000000; stroke-width: 0.8; stroke-linejoin: miter; stroke-linecap: square"/>
   </g>
   <g id="patch_6">
    <path d="M 90 43.2 
L 648 43.2 
" style="fill: none; stroke: #000000; stroke-width: 0.8; stroke-linejoin: miter; stroke-linecap: square"/>
   </g>
   <g id="text_15">
    <!-- Evolution of rewards (PPO ) -->
    <g transform="translate(287.069062 37.2) scale(0.12 -0.12)">
     <defs>
      <path id="DejaVuSans-45" d="M 628 4666 
L 3578 4666 
L 3578 4134 
L 1259 4134 
L 1259 2753 
L 3481 2753 
L 3481 2222 
L 1259 2222 
L 1259 531 
L 3634 531 
L 3634 0 
L 628 0 
L 628 4666 
z
" transform="scale(0.015625)"/>
      <path id="DejaVuSans-6f" d="M 1959 3097 
Q 1497 3097 1228 2736 
Q 959 2375 959 1747 
Q 959 1119 1226 758 
Q 1494 397 1959 397 
Q 2419 397 2687 759 
Q 2956 1122 2956 1747 
Q 2956 2369 2687 2733 
Q 2419 3097 1959 3097 
z
M 1959 3584 
Q 2709 3584 3137 3096 
Q 3566 2609 3566 1747 
Q 3566 888 3137 398 
Q 2709 -91 1959 -91 
Q 1206 -91 779 398 
Q 353 888 353 1747 
Q 353 2609 779 3096 
Q 1206 3584 1959 3584 
z
" transform="scale(0.015625)"/>
      <path id="DejaVuSans-6c" d="M 603 4863 
L 1178 4863 
L 1178 0 
L 603 0 
L 603 4863 
z
" transform="scale(0.015625)"/>
      <path id="DejaVuSans-75" d="M 544 1381 
L 544 3500 
L 1119 3500 
L 1119 1403 
Q 1119 906 1312 657 
Q 1506 409 1894 409 
Q 2359 409 2629 706 
Q 2900 1003 2900 1516 
L 2900 3500 
L 3475 3500 
L 3475 0 
L 2900 0 
L 2900 538 
Q 2691 219 2414 64 
Q 2138 -91 1772 -91 
Q 1169 -91 856 284 
Q 544 659 544 1381 
z
M 1991 3584 
L 1991 3584 
z
" transform="scale(0.015625)"/>
      <path id="DejaVuSans-6e" d="M 3513 2113 
L 3513 0 
L 2938 0 
L 2938 2094 
Q 2938 2591 2744 2837 
Q 2550 3084 2163 3084 
Q 1697 3084 1428 2787 
Q 1159 2491 1159 1978 
L 1159 0 
L 581 0 
L 581 3500 
L 1159 3500 
L 1159 2956 
Q 1366 3272 1645 3428 
Q 1925 3584 2291 3584 
Q 2894 3584 3203 3211 
Q 3513 2838 3513 2113 
z
" transform="scale(0.015625)"/>
      <path id="DejaVuSans-66" d="M 2375 4863 
L 2375 4384 
L 1825 4384 
Q 1516 4384 1395 4259 
Q 1275 4134 1275 3809 
L 1275 3500 
L 2222 3500 
L 2222 3053 
L 1275 3053 
L 1275 0 
L 697 0 
L 697 3053 
L 147 3053 
L 147 3500 
L 697 3500 
L 697 3744 
Q 697 4328 969 4595 
Q 1241 4863 1831 4863 
L 2375 4863 
z
" transform="scale(0.015625)"/>
      <path id="DejaVuSans-28" d="M 1984 4856 
Q 1566 4138 1362 3434 
Q 1159 2731 1159 2009 
Q 1159 1288 1364 580 
Q 1569 -128 1984 -844 
L 1484 -844 
Q 1016 -109 783 600 
Q 550 1309 550 2009 
Q 550 2706 781 3412 
Q 1013 4119 1484 4856 
L 1984 4856 
z
" transform="scale(0.015625)"/>
      <path id="DejaVuSans-50" d="M 1259 4147 
L 1259 2394 
L 2053 2394 
Q 2494 2394 2734 2622 
Q 2975 2850 2975 3272 
Q 2975 3691 2734 3919 
Q 2494 4147 2053 4147 
L 1259 4147 
z
M 628 4666 
L 2053 4666 
Q 2838 4666 3239 4311 
Q 3641 3956 3641 3272 
Q 3641 2581 3239 2228 
Q 2838 1875 2053 1875 
L 1259 1875 
L 1259 0 
L 628 0 
L 628 4666 
z
" transform="scale(0.015625)"/>
      <path id="DejaVuSans-4f" d="M 2522 4238 
Q 1834 4238 1429 3725 
Q 1025 3213 1025 2328 
Q 1025 1447 1429 934 
Q 1834 422 2522 422 
Q 3209 422 3611 934 
Q 4013 1447 4013 2328 
Q 4013 3213 3611 3725 
Q 3209 4238 2522 4238 
z
M 2522 4750 
Q 3503 4750 4090 4092 
Q 4678 3434 4678 2328 
Q 4678 1225 4090 567 
Q 3503 -91 2522 -91 
Q 1538 -91 948 565 
Q 359 1222 359 2328 
Q 359 3434 948 4092 
Q 1538 4750 2522 4750 
z
" transform="scale(0.015625)"/>
      <path id="DejaVuSans-29" d="M 513 4856 
L 1013 4856 
Q 1481 4119 1714 3412 
Q 1947 2706 1947 2009 
Q 1947 1309 1714 600 
Q 1481 -109 1013 -844 
L 513 -844 
Q 928 -128 1133 580 
Q 1338 1288 1338 2009 
Q 1338 2731 1133 3434 
Q 928 4138 513 4856 
z
" transform="scale(0.015625)"/>
     </defs>
     <use xlink:href="#DejaVuSans-45"/>
     <use xlink:href="#DejaVuSans-76" x="63.183594"/>
     <use xlink:href="#DejaVuSans-6f" x="122.363281"/>
     <use xlink:href="#DejaVuSans-6c" x="183.544922"/>
     <use xlink:href="#DejaVuSans-75" x="211.328125"/>
     <use xlink:href="#DejaVuSans-74" x="274.707031"/>
     <use xlink:href="#DejaVuSans-69" x="313.916016"/>
     <use xlink:href="#DejaVuSans-6f" x="341.699219"/>
     <use xlink:href="#DejaVuSans-6e" x="402.880859"/>
     <use xlink:href="#DejaVuSans-20" x="466.259766"/>
     <use xlink:href="#DejaVuSans-6f" x="498.046875"/>
     <use xlink:href="#DejaVuSans-66" x="559.228516"/>
     <use xlink:href="#DejaVuSans-20" x="594.433594"/>
     <use xlink:href="#DejaVuSans-72" x="626.220703"/>
     <use xlink:href="#DejaVuSans-65" x="665.083984"/>
     <use xlink:href="#DejaVuSans-77" x="726.607422"/>
     <use xlink:href="#DejaVuSans-61" x="808.394531"/>
     <use xlink:href="#DejaVuSans-72" x="869.673828"/>
     <use xlink:href="#DejaVuSans-64" x="909.037109"/>
     <use xlink:href="#DejaVuSans-73" x="972.513672"/>
     <use xlink:href="#DejaVuSans-20" x="1024.613281"/>
     <use xlink:href="#DejaVuSans-28" x="1056.400391"/>
     <use xlink:href="#DejaVuSans-50" x="1095.414062"/>
     <use xlink:href="#DejaVuSans-50" x="1155.716797"/>
     <use xlink:href="#DejaVuSans-4f" x="1216.019531"/>
     <use xlink:href="#DejaVuSans-20" x="1294.730469"/>
     <use xlink:href="#DejaVuSans-29" x="1326.517578"/>
    </g>
   </g>
  </g>
 </g>
 <defs>
  <clipPath id="p394b204f46">
   <rect x="90" y="43.2" width="558" height="277.2"/>
  </clipPath>
 </defs>
</svg>
